0
SECTION
2
HEADER
9
$INSUNITS
70
4
9
$ACADVER
1
AC1014
9
$HANDSEED
5
FFFF
0
ENDSEC
0
SECTION
2
TABLES
0
TABLE
2
VPORT
5
8
100
AcDbSymbolTable
0
ENDTAB
0
TABLE
2
LTYPE
5
5
100
AcDbSymbolTable
0
LTYPE
5
14
100
AcDbSymbolTableRecord
100
AcDbLinetypeTableRecord
2
BYBLOCK
70
0
0
LTYPE
5
15
100
AcDbSymbolTableRecord
100
AcDbLinetypeTableRecord
2
BYLAYER
70
0
0
ENDTAB
0
TABLE
2
LAYER
5
2
100
AcDbSymbolTable
70
2
0
LAYER
5
50
100
AcDbSymbolTableRecord
100
AcDbLayerTableRecord
2
0
70
0
6
CONTINUOUS
0
ENDTAB
0
TABLE
2
STYLE
5
3
100
AcDbSymbolTable
70
1
0
STYLE
5
11
100
AcDbSymbolTableRecord
100
AcDbTextStyleTableRecord
2
STANDARD
70
0
0
ENDTAB
0
TABLE
2
VIEW
5
6
100
AcDbSymbolTable
70
0
0
ENDTAB
0
TABLE
2
UCS
5
7
100
AcDbSymbolTable
70
0
0
ENDTAB
0
TABLE
2
APPID
5
9
100
AcDbSymbolTable
70
2
0
APPID
5
12
100
AcDbSymbolTableRecord
100
AcDbRegAppTableRecord
2
ACAD
70
0
0
ENDTAB
0
TABLE
2
DIMSTYLE
5
A
100
AcDbSymbolTable
70
1
0
ENDTAB
0
TABLE
2
BLOCK_RECORD
5
1
100
AcDbSymbolTable
70
1
0
BLOCK_RECORD
5
1F
100
AcDbSymbolTableRecord
100
AcDbBlockTableRecord
2
*MODEL_SPACE
0
BLOCK_RECORD
5
1B
100
AcDbSymbolTableRecord
100
AcDbBlockTableRecord
2
*PAPER_SPACE
0
ENDTAB
0
ENDSEC
0
SECTION
2
BLOCKS
0
BLOCK
5
20
100
AcDbEntity
100
AcDbBlockBegin
2
*MODEL_SPACE
0
ENDBLK
5
21
100
AcDbEntity
100
AcDbBlockEnd
0
BLOCK
5
1C
100
AcDbEntity
100
AcDbBlockBegin
2
*PAPER_SPACE
0
ENDBLK
5
1D
100
AcDbEntity
100
AcDbBlockEnd
0
ENDSEC
0
SECTION
2
ENTITIES
0
LINE
5
100
100
AcDbEntity
8
0
100
AcDbLine
10
57.418500000000002
20
96.009000000000015
30
0
11
49.370657491289009
21
96.008665357422004
31
0
0
LINE
5
101
100
AcDbEntity
8
0
100
AcDbLine
10
45.159999999999997
20
94.510000000000005
30
0
11
42.039999999999999
21
94.499340000000004
31
0
0
LINE
5
102
100
AcDbEntity
8
0
100
AcDbLine
10
1.9830000000000003
20
57.261299858420102
30
0
11
1.9830000000000003
21
38.871699999999997
31
0
0
LINE
5
103
100
AcDbEntity
8
0
100
AcDbLine
10
43.15999904138863
20
1.6299999948914463
30
0
11
45.160330000000002
21
1.6406600000000002
31
0
0
LINE
5
104
100
AcDbEntity
8
0
100
AcDbLine
10
45.160330000000002
20
1.6406600000000002
30
0
11
47.160330000000002
21
1.6406700000000001
31
0
0
LINE
5
105
100
AcDbEntity
8
0
100
AcDbLine
10
88.75
20
44.610012710227387
30
0
11
88.75
21
48.060000000000009
31
0
0
LINE
5
106
100
AcDbEntity
8
0
100
AcDbLine
10
88.75
20
48.060000000000009
30
0
11
88.75
21
51.5
31
0
0
LINE
5
107
100
AcDbEntity
8
0
100
AcDbLine
10
88.75
20
51.5
30
0
11
88.749990000000011
21
51.919670000000011
31
0
0
LINE
5
108
100
AcDbEntity
8
0
100
AcDbLine
10
89.295500000000004
20
96.009000000000015
30
0
11
57.418500000000002
21
96.009000000000015
31
0
0
LINE
5
109
100
AcDbEntity
8
0
100
AcDbLine
10
57.418500000000002
20
96.009000000000015
30
0
11
49.370657491289009
21
96.008665357422004
31
0
0
ARC
5
110
100
AcDbEntity
8
0
100
AcDbCircle
10
49.365000000000009
20
95.254000000000019
30
0
40
0.75468656334968154
210
0
220
-0
230
1
100
AcDbArc
50
89.570479421037916
51
179.62039738441149
0
ARC
5
111
100
AcDbEntity
8
0
100
AcDbCircle
10
47.860000000000007
20
95.259
30
0
40
0.7503299999999945
210
-0
220
0
230
1
100
AcDbArc
50
-89.974754112086842
51
0
0
LINE
5
112
100
AcDbEntity
8
0
100
AcDbLine
10
47.860330601698209
20
94.508999999777188
30
0
11
45.159999999999997
21
94.510000000000005
31
0
0
ARC
5
113
100
AcDbEntity
8
0
100
AcDbCircle
10
42.045000000000002
20
95.254000000000019
30
0
40
0.75467656356899571
210
0
220
0
230
1
100
AcDbArc
50
179.57028866721285
51
269.62039235444166
0
ARC
5
114
100
AcDbEntity
8
0
100
AcDbCircle
10
40.540999999999997
20
95.260000000000019
30
0
40
0.74900066755600125
210
-0
220
0
230
1
100
AcDbArc
50
-0.025909540030735333
51
90.076496322388294
0
LINE
5
115
100
AcDbEntity
8
0
100
AcDbLine
10
40.540000000000006
20
96.008999999999588
30
0
11
35.1935
21
96.009000000000015
31
0
0
LINE
5
116
100
AcDbEntity
8
0
100
AcDbLine
10
35.1935
20
96.009000000000015
30
0
11
1.0305000000000009
21
96.009000000000015
31
0
0
ARC
5
117
100
AcDbEntity
8
0
100
AcDbCircle
10
1.03
20
95.057000000000016
30
0
40
0.95200013130251371
210
0
220
-0
230
1
100
AcDbArc
50
89.969907681594051
51
180.03009231840412
0
LINE
5
118
100
AcDbEntity
8
0
100
AcDbLine
10
1.9830000000000003
20
57.261299858420102
30
0
11
1.9830000000000003
21
38.871699999999997
31
0
0
ARC
5
119
100
AcDbEntity
8
0
100
AcDbCircle
10
1.03
20
1.077
30
0
40
0.95299013116610576
210
0
220
0
230
1
100
AcDbArc
50
180.03009231841625
51
270.03006034770755
0
LINE
5
120
100
AcDbEntity
8
0
100
AcDbLine
10
43.15999904138863
20
1.6299999948914463
30
0
11
45.160330000000002
21
1.6406600000000002
31
0
0
LINE
5
121
100
AcDbEntity
8
0
100
AcDbLine
10
45.160330000000002
20
1.6406600000000002
30
0
11
47.160330000000002
21
1.6406700000000001
31
0
0
LINE
5
122
100
AcDbEntity
8
0
100
AcDbLine
10
88.75
20
44.610012710227387
30
0
11
88.75
21
48.060000000000009
31
0
0
LINE
5
123
100
AcDbEntity
8
0
100
AcDbLine
10
88.75
20
48.060000000000009
30
0
11
88.75
21
51.5
31
0
0
LINE
5
124
100
AcDbEntity
8
0
100
AcDbLine
10
88.75
20
51.5
30
0
11
88.749990000000011
21
51.919670000000011
31
0
0
ARC
5
125
100
AcDbEntity
8
0
100
AcDbCircle
10
89.295000000000016
20
95.055999999999997
30
0
40
0.95300013116473337
210
0
220
-0
230
1
100
AcDbArc
50
0.030060741998285526
51
89.969939257998675
0
LINE
5
126
100
AcDbEntity
8
0
100
AcDbLine
10
89.295500000000004
20
96.009000000000015
30
0
11
57.418500000000002
21
96.009000000000015
31
0
0
ARC
5
127
100
AcDbEntity
8
0
100
AcDbCircle
10
49.365000000000009
20
95.254000000000019
30
0
40
0.75468656334968154
210
0
220
-0
230
1
100
AcDbArc
50
89.570479421037916
51
179.62039738441149
0
ARC
5
128
100
AcDbEntity
8
0
100
AcDbCircle
10
47.860000000000007
20
95.259
30
0
40
0.7503299999999945
210
-0
220
0
230
1
100
AcDbArc
50
-89.974754112086842
51
0
0
LINE
5
129
100
AcDbEntity
8
0
100
AcDbLine
10
47.860330601698209
20
94.508999999777188
30
0
11
45.159999999999997
21
94.510000000000005
31
0
0
LINE
5
130
100
AcDbEntity
8
0
100
AcDbLine
10
45.159999999999997
20
94.510000000000005
30
0
11
42.039999999999999
21
94.499340000000004
31
0
0
ARC
5
131
100
AcDbEntity
8
0
100
AcDbCircle
10
42.045000000000002
20
95.254000000000019
30
0
40
0.75467656356899571
210
0
220
0
230
1
100
AcDbArc
50
179.57028866721285
51
269.62039235444166
0
ARC
5
132
100
AcDbEntity
8
0
100
AcDbCircle
10
40.540999999999997
20
95.260000000000019
30
0
40
0.74900066755600125
210
-0
220
0
230
1
100
AcDbArc
50
-0.025909540030735333
51
90.076496322388294
0
LINE
5
133
100
AcDbEntity
8
0
100
AcDbLine
10
40.540000000000006
20
96.008999999999588
30
0
11
35.1935
21
96.009000000000015
31
0
0
LINE
5
134
100
AcDbEntity
8
0
100
AcDbLine
10
35.1935
20
96.009000000000015
30
0
11
1.0305000000000009
21
96.009000000000015
31
0
0
ARC
5
135
100
AcDbEntity
8
0
100
AcDbCircle
10
1.03
20
95.057000000000016
30
0
40
0.95200013130251371
210
0
220
-0
230
1
100
AcDbArc
50
89.969907681594051
51
180.03009231840412
0
LINE
5
136
100
AcDbEntity
8
0
100
AcDbLine
10
1.9830000000000003
20
57.261299858420102
30
0
11
1.9830000000000003
21
38.871699999999997
31
0
0
ARC
5
137
100
AcDbEntity
8
0
100
AcDbCircle
10
1.03
20
1.077
30
0
40
0.95299013116610576
210
0
220
0
230
1
100
AcDbArc
50
180.03009231841625
51
270.03006034770755
0
LINE
5
138
100
AcDbEntity
8
0
100
AcDbLine
10
43.15999904138863
20
1.6299999948914463
30
0
11
45.160330000000002
21
1.6406600000000002
31
0
0
LINE
5
139
100
AcDbEntity
8
0
100
AcDbLine
10
45.160330000000002
20
1.6406600000000002
30
0
11
47.160330000000002
21
1.6406700000000001
31
0
0
ARC
5
140
100
AcDbEntity
8
0
100
AcDbCircle
10
89.295000000000016
20
1.077
30
0
40
0.95300013116448667
210
-0
220
0
230
1
100
AcDbArc
50
270.03006105745897
51
359.96993925800172
0
LINE
5
141
100
AcDbEntity
8
0
100
AcDbLine
10
88.75
20
44.610012710227387
30
0
11
88.75
21
48.060000000000009
31
0
0
LINE
5
142
100
AcDbEntity
8
0
100
AcDbLine
10
88.75
20
48.060000000000009
30
0
11
88.75
21
51.5
31
0
0
LINE
5
143
100
AcDbEntity
8
0
100
AcDbLine
10
88.75
20
51.5
30
0
11
88.749990000000011
21
51.919670000000011
31
0
0
ARC
5
144
100
AcDbEntity
8
0
100
AcDbCircle
10
89.295000000000016
20
95.055999999999997
30
0
40
0.95300013116473337
210
0
220
-0
230
1
100
AcDbArc
50
0.030060741998285526
51
89.969939257998675
0
LINE
5
145
100
AcDbEntity
8
0
100
AcDbLine
10
45.160330000000002
20
1.6406600000000002
30
0
11
65.16032999974999
21
1.6407599999999991
31
0
0
LINE
5
146
100
AcDbEntity
8
0
100
AcDbLine
10
45.160330000000002
20
1.6406600000000002
30
0
11
25.160330000250003
21
1.6405600000000011
31
0
0
ARC
5
147
100
AcDbEntity
8
0
100
AcDbCircle
10
25.163329552392057
20
0.87686388348018562
30
0
40
0.76370200713400038
210
0
220
0
230
1
100
AcDbArc
50
90.225038193477275
51
179.39904883791155
0
ARC
5
148
100
AcDbEntity
8
0
100
AcDbCircle
10
23.649329552392061
20
0.88486388348018563
30
0
40
0.75034000006664803
210
0
220
0
230
1
100
AcDbArc
50
-89.974025568730525
51
0.00076359731750698747
0
ARC
5
149
100
AcDbEntity
8
0
100
AcDbCircle
10
66.664999999749995
20
0.87908999999999904
30
0
40
0.75500444303299996
210
0
220
0
230
1
100
AcDbArc
50
179.59394887939897
51
269.64561132663988
0
ARC
5
150
100
AcDbEntity
8
0
100
AcDbCircle
10
65.153999999749999
20
0.88408999999999904
30
0
40
0.75669647666700424
210
0
220
-0
230
1
100
AcDbArc
50
0.026377142236247694
51
89.520697498109598
0
LINE
5
151
100
AcDbEntity
8
0
100
AcDbLine
10
88.75
20
48.060000000000009
30
0
11
88.749356637358602
21
75.059999992334923
31
0
0
LINE
5
152
100
AcDbEntity
8
0
100
AcDbLine
10
88.75
20
48.060000000000009
30
0
11
88.75
21
21.060000000000009
31
0
0
ARC
5
153
100
AcDbEntity
8
0
100
AcDbCircle
10
89.493265832224807
20
19.543985515698708
30
0
40
0.75568654143100122
210
-0
220
0
230
1
100
AcDbArc
50
-0.35363568486123204
51
89.620899708873409
0
ARC
5
154
100
AcDbEntity
8
0
100
AcDbCircle
10
89.500265832224827
20
21.049985515698708
30
0
40
0.7503326654890069
210
0
220
0
230
1
100
AcDbArc
50
179.23526623921853
51
269.84727881379996
0
ARC
5
155
100
AcDbEntity
8
0
100
AcDbCircle
10
89.504366637358586
20
75.054329992334914
30
0
40
0.75503129007999836
210
0
220
-0
230
1
100
AcDbArc
50
89.594983569117929
51
179.56972627805678
0
ARC
5
156
100
AcDbEntity
8
0
100
AcDbCircle
10
89.498366637358586
20
76.558329992334905
30
0
40
0.74904272241299918
210
0
220
0
230
1
100
AcDbArc
50
270.86722680608699
51
359.38805232725878
0
LINE
5
157
100
AcDbEntity
8
0
100
AcDbLine
10
1.9830000000000003
20
48.066499929210053
30
0
11
1.9830000000000003
21
82.566499929210053
31
0
0
LINE
5
158
100
AcDbEntity
8
0
100
AcDbLine
10
1.9830000000000003
20
48.066499929210053
30
0
11
1.9830000000000003
21
13.566499929210053
31
0
0
ARC
5
159
100
AcDbEntity
8
0
100
AcDbCircle
10
1.03
20
11.661799929210055
30
0
40
0.95200021513775268
210
0
220
-0
230
1
100
AcDbArc
50
89.969914018979367
51
180.01805539210469
0
ARC
5
160
100
AcDbEntity
8
0
100
AcDbCircle
10
1.03
20
13.566799929210056
30
0
40
0.953000047219002
210
0
220
0
230
1
100
AcDbArc
50
270.03005441656069
51
359.98196355374364
0
ARC
5
161
100
AcDbEntity
8
0
100
AcDbCircle
10
1.0301999159827477
20
82.566200102244778
30
0
40
0.95280013119200002
210
0
220
-0
230
1
100
AcDbArc
50
0.018029825348633642
51
89.969932948019746
0
ARC
5
162
100
AcDbEntity
8
0
100
AcDbCircle
10
1.0311999159827476
20
84.471200102244779
30
0
40
0.95220013127494185
210
0
220
0
230
1
100
AcDbArc
50
179.98196355376385
51
269.96991400218064
0
LINE
5
163
100
AcDbEntity
8
0
100
AcDbLine
10
0.078999831887477598
20
84.471499850434782
30
0
11
0.077999999999511918
21
95.056500000000014
31
0
0
LINE
5
164
100
AcDbEntity
8
0
100
AcDbLine
10
0.077999999999906477
20
11.661499929210063
30
0
11
0.077010000272950005
21
1.0764994800419991
31
0
0
LINE
5
165
100
AcDbEntity
8
0
100
AcDbLine
10
1.0304999881951848
20
0.12400999999391685
30
0
11
23.649669711026057
21
0.13452396051718551
31
0
0
LINE
5
166
100
AcDbEntity
8
0
100
AcDbLine
10
66.66033013891257
20
0.12409999913950448
30
0
11
89.295500005247007
21
0.12400000000300002
31
0
0
LINE
5
167
100
AcDbEntity
8
0
100
AcDbLine
10
90.248000000000275
20
1.0765
30
0
11
90.24893797979783
21
19.539321367079712
31
0
0
LINE
5
168
100
AcDbEntity
8
0
100
AcDbLine
10
90.24736663735851
20
76.550329992334909
30
0
11
90.248000000000005
21
95.056500000000014
31
0
0
ENDSEC
0
SECTION
2
OBJECTS
0
DICTIONARY
5
C
100
AcDbDictionary
3
ACAD_GROUP
350
D
3
ACAD_MLINESTYLE
350
17
0
DICTIONARY
5
D
100
AcDbDictionary
0
DICTIONARY
5
1A
330
C
100
AcDbDictionary
0
DICTIONARY
5
17
100
AcDbDictionary
0
ENDSEC
0
EOF
