%TF.GenerationSoftware,KiCad,Pcbnew,6.0.7-f9a2dced07~116~ubuntu20.04.1*%
%TF.CreationDate,2022-10-11T04:26:54+03:00*%
%TF.ProjectId,obc-adcs-board,6f62632d-6164-4637-932d-626f6172642e,rev?*%
%TF.SameCoordinates,PX3e2df80PY83e4a60*%
%TF.FileFunction,Soldermask,Bot*%
%TF.FilePolarity,Negative*%
%FSLAX46Y46*%
G04 Gerber Fmt 4.6, Leading zero omitted, Abs format (unit mm)*
G04 Created by KiCad (PCBNEW 6.0.7-f9a2dced07~116~ubuntu20.04.1) date 2022-10-11 04:26:54*
%MOMM*%
%LPD*%
G01*
G04 APERTURE LIST*
G04 Aperture macros list*
%AMRoundRect*
0 Rectangle with rounded corners*
0 $1 Rounding radius*
0 $2 $3 $4 $5 $6 $7 $8 $9 X,Y pos of 4 corners*
0 Add a 4 corners polygon primitive as box body*
4,1,4,$2,$3,$4,$5,$6,$7,$8,$9,$2,$3,0*
0 Add four circle primitives for the rounded corners*
1,1,$1+$1,$2,$3*
1,1,$1+$1,$4,$5*
1,1,$1+$1,$6,$7*
1,1,$1+$1,$8,$9*
0 Add four rect primitives between the rounded corners*
20,1,$1+$1,$2,$3,$4,$5,0*
20,1,$1+$1,$4,$5,$6,$7,0*
20,1,$1+$1,$6,$7,$8,$9,0*
20,1,$1+$1,$8,$9,$2,$3,0*%
G04 Aperture macros list end*
%TA.AperFunction,Profile*%
%ADD10C,0.100000*%
%TD*%
%ADD11C,0.010000*%
%ADD12C,5.600000*%
%ADD13C,0.900000*%
%ADD14C,1.190000*%
%ADD15R,0.850000X0.850000*%
%ADD16R,1.530000X1.530000*%
%ADD17C,1.530000*%
%ADD18RoundRect,0.135000X0.185000X-0.135000X0.185000X0.135000X-0.185000X0.135000X-0.185000X-0.135000X0*%
%ADD19R,0.600000X0.650000*%
%ADD20R,0.850000X1.340000*%
%ADD21R,0.450000X1.475000*%
%ADD22R,1.780000X3.430000*%
%ADD23R,1.020000X0.950000*%
%ADD24RoundRect,0.200000X-0.275000X0.200000X-0.275000X-0.200000X0.275000X-0.200000X0.275000X0.200000X0*%
%ADD25RoundRect,0.200000X0.275000X-0.200000X0.275000X0.200000X-0.275000X0.200000X-0.275000X-0.200000X0*%
%ADD26R,1.475000X0.300000*%
%ADD27R,0.300000X1.475000*%
%ADD28R,0.700000X1.800000*%
%ADD29R,1.600000X2.200000*%
%ADD30RoundRect,0.135000X-0.185000X0.135000X-0.185000X-0.135000X0.185000X-0.135000X0.185000X0.135000X0*%
%ADD31RoundRect,0.200000X-0.200000X-0.275000X0.200000X-0.275000X0.200000X0.275000X-0.200000X0.275000X0*%
%ADD32C,1.000000*%
%ADD33RoundRect,0.140000X0.140000X0.170000X-0.140000X0.170000X-0.140000X-0.170000X0.140000X-0.170000X0*%
%ADD34RoundRect,0.225000X-0.250000X0.225000X-0.250000X-0.225000X0.250000X-0.225000X0.250000X0.225000X0*%
%ADD35RoundRect,0.225000X0.225000X0.250000X-0.225000X0.250000X-0.225000X-0.250000X0.225000X-0.250000X0*%
%ADD36RoundRect,0.140000X0.170000X-0.140000X0.170000X0.140000X-0.170000X0.140000X-0.170000X-0.140000X0*%
%ADD37RoundRect,0.200000X0.200000X0.275000X-0.200000X0.275000X-0.200000X-0.275000X0.200000X-0.275000X0*%
%ADD38R,1.000000X0.600000*%
%ADD39R,0.700000X0.900000*%
%ADD40R,0.750000X0.900000*%
%ADD41RoundRect,0.140000X-0.170000X0.140000X-0.170000X-0.140000X0.170000X-0.140000X0.170000X0.140000X0*%
%ADD42R,0.650000X1.528000*%
%ADD43RoundRect,0.225000X-0.225000X-0.250000X0.225000X-0.250000X0.225000X0.250000X-0.225000X0.250000X0*%
%ADD44RoundRect,0.140000X-0.140000X-0.170000X0.140000X-0.170000X0.140000X0.170000X-0.140000X0.170000X0*%
%ADD45R,1.400000X0.450000*%
%ADD46RoundRect,0.100000X-0.100000X0.712500X-0.100000X-0.712500X0.100000X-0.712500X0.100000X0.712500X0*%
%ADD47RoundRect,0.225000X0.250000X-0.225000X0.250000X0.225000X-0.250000X0.225000X-0.250000X-0.225000X0*%
%ADD48RoundRect,0.135000X0.135000X0.185000X-0.135000X0.185000X-0.135000X-0.185000X0.135000X-0.185000X0*%
%ADD49R,0.600000X1.000000*%
%ADD50R,1.010000X0.940000*%
%ADD51R,1.000000X1.800000*%
%ADD52R,3.430000X1.780000*%
%ADD53RoundRect,0.250000X-0.375000X-1.075000X0.375000X-1.075000X0.375000X1.075000X-0.375000X1.075000X0*%
%ADD54R,0.940000X1.010000*%
%ADD55R,0.940000X1.020000*%
%ADD56R,0.450000X1.400000*%
%ADD57R,1.550000X2.550000*%
%ADD58R,0.950000X2.550000*%
%ADD59R,0.550000X2.550000*%
%ADD60RoundRect,0.250000X-1.075000X0.375000X-1.075000X-0.375000X1.075000X-0.375000X1.075000X0.375000X0*%
%ADD61RoundRect,0.050000X0.387500X0.050000X-0.387500X0.050000X-0.387500X-0.050000X0.387500X-0.050000X0*%
%ADD62RoundRect,0.050000X0.050000X0.387500X-0.050000X0.387500X-0.050000X-0.387500X0.050000X-0.387500X0*%
%ADD63R,2.600000X2.600000*%
%ADD64R,0.900000X0.700000*%
%ADD65R,0.900000X0.750000*%
%ADD66R,0.700000X0.650000*%
%ADD67RoundRect,0.135000X-0.135000X-0.185000X0.135000X-0.185000X0.135000X0.185000X-0.135000X0.185000X0*%
%ADD68R,0.650000X0.700000*%
%ADD69R,1.000000X1.500000*%
%ADD70R,0.650000X1.525000*%
%ADD71R,1.700000X0.700000*%
%ADD72R,2.550000X1.550000*%
%ADD73R,2.550000X0.950000*%
%ADD74R,2.550000X0.550000*%
%ADD75R,1.528000X0.650000*%
%ADD76R,0.800000X0.900000*%
G04 APERTURE END LIST*
D10*
X1600000Y43065000D02*
X1600000Y53065000D01*
X66685000Y120000D02*
X89370000Y120000D01*
X850000Y42315000D02*
G75*
G03*
X100000Y41565000I0J-750000D01*
G01*
X65935000Y870000D02*
G75*
G03*
X65185000Y1620000I-750000J0D01*
G01*
X72185000Y94510000D02*
G75*
G03*
X72935000Y95260000I0J750000D01*
G01*
X90270000Y12065000D02*
X90270000Y1020000D01*
X850000Y42315000D02*
G75*
G03*
X1600000Y43065000I0J750000D01*
G01*
X25185000Y1620000D02*
G75*
G03*
X24435000Y870000I0J-750000D01*
G01*
X18185000Y94510000D02*
X72185000Y94510000D01*
X100000Y41565000D02*
X100000Y1010000D01*
X73685000Y96010000D02*
G75*
G03*
X72935000Y95260000I0J-750000D01*
G01*
X1000000Y96010000D02*
G75*
G03*
X100000Y95110000I0J-900000D01*
G01*
X100000Y1010000D02*
G75*
G03*
X1000000Y110000I900000J0D01*
G01*
X88770000Y13565000D02*
X88770000Y82565000D01*
X90270000Y12065000D02*
G75*
G03*
X89520000Y12815000I-750000J0D01*
G01*
X89520000Y83315000D02*
G75*
G03*
X88770000Y82565000I0J-750000D01*
G01*
X88770000Y13565000D02*
G75*
G03*
X89520000Y12815000I750000J0D01*
G01*
X25185000Y1620000D02*
X65185000Y1620000D01*
X73685000Y96010000D02*
X89370000Y96010000D01*
X89520000Y83315000D02*
G75*
G03*
X90270000Y84065000I0J750000D01*
G01*
X89370000Y120000D02*
G75*
G03*
X90270000Y1020000I0J900000D01*
G01*
X1600000Y53065000D02*
G75*
G03*
X850000Y53815000I-750000J0D01*
G01*
X23685000Y120000D02*
G75*
G03*
X24435000Y870000I0J750000D01*
G01*
X90270000Y95110000D02*
G75*
G03*
X89370000Y96010000I-900000J0D01*
G01*
X17435000Y95260000D02*
G75*
G03*
X18185000Y94510000I750000J0D01*
G01*
X100000Y54565000D02*
G75*
G03*
X850000Y53815000I750000J0D01*
G01*
X1000000Y96010000D02*
X16685000Y96010000D01*
X90270000Y95110000D02*
X90270000Y84065000D01*
X100000Y95110000D02*
X100000Y54565000D01*
X17435000Y95260000D02*
G75*
G03*
X16685000Y96010000I-750000J0D01*
G01*
X23685000Y120000D02*
X1000000Y110000D01*
X65935000Y870000D02*
G75*
G03*
X66685000Y120000I750000J0D01*
G01*
%TO.C,U20*%
G36*
X16425000Y20125000D02*
G01*
X14775000Y20125000D01*
X14775000Y22075000D01*
X16425000Y22075000D01*
X16425000Y20125000D01*
G37*
G36*
X10625000Y20125000D02*
G01*
X8975000Y20125000D01*
X8975000Y22075000D01*
X10625000Y22075000D01*
X10625000Y20125000D01*
G37*
%TO.C,U19*%
G36*
X19375000Y19775000D02*
G01*
X17425000Y19775000D01*
X17425000Y21425000D01*
X19375000Y21425000D01*
X19375000Y19775000D01*
G37*
G36*
X19375000Y25575000D02*
G01*
X17425000Y25575000D01*
X17425000Y27225000D01*
X19375000Y27225000D01*
X19375000Y25575000D01*
G37*
%TO.C,J20*%
G36*
X81854000Y49449000D02*
G01*
X78882000Y49449000D01*
X78882000Y50291000D01*
X81854000Y50291000D01*
X81854000Y49449000D01*
G37*
D11*
X81854000Y49449000D02*
X78882000Y49449000D01*
X78882000Y50291000D01*
X81854000Y50291000D01*
X81854000Y49449000D01*
G36*
X81854000Y46909000D02*
G01*
X78882000Y46909000D01*
X78882000Y47751000D01*
X81854000Y47751000D01*
X81854000Y46909000D01*
G37*
X81854000Y46909000D02*
X78882000Y46909000D01*
X78882000Y47751000D01*
X81854000Y47751000D01*
X81854000Y46909000D01*
G36*
X84318000Y48179000D02*
G01*
X81346000Y48179000D01*
X81346000Y49021000D01*
X84318000Y49021000D01*
X84318000Y48179000D01*
G37*
X84318000Y48179000D02*
X81346000Y48179000D01*
X81346000Y49021000D01*
X84318000Y49021000D01*
X84318000Y48179000D01*
%TO.C,U18*%
G36*
X13125000Y23200000D02*
G01*
X10475000Y23200000D01*
X10475000Y25400000D01*
X13125000Y25400000D01*
X13125000Y23200000D01*
G37*
G36*
X15925000Y23200000D02*
G01*
X13275000Y23200000D01*
X13275000Y25400000D01*
X15925000Y25400000D01*
X15925000Y23200000D01*
G37*
%TD*%
D12*
%TO.C,H2*%
X82630000Y90930000D03*
%TD*%
%TO.C,H3*%
X5180000Y5190000D03*
%TD*%
D13*
%TO.C,J5*%
X80350000Y80050000D03*
X85100000Y65550000D03*
X85100000Y80050000D03*
X80350000Y65550000D03*
%TD*%
D12*
%TO.C,H4*%
X85170000Y5210000D03*
%TD*%
%TO.C,H1*%
X8990000Y90930000D03*
%TD*%
D14*
%TO.C,J3*%
X8900000Y52707500D03*
X8900000Y67317500D03*
%TD*%
D15*
%TO.C,J10*%
X3000000Y9700000D03*
%TD*%
D13*
%TO.C,J4*%
X80650000Y61150000D03*
X80650000Y48650000D03*
X85400000Y48650000D03*
X85400000Y61150000D03*
%TD*%
D16*
%TO.C,J1*%
X14048000Y83309000D03*
D17*
X14048000Y85849000D03*
X16588000Y83309000D03*
X16588000Y85849000D03*
X19128000Y83309000D03*
X19128000Y85849000D03*
X21668000Y83309000D03*
X21668000Y85849000D03*
X24208000Y83309000D03*
X24208000Y85849000D03*
X26748000Y83309000D03*
X26748000Y85849000D03*
X29288000Y83309000D03*
X29288000Y85849000D03*
X31828000Y83309000D03*
X31828000Y85849000D03*
X34368000Y83309000D03*
X34368000Y85849000D03*
X36908000Y83309000D03*
X36908000Y85849000D03*
X39448000Y83309000D03*
X39448000Y85849000D03*
X41988000Y83309000D03*
X41988000Y85849000D03*
X44528000Y83309000D03*
X44528000Y85849000D03*
X47068000Y83309000D03*
X47068000Y85849000D03*
X49608000Y83309000D03*
X49608000Y85849000D03*
X52148000Y83309000D03*
X52148000Y85849000D03*
X54688000Y83309000D03*
X54688000Y85849000D03*
X57228000Y83309000D03*
X57228000Y85849000D03*
X59768000Y83309000D03*
X59768000Y85849000D03*
X62308000Y83309000D03*
X62308000Y85849000D03*
X64848000Y83309000D03*
X64848000Y85849000D03*
X67388000Y83309000D03*
X67388000Y85849000D03*
X69928000Y83309000D03*
X69928000Y85849000D03*
X72468000Y83309000D03*
X72468000Y85849000D03*
X75008000Y83309000D03*
X75008000Y85849000D03*
X77548000Y83309000D03*
X77548000Y85849000D03*
%TD*%
D16*
%TO.C,J2*%
X14048000Y88389000D03*
D17*
X14048000Y90929000D03*
X16588000Y88389000D03*
X16588000Y90929000D03*
X19128000Y88389000D03*
X19128000Y90929000D03*
X21668000Y88389000D03*
X21668000Y90929000D03*
X24208000Y88389000D03*
X24208000Y90929000D03*
X26748000Y88389000D03*
X26748000Y90929000D03*
X29288000Y88389000D03*
X29288000Y90929000D03*
X31828000Y88389000D03*
X31828000Y90929000D03*
X34368000Y88389000D03*
X34368000Y90929000D03*
X36908000Y88389000D03*
X36908000Y90929000D03*
X39448000Y88389000D03*
X39448000Y90929000D03*
X41988000Y88389000D03*
X41988000Y90929000D03*
X44528000Y88389000D03*
X44528000Y90929000D03*
X47068000Y88389000D03*
X47068000Y90929000D03*
X49608000Y88389000D03*
X49608000Y90929000D03*
X52148000Y88389000D03*
X52148000Y90929000D03*
X54688000Y88389000D03*
X54688000Y90929000D03*
X57228000Y88389000D03*
X57228000Y90929000D03*
X59768000Y88389000D03*
X59768000Y90929000D03*
X62308000Y88389000D03*
X62308000Y90929000D03*
X64848000Y88389000D03*
X64848000Y90929000D03*
X67388000Y88389000D03*
X67388000Y90929000D03*
X69928000Y88389000D03*
X69928000Y90929000D03*
X72468000Y88389000D03*
X72468000Y90929000D03*
X75008000Y88389000D03*
X75008000Y90929000D03*
X77548000Y88389000D03*
X77548000Y90929000D03*
%TD*%
D18*
%TO.C,R125*%
X8100000Y30790000D03*
X8100000Y31810000D03*
%TD*%
D19*
%TO.C,J24*%
X60200000Y11838000D03*
X59000000Y11838000D03*
X57800000Y11838000D03*
X56600000Y11838000D03*
X55400000Y11838000D03*
X54200000Y11838000D03*
D20*
X52775000Y8133000D03*
X61625000Y8133000D03*
%TD*%
D21*
%TO.C,Q10*%
X63025000Y79888000D03*
X63675000Y79888000D03*
X64325000Y79888000D03*
X64975000Y79888000D03*
X64975000Y74012000D03*
X64325000Y74012000D03*
X63675000Y74012000D03*
X63025000Y74012000D03*
%TD*%
D22*
%TO.C,TP42*%
X3800000Y74700000D03*
%TD*%
D23*
%TO.C,F15*%
X78200000Y19885000D03*
X78200000Y18315000D03*
%TD*%
D24*
%TO.C,R104*%
X28100000Y55425000D03*
X28100000Y53775000D03*
%TD*%
D25*
%TO.C,R119*%
X18460000Y43355000D03*
X18460000Y45005000D03*
%TD*%
D26*
%TO.C,U16*%
X48162000Y34350000D03*
X48162000Y34850000D03*
X48162000Y35350000D03*
X48162000Y35850000D03*
X48162000Y36350000D03*
X48162000Y36850000D03*
X48162000Y37350000D03*
X48162000Y37850000D03*
X48162000Y38350000D03*
X48162000Y38850000D03*
X48162000Y39350000D03*
X48162000Y39850000D03*
X48162000Y40350000D03*
X48162000Y40850000D03*
X48162000Y41350000D03*
X48162000Y41850000D03*
X48162000Y42350000D03*
X48162000Y42850000D03*
X48162000Y43350000D03*
X48162000Y43850000D03*
X48162000Y44350000D03*
X48162000Y44850000D03*
X48162000Y45350000D03*
X48162000Y45850000D03*
X48162000Y46350000D03*
X48162000Y46850000D03*
X48162000Y47350000D03*
X48162000Y47850000D03*
X48162000Y48350000D03*
X48162000Y48850000D03*
X48162000Y49350000D03*
X48162000Y49850000D03*
X48162000Y50350000D03*
X48162000Y50850000D03*
X48162000Y51350000D03*
X48162000Y51850000D03*
D27*
X50150000Y53838000D03*
X50650000Y53838000D03*
X51150000Y53838000D03*
X51650000Y53838000D03*
X52150000Y53838000D03*
X52650000Y53838000D03*
X53150000Y53838000D03*
X53650000Y53838000D03*
X54150000Y53838000D03*
X54650000Y53838000D03*
X55150000Y53838000D03*
X55650000Y53838000D03*
X56150000Y53838000D03*
X56650000Y53838000D03*
X57150000Y53838000D03*
X57650000Y53838000D03*
X58150000Y53838000D03*
X58650000Y53838000D03*
X59150000Y53838000D03*
X59650000Y53838000D03*
X60150000Y53838000D03*
X60650000Y53838000D03*
X61150000Y53838000D03*
X61650000Y53838000D03*
X62150000Y53838000D03*
X62650000Y53838000D03*
X63150000Y53838000D03*
X63650000Y53838000D03*
X64150000Y53838000D03*
X64650000Y53838000D03*
X65150000Y53838000D03*
X65650000Y53838000D03*
X66150000Y53838000D03*
X66650000Y53838000D03*
X67150000Y53838000D03*
X67650000Y53838000D03*
D26*
X69638000Y51850000D03*
X69638000Y51350000D03*
X69638000Y50850000D03*
X69638000Y50350000D03*
X69638000Y49850000D03*
X69638000Y49350000D03*
X69638000Y48850000D03*
X69638000Y48350000D03*
X69638000Y47850000D03*
X69638000Y47350000D03*
X69638000Y46850000D03*
X69638000Y46350000D03*
X69638000Y45850000D03*
X69638000Y45350000D03*
X69638000Y44850000D03*
X69638000Y44350000D03*
X69638000Y43850000D03*
X69638000Y43350000D03*
X69638000Y42850000D03*
X69638000Y42350000D03*
X69638000Y41850000D03*
X69638000Y41350000D03*
X69638000Y40850000D03*
X69638000Y40350000D03*
X69638000Y39850000D03*
X69638000Y39350000D03*
X69638000Y38850000D03*
X69638000Y38350000D03*
X69638000Y37850000D03*
X69638000Y37350000D03*
X69638000Y36850000D03*
X69638000Y36350000D03*
X69638000Y35850000D03*
X69638000Y35350000D03*
X69638000Y34850000D03*
X69638000Y34350000D03*
D27*
X67650000Y32362000D03*
X67150000Y32362000D03*
X66650000Y32362000D03*
X66150000Y32362000D03*
X65650000Y32362000D03*
X65150000Y32362000D03*
X64650000Y32362000D03*
X64150000Y32362000D03*
X63650000Y32362000D03*
X63150000Y32362000D03*
X62650000Y32362000D03*
X62150000Y32362000D03*
X61650000Y32362000D03*
X61150000Y32362000D03*
X60650000Y32362000D03*
X60150000Y32362000D03*
X59650000Y32362000D03*
X59150000Y32362000D03*
X58650000Y32362000D03*
X58150000Y32362000D03*
X57650000Y32362000D03*
X57150000Y32362000D03*
X56650000Y32362000D03*
X56150000Y32362000D03*
X55650000Y32362000D03*
X55150000Y32362000D03*
X54650000Y32362000D03*
X54150000Y32362000D03*
X53650000Y32362000D03*
X53150000Y32362000D03*
X52650000Y32362000D03*
X52150000Y32362000D03*
X51650000Y32362000D03*
X51150000Y32362000D03*
X50650000Y32362000D03*
X50150000Y32362000D03*
%TD*%
D28*
%TO.C,J23*%
X69800000Y11600000D03*
X71050000Y11600000D03*
X72300000Y11600000D03*
X73550000Y11600000D03*
X74800000Y11600000D03*
D29*
X67450000Y8300000D03*
X77150000Y8300000D03*
%TD*%
D30*
%TO.C,R102*%
X60800000Y57510000D03*
X60800000Y56490000D03*
%TD*%
D31*
%TO.C,R115*%
X39175000Y43700000D03*
X40825000Y43700000D03*
%TD*%
D32*
%TO.C,TP38*%
X57300000Y62300000D03*
%TD*%
D33*
%TO.C,C99*%
X13255000Y36900000D03*
X12295000Y36900000D03*
%TD*%
D18*
%TO.C,R129*%
X15650000Y28140000D03*
X15650000Y29160000D03*
%TD*%
D31*
%TO.C,R89*%
X70325000Y75800000D03*
X71975000Y75800000D03*
%TD*%
D34*
%TO.C,C62*%
X30200000Y54975000D03*
X30200000Y53425000D03*
%TD*%
D35*
%TO.C,C74*%
X15975000Y58800000D03*
X14425000Y58800000D03*
%TD*%
D36*
%TO.C,C55*%
X56300000Y55320000D03*
X56300000Y56280000D03*
%TD*%
D18*
%TO.C,R92*%
X76250000Y49240000D03*
X76250000Y50260000D03*
%TD*%
D37*
%TO.C,R107*%
X21975000Y53850000D03*
X20325000Y53850000D03*
%TD*%
D35*
%TO.C,C60*%
X46425000Y53438000D03*
X44875000Y53438000D03*
%TD*%
D32*
%TO.C,TP52*%
X53500000Y20450000D03*
%TD*%
D37*
%TO.C,R87*%
X72375000Y77350000D03*
X70725000Y77350000D03*
%TD*%
D38*
%TO.C,D2*%
X41300000Y66175000D03*
X41300000Y67425000D03*
%TD*%
D34*
%TO.C,C70*%
X14450000Y54275000D03*
X14450000Y52725000D03*
%TD*%
D18*
%TO.C,R91*%
X6200000Y78590000D03*
X6200000Y79610000D03*
%TD*%
D39*
%TO.C,J26*%
X21650000Y9610000D03*
X20450000Y9610000D03*
D40*
X22825000Y5860000D03*
X19275000Y5860000D03*
%TD*%
D41*
%TO.C,C50*%
X74750000Y65080000D03*
X74750000Y64120000D03*
%TD*%
D37*
%TO.C,R103*%
X71975000Y72700000D03*
X70325000Y72700000D03*
%TD*%
D35*
%TO.C,C91*%
X46375000Y33750000D03*
X44825000Y33750000D03*
%TD*%
%TO.C,C97*%
X13625000Y38150000D03*
X12075000Y38150000D03*
%TD*%
D42*
%TO.C,U10*%
X11405000Y75589000D03*
X10135000Y75589000D03*
X8865000Y75589000D03*
X7595000Y75589000D03*
X7595000Y81011000D03*
X8865000Y81011000D03*
X10135000Y81011000D03*
X11405000Y81011000D03*
%TD*%
D43*
%TO.C,C66*%
X30525000Y61400000D03*
X32075000Y61400000D03*
%TD*%
D32*
%TO.C,TP43*%
X8400000Y59800000D03*
%TD*%
D44*
%TO.C,C67*%
X38720000Y70500000D03*
X39680000Y70500000D03*
%TD*%
D35*
%TO.C,C87*%
X38475000Y38100000D03*
X36925000Y38100000D03*
%TD*%
D45*
%TO.C,U13*%
X67000000Y64075000D03*
X67000000Y63425000D03*
X67000000Y62775000D03*
X67000000Y62125000D03*
X62600000Y62125000D03*
X62600000Y62775000D03*
X62600000Y63425000D03*
X62600000Y64075000D03*
%TD*%
D46*
%TO.C,U8*%
X66825000Y77212500D03*
X67475000Y77212500D03*
X68125000Y77212500D03*
X68775000Y77212500D03*
X68775000Y72987500D03*
X68125000Y72987500D03*
X67475000Y72987500D03*
X66825000Y72987500D03*
%TD*%
D41*
%TO.C,C79*%
X60625000Y30880000D03*
X60625000Y29920000D03*
%TD*%
D32*
%TO.C,TP37*%
X58600000Y70700000D03*
%TD*%
D47*
%TO.C,C57*%
X48300000Y55575000D03*
X48300000Y57125000D03*
%TD*%
D25*
%TO.C,R124*%
X19400000Y46775000D03*
X19400000Y48425000D03*
%TD*%
D36*
%TO.C,C81*%
X71150000Y40020000D03*
X71150000Y40980000D03*
%TD*%
D44*
%TO.C,C52*%
X63120000Y65400000D03*
X64080000Y65400000D03*
%TD*%
D41*
%TO.C,C85*%
X46400000Y39180000D03*
X46400000Y38220000D03*
%TD*%
D48*
%TO.C,R94*%
X64210000Y57100000D03*
X63190000Y57100000D03*
%TD*%
D32*
%TO.C,TP33*%
X35200000Y78600000D03*
%TD*%
D34*
%TO.C,C86*%
X44750000Y37775000D03*
X44750000Y36225000D03*
%TD*%
D49*
%TO.C,D1*%
X50425000Y75200000D03*
X49175000Y75200000D03*
%TD*%
D37*
%TO.C,R116*%
X29425000Y36350000D03*
X27775000Y36350000D03*
%TD*%
D44*
%TO.C,C75*%
X9020000Y74050000D03*
X9980000Y74050000D03*
%TD*%
D47*
%TO.C,C95*%
X36100000Y43075000D03*
X36100000Y44625000D03*
%TD*%
D38*
%TO.C,D3*%
X12000000Y69075000D03*
X12000000Y70325000D03*
%TD*%
D50*
%TO.C,F12*%
X11200000Y60810000D03*
X11200000Y62390000D03*
%TD*%
D31*
%TO.C,R93*%
X70325000Y71150000D03*
X71975000Y71150000D03*
%TD*%
D18*
%TO.C,R109*%
X73400000Y41140000D03*
X73400000Y42160000D03*
%TD*%
D43*
%TO.C,C93*%
X33925000Y35500000D03*
X35475000Y35500000D03*
%TD*%
D47*
%TO.C,C102*%
X86600000Y11125000D03*
X86600000Y12675000D03*
%TD*%
D32*
%TO.C,FID6*%
X2300000Y2300000D03*
%TD*%
D47*
%TO.C,C72*%
X12350000Y66215000D03*
X12350000Y67765000D03*
%TD*%
D44*
%TO.C,C77*%
X71170000Y34650000D03*
X72130000Y34650000D03*
%TD*%
D51*
%TO.C,Y3*%
X43350000Y56800000D03*
X45850000Y56800000D03*
%TD*%
D47*
%TO.C,C51*%
X53800000Y65625000D03*
X53800000Y67175000D03*
%TD*%
%TO.C,C48*%
X33900000Y74925000D03*
X33900000Y76475000D03*
%TD*%
D43*
%TO.C,C56*%
X29325000Y69400000D03*
X30875000Y69400000D03*
%TD*%
D52*
%TO.C,TP50*%
X4400000Y35800000D03*
%TD*%
D32*
%TO.C,TP45*%
X74400000Y32200000D03*
%TD*%
D41*
%TO.C,C89*%
X47350000Y28330000D03*
X47350000Y27370000D03*
%TD*%
D33*
%TO.C,C90*%
X45940000Y48810000D03*
X44980000Y48810000D03*
%TD*%
D53*
%TO.C,L2*%
X40050000Y63150000D03*
X42850000Y63150000D03*
%TD*%
D54*
%TO.C,F8*%
X77590000Y64450000D03*
X76010000Y64450000D03*
%TD*%
D55*
%TO.C,F13*%
X7260000Y71200000D03*
X8840000Y71200000D03*
%TD*%
D44*
%TO.C,C76*%
X52670000Y30825000D03*
X53630000Y30825000D03*
%TD*%
D56*
%TO.C,U11*%
X73425000Y60450000D03*
X72775000Y60450000D03*
X72125000Y60450000D03*
X71475000Y60450000D03*
X71475000Y64850000D03*
X72125000Y64850000D03*
X72775000Y64850000D03*
X73425000Y64850000D03*
%TD*%
D22*
%TO.C,TP48*%
X27500000Y26000000D03*
%TD*%
D24*
%TO.C,R108*%
X17900000Y51875000D03*
X17900000Y50225000D03*
%TD*%
D44*
%TO.C,C69*%
X21470000Y70950000D03*
X22430000Y70950000D03*
%TD*%
D35*
%TO.C,C92*%
X40775000Y45300000D03*
X39225000Y45300000D03*
%TD*%
D30*
%TO.C,R97*%
X65700000Y58310000D03*
X65700000Y57290000D03*
%TD*%
D44*
%TO.C,C53*%
X52870000Y55350000D03*
X53830000Y55350000D03*
%TD*%
D47*
%TO.C,C58*%
X25990000Y64085000D03*
X25990000Y65635000D03*
%TD*%
D52*
%TO.C,TP34*%
X39000000Y78900000D03*
%TD*%
D18*
%TO.C,R96*%
X72200000Y51390000D03*
X72200000Y52410000D03*
%TD*%
D48*
%TO.C,R126*%
X14710000Y27900000D03*
X13690000Y27900000D03*
%TD*%
D57*
%TO.C,U14*%
X30600000Y67000000D03*
D58*
X32100000Y67000000D03*
D59*
X33100000Y67000000D03*
X33900000Y67000000D03*
X34700000Y67000000D03*
D58*
X35700000Y67000000D03*
D57*
X37200000Y67000000D03*
X37200000Y64000000D03*
D58*
X35700000Y64000000D03*
D59*
X34700000Y64000000D03*
X33900000Y64000000D03*
X33100000Y64000000D03*
D58*
X32100000Y64000000D03*
D57*
X30600000Y64000000D03*
%TD*%
D52*
%TO.C,TP32*%
X44000000Y78800000D03*
%TD*%
D47*
%TO.C,C101*%
X85100000Y11125000D03*
X85100000Y12675000D03*
%TD*%
D50*
%TO.C,F9*%
X61850000Y67240000D03*
X61850000Y65660000D03*
%TD*%
D25*
%TO.C,R95*%
X73450000Y71775000D03*
X73450000Y73425000D03*
%TD*%
D60*
%TO.C,L3*%
X8750000Y65450000D03*
X8750000Y62650000D03*
%TD*%
D25*
%TO.C,R123*%
X23050000Y37525000D03*
X23050000Y39175000D03*
%TD*%
D61*
%TO.C,U17*%
X14137500Y32300000D03*
X14137500Y31900000D03*
X14137500Y31500000D03*
X14137500Y31100000D03*
X14137500Y30700000D03*
X14137500Y30300000D03*
X14137500Y29900000D03*
D62*
X13400000Y29162500D03*
X13000000Y29162500D03*
X12600000Y29162500D03*
X12200000Y29162500D03*
X11800000Y29162500D03*
X11400000Y29162500D03*
X11000000Y29162500D03*
D61*
X10262500Y29900000D03*
X10262500Y30300000D03*
X10262500Y30700000D03*
X10262500Y31100000D03*
X10262500Y31500000D03*
X10262500Y31900000D03*
X10262500Y32300000D03*
D62*
X11000000Y33037500D03*
X11400000Y33037500D03*
X11800000Y33037500D03*
X12200000Y33037500D03*
X12600000Y33037500D03*
X13000000Y33037500D03*
X13400000Y33037500D03*
D63*
X12200000Y31100000D03*
%TD*%
D32*
%TO.C,TP46*%
X74400000Y29900000D03*
%TD*%
D41*
%TO.C,C82*%
X71150000Y46880000D03*
X71150000Y45920000D03*
%TD*%
D64*
%TO.C,J21*%
X9610000Y47300000D03*
X9610000Y48500000D03*
D65*
X5860000Y46125000D03*
X5860000Y49675000D03*
%TD*%
D43*
%TO.C,C71*%
X8725000Y72800000D03*
X10275000Y72800000D03*
%TD*%
D30*
%TO.C,R127*%
X8100000Y29910000D03*
X8100000Y28890000D03*
%TD*%
D66*
%TO.C,FL4*%
X61900000Y28325000D03*
X61900000Y29675000D03*
%TD*%
D67*
%TO.C,R128*%
X11790000Y27350000D03*
X12810000Y27350000D03*
%TD*%
D68*
%TO.C,FL6*%
X43725000Y40000000D03*
X45075000Y40000000D03*
%TD*%
D31*
%TO.C,R118*%
X36975000Y40000000D03*
X38625000Y40000000D03*
%TD*%
D55*
%TO.C,F7*%
X36990000Y75000000D03*
X35410000Y75000000D03*
%TD*%
D39*
%TO.C,J25*%
X35138500Y9624825D03*
X33938500Y9624825D03*
D40*
X36313500Y5874825D03*
X32763500Y5874825D03*
%TD*%
D33*
%TO.C,C80*%
X55580000Y30800000D03*
X54620000Y30800000D03*
%TD*%
D69*
%TO.C,F6*%
X73300000Y80250000D03*
X71100000Y80250000D03*
%TD*%
D64*
%TO.C,J22*%
X9610000Y42550000D03*
X9610000Y43750000D03*
D65*
X5860000Y41375000D03*
X5860000Y44925000D03*
%TD*%
D22*
%TO.C,TP44*%
X14400000Y73900000D03*
%TD*%
D64*
%TO.C,J19*%
X7460000Y53300000D03*
X7460000Y54500000D03*
D65*
X3710000Y52125000D03*
X3710000Y55675000D03*
%TD*%
D35*
%TO.C,C61*%
X44775000Y69200000D03*
X43225000Y69200000D03*
%TD*%
D67*
%TO.C,R105*%
X24990000Y72500000D03*
X26010000Y72500000D03*
%TD*%
D30*
%TO.C,R98*%
X54800000Y56410000D03*
X54800000Y55390000D03*
%TD*%
D32*
%TO.C,TP51*%
X80200000Y18300000D03*
%TD*%
D70*
%TO.C,IC8*%
X26890000Y44462000D03*
X28160000Y44462000D03*
X29430000Y44462000D03*
X30700000Y44462000D03*
X31970000Y44462000D03*
X33240000Y44462000D03*
X34510000Y44462000D03*
X34510000Y39038000D03*
X33240000Y39038000D03*
X31970000Y39038000D03*
X30700000Y39038000D03*
X29430000Y39038000D03*
X28160000Y39038000D03*
X26890000Y39038000D03*
%TD*%
D18*
%TO.C,R99*%
X69150000Y57590000D03*
X69150000Y58610000D03*
%TD*%
D31*
%TO.C,R100*%
X70325000Y74250000D03*
X71975000Y74250000D03*
%TD*%
D24*
%TO.C,R90*%
X73800000Y77725000D03*
X73800000Y76075000D03*
%TD*%
D71*
%TO.C,U15*%
X14405000Y60555000D03*
X14405000Y61825000D03*
X14405000Y63095000D03*
X14405000Y64365000D03*
X14405000Y65635000D03*
X14405000Y66905000D03*
X14405000Y68175000D03*
X14405000Y69445000D03*
X24055000Y69445000D03*
X24055000Y68175000D03*
X24055000Y66905000D03*
X24055000Y65635000D03*
X24055000Y64365000D03*
X24055000Y63095000D03*
X24055000Y61825000D03*
X24055000Y60555000D03*
%TD*%
D33*
%TO.C,C63*%
X46680000Y50550000D03*
X45720000Y50550000D03*
%TD*%
D30*
%TO.C,R101*%
X59700000Y57510000D03*
X59700000Y56490000D03*
%TD*%
D25*
%TO.C,R114*%
X37650000Y43475000D03*
X37650000Y45125000D03*
%TD*%
D22*
%TO.C,TP47*%
X31950000Y26650000D03*
%TD*%
D48*
%TO.C,R110*%
X73460000Y44200000D03*
X72440000Y44200000D03*
%TD*%
D24*
%TO.C,R112*%
X68800000Y30625000D03*
X68800000Y28975000D03*
%TD*%
D15*
%TO.C,J18*%
X9300000Y51200000D03*
%TD*%
D41*
%TO.C,C88*%
X46450000Y36910000D03*
X46450000Y35950000D03*
%TD*%
D33*
%TO.C,C64*%
X45580000Y72600000D03*
X44620000Y72600000D03*
%TD*%
D32*
%TO.C,FID4*%
X87800000Y93800000D03*
%TD*%
D31*
%TO.C,R106*%
X30175000Y51900000D03*
X31825000Y51900000D03*
%TD*%
D32*
%TO.C,TP41*%
X35500000Y53500000D03*
%TD*%
D34*
%TO.C,C65*%
X33300000Y51925000D03*
X33300000Y50375000D03*
%TD*%
D72*
%TO.C,U12*%
X47700000Y65700000D03*
D73*
X47700000Y67200000D03*
D74*
X47700000Y68200000D03*
X47700000Y69000000D03*
X47700000Y69800000D03*
D73*
X47700000Y70800000D03*
D72*
X47700000Y72300000D03*
X50700000Y72300000D03*
D73*
X50700000Y70800000D03*
D74*
X50700000Y69800000D03*
X50700000Y69000000D03*
X50700000Y68200000D03*
D73*
X50700000Y67200000D03*
D72*
X50700000Y65700000D03*
%TD*%
D33*
%TO.C,C83*%
X46680000Y35000000D03*
X45720000Y35000000D03*
%TD*%
D34*
%TO.C,C100*%
X17900000Y48375000D03*
X17900000Y46825000D03*
%TD*%
D47*
%TO.C,C84*%
X25250000Y39925000D03*
X25250000Y41475000D03*
%TD*%
D75*
%TO.C,U9*%
X31011000Y77705000D03*
X31011000Y76435000D03*
X31011000Y75165000D03*
X31011000Y73895000D03*
X25589000Y73895000D03*
X25589000Y75165000D03*
X25589000Y76435000D03*
X25589000Y77705000D03*
%TD*%
D54*
%TO.C,F14*%
X12110000Y39700000D03*
X13690000Y39700000D03*
%TD*%
D76*
%TO.C,Y4*%
X49325000Y27975000D03*
X49325000Y29825000D03*
X50775000Y29825000D03*
X50775000Y27975000D03*
%TD*%
D44*
%TO.C,C54*%
X68620000Y55350000D03*
X69580000Y55350000D03*
%TD*%
D32*
%TO.C,TP49*%
X15500000Y40000000D03*
%TD*%
D50*
%TO.C,F11*%
X38500000Y59200000D03*
X38500000Y60780000D03*
%TD*%
D36*
%TO.C,C78*%
X71750000Y47920000D03*
X71750000Y48880000D03*
%TD*%
D70*
%TO.C,IC7*%
X20990000Y52012000D03*
X22260000Y52012000D03*
X23530000Y52012000D03*
X24800000Y52012000D03*
X26070000Y52012000D03*
X27340000Y52012000D03*
X28610000Y52012000D03*
X28610000Y46588000D03*
X27340000Y46588000D03*
X26070000Y46588000D03*
X24800000Y46588000D03*
X23530000Y46588000D03*
X22260000Y46588000D03*
X20990000Y46588000D03*
%TD*%
D67*
%TO.C,R120*%
X9690000Y35850000D03*
X10710000Y35850000D03*
%TD*%
D31*
%TO.C,R88*%
X66825000Y80300000D03*
X68475000Y80300000D03*
%TD*%
D67*
%TO.C,R111*%
X57190000Y28800000D03*
X58210000Y28800000D03*
%TD*%
D33*
%TO.C,C94*%
X46680000Y47800000D03*
X45720000Y47800000D03*
%TD*%
D31*
%TO.C,R117*%
X33775000Y37100000D03*
X35425000Y37100000D03*
%TD*%
D52*
%TO.C,TP31*%
X54100000Y79600000D03*
%TD*%
D47*
%TO.C,C59*%
X45400000Y65425000D03*
X45400000Y66975000D03*
%TD*%
D24*
%TO.C,R113*%
X71450000Y37525000D03*
X71450000Y35875000D03*
%TD*%
D66*
%TO.C,FL5*%
X54450000Y27225000D03*
X54450000Y28575000D03*
%TD*%
D32*
%TO.C,TP35*%
X4600000Y79600000D03*
%TD*%
%TO.C,TP36*%
X13510000Y80360000D03*
%TD*%
%TO.C,TP39*%
X44850000Y62350000D03*
%TD*%
D60*
%TO.C,L1*%
X55700000Y73700000D03*
X55700000Y70900000D03*
%TD*%
D48*
%TO.C,R122*%
X10910000Y27660000D03*
X9890000Y27660000D03*
%TD*%
D47*
%TO.C,C68*%
X34900000Y69925000D03*
X34900000Y71475000D03*
%TD*%
D35*
%TO.C,C96*%
X21475000Y44800000D03*
X19925000Y44800000D03*
%TD*%
D54*
%TO.C,F10*%
X59290000Y68800000D03*
X57710000Y68800000D03*
%TD*%
D47*
%TO.C,C98*%
X23500000Y34525000D03*
X23500000Y36075000D03*
%TD*%
D32*
%TO.C,FID5*%
X87800000Y2300000D03*
%TD*%
D36*
%TO.C,C49*%
X32600000Y75170000D03*
X32600000Y76130000D03*
%TD*%
D32*
%TO.C,TP40*%
X40400000Y54600000D03*
%TD*%
D35*
%TO.C,C73*%
X16375000Y50200000D03*
X14825000Y50200000D03*
%TD*%
D48*
%TO.C,R121*%
X8810000Y34600000D03*
X7790000Y34600000D03*
%TD*%
M02*
