%TF.GenerationSoftware,KiCad,Pcbnew,6.0.7-f9a2dced07~116~ubuntu20.04.1*%
%TF.CreationDate,2022-10-11T04:26:59+03:00*%
%TF.ProjectId,obc-adcs-board,6f62632d-6164-4637-932d-626f6172642e,rev?*%
%TF.SameCoordinates,PX3e2df80PY83e4a60*%
%TF.FileFunction,Plated,1,8,PTH,Drill*%
%TF.FilePolarity,Positive*%
%FSLAX46Y46*%
G04 Gerber Fmt 4.6, Leading zero omitted, Abs format (unit mm)*
G04 Created by KiCad (PCBNEW 6.0.7-f9a2dced07~116~ubuntu20.04.1) date 2022-10-11 04:26:59*
%MOMM*%
%LPD*%
G01*
G04 APERTURE LIST*
%TA.AperFunction,ViaDrill*%
%ADD10C,0.400000*%
%TD*%
%TA.AperFunction,ComponentDrill*%
%ADD11C,0.500000*%
%TD*%
%TA.AperFunction,ComponentDrill*%
%ADD12C,1.020000*%
%TD*%
%TA.AperFunction,ComponentDrill*%
%ADD13C,3.200000*%
%TD*%
G04 APERTURE END LIST*
D10*
X1800000Y82700000D03*
X1850000Y79900000D03*
X2950000Y79900000D03*
X3200000Y87400000D03*
X3800000Y58700000D03*
X4000000Y66800000D03*
X4100000Y69900000D03*
X4100000Y68700000D03*
X4100000Y65000000D03*
X4200000Y63400000D03*
X4252345Y38500000D03*
X4410000Y23520000D03*
X4600000Y87400000D03*
X4786638Y57093772D03*
X5050000Y61750000D03*
X5200000Y81700000D03*
X5440000Y24880000D03*
X5440000Y19060000D03*
X5540500Y26100000D03*
X6000000Y87400000D03*
X6500000Y53100000D03*
X6500000Y20500000D03*
X6510000Y21630000D03*
X6875394Y74124606D03*
X6900000Y16000000D03*
X7000000Y39300000D03*
X7000000Y35400000D03*
X7100000Y29400000D03*
X7100000Y18000000D03*
X7200000Y72700000D03*
X7240000Y70070000D03*
X7300000Y82600000D03*
X7300000Y77900000D03*
X8000000Y36600000D03*
X8300000Y42500000D03*
X8300000Y32700000D03*
X8500000Y47300000D03*
X8850000Y39750000D03*
X9000000Y77400000D03*
X9300000Y32950000D03*
X9500000Y28900000D03*
X9700000Y79600000D03*
X9700000Y34600000D03*
X9700000Y26000000D03*
X9800000Y17600000D03*
X10211091Y83658909D03*
X10300000Y44900000D03*
X10400000Y33050000D03*
X10675000Y40000000D03*
X10900000Y52800000D03*
X10988909Y82881091D03*
X11100000Y38500000D03*
X11190000Y67560000D03*
X11300000Y77175500D03*
X11300000Y36800000D03*
X11370000Y79060000D03*
X11450000Y72650000D03*
X11700000Y26200000D03*
X11900000Y41300000D03*
X11900000Y35800000D03*
X12200000Y50700000D03*
X12800000Y62000000D03*
X12862299Y58862299D03*
X12910498Y74524500D03*
X12950000Y65100000D03*
X12950000Y63750000D03*
X13100000Y18300000D03*
X13386732Y34315109D03*
X13400000Y21100000D03*
X13450000Y71304998D03*
X13700000Y41200000D03*
X14100000Y3400000D03*
X14200000Y11300000D03*
X14500000Y36100000D03*
X14550000Y71304998D03*
X14800000Y38400000D03*
X15273056Y32773056D03*
X15300000Y6800000D03*
X15750000Y51550000D03*
X15800000Y34900000D03*
X15900000Y31600000D03*
X15975980Y30075517D03*
X16000000Y69300000D03*
X16074000Y63300000D03*
X16100000Y61500000D03*
X16100000Y59900000D03*
X16500000Y53650000D03*
X16500000Y47000000D03*
X16600000Y67400000D03*
X16800000Y23000000D03*
X17100000Y62200000D03*
X17200000Y45400000D03*
X17250000Y12500000D03*
X17400000Y72400000D03*
X17600000Y58900000D03*
X17600000Y57000000D03*
X17900000Y78900000D03*
X17900000Y13950000D03*
X17950000Y17400000D03*
X18250000Y60800000D03*
X18400000Y39500000D03*
X18400000Y24600000D03*
X18675500Y69800000D03*
X18700000Y35500000D03*
X19000000Y54000000D03*
X19300000Y33750000D03*
X19400000Y67800000D03*
X19450000Y51500000D03*
X19500000Y50400000D03*
X19700000Y38200000D03*
X19700000Y30700000D03*
X20000000Y22700000D03*
X20100000Y40850000D03*
X20150000Y32700000D03*
X20199500Y59600000D03*
X20400000Y66000000D03*
X20450000Y43100000D03*
X20550000Y35430000D03*
X20700000Y27600000D03*
X20700000Y26400000D03*
X20700000Y20300000D03*
X21200000Y39350000D03*
X21350000Y32700000D03*
X21350000Y7400000D03*
X21537701Y61937701D03*
X21700000Y18900000D03*
X21740000Y65430000D03*
X22150000Y66575000D03*
X22300000Y64225000D03*
X22300000Y41300000D03*
X22375500Y67800000D03*
X22400000Y79200000D03*
X22400000Y74900000D03*
X22550000Y15050000D03*
X23336186Y40776577D03*
X23400000Y71200000D03*
X23500000Y7100000D03*
X23800000Y73700000D03*
X23800000Y50600000D03*
X23800000Y48100000D03*
X24200000Y39275500D03*
X24400000Y15000000D03*
X24600000Y53300000D03*
X24600000Y22600000D03*
X24700000Y32224500D03*
X24900000Y35200000D03*
X24970104Y38375431D03*
X25000000Y48000000D03*
X25126944Y8773056D03*
X25187701Y44687701D03*
X25200000Y42400000D03*
X25200000Y29400000D03*
X25400000Y60800000D03*
X25450000Y59010000D03*
X25800000Y67470000D03*
X25800000Y62800000D03*
X25800000Y32800000D03*
X25875431Y53399971D03*
X26000000Y21500000D03*
X26450000Y37400000D03*
X26700000Y30450000D03*
X26850000Y35650000D03*
X26900000Y28700000D03*
X27200000Y17200000D03*
X27200000Y8900000D03*
X27400000Y59100000D03*
X27500000Y20000000D03*
X27700000Y79750500D03*
X27700000Y78650500D03*
X27700000Y22500000D03*
X28634668Y29565332D03*
X28800000Y68000000D03*
X28800000Y62000000D03*
X28900000Y70499500D03*
X28900000Y11400000D03*
X28920000Y56990000D03*
X29000000Y32800000D03*
X29150000Y76250000D03*
X29150000Y72350000D03*
X29250000Y37550000D03*
X29300000Y8800000D03*
X29400000Y56000000D03*
X29775500Y35249989D03*
X29800000Y27650000D03*
X29900000Y25200000D03*
X30250000Y37500000D03*
X30350000Y23550000D03*
X30400000Y70900000D03*
X30500000Y21600000D03*
X30600000Y36400000D03*
X30900000Y59600000D03*
X31100000Y48200000D03*
X31375500Y33550000D03*
X31400000Y46400000D03*
X31400000Y31100000D03*
X31400000Y8800000D03*
X31600000Y14700000D03*
X31700000Y7400000D03*
X31900000Y22700000D03*
X32200000Y69450000D03*
X32200000Y20700000D03*
X32500000Y73900000D03*
X32500000Y71800000D03*
X32500000Y29500000D03*
X32550000Y37550000D03*
X32650000Y60400000D03*
X32700000Y35800000D03*
X32800000Y13700000D03*
X33009668Y33940332D03*
X33200000Y61900000D03*
X33550000Y77700000D03*
X33550000Y69400000D03*
X33600000Y55900000D03*
X33600000Y22800000D03*
X33675500Y46000000D03*
X33700000Y71249511D03*
X33723056Y60676944D03*
X34100000Y32500000D03*
X34100000Y28800000D03*
X34250000Y48800000D03*
X34400000Y58900000D03*
X34400000Y50350000D03*
X34900000Y21700000D03*
X35150000Y8300000D03*
X35400000Y20000000D03*
X35450000Y17050000D03*
X35800000Y38600000D03*
X35850000Y45750000D03*
X35900000Y28800000D03*
X36000000Y42000000D03*
X36400000Y76700000D03*
X36550000Y58600000D03*
X36600000Y34800000D03*
X36702141Y36857492D03*
X36900000Y26600000D03*
X37200000Y15900000D03*
X37300000Y59500000D03*
X37500000Y55400000D03*
X37500000Y50750000D03*
X37550000Y48700000D03*
X37600008Y72300000D03*
X37700000Y28900000D03*
X37950000Y41724500D03*
X38000000Y89500000D03*
X38150000Y91850000D03*
X38350000Y69100000D03*
X38400000Y16150000D03*
X38674500Y42600000D03*
X38700000Y36700000D03*
X38800000Y46400000D03*
X38900000Y24150000D03*
X39100000Y76600000D03*
X39150000Y15450000D03*
X39200000Y26050000D03*
X39250000Y14050000D03*
X39420000Y32380000D03*
X39450000Y38750000D03*
X39800000Y42449000D03*
X39887877Y27669050D03*
X40000000Y66900000D03*
X40000000Y65589500D03*
X40100000Y56500000D03*
X40400000Y74600000D03*
X40500000Y70200000D03*
X40600000Y52300000D03*
X40750000Y24500000D03*
X41100000Y34200000D03*
X41300000Y62950000D03*
X41400000Y26150000D03*
X41800000Y72600000D03*
X42000000Y69200000D03*
X42200000Y44800000D03*
X42200000Y4900000D03*
X42300000Y35700000D03*
X42550000Y24600000D03*
X43000000Y76500000D03*
X43250000Y59925000D03*
X43300000Y31300000D03*
X43366241Y34898540D03*
X43373809Y36404080D03*
X43411765Y49939356D03*
X43700000Y68000000D03*
X43700000Y65900000D03*
X43800000Y71400000D03*
X44200000Y54100000D03*
X44230000Y48000000D03*
X44600000Y41200000D03*
X44700000Y73700000D03*
X44710000Y51560000D03*
X44710000Y49800000D03*
X44800000Y44125500D03*
X44800000Y8700000D03*
X44900000Y60900000D03*
X45000000Y76000000D03*
X45000000Y47200000D03*
X45100000Y64200000D03*
X45449500Y38925500D03*
X45803305Y51672096D03*
X46000000Y63400000D03*
X46280000Y46754500D03*
X46350000Y28324500D03*
X46600000Y26800000D03*
X46650000Y73900000D03*
X46800000Y49599500D03*
X47004429Y60955706D03*
X47100000Y24800000D03*
X47200000Y63500000D03*
X47298620Y57825500D03*
X47600000Y16600000D03*
X47600000Y15400000D03*
X47900000Y74400000D03*
X48300000Y64200000D03*
X48550000Y8900000D03*
X48700000Y19826944D03*
X48800000Y59900000D03*
X49200000Y22500000D03*
X49250000Y24174500D03*
X49350000Y63250000D03*
X49400000Y57800000D03*
X49600000Y34500000D03*
X49700000Y48600000D03*
X49700000Y35800000D03*
X49800011Y52350000D03*
X50172201Y50544249D03*
X50200000Y42350000D03*
X50254992Y38855008D03*
X50300000Y24850000D03*
X50500000Y19900000D03*
X50900000Y7800000D03*
X51100000Y22550000D03*
X51250000Y13700000D03*
X51300000Y63400000D03*
X51390000Y49199989D03*
X51400000Y46200000D03*
X51450000Y55350000D03*
X51500000Y37400000D03*
X51600000Y35600000D03*
X51650000Y74100000D03*
X52000000Y56550000D03*
X52100000Y6050000D03*
X52600000Y66300000D03*
X52600000Y39000000D03*
X52720273Y28469773D03*
X52950000Y73250000D03*
X53000000Y42200000D03*
X53040000Y13980000D03*
X53100000Y35700000D03*
X53150000Y62850000D03*
X53400000Y56350000D03*
X53400000Y37400000D03*
X53600000Y69025500D03*
X53650000Y26975500D03*
X53800000Y58300000D03*
X53900000Y44800000D03*
X53900000Y40275500D03*
X53900000Y29900000D03*
X54260000Y6670000D03*
X54400000Y61500000D03*
X54600000Y8900000D03*
X54650000Y33850000D03*
X54800000Y68400000D03*
X54900000Y77800000D03*
X54900000Y67000000D03*
X55000000Y29900000D03*
X55150000Y52400000D03*
X55150000Y25850000D03*
X55571636Y6503924D03*
X55600000Y58250000D03*
X55600000Y28600000D03*
X56100000Y35200000D03*
X56250000Y57150000D03*
X56300000Y30200000D03*
X56503904Y52400000D03*
X56600000Y42450000D03*
X56700000Y67500000D03*
X56800000Y40000000D03*
X56950000Y24250000D03*
X57100000Y59200000D03*
X57100000Y26250000D03*
X57600000Y47300000D03*
X57700000Y55300000D03*
X57700000Y34100000D03*
X57750000Y57250000D03*
X58000000Y65800000D03*
X58300000Y38700000D03*
X58300000Y22600000D03*
X58600000Y46400000D03*
X58600000Y30000000D03*
X58700000Y56350000D03*
X58800000Y60900000D03*
X59050000Y55300000D03*
X60087299Y34087299D03*
X60100000Y52400000D03*
X60300000Y55600000D03*
X60400000Y66500000D03*
X60598056Y29001944D03*
X60700000Y42800000D03*
X60800000Y77600000D03*
X61000000Y61700000D03*
X61100000Y10000000D03*
X61600000Y71300000D03*
X61800000Y79150000D03*
X61800000Y68974500D03*
X61900000Y40500000D03*
X62050000Y76150000D03*
X62387701Y55712299D03*
X62800000Y9400000D03*
X62900000Y28300000D03*
X62950000Y52400000D03*
X62950000Y33800000D03*
X63050000Y47675500D03*
X63100000Y42100000D03*
X63300000Y70000000D03*
X63300000Y39300000D03*
X63300000Y37500000D03*
X63350000Y35650000D03*
X63500000Y17500000D03*
X63600000Y14400000D03*
X63800000Y26000000D03*
X64100000Y66400000D03*
X64100000Y64200000D03*
X64100000Y22500000D03*
X64500000Y56100000D03*
X64600000Y31100000D03*
X64900000Y61000000D03*
X65350000Y7200000D03*
X65400000Y43800000D03*
X65500000Y59200000D03*
X65500000Y44950000D03*
X65500000Y16600000D03*
X65831600Y22356199D03*
X66100000Y10100000D03*
X66500000Y71500000D03*
X66750000Y49350000D03*
X67100000Y69800000D03*
X67100000Y56000000D03*
X67150000Y50450000D03*
X67200000Y46050000D03*
X67200000Y15850000D03*
X67300000Y60900000D03*
X67300000Y10000000D03*
X67400000Y59500000D03*
X67500000Y22300000D03*
X67550000Y47900000D03*
X67600000Y28900000D03*
X67600000Y26000000D03*
X67600000Y6350000D03*
X67687701Y33787701D03*
X67800000Y36500000D03*
X67900000Y40600000D03*
X68000000Y37700000D03*
X68200000Y43600000D03*
X68300000Y14400000D03*
X68496928Y64136036D03*
X68700000Y10000000D03*
X68800000Y19900000D03*
X68800000Y4850000D03*
X68900000Y69600000D03*
X69150000Y56300000D03*
X69200000Y16600000D03*
X69600000Y77200000D03*
X69600000Y54649500D03*
X70000000Y29300000D03*
X70250000Y63900000D03*
X70400000Y15200000D03*
X70750000Y69800000D03*
X70800000Y21000000D03*
X70950000Y56200000D03*
X71000000Y7300000D03*
X71100000Y17700000D03*
X71200000Y33500000D03*
X71200000Y26000000D03*
X71500000Y14350000D03*
X71500000Y10000000D03*
X72200000Y7350000D03*
X72300000Y43000000D03*
X72300000Y22500000D03*
X72500000Y46500000D03*
X72500000Y33438030D03*
X72550000Y57650000D03*
X72600000Y30900000D03*
X72800000Y48600000D03*
X73050000Y40200000D03*
X73100000Y18600000D03*
X73200000Y75000000D03*
X73300000Y52300000D03*
X73303571Y37000000D03*
X73600000Y54100000D03*
X73875055Y68797621D03*
X74100000Y47100000D03*
X74222701Y59300000D03*
X74350000Y41100000D03*
X74500000Y60950000D03*
X74500000Y38700000D03*
X74550000Y62250000D03*
X74600000Y49400000D03*
X74652873Y68019803D03*
X74800000Y16000000D03*
X74800000Y15100000D03*
X74850000Y46350000D03*
X74900000Y42950000D03*
X74950000Y75800000D03*
X75000000Y73800000D03*
X75200000Y53000000D03*
X75200000Y51100000D03*
X75300000Y55850000D03*
X75350000Y57650000D03*
X75350000Y36950000D03*
X75550000Y63250000D03*
X75775500Y44900000D03*
X75775500Y43700000D03*
X76300000Y48400000D03*
X76475000Y3800000D03*
X76600000Y60100000D03*
X76775000Y5300000D03*
X77400000Y63000000D03*
X78100000Y49800000D03*
X78100000Y45400000D03*
X78274500Y42500000D03*
X78450000Y66550000D03*
X78729735Y46347576D03*
X79750000Y20740000D03*
X80124500Y75800000D03*
X80300000Y69350000D03*
X80325998Y72700000D03*
X80325998Y71600000D03*
X80550000Y57000000D03*
X80800000Y54100000D03*
X80849000Y63900000D03*
X80849000Y62800000D03*
X81275000Y5200000D03*
X81275000Y3900000D03*
X81324500Y50800000D03*
X81549312Y38950688D03*
X81600000Y44500000D03*
X81600000Y35100000D03*
X81600000Y25300000D03*
X81600000Y24110000D03*
X81600000Y18700000D03*
X82627462Y42588909D03*
X82700000Y21900000D03*
X83300000Y29800000D03*
X83337163Y32450000D03*
X83337163Y31350000D03*
X83405280Y41811091D03*
X85100000Y13600000D03*
X85200000Y9100000D03*
X86500000Y9100000D03*
X86600000Y13600000D03*
X86700000Y56500000D03*
D11*
%TO.C,J10*%
X3000000Y9700000D03*
%TO.C,J18*%
X9300000Y51200000D03*
D12*
%TO.C,J2*%
X14048000Y90929000D03*
X14048000Y88389000D03*
%TO.C,J1*%
X14048000Y85849000D03*
X14048000Y83309000D03*
%TO.C,J2*%
X16588000Y90929000D03*
X16588000Y88389000D03*
%TO.C,J1*%
X16588000Y85849000D03*
X16588000Y83309000D03*
%TO.C,J2*%
X19128000Y90929000D03*
X19128000Y88389000D03*
%TO.C,J1*%
X19128000Y85849000D03*
X19128000Y83309000D03*
%TO.C,J2*%
X21668000Y90929000D03*
X21668000Y88389000D03*
%TO.C,J1*%
X21668000Y85849000D03*
X21668000Y83309000D03*
%TO.C,J2*%
X24208000Y90929000D03*
X24208000Y88389000D03*
%TO.C,J1*%
X24208000Y85849000D03*
X24208000Y83309000D03*
%TO.C,J2*%
X26748000Y90929000D03*
X26748000Y88389000D03*
%TO.C,J1*%
X26748000Y85849000D03*
X26748000Y83309000D03*
%TO.C,J2*%
X29288000Y90929000D03*
X29288000Y88389000D03*
%TO.C,J1*%
X29288000Y85849000D03*
X29288000Y83309000D03*
%TO.C,J2*%
X31828000Y90929000D03*
X31828000Y88389000D03*
%TO.C,J1*%
X31828000Y85849000D03*
X31828000Y83309000D03*
%TO.C,J2*%
X34368000Y90929000D03*
X34368000Y88389000D03*
%TO.C,J1*%
X34368000Y85849000D03*
X34368000Y83309000D03*
%TO.C,J2*%
X36908000Y90929000D03*
X36908000Y88389000D03*
%TO.C,J1*%
X36908000Y85849000D03*
X36908000Y83309000D03*
%TO.C,J2*%
X39448000Y90929000D03*
X39448000Y88389000D03*
%TO.C,J1*%
X39448000Y85849000D03*
X39448000Y83309000D03*
%TO.C,J2*%
X41988000Y90929000D03*
X41988000Y88389000D03*
%TO.C,J1*%
X41988000Y85849000D03*
X41988000Y83309000D03*
%TO.C,J2*%
X44528000Y90929000D03*
X44528000Y88389000D03*
%TO.C,J1*%
X44528000Y85849000D03*
X44528000Y83309000D03*
%TO.C,J2*%
X47068000Y90929000D03*
X47068000Y88389000D03*
%TO.C,J1*%
X47068000Y85849000D03*
X47068000Y83309000D03*
%TO.C,J2*%
X49608000Y90929000D03*
X49608000Y88389000D03*
%TO.C,J1*%
X49608000Y85849000D03*
X49608000Y83309000D03*
%TO.C,J2*%
X52148000Y90929000D03*
X52148000Y88389000D03*
%TO.C,J1*%
X52148000Y85849000D03*
X52148000Y83309000D03*
%TO.C,J2*%
X54688000Y90929000D03*
X54688000Y88389000D03*
%TO.C,J1*%
X54688000Y85849000D03*
X54688000Y83309000D03*
%TO.C,J2*%
X57228000Y90929000D03*
X57228000Y88389000D03*
%TO.C,J1*%
X57228000Y85849000D03*
X57228000Y83309000D03*
%TO.C,J2*%
X59768000Y90929000D03*
X59768000Y88389000D03*
%TO.C,J1*%
X59768000Y85849000D03*
X59768000Y83309000D03*
%TO.C,J2*%
X62308000Y90929000D03*
X62308000Y88389000D03*
%TO.C,J1*%
X62308000Y85849000D03*
X62308000Y83309000D03*
%TO.C,J2*%
X64848000Y90929000D03*
X64848000Y88389000D03*
%TO.C,J1*%
X64848000Y85849000D03*
X64848000Y83309000D03*
%TO.C,J2*%
X67388000Y90929000D03*
X67388000Y88389000D03*
%TO.C,J1*%
X67388000Y85849000D03*
X67388000Y83309000D03*
%TO.C,J2*%
X69928000Y90929000D03*
X69928000Y88389000D03*
%TO.C,J1*%
X69928000Y85849000D03*
X69928000Y83309000D03*
%TO.C,J2*%
X72468000Y90929000D03*
X72468000Y88389000D03*
%TO.C,J1*%
X72468000Y85849000D03*
X72468000Y83309000D03*
%TO.C,J2*%
X75008000Y90929000D03*
X75008000Y88389000D03*
%TO.C,J1*%
X75008000Y85849000D03*
X75008000Y83309000D03*
%TO.C,J2*%
X77548000Y90929000D03*
X77548000Y88389000D03*
%TO.C,J1*%
X77548000Y85849000D03*
X77548000Y83309000D03*
D13*
%TO.C,H3*%
X5180000Y5190000D03*
%TO.C,H1*%
X8990000Y90930000D03*
%TO.C,H2*%
X82630000Y90930000D03*
%TO.C,H4*%
X85170000Y5210000D03*
M02*
