M48
; DRILL file {KiCad 8.0.3} date 2024-07-05T11:32:39+0300
; FORMAT={-:-/ absolute / inch / decimal}
; #@! TF.CreationDate,2024-07-05T11:32:39+03:00
; #@! TF.GenerationSoftware,Kicad,Pcbnew,8.0.3
; #@! TF.FileFunction,Plated,1,8,PTH
FMAT,2
INCH
; #@! TA.AperFunction,Plated,PTH,ViaDrill
T1C0.0157
; #@! TA.AperFunction,Plated,PTH,ComponentDrill
T2C0.0197
; #@! TA.AperFunction,Plated,PTH,ComponentDrill
T3C0.0394
; #@! TA.AperFunction,Plated,PTH,ComponentDrill
T4C0.0402
; #@! TA.AperFunction,Plated,PTH,ComponentDrill
T5C0.1260
%
G90
G05
T1
X0.0709Y3.2559
X0.0787Y2.3799
X0.0906Y3.4409
X0.1742Y3.4409
X0.2047Y3.2165
X0.2539Y3.4409
X0.2628Y2.8986
X0.2677Y2.748
X0.2874Y3.252
X0.2874Y3.0669
X0.2923Y2.9246
X0.3543Y3.0472
X0.3543Y2.2598
X0.3642Y1.7264
X0.3661Y2.6299
X0.3819Y3.1339
X0.3858Y1.6654
X0.4173Y2.2657
X0.4193Y1.7441
X0.4449Y3.0384
X0.4476Y3.1126
X0.4508Y2.8602
X0.4587Y1.3563
X0.4587Y1.2992
X0.4803Y1.7579
X0.5083Y2.934
X0.5138Y1.2283
X0.5591Y0.4449
X0.563Y1.2106
X0.5696Y1.3068
X0.5719Y0.623
X0.6043Y0.5915
X0.6083Y1.2372
X0.6171Y2.3061
X0.6171Y2.1319
X0.626Y0.7224
X0.6408Y1.4094
X0.6545Y2.5039
X0.6694Y1.3631
X0.6703Y2.2874
X0.6713Y0.7087
X0.6791Y0.4921
X0.6811Y2.251
X0.6831Y0.2992
X0.685Y2.8504
X0.6909Y0.7461
X0.693Y1.7524
X0.6969Y2.1358
X0.7018Y3.1014
X0.7097Y2.3041
X0.7196Y0.8258
X0.7254Y0.5433
X0.7353Y2.748
X0.7362Y1.5325
X0.7362Y1.3976
X0.748Y2.126
X0.752Y0.2205
X0.7537Y1.6513
X0.7569Y1.6121
X0.7598Y1.3287
X0.7638Y2.6693
X0.7648Y0.8307
X0.7657Y2.0276
X0.7677Y1.9843
X0.7697Y0.4941
X0.7756Y1.2087
X0.7815Y1.7461
X0.7835Y1.4823
X0.7844Y2.3504
X0.7854Y1.398
X0.7874Y0.8937
X0.7919Y0.7673
X0.7933Y1.2874
X0.7933Y0.0846
X0.7972Y0.314
X0.8031Y2.5984
X0.8071Y1.1063
X0.811Y0.4921
X0.814Y1.0502
X0.815Y0.7992
X0.8406Y1.2874
X0.8432Y1.4338
X0.8479Y2.4385
X0.8504Y0.999
X0.8533Y3.6349
X0.8819Y3.1181
X0.8819Y2.9183
X0.8878Y0.5925
X0.8898Y1.687
X0.9037Y3.5581
X0.9213Y1.6339
X0.9224Y0.3079
X0.937Y2.9016
X0.9537Y3.6349
X0.9604Y2.6289
X0.9606Y0.5906
X0.9685Y0.8898
X0.9724Y2.0748
X0.9764Y1.9803
X0.9784Y1.2547
X0.981Y1.296
X0.9831Y1.5108
X0.9931Y1.6703
X0.9941Y2.5699
X0.998Y3.437
X1.0079Y1.2185
X1.0118Y1.375
X1.0138Y0.4094
X1.0236Y0.8465
X1.0315Y1.1713
X1.0413Y1.4724
X1.0591Y1.1299
X1.0628Y0.3596
X1.0709Y0.6772
X1.074Y1.4138
X1.0802Y1.6865
X1.0827Y0.7874
X1.0877Y2.4263
X1.0906Y3.1398
X1.0906Y3.0965
X1.0906Y0.8858
X1.117Y2.4556
X1.1191Y2.5207
X1.122Y2.311
X1.1291Y0.3594
X1.1378Y0.4488
X1.148Y1.2941
X1.1518Y2.9821
X1.1545Y2.3179
X1.1614Y1.9902
X1.1713Y2.0945
X1.1732Y1.0886
X1.1772Y0.9921
X1.1909Y1.4764
X1.1949Y0.9272
X1.2008Y0.8504
X1.2116Y2.7894
X1.2353Y1.3209
X1.2362Y0.3465
X1.2441Y0.5787
X1.248Y0.2913
X1.2559Y0.8937
X1.2677Y0.815
X1.2766Y1.7697
X1.2766Y2.3041
X1.2795Y2.8268
X1.2815Y1.4783
X1.2874Y1.4094
X1.2913Y0.5394
X1.2996Y1.3362
X1.3022Y1.1299
X1.3209Y3.0591
X1.3209Y2.7323
X1.3228Y0.8976
X1.3425Y1.2795
X1.3425Y1.1339
X1.3559Y1.9538
X1.3592Y1.8544
X1.3627Y2.1206
X1.374Y0.8543
X1.3888Y1.9222
X1.3937Y0.7874
X1.3957Y0.6713
X1.4026Y3.6063
X1.4134Y1.1339
X1.4158Y1.5261
X1.4282Y1.6644
X1.4291Y1.9232
X1.4331Y3.0197
X1.4366Y1.8829
X1.4366Y1.7795
X1.437Y1.3592
X1.4441Y2.6768
X1.4685Y2.3425
X1.4715Y0.6339
X1.4803Y2.8465
X1.4843Y1.1378
X1.4937Y1.8602
X1.4937Y1.6437
X1.4988Y3.5138
X1.5081Y1.8216
X1.5103Y0.6403
X1.5246Y1.6722
X1.5254Y1.434
X1.5266Y1.5177
X1.5286Y1.749
X1.5315Y0.9508
X1.5322Y0.6128
X1.5365Y0.5737
X1.5394Y3.0157
X1.5433Y1.0256
X1.552Y1.2748
X1.569Y1.6741
X1.5704Y1.0893
X1.5709Y1.5197
X1.5866Y2.1969
X1.5955Y3.6043
X1.5965Y2.7746
X1.6033Y3.504
X1.6043Y0.9646
X1.625Y2.9203
X1.626Y2.4783
X1.6299Y1.0295
X1.6547Y2.7548
X1.6594Y2.94
X1.6614Y1.7638
X1.6654Y1.4055
X1.6713Y0.3327
X1.6752Y0.9685
X1.6836Y2.3479
X1.6839Y2.7255
X1.6929Y3.0118
X1.7047Y1.2323
X1.7073Y1.374
X1.7076Y1.4332
X1.7087Y2.6535
X1.7091Y1.9661
X1.7205Y2.5945
X1.7224Y2.7008
X1.739Y1.8073
X1.7402Y2.1299
X1.7413Y1.8898
X1.75Y1.7116
X1.7549Y1.627
X1.7602Y2.0299
X1.7602Y1.9606
X1.7677Y2.3976
X1.7717Y2.9921
X1.7717Y1.8583
X1.7756Y2.5276
X1.7805Y2.31
X1.7894Y1.5325
X1.8033Y2.0343
X1.8214Y1.1149
X1.822Y1.8407
X1.8425Y1.9527
X1.8506Y2.3998
X1.8543Y0.9764
X1.8583Y2.5
X1.8602Y2.7884
X1.8622Y2.2766
X1.874Y0.6535
X1.874Y0.6063
X1.8858Y2.9291
X1.9016Y2.5276
X1.9106Y1.066
X1.9173Y0.7806
X1.937Y0.8858
X1.939Y0.9518
X1.9449Y2.2756
X1.9459Y2.176
X1.9488Y1.8985
X1.9528Y1.3583
X1.9567Y1.4094
X1.9715Y1.9744
X1.9739Y1.9288
X1.9764Y1.6673
X1.9785Y1.5297
X1.9833Y0.9872
X1.9882Y0.7835
X2.0177Y0.5394
X2.0232Y1.937
X2.0236Y1.8189
X2.0256Y2.1791
X2.0276Y1.4724
X2.0295Y2.5209
X2.0315Y1.4016
X2.0463Y2.9321
X2.0472Y2.2264
X2.0626Y2.7624
X2.0709Y2.6102
X2.0756Y1.1209
X2.0866Y1.6614
X2.0882Y0.5504
X2.0906Y1.4055
X2.1004Y2.5177
X2.1024Y2.2185
X2.1122Y1.062
X2.1181Y2.2953
X2.1181Y1.8051
X2.122Y1.5856
X2.122Y1.1772
X2.125Y2.7283
X2.1417Y2.4213
X2.1555Y3.0453
X2.1654Y1.1772
X2.1698Y2.6924
X2.1713Y1.0177
X2.1742Y2.6329
X2.1857Y2.2806
X2.189Y1.126
X2.1894Y2.2414
X2.1898Y2.0402
X2.2116Y1.1644
X2.2283Y1.6713
X2.2311Y2.067
X2.2339Y0.963
X2.2362Y1.5748
X2.248Y1.0335
X2.265Y2.7069
X2.2717Y1.3425
X2.2766Y2.2864
X2.2835Y2.5906
X2.3071Y2.2428
X2.3071Y1.8268
X2.3071Y1.1811
X2.3553Y2.186
X2.3656Y1.342
X2.3661Y2.063
X2.3858Y1.1418
X2.3898Y1.685
X2.3937Y3.0551
X2.3947Y2.4911
X2.4016Y2.4291
X2.4055Y0.3937
X2.4232Y1.9988
X2.4331Y2.7047
X2.437Y1.5945
X2.4429Y2.998
X2.4488Y3.1382
X2.4527Y2.8201
X2.4562Y2.1934
X2.4724Y0.3701
X2.4764Y1.1142
X2.4783Y1.3307
X2.4823Y1.877
X2.4843Y1.6575
X2.4921Y1.5472
X2.4921Y1.4764
X2.4941Y1.4035
X2.5Y0.689
X2.5039Y0.5669
X2.5118Y1.0236
X2.5128Y2.6092
X2.5158Y2.527
X2.5236Y0.8858
X2.5433Y1.2244
X2.5748Y1.7244
X2.5787Y1.7697
X2.5787Y0.6535
X2.5837Y2.4085
X2.5918Y0.8802
X2.6024Y0.3976
X2.6049Y1.8441
X2.6181Y2.815
X2.6269Y1.9506
X2.6417Y2.2047
X2.6437Y1.9862
X2.6457Y1.813
X2.6457Y0.624
X2.6496Y2.3976
X2.6496Y0.3937
X2.6535Y2.3425
X2.6575Y0.878
X2.6594Y1.8858
X2.6614Y1.1378
X2.6614Y1.0236
X2.6649Y1.3302
X2.6693Y1.437
X2.6732Y1.5984
X2.6772Y1.4843
X2.6781Y2.7589
X2.6791Y2.7087
X2.685Y1.7165
X2.689Y0.5669
X2.6967Y2.525
X2.7087Y0.7835
X2.7224Y2.2165
X2.7244Y0.6535
X2.7248Y0.3906
X2.7313Y2.5463
X2.7402Y2.1516
X2.7463Y3.0254
X2.7835Y0.5822
X2.7874Y0.8268
X2.7933Y2.5955
X2.7933Y2.2126
X2.7992Y0.6969
X2.8031Y1.3189
X2.8031Y1.0236
X2.8098Y0.4543
X2.8169Y1.063
X2.8268Y2.5994
X2.8287Y2.81
X2.8465Y1.6929
X2.8465Y0.8858
X2.8529Y2.486
X2.8543Y1.8307
X2.8543Y1.3165
X2.8563Y2.2697
X2.8583Y1.2165
X2.8605Y1.9109
X2.8612Y2.6004
X2.8632Y1.0817
X2.876Y1.5827
X2.878Y0.7323
X2.8819Y2.9528
X2.8819Y2.4518
X2.886Y1.4567
X2.8976Y2.1299
X2.9016Y2.0691
X2.9173Y1.8543
X2.9222Y2.3346
X2.9252Y2.6799
X2.9272Y1.6181
X2.9331Y2.3996
X2.935Y2.4508
X2.9441Y1.9336
X2.9467Y1.5462
X2.9469Y2.0089
X2.9469Y1.8248
X2.9579Y2.1587
X2.9606Y2.0704
X2.9646Y2.1988
X2.9665Y2.2697
X2.9698Y2.5916
X2.9764Y1.3693
X2.9833Y1.7677
X2.9833Y1.7205
X2.9862Y3.2126
X2.994Y1.8838
X2.9964Y2.6523
X3.0039Y2.7018
X3.0108Y0.1496
X3.0118Y2.8622
X3.0157Y2.9429
X3.0226Y0.2087
X3.0334Y2.4311
X3.0364Y2.3504
X3.0364Y2.0394
X3.0502Y1.8809
X3.0817Y1.6732
X3.0817Y2.8199
X3.0829Y3.0056
X3.122Y2.2736
X3.125Y2.0325
X3.128Y2.1122
X3.1298Y1.9675
X3.1545Y3.0404
X3.186Y3.3652
X3.1899Y1.8562
X3.1998Y0.2047
X3.1998Y0.1535
X3.2116Y1.5354
X3.2126Y1.752
X3.2195Y2.2608
X3.2205Y2.0305
X3.2224Y2.4291
X3.2281Y2.1274
X3.2303Y2.7451
X3.2333Y2.564
X3.2392Y2.7844
X3.2412Y2.4861
X3.2421Y2.626
X3.2435Y2.526
X3.252Y1.6654
X3.2657Y1.6181
X3.2795Y1.3366
X3.2795Y1.1732
X3.281Y1.2776
X3.281Y1.2343
X3.3504Y0.5354
X3.3543Y0.3583
X3.3571Y2.2348
X3.3651Y2.191
X3.3809Y2.1457
X3.4055Y0.3583
X3.4094Y0.5354
X3.4144Y2.3681
X3.436Y2.5699
X3.4409Y2.5069
T2
X0.5295Y2.8307
X0.6535Y0.7963
X0.6644Y2.3327
X2.8947Y1.0374
T3
X0.1539Y2.5368
X0.1539Y2.4368
X0.1539Y2.3368
X0.1539Y2.2368
X0.1539Y2.1368
X0.1539Y2.0368
X0.1539Y1.9368
X0.1539Y1.8368
X0.1539Y1.7368
X0.1539Y1.6368
X0.1539Y1.5368
X0.1539Y1.4368
X0.1539Y1.3368
X0.1539Y1.2368
X0.1539Y1.1368
X0.1539Y1.0368
X0.1539Y0.9368
X0.1539Y0.8368
X0.1539Y0.7368
X0.1539Y0.6368
X0.2539Y2.5368
X0.2539Y2.4368
X0.2539Y2.3368
X0.2539Y2.2368
X0.2539Y2.1368
X0.2539Y2.0368
X0.2539Y1.9368
X0.2539Y1.8368
X0.2539Y1.7368
X0.2539Y1.6368
X0.2539Y1.5368
X0.2539Y1.4368
X0.2539Y1.3368
X0.2539Y1.2368
X0.2539Y1.1368
X0.2539Y1.0368
X0.2539Y0.9368
X0.2539Y0.8368
X0.2539Y0.7368
X0.2539Y0.6368
X2.3811Y0.1644
X2.4811Y0.1644
X2.5811Y0.1644
X2.6811Y0.1644
X3.3317Y0.9006
X3.3317Y0.8006
X3.3317Y0.7006
T4
X0.5531Y3.5799
X0.5531Y3.4799
X0.5531Y3.3799
X0.5531Y3.2799
X0.6531Y3.5799
X0.6531Y3.4799
X0.6531Y3.3799
X0.6531Y3.2799
X0.7531Y3.5799
X0.7531Y3.4799
X0.7531Y3.3799
X0.7531Y3.2799
X0.8531Y3.5799
X0.8531Y3.4799
X0.8531Y3.3799
X0.8531Y3.2799
X0.9531Y3.5799
X0.9531Y3.4799
X0.9531Y3.3799
X0.9531Y3.2799
X1.0531Y3.5799
X1.0531Y3.4799
X1.0531Y3.3799
X1.0531Y3.2799
X1.1531Y3.5799
X1.1531Y3.4799
X1.1531Y3.3799
X1.1531Y3.2799
X1.2531Y3.5799
X1.2531Y3.4799
X1.2531Y3.3799
X1.2531Y3.2799
X1.3531Y3.5799
X1.3531Y3.4799
X1.3531Y3.3799
X1.3531Y3.2799
X1.4531Y3.5799
X1.4531Y3.4799
X1.4531Y3.3799
X1.4531Y3.2799
X1.5531Y3.5799
X1.5531Y3.4799
X1.5531Y3.3799
X1.5531Y3.2799
X1.6531Y3.5799
X1.6531Y3.4799
X1.6531Y3.3799
X1.6531Y3.2799
X1.7531Y3.5799
X1.7531Y3.4799
X1.7531Y3.3799
X1.7531Y3.2799
X1.8531Y3.5799
X1.8531Y3.4799
X1.8531Y3.3799
X1.8531Y3.2799
X1.9531Y3.5799
X1.9531Y3.4799
X1.9531Y3.3799
X1.9531Y3.2799
X2.0531Y3.5799
X2.0531Y3.4799
X2.0531Y3.3799
X2.0531Y3.2799
X2.1531Y3.5799
X2.1531Y3.4799
X2.1531Y3.3799
X2.1531Y3.2799
X2.2531Y3.5799
X2.2531Y3.4799
X2.2531Y3.3799
X2.2531Y3.2799
X2.3531Y3.5799
X2.3531Y3.4799
X2.3531Y3.3799
X2.3531Y3.2799
X2.4531Y3.5799
X2.4531Y3.4799
X2.4531Y3.3799
X2.4531Y3.2799
X2.5531Y3.5799
X2.5531Y3.4799
X2.5531Y3.3799
X2.5531Y3.2799
X2.6531Y3.5799
X2.6531Y3.4799
X2.6531Y3.3799
X2.6531Y3.2799
X2.7531Y3.5799
X2.7531Y3.4799
X2.7531Y3.3799
X2.7531Y3.2799
X2.8531Y3.5799
X2.8531Y3.4799
X2.8531Y3.3799
X2.8531Y3.2799
X2.9531Y3.5799
X2.9531Y3.4799
X2.9531Y3.3799
X2.9531Y3.2799
X3.0531Y3.5799
X3.0531Y3.4799
X3.0531Y3.3799
X3.0531Y3.2799
T5
X0.2039Y0.2043
X0.3539Y3.5799
X3.2531Y3.5799
X3.3531Y0.2051
M30
