%TF.GenerationSoftware,KiCad,Pcbnew,6.0.7-f9a2dced07~116~ubuntu20.04.1*%
%TF.CreationDate,2022-10-11T04:26:54+03:00*%
%TF.ProjectId,obc-adcs-board,6f62632d-6164-4637-932d-626f6172642e,rev?*%
%TF.SameCoordinates,PX3e2df80PY83e4a60*%
%TF.FileFunction,Profile,NP*%
%FSLAX46Y46*%
G04 Gerber Fmt 4.6, Leading zero omitted, Abs format (unit mm)*
G04 Created by KiCad (PCBNEW 6.0.7-f9a2dced07~116~ubuntu20.04.1) date 2022-10-11 04:26:54*
%MOMM*%
%LPD*%
G01*
G04 APERTURE LIST*
%TA.AperFunction,Profile*%
%ADD10C,0.100000*%
%TD*%
G04 APERTURE END LIST*
D10*
X1600000Y43065000D02*
X1600000Y53065000D01*
X66685000Y120000D02*
X89370000Y120000D01*
X850000Y42315000D02*
G75*
G03*
X100000Y41565000I0J-750000D01*
G01*
X65935000Y870000D02*
G75*
G03*
X65185000Y1620000I-750000J0D01*
G01*
X72185000Y94510000D02*
G75*
G03*
X72935000Y95260000I0J750000D01*
G01*
X90270000Y12065000D02*
X90270000Y1020000D01*
X850000Y42315000D02*
G75*
G03*
X1600000Y43065000I0J750000D01*
G01*
X25185000Y1620000D02*
G75*
G03*
X24435000Y870000I0J-750000D01*
G01*
X18185000Y94510000D02*
X72185000Y94510000D01*
X100000Y41565000D02*
X100000Y1010000D01*
X73685000Y96010000D02*
G75*
G03*
X72935000Y95260000I0J-750000D01*
G01*
X1000000Y96010000D02*
G75*
G03*
X100000Y95110000I0J-900000D01*
G01*
X100000Y1010000D02*
G75*
G03*
X1000000Y110000I900000J0D01*
G01*
X88770000Y13565000D02*
X88770000Y82565000D01*
X90270000Y12065000D02*
G75*
G03*
X89520000Y12815000I-750000J0D01*
G01*
X89520000Y83315000D02*
G75*
G03*
X88770000Y82565000I0J-750000D01*
G01*
X88770000Y13565000D02*
G75*
G03*
X89520000Y12815000I750000J0D01*
G01*
X25185000Y1620000D02*
X65185000Y1620000D01*
X73685000Y96010000D02*
X89370000Y96010000D01*
X89520000Y83315000D02*
G75*
G03*
X90270000Y84065000I0J750000D01*
G01*
X89370000Y120000D02*
G75*
G03*
X90270000Y1020000I0J900000D01*
G01*
X1600000Y53065000D02*
G75*
G03*
X850000Y53815000I-750000J0D01*
G01*
X23685000Y120000D02*
G75*
G03*
X24435000Y870000I0J750000D01*
G01*
X90270000Y95110000D02*
G75*
G03*
X89370000Y96010000I-900000J0D01*
G01*
X17435000Y95260000D02*
G75*
G03*
X18185000Y94510000I750000J0D01*
G01*
X100000Y54565000D02*
G75*
G03*
X850000Y53815000I750000J0D01*
G01*
X1000000Y96010000D02*
X16685000Y96010000D01*
X90270000Y95110000D02*
X90270000Y84065000D01*
X100000Y95110000D02*
X100000Y54565000D01*
X17435000Y95260000D02*
G75*
G03*
X16685000Y96010000I-750000J0D01*
G01*
X23685000Y120000D02*
X1000000Y110000D01*
X65935000Y870000D02*
G75*
G03*
X66685000Y120000I750000J0D01*
G01*
M02*
