%TF.GenerationSoftware,KiCad,Pcbnew,6.0.7-f9a2dced07~116~ubuntu20.04.1*%
%TF.CreationDate,2022-10-11T04:26:54+03:00*%
%TF.ProjectId,obc-adcs-board,6f62632d-6164-4637-932d-626f6172642e,rev?*%
%TF.SameCoordinates,PX3e2df80PY83e4a60*%
%TF.FileFunction,Copper,L8,Bot*%
%TF.FilePolarity,Positive*%
%FSLAX46Y46*%
G04 Gerber Fmt 4.6, Leading zero omitted, Abs format (unit mm)*
G04 Created by KiCad (PCBNEW 6.0.7-f9a2dced07~116~ubuntu20.04.1) date 2022-10-11 04:26:54*
%MOMM*%
%LPD*%
G01*
G04 APERTURE LIST*
G04 Aperture macros list*
%AMRoundRect*
0 Rectangle with rounded corners*
0 $1 Rounding radius*
0 $2 $3 $4 $5 $6 $7 $8 $9 X,Y pos of 4 corners*
0 Add a 4 corners polygon primitive as box body*
4,1,4,$2,$3,$4,$5,$6,$7,$8,$9,$2,$3,0*
0 Add four circle primitives for the rounded corners*
1,1,$1+$1,$2,$3*
1,1,$1+$1,$4,$5*
1,1,$1+$1,$6,$7*
1,1,$1+$1,$8,$9*
0 Add four rect primitives between the rounded corners*
20,1,$1+$1,$2,$3,$4,$5,0*
20,1,$1+$1,$4,$5,$6,$7,0*
20,1,$1+$1,$6,$7,$8,$9,0*
20,1,$1+$1,$8,$9,$2,$3,0*%
G04 Aperture macros list end*
%TA.AperFunction,Profile*%
%ADD10C,0.100000*%
%TD*%
%TA.AperFunction,ComponentPad*%
%ADD11C,5.600000*%
%TD*%
%TA.AperFunction,ComponentPad*%
%ADD12R,0.850000X0.850000*%
%TD*%
%TA.AperFunction,ComponentPad*%
%ADD13R,1.530000X1.530000*%
%TD*%
%TA.AperFunction,ComponentPad*%
%ADD14C,1.530000*%
%TD*%
%TA.AperFunction,SMDPad,CuDef*%
%ADD15RoundRect,0.135000X0.185000X-0.135000X0.185000X0.135000X-0.185000X0.135000X-0.185000X-0.135000X0*%
%TD*%
%TA.AperFunction,SMDPad,CuDef*%
%ADD16R,1.400000X1.700000*%
%TD*%
%TA.AperFunction,SMDPad,CuDef*%
%ADD17R,0.600000X0.650000*%
%TD*%
%TA.AperFunction,SMDPad,CuDef*%
%ADD18R,0.850000X1.340000*%
%TD*%
%TA.AperFunction,SMDPad,CuDef*%
%ADD19R,0.450000X1.475000*%
%TD*%
%TA.AperFunction,SMDPad,CuDef*%
%ADD20R,1.780000X3.430000*%
%TD*%
%TA.AperFunction,SMDPad,CuDef*%
%ADD21R,1.020000X0.950000*%
%TD*%
%TA.AperFunction,SMDPad,CuDef*%
%ADD22RoundRect,0.200000X-0.275000X0.200000X-0.275000X-0.200000X0.275000X-0.200000X0.275000X0.200000X0*%
%TD*%
%TA.AperFunction,SMDPad,CuDef*%
%ADD23RoundRect,0.200000X0.275000X-0.200000X0.275000X0.200000X-0.275000X0.200000X-0.275000X-0.200000X0*%
%TD*%
%TA.AperFunction,SMDPad,CuDef*%
%ADD24R,1.475000X0.300000*%
%TD*%
%TA.AperFunction,SMDPad,CuDef*%
%ADD25R,0.300000X1.475000*%
%TD*%
%TA.AperFunction,SMDPad,CuDef*%
%ADD26R,0.700000X1.800000*%
%TD*%
%TA.AperFunction,SMDPad,CuDef*%
%ADD27R,1.600000X2.200000*%
%TD*%
%TA.AperFunction,SMDPad,CuDef*%
%ADD28RoundRect,0.135000X-0.185000X0.135000X-0.185000X-0.135000X0.185000X-0.135000X0.185000X0.135000X0*%
%TD*%
%TA.AperFunction,SMDPad,CuDef*%
%ADD29RoundRect,0.200000X-0.200000X-0.275000X0.200000X-0.275000X0.200000X0.275000X-0.200000X0.275000X0*%
%TD*%
%TA.AperFunction,SMDPad,CuDef*%
%ADD30C,1.000000*%
%TD*%
%TA.AperFunction,SMDPad,CuDef*%
%ADD31RoundRect,0.140000X0.140000X0.170000X-0.140000X0.170000X-0.140000X-0.170000X0.140000X-0.170000X0*%
%TD*%
%TA.AperFunction,SMDPad,CuDef*%
%ADD32RoundRect,0.225000X-0.250000X0.225000X-0.250000X-0.225000X0.250000X-0.225000X0.250000X0.225000X0*%
%TD*%
%TA.AperFunction,SMDPad,CuDef*%
%ADD33RoundRect,0.225000X0.225000X0.250000X-0.225000X0.250000X-0.225000X-0.250000X0.225000X-0.250000X0*%
%TD*%
%TA.AperFunction,SMDPad,CuDef*%
%ADD34RoundRect,0.140000X0.170000X-0.140000X0.170000X0.140000X-0.170000X0.140000X-0.170000X-0.140000X0*%
%TD*%
%TA.AperFunction,SMDPad,CuDef*%
%ADD35R,1.700000X1.400000*%
%TD*%
%TA.AperFunction,SMDPad,CuDef*%
%ADD36RoundRect,0.200000X0.200000X0.275000X-0.200000X0.275000X-0.200000X-0.275000X0.200000X-0.275000X0*%
%TD*%
%TA.AperFunction,SMDPad,CuDef*%
%ADD37R,1.000000X0.600000*%
%TD*%
%TA.AperFunction,SMDPad,CuDef*%
%ADD38R,0.700000X0.900000*%
%TD*%
%TA.AperFunction,SMDPad,CuDef*%
%ADD39R,0.750000X0.900000*%
%TD*%
%TA.AperFunction,SMDPad,CuDef*%
%ADD40RoundRect,0.140000X-0.170000X0.140000X-0.170000X-0.140000X0.170000X-0.140000X0.170000X0.140000X0*%
%TD*%
%TA.AperFunction,SMDPad,CuDef*%
%ADD41R,2.870000X0.740000*%
%TD*%
%TA.AperFunction,SMDPad,CuDef*%
%ADD42R,0.650000X1.528000*%
%TD*%
%TA.AperFunction,SMDPad,CuDef*%
%ADD43RoundRect,0.225000X-0.225000X-0.250000X0.225000X-0.250000X0.225000X0.250000X-0.225000X0.250000X0*%
%TD*%
%TA.AperFunction,SMDPad,CuDef*%
%ADD44RoundRect,0.140000X-0.140000X-0.170000X0.140000X-0.170000X0.140000X0.170000X-0.140000X0.170000X0*%
%TD*%
%TA.AperFunction,SMDPad,CuDef*%
%ADD45R,1.400000X0.450000*%
%TD*%
%TA.AperFunction,SMDPad,CuDef*%
%ADD46RoundRect,0.100000X-0.100000X0.712500X-0.100000X-0.712500X0.100000X-0.712500X0.100000X0.712500X0*%
%TD*%
%TA.AperFunction,SMDPad,CuDef*%
%ADD47RoundRect,0.225000X0.250000X-0.225000X0.250000X0.225000X-0.250000X0.225000X-0.250000X-0.225000X0*%
%TD*%
%TA.AperFunction,SMDPad,CuDef*%
%ADD48RoundRect,0.135000X0.135000X0.185000X-0.135000X0.185000X-0.135000X-0.185000X0.135000X-0.185000X0*%
%TD*%
%TA.AperFunction,SMDPad,CuDef*%
%ADD49R,0.600000X1.000000*%
%TD*%
%TA.AperFunction,SMDPad,CuDef*%
%ADD50R,1.010000X0.940000*%
%TD*%
%TA.AperFunction,SMDPad,CuDef*%
%ADD51C,0.500000*%
%TD*%
%TA.AperFunction,SMDPad,CuDef*%
%ADD52R,1.000000X1.800000*%
%TD*%
%TA.AperFunction,SMDPad,CuDef*%
%ADD53R,3.430000X1.780000*%
%TD*%
%TA.AperFunction,SMDPad,CuDef*%
%ADD54RoundRect,0.250000X-0.375000X-1.075000X0.375000X-1.075000X0.375000X1.075000X-0.375000X1.075000X0*%
%TD*%
%TA.AperFunction,SMDPad,CuDef*%
%ADD55R,0.940000X1.010000*%
%TD*%
%TA.AperFunction,SMDPad,CuDef*%
%ADD56R,0.940000X1.020000*%
%TD*%
%TA.AperFunction,SMDPad,CuDef*%
%ADD57R,0.450000X1.400000*%
%TD*%
%TA.AperFunction,SMDPad,CuDef*%
%ADD58R,1.550000X2.550000*%
%TD*%
%TA.AperFunction,SMDPad,CuDef*%
%ADD59R,0.950000X2.550000*%
%TD*%
%TA.AperFunction,SMDPad,CuDef*%
%ADD60R,0.550000X2.550000*%
%TD*%
%TA.AperFunction,SMDPad,CuDef*%
%ADD61RoundRect,0.250000X-1.075000X0.375000X-1.075000X-0.375000X1.075000X-0.375000X1.075000X0.375000X0*%
%TD*%
%TA.AperFunction,SMDPad,CuDef*%
%ADD62RoundRect,0.050000X0.387500X0.050000X-0.387500X0.050000X-0.387500X-0.050000X0.387500X-0.050000X0*%
%TD*%
%TA.AperFunction,SMDPad,CuDef*%
%ADD63RoundRect,0.050000X0.050000X0.387500X-0.050000X0.387500X-0.050000X-0.387500X0.050000X-0.387500X0*%
%TD*%
%TA.AperFunction,SMDPad,CuDef*%
%ADD64R,2.600000X2.600000*%
%TD*%
%TA.AperFunction,SMDPad,CuDef*%
%ADD65R,0.900000X0.700000*%
%TD*%
%TA.AperFunction,SMDPad,CuDef*%
%ADD66R,0.900000X0.750000*%
%TD*%
%TA.AperFunction,SMDPad,CuDef*%
%ADD67R,0.700000X0.650000*%
%TD*%
%TA.AperFunction,SMDPad,CuDef*%
%ADD68RoundRect,0.135000X-0.135000X-0.185000X0.135000X-0.185000X0.135000X0.185000X-0.135000X0.185000X0*%
%TD*%
%TA.AperFunction,SMDPad,CuDef*%
%ADD69R,0.650000X0.700000*%
%TD*%
%TA.AperFunction,SMDPad,CuDef*%
%ADD70R,1.000000X1.500000*%
%TD*%
%TA.AperFunction,SMDPad,CuDef*%
%ADD71R,0.650000X1.525000*%
%TD*%
%TA.AperFunction,SMDPad,CuDef*%
%ADD72R,1.700000X0.700000*%
%TD*%
%TA.AperFunction,SMDPad,CuDef*%
%ADD73R,2.400000X1.950000*%
%TD*%
%TA.AperFunction,SMDPad,CuDef*%
%ADD74R,2.550000X1.550000*%
%TD*%
%TA.AperFunction,SMDPad,CuDef*%
%ADD75R,2.550000X0.950000*%
%TD*%
%TA.AperFunction,SMDPad,CuDef*%
%ADD76R,2.550000X0.550000*%
%TD*%
%TA.AperFunction,SMDPad,CuDef*%
%ADD77R,1.528000X0.650000*%
%TD*%
%TA.AperFunction,SMDPad,CuDef*%
%ADD78R,0.800000X0.900000*%
%TD*%
%TA.AperFunction,ViaPad*%
%ADD79C,0.800000*%
%TD*%
%TA.AperFunction,Conductor*%
%ADD80C,0.250000*%
%TD*%
%TA.AperFunction,Conductor*%
%ADD81C,0.200000*%
%TD*%
%TA.AperFunction,Conductor*%
%ADD82C,0.300000*%
%TD*%
%TA.AperFunction,Conductor*%
%ADD83C,0.350000*%
%TD*%
%TA.AperFunction,Conductor*%
%ADD84C,0.400000*%
%TD*%
%TA.AperFunction,Conductor*%
%ADD85C,0.800000*%
%TD*%
%TA.AperFunction,Conductor*%
%ADD86C,0.700000*%
%TD*%
%TA.AperFunction,Conductor*%
%ADD87C,0.450000*%
%TD*%
%TA.AperFunction,Conductor*%
%ADD88C,1.000000*%
%TD*%
%TA.AperFunction,Conductor*%
%ADD89C,0.500000*%
%TD*%
%TA.AperFunction,Conductor*%
%ADD90C,0.150000*%
%TD*%
G04 APERTURE END LIST*
D10*
X1600000Y43065000D02*
X1600000Y53065000D01*
X66685000Y120000D02*
X89370000Y120000D01*
X850000Y42315000D02*
G75*
G03*
X100000Y41565000I0J-750000D01*
G01*
X65935000Y870000D02*
G75*
G03*
X65185000Y1620000I-750000J0D01*
G01*
X72185000Y94510000D02*
G75*
G03*
X72935000Y95260000I0J750000D01*
G01*
X90270000Y12065000D02*
X90270000Y1020000D01*
X850000Y42315000D02*
G75*
G03*
X1600000Y43065000I0J750000D01*
G01*
X25185000Y1620000D02*
G75*
G03*
X24435000Y870000I0J-750000D01*
G01*
X18185000Y94510000D02*
X72185000Y94510000D01*
X100000Y41565000D02*
X100000Y1010000D01*
X73685000Y96010000D02*
G75*
G03*
X72935000Y95260000I0J-750000D01*
G01*
X1000000Y96010000D02*
G75*
G03*
X100000Y95110000I0J-900000D01*
G01*
X100000Y1010000D02*
G75*
G03*
X1000000Y110000I900000J0D01*
G01*
X88770000Y13565000D02*
X88770000Y82565000D01*
X90270000Y12065000D02*
G75*
G03*
X89520000Y12815000I-750000J0D01*
G01*
X89520000Y83315000D02*
G75*
G03*
X88770000Y82565000I0J-750000D01*
G01*
X88770000Y13565000D02*
G75*
G03*
X89520000Y12815000I750000J0D01*
G01*
X25185000Y1620000D02*
X65185000Y1620000D01*
X73685000Y96010000D02*
X89370000Y96010000D01*
X89520000Y83315000D02*
G75*
G03*
X90270000Y84065000I0J750000D01*
G01*
X89370000Y120000D02*
G75*
G03*
X90270000Y1020000I0J900000D01*
G01*
X1600000Y53065000D02*
G75*
G03*
X850000Y53815000I-750000J0D01*
G01*
X23685000Y120000D02*
G75*
G03*
X24435000Y870000I0J750000D01*
G01*
X90270000Y95110000D02*
G75*
G03*
X89370000Y96010000I-900000J0D01*
G01*
X17435000Y95260000D02*
G75*
G03*
X18185000Y94510000I750000J0D01*
G01*
X100000Y54565000D02*
G75*
G03*
X850000Y53815000I750000J0D01*
G01*
X1000000Y96010000D02*
X16685000Y96010000D01*
X90270000Y95110000D02*
X90270000Y84065000D01*
X100000Y95110000D02*
X100000Y54565000D01*
X17435000Y95260000D02*
G75*
G03*
X16685000Y96010000I-750000J0D01*
G01*
X23685000Y120000D02*
X1000000Y110000D01*
X65935000Y870000D02*
G75*
G03*
X66685000Y120000I750000J0D01*
G01*
D11*
%TO.P,H2,1,1*%
%TO.N,unconnected-(H4-Pad1)*%
X82630000Y90930000D03*
%TD*%
%TO.P,H3,1,1*%
%TO.N,unconnected-(H1-Pad1)*%
X5180000Y5190000D03*
%TD*%
%TO.P,H4,1,1*%
%TO.N,AC_GND_2*%
X85170000Y5210000D03*
%TD*%
%TO.P,H1,1,1*%
%TO.N,AC_GND_1*%
X8990000Y90930000D03*
%TD*%
D12*
%TO.P,J10,1,Pin_1*%
%TO.N,/OBC module/3V3_PROT*%
X3000000Y9700000D03*
%TD*%
D13*
%TO.P,J1,01,01*%
%TO.N,CAN1-*%
X14048000Y83309000D03*
D14*
%TO.P,J1,02,02*%
%TO.N,unconnected-(J1-Pad02)*%
X14048000Y85849000D03*
%TO.P,J1,03,03*%
%TO.N,CAN1+*%
X16588000Y83309000D03*
%TO.P,J1,04,04*%
%TO.N,unconnected-(J1-Pad04)*%
X16588000Y85849000D03*
%TO.P,J1,05,05*%
%TO.N,unconnected-(J1-Pad05)*%
X19128000Y83309000D03*
%TO.P,J1,06,06*%
%TO.N,unconnected-(J1-Pad06)*%
X19128000Y85849000D03*
%TO.P,J1,07,07*%
%TO.N,unconnected-(J1-Pad07)*%
X21668000Y83309000D03*
%TO.P,J1,08,08*%
%TO.N,unconnected-(J1-Pad08)*%
X21668000Y85849000D03*
%TO.P,J1,09,09*%
%TO.N,unconnected-(J1-Pad09)*%
X24208000Y83309000D03*
%TO.P,J1,10,10*%
%TO.N,unconnected-(J1-Pad10)*%
X24208000Y85849000D03*
%TO.P,J1,11,11*%
%TO.N,unconnected-(J1-Pad11)*%
X26748000Y83309000D03*
%TO.P,J1,12,12*%
%TO.N,unconnected-(J1-Pad12)*%
X26748000Y85849000D03*
%TO.P,J1,13,13*%
%TO.N,unconnected-(J1-Pad13)*%
X29288000Y83309000D03*
%TO.P,J1,14,14*%
%TO.N,unconnected-(J1-Pad14)*%
X29288000Y85849000D03*
%TO.P,J1,15,15*%
%TO.N,unconnected-(J1-Pad15)*%
X31828000Y83309000D03*
%TO.P,J1,16,16*%
%TO.N,unconnected-(J1-Pad16)*%
X31828000Y85849000D03*
%TO.P,J1,17,17*%
%TO.N,unconnected-(J1-Pad17)*%
X34368000Y83309000D03*
%TO.P,J1,18,18*%
%TO.N,unconnected-(J1-Pad18)*%
X34368000Y85849000D03*
%TO.P,J1,19,19*%
%TO.N,unconnected-(J1-Pad19)*%
X36908000Y83309000D03*
%TO.P,J1,20,20*%
%TO.N,unconnected-(J1-Pad20)*%
X36908000Y85849000D03*
%TO.P,J1,21,21*%
%TO.N,unconnected-(J1-Pad21)*%
X39448000Y83309000D03*
%TO.P,J1,22,22*%
%TO.N,unconnected-(J1-Pad22)*%
X39448000Y85849000D03*
%TO.P,J1,23,23*%
%TO.N,unconnected-(J1-Pad23)*%
X41988000Y83309000D03*
%TO.P,J1,24,24*%
%TO.N,unconnected-(J1-Pad24)*%
X41988000Y85849000D03*
%TO.P,J1,25,25*%
%TO.N,unconnected-(J1-Pad25)*%
X44528000Y83309000D03*
%TO.P,J1,26,26*%
%TO.N,unconnected-(J1-Pad26)*%
X44528000Y85849000D03*
%TO.P,J1,27,27*%
%TO.N,unconnected-(J1-Pad27)*%
X47068000Y83309000D03*
%TO.P,J1,28,28*%
%TO.N,unconnected-(J1-Pad28)*%
X47068000Y85849000D03*
%TO.P,J1,29,29*%
%TO.N,unconnected-(J1-Pad29)*%
X49608000Y83309000D03*
%TO.P,J1,30,30*%
%TO.N,unconnected-(J1-Pad30)*%
X49608000Y85849000D03*
%TO.P,J1,31,31*%
%TO.N,unconnected-(J1-Pad31)*%
X52148000Y83309000D03*
%TO.P,J1,32,32*%
%TO.N,unconnected-(J1-Pad32)*%
X52148000Y85849000D03*
%TO.P,J1,33,33*%
%TO.N,unconnected-(J1-Pad33)*%
X54688000Y83309000D03*
%TO.P,J1,34,34*%
%TO.N,unconnected-(J1-Pad34)*%
X54688000Y85849000D03*
%TO.P,J1,35,35*%
%TO.N,unconnected-(J1-Pad35)*%
X57228000Y83309000D03*
%TO.P,J1,36,36*%
%TO.N,unconnected-(J1-Pad36)*%
X57228000Y85849000D03*
%TO.P,J1,37,37*%
%TO.N,unconnected-(J1-Pad37)*%
X59768000Y83309000D03*
%TO.P,J1,38,38*%
%TO.N,unconnected-(J1-Pad38)*%
X59768000Y85849000D03*
%TO.P,J1,39,39*%
%TO.N,unconnected-(J1-Pad39)*%
X62308000Y83309000D03*
%TO.P,J1,40,40*%
%TO.N,unconnected-(J1-Pad40)*%
X62308000Y85849000D03*
%TO.P,J1,41,41*%
%TO.N,/I2C_MTQ_SDA*%
X64848000Y83309000D03*
%TO.P,J1,42,42*%
%TO.N,unconnected-(J1-Pad42)*%
X64848000Y85849000D03*
%TO.P,J1,43,43*%
%TO.N,/I2C_MTQ_SCK*%
X67388000Y83309000D03*
%TO.P,J1,44,44*%
%TO.N,unconnected-(J1-Pad44)*%
X67388000Y85849000D03*
%TO.P,J1,45,45*%
%TO.N,GND*%
X69928000Y83309000D03*
%TO.P,J1,46,46*%
X69928000Y85849000D03*
%TO.P,J1,47,47*%
%TO.N,/EPS_3V3_ADCS*%
X72468000Y83309000D03*
%TO.P,J1,48,48*%
%TO.N,/EPS_3V3_SU*%
X72468000Y85849000D03*
%TO.P,J1,49,49*%
%TO.N,/EPS_3V3_OBC*%
X75008000Y83309000D03*
%TO.P,J1,50,50*%
%TO.N,/EPS_3V3_RW*%
X75008000Y85849000D03*
%TO.P,J1,51,51*%
%TO.N,unconnected-(J1-Pad51)*%
X77548000Y83309000D03*
%TO.P,J1,52,52*%
%TO.N,/EPS_5V_SU*%
X77548000Y85849000D03*
%TD*%
D13*
%TO.P,J2,01,01*%
%TO.N,CAN2-*%
X14048000Y88389000D03*
D14*
%TO.P,J2,02,02*%
%TO.N,unconnected-(J5-Pad02)*%
X14048000Y90929000D03*
%TO.P,J2,03,03*%
%TO.N,CAN2+*%
X16588000Y88389000D03*
%TO.P,J2,04,04*%
%TO.N,unconnected-(J5-Pad04)*%
X16588000Y90929000D03*
%TO.P,J2,05,05*%
%TO.N,unconnected-(J5-Pad05)*%
X19128000Y88389000D03*
%TO.P,J2,06,06*%
%TO.N,unconnected-(J5-Pad06)*%
X19128000Y90929000D03*
%TO.P,J2,07,07*%
%TO.N,unconnected-(J5-Pad07)*%
X21668000Y88389000D03*
%TO.P,J2,08,08*%
%TO.N,unconnected-(J5-Pad08)*%
X21668000Y90929000D03*
%TO.P,J2,09,09*%
%TO.N,unconnected-(J5-Pad09)*%
X24208000Y88389000D03*
%TO.P,J2,10,10*%
%TO.N,unconnected-(J5-Pad10)*%
X24208000Y90929000D03*
%TO.P,J2,11,11*%
%TO.N,unconnected-(J5-Pad11)*%
X26748000Y88389000D03*
%TO.P,J2,12,12*%
%TO.N,unconnected-(J5-Pad12)*%
X26748000Y90929000D03*
%TO.P,J2,13,13*%
%TO.N,unconnected-(J5-Pad13)*%
X29288000Y88389000D03*
%TO.P,J2,14,14*%
%TO.N,unconnected-(J5-Pad14)*%
X29288000Y90929000D03*
%TO.P,J2,15,15*%
%TO.N,unconnected-(J5-Pad15)*%
X31828000Y88389000D03*
%TO.P,J2,16,16*%
%TO.N,unconnected-(J5-Pad16)*%
X31828000Y90929000D03*
%TO.P,J2,17,17*%
%TO.N,/OBC_UART_TX*%
X34368000Y88389000D03*
%TO.P,J2,18,18*%
%TO.N,/OBC_UART_RX*%
X34368000Y90929000D03*
%TO.P,J2,19,19*%
%TO.N,/ADCS_UART_TX*%
X36908000Y88389000D03*
%TO.P,J2,20,20*%
%TO.N,/ADCS_UART_RX*%
X36908000Y90929000D03*
%TO.P,J2,21,21*%
%TO.N,unconnected-(J5-Pad21)*%
X39448000Y88389000D03*
%TO.P,J2,22,22*%
%TO.N,unconnected-(J5-Pad22)*%
X39448000Y90929000D03*
%TO.P,J2,23,23*%
%TO.N,unconnected-(J5-Pad23)*%
X41988000Y88389000D03*
%TO.P,J2,24,24*%
%TO.N,unconnected-(J5-Pad24)*%
X41988000Y90929000D03*
%TO.P,J2,25,25*%
%TO.N,unconnected-(J5-Pad25)*%
X44528000Y88389000D03*
%TO.P,J2,26,26*%
%TO.N,unconnected-(J5-Pad26)*%
X44528000Y90929000D03*
%TO.P,J2,27,27*%
%TO.N,unconnected-(J5-Pad27)*%
X47068000Y88389000D03*
%TO.P,J2,28,28*%
%TO.N,unconnected-(J5-Pad28)*%
X47068000Y90929000D03*
%TO.P,J2,29,29*%
%TO.N,GND*%
X49608000Y88389000D03*
%TO.P,J2,30,30*%
X49608000Y90929000D03*
%TO.P,J2,31,31*%
X52148000Y88389000D03*
%TO.P,J2,32,32*%
X52148000Y90929000D03*
%TO.P,J2,33,33*%
%TO.N,unconnected-(J5-Pad33)*%
X54688000Y88389000D03*
%TO.P,J2,34,34*%
%TO.N,unconnected-(J5-Pad34)*%
X54688000Y90929000D03*
%TO.P,J2,35,35*%
%TO.N,unconnected-(J5-Pad35)*%
X57228000Y88389000D03*
%TO.P,J2,36,36*%
%TO.N,unconnected-(J5-Pad36)*%
X57228000Y90929000D03*
%TO.P,J2,37,37*%
%TO.N,unconnected-(J5-Pad37)*%
X59768000Y88389000D03*
%TO.P,J2,38,38*%
%TO.N,unconnected-(J5-Pad38)*%
X59768000Y90929000D03*
%TO.P,J2,39,39*%
%TO.N,unconnected-(J5-Pad39)*%
X62308000Y88389000D03*
%TO.P,J2,40,40*%
%TO.N,unconnected-(J5-Pad40)*%
X62308000Y90929000D03*
%TO.P,J2,41,41*%
%TO.N,unconnected-(J5-Pad41)*%
X64848000Y88389000D03*
%TO.P,J2,42,42*%
%TO.N,unconnected-(J5-Pad42)*%
X64848000Y90929000D03*
%TO.P,J2,43,43*%
%TO.N,unconnected-(J5-Pad43)*%
X67388000Y88389000D03*
%TO.P,J2,44,44*%
%TO.N,unconnected-(J5-Pad44)*%
X67388000Y90929000D03*
%TO.P,J2,45,45*%
%TO.N,unconnected-(J5-Pad45)*%
X69928000Y88389000D03*
%TO.P,J2,46,46*%
%TO.N,unconnected-(J5-Pad46)*%
X69928000Y90929000D03*
%TO.P,J2,47,47*%
%TO.N,/EPS_5V_PANELS*%
X72468000Y88389000D03*
%TO.P,J2,48,48*%
%TO.N,/EPS_5V_ADM*%
X72468000Y90929000D03*
%TO.P,J2,49,49*%
%TO.N,/EPS_12V_SU*%
X75008000Y88389000D03*
%TO.P,J2,50,50*%
%TO.N,unconnected-(J5-Pad50)*%
X75008000Y90929000D03*
%TO.P,J2,51,51*%
%TO.N,/EPS_5V_ADM*%
X77548000Y88389000D03*
%TO.P,J2,52,52*%
%TO.N,unconnected-(J5-Pad52)*%
X77548000Y90929000D03*
%TD*%
D15*
%TO.P,R125,1*%
%TO.N,/ADCS module/Magnetometer/XINN*%
X8100000Y30790000D03*
%TO.P,R125,2*%
%TO.N,/ADCS module/Magnetometer/XDRVN*%
X8100000Y31810000D03*
%TD*%
D16*
%TO.P,U20,1,XINP*%
%TO.N,/ADCS module/Magnetometer/XINP*%
X15600000Y21100000D03*
%TO.P,U20,2,XINN*%
%TO.N,/ADCS module/Magnetometer/XINN*%
X9800000Y21100000D03*
%TD*%
D17*
%TO.P,J24,1,1*%
%TO.N,/ADCS module/ADCS_TRACECLK*%
X60200000Y11838000D03*
%TO.P,J24,2,2*%
%TO.N,/ADCS module/ADCS_TRACED_3*%
X59000000Y11838000D03*
%TO.P,J24,3,3*%
%TO.N,/ADCS module/ADCS_TRACED_2*%
X57800000Y11838000D03*
%TO.P,J24,4,4*%
%TO.N,/ADCS module/ADCS_TRACED_1*%
X56600000Y11838000D03*
%TO.P,J24,5,5*%
%TO.N,/ADCS module/ADCS_TRACED_0*%
X55400000Y11838000D03*
%TO.P,J24,6,6*%
%TO.N,GND*%
X54200000Y11838000D03*
D18*
%TO.P,J24,MP1,MP1*%
%TO.N,unconnected-(J49-PadMP1)*%
X52775000Y8133000D03*
%TO.P,J24,MP2,MP2*%
%TO.N,unconnected-(J49-PadMP2)*%
X61625000Y8133000D03*
%TD*%
D19*
%TO.P,Q10,1,D1*%
%TO.N,/ADCS module/Over-voltage Protection/3V3_OC_PROT*%
X63025000Y79888000D03*
%TO.P,Q10,2,S1_1*%
%TO.N,/ADCS module/Over-voltage Protection/MOSFET_S*%
X63675000Y79888000D03*
%TO.P,Q10,3,S1_2*%
X64325000Y79888000D03*
%TO.P,Q10,4,G1*%
%TO.N,Net-(Q2-Pad4)*%
X64975000Y79888000D03*
%TO.P,Q10,5,G2*%
X64975000Y74012000D03*
%TO.P,Q10,6,S2_1*%
%TO.N,/ADCS module/Over-voltage Protection/MOSFET_S*%
X64325000Y74012000D03*
%TO.P,Q10,7,S2_2*%
X63675000Y74012000D03*
%TO.P,Q10,8,D2*%
%TO.N,/ADCS_VDD*%
X63025000Y74012000D03*
%TD*%
D20*
%TO.P,TP42,1*%
%TO.N,/ADCS module/CAN_RX_2*%
X3800000Y74700000D03*
%TD*%
D21*
%TO.P,F15,1*%
%TO.N,/EPS_3V3_RW*%
X78200000Y19885000D03*
%TO.P,F15,2*%
%TO.N,/ADCS module/RW_FUSE*%
X78200000Y18315000D03*
%TD*%
D22*
%TO.P,R104,1*%
%TO.N,ADM_PD*%
X28100000Y55425000D03*
%TO.P,R104,2*%
%TO.N,/ADCS module/Connectors/OP-AMP_OUT_6*%
X28100000Y53775000D03*
%TD*%
D23*
%TO.P,R119,1*%
%TO.N,/ADCS module/Connectors/PD_CATHODE_4*%
X18460000Y43355000D03*
%TO.P,R119,2*%
%TO.N,/ADCS module/Connectors/OP-AMP_OUT_4*%
X18460000Y45005000D03*
%TD*%
D24*
%TO.P,U16,1,PD0*%
%TO.N,/ADCS module/MAG_DRDY*%
X48162000Y34350000D03*
%TO.P,U16,2,PD31*%
%TO.N,unconnected-(U14-Pad2)*%
X48162000Y34850000D03*
%TO.P,U16,3,VDDOUT*%
%TO.N,/ADCS module/Microcontroller/MCU_VDDCORE*%
X48162000Y35350000D03*
%TO.P,U16,4,PE0*%
%TO.N,unconnected-(U14-Pad4)*%
X48162000Y35850000D03*
%TO.P,U16,5,VDDIN*%
%TO.N,/ADCS_VDD*%
X48162000Y36350000D03*
%TO.P,U16,6,PE1*%
%TO.N,unconnected-(U14-Pad6)*%
X48162000Y36850000D03*
%TO.P,U16,7,PE2*%
%TO.N,unconnected-(U14-Pad7)*%
X48162000Y37350000D03*
%TO.P,U16,8,VREFN*%
%TO.N,GND*%
X48162000Y37850000D03*
%TO.P,U16,9,VREFP*%
%TO.N,/ADCS module/Microcontroller/MCU_AD_REF_POS*%
X48162000Y38350000D03*
%TO.P,U16,10,PE3*%
%TO.N,unconnected-(U14-Pad10)*%
X48162000Y38850000D03*
%TO.P,U16,11,PC0*%
%TO.N,unconnected-(U14-Pad11)*%
X48162000Y39350000D03*
%TO.P,U16,12,PC27*%
%TO.N,/ADCS module/MAG_MOSI*%
X48162000Y39850000D03*
%TO.P,U16,13,PC26*%
%TO.N,/ADCS module/MAG_MISO*%
X48162000Y40350000D03*
%TO.P,U16,14,PC31*%
%TO.N,unconnected-(U14-Pad14)*%
X48162000Y40850000D03*
%TO.P,U16,15,PC30*%
%TO.N,unconnected-(U14-Pad15)*%
X48162000Y41350000D03*
%TO.P,U16,16,PC29*%
%TO.N,/ADCS module/Microcontroller/USR_ADC_2*%
X48162000Y41850000D03*
%TO.P,U16,17,PC12*%
%TO.N,/ADCS module/CAN_RX_2*%
X48162000Y42350000D03*
%TO.P,U16,18,PC15*%
%TO.N,/ADCS module/PD_OUT_3*%
X48162000Y42850000D03*
%TO.P,U16,19,PC13*%
%TO.N,/ADCS module/PD_OUT_1*%
X48162000Y43350000D03*
%TO.P,U16,20,PB1*%
%TO.N,/ADCS module/PD_OUT_2*%
X48162000Y43850000D03*
%TO.P,U16,21,PB0*%
%TO.N,unconnected-(U14-Pad21)*%
X48162000Y44350000D03*
%TO.P,U16,22,PA20*%
%TO.N,/ADCS module/PD_OUT_4*%
X48162000Y44850000D03*
%TO.P,U16,23,PA19*%
%TO.N,/ADCS module/PD_OUT_5*%
X48162000Y45350000D03*
%TO.P,U16,24,PA18*%
%TO.N,/ADCS module/PD_OUT_6*%
X48162000Y45850000D03*
%TO.P,U16,25,PA17*%
%TO.N,unconnected-(U14-Pad25)*%
X48162000Y46350000D03*
%TO.P,U16,26,PB2*%
%TO.N,/ADCS module/CAN_TX_1*%
X48162000Y46850000D03*
%TO.P,U16,27,PE4*%
%TO.N,/ADCS module/Microcontroller/USR_ADC_1*%
X48162000Y47350000D03*
%TO.P,U16,28,PE5*%
%TO.N,unconnected-(U14-Pad28)*%
X48162000Y47850000D03*
%TO.P,U16,29,VDDCORE_1*%
%TO.N,/ADCS module/Microcontroller/MCU_VDDCORE*%
X48162000Y48350000D03*
%TO.P,U16,30,VDDIO_1*%
%TO.N,/ADCS_VDD*%
X48162000Y48850000D03*
%TO.P,U16,31,PB3*%
%TO.N,/ADCS module/CAN_RX_1*%
X48162000Y49350000D03*
%TO.P,U16,32,PA21*%
%TO.N,unconnected-(U14-Pad32)*%
X48162000Y49850000D03*
%TO.P,U16,33,VDDCORE_2*%
%TO.N,/ADCS module/Microcontroller/MCU_VDDCORE*%
X48162000Y50350000D03*
%TO.P,U16,34,PD30*%
%TO.N,unconnected-(U14-Pad34)*%
X48162000Y50850000D03*
%TO.P,U16,35,PA7*%
%TO.N,/ADCS module/MCU_RTC_IN*%
X48162000Y51350000D03*
%TO.P,U16,36,PA8*%
%TO.N,/ADCS module/MCU_RTC_OUT*%
X48162000Y51850000D03*
D25*
%TO.P,U16,37,PA22*%
%TO.N,/ADCS module/CAN_FAULT_1*%
X50150000Y53838000D03*
%TO.P,U16,38,PC1*%
%TO.N,/ADCS module/CAN_SILENT_1*%
X50650000Y53838000D03*
%TO.P,U16,39,PC2*%
%TO.N,unconnected-(U14-Pad39)*%
X51150000Y53838000D03*
%TO.P,U16,40,PC3*%
%TO.N,/ADCS module/CAN_FAULT_2*%
X51650000Y53838000D03*
%TO.P,U16,41,PC4*%
%TO.N,unconnected-(U14-Pad41)*%
X52150000Y53838000D03*
%TO.P,U16,42,PA13*%
%TO.N,unconnected-(U14-Pad42)*%
X52650000Y53838000D03*
%TO.P,U16,43,VDDIO_2*%
%TO.N,/ADCS_VDD*%
X53150000Y53838000D03*
%TO.P,U16,44,GND_1*%
%TO.N,GND*%
X53650000Y53838000D03*
%TO.P,U16,45,PA16*%
%TO.N,unconnected-(U14-Pad45)*%
X54150000Y53838000D03*
%TO.P,U16,46,PA23*%
%TO.N,unconnected-(U14-Pad46)*%
X54650000Y53838000D03*
%TO.P,U16,47,PD27*%
%TO.N,/ADCS module/I2C_SDA_SENS*%
X55150000Y53838000D03*
%TO.P,U16,48,PC7*%
%TO.N,unconnected-(U14-Pad48)*%
X55650000Y53838000D03*
%TO.P,U16,49,PA15*%
%TO.N,unconnected-(U14-Pad49)*%
X56150000Y53838000D03*
%TO.P,U16,50,VDDCORE_3*%
%TO.N,/ADCS module/Microcontroller/MCU_VDDCORE*%
X56650000Y53838000D03*
%TO.P,U16,51,PA14*%
%TO.N,unconnected-(U14-Pad51)*%
X57150000Y53838000D03*
%TO.P,U16,52,PD25*%
%TO.N,unconnected-(U14-Pad52)*%
X57650000Y53838000D03*
%TO.P,U16,53,PD26*%
%TO.N,unconnected-(U14-Pad53)*%
X58150000Y53838000D03*
%TO.P,U16,54,PC6*%
%TO.N,unconnected-(U14-Pad54)*%
X58650000Y53838000D03*
%TO.P,U16,55,PD24*%
%TO.N,/ADCS module/CAN_SILENT_2*%
X59150000Y53838000D03*
%TO.P,U16,56,PA24*%
%TO.N,unconnected-(U14-Pad56)*%
X59650000Y53838000D03*
%TO.P,U16,57,PD23*%
%TO.N,unconnected-(U14-Pad57)*%
X60150000Y53838000D03*
%TO.P,U16,58,PC5*%
%TO.N,/ADCS module/GYR_CS1*%
X60650000Y53838000D03*
%TO.P,U16,59,PA25*%
%TO.N,/ADCS module/GYR_CS3*%
X61150000Y53838000D03*
%TO.P,U16,60,PD22*%
%TO.N,/ADCS module/GYR_SPCK*%
X61650000Y53838000D03*
%TO.P,U16,61,GND_2*%
%TO.N,GND*%
X62150000Y53838000D03*
%TO.P,U16,62,PA26*%
%TO.N,/ADCS module/GYR_CS2*%
X62650000Y53838000D03*
%TO.P,U16,63,PD21*%
%TO.N,/ADCS module/GYR_MOSI*%
X63150000Y53838000D03*
%TO.P,U16,64,PA11*%
%TO.N,unconnected-(U14-Pad64)*%
X63650000Y53838000D03*
%TO.P,U16,65,PD20*%
%TO.N,/ADCS module/GYR_MISO*%
X64150000Y53838000D03*
%TO.P,U16,66,PA10*%
%TO.N,/ADCS_UART_TX*%
X64650000Y53838000D03*
%TO.P,U16,67,PD19*%
%TO.N,unconnected-(U14-Pad67)*%
X65150000Y53838000D03*
%TO.P,U16,68,PA12*%
%TO.N,unconnected-(U14-Pad68)*%
X65650000Y53838000D03*
%TO.P,U16,69,PD18*%
%TO.N,unconnected-(U14-Pad69)*%
X66150000Y53838000D03*
%TO.P,U16,70,PA27*%
%TO.N,unconnected-(U14-Pad70)*%
X66650000Y53838000D03*
%TO.P,U16,71,PD28*%
%TO.N,/ADCS module/I2C_SCK_SENS*%
X67150000Y53838000D03*
%TO.P,U16,72,VDDIO_3*%
%TO.N,/ADCS_VDD*%
X67650000Y53838000D03*
D24*
%TO.P,U16,73,PA5*%
%TO.N,unconnected-(U14-Pad73)*%
X69638000Y51850000D03*
%TO.P,U16,74,PD17*%
%TO.N,unconnected-(U14-Pad74)*%
X69638000Y51350000D03*
%TO.P,U16,75,PA9*%
%TO.N,/ADCS_UART_RX*%
X69638000Y50850000D03*
%TO.P,U16,76,PC28*%
%TO.N,unconnected-(U14-Pad76)*%
X69638000Y50350000D03*
%TO.P,U16,77,PA4*%
%TO.N,/I2C_MTQ_SCK*%
X69638000Y49850000D03*
%TO.P,U16,78,PD16*%
%TO.N,unconnected-(U14-Pad78)*%
X69638000Y49350000D03*
%TO.P,U16,79,PB6*%
%TO.N,/ADCS_SWDIO*%
X69638000Y48850000D03*
%TO.P,U16,80,VDDIO_4*%
%TO.N,/ADCS_VDD*%
X69638000Y48350000D03*
%TO.P,U16,81,VDDCORE_4*%
%TO.N,/ADCS module/Microcontroller/MCU_VDDCORE*%
X69638000Y47850000D03*
%TO.P,U16,82,PC8*%
%TO.N,unconnected-(U14-Pad82)*%
X69638000Y47350000D03*
%TO.P,U16,83,NRST*%
%TO.N,/ADCS_RESET*%
X69638000Y46850000D03*
%TO.P,U16,84,PD14*%
%TO.N,unconnected-(U14-Pad84)*%
X69638000Y46350000D03*
%TO.P,U16,85,TST*%
%TO.N,GND*%
X69638000Y45850000D03*
%TO.P,U16,86,PC9*%
%TO.N,unconnected-(U14-Pad86)*%
X69638000Y45350000D03*
%TO.P,U16,87,PB12*%
%TO.N,unconnected-(U14-Pad87)*%
X69638000Y44850000D03*
%TO.P,U16,88,PD13*%
%TO.N,unconnected-(U14-Pad88)*%
X69638000Y44350000D03*
%TO.P,U16,89,PB7*%
%TO.N,/ADCS_SWCLK*%
X69638000Y43850000D03*
%TO.P,U16,90,PC10*%
%TO.N,unconnected-(U14-Pad90)*%
X69638000Y43350000D03*
%TO.P,U16,91,PA3*%
%TO.N,/I2C_MTQ_SDA*%
X69638000Y42850000D03*
%TO.P,U16,92,PD12*%
%TO.N,unconnected-(U14-Pad92)*%
X69638000Y42350000D03*
%TO.P,U16,93,PA2*%
%TO.N,unconnected-(U14-Pad93)*%
X69638000Y41850000D03*
%TO.P,U16,94,PC11*%
%TO.N,unconnected-(U14-Pad94)*%
X69638000Y41350000D03*
%TO.P,U16,95,GND_3*%
%TO.N,GND*%
X69638000Y40850000D03*
%TO.P,U16,96,VDDIO_5*%
%TO.N,/ADCS_VDD*%
X69638000Y40350000D03*
%TO.P,U16,97,PC14*%
%TO.N,/ADCS module/CAN_TX_2*%
X69638000Y39850000D03*
%TO.P,U16,98,PD11*%
%TO.N,unconnected-(U14-Pad98)*%
X69638000Y39350000D03*
%TO.P,U16,99,PA1*%
%TO.N,unconnected-(U14-Pad99)*%
X69638000Y38850000D03*
%TO.P,U16,100,PC16*%
%TO.N,unconnected-(U14-Pad100)*%
X69638000Y38350000D03*
%TO.P,U16,101,PD10*%
%TO.N,unconnected-(U14-Pad101)*%
X69638000Y37850000D03*
%TO.P,U16,102,PA0*%
%TO.N,unconnected-(U14-Pad102)*%
X69638000Y37350000D03*
%TO.P,U16,103,PC17*%
%TO.N,unconnected-(U14-Pad103)*%
X69638000Y36850000D03*
%TO.P,U16,104,JTAGSEL*%
%TO.N,GND*%
X69638000Y36350000D03*
%TO.P,U16,105,PB4*%
%TO.N,/ADCS module/RW_SDA*%
X69638000Y35850000D03*
%TO.P,U16,106,PD15*%
%TO.N,unconnected-(U14-Pad106)*%
X69638000Y35350000D03*
%TO.P,U16,107,VDDCORE_5*%
%TO.N,/ADCS module/Microcontroller/MCU_VDDCORE*%
X69638000Y34850000D03*
%TO.P,U16,108,PD29*%
%TO.N,/ADCS module/USR_GPIO*%
X69638000Y34350000D03*
D25*
%TO.P,U16,109,PB5*%
%TO.N,/ADCS module/RW_SCK*%
X67650000Y32362000D03*
%TO.P,U16,110,PD9*%
%TO.N,unconnected-(U14-Pad110)*%
X67150000Y32362000D03*
%TO.P,U16,111,PC18*%
%TO.N,unconnected-(U14-Pad111)*%
X66650000Y32362000D03*
%TO.P,U16,112,PA28*%
%TO.N,unconnected-(U14-Pad112)*%
X66150000Y32362000D03*
%TO.P,U16,113,PD8*%
%TO.N,/ADCS module/ADCS_TRACECLK*%
X65650000Y32362000D03*
%TO.P,U16,114,PA6*%
%TO.N,unconnected-(U14-Pad114)*%
X65150000Y32362000D03*
%TO.P,U16,115,GND_4*%
%TO.N,GND*%
X64650000Y32362000D03*
%TO.P,U16,116,PA30*%
%TO.N,unconnected-(U14-Pad116)*%
X64150000Y32362000D03*
%TO.P,U16,117,PC19*%
%TO.N,/ADCS module/USR_GPIO_PWM*%
X63650000Y32362000D03*
%TO.P,U16,118,PA31*%
%TO.N,unconnected-(U14-Pad118)*%
X63150000Y32362000D03*
%TO.P,U16,119,PD7*%
%TO.N,/ADCS module/ADCS_TRACED_3*%
X62650000Y32362000D03*
%TO.P,U16,120,PC20*%
%TO.N,unconnected-(U14-Pad120)*%
X62150000Y32362000D03*
%TO.P,U16,121,PD6*%
%TO.N,/ADCS module/ADCS_TRACED_2*%
X61650000Y32362000D03*
%TO.P,U16,122,PC21*%
%TO.N,unconnected-(U14-Pad122)*%
X61150000Y32362000D03*
%TO.P,U16,123,VDDPLL*%
%TO.N,/ADCS module/Microcontroller/MCU_VDDPLL*%
X60650000Y32362000D03*
%TO.P,U16,124,PC22*%
%TO.N,unconnected-(U14-Pad124)*%
X60150000Y32362000D03*
%TO.P,U16,125,PD5*%
%TO.N,/ADCS module/ADCS_TRACED_1*%
X59650000Y32362000D03*
%TO.P,U16,126,PD4*%
%TO.N,/ADCS module/ADCS_TRACED_0*%
X59150000Y32362000D03*
%TO.P,U16,127,PC23*%
%TO.N,/ADCS module/MAG_CS*%
X58650000Y32362000D03*
%TO.P,U16,128,PD3*%
%TO.N,unconnected-(U14-Pad128)*%
X58150000Y32362000D03*
%TO.P,U16,129,PA29*%
%TO.N,unconnected-(U14-Pad129)*%
X57650000Y32362000D03*
%TO.P,U16,130,PC24*%
%TO.N,/ADCS module/MAG_SPCK*%
X57150000Y32362000D03*
%TO.P,U16,131,PD2*%
%TO.N,unconnected-(U14-Pad131)*%
X56650000Y32362000D03*
%TO.P,U16,132,PD1*%
%TO.N,unconnected-(U14-Pad132)*%
X56150000Y32362000D03*
%TO.P,U16,133,PC25*%
%TO.N,unconnected-(U14-Pad133)*%
X55650000Y32362000D03*
%TO.P,U16,134,VDDUTMII*%
%TO.N,/ADCS_VDD*%
X55150000Y32362000D03*
%TO.P,U16,135,GND_5*%
%TO.N,GND*%
X54650000Y32362000D03*
%TO.P,U16,136,HSDM*%
%TO.N,unconnected-(U14-Pad136)*%
X54150000Y32362000D03*
%TO.P,U16,137,HSDP*%
%TO.N,unconnected-(U14-Pad137)*%
X53650000Y32362000D03*
%TO.P,U16,138,GND_6*%
%TO.N,GND*%
X53150000Y32362000D03*
%TO.P,U16,139,VDDUTMIC*%
%TO.N,/ADCS module/Microcontroller/MCU_VDDUTMIC*%
X52650000Y32362000D03*
%TO.P,U16,140,VBG*%
%TO.N,unconnected-(U14-Pad140)*%
X52150000Y32362000D03*
%TO.P,U16,141,PB8*%
%TO.N,GND*%
X51650000Y32362000D03*
%TO.P,U16,142,PB9*%
%TO.N,/ADCS module/Microcontroller/MCU_CLK_IN*%
X51150000Y32362000D03*
%TO.P,U16,143,VDDPLLUSB*%
%TO.N,unconnected-(U14-Pad143)*%
X50650000Y32362000D03*
%TO.P,U16,144,PB13*%
%TO.N,unconnected-(U14-Pad144)*%
X50150000Y32362000D03*
%TD*%
D26*
%TO.P,J23,1,1*%
%TO.N,/ADCS module/RW_FUSE*%
X69800000Y11600000D03*
%TO.P,J23,2,2*%
%TO.N,/ADCS_VDD*%
X71050000Y11600000D03*
%TO.P,J23,3,3*%
%TO.N,/ADCS module/RW_SDA*%
X72300000Y11600000D03*
%TO.P,J23,4,4*%
%TO.N,/ADCS module/RW_SCK*%
X73550000Y11600000D03*
%TO.P,J23,5,5*%
%TO.N,GND*%
X74800000Y11600000D03*
D27*
%TO.P,J23,MP1,MP1*%
%TO.N,unconnected-(J50-PadMP1)*%
X67450000Y8300000D03*
%TO.P,J23,MP2,MP2*%
%TO.N,unconnected-(J50-PadMP2)*%
X77150000Y8300000D03*
%TD*%
D28*
%TO.P,R102,1*%
%TO.N,/ADCS_VDD*%
X60800000Y57510000D03*
%TO.P,R102,2*%
%TO.N,/ADCS module/GYR_CS3*%
X60800000Y56490000D03*
%TD*%
D29*
%TO.P,R115,1*%
%TO.N,/ADCS module/Connectors/OP-AMP_OUT_2*%
X39175000Y43700000D03*
%TO.P,R115,2*%
%TO.N,/ADCS module/PD_OUT_2*%
X40825000Y43700000D03*
%TD*%
D30*
%TO.P,TP38,1,1*%
%TO.N,/ADCS module/GYR_CS2*%
X57300000Y62300000D03*
%TD*%
D31*
%TO.P,C99,1*%
%TO.N,/ADCS module/MAG_FUSE*%
X13255000Y36900000D03*
%TO.P,C99,2*%
%TO.N,GND*%
X12295000Y36900000D03*
%TD*%
D15*
%TO.P,R129,1*%
%TO.N,/ADCS module/Magnetometer/ZINP*%
X15650000Y28140000D03*
%TO.P,R129,2*%
%TO.N,/ADCS module/Magnetometer/ZDRVP*%
X15650000Y29160000D03*
%TD*%
D29*
%TO.P,R89,1*%
%TO.N,/ADCS module/Over-voltage Protection/PROT_UV_LIM*%
X70325000Y75800000D03*
%TO.P,R89,2*%
%TO.N,Net-(R32-Pad2)*%
X71975000Y75800000D03*
%TD*%
D32*
%TO.P,C62,1*%
%TO.N,ADM_PD*%
X30200000Y54975000D03*
%TO.P,C62,2*%
%TO.N,/ADCS module/Connectors/OP-AMP_OUT_6*%
X30200000Y53425000D03*
%TD*%
D33*
%TO.P,C74,1*%
%TO.N,GND*%
X15975000Y58800000D03*
%TO.P,C74,2*%
%TO.N,Net-(C11-Pad2)*%
X14425000Y58800000D03*
%TD*%
D34*
%TO.P,C55,1*%
%TO.N,/ADCS module/Microcontroller/MCU_VDDCORE*%
X56300000Y55320000D03*
%TO.P,C55,2*%
%TO.N,GND*%
X56300000Y56280000D03*
%TD*%
D35*
%TO.P,U19,1,YINP*%
%TO.N,/ADCS module/Magnetometer/YINP*%
X18400000Y26400000D03*
%TO.P,U19,2,YINN*%
%TO.N,/ADCS module/Magnetometer/YINN*%
X18400000Y20600000D03*
%TD*%
D15*
%TO.P,R92,1*%
%TO.N,/ADCS_VDD*%
X76250000Y49240000D03*
%TO.P,R92,2*%
%TO.N,/ADCS_SWDIO*%
X76250000Y50260000D03*
%TD*%
D36*
%TO.P,R107,1*%
%TO.N,/ADCS module/Connectors/PD_CATHODE_5*%
X21975000Y53850000D03*
%TO.P,R107,2*%
%TO.N,/ADCS module/Connectors/OP-AMP_OUT_5*%
X20325000Y53850000D03*
%TD*%
D33*
%TO.P,C60,1*%
%TO.N,/ADCS module/MCU_RTC_IN*%
X46425000Y53438000D03*
%TO.P,C60,2*%
%TO.N,GND*%
X44875000Y53438000D03*
%TD*%
D30*
%TO.P,TP52,1,1*%
%TO.N,/ADCS module/MAG_CS*%
X53500000Y20450000D03*
%TD*%
D36*
%TO.P,R87,1*%
%TO.N,Net-(R28-Pad2)*%
X72375000Y77350000D03*
%TO.P,R87,2*%
%TO.N,/ADCS module/Over-voltage Protection/PROT_UV_LIM*%
X70725000Y77350000D03*
%TD*%
D37*
%TO.P,D2,A*%
%TO.N,Net-(D1-PadA)*%
X41300000Y66175000D03*
%TO.P,D2,C*%
%TO.N,Net-(C4-Pad1)*%
X41300000Y67425000D03*
%TD*%
D32*
%TO.P,C70,1*%
%TO.N,/ADCS module/Connectors/PD_CATHODE_5*%
X14450000Y54275000D03*
%TO.P,C70,2*%
%TO.N,/ADCS module/Connectors/OP-AMP_OUT_5*%
X14450000Y52725000D03*
%TD*%
D15*
%TO.P,R91,1*%
%TO.N,/ADCS_VDD*%
X6200000Y78590000D03*
%TO.P,R91,2*%
%TO.N,/ADCS module/CAN_FAULT_2*%
X6200000Y79610000D03*
%TD*%
D38*
%TO.P,J26,1,1*%
%TO.N,GND*%
X21650000Y9610000D03*
%TO.P,J26,2,2*%
%TO.N,/ADCS module/Connectors/PD_CATHODE_1*%
X20450000Y9610000D03*
D39*
%TO.P,J26,3*%
%TO.N,N/C*%
X22825000Y5860000D03*
%TO.P,J26,4*%
X19275000Y5860000D03*
%TD*%
D40*
%TO.P,C50,1*%
%TO.N,/ADCS module/TEMP_FUSE_1*%
X74750000Y65080000D03*
%TO.P,C50,2*%
%TO.N,GND*%
X74750000Y64120000D03*
%TD*%
D36*
%TO.P,R103,1*%
%TO.N,Net-(R29-Pad2)*%
X71975000Y72700000D03*
%TO.P,R103,2*%
%TO.N,/ADCS module/Over-voltage Protection/PROT_OV_LIM*%
X70325000Y72700000D03*
%TD*%
D33*
%TO.P,C91,1*%
%TO.N,/ADCS module/Microcontroller/MCU_VDDCORE*%
X46375000Y33750000D03*
%TO.P,C91,2*%
%TO.N,GND*%
X44825000Y33750000D03*
%TD*%
%TO.P,C97,1*%
%TO.N,/ADCS module/MAG_FUSE*%
X13625000Y38150000D03*
%TO.P,C97,2*%
%TO.N,GND*%
X12075000Y38150000D03*
%TD*%
D41*
%TO.P,J20,1,1*%
%TO.N,GND*%
X80368000Y49870000D03*
%TO.P,J20,2,2*%
%TO.N,/ADCS_SWCLK*%
X82832000Y48600000D03*
%TO.P,J20,3,3*%
%TO.N,/ADCS_SWDIO*%
X80368000Y47330000D03*
%TD*%
D42*
%TO.P,U10,1,TXD*%
%TO.N,/ADCS module/CAN_TX_2*%
X11405000Y75589000D03*
%TO.P,U10,2,GND*%
%TO.N,GND*%
X10135000Y75589000D03*
%TO.P,U10,3,VCC*%
%TO.N,/ADCS module/CAN_TRX_FUSE_2*%
X8865000Y75589000D03*
%TO.P,U10,4,RXD*%
%TO.N,/ADCS module/CAN_RX_2*%
X7595000Y75589000D03*
%TO.P,U10,5,FAULT*%
%TO.N,/ADCS module/CAN_FAULT_2*%
X7595000Y81011000D03*
%TO.P,U10,6,CANL*%
%TO.N,CAN2-*%
X8865000Y81011000D03*
%TO.P,U10,7,CANH*%
%TO.N,CAN2+*%
X10135000Y81011000D03*
%TO.P,U10,8,S*%
%TO.N,/ADCS module/CAN_SILENT_2*%
X11405000Y81011000D03*
%TD*%
D43*
%TO.P,C66,1*%
%TO.N,/ADCS module/GYRO_FUSE_3*%
X30525000Y61400000D03*
%TO.P,C66,2*%
%TO.N,GND*%
X32075000Y61400000D03*
%TD*%
D30*
%TO.P,TP43,1,1*%
%TO.N,/ADCS module/GYRO_FUSE_1*%
X8400000Y59800000D03*
%TD*%
D44*
%TO.P,C67,1*%
%TO.N,Net-(C4-Pad1)*%
X38720000Y70500000D03*
%TO.P,C67,2*%
%TO.N,GND*%
X39680000Y70500000D03*
%TD*%
D33*
%TO.P,C87,1*%
%TO.N,/ADCS module/PD_OUT_3*%
X38475000Y38100000D03*
%TO.P,C87,2*%
%TO.N,GND*%
X36925000Y38100000D03*
%TD*%
D45*
%TO.P,U13,1,SDA*%
%TO.N,/ADCS module/I2C_SDA_SENS*%
X67000000Y64075000D03*
%TO.P,U13,2,SCL*%
%TO.N,/ADCS module/I2C_SCK_SENS*%
X67000000Y63425000D03*
%TO.P,U13,3,ALERT*%
%TO.N,unconnected-(U13-Pad3)*%
X67000000Y62775000D03*
%TO.P,U13,4,GND*%
%TO.N,GND*%
X67000000Y62125000D03*
%TO.P,U13,5,A2*%
X62600000Y62125000D03*
%TO.P,U13,6,A1*%
X62600000Y62775000D03*
%TO.P,U13,7,A0*%
%TO.N,/ADCS module/TEMP_FUSE_2*%
X62600000Y63425000D03*
%TO.P,U13,8,VDD*%
X62600000Y64075000D03*
%TD*%
D46*
%TO.P,U8,1,VIN*%
%TO.N,/ADCS module/Over-voltage Protection/3V3_OC_PROT*%
X66825000Y77212500D03*
%TO.P,U8,2,UV*%
%TO.N,/ADCS module/Over-voltage Protection/PROT_UV_LIM*%
X67475000Y77212500D03*
%TO.P,U8,3,OV*%
%TO.N,/ADCS module/Over-voltage Protection/PROT_OV_LIM*%
X68125000Y77212500D03*
%TO.P,U8,4,GND*%
%TO.N,GND*%
X68775000Y77212500D03*
%TO.P,U8,5,~{SHDN}*%
%TO.N,Net-(R34-Pad1)*%
X68775000Y72987500D03*
%TO.P,U8,6,~{FAULT}*%
%TO.N,unconnected-(U15-Pad6)*%
X68125000Y72987500D03*
%TO.P,U8,7,VOUT*%
%TO.N,/ADCS_VDD*%
X67475000Y72987500D03*
%TO.P,U8,8,GATE*%
%TO.N,Net-(Q2-Pad4)*%
X66825000Y72987500D03*
%TD*%
D40*
%TO.P,C79,1*%
%TO.N,/ADCS module/Microcontroller/MCU_VDDPLL*%
X60625000Y30880000D03*
%TO.P,C79,2*%
%TO.N,GND*%
X60625000Y29920000D03*
%TD*%
D30*
%TO.P,TP37,1,1*%
%TO.N,/ADCS module/GYRO_FUSE_2*%
X58600000Y70700000D03*
%TD*%
D47*
%TO.P,C57,1*%
%TO.N,/ADCS module/MCU_RTC_OUT*%
X48300000Y55575000D03*
%TO.P,C57,2*%
%TO.N,GND*%
X48300000Y57125000D03*
%TD*%
D23*
%TO.P,R124,1*%
%TO.N,/ADCS module/Connectors/OP-AMP_OUT_4*%
X19400000Y46775000D03*
%TO.P,R124,2*%
%TO.N,/ADCS module/PD_OUT_4*%
X19400000Y48425000D03*
%TD*%
D34*
%TO.P,C81,1*%
%TO.N,/ADCS_VDD*%
X71150000Y40020000D03*
%TO.P,C81,2*%
%TO.N,GND*%
X71150000Y40980000D03*
%TD*%
D44*
%TO.P,C52,1*%
%TO.N,/ADCS module/TEMP_FUSE_2*%
X63120000Y65400000D03*
%TO.P,C52,2*%
%TO.N,GND*%
X64080000Y65400000D03*
%TD*%
D40*
%TO.P,C85,1*%
%TO.N,/ADCS module/Microcontroller/MCU_AD_REF_POS*%
X46400000Y39180000D03*
%TO.P,C85,2*%
%TO.N,GND*%
X46400000Y38220000D03*
%TD*%
D48*
%TO.P,R94,1*%
%TO.N,/ADCS_VDD*%
X64210000Y57100000D03*
%TO.P,R94,2*%
%TO.N,/ADCS module/GYR_CS2*%
X63190000Y57100000D03*
%TD*%
D30*
%TO.P,TP33,1,1*%
%TO.N,/ADCS module/CAN_TRX_FUSE_1*%
X35200000Y78600000D03*
%TD*%
D32*
%TO.P,C86,1*%
%TO.N,/ADCS_VDD*%
X44750000Y37775000D03*
%TO.P,C86,2*%
%TO.N,GND*%
X44750000Y36225000D03*
%TD*%
D49*
%TO.P,D1,A*%
%TO.N,Net-(D2-PadA)*%
X50425000Y75200000D03*
%TO.P,D1,C*%
%TO.N,Net-(C8-Pad1)*%
X49175000Y75200000D03*
%TD*%
D36*
%TO.P,R116,1*%
%TO.N,/ADCS module/Connectors/PD_CATHODE_1*%
X29425000Y36350000D03*
%TO.P,R116,2*%
%TO.N,/ADCS module/Connectors/OP-AMP_OUT_1*%
X27775000Y36350000D03*
%TD*%
D44*
%TO.P,C75,1*%
%TO.N,/ADCS module/CAN_TRX_FUSE_2*%
X9020000Y74050000D03*
%TO.P,C75,2*%
%TO.N,GND*%
X9980000Y74050000D03*
%TD*%
D47*
%TO.P,C95,1*%
%TO.N,/ADCS module/Connectors/PD_CATHODE_2*%
X36100000Y43075000D03*
%TO.P,C95,2*%
%TO.N,/ADCS module/Connectors/OP-AMP_OUT_2*%
X36100000Y44625000D03*
%TD*%
D37*
%TO.P,D3,A*%
%TO.N,Net-(D3-PadA)*%
X12000000Y69075000D03*
%TO.P,D3,C*%
%TO.N,Net-(C14-Pad1)*%
X12000000Y70325000D03*
%TD*%
D50*
%TO.P,F12,1*%
%TO.N,/ADCS_VDD*%
X11200000Y60810000D03*
%TO.P,F12,2*%
%TO.N,/ADCS module/GYRO_FUSE_1*%
X11200000Y62390000D03*
%TD*%
D29*
%TO.P,R93,1*%
%TO.N,GND*%
X70325000Y71150000D03*
%TO.P,R93,2*%
%TO.N,Net-(R27-Pad2)*%
X71975000Y71150000D03*
%TD*%
D15*
%TO.P,R109,1*%
%TO.N,/ADCS_VDD*%
X73400000Y41140000D03*
%TO.P,R109,2*%
%TO.N,/I2C_MTQ_SDA*%
X73400000Y42160000D03*
%TD*%
D43*
%TO.P,C93,1*%
%TO.N,/ADCS module/Connectors/PD_CATHODE_3*%
X33925000Y35500000D03*
%TO.P,C93,2*%
%TO.N,/ADCS module/Connectors/OP-AMP_OUT_3*%
X35475000Y35500000D03*
%TD*%
D47*
%TO.P,C102,1*%
%TO.N,AC_GND_2*%
X86600000Y11125000D03*
%TO.P,C102,2*%
%TO.N,GND*%
X86600000Y12675000D03*
%TD*%
D51*
%TO.P,FID6,*%
%TO.N,*%
X2300000Y2300000D03*
%TD*%
D47*
%TO.P,C72,1*%
%TO.N,/ADCS module/GYRO_FUSE_1*%
X12350000Y66215000D03*
%TO.P,C72,2*%
%TO.N,GND*%
X12350000Y67765000D03*
%TD*%
D44*
%TO.P,C77,1*%
%TO.N,/ADCS module/Microcontroller/MCU_VDDCORE*%
X71170000Y34650000D03*
%TO.P,C77,2*%
%TO.N,GND*%
X72130000Y34650000D03*
%TD*%
D52*
%TO.P,Y3,1,CRYSTAL_1*%
%TO.N,/ADCS module/MCU_RTC_IN*%
X43350000Y56800000D03*
%TO.P,Y3,2,CRYSTAL_2*%
%TO.N,/ADCS module/MCU_RTC_OUT*%
X45850000Y56800000D03*
%TD*%
D47*
%TO.P,C51,1*%
%TO.N,/ADCS module/GYRO_FUSE_2*%
X53800000Y65625000D03*
%TO.P,C51,2*%
%TO.N,GND*%
X53800000Y67175000D03*
%TD*%
%TO.P,C48,1*%
%TO.N,/ADCS module/CAN_TRX_FUSE_1*%
X33900000Y74925000D03*
%TO.P,C48,2*%
%TO.N,GND*%
X33900000Y76475000D03*
%TD*%
D43*
%TO.P,C56,1*%
%TO.N,GND*%
X29325000Y69400000D03*
%TO.P,C56,2*%
%TO.N,Net-(C5-Pad2)*%
X30875000Y69400000D03*
%TD*%
D53*
%TO.P,TP50,1*%
%TO.N,/ADCS module/MAG_MISO*%
X4400000Y35800000D03*
%TD*%
D30*
%TO.P,TP45,1,1*%
%TO.N,/ADCS module/USR_GPIO*%
X74400000Y32200000D03*
%TD*%
D40*
%TO.P,C89,1*%
%TO.N,GND*%
X47350000Y28330000D03*
%TO.P,C89,2*%
%TO.N,/ADCS_VDD*%
X47350000Y27370000D03*
%TD*%
D31*
%TO.P,C90,1*%
%TO.N,/ADCS_VDD*%
X45940000Y48810000D03*
%TO.P,C90,2*%
%TO.N,GND*%
X44980000Y48810000D03*
%TD*%
D54*
%TO.P,L2,1,1*%
%TO.N,Net-(D1-PadA)*%
X40050000Y63150000D03*
%TO.P,L2,2,2*%
%TO.N,/ADCS module/GYRO_FUSE_3*%
X42850000Y63150000D03*
%TD*%
D55*
%TO.P,F8,1*%
%TO.N,/ADCS_VDD*%
X77590000Y64450000D03*
%TO.P,F8,2*%
%TO.N,/ADCS module/TEMP_FUSE_1*%
X76010000Y64450000D03*
%TD*%
D56*
%TO.P,F13,1*%
%TO.N,/ADCS_VDD*%
X7260000Y71200000D03*
%TO.P,F13,2*%
%TO.N,/ADCS module/CAN_TRX_FUSE_2*%
X8840000Y71200000D03*
%TD*%
D44*
%TO.P,C76,1*%
%TO.N,/ADCS module/Microcontroller/MCU_VDDUTMIC*%
X52670000Y30825000D03*
%TO.P,C76,2*%
%TO.N,GND*%
X53630000Y30825000D03*
%TD*%
D57*
%TO.P,U11,1,SDA*%
%TO.N,/ADCS module/I2C_SDA_SENS*%
X73425000Y60450000D03*
%TO.P,U11,2,SCL*%
%TO.N,/ADCS module/I2C_SCK_SENS*%
X72775000Y60450000D03*
%TO.P,U11,3,ALERT*%
%TO.N,unconnected-(U12-Pad3)*%
X72125000Y60450000D03*
%TO.P,U11,4,GND*%
%TO.N,GND*%
X71475000Y60450000D03*
%TO.P,U11,5,A2*%
X71475000Y64850000D03*
%TO.P,U11,6,A1*%
X72125000Y64850000D03*
%TO.P,U11,7,A0*%
X72775000Y64850000D03*
%TO.P,U11,8,VDD*%
%TO.N,/ADCS module/TEMP_FUSE_1*%
X73425000Y64850000D03*
%TD*%
D20*
%TO.P,TP48,1*%
%TO.N,/ADCS module/MAG_SPCK*%
X27500000Y26000000D03*
%TD*%
D22*
%TO.P,R108,1*%
%TO.N,/ADCS module/Connectors/OP-AMP_OUT_5*%
X17900000Y51875000D03*
%TO.P,R108,2*%
%TO.N,/ADCS module/PD_OUT_5*%
X17900000Y50225000D03*
%TD*%
D44*
%TO.P,C69,1*%
%TO.N,Net-(C14-Pad1)*%
X21470000Y70950000D03*
%TO.P,C69,2*%
%TO.N,GND*%
X22430000Y70950000D03*
%TD*%
D33*
%TO.P,C92,1*%
%TO.N,/ADCS module/PD_OUT_2*%
X40775000Y45300000D03*
%TO.P,C92,2*%
%TO.N,GND*%
X39225000Y45300000D03*
%TD*%
D28*
%TO.P,R97,1*%
%TO.N,/ADCS_VDD*%
X65700000Y58310000D03*
%TO.P,R97,2*%
%TO.N,/ADCS module/GYR_MISO*%
X65700000Y57290000D03*
%TD*%
D44*
%TO.P,C53,1*%
%TO.N,/ADCS_VDD*%
X52870000Y55350000D03*
%TO.P,C53,2*%
%TO.N,GND*%
X53830000Y55350000D03*
%TD*%
D47*
%TO.P,C58,1*%
%TO.N,Net-(C13-Pad1)*%
X25990000Y64085000D03*
%TO.P,C58,2*%
%TO.N,GND*%
X25990000Y65635000D03*
%TD*%
D53*
%TO.P,TP34,1*%
%TO.N,/ADCS module/GYR_SPCK*%
X39000000Y78900000D03*
%TD*%
D15*
%TO.P,R96,1*%
%TO.N,/I2C_MTQ_SCK*%
X72200000Y51390000D03*
%TO.P,R96,2*%
%TO.N,/ADCS_VDD*%
X72200000Y52410000D03*
%TD*%
D48*
%TO.P,R126,1*%
%TO.N,/ADCS module/Magnetometer/ZINN*%
X14710000Y27900000D03*
%TO.P,R126,2*%
%TO.N,/ADCS module/Magnetometer/ZDRVN*%
X13690000Y27900000D03*
%TD*%
D58*
%TO.P,U14,1,AVss*%
%TO.N,GND*%
X30600000Y67000000D03*
D59*
%TO.P,U14,2,AVDD*%
%TO.N,Net-(C5-Pad2)*%
X32100000Y67000000D03*
D60*
%TO.P,U14,3,MISO*%
%TO.N,/ADCS module/GYR_MISO*%
X33100000Y67000000D03*
%TO.P,U14,4,DVDD*%
%TO.N,Net-(C3-Pad1)*%
X33900000Y67000000D03*
%TO.P,U14,5,SCLK*%
%TO.N,/ADCS module/GYR_SPCK*%
X34700000Y67000000D03*
D59*
%TO.P,U14,6,CP5*%
%TO.N,Net-(C4-Pad1)*%
X35700000Y67000000D03*
D58*
%TO.P,U14,7,RSVD*%
%TO.N,GND*%
X37200000Y67000000D03*
%TO.P,U14,8,RSVD*%
X37200000Y64000000D03*
D59*
%TO.P,U14,9,Vx*%
%TO.N,Net-(D1-PadA)*%
X35700000Y64000000D03*
D60*
%TO.P,U14,10,~{CS}*%
%TO.N,/ADCS module/GYR_CS3*%
X34700000Y64000000D03*
%TO.P,U14,11,DVss*%
%TO.N,GND*%
X33900000Y64000000D03*
%TO.P,U14,12,MOSI*%
%TO.N,/ADCS module/GYR_MOSI*%
X33100000Y64000000D03*
D59*
%TO.P,U14,13,Pss*%
%TO.N,GND*%
X32100000Y64000000D03*
D58*
%TO.P,U14,14,PDD*%
%TO.N,/ADCS module/GYRO_FUSE_3*%
X30600000Y64000000D03*
%TD*%
D53*
%TO.P,TP32,1*%
%TO.N,/ADCS module/GYR_MISO*%
X44000000Y78800000D03*
%TD*%
D47*
%TO.P,C101,1*%
%TO.N,AC_GND_2*%
X85100000Y11125000D03*
%TO.P,C101,2*%
%TO.N,GND*%
X85100000Y12675000D03*
%TD*%
D50*
%TO.P,F9,1*%
%TO.N,/ADCS_VDD*%
X61850000Y67240000D03*
%TO.P,F9,2*%
%TO.N,/ADCS module/TEMP_FUSE_2*%
X61850000Y65660000D03*
%TD*%
D23*
%TO.P,R95,1*%
%TO.N,Net-(R27-Pad2)*%
X73450000Y71775000D03*
%TO.P,R95,2*%
%TO.N,Net-(R29-Pad2)*%
X73450000Y73425000D03*
%TD*%
D61*
%TO.P,L3,1,1*%
%TO.N,Net-(D3-PadA)*%
X8750000Y65450000D03*
%TO.P,L3,2,2*%
%TO.N,/ADCS module/GYRO_FUSE_1*%
X8750000Y62650000D03*
%TD*%
D23*
%TO.P,R123,1*%
%TO.N,/ADCS module/Connectors/OP-AMP_OUT_1*%
X23050000Y37525000D03*
%TO.P,R123,2*%
%TO.N,/ADCS module/PD_OUT_1*%
X23050000Y39175000D03*
%TD*%
D62*
%TO.P,U17,1,MOSI*%
%TO.N,/ADCS module/MAG_MOSI*%
X14137500Y32300000D03*
%TO.P,U17,2,RES*%
%TO.N,GND*%
X14137500Y31900000D03*
%TO.P,U17,3,SSN*%
%TO.N,/ADCS module/MAG_CS*%
X14137500Y31500000D03*
%TO.P,U17,4,AVDD*%
%TO.N,/ADCS module/MAG_FUSE*%
X14137500Y31100000D03*
%TO.P,U17,5,AVSS*%
%TO.N,GND*%
X14137500Y30700000D03*
%TO.P,U17,6,ZDRVP*%
%TO.N,/ADCS module/Magnetometer/ZDRVP*%
X14137500Y30300000D03*
%TO.P,U17,7,ZINP*%
%TO.N,/ADCS module/Magnetometer/ZINP*%
X14137500Y29900000D03*
D63*
%TO.P,U17,8,ZINN*%
%TO.N,/ADCS module/Magnetometer/ZINN*%
X13400000Y29162500D03*
%TO.P,U17,9,ZDRVN*%
%TO.N,/ADCS module/Magnetometer/ZDRVN*%
X13000000Y29162500D03*
%TO.P,U17,10,YDRVP*%
%TO.N,/ADCS module/Magnetometer/YDRVP*%
X12600000Y29162500D03*
%TO.P,U17,11,YINP*%
%TO.N,/ADCS module/Magnetometer/YINP*%
X12200000Y29162500D03*
%TO.P,U17,12,YINN*%
%TO.N,/ADCS module/Magnetometer/YINN*%
X11800000Y29162500D03*
%TO.P,U17,13,YDRVN*%
%TO.N,/ADCS module/Magnetometer/YDRVN*%
X11400000Y29162500D03*
%TO.P,U17,14,DVDD*%
%TO.N,/ADCS module/MAG_FUSE*%
X11000000Y29162500D03*
D62*
%TO.P,U17,15,XDRVP*%
%TO.N,/ADCS module/Magnetometer/XDRVP*%
X10262500Y29900000D03*
%TO.P,U17,16,XINP*%
%TO.N,/ADCS module/Magnetometer/XINP*%
X10262500Y30300000D03*
%TO.P,U17,17,XINN*%
%TO.N,/ADCS module/Magnetometer/XINN*%
X10262500Y30700000D03*
%TO.P,U17,18,XDRVN*%
%TO.N,/ADCS module/Magnetometer/XDRVN*%
X10262500Y31100000D03*
%TO.P,U17,19,DVSS*%
%TO.N,GND*%
X10262500Y31500000D03*
%TO.P,U17,20,RES*%
X10262500Y31900000D03*
%TO.P,U17,21,NC*%
%TO.N,unconnected-(U4-Pad21)*%
X10262500Y32300000D03*
D63*
%TO.P,U17,22,I2C*%
%TO.N,GND*%
X11000000Y33037500D03*
%TO.P,U17,23,DRDY*%
%TO.N,/ADCS module/MAG_DRDY*%
X11400000Y33037500D03*
%TO.P,U17,24,NC*%
%TO.N,unconnected-(U4-Pad24)*%
X11800000Y33037500D03*
%TO.P,U17,25,REXT*%
%TO.N,Net-(R7-Pad2)*%
X12200000Y33037500D03*
%TO.P,U17,26,DVDD*%
%TO.N,/ADCS module/MAG_FUSE*%
X12600000Y33037500D03*
%TO.P,U17,27,SCLK*%
%TO.N,/ADCS module/MAG_SPCK*%
X13000000Y33037500D03*
%TO.P,U17,28,MISO*%
%TO.N,/ADCS module/MAG_MISO*%
X13400000Y33037500D03*
D64*
%TO.P,U17,29*%
%TO.N,N/C*%
X12200000Y31100000D03*
%TD*%
D30*
%TO.P,TP46,1,1*%
%TO.N,/ADCS module/USR_GPIO_PWM*%
X74400000Y29900000D03*
%TD*%
D40*
%TO.P,C82,1*%
%TO.N,/ADCS module/Microcontroller/MCU_VDDCORE*%
X71150000Y46880000D03*
%TO.P,C82,2*%
%TO.N,GND*%
X71150000Y45920000D03*
%TD*%
D65*
%TO.P,J21,1,1*%
%TO.N,GND*%
X9610000Y47300000D03*
%TO.P,J21,2,2*%
%TO.N,/ADCS module/Connectors/PD_CATHODE_4*%
X9610000Y48500000D03*
D66*
%TO.P,J21,3*%
%TO.N,N/C*%
X5860000Y46125000D03*
%TO.P,J21,4*%
X5860000Y49675000D03*
%TD*%
D43*
%TO.P,C71,1*%
%TO.N,/ADCS module/CAN_TRX_FUSE_2*%
X8725000Y72800000D03*
%TO.P,C71,2*%
%TO.N,GND*%
X10275000Y72800000D03*
%TD*%
D28*
%TO.P,R127,1*%
%TO.N,/ADCS module/Magnetometer/XINP*%
X8100000Y29910000D03*
%TO.P,R127,2*%
%TO.N,/ADCS module/Magnetometer/XDRVP*%
X8100000Y28890000D03*
%TD*%
D67*
%TO.P,FL4,1*%
%TO.N,/ADCS module/Microcontroller/MCU_VDDCORE*%
X61900000Y28325000D03*
%TO.P,FL4,2*%
%TO.N,/ADCS module/Microcontroller/MCU_VDDPLL*%
X61900000Y29675000D03*
%TD*%
D68*
%TO.P,R128,1*%
%TO.N,/ADCS module/Magnetometer/YINP*%
X11790000Y27350000D03*
%TO.P,R128,2*%
%TO.N,/ADCS module/Magnetometer/YDRVP*%
X12810000Y27350000D03*
%TD*%
D69*
%TO.P,FL6,1*%
%TO.N,/ADCS_VDD*%
X43725000Y40000000D03*
%TO.P,FL6,2*%
%TO.N,/ADCS module/Microcontroller/MCU_AD_REF_POS*%
X45075000Y40000000D03*
%TD*%
D29*
%TO.P,R118,1*%
%TO.N,/ADCS module/Connectors/OP-AMP_OUT_3*%
X36975000Y40000000D03*
%TO.P,R118,2*%
%TO.N,/ADCS module/PD_OUT_3*%
X38625000Y40000000D03*
%TD*%
D56*
%TO.P,F7,1*%
%TO.N,/ADCS_VDD*%
X36990000Y75000000D03*
%TO.P,F7,2*%
%TO.N,/ADCS module/CAN_TRX_FUSE_1*%
X35410000Y75000000D03*
%TD*%
D38*
%TO.P,J25,1,1*%
%TO.N,GND*%
X35138500Y9624825D03*
%TO.P,J25,2,2*%
%TO.N,/ADCS module/Connectors/PD_CATHODE_3*%
X33938500Y9624825D03*
D39*
%TO.P,J25,3*%
%TO.N,N/C*%
X36313500Y5874825D03*
%TO.P,J25,4*%
X32763500Y5874825D03*
%TD*%
D31*
%TO.P,C80,1*%
%TO.N,/ADCS_VDD*%
X55580000Y30800000D03*
%TO.P,C80,2*%
%TO.N,GND*%
X54620000Y30800000D03*
%TD*%
D70*
%TO.P,F6,1*%
%TO.N,/EPS_3V3_ADCS*%
X73300000Y80250000D03*
%TO.P,F6,2*%
%TO.N,/ADCS module/Over-voltage Protection/3V3_OC_PROT*%
X71100000Y80250000D03*
%TD*%
D65*
%TO.P,J22,1,1*%
%TO.N,GND*%
X9610000Y42550000D03*
%TO.P,J22,2,2*%
%TO.N,/ADCS module/Connectors/PD_CATHODE_2*%
X9610000Y43750000D03*
D66*
%TO.P,J22,3*%
%TO.N,N/C*%
X5860000Y41375000D03*
%TO.P,J22,4*%
X5860000Y44925000D03*
%TD*%
D20*
%TO.P,TP44,1*%
%TO.N,/ADCS module/CAN_TX_2*%
X14400000Y73900000D03*
%TD*%
D65*
%TO.P,J19,1,1*%
%TO.N,GND*%
X7460000Y53300000D03*
%TO.P,J19,2,2*%
%TO.N,/ADCS module/Connectors/PD_CATHODE_5*%
X7460000Y54500000D03*
D66*
%TO.P,J19,3*%
%TO.N,N/C*%
X3710000Y52125000D03*
%TO.P,J19,4*%
X3710000Y55675000D03*
%TD*%
D33*
%TO.P,C61,1*%
%TO.N,Net-(C7-Pad1)*%
X44775000Y69200000D03*
%TO.P,C61,2*%
%TO.N,GND*%
X43225000Y69200000D03*
%TD*%
D68*
%TO.P,R105,1*%
%TO.N,/ADCS_VDD*%
X24990000Y72500000D03*
%TO.P,R105,2*%
%TO.N,/ADCS module/CAN_FAULT_1*%
X26010000Y72500000D03*
%TD*%
D28*
%TO.P,R98,1*%
%TO.N,/ADCS_VDD*%
X54800000Y56410000D03*
%TO.P,R98,2*%
%TO.N,/ADCS module/I2C_SDA_SENS*%
X54800000Y55390000D03*
%TD*%
D30*
%TO.P,TP51,1,1*%
%TO.N,/ADCS module/RW_FUSE*%
X80200000Y18300000D03*
%TD*%
D71*
%TO.P,IC8,1,1OUT*%
%TO.N,unconnected-(IC10-Pad1)*%
X26890000Y44462000D03*
%TO.P,IC8,2,1IN-*%
%TO.N,unconnected-(IC10-Pad2)*%
X28160000Y44462000D03*
%TO.P,IC8,3,1IN+*%
%TO.N,unconnected-(IC10-Pad3)*%
X29430000Y44462000D03*
%TO.P,IC8,4,VDD+*%
%TO.N,/ADCS_VDD*%
X30700000Y44462000D03*
%TO.P,IC8,5,2IN+*%
%TO.N,GND*%
X31970000Y44462000D03*
%TO.P,IC8,6,2IN-*%
%TO.N,/ADCS module/Connectors/PD_CATHODE_2*%
X33240000Y44462000D03*
%TO.P,IC8,7,2OUT*%
%TO.N,/ADCS module/Connectors/OP-AMP_OUT_2*%
X34510000Y44462000D03*
%TO.P,IC8,8,3OUT*%
%TO.N,/ADCS module/Connectors/OP-AMP_OUT_3*%
X34510000Y39038000D03*
%TO.P,IC8,9,3IN-*%
%TO.N,/ADCS module/Connectors/PD_CATHODE_3*%
X33240000Y39038000D03*
%TO.P,IC8,10,3IN+*%
%TO.N,GND*%
X31970000Y39038000D03*
%TO.P,IC8,11,VDD-/GND*%
X30700000Y39038000D03*
%TO.P,IC8,12,4IN+*%
X29430000Y39038000D03*
%TO.P,IC8,13,4IN-*%
%TO.N,/ADCS module/Connectors/PD_CATHODE_1*%
X28160000Y39038000D03*
%TO.P,IC8,14,4OUT*%
%TO.N,/ADCS module/Connectors/OP-AMP_OUT_1*%
X26890000Y39038000D03*
%TD*%
D15*
%TO.P,R99,1*%
%TO.N,/ADCS_VDD*%
X69150000Y57590000D03*
%TO.P,R99,2*%
%TO.N,/ADCS module/I2C_SCK_SENS*%
X69150000Y58610000D03*
%TD*%
D29*
%TO.P,R100,1*%
%TO.N,/ADCS module/Over-voltage Protection/PROT_OV_LIM*%
X70325000Y74250000D03*
%TO.P,R100,2*%
%TO.N,Net-(R32-Pad2)*%
X71975000Y74250000D03*
%TD*%
D22*
%TO.P,R90,1*%
%TO.N,/ADCS module/Over-voltage Protection/3V3_OC_PROT*%
X73800000Y77725000D03*
%TO.P,R90,2*%
%TO.N,Net-(R28-Pad2)*%
X73800000Y76075000D03*
%TD*%
D72*
%TO.P,U15,1,DVDD*%
%TO.N,Net-(C11-Pad2)*%
X14405000Y60555000D03*
%TO.P,U15,2,RSVD_1*%
%TO.N,GND*%
X14405000Y61825000D03*
%TO.P,U15,3,RSVD_2*%
X14405000Y63095000D03*
%TO.P,U15,4,~{CS}*%
%TO.N,/ADCS module/GYR_CS1*%
X14405000Y64365000D03*
%TO.P,U15,5,MISO*%
%TO.N,/ADCS module/GYR_MISO*%
X14405000Y65635000D03*
%TO.P,U15,6,PDD*%
%TO.N,/ADCS module/GYRO_FUSE_1*%
X14405000Y66905000D03*
%TO.P,U15,7,PSS*%
%TO.N,GND*%
X14405000Y68175000D03*
%TO.P,U15,8,VX*%
%TO.N,Net-(D3-PadA)*%
X14405000Y69445000D03*
%TO.P,U15,9,CP5*%
%TO.N,Net-(C14-Pad1)*%
X24055000Y69445000D03*
%TO.P,U15,10,RSVD_3*%
%TO.N,GND*%
X24055000Y68175000D03*
%TO.P,U15,11,AVSS*%
X24055000Y66905000D03*
%TO.P,U15,12,RSVD_4*%
X24055000Y65635000D03*
%TO.P,U15,13,DVSS*%
X24055000Y64365000D03*
%TO.P,U15,14,AVDD*%
%TO.N,Net-(C13-Pad1)*%
X24055000Y63095000D03*
%TO.P,U15,15,MOSI*%
%TO.N,/ADCS module/GYR_MOSI*%
X24055000Y61825000D03*
%TO.P,U15,16,SCLK*%
%TO.N,/ADCS module/GYR_SPCK*%
X24055000Y60555000D03*
%TD*%
D31*
%TO.P,C63,1*%
%TO.N,/ADCS module/Microcontroller/MCU_VDDCORE*%
X46680000Y50550000D03*
%TO.P,C63,2*%
%TO.N,GND*%
X45720000Y50550000D03*
%TD*%
D28*
%TO.P,R101,1*%
%TO.N,/ADCS_VDD*%
X59700000Y57510000D03*
%TO.P,R101,2*%
%TO.N,/ADCS module/GYR_CS1*%
X59700000Y56490000D03*
%TD*%
D23*
%TO.P,R114,1*%
%TO.N,/ADCS module/Connectors/PD_CATHODE_2*%
X37650000Y43475000D03*
%TO.P,R114,2*%
%TO.N,/ADCS module/Connectors/OP-AMP_OUT_2*%
X37650000Y45125000D03*
%TD*%
D73*
%TO.P,U18,1,ZINP*%
%TO.N,/ADCS module/Magnetometer/ZINP*%
X14600000Y24300000D03*
%TO.P,U18,2,ZINN*%
%TO.N,/ADCS module/Magnetometer/ZINN*%
X11800000Y24300000D03*
%TD*%
D20*
%TO.P,TP47,1*%
%TO.N,/ADCS module/MAG_MOSI*%
X31950000Y26650000D03*
%TD*%
D48*
%TO.P,R110,1*%
%TO.N,/ADCS_VDD*%
X73460000Y44200000D03*
%TO.P,R110,2*%
%TO.N,/ADCS_SWCLK*%
X72440000Y44200000D03*
%TD*%
D22*
%TO.P,R112,1*%
%TO.N,/ADCS module/RW_SCK*%
X68800000Y30625000D03*
%TO.P,R112,2*%
%TO.N,/ADCS_VDD*%
X68800000Y28975000D03*
%TD*%
D12*
%TO.P,J18,1,Pin_1*%
%TO.N,/ADCS_VDD*%
X9300000Y51200000D03*
%TD*%
D40*
%TO.P,C88,1*%
%TO.N,/ADCS_VDD*%
X46450000Y36910000D03*
%TO.P,C88,2*%
%TO.N,GND*%
X46450000Y35950000D03*
%TD*%
D31*
%TO.P,C64,1*%
%TO.N,Net-(C8-Pad1)*%
X45580000Y72600000D03*
%TO.P,C64,2*%
%TO.N,GND*%
X44620000Y72600000D03*
%TD*%
D51*
%TO.P,FID4,*%
%TO.N,*%
X87800000Y93800000D03*
%TD*%
D29*
%TO.P,R106,1*%
%TO.N,/ADCS module/Connectors/OP-AMP_OUT_6*%
X30175000Y51900000D03*
%TO.P,R106,2*%
%TO.N,/ADCS module/PD_OUT_6*%
X31825000Y51900000D03*
%TD*%
D30*
%TO.P,TP41,1,1*%
%TO.N,/ADCS module/GYR_CS3*%
X35500000Y53500000D03*
%TD*%
D32*
%TO.P,C65,1*%
%TO.N,/ADCS module/PD_OUT_6*%
X33300000Y51925000D03*
%TO.P,C65,2*%
%TO.N,GND*%
X33300000Y50375000D03*
%TD*%
D74*
%TO.P,U12,1,AVss*%
%TO.N,GND*%
X47700000Y65700000D03*
D75*
%TO.P,U12,2,AVDD*%
%TO.N,Net-(C9-Pad2)*%
X47700000Y67200000D03*
D76*
%TO.P,U12,3,MISO*%
%TO.N,/ADCS module/GYR_MISO*%
X47700000Y68200000D03*
%TO.P,U12,4,DVDD*%
%TO.N,Net-(C7-Pad1)*%
X47700000Y69000000D03*
%TO.P,U12,5,SCLK*%
%TO.N,/ADCS module/GYR_SPCK*%
X47700000Y69800000D03*
D75*
%TO.P,U12,6,CP5*%
%TO.N,Net-(C8-Pad1)*%
X47700000Y70800000D03*
D74*
%TO.P,U12,7,RSVD*%
%TO.N,GND*%
X47700000Y72300000D03*
%TO.P,U12,8,RSVD*%
X50700000Y72300000D03*
D75*
%TO.P,U12,9,Vx*%
%TO.N,Net-(D2-PadA)*%
X50700000Y70800000D03*
D76*
%TO.P,U12,10,~{CS}*%
%TO.N,/ADCS module/GYR_CS2*%
X50700000Y69800000D03*
%TO.P,U12,11,DVss*%
%TO.N,GND*%
X50700000Y69000000D03*
%TO.P,U12,12,MOSI*%
%TO.N,/ADCS module/GYR_MOSI*%
X50700000Y68200000D03*
D75*
%TO.P,U12,13,Pss*%
%TO.N,GND*%
X50700000Y67200000D03*
D74*
%TO.P,U12,14,PDD*%
%TO.N,/ADCS module/GYRO_FUSE_2*%
X50700000Y65700000D03*
%TD*%
D31*
%TO.P,C83,1*%
%TO.N,/ADCS module/Microcontroller/MCU_VDDCORE*%
X46680000Y35000000D03*
%TO.P,C83,2*%
%TO.N,GND*%
X45720000Y35000000D03*
%TD*%
D32*
%TO.P,C100,1*%
%TO.N,/ADCS module/PD_OUT_4*%
X17900000Y48375000D03*
%TO.P,C100,2*%
%TO.N,GND*%
X17900000Y46825000D03*
%TD*%
D47*
%TO.P,C84,1*%
%TO.N,/ADCS module/PD_OUT_1*%
X25250000Y39925000D03*
%TO.P,C84,2*%
%TO.N,GND*%
X25250000Y41475000D03*
%TD*%
D77*
%TO.P,U9,1,TXD*%
%TO.N,/ADCS module/CAN_TX_1*%
X31011000Y77705000D03*
%TO.P,U9,2,GND*%
%TO.N,GND*%
X31011000Y76435000D03*
%TO.P,U9,3,VCC*%
%TO.N,/ADCS module/CAN_TRX_FUSE_1*%
X31011000Y75165000D03*
%TO.P,U9,4,RXD*%
%TO.N,/ADCS module/CAN_RX_1*%
X31011000Y73895000D03*
%TO.P,U9,5,FAULT*%
%TO.N,/ADCS module/CAN_FAULT_1*%
X25589000Y73895000D03*
%TO.P,U9,6,CANL*%
%TO.N,CAN1-*%
X25589000Y75165000D03*
%TO.P,U9,7,CANH*%
%TO.N,CAN1+*%
X25589000Y76435000D03*
%TO.P,U9,8,S*%
%TO.N,/ADCS module/CAN_SILENT_1*%
X25589000Y77705000D03*
%TD*%
D55*
%TO.P,F14,1*%
%TO.N,/ADCS_VDD*%
X12110000Y39700000D03*
%TO.P,F14,2*%
%TO.N,/ADCS module/MAG_FUSE*%
X13690000Y39700000D03*
%TD*%
D78*
%TO.P,Y4,1,TRI-STATE*%
%TO.N,unconnected-(Y2-Pad1)*%
X49325000Y27975000D03*
%TO.P,Y4,2,GND*%
%TO.N,GND*%
X49325000Y29825000D03*
%TO.P,Y4,3,OUTPUT*%
%TO.N,/ADCS module/Microcontroller/MCU_CLK_IN*%
X50775000Y29825000D03*
%TO.P,Y4,4,VDD*%
%TO.N,/ADCS_VDD*%
X50775000Y27975000D03*
%TD*%
D44*
%TO.P,C54,1*%
%TO.N,/ADCS_VDD*%
X68620000Y55350000D03*
%TO.P,C54,2*%
%TO.N,GND*%
X69580000Y55350000D03*
%TD*%
D30*
%TO.P,TP49,1,1*%
%TO.N,/ADCS module/MAG_FUSE*%
X15500000Y40000000D03*
%TD*%
D50*
%TO.P,F11,1*%
%TO.N,/ADCS_VDD*%
X38500000Y59200000D03*
%TO.P,F11,2*%
%TO.N,/ADCS module/GYRO_FUSE_3*%
X38500000Y60780000D03*
%TD*%
D34*
%TO.P,C78,1*%
%TO.N,/ADCS_VDD*%
X71750000Y47920000D03*
%TO.P,C78,2*%
%TO.N,GND*%
X71750000Y48880000D03*
%TD*%
D71*
%TO.P,IC7,1,1OUT*%
%TO.N,/ADCS module/Connectors/OP-AMP_OUT_5*%
X20990000Y52012000D03*
%TO.P,IC7,2,1IN-*%
%TO.N,/ADCS module/Connectors/PD_CATHODE_5*%
X22260000Y52012000D03*
%TO.P,IC7,3,1IN+*%
%TO.N,GND*%
X23530000Y52012000D03*
%TO.P,IC7,4,VDD+*%
%TO.N,/ADCS_VDD*%
X24800000Y52012000D03*
%TO.P,IC7,5,2IN+*%
%TO.N,GND*%
X26070000Y52012000D03*
%TO.P,IC7,6,2IN-*%
%TO.N,ADM_PD*%
X27340000Y52012000D03*
%TO.P,IC7,7,2OUT*%
%TO.N,/ADCS module/Connectors/OP-AMP_OUT_6*%
X28610000Y52012000D03*
%TO.P,IC7,8,3OUT*%
%TO.N,unconnected-(IC11-Pad8)*%
X28610000Y46588000D03*
%TO.P,IC7,9,3IN-*%
%TO.N,unconnected-(IC11-Pad9)*%
X27340000Y46588000D03*
%TO.P,IC7,10,3IN+*%
%TO.N,unconnected-(IC11-Pad10)*%
X26070000Y46588000D03*
%TO.P,IC7,11,VDD-/GND*%
%TO.N,GND*%
X24800000Y46588000D03*
%TO.P,IC7,12,4IN+*%
X23530000Y46588000D03*
%TO.P,IC7,13,4IN-*%
%TO.N,/ADCS module/Connectors/PD_CATHODE_4*%
X22260000Y46588000D03*
%TO.P,IC7,14,4OUT*%
%TO.N,/ADCS module/Connectors/OP-AMP_OUT_4*%
X20990000Y46588000D03*
%TD*%
D68*
%TO.P,R120,1*%
%TO.N,GND*%
X9690000Y35850000D03*
%TO.P,R120,2*%
%TO.N,Net-(R7-Pad2)*%
X10710000Y35850000D03*
%TD*%
D29*
%TO.P,R88,1*%
%TO.N,Net-(R34-Pad1)*%
X66825000Y80300000D03*
%TO.P,R88,2*%
%TO.N,/ADCS module/Over-voltage Protection/3V3_OC_PROT*%
X68475000Y80300000D03*
%TD*%
D68*
%TO.P,R111,1*%
%TO.N,/ADCS module/MAG_CS*%
X57190000Y28800000D03*
%TO.P,R111,2*%
%TO.N,/ADCS_VDD*%
X58210000Y28800000D03*
%TD*%
D31*
%TO.P,C94,1*%
%TO.N,/ADCS module/Microcontroller/MCU_VDDCORE*%
X46680000Y47800000D03*
%TO.P,C94,2*%
%TO.N,GND*%
X45720000Y47800000D03*
%TD*%
D29*
%TO.P,R117,1*%
%TO.N,/ADCS module/Connectors/PD_CATHODE_3*%
X33775000Y37100000D03*
%TO.P,R117,2*%
%TO.N,/ADCS module/Connectors/OP-AMP_OUT_3*%
X35425000Y37100000D03*
%TD*%
D53*
%TO.P,TP31,1*%
%TO.N,/ADCS module/GYR_MOSI*%
X54100000Y79600000D03*
%TD*%
D47*
%TO.P,C59,1*%
%TO.N,GND*%
X45400000Y65425000D03*
%TO.P,C59,2*%
%TO.N,Net-(C9-Pad2)*%
X45400000Y66975000D03*
%TD*%
D22*
%TO.P,R113,1*%
%TO.N,/ADCS_VDD*%
X71450000Y37525000D03*
%TO.P,R113,2*%
%TO.N,/ADCS module/RW_SDA*%
X71450000Y35875000D03*
%TD*%
D67*
%TO.P,FL5,1*%
%TO.N,/ADCS module/Microcontroller/MCU_VDDCORE*%
X54450000Y27225000D03*
%TO.P,FL5,2*%
%TO.N,/ADCS module/Microcontroller/MCU_VDDUTMIC*%
X54450000Y28575000D03*
%TD*%
D30*
%TO.P,TP35,1,1*%
%TO.N,/ADCS module/CAN_FAULT_2*%
X4600000Y79600000D03*
%TD*%
%TO.P,TP36,1,1*%
%TO.N,/ADCS module/CAN_SILENT_2*%
X13510000Y80360000D03*
%TD*%
%TO.P,TP39,1,1*%
%TO.N,/ADCS module/GYRO_FUSE_3*%
X44850000Y62350000D03*
%TD*%
D61*
%TO.P,L1,1,1*%
%TO.N,Net-(D2-PadA)*%
X55700000Y73700000D03*
%TO.P,L1,2,2*%
%TO.N,/ADCS module/GYRO_FUSE_2*%
X55700000Y70900000D03*
%TD*%
D48*
%TO.P,R122,1*%
%TO.N,/ADCS module/Magnetometer/YINN*%
X10910000Y27660000D03*
%TO.P,R122,2*%
%TO.N,/ADCS module/Magnetometer/YDRVN*%
X9890000Y27660000D03*
%TD*%
D47*
%TO.P,C68,1*%
%TO.N,Net-(C3-Pad1)*%
X34900000Y69925000D03*
%TO.P,C68,2*%
%TO.N,GND*%
X34900000Y71475000D03*
%TD*%
D33*
%TO.P,C96,1*%
%TO.N,/ADCS module/Connectors/PD_CATHODE_4*%
X21475000Y44800000D03*
%TO.P,C96,2*%
%TO.N,/ADCS module/Connectors/OP-AMP_OUT_4*%
X19925000Y44800000D03*
%TD*%
D55*
%TO.P,F10,1*%
%TO.N,/ADCS_VDD*%
X59290000Y68800000D03*
%TO.P,F10,2*%
%TO.N,/ADCS module/GYRO_FUSE_2*%
X57710000Y68800000D03*
%TD*%
D47*
%TO.P,C98,1*%
%TO.N,/ADCS module/Connectors/PD_CATHODE_1*%
X23500000Y34525000D03*
%TO.P,C98,2*%
%TO.N,/ADCS module/Connectors/OP-AMP_OUT_1*%
X23500000Y36075000D03*
%TD*%
D51*
%TO.P,FID5,*%
%TO.N,*%
X87800000Y2300000D03*
%TD*%
D34*
%TO.P,C49,1*%
%TO.N,/ADCS module/CAN_TRX_FUSE_1*%
X32600000Y75170000D03*
%TO.P,C49,2*%
%TO.N,GND*%
X32600000Y76130000D03*
%TD*%
D30*
%TO.P,TP40,1,1*%
%TO.N,/ADCS module/GYR_CS1*%
X40400000Y54600000D03*
%TD*%
D33*
%TO.P,C73,1*%
%TO.N,/ADCS module/PD_OUT_5*%
X16375000Y50200000D03*
%TO.P,C73,2*%
%TO.N,GND*%
X14825000Y50200000D03*
%TD*%
D48*
%TO.P,R121,1*%
%TO.N,/ADCS module/MAG_DRDY*%
X8810000Y34600000D03*
%TO.P,R121,2*%
%TO.N,GND*%
X7790000Y34600000D03*
%TD*%
D79*
%TO.N,/OBC module/3V3_LCLPROT_NAND*%
X19450000Y51500000D03*
X47298620Y57825500D03*
%TO.N,GND*%
X81600000Y18700000D03*
X47600000Y16600000D03*
X25200000Y42400000D03*
X33550000Y69400000D03*
X23800000Y48100000D03*
X35150000Y8300000D03*
X10300000Y44900000D03*
X43411765Y49939356D03*
X15273056Y32773056D03*
X74800000Y16000000D03*
X48300000Y64200000D03*
X72600000Y30900000D03*
X75000000Y73800000D03*
X74950000Y75800000D03*
X11450000Y72650000D03*
X74100000Y47100000D03*
X55000000Y29900000D03*
X22300000Y41300000D03*
X33550000Y77700000D03*
X67800000Y36500000D03*
X64100000Y66400000D03*
X44800000Y44125500D03*
X67300000Y60900000D03*
X28800000Y68000000D03*
X11100000Y38500000D03*
X32650000Y60400000D03*
X81600000Y44500000D03*
X76775000Y5300000D03*
X49400000Y57800000D03*
X5200000Y81700000D03*
X65350000Y7200000D03*
X43366241Y34898540D03*
X21740000Y65430000D03*
X50254992Y38855008D03*
X75775500Y43700000D03*
X83300000Y29800000D03*
X8500000Y47300000D03*
X68000000Y37700000D03*
X81600000Y25300000D03*
X30600000Y36400000D03*
X38674500Y42600000D03*
X58700000Y56350000D03*
X6500000Y53100000D03*
X58600000Y46400000D03*
X15975980Y30075517D03*
X70750000Y69800000D03*
X46000000Y63400000D03*
X61000000Y61700000D03*
X67550000Y47900000D03*
X67687701Y33787701D03*
X28920000Y56990000D03*
X7200000Y72700000D03*
X76475000Y3800000D03*
X12950000Y65100000D03*
X59050000Y55300000D03*
X47900000Y74400000D03*
X51390000Y49199989D03*
X54600000Y8900000D03*
X29775500Y35249989D03*
X21350000Y7400000D03*
X40000000Y66900000D03*
X4100000Y65000000D03*
X16074000Y63300000D03*
X53900000Y29900000D03*
X17600000Y57000000D03*
X4100000Y68700000D03*
X24200000Y39275500D03*
X48550000Y8900000D03*
X38800000Y46400000D03*
X56250000Y57150000D03*
X29250000Y37550000D03*
X44800000Y8700000D03*
X34400000Y50350000D03*
X11300000Y36800000D03*
X48700000Y19826944D03*
X33723056Y60676944D03*
X44710000Y51560000D03*
X46650000Y73900000D03*
X38150000Y91850000D03*
X44200000Y54100000D03*
X17250000Y12500000D03*
X47100000Y24800000D03*
X66100000Y10100000D03*
X69600000Y54649500D03*
X45449500Y38925500D03*
X25000000Y48000000D03*
X41300000Y62950000D03*
X6500000Y20500000D03*
X10400000Y33050000D03*
X25800000Y67470000D03*
X33675500Y46000000D03*
X53400000Y56350000D03*
X73200000Y75000000D03*
X28900000Y70499500D03*
X6900000Y16000000D03*
X9300000Y32950000D03*
X8300000Y32700000D03*
X21700000Y18900000D03*
X62387701Y55712299D03*
X81324500Y50800000D03*
X53100000Y35700000D03*
X38000000Y89500000D03*
X80124500Y75800000D03*
X25800000Y62800000D03*
X55571636Y6503924D03*
X66500000Y71500000D03*
X39100000Y76600000D03*
X49250000Y24174500D03*
X35850000Y45750000D03*
X19500000Y50400000D03*
X64600000Y31100000D03*
X30250000Y37500000D03*
X64100000Y64200000D03*
X67100000Y56000000D03*
X23800000Y50600000D03*
X72500000Y33438030D03*
X49700000Y35800000D03*
X37600008Y72300000D03*
X80550000Y57000000D03*
X69600000Y77200000D03*
X44230000Y48000000D03*
X38400000Y16150000D03*
X24600000Y22600000D03*
X5540500Y26100000D03*
X31700000Y7400000D03*
X8300000Y42500000D03*
X40000000Y65589500D03*
X65500000Y44950000D03*
X18675500Y69800000D03*
X51500000Y37400000D03*
X15300000Y6800000D03*
X37300000Y59500000D03*
X86600000Y13600000D03*
X22150000Y66575000D03*
X63800000Y26000000D03*
X78100000Y45400000D03*
X15750000Y51550000D03*
X20700000Y27600000D03*
X60700000Y42800000D03*
X74800000Y15100000D03*
X27500000Y20000000D03*
X20150000Y32700000D03*
X19300000Y33750000D03*
X23400000Y71200000D03*
X1800000Y82700000D03*
X25875431Y53399971D03*
X45000000Y47200000D03*
X16100000Y61500000D03*
X67400000Y59500000D03*
X31600000Y14700000D03*
X7000000Y35400000D03*
X85100000Y13600000D03*
X52950000Y73250000D03*
X43373809Y36404080D03*
X53600000Y69025500D03*
X72200000Y7350000D03*
X75550000Y63250000D03*
X74600000Y49400000D03*
X16500000Y47000000D03*
X40500000Y70200000D03*
X39150000Y15450000D03*
X24700000Y32224500D03*
X22375500Y67800000D03*
X56503904Y52400000D03*
X11190000Y67560000D03*
X42000000Y69200000D03*
X8000000Y36600000D03*
X51450000Y55350000D03*
X52600000Y66300000D03*
X46350000Y28324500D03*
X66750000Y49350000D03*
X74550000Y62250000D03*
X16100000Y59900000D03*
X13100000Y18300000D03*
X73050000Y40200000D03*
X63050000Y47675500D03*
X36702141Y36857492D03*
X54900000Y67000000D03*
X73303571Y37000000D03*
X74850000Y46350000D03*
X44700000Y73700000D03*
X68200000Y43600000D03*
X64900000Y61000000D03*
X33700000Y71249511D03*
X60598056Y29001944D03*
%TO.N,/ADCS_VDD*%
X11900000Y41300000D03*
X64500000Y56100000D03*
X7300000Y77900000D03*
X44710000Y49800000D03*
X67100000Y69800000D03*
X60400000Y66500000D03*
X52000000Y56550000D03*
X69150000Y56300000D03*
X58300000Y22600000D03*
X68900000Y69600000D03*
X75775500Y44900000D03*
X44600000Y41200000D03*
X70950000Y56200000D03*
X4200000Y63400000D03*
X73300000Y52300000D03*
X36550000Y58600000D03*
X76300000Y48400000D03*
X74350000Y41100000D03*
X74500000Y38700000D03*
X31100000Y48200000D03*
X75350000Y36950000D03*
X23800000Y73700000D03*
X70000000Y29300000D03*
X65500000Y59200000D03*
X57100000Y59200000D03*
X55600000Y58250000D03*
X7240000Y70070000D03*
X77400000Y63000000D03*
X53800000Y58300000D03*
X24600000Y53300000D03*
X46600000Y26800000D03*
X61800000Y68974500D03*
X61600000Y71300000D03*
X56300000Y30200000D03*
X71500000Y10000000D03*
X63300000Y70000000D03*
X36400000Y76700000D03*
X12862299Y58862299D03*
X72800000Y48600000D03*
%TO.N,/OBC module/3V3_LCLPROT_MRAM*%
X67600000Y26000000D03*
X67600000Y28900000D03*
X62950000Y33800000D03*
%TO.N,/ADCS module/Microcontroller/MCU_VDDCORE*%
X62900000Y28300000D03*
X71200000Y33500000D03*
X45803305Y51672096D03*
X46280000Y46754500D03*
X53650000Y26975500D03*
X57700000Y55300000D03*
X72500000Y46500000D03*
X43300000Y31300000D03*
%TO.N,/OBC module/3V3_PROT*%
X57750000Y57250000D03*
X47600000Y15400000D03*
X72300000Y43000000D03*
X20700000Y26400000D03*
X17600000Y58900000D03*
X67300000Y10000000D03*
X49600000Y34500000D03*
X63100000Y42100000D03*
X9800000Y17600000D03*
X61100000Y10000000D03*
X23336186Y40776577D03*
X12950000Y63750000D03*
X19700000Y30700000D03*
X68496928Y64136036D03*
X20199500Y59600000D03*
X63300000Y39300000D03*
X51400000Y46200000D03*
X28800000Y62000000D03*
X56600000Y42450000D03*
X38350000Y69100000D03*
X60800000Y77600000D03*
X7000000Y39300000D03*
X24400000Y15000000D03*
X46800000Y49599500D03*
X18250000Y60800000D03*
X14200000Y11300000D03*
X67200000Y46050000D03*
X54400000Y61500000D03*
X20000000Y22700000D03*
X73600000Y54100000D03*
X18700000Y35500000D03*
X21537701Y61937701D03*
X20550000Y35430000D03*
X51650000Y74100000D03*
X45000000Y76000000D03*
X22300000Y64225000D03*
X45100000Y64200000D03*
X7100000Y18000000D03*
X74222701Y59300000D03*
X49200000Y22500000D03*
X39800000Y42449000D03*
X43000000Y76500000D03*
X32500000Y71800000D03*
X60100000Y52400000D03*
X67150000Y50450000D03*
X62050000Y76150000D03*
X63350000Y35650000D03*
X30900000Y59600000D03*
X50300000Y24850000D03*
X61800000Y79150000D03*
X37200000Y15900000D03*
%TO.N,/OBC module/MCU_VDDCORE*%
X36000000Y42000000D03*
X51600000Y35600000D03*
X39250000Y14050000D03*
X32800000Y13700000D03*
X20700000Y20300000D03*
X50500000Y19900000D03*
X21350000Y32700000D03*
%TO.N,ADM_PD*%
X76600000Y60100000D03*
X29400000Y56000000D03*
%TO.N,/ADCS module/MAG_FUSE*%
X11900000Y35800000D03*
X9500000Y28900000D03*
%TO.N,/EPS_3V3_OBC*%
X4100000Y69900000D03*
%TO.N,/EPS_3V3_ADCS*%
X4000000Y66800000D03*
%TO.N,/EPS_3V3_RW*%
X86700000Y56500000D03*
%TO.N,/OBC module/MEM_NAND_ENABLE_1*%
X25187701Y44687701D03*
X19000000Y54000000D03*
%TO.N,/OBC module/MEM_NAND_ENABLE_2*%
X16500000Y53650000D03*
X20450000Y43100000D03*
%TO.N,/OBC module/MEM_NAND_WR_PROTECT*%
X17200000Y45400000D03*
X26450000Y37400000D03*
%TO.N,/OBC module/MEM_D0*%
X38900000Y24150000D03*
X37700000Y28900000D03*
X63500000Y17500000D03*
%TO.N,/OBC module/MEM_D1*%
X65500000Y16600000D03*
X35900000Y28800000D03*
%TO.N,/OBC module/MEM_D2*%
X34100000Y28800000D03*
X67200000Y15850000D03*
%TO.N,/OBC module/MEM_D3*%
X32500000Y29500000D03*
X68300000Y14400000D03*
%TO.N,/OBC module/MEM_D4*%
X58600000Y30000000D03*
X38700000Y36700000D03*
%TO.N,/OBC module/MEM_D5*%
X37550000Y48700000D03*
X31375500Y33550000D03*
X31400000Y46400000D03*
X67500000Y22300000D03*
%TO.N,/OBC module/MEM_D6*%
X34250000Y48800000D03*
X37500000Y50750000D03*
X65831600Y22356199D03*
X32700000Y35800000D03*
%TO.N,/OBC module/MEM_D7*%
X64100000Y22500000D03*
X33009668Y33940332D03*
%TO.N,/OBC module/LCL_MRAM_SET*%
X61900000Y40500000D03*
X57100000Y26250000D03*
%TO.N,/OBC module/LCL_MRAM_RST*%
X63300000Y37500000D03*
X56950000Y24250000D03*
%TO.N,/OBC module/LCL_CAN_1_SET*%
X47004429Y60955706D03*
X43800000Y71400000D03*
%TO.N,/OBC module/LCL_CAN_1_RST*%
X43250000Y59925000D03*
X43700000Y65900000D03*
%TO.N,/OBC module/LCL_CAN1_OP-AMP_OUT*%
X58000000Y65800000D03*
X72550000Y57650000D03*
%TO.N,/I2C_MTQ_SDA*%
X78274500Y42500000D03*
X65400000Y43800000D03*
X37950000Y41724500D03*
%TO.N,/I2C_MTQ_SCK*%
X53900000Y40275500D03*
X24970104Y38375431D03*
X80800000Y54100000D03*
%TO.N,/OBC module/Connectors/SU_SWCLK*%
X80300000Y69350000D03*
X81549312Y38950688D03*
%TO.N,/OBC module/Connectors/SU_SWDIO*%
X81600000Y35100000D03*
X78450000Y66550000D03*
%TO.N,/ADCS_SWDIO*%
X10900000Y52800000D03*
X78729735Y46347576D03*
X14100000Y3400000D03*
%TO.N,/OBC_UART_TX*%
X3800000Y58700000D03*
X26850000Y35650000D03*
%TO.N,/OBC_UART_RX*%
X18400000Y39500000D03*
X4786638Y57093772D03*
%TO.N,/ADCS_UART_TX*%
X16600000Y67400000D03*
%TO.N,/ADCS_UART_RX*%
X16000000Y69300000D03*
%TO.N,/ADCS_SWCLK*%
X12200000Y50700000D03*
X74900000Y42950000D03*
X42200000Y4900000D03*
%TO.N,/ADCS_RESET*%
X5050000Y61750000D03*
X56800000Y40000000D03*
%TO.N,/EPS_5V_PANELS*%
X6510000Y21630000D03*
X71000000Y7300000D03*
X81600000Y24110000D03*
X54260000Y6670000D03*
%TO.N,/OBC module/MCU_SWCLK*%
X26700000Y30450000D03*
X10675000Y40000000D03*
%TO.N,/OBC module/MCU_SWDIO*%
X24900000Y35200000D03*
X13700000Y41200000D03*
%TO.N,/OBC module/ADM_DEPLOY_1*%
X75200000Y51100000D03*
X39450000Y38750000D03*
%TO.N,/OBC module/ADM_DEPLOY_2*%
X53900000Y44800000D03*
X75200000Y53000000D03*
%TO.N,/OBC module/ADM_DEPLOY_3*%
X56100000Y35200000D03*
X58300000Y38700000D03*
X41100000Y34200000D03*
X78100000Y49800000D03*
%TO.N,/OBC module/ADM_ENABLE_1*%
X42200000Y44800000D03*
X75350000Y57650000D03*
%TO.N,/OBC module/ADM_ENABLE_2*%
X75300000Y55850000D03*
X35800000Y38600000D03*
%TO.N,/OBC module/I2C_SDA_PANELS*%
X67600000Y6350000D03*
X5440000Y19060000D03*
X5440000Y24880000D03*
X79750000Y20740000D03*
X50900000Y7800000D03*
X25200000Y29400000D03*
%TO.N,/OBC module/I2C_SCK_PANELS*%
X8850000Y39750000D03*
X82700000Y21900000D03*
X52100000Y6050000D03*
X4410000Y23520000D03*
X68800000Y4850000D03*
X19700000Y38200000D03*
%TO.N,/OBC module/MCU_TRACECLK*%
X27200000Y17200000D03*
X23500000Y7100000D03*
%TO.N,/OBC module/MCU_TRACED_3*%
X26000000Y21500000D03*
X25126944Y8773056D03*
%TO.N,/OBC module/MCU_TRACED_2*%
X27200000Y8900000D03*
X27700000Y22500000D03*
%TO.N,/OBC module/MCU_TRACED_1*%
X29300000Y8800000D03*
X30500000Y21600000D03*
%TO.N,/OBC module/MCU_TRACED_0*%
X32200000Y20700000D03*
X31400000Y8800000D03*
%TO.N,/OBC module/MEM_MRAM_ENABLE*%
X62800000Y9400000D03*
X31900000Y22700000D03*
%TO.N,/OBC module/MEM_MRAM_WR_ENABLE*%
X33600000Y22800000D03*
X68700000Y10000000D03*
%TO.N,/ADCS module/Magnetometer/XINP*%
X7100000Y29400000D03*
X13400000Y21100000D03*
%TO.N,/ADCS module/Magnetometer/YINP*%
X18400000Y24600000D03*
X11700000Y26200000D03*
%TO.N,/ADCS module/Magnetometer/YINN*%
X16800000Y23000000D03*
X9700000Y26000000D03*
%TO.N,/ADCS module/I2C_SDA_SENS*%
X70250000Y63900000D03*
X74500000Y60950000D03*
X55150000Y52400000D03*
%TO.N,/ADCS module/MAG_CS*%
X15900000Y31600000D03*
X51100000Y22550000D03*
%TO.N,/ADCS module/GYR_MISO*%
X32200000Y69450000D03*
X49350000Y63250000D03*
X43700000Y68000000D03*
X30400000Y70900000D03*
X25450000Y59010000D03*
X41800000Y72600000D03*
%TO.N,/ADCS module/GYR_CS3*%
X57600000Y47300000D03*
X37500000Y55400000D03*
X40600000Y52300000D03*
X34400000Y58900000D03*
%TO.N,/ADCS module/GYR_CS2*%
X56700000Y67500000D03*
X58800000Y60900000D03*
%TO.N,/ADCS module/GYR_CS1*%
X60300000Y55600000D03*
X40100000Y56500000D03*
%TO.N,/OBC module/I2C_SDA_SENS*%
X17950000Y17400000D03*
X22550000Y15050000D03*
X17900000Y13950000D03*
%TO.N,/OBC module/LCL_PWM_CAN1*%
X44900000Y60900000D03*
X47200000Y63500000D03*
%TO.N,/OBC module/LCL_PWM_MRAM*%
X55150000Y25850000D03*
X60087299Y34087299D03*
%TO.N,/OBC module/LCL_PWM_NAND*%
X57700000Y34100000D03*
X55600000Y28600000D03*
%TO.N,/ADCS module/MAG_DRDY*%
X9700000Y34600000D03*
X36900000Y26600000D03*
%TO.N,/ADCS module/GYR_MOSI*%
X27400000Y59100000D03*
X54900000Y77800000D03*
X33200000Y61900000D03*
X53150000Y62850000D03*
X54800000Y68400000D03*
X48800000Y59900000D03*
X62950000Y52400000D03*
%TO.N,/ADCS module/GYR_SPCK*%
X29150000Y72350000D03*
X40400000Y74600000D03*
X51300000Y63400000D03*
X25400000Y60800000D03*
%TO.N,/ADCS module/MAG_SPCK*%
X28634668Y29565332D03*
X13386732Y34315109D03*
X54650000Y33850000D03*
%TO.N,/ADCS module/MAG_MOSI*%
X15800000Y34900000D03*
X53400000Y37400000D03*
X31400000Y31100000D03*
%TO.N,/ADCS module/MAG_MISO*%
X4252345Y38500000D03*
X14500000Y36100000D03*
X52600000Y39000000D03*
%TO.N,/OBC module/MEM_A20*%
X32550000Y37550000D03*
X28900000Y11400000D03*
%TO.N,/OBC module/MEM_A5*%
X35450000Y17050000D03*
X69200000Y16600000D03*
%TO.N,/OBC module/MEM_A6*%
X35400000Y20000000D03*
X70400000Y15200000D03*
%TO.N,/OBC module/MEM_A7*%
X34900000Y21700000D03*
X71500000Y14350000D03*
%TO.N,/OBC module/MEM_A8*%
X40750000Y24500000D03*
X71100000Y17700000D03*
%TO.N,/OBC module/MEM_A9*%
X73100000Y18600000D03*
X42550000Y24600000D03*
%TO.N,/OBC module/MEM_A10*%
X71200000Y26000000D03*
X34100000Y32500000D03*
%TO.N,/OBC module/MEM_A11*%
X72300000Y22500000D03*
X39887877Y27669050D03*
%TO.N,/OBC module/MEM_A12*%
X39200000Y26050000D03*
X70800000Y21000000D03*
%TO.N,/OBC module/MEM_A13*%
X68800000Y19900000D03*
X41400000Y26150000D03*
%TO.N,/OBC module/MEM_MRAM_OUT_ENABLE*%
X63600000Y14400000D03*
X29800000Y27650000D03*
%TO.N,/OBC module/MEM_A17*%
X53040000Y13980000D03*
X30350000Y23550000D03*
%TO.N,/OBC module/MEM_A18*%
X29900000Y25200000D03*
X51250000Y13700000D03*
%TO.N,/OBC module/MEM_A19*%
X52720273Y28469773D03*
X36600000Y34800000D03*
%TO.N,/ADCS module/CAN_TX_1*%
X49700000Y48600000D03*
X29150000Y76250000D03*
%TO.N,/ADCS module/CAN_RX_1*%
X50172201Y50544249D03*
X32500000Y73900000D03*
%TO.N,/ADCS module/CAN_TX_2*%
X67900000Y40600000D03*
X11300000Y77175500D03*
%TO.N,/ADCS module/CAN_RX_2*%
X6875394Y74124606D03*
X50200000Y42350000D03*
%TO.N,/ADCS module/CAN_FAULT_2*%
X33600000Y55900000D03*
X49800011Y52350000D03*
%TO.N,/ADCS module/CAN_SILENT_2*%
X53000000Y42200000D03*
X11370000Y79060000D03*
%TO.N,/OBC module/CAN_RX_2*%
X29000000Y32800000D03*
X12910498Y74524500D03*
%TO.N,/OBC module/CAN_FAULT_2*%
X20100000Y40850000D03*
X9700000Y79600000D03*
%TO.N,/OBC module/CAN_TX_1*%
X17400000Y72400000D03*
X39420000Y32380000D03*
%TO.N,/OBC module/CAN_RX_1*%
X42300000Y35700000D03*
X22400000Y74900000D03*
%TO.N,/OBC module/CAN_SILENT_1*%
X17900000Y78900000D03*
X19400000Y67800000D03*
%TO.N,/OBC module/CAN_FAULT_1*%
X22400000Y79200000D03*
X20400000Y66000000D03*
%TO.N,/OBC module/CAN_TX_2*%
X9000000Y77400000D03*
X26900000Y28700000D03*
%TO.N,/OBC module/CAN_SILENT_2*%
X7300000Y82600000D03*
X21200000Y39350000D03*
%TO.N,CAN1-*%
X73875055Y68797621D03*
X83405280Y41811091D03*
X13450000Y71304998D03*
X80849000Y63900000D03*
X27700000Y79750500D03*
%TO.N,CAN1+*%
X27700000Y78650500D03*
X80849000Y62800000D03*
X74652873Y68019803D03*
X14550000Y71304998D03*
X82627462Y42588909D03*
%TO.N,CAN2-*%
X2950000Y79900000D03*
X80325998Y71600000D03*
X10211091Y83658909D03*
X83337163Y32450000D03*
%TO.N,CAN2+*%
X1850000Y79900000D03*
X10988909Y82881091D03*
X83337163Y31350000D03*
X80325998Y72700000D03*
%TO.N,/OBC module/NRST_OBC*%
X25800000Y32800000D03*
X17100000Y62200000D03*
X12800000Y62000000D03*
X14800000Y38400000D03*
%TO.N,AC_GND_1*%
X4600000Y87400000D03*
X3200000Y87400000D03*
X6000000Y87400000D03*
%TO.N,AC_GND_2*%
X85200000Y9100000D03*
X81275000Y5200000D03*
X86500000Y9100000D03*
X81275000Y3900000D03*
%TD*%
D80*
%TO.N,GND*%
X23400000Y71200000D02*
X23150000Y70950000D01*
X33700000Y71249511D02*
X34674511Y71249511D01*
D81*
X8330000Y32700000D02*
X9530000Y31500000D01*
D82*
X72500000Y33438030D02*
X72130000Y33808030D01*
D83*
X44750000Y36225000D02*
X45025000Y35950000D01*
D82*
X47580000Y28330000D02*
X49075000Y29825000D01*
D80*
X42000000Y69200000D02*
X43225000Y69200000D01*
D82*
X44514781Y33750000D02*
X44825000Y33750000D01*
D80*
X11100000Y38500000D02*
X11450000Y38150000D01*
X21740000Y65410000D02*
X21740000Y65430000D01*
D82*
X32650000Y60825000D02*
X32075000Y61400000D01*
D80*
X28900000Y70499500D02*
X29325000Y70074500D01*
D82*
X54900000Y67000000D02*
X54725000Y67175000D01*
D80*
X52950000Y73250000D02*
X52000000Y72300000D01*
X23150000Y70950000D02*
X22430000Y70950000D01*
X32850000Y46000000D02*
X31970000Y45120000D01*
X40000000Y65589500D02*
X38789500Y65589500D01*
X38800000Y46400000D02*
X39225000Y45975000D01*
D82*
X51650000Y33350000D02*
X51650000Y32362000D01*
X21650000Y7700000D02*
X21650000Y9610000D01*
D80*
X16675000Y46825000D02*
X17900000Y46825000D01*
X36925000Y37080351D02*
X36925000Y38100000D01*
X45000000Y47200000D02*
X45600000Y47800000D01*
D82*
X69638000Y45850000D02*
X71080000Y45850000D01*
X56300000Y57100000D02*
X56300000Y56280000D01*
D80*
X54200000Y9300000D02*
X54600000Y8900000D01*
X23800000Y50600000D02*
X23530000Y50870000D01*
X72520000Y49650000D02*
X71750000Y48880000D01*
X31970000Y45120000D02*
X31970000Y44462000D01*
D82*
X53900000Y30555000D02*
X53630000Y30825000D01*
D80*
X22150000Y66575000D02*
X23090000Y65635000D01*
D82*
X32100000Y64000000D02*
X32100000Y61425000D01*
D80*
X45400000Y65200000D02*
X45400000Y65425000D01*
D83*
X33625000Y76200000D02*
X33900000Y76475000D01*
D80*
X31800000Y36200000D02*
X31800000Y38868000D01*
X52000000Y72300000D02*
X50600000Y72300000D01*
D82*
X53650000Y53838000D02*
X53650000Y55170000D01*
D80*
X69580000Y54669500D02*
X69580000Y55350000D01*
X25875431Y52206569D02*
X26070000Y52012000D01*
X34674511Y71249511D02*
X34900000Y71475000D01*
X30849989Y35249989D02*
X31800000Y36200000D01*
X25250000Y42350000D02*
X25250000Y41475000D01*
D84*
X70400000Y71075000D02*
X70325000Y71150000D01*
D83*
X32600000Y76130000D02*
X32295000Y76435000D01*
D81*
X15975980Y30075517D02*
X15624483Y30075517D01*
D82*
X49325000Y29825000D02*
X49325000Y32973522D01*
X54620000Y30280000D02*
X54620000Y30800000D01*
D81*
X9300000Y32950000D02*
X9300000Y32300000D01*
D84*
X24800000Y47800000D02*
X24800000Y46588000D01*
D83*
X8350000Y42550000D02*
X9610000Y42550000D01*
D80*
X23800000Y48100000D02*
X23600000Y48100000D01*
D82*
X53400000Y56350000D02*
X53830000Y55920000D01*
D83*
X10275000Y73755000D02*
X9980000Y74050000D01*
D80*
X25990000Y65840000D02*
X24925000Y66905000D01*
D82*
X53800000Y67175000D02*
X53775000Y67200000D01*
D80*
X25200000Y42400000D02*
X25250000Y42350000D01*
X16100000Y61500000D02*
X15775000Y61825000D01*
X29250000Y37550000D02*
X29430000Y37730000D01*
D82*
X74750000Y64120000D02*
X75550000Y63320000D01*
X54620000Y30800000D02*
X54650000Y30830000D01*
X62387701Y55712299D02*
X62150000Y55474598D01*
D80*
X8750000Y35850000D02*
X9690000Y35850000D01*
X16074000Y63300000D02*
X15869000Y63095000D01*
D82*
X43366241Y34898540D02*
X44514781Y33750000D01*
D80*
X23090000Y65635000D02*
X23825000Y65635000D01*
D82*
X71020000Y40850000D02*
X69638000Y40850000D01*
D80*
X39225000Y45975000D02*
X39225000Y45300000D01*
D82*
X71620000Y45450000D02*
X71150000Y45920000D01*
X11190000Y67560000D02*
X12085978Y67560000D01*
D80*
X60598056Y29001944D02*
X60625000Y29028888D01*
X33723056Y60676944D02*
X34024511Y60978399D01*
X8000000Y36600000D02*
X8750000Y35850000D01*
D83*
X43373809Y36404080D02*
X43552889Y36225000D01*
D82*
X75550000Y63320000D02*
X75550000Y63250000D01*
X21350000Y7400000D02*
X21650000Y7700000D01*
X53900000Y29900000D02*
X53900000Y30555000D01*
D81*
X15624483Y30075517D02*
X15000000Y30700000D01*
D82*
X56250000Y57150000D02*
X56300000Y57100000D01*
X64600000Y31100000D02*
X64650000Y31150000D01*
D85*
X85100000Y13600000D02*
X85100000Y12675000D01*
D81*
X14700000Y31900000D02*
X14137500Y31900000D01*
D82*
X44230000Y48060000D02*
X44980000Y48810000D01*
D84*
X30600000Y36400000D02*
X31100000Y36900000D01*
D83*
X8500000Y47300000D02*
X9610000Y47300000D01*
X35150000Y9613325D02*
X35138500Y9624825D01*
X33550000Y77700000D02*
X33900000Y77350000D01*
D80*
X44213000Y54100000D02*
X44875000Y53438000D01*
D82*
X53830000Y55920000D02*
X53830000Y55350000D01*
D80*
X44620000Y73620000D02*
X44620000Y72600000D01*
D82*
X12535000Y67565000D02*
X13145000Y68175000D01*
D80*
X47600000Y72950000D02*
X47600000Y72300000D01*
X22040000Y65110000D02*
X21740000Y65410000D01*
X69600000Y54649500D02*
X69580000Y54669500D01*
X48725000Y57125000D02*
X48300000Y57125000D01*
D83*
X45025000Y35950000D02*
X46450000Y35950000D01*
D82*
X45650000Y35000000D02*
X44825000Y34175000D01*
D84*
X31100000Y38600000D02*
X30700000Y39000000D01*
D80*
X22665000Y65110000D02*
X22040000Y65110000D01*
D81*
X15273056Y32773056D02*
X15273056Y32473056D01*
D80*
X11450000Y38150000D02*
X12075000Y38150000D01*
X24925000Y66905000D02*
X24055000Y66905000D01*
X30600000Y67700000D02*
X29325000Y68975000D01*
X49400000Y57800000D02*
X48725000Y57125000D01*
X46000000Y64600000D02*
X45400000Y65200000D01*
X25875431Y53399971D02*
X25875431Y52206569D01*
X14825000Y50575000D02*
X14825000Y50200000D01*
D83*
X8300000Y42500000D02*
X8350000Y42550000D01*
D80*
X34400000Y50350000D02*
X34375000Y50375000D01*
D84*
X30700000Y39000000D02*
X30700000Y39038000D01*
D82*
X51500000Y33500000D02*
X51650000Y33350000D01*
X64650000Y31150000D02*
X64650000Y32362000D01*
D80*
X46000000Y63400000D02*
X46000000Y64600000D01*
X25990000Y65635000D02*
X25990000Y65840000D01*
D82*
X46155000Y38220000D02*
X46400000Y38220000D01*
D80*
X25990000Y67280000D02*
X25800000Y67470000D01*
X34024511Y63875489D02*
X33900000Y64000000D01*
D81*
X8300000Y32700000D02*
X8330000Y32700000D01*
D80*
X44200000Y54100000D02*
X44213000Y54100000D01*
D82*
X32650000Y60400000D02*
X32650000Y60825000D01*
X44230000Y48000000D02*
X44230000Y48060000D01*
D83*
X10275000Y72800000D02*
X11300000Y72800000D01*
D80*
X23825000Y64365000D02*
X23410000Y64365000D01*
D84*
X69600000Y77200000D02*
X68787500Y77200000D01*
D82*
X32100000Y61425000D02*
X32075000Y61400000D01*
X12090978Y67565000D02*
X12535000Y67565000D01*
D80*
X15975000Y59775000D02*
X15975000Y58800000D01*
X15750000Y51550000D02*
X15750000Y51500000D01*
D82*
X67950000Y36350000D02*
X69638000Y36350000D01*
X64080000Y65400000D02*
X64080000Y66380000D01*
D80*
X74350000Y49650000D02*
X72520000Y49650000D01*
D82*
X73050000Y40200000D02*
X72270000Y40980000D01*
D83*
X32600000Y76130000D02*
X32670000Y76200000D01*
X32670000Y76200000D02*
X33625000Y76200000D01*
D80*
X44710000Y51560000D02*
X45720000Y50550000D01*
D82*
X13145000Y68175000D02*
X14405000Y68175000D01*
D80*
X23530000Y50870000D02*
X23530000Y52012000D01*
X29325000Y70074500D02*
X29325000Y69400000D01*
X45600000Y47800000D02*
X45720000Y47800000D01*
X60625000Y29028888D02*
X60625000Y29920000D01*
X11400000Y36900000D02*
X12295000Y36900000D01*
X34024511Y60978399D02*
X34024511Y63875489D01*
X53600000Y69025500D02*
X53574500Y69000000D01*
D86*
X74800000Y15100000D02*
X74800000Y11600000D01*
D82*
X48162000Y37850000D02*
X46750000Y37850000D01*
X55000000Y29900000D02*
X54620000Y30280000D01*
D81*
X15000000Y30700000D02*
X14137500Y30700000D01*
D82*
X47344500Y28324500D02*
X47350000Y28330000D01*
D80*
X54200000Y11838000D02*
X54200000Y9300000D01*
X7000000Y35400000D02*
X7790000Y34610000D01*
D83*
X33900000Y77350000D02*
X33900000Y76475000D01*
D84*
X31100000Y36900000D02*
X31100000Y38600000D01*
D80*
X15775000Y61825000D02*
X14175000Y61825000D01*
D82*
X45720000Y35000000D02*
X45650000Y35000000D01*
X54650000Y30830000D02*
X54650000Y32362000D01*
X49325000Y32973522D02*
X49851478Y33500000D01*
D84*
X68787500Y77200000D02*
X68775000Y77212500D01*
D82*
X49075000Y29825000D02*
X49325000Y29825000D01*
D80*
X29325000Y68975000D02*
X29325000Y69400000D01*
D82*
X73950000Y45450000D02*
X71620000Y45450000D01*
D81*
X9300000Y32300000D02*
X9700000Y31900000D01*
X15273056Y32473056D02*
X14700000Y31900000D01*
D80*
X31800000Y38868000D02*
X31970000Y39038000D01*
D82*
X49851478Y33500000D02*
X51500000Y33500000D01*
D80*
X44700000Y73700000D02*
X44620000Y73620000D01*
D83*
X32295000Y76435000D02*
X31011000Y76435000D01*
D82*
X47350000Y28330000D02*
X47580000Y28330000D01*
X71080000Y45850000D02*
X71150000Y45920000D01*
D81*
X9700000Y31900000D02*
X10262500Y31900000D01*
D82*
X64080000Y66380000D02*
X64100000Y66400000D01*
D80*
X47425000Y65425000D02*
X47700000Y65700000D01*
X40200000Y70500000D02*
X39680000Y70500000D01*
X29775500Y35249989D02*
X30849989Y35249989D01*
X39900000Y67000000D02*
X37500000Y67000000D01*
X22750500Y68175000D02*
X23825000Y68175000D01*
D83*
X9980000Y75434000D02*
X10135000Y75589000D01*
D80*
X80368000Y49870000D02*
X80394500Y49870000D01*
D83*
X35150000Y8300000D02*
X35150000Y9613325D01*
D80*
X74600000Y49400000D02*
X74350000Y49650000D01*
D82*
X46750000Y37850000D02*
X46400000Y38200000D01*
X46400000Y38200000D02*
X46400000Y38220000D01*
X44825000Y34175000D02*
X44825000Y33750000D01*
X53775000Y67200000D02*
X50700000Y67200000D01*
D80*
X38789500Y65589500D02*
X37200000Y64000000D01*
X33675500Y46000000D02*
X32850000Y46000000D01*
D84*
X70400000Y70150000D02*
X70400000Y71075000D01*
X25000000Y48000000D02*
X24800000Y47800000D01*
D82*
X45449500Y38925500D02*
X46155000Y38220000D01*
D85*
X74800000Y16000000D02*
X74800000Y15100000D01*
D83*
X11300000Y72800000D02*
X11450000Y72650000D01*
D80*
X7790000Y34610000D02*
X7790000Y34600000D01*
X46650000Y73900000D02*
X47600000Y72950000D01*
D82*
X54725000Y67175000D02*
X53800000Y67175000D01*
D84*
X70750000Y69800000D02*
X70400000Y70150000D01*
D80*
X40500000Y70200000D02*
X40200000Y70500000D01*
D81*
X9530000Y31500000D02*
X10262500Y31500000D01*
D83*
X10275000Y72800000D02*
X10275000Y73755000D01*
D80*
X29430000Y37730000D02*
X29430000Y39038000D01*
D82*
X46350000Y28324500D02*
X47344500Y28324500D01*
D81*
X10400000Y33050000D02*
X10412500Y33037500D01*
D80*
X16500000Y47000000D02*
X16675000Y46825000D01*
D82*
X53150000Y31400000D02*
X53150000Y32362000D01*
D80*
X22375500Y67800000D02*
X22750500Y68175000D01*
X36702141Y36857492D02*
X36925000Y37080351D01*
X53574500Y69000000D02*
X50700000Y69000000D01*
X16100000Y59900000D02*
X15975000Y59775000D01*
X34375000Y50375000D02*
X33300000Y50375000D01*
X23600000Y48100000D02*
X23530000Y48030000D01*
D82*
X67800000Y36500000D02*
X67950000Y36350000D01*
D80*
X15869000Y63095000D02*
X14175000Y63095000D01*
X23530000Y48030000D02*
X23530000Y46588000D01*
D82*
X72270000Y40980000D02*
X71150000Y40980000D01*
X72130000Y33808030D02*
X72130000Y34650000D01*
D80*
X80394500Y49870000D02*
X81324500Y50800000D01*
D81*
X10412500Y33037500D02*
X11000000Y33037500D01*
D82*
X53630000Y30920000D02*
X53150000Y31400000D01*
D80*
X23410000Y64365000D02*
X22665000Y65110000D01*
D85*
X86600000Y13600000D02*
X86600000Y12675000D01*
D82*
X71150000Y40980000D02*
X71020000Y40850000D01*
D80*
X40000000Y66900000D02*
X39900000Y67000000D01*
D83*
X6500000Y53100000D02*
X6700000Y53300000D01*
D82*
X53630000Y30825000D02*
X53630000Y30920000D01*
D80*
X30600000Y67000000D02*
X30600000Y67700000D01*
D83*
X6700000Y53300000D02*
X7460000Y53300000D01*
D82*
X74850000Y46350000D02*
X73950000Y45450000D01*
D83*
X43552889Y36225000D02*
X44750000Y36225000D01*
D80*
X11300000Y36800000D02*
X11400000Y36900000D01*
X15750000Y51500000D02*
X14825000Y50575000D01*
X25990000Y65635000D02*
X25990000Y67280000D01*
D82*
X53650000Y55170000D02*
X53830000Y55350000D01*
D83*
X9980000Y74050000D02*
X9980000Y75434000D01*
D82*
X62150000Y55474598D02*
X62150000Y53838000D01*
D80*
X45400000Y65425000D02*
X47425000Y65425000D01*
%TO.N,Net-(C3-Pad1)*%
X33900000Y67000000D02*
X33950000Y67050000D01*
X34900000Y69550000D02*
X34900000Y69925000D01*
X33950000Y68600000D02*
X34900000Y69550000D01*
X33950000Y67050000D02*
X33950000Y68600000D01*
%TO.N,Net-(C4-Pad1)*%
X35700000Y67000000D02*
X35700000Y68100000D01*
X38720000Y70500000D02*
X38720000Y69880000D01*
X38720000Y69880000D02*
X41175000Y67425000D01*
X35700000Y68100000D02*
X38100000Y70500000D01*
X38100000Y70500000D02*
X38720000Y70500000D01*
X41175000Y67425000D02*
X41300000Y67425000D01*
%TO.N,Net-(C5-Pad2)*%
X31275000Y69000000D02*
X31400000Y69000000D01*
X32100000Y68300000D02*
X32100000Y67300000D01*
X31400000Y69000000D02*
X32100000Y68300000D01*
X30875000Y69400000D02*
X31275000Y69000000D01*
%TO.N,/ADCS module/GYRO_FUSE_3*%
X42850000Y62200000D02*
X41430000Y60780000D01*
D82*
X30600000Y64000000D02*
X30600000Y61475000D01*
D80*
X41430000Y60780000D02*
X38500000Y60780000D01*
X32600000Y59200000D02*
X30525000Y61275000D01*
X33000000Y57900000D02*
X32600000Y58300000D01*
X32600000Y58300000D02*
X32600000Y59200000D01*
X44850000Y62350000D02*
X43650000Y62350000D01*
X43650000Y62350000D02*
X42850000Y63150000D01*
X38500000Y60780000D02*
X36726096Y60780000D01*
X36726096Y60780000D02*
X35450000Y59503904D01*
X35000000Y57900000D02*
X33000000Y57900000D01*
X35450000Y59503904D02*
X35450000Y58350000D01*
X42850000Y63150000D02*
X42850000Y62200000D01*
D82*
X30600000Y61475000D02*
X30525000Y61400000D01*
D80*
X35450000Y58350000D02*
X35000000Y57900000D01*
X30525000Y61275000D02*
X30525000Y61400000D01*
%TO.N,Net-(C7-Pad1)*%
X45075000Y68900000D02*
X47600000Y68900000D01*
X44775000Y69200000D02*
X45075000Y68900000D01*
D82*
%TO.N,Net-(C8-Pad1)*%
X45580000Y72600000D02*
X45580000Y74480000D01*
X47600000Y70800000D02*
X46100000Y70800000D01*
X45580000Y74480000D02*
X46400000Y75300000D01*
X46400000Y75300000D02*
X49000000Y75300000D01*
X46100000Y70800000D02*
X45580000Y71320000D01*
X45580000Y71320000D02*
X45580000Y72600000D01*
D80*
%TO.N,Net-(C9-Pad2)*%
X45625000Y67200000D02*
X45400000Y66975000D01*
X47700000Y67200000D02*
X45625000Y67200000D01*
D82*
%TO.N,/ADCS module/GYRO_FUSE_1*%
X8750000Y62650000D02*
X9350000Y62650000D01*
D80*
X8400000Y62300000D02*
X8750000Y62650000D01*
D82*
X11800000Y62990000D02*
X11200000Y62390000D01*
D80*
X8400000Y59800000D02*
X8400000Y62300000D01*
D82*
X9350000Y62650000D02*
X9610000Y62390000D01*
X14405000Y66905000D02*
X13100000Y66905000D01*
X11800000Y65605000D02*
X11800000Y62990000D01*
X9610000Y62390000D02*
X11200000Y62390000D01*
X13100000Y66905000D02*
X11800000Y65605000D01*
D80*
%TO.N,Net-(C11-Pad2)*%
X14425000Y60535000D02*
X14405000Y60555000D01*
X14425000Y58800000D02*
X14425000Y60535000D01*
D82*
%TO.N,/ADCS module/GYRO_FUSE_2*%
X57710000Y68900000D02*
X55710000Y70900000D01*
X53800000Y65625000D02*
X53475000Y65300000D01*
X56300000Y65600000D02*
X57710000Y67010000D01*
X53475000Y65300000D02*
X51100000Y65300000D01*
D80*
X57710000Y69810000D02*
X58600000Y70700000D01*
D82*
X51100000Y65300000D02*
X50700000Y65700000D01*
X55710000Y70900000D02*
X55700000Y70900000D01*
X57710000Y67010000D02*
X57710000Y68900000D01*
X53825000Y65600000D02*
X56300000Y65600000D01*
D80*
X57710000Y68800000D02*
X57710000Y69810000D01*
D82*
X53800000Y65625000D02*
X53825000Y65600000D01*
D80*
%TO.N,Net-(C13-Pad1)*%
X24770000Y63095000D02*
X25700000Y64025000D01*
X23835000Y63095000D02*
X24770000Y63095000D01*
D82*
%TO.N,Net-(C14-Pad1)*%
X15850000Y70950000D02*
X15225000Y70325000D01*
X21470000Y70230000D02*
X21470000Y70950000D01*
X24055000Y69445000D02*
X22255000Y69445000D01*
X15225000Y70325000D02*
X12000000Y70325000D01*
X22255000Y69445000D02*
X21470000Y70230000D01*
X21470000Y70950000D02*
X15850000Y70950000D01*
D80*
%TO.N,/ADCS_VDD*%
X70950000Y56200000D02*
X69560000Y57590000D01*
X55600000Y58250000D02*
X58960000Y58250000D01*
D83*
X36400000Y76700000D02*
X36990000Y76110000D01*
X71050000Y10650978D02*
X71050000Y11600000D01*
D82*
X61800000Y68974500D02*
X61800000Y67290000D01*
D80*
X23800000Y73500000D02*
X24800000Y72500000D01*
D83*
X71500000Y10000000D02*
X71500000Y10200978D01*
D82*
X37900000Y58600000D02*
X38500000Y59200000D01*
X55580000Y30800000D02*
X55580000Y30844500D01*
D80*
X12110000Y41090000D02*
X12110000Y39700000D01*
X65700000Y59000000D02*
X65700000Y58310000D01*
X6890000Y77900000D02*
X6200000Y78590000D01*
D82*
X72120000Y47920000D02*
X71750000Y47920000D01*
D80*
X65500000Y59200000D02*
X65700000Y59000000D01*
D83*
X36990000Y76110000D02*
X36990000Y75000000D01*
D84*
X24800000Y53100000D02*
X24600000Y53300000D01*
D82*
X47170000Y27370000D02*
X47350000Y27370000D01*
X45910000Y49140000D02*
X45910000Y48840000D01*
X48162000Y48850000D02*
X46130000Y48850000D01*
D87*
X63025000Y70275000D02*
X63025000Y74012000D01*
D82*
X50000000Y27100000D02*
X50775000Y27875000D01*
X46690000Y36910000D02*
X46450000Y36910000D01*
X53150000Y53838000D02*
X53150000Y55070000D01*
D84*
X24800000Y52012000D02*
X24800000Y53100000D01*
D80*
X75350000Y36950000D02*
X74750000Y36950000D01*
D82*
X55700000Y30800000D02*
X56300000Y30200000D01*
D80*
X23800000Y73700000D02*
X23800000Y73500000D01*
D82*
X77590000Y63190000D02*
X77590000Y64450000D01*
D83*
X43725000Y40425000D02*
X43725000Y40000000D01*
D82*
X55580000Y30844500D02*
X55150000Y31274500D01*
X68620000Y54808000D02*
X67650000Y53838000D01*
X50775000Y27875000D02*
X50775000Y27975000D01*
D80*
X76300000Y48400000D02*
X76250000Y48450000D01*
D82*
X61800000Y67290000D02*
X61850000Y67240000D01*
X72800000Y48600000D02*
X72120000Y47920000D01*
X70820000Y40350000D02*
X69638000Y40350000D01*
D83*
X45585000Y37775000D02*
X46450000Y36910000D01*
D82*
X68620000Y55770000D02*
X68620000Y55350000D01*
X48162000Y36350000D02*
X47250000Y36350000D01*
D80*
X71925000Y38000000D02*
X71450000Y37525000D01*
D82*
X52870000Y55680000D02*
X52870000Y55350000D01*
X46600000Y26800000D02*
X47170000Y27370000D01*
X47620000Y27100000D02*
X50000000Y27100000D01*
D80*
X7300000Y77900000D02*
X6890000Y77900000D01*
D82*
X52000000Y56550000D02*
X52870000Y55680000D01*
D80*
X69675000Y28975000D02*
X68800000Y28975000D01*
D82*
X11210000Y60514598D02*
X11210000Y60800000D01*
D83*
X7240000Y71180000D02*
X7260000Y71200000D01*
X44500000Y41200000D02*
X43725000Y40425000D01*
D80*
X64500000Y56810000D02*
X64210000Y57100000D01*
X74160000Y44900000D02*
X73460000Y44200000D01*
X76250000Y48450000D02*
X76250000Y49240000D01*
D87*
X67100000Y69800000D02*
X67475000Y70175000D01*
D82*
X11210000Y60800000D02*
X11200000Y60810000D01*
D80*
X58960000Y58250000D02*
X59700000Y57510000D01*
D82*
X77400000Y63000000D02*
X77590000Y63190000D01*
X68620000Y55350000D02*
X68620000Y54808000D01*
D80*
X58000000Y28590000D02*
X58210000Y28800000D01*
D82*
X71380000Y47920000D02*
X71750000Y47920000D01*
D83*
X71500000Y10200978D02*
X71050000Y10650978D01*
D80*
X74350000Y41100000D02*
X73440000Y41100000D01*
D84*
X30500000Y47600000D02*
X31100000Y48200000D01*
D80*
X73700000Y38000000D02*
X71925000Y38000000D01*
D87*
X67475000Y70175000D02*
X67475000Y72987500D01*
D80*
X11900000Y41300000D02*
X12110000Y41090000D01*
D82*
X71150000Y40020000D02*
X70820000Y40350000D01*
X36550000Y58600000D02*
X37900000Y58600000D01*
D83*
X43725000Y38800000D02*
X44750000Y37775000D01*
D82*
X70950000Y48350000D02*
X71380000Y47920000D01*
D83*
X44750000Y37775000D02*
X45585000Y37775000D01*
D82*
X47350000Y27370000D02*
X47620000Y27100000D01*
X45250000Y49800000D02*
X45910000Y49140000D01*
D87*
X63300000Y70000000D02*
X63025000Y70275000D01*
D80*
X70000000Y29300000D02*
X69675000Y28975000D01*
D82*
X53150000Y55070000D02*
X52870000Y55350000D01*
X72070000Y39100000D02*
X71150000Y40020000D01*
D80*
X64500000Y56100000D02*
X64500000Y56810000D01*
X54800000Y57300000D02*
X54800000Y56410000D01*
D83*
X7240000Y70070000D02*
X7240000Y71180000D01*
D80*
X53800000Y58300000D02*
X54800000Y57300000D01*
D82*
X69150000Y56300000D02*
X68620000Y55770000D01*
D84*
X30700000Y44462000D02*
X30500000Y44662000D01*
D80*
X75775500Y44900000D02*
X74160000Y44900000D01*
X73190000Y52410000D02*
X72200000Y52410000D01*
D82*
X55150000Y31274500D02*
X55150000Y32362000D01*
X12862299Y58862299D02*
X11210000Y60514598D01*
X44710000Y49800000D02*
X45250000Y49800000D01*
X59290000Y67610000D02*
X59290000Y68800000D01*
X74500000Y38700000D02*
X74100000Y39100000D01*
D83*
X44600000Y41200000D02*
X44500000Y41200000D01*
D82*
X55580000Y30800000D02*
X55700000Y30800000D01*
X47250000Y36350000D02*
X46690000Y36910000D01*
D80*
X24800000Y72500000D02*
X24990000Y72500000D01*
D82*
X74100000Y39100000D02*
X72070000Y39100000D01*
X69638000Y48350000D02*
X70950000Y48350000D01*
D80*
X73440000Y41100000D02*
X73400000Y41140000D01*
D82*
X60400000Y66500000D02*
X59290000Y67610000D01*
D80*
X58300000Y22600000D02*
X58000000Y22900000D01*
D83*
X43725000Y40000000D02*
X43725000Y38800000D01*
D80*
X73300000Y52300000D02*
X73190000Y52410000D01*
D82*
X45910000Y48840000D02*
X45940000Y48810000D01*
D80*
X59110000Y59200000D02*
X60800000Y57510000D01*
X57100000Y59200000D02*
X59110000Y59200000D01*
X69560000Y57590000D02*
X69150000Y57590000D01*
X58000000Y22900000D02*
X58000000Y28590000D01*
X74750000Y36950000D02*
X73700000Y38000000D01*
D84*
X30500000Y44662000D02*
X30500000Y47600000D01*
D83*
%TO.N,/ADCS module/CAN_TRX_FUSE_1*%
X35000000Y75000000D02*
X35410000Y75000000D01*
X33660000Y75165000D02*
X33900000Y74925000D01*
X34925000Y74925000D02*
X35000000Y75000000D01*
X35410000Y75000000D02*
X35410000Y78390000D01*
X31011000Y75165000D02*
X33660000Y75165000D01*
X33900000Y74925000D02*
X34925000Y74925000D01*
X35410000Y78390000D02*
X35200000Y78600000D01*
%TO.N,/ADCS module/CAN_TRX_FUSE_2*%
X8725000Y72800000D02*
X8725000Y73755000D01*
X9020000Y75434000D02*
X8865000Y75589000D01*
X8725000Y73755000D02*
X9020000Y74050000D01*
X9020000Y74050000D02*
X9020000Y75434000D01*
X8725000Y72800000D02*
X8725000Y71315000D01*
X8725000Y71315000D02*
X8840000Y71200000D01*
D82*
%TO.N,/ADCS module/TEMP_FUSE_1*%
X74750000Y65080000D02*
X73655000Y65080000D01*
X76010000Y64450000D02*
X75380000Y65080000D01*
X75380000Y65080000D02*
X74750000Y65080000D01*
X73655000Y65080000D02*
X73425000Y64850000D01*
%TO.N,/ADCS module/TEMP_FUSE_2*%
X61300000Y63900000D02*
X61775000Y63425000D01*
X61775000Y63425000D02*
X62600000Y63425000D01*
X61300000Y65110000D02*
X61300000Y63900000D01*
X63120000Y64595000D02*
X62600000Y64075000D01*
X63120000Y65400000D02*
X63120000Y64595000D01*
X61850000Y65660000D02*
X62860000Y65660000D01*
X62860000Y65660000D02*
X63120000Y65400000D01*
X61850000Y65660000D02*
X61300000Y65110000D01*
%TO.N,/ADCS module/MCU_RTC_IN*%
X43550000Y56400000D02*
X43550000Y56313000D01*
X46800000Y53063000D02*
X46800000Y51700000D01*
X43550000Y56313000D02*
X46425000Y53438000D01*
X46800000Y51700000D02*
X47150000Y51350000D01*
X47150000Y51350000D02*
X48162000Y51350000D01*
X46425000Y53438000D02*
X46800000Y53063000D01*
%TO.N,/ADCS module/Microcontroller/MCU_VDDUTMIC*%
X52670000Y30825000D02*
X52670000Y29980000D01*
X52650000Y32362000D02*
X52650000Y30845000D01*
X52670000Y29980000D02*
X54075000Y28575000D01*
X52650000Y30845000D02*
X52670000Y30825000D01*
X54075000Y28575000D02*
X54450000Y28575000D01*
%TO.N,/ADCS module/MCU_RTC_OUT*%
X47225000Y55575000D02*
X48300000Y55575000D01*
X46050000Y56400000D02*
X46400000Y56400000D01*
X46400000Y56400000D02*
X47225000Y55575000D01*
X48162000Y55437000D02*
X48162000Y51850000D01*
X48300000Y55575000D02*
X48162000Y55437000D01*
%TO.N,/ADCS module/Microcontroller/MCU_AD_REF_POS*%
X46400000Y39180000D02*
X46870000Y39180000D01*
X45075000Y40000000D02*
X46100000Y40000000D01*
X47050000Y38475478D02*
X47175478Y38350000D01*
X46400000Y39700000D02*
X46400000Y39180000D01*
X46100000Y40000000D02*
X46400000Y39700000D01*
X47175478Y38350000D02*
X48162000Y38350000D01*
X47050000Y39000000D02*
X47050000Y38475478D01*
X46870000Y39180000D02*
X47050000Y39000000D01*
%TO.N,/ADCS module/Microcontroller/MCU_VDDCORE*%
X57680000Y55320000D02*
X56300000Y55320000D01*
X72120000Y46880000D02*
X71150000Y46880000D01*
X46680000Y35000000D02*
X46680000Y34055000D01*
X46680000Y50920000D02*
X46680000Y50550000D01*
X56300000Y55320000D02*
X56650000Y54970000D01*
X47250000Y48350000D02*
X48162000Y48350000D01*
X46880000Y50350000D02*
X46680000Y50550000D01*
X46680000Y34055000D02*
X46375000Y33750000D01*
X72500000Y46500000D02*
X72120000Y46880000D01*
X46280000Y46754500D02*
X46680000Y47154500D01*
X71150000Y47275500D02*
X70575500Y47850000D01*
X70970000Y34850000D02*
X71170000Y34650000D01*
X48162000Y50350000D02*
X46880000Y50350000D01*
D84*
X43300000Y31300000D02*
X44350000Y31300000D01*
D82*
X69638000Y34850000D02*
X70970000Y34850000D01*
X46680000Y47154500D02*
X46680000Y47780000D01*
X53650000Y26975500D02*
X53899500Y27225000D01*
X57700000Y55300000D02*
X57680000Y55320000D01*
X71200000Y34620000D02*
X71200000Y33500000D01*
D84*
X44350000Y31300000D02*
X46375000Y33325000D01*
D82*
X70575500Y47850000D02*
X69638000Y47850000D01*
X47030000Y35350000D02*
X46680000Y35000000D01*
X62875000Y28325000D02*
X61900000Y28325000D01*
X45803305Y51672096D02*
X45927904Y51672096D01*
X62900000Y28300000D02*
X62875000Y28325000D01*
X48162000Y35350000D02*
X47030000Y35350000D01*
X45927904Y51672096D02*
X46680000Y50920000D01*
X71170000Y34650000D02*
X71200000Y34620000D01*
X46680000Y47780000D02*
X47250000Y48350000D01*
D84*
X46375000Y33325000D02*
X46375000Y33750000D01*
D82*
X71150000Y46880000D02*
X71150000Y47275500D01*
X53899500Y27225000D02*
X54450000Y27225000D01*
X56650000Y54970000D02*
X56650000Y53838000D01*
D80*
%TO.N,/ADCS module/Microcontroller/MCU_VDDPLL*%
X61170000Y30880000D02*
X61900000Y30150000D01*
X60650000Y30905000D02*
X60625000Y30880000D01*
X60650000Y32362000D02*
X60650000Y30905000D01*
X60625000Y30880000D02*
X61170000Y30880000D01*
X61900000Y30150000D02*
X61900000Y29675000D01*
%TO.N,/ADCS module/Connectors/PD_CATHODE_1*%
X23500000Y34525000D02*
X23500000Y18750000D01*
X28200000Y37575000D02*
X28200000Y38998000D01*
X23500000Y18750000D02*
X20450000Y15700000D01*
X29425000Y36325000D02*
X29425000Y36350000D01*
X28200000Y38998000D02*
X28160000Y39038000D01*
X20450000Y15700000D02*
X20450000Y9610000D01*
X23725000Y34300000D02*
X27400000Y34300000D01*
X23500000Y34525000D02*
X23725000Y34300000D01*
X29425000Y36350000D02*
X28200000Y37575000D01*
X27400000Y34300000D02*
X29425000Y36325000D01*
%TO.N,/ADCS module/Connectors/OP-AMP_OUT_1*%
X27350000Y36775000D02*
X27350000Y38578000D01*
X23175000Y37400000D02*
X25249114Y37400000D01*
X23500000Y36075000D02*
X23925000Y36500000D01*
X23050000Y37525000D02*
X23175000Y37400000D01*
X27350000Y38578000D02*
X26890000Y39038000D01*
X27775000Y36350000D02*
X27350000Y36775000D01*
X27625000Y36500000D02*
X27775000Y36350000D01*
X23925000Y36500000D02*
X27625000Y36500000D01*
X26887114Y39038000D02*
X26890000Y39038000D01*
X25249114Y37400000D02*
X26887114Y39038000D01*
%TO.N,/ADCS module/Connectors/PD_CATHODE_2*%
X36375000Y43350000D02*
X37525000Y43350000D01*
X22600000Y43200000D02*
X32445500Y43200000D01*
X21500000Y42100000D02*
X22600000Y43200000D01*
X34025000Y43075000D02*
X36100000Y43075000D01*
X36100000Y43075000D02*
X36375000Y43350000D01*
X33240000Y43860000D02*
X34025000Y43075000D01*
X33240000Y44462000D02*
X33240000Y43860000D01*
X33240000Y43994500D02*
X33240000Y44462000D01*
X14950000Y42100000D02*
X21500000Y42100000D01*
X9610000Y43750000D02*
X13300000Y43750000D01*
X32445500Y43200000D02*
X33240000Y43994500D01*
X13300000Y43750000D02*
X14950000Y42100000D01*
X37525000Y43350000D02*
X37650000Y43475000D01*
%TO.N,/ADCS module/Connectors/OP-AMP_OUT_2*%
X37650000Y45125000D02*
X39075000Y43700000D01*
X39075000Y43700000D02*
X39175000Y43700000D01*
X36100000Y44625000D02*
X36600000Y45125000D01*
X35937000Y44462000D02*
X36100000Y44625000D01*
X36600000Y45125000D02*
X37650000Y45125000D01*
X34510000Y44462000D02*
X35937000Y44462000D01*
%TO.N,/ADCS module/Connectors/PD_CATHODE_3*%
X35000000Y33200000D02*
X35000000Y26000000D01*
X35000000Y26000000D02*
X36500000Y24500000D01*
X36500000Y16700000D02*
X33938500Y14138500D01*
X33938500Y14138500D02*
X33938500Y9624825D01*
X33925000Y35500000D02*
X33900000Y35525000D01*
X33775000Y37100000D02*
X33775000Y37675000D01*
X33775000Y37675000D02*
X33240000Y38210000D01*
X33900000Y36975000D02*
X33775000Y37100000D01*
X33240000Y38210000D02*
X33240000Y39038000D01*
X33900000Y35525000D02*
X33900000Y36975000D01*
X33925000Y35500000D02*
X33925000Y34275000D01*
X36500000Y24500000D02*
X36500000Y16700000D01*
X33925000Y34275000D02*
X35000000Y33200000D01*
%TO.N,/ADCS module/Connectors/OP-AMP_OUT_3*%
X34510000Y38490000D02*
X34510000Y39038000D01*
X35475000Y35500000D02*
X35425000Y35550000D01*
X36975000Y40000000D02*
X35472000Y40000000D01*
X35425000Y37575000D02*
X34510000Y38490000D01*
X35425000Y35550000D02*
X35425000Y37100000D01*
X35425000Y37100000D02*
X35425000Y37575000D01*
X35472000Y40000000D02*
X34510000Y39038000D01*
%TO.N,/ADCS module/Connectors/PD_CATHODE_4*%
X20575000Y43900000D02*
X21475000Y44800000D01*
X17795000Y43355000D02*
X18460000Y43355000D01*
X12650000Y48500000D02*
X17795000Y43355000D01*
X21475000Y44800000D02*
X22260000Y45585000D01*
X9610000Y48500000D02*
X12650000Y48500000D01*
X19005000Y43900000D02*
X20575000Y43900000D01*
X18460000Y43355000D02*
X19005000Y43900000D01*
X22260000Y45585000D02*
X22260000Y46588000D01*
%TO.N,/ADCS module/Connectors/OP-AMP_OUT_4*%
X20990000Y46588000D02*
X19587000Y46588000D01*
X18665000Y44800000D02*
X18460000Y45005000D01*
X19925000Y44800000D02*
X18665000Y44800000D01*
X19925000Y44925000D02*
X20990000Y45990000D01*
X19925000Y44800000D02*
X19925000Y44925000D01*
X19587000Y46588000D02*
X19400000Y46775000D01*
X20990000Y45990000D02*
X20990000Y46588000D01*
%TO.N,/ADCS module/Connectors/PD_CATHODE_5*%
X21975000Y53850000D02*
X22250000Y53575000D01*
X7460000Y54500000D02*
X7510000Y54550000D01*
X22250000Y52022000D02*
X22260000Y52012000D01*
X22250000Y53575000D02*
X22250000Y52022000D01*
X21025000Y54800000D02*
X14975000Y54800000D01*
X21975000Y53850000D02*
X21025000Y54800000D01*
X7510000Y54550000D02*
X14175000Y54550000D01*
X14975000Y54800000D02*
X14450000Y54275000D01*
X14175000Y54550000D02*
X14450000Y54275000D01*
%TO.N,/ADCS module/Connectors/OP-AMP_OUT_5*%
X20325000Y53850000D02*
X20990000Y53185000D01*
X16975000Y52800000D02*
X14525000Y52800000D01*
X18525000Y52500000D02*
X17900000Y51875000D01*
X20990000Y52012000D02*
X20502000Y52500000D01*
X20990000Y53185000D02*
X20990000Y52012000D01*
X14525000Y52800000D02*
X14450000Y52725000D01*
X20502000Y52500000D02*
X18525000Y52500000D01*
X17900000Y51875000D02*
X16975000Y52800000D01*
%TO.N,ADM_PD*%
X27200000Y52152000D02*
X27340000Y52012000D01*
X29400000Y56000000D02*
X30200000Y55200000D01*
X28100000Y55425000D02*
X27200000Y54525000D01*
X29400000Y56000000D02*
X28675000Y56000000D01*
X27200000Y54525000D02*
X27200000Y52152000D01*
X30200000Y55200000D02*
X30200000Y54975000D01*
X28675000Y56000000D02*
X28100000Y55425000D01*
%TO.N,/ADCS module/Connectors/OP-AMP_OUT_6*%
X30063000Y52012000D02*
X28610000Y52012000D01*
X28610000Y53265000D02*
X28100000Y53775000D01*
X30200000Y53425000D02*
X29850000Y53775000D01*
X30175000Y51900000D02*
X30063000Y52012000D01*
X29850000Y53775000D02*
X28100000Y53775000D01*
X28610000Y52012000D02*
X28610000Y53265000D01*
%TO.N,/ADCS module/PD_OUT_1*%
X41739520Y42799520D02*
X39740000Y40800000D01*
X25175000Y40000000D02*
X25250000Y39925000D01*
X46650000Y43350000D02*
X46099520Y42799520D01*
X26125000Y40800000D02*
X25250000Y39925000D01*
X39740000Y40800000D02*
X26125000Y40800000D01*
X46099520Y42799520D02*
X41739520Y42799520D01*
X48162000Y43350000D02*
X46650000Y43350000D01*
X23050000Y39175000D02*
X23875000Y40000000D01*
X23875000Y40000000D02*
X25175000Y40000000D01*
%TO.N,/ADCS module/PD_OUT_2*%
X48162000Y43850000D02*
X46050000Y43850000D01*
X40775000Y44825000D02*
X40825000Y44775000D01*
X46050000Y43850000D02*
X45600000Y43400000D01*
X40775000Y45300000D02*
X40775000Y44825000D01*
X45600000Y43400000D02*
X41125000Y43400000D01*
X41125000Y43400000D02*
X40825000Y43700000D01*
X40825000Y44775000D02*
X40825000Y43700000D01*
%TO.N,/ADCS module/PD_OUT_3*%
X38475000Y38100000D02*
X38475000Y39850000D01*
X47125478Y42850000D02*
X46475478Y42200000D01*
X48162000Y42850000D02*
X47125478Y42850000D01*
X42700000Y42200000D02*
X40500000Y40000000D01*
X38475000Y39850000D02*
X38625000Y40000000D01*
X46475478Y42200000D02*
X42700000Y42200000D01*
X40500000Y40000000D02*
X38625000Y40000000D01*
%TO.N,/ADCS module/PD_OUT_4*%
X33500000Y47190000D02*
X41110000Y47190000D01*
X19350000Y48375000D02*
X19400000Y48425000D01*
X41110000Y47190000D02*
X43450000Y44850000D01*
X17900000Y48375000D02*
X19350000Y48375000D01*
X19400000Y48425000D02*
X20125000Y49150000D01*
X20125000Y49150000D02*
X31540000Y49150000D01*
X31540000Y49150000D02*
X33500000Y47190000D01*
X43450000Y44850000D02*
X48162000Y44850000D01*
%TO.N,/ADCS module/PD_OUT_5*%
X16400000Y50225000D02*
X17900000Y50225000D01*
X33565718Y47760000D02*
X31726198Y49599520D01*
X48162000Y45350000D02*
X44250000Y45350000D01*
X16375000Y50200000D02*
X16400000Y50225000D01*
X44250000Y45350000D02*
X41840000Y47760000D01*
X31726198Y49599520D02*
X18525480Y49599520D01*
X41840000Y47760000D02*
X33565718Y47760000D01*
X18525480Y49599520D02*
X17900000Y50225000D01*
%TO.N,/ADCS module/PD_OUT_6*%
X41200000Y49700000D02*
X45050000Y45850000D01*
X31825000Y51900000D02*
X33275000Y51900000D01*
X33325000Y51900000D02*
X35030000Y51900000D01*
X37230000Y49700000D02*
X41200000Y49700000D01*
X45050000Y45850000D02*
X48162000Y45850000D01*
X35030000Y51900000D02*
X37230000Y49700000D01*
X33300000Y51925000D02*
X33325000Y51900000D01*
X33275000Y51900000D02*
X33300000Y51925000D01*
%TO.N,Net-(D1-PadA)*%
X41300000Y66175000D02*
X41300000Y65050000D01*
X40050000Y63800000D02*
X40050000Y63150000D01*
X41300000Y65050000D02*
X40050000Y63800000D01*
X35700000Y64000000D02*
X35700000Y62475000D01*
X36375000Y61800000D02*
X38700000Y61800000D01*
X38700000Y61800000D02*
X40050000Y63150000D01*
X35700000Y62475000D02*
X36375000Y61800000D01*
D82*
%TO.N,Net-(D2-PadA)*%
X52300000Y71100000D02*
X54900000Y73700000D01*
X54900000Y73700000D02*
X55700000Y73700000D01*
X54200000Y75200000D02*
X55500000Y73900000D01*
X50900000Y71100000D02*
X52300000Y71100000D01*
X50325000Y75200000D02*
X54200000Y75200000D01*
X55500000Y73900000D02*
X55500000Y73700000D01*
X50600000Y70800000D02*
X50900000Y71100000D01*
D80*
%TO.N,Net-(D3-PadA)*%
X12000000Y69075000D02*
X12175000Y69250000D01*
X8750000Y65450000D02*
X10250000Y66950000D01*
X11025000Y69075000D02*
X12000000Y69075000D01*
X12175000Y69250000D02*
X14210000Y69250000D01*
X14210000Y69250000D02*
X14405000Y69445000D01*
X10250000Y66950000D02*
X10250000Y68300000D01*
X10250000Y68300000D02*
X11025000Y69075000D01*
D81*
%TO.N,/ADCS module/MAG_FUSE*%
X11900000Y34600000D02*
X12600000Y33900000D01*
X13990000Y40000000D02*
X15500000Y40000000D01*
D80*
X13255000Y36355000D02*
X13255000Y36900000D01*
X13625000Y38150000D02*
X13300000Y37825000D01*
D81*
X12600000Y33900000D02*
X12600000Y33037500D01*
X15400000Y36900000D02*
X17000000Y35300000D01*
D80*
X11900000Y35800000D02*
X12700000Y35800000D01*
D81*
X17000000Y31100000D02*
X16700000Y30800000D01*
X13690000Y39700000D02*
X13990000Y40000000D01*
X15500000Y30800000D02*
X15200000Y31100000D01*
X17000000Y35300000D02*
X17000000Y31100000D01*
D80*
X13300000Y37825000D02*
X13300000Y36945000D01*
D81*
X11900000Y35800000D02*
X11900000Y34600000D01*
X13625000Y39635000D02*
X13690000Y39700000D01*
X15200000Y31100000D02*
X14137500Y31100000D01*
D80*
X9500000Y28900000D02*
X9762500Y29162500D01*
X12700000Y35800000D02*
X13255000Y36355000D01*
D81*
X13625000Y38150000D02*
X13625000Y39635000D01*
X16700000Y30800000D02*
X15500000Y30800000D01*
D80*
X13300000Y36945000D02*
X13255000Y36900000D01*
D81*
X13255000Y36900000D02*
X15400000Y36900000D01*
D80*
X9762500Y29162500D02*
X10975000Y29162500D01*
D84*
%TO.N,/ADCS module/Over-voltage Protection/3V3_OC_PROT*%
X66825000Y77212500D02*
X66825000Y78825000D01*
D87*
X71100000Y80250000D02*
X71100000Y81200000D01*
D84*
X72300000Y78600000D02*
X72925000Y78600000D01*
X70150000Y79300000D02*
X71100000Y80250000D01*
D87*
X71100000Y81200000D02*
X70850000Y81450000D01*
D84*
X71100000Y80250000D02*
X70850000Y80500000D01*
X71100000Y79800000D02*
X72300000Y78600000D01*
X66825000Y78825000D02*
X67300000Y79300000D01*
D87*
X70850000Y81450000D02*
X63525478Y81450000D01*
X63025000Y80949522D02*
X63025000Y79888000D01*
D84*
X72925000Y78600000D02*
X73800000Y77725000D01*
D87*
X63525478Y81450000D02*
X63025000Y80949522D01*
D84*
X67300000Y79300000D02*
X70150000Y79300000D01*
X68675000Y80500000D02*
X68475000Y80300000D01*
X70850000Y80500000D02*
X68675000Y80500000D01*
X71100000Y80250000D02*
X71100000Y79800000D01*
D88*
%TO.N,/EPS_3V3_ADCS*%
X72468000Y83309000D02*
X73300000Y82477000D01*
X73300000Y82477000D02*
X73300000Y80250000D01*
D89*
%TO.N,/EPS_3V3_RW*%
X86700000Y42100000D02*
X78200000Y33600000D01*
X78200000Y33600000D02*
X78200000Y19885000D01*
X86700000Y56500000D02*
X86700000Y42100000D01*
%TO.N,/ADCS module/RW_FUSE*%
X69800000Y9900000D02*
X69800000Y11600000D01*
X78200000Y18315000D02*
X78200000Y11900000D01*
X74800000Y8500000D02*
X71200000Y8500000D01*
X80185000Y18315000D02*
X80200000Y18300000D01*
X71200000Y8500000D02*
X69800000Y9900000D01*
X78200000Y18315000D02*
X80185000Y18315000D01*
X78200000Y11900000D02*
X74800000Y8500000D01*
D80*
%TO.N,/I2C_MTQ_SDA*%
X65400000Y43800000D02*
X66350000Y42850000D01*
X70650000Y42850000D02*
X69638000Y42850000D01*
X66350000Y42850000D02*
X69638000Y42850000D01*
X71340000Y42160000D02*
X70650000Y42850000D01*
X73560000Y42000000D02*
X73400000Y42160000D01*
X77774500Y42000000D02*
X73560000Y42000000D01*
X73400000Y42160000D02*
X71340000Y42160000D01*
X78274500Y42500000D02*
X77774500Y42000000D01*
%TO.N,/I2C_MTQ_SCK*%
X74090000Y51390000D02*
X72200000Y51390000D01*
X64750000Y48150000D02*
X66650000Y48150000D01*
X68350000Y49850000D02*
X69638000Y49850000D01*
X70850000Y49850000D02*
X69638000Y49850000D01*
X57800000Y41200000D02*
X64750000Y48150000D01*
X80800000Y54100000D02*
X78750000Y52050000D01*
X72200000Y51200000D02*
X70850000Y49850000D01*
X78750000Y52050000D02*
X74750000Y52050000D01*
X72200000Y51390000D02*
X72200000Y51200000D01*
X54824500Y41200000D02*
X57800000Y41200000D01*
X53900000Y40275500D02*
X54824500Y41200000D01*
X74750000Y52050000D02*
X74090000Y51390000D01*
X66650000Y48150000D02*
X68350000Y49850000D01*
%TO.N,/ADCS_SWDIO*%
X69638000Y48850000D02*
X70650000Y48850000D01*
X78729735Y46347576D02*
X79385576Y46347576D01*
X70650000Y48850000D02*
X72000000Y50200000D01*
X76265000Y50260000D02*
X76250000Y50260000D01*
X77600000Y48925000D02*
X76265000Y50260000D01*
X72000000Y50200000D02*
X76190000Y50200000D01*
X78729735Y46347576D02*
X77600000Y47477311D01*
X79385576Y46347576D02*
X80368000Y47330000D01*
X77600000Y47477311D02*
X77600000Y48925000D01*
X76190000Y50200000D02*
X76250000Y50260000D01*
%TO.N,/ADCS_UART_TX*%
X76350000Y56800000D02*
X79400000Y59850000D01*
X67614282Y52300000D02*
X68664282Y53350000D01*
X64650000Y52650000D02*
X65000000Y52300000D01*
X73600000Y56800000D02*
X76350000Y56800000D01*
X38200000Y87097000D02*
X36908000Y88389000D01*
X68664282Y53350000D02*
X70150000Y53350000D01*
X65000000Y52300000D02*
X67614282Y52300000D01*
X70150000Y53350000D02*
X73600000Y56800000D01*
X79400000Y83650000D02*
X78500000Y84550000D01*
X78500000Y84550000D02*
X38700000Y84550000D01*
X38200000Y85050000D02*
X38200000Y87097000D01*
X64650000Y53838000D02*
X64650000Y52650000D01*
X38700000Y84550000D02*
X38200000Y85050000D01*
X79400000Y59850000D02*
X79400000Y83650000D01*
%TO.N,/ADCS_UART_RX*%
X70600000Y52600000D02*
X72950000Y54950000D01*
X38900000Y89650000D02*
X37621000Y90929000D01*
X76650000Y54950000D02*
X82850000Y61150000D01*
X79050000Y87100000D02*
X41100000Y87100000D01*
X72950000Y54950000D02*
X76650000Y54950000D01*
X68000000Y51100000D02*
X68000000Y52050000D01*
X68550000Y52600000D02*
X70600000Y52600000D01*
X41100000Y87100000D02*
X40700000Y87500000D01*
X40050000Y89650000D02*
X38900000Y89650000D01*
X68250000Y50850000D02*
X68000000Y51100000D01*
X40700000Y87500000D02*
X40700000Y89000000D01*
X40700000Y89000000D02*
X40050000Y89650000D01*
X69638000Y50850000D02*
X68250000Y50850000D01*
X68000000Y52050000D02*
X68550000Y52600000D01*
X82850000Y83300000D02*
X79050000Y87100000D01*
X82850000Y61150000D02*
X82850000Y83300000D01*
X37621000Y90929000D02*
X36908000Y90929000D01*
%TO.N,/ADCS_SWCLK*%
X78800000Y44700000D02*
X77050000Y42950000D01*
X80400000Y44700000D02*
X78800000Y44700000D01*
X69638000Y43850000D02*
X70550000Y43850000D01*
X74900000Y42950000D02*
X73690000Y42950000D01*
X77050000Y42950000D02*
X74900000Y42950000D01*
X82832000Y47132000D02*
X80400000Y44700000D01*
X73690000Y42950000D02*
X72440000Y44200000D01*
X70900000Y44200000D02*
X72440000Y44200000D01*
X70550000Y43850000D02*
X70900000Y44200000D01*
X82832000Y48600000D02*
X82832000Y47132000D01*
%TO.N,/ADCS_RESET*%
X59200000Y40000000D02*
X66050000Y46850000D01*
X66050000Y46850000D02*
X69638000Y46850000D01*
X56800000Y40000000D02*
X59200000Y40000000D01*
%TO.N,/ADCS module/RW_SDA*%
X72300000Y11600000D02*
X72300000Y10700000D01*
X71450000Y35875000D02*
X71425000Y35850000D01*
X72300000Y10700000D02*
X73200000Y9800000D01*
X73200000Y9800000D02*
X74799022Y9800000D01*
X74550000Y35850000D02*
X71475000Y35850000D01*
X76300000Y11300978D02*
X76300000Y34100000D01*
X71425000Y35850000D02*
X69638000Y35850000D01*
X74799022Y9800000D02*
X76300000Y11300978D01*
X71475000Y35850000D02*
X71450000Y35875000D01*
X76300000Y34100000D02*
X74550000Y35850000D01*
%TO.N,/ADCS module/RW_SCK*%
X73474518Y21700000D02*
X73800000Y21700000D01*
X67650000Y32362000D02*
X68138000Y32362000D01*
X74100000Y21400000D02*
X74100000Y19500700D01*
X73474518Y25300000D02*
X74100000Y25300000D01*
X73500000Y16800000D02*
X73500000Y11650000D01*
X74100000Y22300000D02*
X73474518Y22300000D01*
X73474518Y22900000D02*
X74100000Y22900000D01*
X74100000Y19500700D02*
X74100000Y17400000D01*
X74400000Y25900000D02*
X73474518Y25900000D01*
X74100000Y23500000D02*
X73474518Y23500000D01*
X73474518Y24100000D02*
X74100000Y24100000D01*
X74400000Y26500000D02*
X74725482Y26500000D01*
X74725482Y25900000D02*
X74400000Y25900000D01*
X74725482Y23500000D02*
X74100000Y23500000D01*
X74100000Y24700000D02*
X73474518Y24700000D01*
X74725482Y22300000D02*
X74100000Y22300000D01*
X68800000Y31700000D02*
X68800000Y30625000D01*
X74100000Y17400000D02*
X73500000Y16800000D01*
X74100000Y22900000D02*
X74725482Y22900000D01*
X74100000Y27100000D02*
X74100000Y26800000D01*
X70575000Y30625000D02*
X74100000Y27100000D01*
X68138000Y32362000D02*
X68800000Y31700000D01*
X68800000Y30625000D02*
X70575000Y30625000D01*
X73500000Y11650000D02*
X73550000Y11600000D01*
X74725482Y24700000D02*
X74100000Y24700000D01*
X74100000Y25300000D02*
X74725482Y25300000D01*
X74100000Y24100000D02*
X74725482Y24100000D01*
X73174500Y24400000D02*
G75*
G02*
X73474518Y24700000I300000J0D01*
G01*
X75025500Y22600000D02*
G75*
G03*
X74725482Y22900000I-300000J0D01*
G01*
X74400000Y26500000D02*
G75*
G02*
X74100000Y26800000I0J300000D01*
G01*
X75025500Y23800000D02*
G75*
G03*
X74725482Y24100000I-300000J0D01*
G01*
X73474518Y24100018D02*
G75*
G02*
X73174518Y24400000I-18J299982D01*
G01*
X73474518Y25300018D02*
G75*
G02*
X73174518Y25600000I-18J299982D01*
G01*
X75025500Y26200000D02*
G75*
G03*
X74725482Y26500000I-300000J0D01*
G01*
X73174500Y25600000D02*
G75*
G02*
X73474518Y25900000I300000J0D01*
G01*
X73474518Y22900018D02*
G75*
G02*
X73174518Y23200000I-18J299982D01*
G01*
X74725482Y22300018D02*
G75*
G03*
X75025482Y22600000I18J299982D01*
G01*
X73174500Y22000000D02*
G75*
G02*
X73474518Y22300000I300000J0D01*
G01*
X74100000Y21400000D02*
G75*
G03*
X73800000Y21700000I-300000J0D01*
G01*
X74725482Y23500018D02*
G75*
G03*
X75025482Y23800000I18J299982D01*
G01*
X73474518Y21700018D02*
G75*
G02*
X73174518Y22000000I-18J299982D01*
G01*
X74725482Y25900018D02*
G75*
G03*
X75025482Y26200000I18J299982D01*
G01*
X73174500Y23200000D02*
G75*
G02*
X73474518Y23500000I300000J0D01*
G01*
X74725482Y24700018D02*
G75*
G03*
X75025482Y25000000I18J299982D01*
G01*
X75025500Y25000000D02*
G75*
G03*
X74725482Y25300000I-300000J0D01*
G01*
%TO.N,/ADCS module/ADCS_TRACECLK*%
X64950000Y20250000D02*
X64425000Y19725000D01*
X63788604Y19088601D02*
X63788603Y19088602D01*
X65650000Y23700000D02*
X64950000Y23000000D01*
X60200000Y15500000D02*
X60200000Y11838000D01*
X64950000Y23000000D02*
X64950000Y20250000D01*
X64425000Y19406800D02*
X64424999Y19406800D01*
X64424999Y19406800D02*
X64695387Y19136412D01*
X65650000Y32362000D02*
X65650000Y23700000D01*
X64377189Y18818214D02*
X64106802Y19088601D01*
X63788603Y19088602D02*
X60200000Y15500000D01*
X64377190Y18818215D02*
G75*
G03*
X64695386Y18818215I159098J159098D01*
G01*
X63788605Y19088600D02*
G75*
G02*
X64106801Y19088600I159098J-159098D01*
G01*
X64425000Y19406800D02*
G75*
G02*
X64425000Y19725000I159100J159100D01*
G01*
X64695400Y18818201D02*
G75*
G03*
X64695387Y19136412I-159100J159099D01*
G01*
%TO.N,/ADCS module/ADCS_TRACED_3*%
X64800000Y25100000D02*
X62800000Y23100000D01*
X62800000Y23100000D02*
X62800000Y20250000D01*
X61550001Y18777521D02*
X61550001Y18777520D01*
X61550003Y18555043D02*
X61454281Y18459322D01*
X61009327Y18459322D02*
X59000000Y16450000D01*
X62650000Y32362000D02*
X62650000Y31350000D01*
X59000000Y16450000D02*
X59000000Y11838000D01*
X62650000Y31350000D02*
X64800000Y29200000D01*
X61550001Y18777520D02*
X61550002Y18777519D01*
X61231804Y18459323D02*
X61231805Y18459321D01*
X62800000Y20250000D02*
X62050000Y19500000D01*
X62050000Y19500000D02*
X62050000Y19499997D01*
X62050000Y19499997D02*
X61550001Y18999999D01*
X61550003Y18555042D02*
X61550003Y18555043D01*
X61009328Y18459322D02*
X61009327Y18459322D01*
X64800000Y29200000D02*
X64800000Y25100000D01*
X61549983Y18555062D02*
G75*
G03*
X61550002Y18777519I-111183J111238D01*
G01*
X61550041Y18777561D02*
G75*
G02*
X61550001Y18999999I111159J111239D01*
G01*
X61231762Y18459281D02*
G75*
G03*
X61454280Y18459323I111238J111319D01*
G01*
X61009363Y18459287D02*
G75*
G02*
X61231804Y18459320I111237J-111187D01*
G01*
%TO.N,/ADCS module/ADCS_TRACED_2*%
X57800000Y17600000D02*
X57800000Y11838000D01*
X57800000Y17600000D02*
X61200000Y21000000D01*
X64000000Y27600000D02*
X61200000Y24800000D01*
X61200000Y24800000D02*
X61200000Y21000000D01*
X64000000Y28975478D02*
X64000000Y27600000D01*
X61650000Y31325478D02*
X64000000Y28975478D01*
X61650000Y32362000D02*
X61650000Y31325478D01*
%TO.N,/ADCS module/ADCS_TRACED_1*%
X59800000Y21000000D02*
X56600000Y17800000D01*
X59650000Y30938417D02*
X59800000Y30788417D01*
X57056953Y15125000D02*
X56825000Y15125000D01*
X56825000Y15125000D02*
X56143047Y15125000D01*
X56143047Y14675000D02*
X56375000Y14675000D01*
X59800000Y30788417D02*
X59800000Y21000000D01*
X59650000Y32362000D02*
X59650000Y30938417D01*
X56600000Y14450000D02*
X56600000Y11838000D01*
X56600000Y17800000D02*
X56600000Y15800000D01*
X56825000Y15575000D02*
X57056953Y15575000D01*
X57282000Y15350000D02*
G75*
G03*
X57056953Y15575000I-225000J0D01*
G01*
X56825000Y15575000D02*
G75*
G02*
X56600000Y15800000I0J225000D01*
G01*
X56600000Y14450000D02*
G75*
G03*
X56375000Y14675000I-225000J0D01*
G01*
X56143047Y14675047D02*
G75*
G02*
X55918047Y14900000I-47J224953D01*
G01*
X57056953Y15125047D02*
G75*
G03*
X57281953Y15350000I47J224953D01*
G01*
X55918000Y14900000D02*
G75*
G02*
X56143047Y15125000I225000J0D01*
G01*
%TO.N,/ADCS module/ADCS_TRACED_0*%
X59150000Y30802021D02*
X59350000Y30602021D01*
X55175000Y16975000D02*
X54523350Y16975000D01*
X54523350Y16525000D02*
X55175000Y16525000D01*
X55400000Y17940000D02*
X55400000Y17200000D01*
X59350000Y21890000D02*
X55400000Y17940000D01*
X59150000Y32362000D02*
X59150000Y30802021D01*
X59350000Y30602021D02*
X59350000Y21890000D01*
X55400000Y13550000D02*
X55400000Y11838000D01*
X55400000Y16300000D02*
X55400000Y13550000D01*
X55400000Y16300000D02*
G75*
G03*
X55175000Y16525000I-225000J0D01*
G01*
X54298400Y16750000D02*
G75*
G02*
X54523350Y16975000I225000J0D01*
G01*
X54523350Y16524950D02*
G75*
G02*
X54298350Y16750000I50J225050D01*
G01*
X55175000Y16975000D02*
G75*
G03*
X55400000Y17200000I0J225000D01*
G01*
D83*
%TO.N,Net-(Q2-Pad4)*%
X64975000Y79888000D02*
X64975000Y74012000D01*
D84*
X64975000Y74012000D02*
X65647470Y74012000D01*
X65647470Y74012000D02*
X66671970Y72987500D01*
X66671970Y72987500D02*
X66825000Y72987500D01*
D81*
%TO.N,Net-(R7-Pad2)*%
X10710000Y35090000D02*
X12200000Y33600000D01*
X12200000Y33600000D02*
X12200000Y33037500D01*
X10710000Y35850000D02*
X10710000Y35090000D01*
D80*
%TO.N,/ADCS module/Magnetometer/XINP*%
X7610000Y29910000D02*
X8100000Y29910000D01*
X13400000Y21100000D02*
X15600000Y21100000D01*
D81*
X8900000Y30300000D02*
X8510000Y29910000D01*
X8510000Y29910000D02*
X8100000Y29910000D01*
X10262500Y30300000D02*
X8900000Y30300000D01*
D80*
X7100000Y29400000D02*
X7610000Y29910000D01*
D81*
%TO.N,/ADCS module/Magnetometer/XDRVP*%
X10262500Y29900000D02*
X9110000Y29900000D01*
X9110000Y29900000D02*
X8100000Y28890000D01*
%TO.N,/ADCS module/Magnetometer/YINP*%
X11790000Y27690000D02*
X11790000Y27350000D01*
D80*
X18400000Y24600000D02*
X18400000Y26400000D01*
D81*
X12200000Y29162500D02*
X12200000Y28100000D01*
D80*
X11700000Y27260000D02*
X11790000Y27350000D01*
X11700000Y26200000D02*
X11700000Y27260000D01*
D81*
X12200000Y28100000D02*
X11790000Y27690000D01*
%TO.N,/ADCS module/Magnetometer/YDRVP*%
X12600000Y27560000D02*
X12810000Y27350000D01*
X12600000Y29162500D02*
X12600000Y27560000D01*
%TO.N,/ADCS module/Magnetometer/ZINP*%
X14137500Y29900000D02*
X14137500Y29562500D01*
X14600000Y25100000D02*
X15700000Y26200000D01*
X14137500Y29562500D02*
X15560000Y28140000D01*
X15560000Y28140000D02*
X15650000Y28140000D01*
X14600000Y24300000D02*
X14600000Y25100000D01*
X15700000Y26200000D02*
X15700000Y28090000D01*
X15700000Y28090000D02*
X15650000Y28140000D01*
%TO.N,/ADCS module/Magnetometer/ZDRVP*%
X15650000Y29160000D02*
X15650000Y29360000D01*
X15650000Y29360000D02*
X14710000Y30300000D01*
X14710000Y30300000D02*
X14137500Y30300000D01*
D80*
%TO.N,/ADCS module/Magnetometer/XINN*%
X6890000Y30790000D02*
X6300000Y30200000D01*
X6300000Y30200000D02*
X6300000Y24600000D01*
X8100000Y30790000D02*
X6890000Y30790000D01*
D81*
X10262500Y30700000D02*
X8190000Y30700000D01*
X8190000Y30700000D02*
X8100000Y30790000D01*
D80*
X6300000Y24600000D02*
X9800000Y21100000D01*
D81*
%TO.N,/ADCS module/Magnetometer/XDRVN*%
X8810000Y31100000D02*
X8100000Y31810000D01*
X10262500Y31100000D02*
X8810000Y31100000D01*
D80*
%TO.N,/ADCS module/Magnetometer/YINN*%
X9700000Y26000000D02*
X10910000Y27210000D01*
X10910000Y27210000D02*
X10910000Y27660000D01*
D81*
X11043578Y27660000D02*
X10910000Y27660000D01*
X11800000Y28416422D02*
X11043578Y27660000D01*
D80*
X16800000Y23000000D02*
X16800000Y22200000D01*
X16800000Y22200000D02*
X18400000Y20600000D01*
D81*
X11800000Y29162500D02*
X11800000Y28416422D01*
%TO.N,/ADCS module/Magnetometer/YDRVN*%
X11139975Y28370000D02*
X10370000Y28370000D01*
X10370000Y28370000D02*
X9890000Y27890000D01*
X11400000Y29162500D02*
X11400000Y28630025D01*
X11400000Y28630025D02*
X11139975Y28370000D01*
X9890000Y27890000D02*
X9890000Y27660000D01*
%TO.N,/ADCS module/Magnetometer/ZINN*%
X13737500Y29162500D02*
X14710000Y28190000D01*
X11800000Y24700000D02*
X14710000Y27610000D01*
X11800000Y24300000D02*
X11800000Y24700000D01*
X14710000Y28190000D02*
X14710000Y27900000D01*
X13400000Y29162500D02*
X13737500Y29162500D01*
X14710000Y27610000D02*
X14710000Y27900000D01*
%TO.N,/ADCS module/Magnetometer/ZDRVN*%
X13690000Y27940025D02*
X13690000Y27900000D01*
X13000000Y29162500D02*
X13000000Y28630025D01*
X13000000Y28630025D02*
X13690000Y27940025D01*
D80*
%TO.N,/ADCS module/I2C_SDA_SENS*%
X67700000Y65200000D02*
X67000000Y64500000D01*
X67000000Y64500000D02*
X67000000Y64075000D01*
X68950000Y65200000D02*
X67700000Y65200000D01*
X55150000Y55040000D02*
X55150000Y53838000D01*
X54800000Y55390000D02*
X55150000Y55040000D01*
X70250000Y63900000D02*
X68950000Y65200000D01*
X74500000Y60950000D02*
X74000000Y60450000D01*
X74000000Y60450000D02*
X73425000Y60450000D01*
X55150000Y52400000D02*
X55150000Y53838000D01*
%TO.N,/ADCS module/I2C_SCK_SENS*%
X71885000Y58610000D02*
X72775000Y59500000D01*
X68660000Y58610000D02*
X67950000Y57900000D01*
X68150000Y63500000D02*
X68500000Y63150000D01*
X72775000Y59500000D02*
X72775000Y60450000D01*
X69150000Y60200000D02*
X69150000Y58610000D01*
X67150000Y54950000D02*
X67150000Y53838000D01*
X67950000Y57900000D02*
X67950000Y55750000D01*
X69150000Y58610000D02*
X68660000Y58610000D01*
X67950000Y55750000D02*
X67150000Y54950000D01*
X67075000Y63500000D02*
X68150000Y63500000D01*
X68500000Y63150000D02*
X68500000Y60850000D01*
X69150000Y58610000D02*
X71885000Y58610000D01*
X68500000Y60850000D02*
X69150000Y60200000D01*
X67000000Y63425000D02*
X67075000Y63500000D01*
%TO.N,/ADCS module/MAG_CS*%
X51100000Y22550000D02*
X53200000Y20450000D01*
X57190000Y29965478D02*
X58650000Y31425478D01*
X56200000Y27810000D02*
X56200000Y25500000D01*
X53250000Y22550000D02*
X51100000Y22550000D01*
X57190000Y28800000D02*
X56200000Y27810000D01*
D81*
X15800000Y31500000D02*
X14137500Y31500000D01*
D80*
X56200000Y25500000D02*
X53250000Y22550000D01*
X53200000Y20450000D02*
X53500000Y20450000D01*
D81*
X15900000Y31600000D02*
X15800000Y31500000D01*
D80*
X58650000Y31425478D02*
X58650000Y32362000D01*
X57190000Y28800000D02*
X57190000Y29965478D01*
%TO.N,/ADCS module/GYR_MISO*%
X43700000Y68000000D02*
X43900000Y68200000D01*
X32200000Y69450000D02*
X33100000Y68550000D01*
X41800000Y72600000D02*
X41800000Y77100000D01*
X65100000Y55100000D02*
X64475478Y55100000D01*
X33100000Y68550000D02*
X33100000Y67000000D01*
X64475478Y55100000D02*
X64150000Y54774522D01*
X31500000Y70900000D02*
X32200000Y70200000D01*
X57200000Y64300000D02*
X62400000Y59100000D01*
X65210000Y57290000D02*
X65700000Y57290000D01*
X30400000Y70900000D02*
X31500000Y70900000D01*
X43900000Y68200000D02*
X47600000Y68200000D01*
X62400000Y59100000D02*
X63400000Y59100000D01*
X43500000Y78800000D02*
X44000000Y78800000D01*
X41800000Y77100000D02*
X43500000Y78800000D01*
X16665000Y65635000D02*
X14175000Y65635000D01*
X25450000Y59010000D02*
X23290000Y59010000D01*
X63400000Y59100000D02*
X65210000Y57290000D01*
X65700000Y57290000D02*
X65700000Y55700000D01*
X64150000Y54774522D02*
X64150000Y53838000D01*
X23290000Y59010000D02*
X16665000Y65635000D01*
X32200000Y70200000D02*
X32200000Y69450000D01*
X49350000Y63250000D02*
X50400000Y64300000D01*
X65700000Y55700000D02*
X65100000Y55100000D01*
X50400000Y64300000D02*
X57200000Y64300000D01*
%TO.N,/ADCS module/GYR_CS3*%
X57600000Y47500000D02*
X61150000Y51050000D01*
X37500000Y55400000D02*
X40600000Y52300000D01*
X61150000Y51050000D02*
X61150000Y53838000D01*
X61150000Y53838000D02*
X61150000Y56140000D01*
X37400000Y55400000D02*
X35500000Y53500000D01*
X37500000Y55400000D02*
X37400000Y55400000D01*
X57600000Y47300000D02*
X57600000Y47500000D01*
X34400000Y58900000D02*
X34400000Y59800000D01*
X34400000Y59800000D02*
X34700000Y60100000D01*
X34700000Y60100000D02*
X34700000Y64000000D01*
X61150000Y56140000D02*
X60800000Y56490000D01*
%TO.N,/ADCS module/GYR_CS2*%
X63190000Y57100000D02*
X63190000Y55490000D01*
X63190000Y55490000D02*
X62650000Y54950000D01*
X50800000Y69900000D02*
X50700000Y69800000D01*
X56700000Y68400000D02*
X55200000Y69900000D01*
X57300000Y62300000D02*
X57400000Y62300000D01*
X55200000Y69900000D02*
X50800000Y69900000D01*
X57400000Y62300000D02*
X58800000Y60900000D01*
X62650000Y54950000D02*
X62650000Y53838000D01*
X63190000Y57410000D02*
X63190000Y57100000D01*
X56700000Y67500000D02*
X56700000Y68400000D01*
X59900000Y60700000D02*
X63190000Y57410000D01*
X59000000Y60700000D02*
X59900000Y60700000D01*
X58800000Y60900000D02*
X59000000Y60700000D01*
%TO.N,/ADCS module/GYR_CS1*%
X35900000Y56400000D02*
X34500000Y55000000D01*
X23300000Y58150000D02*
X17085000Y64365000D01*
X32100000Y55000000D02*
X28950000Y58150000D01*
X60650000Y55250000D02*
X60650000Y53838000D01*
X17085000Y64365000D02*
X14175000Y64365000D01*
X40100000Y56500000D02*
X40000000Y56400000D01*
X28950000Y58150000D02*
X23300000Y58150000D01*
X60300000Y55600000D02*
X60650000Y55250000D01*
X40400000Y56200000D02*
X40400000Y54600000D01*
X59700000Y56200000D02*
X59700000Y56490000D01*
X40000000Y56400000D02*
X35900000Y56400000D01*
X40100000Y56500000D02*
X40400000Y56200000D01*
X34500000Y55000000D02*
X32100000Y55000000D01*
X60300000Y55600000D02*
X59700000Y56200000D01*
D84*
%TO.N,Net-(R27-Pad2)*%
X71975000Y71150000D02*
X72825000Y71150000D01*
X72825000Y71150000D02*
X73450000Y71775000D01*
%TO.N,Net-(R28-Pad2)*%
X73650000Y76075000D02*
X72375000Y77350000D01*
X73800000Y76075000D02*
X73650000Y76075000D01*
%TO.N,Net-(R29-Pad2)*%
X72050000Y72700000D02*
X71975000Y72700000D01*
X72775000Y73425000D02*
X72050000Y72700000D01*
X73450000Y73425000D02*
X72775000Y73425000D01*
%TO.N,/ADCS module/Over-voltage Protection/PROT_UV_LIM*%
X70325000Y75800000D02*
X70325000Y75875000D01*
X70325000Y75875000D02*
X70725000Y76275000D01*
X67475000Y78200000D02*
X67475000Y77212500D01*
X70725000Y76275000D02*
X70725000Y77350000D01*
X67875000Y78600000D02*
X67475000Y78200000D01*
X70725000Y77350000D02*
X69475000Y78600000D01*
X69475000Y78600000D02*
X67875000Y78600000D01*
%TO.N,/ADCS module/Over-voltage Protection/PROT_OV_LIM*%
X70325000Y72700000D02*
X70325000Y74250000D01*
X68125000Y77212500D02*
X68125000Y76175000D01*
X68125000Y76175000D02*
X70050000Y74250000D01*
X70050000Y74250000D02*
X70325000Y74250000D01*
%TO.N,Net-(R32-Pad2)*%
X71975000Y74250000D02*
X71975000Y75800000D01*
%TO.N,Net-(R34-Pad1)*%
X66000000Y75650000D02*
X67100000Y74550000D01*
X68350000Y74550000D02*
X68775000Y74125000D01*
X66825000Y80300000D02*
X66000000Y79475000D01*
X68775000Y74125000D02*
X68775000Y72987500D01*
X67100000Y74550000D02*
X68350000Y74550000D01*
X66000000Y79475000D02*
X66000000Y75650000D01*
D81*
%TO.N,/ADCS module/MAG_DRDY*%
X9700000Y34600000D02*
X10420000Y34600000D01*
D80*
X48162000Y33162000D02*
X48162000Y34350000D01*
D81*
X10420000Y34600000D02*
X11400000Y33620000D01*
D80*
X44624511Y29624511D02*
X48162000Y33162000D01*
X39924511Y29624511D02*
X44624511Y29624511D01*
D81*
X9700000Y34600000D02*
X8810000Y34600000D01*
D80*
X36900000Y26600000D02*
X39924511Y29624511D01*
D81*
X11400000Y33620000D02*
X11400000Y33037500D01*
D80*
%TO.N,/ADCS module/GYR_MOSI*%
X33100000Y62000000D02*
X33100000Y64000000D01*
X54100000Y78600000D02*
X54100000Y79600000D01*
X53150000Y62850000D02*
X52150000Y62850000D01*
X63150000Y52600000D02*
X63150000Y53838000D01*
X33200000Y61900000D02*
X33100000Y62000000D01*
X27400000Y59100000D02*
X26350000Y60150000D01*
X26350000Y60150000D02*
X26350000Y61150000D01*
X26350000Y61150000D02*
X25675000Y61825000D01*
X54600000Y68200000D02*
X50700000Y68200000D01*
X62950000Y52400000D02*
X63150000Y52600000D01*
X54800000Y68400000D02*
X54600000Y68200000D01*
X52150000Y62850000D02*
X49200000Y59900000D01*
X49200000Y59900000D02*
X48800000Y59900000D01*
X54900000Y77800000D02*
X54100000Y78600000D01*
X25675000Y61825000D02*
X23825000Y61825000D01*
%TO.N,/ADCS module/GYR_SPCK*%
X42346096Y70400000D02*
X40400000Y72346096D01*
X40400000Y77500000D02*
X40400000Y74600000D01*
X57700000Y59900000D02*
X59800000Y59900000D01*
X61650000Y58050000D02*
X61650000Y53838000D01*
X34700000Y68299022D02*
X34700000Y67000000D01*
X39000000Y78900000D02*
X40400000Y77500000D01*
X40400000Y74600000D02*
X39700000Y73900000D01*
X40400000Y72346096D02*
X40400000Y74600000D01*
X36700000Y72800000D02*
X38500000Y74600000D01*
X59800000Y59900000D02*
X61650000Y58050000D01*
X38500000Y74600000D02*
X40400000Y74600000D01*
X39700000Y73900000D02*
X39700000Y73299022D01*
X53800000Y63800000D02*
X57700000Y59900000D01*
X51700000Y63800000D02*
X53800000Y63800000D01*
X45300000Y70400000D02*
X42346096Y70400000D01*
X25155000Y60555000D02*
X24055000Y60555000D01*
X47700000Y69800000D02*
X45900000Y69800000D01*
X45900000Y69800000D02*
X45300000Y70400000D01*
X29600000Y72800000D02*
X36700000Y72800000D01*
X25400000Y60800000D02*
X25155000Y60555000D01*
X51300000Y63400000D02*
X51700000Y63800000D01*
X39700000Y73299022D02*
X34700000Y68299022D01*
X29150000Y72350000D02*
X29600000Y72800000D01*
%TO.N,/ADCS module/MAG_SPCK*%
X56598522Y33850000D02*
X56925489Y33523033D01*
X56925489Y33523033D02*
X56925489Y33520607D01*
X28634668Y29565332D02*
X28200000Y29130664D01*
X54650000Y33850000D02*
X56598522Y33850000D01*
D81*
X13386732Y34315109D02*
X13000000Y33928377D01*
D80*
X28200000Y29130664D02*
X28200000Y26700000D01*
X57150000Y33296096D02*
X57150000Y32362000D01*
D81*
X13000000Y33928377D02*
X13000000Y33037500D01*
D80*
X28200000Y26700000D02*
X27500000Y26000000D01*
X56925489Y33520607D02*
X57150000Y33296096D01*
D81*
%TO.N,/ADCS module/MAG_MOSI*%
X15800000Y34900000D02*
X15800000Y34550000D01*
D80*
X31300000Y31000000D02*
X31300000Y27300000D01*
X31300000Y27300000D02*
X31950000Y26650000D01*
X52900000Y37400000D02*
X50450000Y39850000D01*
X31400000Y31100000D02*
X31300000Y31000000D01*
X53400000Y37400000D02*
X52900000Y37400000D01*
D81*
X14137500Y32887500D02*
X14137500Y32300000D01*
X15800000Y34550000D02*
X14137500Y32887500D01*
D80*
X50450000Y39850000D02*
X48162000Y39850000D01*
D81*
%TO.N,/ADCS module/MAG_MISO*%
X4252345Y35947655D02*
X4400000Y35800000D01*
D80*
X51320000Y40350000D02*
X48162000Y40350000D01*
D81*
X13637500Y33037500D02*
X13400000Y33037500D01*
X4252345Y38500000D02*
X4252345Y35947655D01*
D80*
X52600000Y39070000D02*
X51320000Y40350000D01*
D81*
X14500000Y33900000D02*
X13637500Y33037500D01*
X14500000Y36100000D02*
X14500000Y33900000D01*
D80*
X52600000Y39000000D02*
X52600000Y39070000D01*
D82*
%TO.N,/ADCS module/CAN_TX_1*%
X49700000Y48600000D02*
X49700000Y47301478D01*
D80*
X29150000Y76250000D02*
X29150000Y76700000D01*
D82*
X49248522Y46850000D02*
X48162000Y46850000D01*
D80*
X30155000Y77705000D02*
X31011000Y77705000D01*
X29150000Y76700000D02*
X30155000Y77705000D01*
D82*
X49700000Y47301478D02*
X49248522Y46850000D01*
D80*
%TO.N,/ADCS module/CAN_RX_1*%
X32500000Y73900000D02*
X32495000Y73895000D01*
X32495000Y73895000D02*
X31011000Y73895000D01*
X50172201Y50544249D02*
X50172201Y50422201D01*
X50172201Y50422201D02*
X49100000Y49350000D01*
X49100000Y49350000D02*
X48162000Y49350000D01*
%TO.N,/ADCS module/CAN_FAULT_1*%
X40600000Y58600000D02*
X50000000Y58600000D01*
X25589000Y73895000D02*
X26000000Y73484000D01*
X27550000Y69950000D02*
X27550000Y61224282D01*
X50500000Y57400000D02*
X50150000Y57050000D01*
X26010000Y72500000D02*
X26010000Y71490000D01*
X50150000Y57050000D02*
X50150000Y53838000D01*
X31773802Y57000480D02*
X39000480Y57000480D01*
X26000000Y72510000D02*
X26010000Y72500000D01*
X26000000Y73484000D02*
X26000000Y72510000D01*
X26010000Y71490000D02*
X27550000Y69950000D01*
X27550000Y61224282D02*
X31773802Y57000480D01*
X39000480Y57000480D02*
X40600000Y58600000D01*
X50500000Y58100000D02*
X50500000Y57400000D01*
X50000000Y58600000D02*
X50500000Y58100000D01*
%TO.N,/ADCS module/CAN_SILENT_1*%
X40250000Y59050000D02*
X38650000Y57450000D01*
X26795000Y77705000D02*
X25589000Y77705000D01*
X31960000Y57450000D02*
X28010000Y61400000D01*
X28010000Y61400000D02*
X28010000Y76490000D01*
X51100000Y58500000D02*
X50550000Y59050000D01*
X50650000Y53838000D02*
X50650000Y56550000D01*
X50650000Y56550000D02*
X51100000Y57000000D01*
X50550000Y59050000D02*
X40250000Y59050000D01*
X38650000Y57450000D02*
X31960000Y57450000D01*
X28010000Y76490000D02*
X26795000Y77705000D01*
X51100000Y57000000D02*
X51100000Y58500000D01*
%TO.N,/ADCS module/CAN_TX_2*%
X11405000Y74695000D02*
X12300000Y73800000D01*
X11405000Y75589000D02*
X11405000Y74695000D01*
D82*
X67900000Y40600000D02*
X68650000Y39850000D01*
X68650000Y39850000D02*
X69638000Y39850000D01*
D80*
X11405000Y77070500D02*
X11405000Y75589000D01*
X12300000Y73800000D02*
X14400000Y73800000D01*
X11300000Y77175500D02*
X11405000Y77070500D01*
%TO.N,/ADCS module/CAN_RX_2*%
X7584000Y75600000D02*
X7595000Y75589000D01*
X7595000Y74844212D02*
X6875394Y74124606D01*
X4700000Y75600000D02*
X7584000Y75600000D01*
X50200000Y42350000D02*
X48162000Y42350000D01*
X7595000Y75589000D02*
X7595000Y74844212D01*
X3800000Y74700000D02*
X4700000Y75600000D01*
%TO.N,/ADCS module/CAN_FAULT_2*%
X6811000Y81011000D02*
X7595000Y81011000D01*
X51650000Y52801478D02*
X51650000Y53838000D01*
X27030000Y60950000D02*
X27030000Y68770000D01*
X27030000Y68770000D02*
X17750000Y78050000D01*
X6200000Y79610000D02*
X6200000Y80400000D01*
X33600000Y55900000D02*
X32080000Y55900000D01*
X49800011Y52350000D02*
X51198522Y52350000D01*
X6190000Y79600000D02*
X6200000Y79610000D01*
X4600000Y79600000D02*
X6190000Y79600000D01*
X51198522Y52350000D02*
X51650000Y52801478D01*
X6200000Y80400000D02*
X6811000Y81011000D01*
X32080000Y55900000D02*
X27030000Y60950000D01*
X7595000Y80305000D02*
X7595000Y81011000D01*
X17750000Y78050000D02*
X9850000Y78050000D01*
X9850000Y78050000D02*
X7595000Y80305000D01*
%TO.N,/ADCS module/CAN_SILENT_2*%
X53700000Y42200000D02*
X56000000Y44500000D01*
X13510000Y80360000D02*
X12870000Y81000000D01*
X11370000Y79060000D02*
X11370000Y80976000D01*
X59150000Y51950000D02*
X59150000Y53838000D01*
X56000000Y48800000D02*
X59150000Y51950000D01*
X56000000Y44500000D02*
X56000000Y48800000D01*
X12870000Y81000000D02*
X11416000Y81000000D01*
X53000000Y42200000D02*
X53700000Y42200000D01*
%TO.N,/ADCS module/USR_GPIO_PWM*%
X74400000Y29900000D02*
X72600000Y29900000D01*
X65150250Y34800000D02*
X63650000Y33299750D01*
X71875000Y30599695D02*
X71875000Y30625000D01*
X67700000Y34800000D02*
X65150250Y34800000D01*
X72299695Y30175000D02*
X71875000Y30599695D01*
X72325000Y30175000D02*
X72299695Y30175000D01*
X72600000Y29900000D02*
X72325000Y30175000D01*
X63650000Y33299750D02*
X63650000Y32362000D01*
X71875000Y30625000D02*
X67700000Y34800000D01*
%TO.N,/ADCS module/USR_GPIO*%
X71000000Y32400000D02*
X74200000Y32400000D01*
X69638000Y33762000D02*
X71000000Y32400000D01*
X69638000Y34350000D02*
X69638000Y33762000D01*
X74200000Y32400000D02*
X74400000Y32200000D01*
D90*
%TO.N,CAN1-*%
X24442999Y75165000D02*
X25589000Y75165000D01*
X24032999Y75575000D02*
X24442999Y75165000D01*
X16966800Y79755000D02*
X19546800Y79755000D01*
X23726800Y75575000D02*
X24032999Y75575000D01*
X15092999Y82264001D02*
X15092999Y81628801D01*
X14048000Y83309000D02*
X15092999Y82264001D01*
X19546800Y79755000D02*
X23726800Y75575000D01*
X15092999Y81628801D02*
X16966800Y79755000D01*
%TO.N,CAN1+*%
X24032999Y76025000D02*
X24442999Y76435000D01*
X15543001Y82264001D02*
X15543001Y81815199D01*
X23566462Y76864001D02*
X23566462Y76864002D01*
X23444075Y76494126D02*
X23444073Y76494127D01*
X17153200Y80205000D02*
X19733200Y80205000D01*
X23444073Y76494127D02*
X23913200Y76025000D01*
X16588000Y83309000D02*
X15543001Y82264001D01*
X24442999Y76435000D02*
X25589000Y76435000D01*
X23196588Y76989099D02*
X23318975Y77111489D01*
X23196587Y76989101D02*
X23196588Y76989099D01*
X23566462Y77111488D02*
X23566463Y77111488D01*
X19733200Y80205000D02*
X22949100Y76989100D01*
X23566462Y76864002D02*
X23444074Y76741613D01*
X15543001Y81815199D02*
X17153200Y80205000D01*
X23913200Y76025000D02*
X24032999Y76025000D01*
X23196544Y76989144D02*
G75*
G02*
X22949100Y76989100I-123744J123656D01*
G01*
X23566443Y77111469D02*
G75*
G03*
X23318976Y77111488I-123743J-123769D01*
G01*
X23566506Y76863957D02*
G75*
G03*
X23566462Y77111487I-123806J123743D01*
G01*
X23444106Y76494157D02*
G75*
G02*
X23444075Y76741612I123694J123743D01*
G01*
%TO.N,CAN2-*%
X8865000Y81450000D02*
X9275000Y81860000D01*
X10211091Y83199290D02*
X10211091Y83658909D01*
X9275000Y82263199D02*
X10211091Y83199290D01*
X8865000Y81011000D02*
X8865000Y81450000D01*
X9275000Y81860000D02*
X9275000Y82263199D01*
%TO.N,CAN2+*%
X10135000Y81450000D02*
X9725000Y81860000D01*
X9725000Y82076801D02*
X10529290Y82881091D01*
X9725000Y81860000D02*
X9725000Y82076801D01*
X10135000Y81011000D02*
X10135000Y81450000D01*
X10529290Y82881091D02*
X10988909Y82881091D01*
D82*
%TO.N,/ADCS module/Microcontroller/MCU_CLK_IN*%
X50775000Y29825000D02*
X51150000Y30200000D01*
X51150000Y30200000D02*
X51150000Y32362000D01*
%TD*%
%TA.AperFunction,Conductor*%
%TO.N,/ADCS_VDD*%
G36*
X63208691Y74731093D02*
G01*
X63244655Y74681593D01*
X63249500Y74651000D01*
X63249500Y73254752D01*
X63249833Y73253080D01*
X63250000Y73249675D01*
X63250000Y72850000D01*
X65601000Y72850000D01*
X65659191Y72831093D01*
X65695155Y72781593D01*
X65700000Y72751000D01*
X65700000Y71100000D01*
X66003627Y71100000D01*
X66061818Y71081093D01*
X66069670Y71074387D01*
X66071718Y71071718D01*
X66197159Y70975464D01*
X66343238Y70914956D01*
X66500000Y70894318D01*
X66656762Y70914956D01*
X66802841Y70975464D01*
X66928282Y71071718D01*
X66928610Y71072146D01*
X66980886Y71098781D01*
X66996373Y71100000D01*
X67200000Y71100000D01*
X67200000Y72132858D01*
X67208454Y72172888D01*
X67219496Y72197864D01*
X67219496Y72197866D01*
X67222506Y72204673D01*
X67225500Y72230354D01*
X67225500Y72948191D01*
X67226719Y72963678D01*
X67229273Y72979803D01*
X67230492Y72987500D01*
X67226719Y73011323D01*
X67225500Y73026809D01*
X67225500Y73744646D01*
X67222382Y73770846D01*
X67208524Y73802045D01*
X67200000Y73842233D01*
X67200000Y73901000D01*
X67218907Y73959191D01*
X67268407Y73995155D01*
X67299000Y74000000D01*
X67677021Y74000000D01*
X67735212Y73981093D01*
X67771176Y73931593D01*
X67771176Y73870407D01*
X67767567Y73860970D01*
X67730725Y73777635D01*
X67727494Y73770327D01*
X67724500Y73744646D01*
X67724500Y72230354D01*
X67727618Y72204154D01*
X67773061Y72101847D01*
X67779531Y72095388D01*
X67782589Y72090939D01*
X67800000Y72034865D01*
X67800000Y70700000D01*
X69301000Y70700000D01*
X69359191Y70681093D01*
X69395155Y70631593D01*
X69400000Y70601000D01*
X69400000Y69199000D01*
X69381093Y69140809D01*
X69331593Y69104845D01*
X69301000Y69100000D01*
X63148419Y69100000D01*
X63090228Y69118907D01*
X63070273Y69138220D01*
X62400000Y70000000D01*
X61176739Y70282291D01*
X61124290Y70313799D01*
X61100378Y70370118D01*
X61100000Y70378756D01*
X61100000Y74651000D01*
X61118907Y74709191D01*
X61168407Y74745155D01*
X61199000Y74750000D01*
X63150500Y74750000D01*
X63208691Y74731093D01*
G37*
%TD.AperFunction*%
%TD*%
%TA.AperFunction,Conductor*%
%TO.N,GND*%
G36*
X65942121Y65779998D02*
G01*
X65988614Y65726342D01*
X66000000Y65674000D01*
X66000000Y63000000D01*
X66007004Y63000000D01*
X66044396Y62941818D01*
X66049500Y62906319D01*
X66049500Y62860173D01*
X66029498Y62792052D01*
X65999065Y62759347D01*
X65944276Y62718285D01*
X65931715Y62705724D01*
X65855214Y62603649D01*
X65846676Y62588054D01*
X65801522Y62467606D01*
X65797895Y62452351D01*
X65792369Y62401486D01*
X65792000Y62394672D01*
X65792000Y62368115D01*
X65796475Y62352876D01*
X65797865Y62351671D01*
X65805548Y62350000D01*
X66110211Y62350000D01*
X66180213Y62328765D01*
X66191941Y62320928D01*
X66191944Y62320927D01*
X66202260Y62314034D01*
X66275326Y62299500D01*
X67099000Y62299500D01*
X67167121Y62279498D01*
X67213614Y62225842D01*
X67225000Y62173500D01*
X67225000Y62026000D01*
X67204998Y61957879D01*
X67151342Y61911386D01*
X67099000Y61900000D01*
X65810116Y61900000D01*
X65794877Y61895525D01*
X65793672Y61894135D01*
X65792001Y61886452D01*
X65792001Y61855331D01*
X65792370Y61848517D01*
X65793338Y61839608D01*
X65780810Y61769726D01*
X65732490Y61717710D01*
X65668075Y61700000D01*
X63931927Y61700000D01*
X63863806Y61720002D01*
X63817313Y61773658D01*
X63806663Y61839603D01*
X63807631Y61848520D01*
X63808000Y61855328D01*
X63808000Y61881885D01*
X63803525Y61897124D01*
X63802135Y61898329D01*
X63794452Y61900000D01*
X62501000Y61900000D01*
X62432879Y61920002D01*
X62386386Y61973658D01*
X62375000Y62026000D01*
X62375000Y62368115D01*
X62825000Y62368115D01*
X62829475Y62352876D01*
X62830865Y62351671D01*
X62838548Y62350000D01*
X63789884Y62350000D01*
X63805123Y62354475D01*
X63806328Y62355865D01*
X63807999Y62363548D01*
X63807999Y62394669D01*
X63807630Y62401475D01*
X63803838Y62436395D01*
X63803839Y62463606D01*
X63807631Y62498512D01*
X63808000Y62505329D01*
X63808000Y62531885D01*
X63803525Y62547124D01*
X63802135Y62548329D01*
X63794452Y62550000D01*
X62843115Y62550000D01*
X62827876Y62545525D01*
X62826671Y62544135D01*
X62825000Y62536452D01*
X62825000Y62368115D01*
X62375000Y62368115D01*
X62375000Y62823500D01*
X62395002Y62891621D01*
X62448658Y62938114D01*
X62501000Y62949500D01*
X63324674Y62949500D01*
X63397740Y62964034D01*
X63408056Y62970927D01*
X63408059Y62970928D01*
X63419787Y62978765D01*
X63489789Y63000000D01*
X63789884Y63000000D01*
X63805123Y63004475D01*
X63810842Y63011075D01*
X63839246Y63063094D01*
X63901558Y63097120D01*
X63928343Y63100000D01*
X64700000Y63100000D01*
X64700000Y64741636D01*
X64720002Y64809757D01*
X64726443Y64818866D01*
X64740126Y64836505D01*
X64815396Y64963780D01*
X64821643Y64978216D01*
X64863312Y65121641D01*
X64864768Y65129609D01*
X64861948Y65143031D01*
X64850487Y65146000D01*
X63952000Y65146000D01*
X63883879Y65166002D01*
X63837386Y65219658D01*
X63826000Y65272000D01*
X63826000Y65528000D01*
X63846002Y65596121D01*
X63899658Y65642614D01*
X63952000Y65654000D01*
X64848424Y65654000D01*
X64863219Y65658344D01*
X64868074Y65685813D01*
X64870221Y65685433D01*
X64880340Y65733597D01*
X64930184Y65784155D01*
X64991355Y65800000D01*
X65874000Y65800000D01*
X65942121Y65779998D01*
G37*
%TD.AperFunction*%
%TD*%
%TA.AperFunction,Conductor*%
%TO.N,GND*%
G36*
X72891621Y65054998D02*
G01*
X72938114Y65001342D01*
X72949500Y64949000D01*
X72949500Y64125326D01*
X72964034Y64052260D01*
X72970927Y64041944D01*
X72970928Y64041941D01*
X72978765Y64030213D01*
X73000000Y63960211D01*
X73000000Y63660116D01*
X73004475Y63644877D01*
X73005865Y63643672D01*
X73013548Y63642001D01*
X73044669Y63642001D01*
X73051490Y63642371D01*
X73102352Y63647895D01*
X73117604Y63651521D01*
X73238054Y63696676D01*
X73253649Y63705214D01*
X73355724Y63781715D01*
X73368282Y63794273D01*
X73409346Y63849065D01*
X73466206Y63891580D01*
X73510173Y63899500D01*
X73674674Y63899500D01*
X73676348Y63899833D01*
X73679752Y63900000D01*
X73833845Y63900000D01*
X73901966Y63879998D01*
X73948459Y63826342D01*
X73954842Y63809154D01*
X73978358Y63728214D01*
X73984604Y63713780D01*
X74059876Y63586501D01*
X74069516Y63574074D01*
X74174074Y63469516D01*
X74186501Y63459876D01*
X74313780Y63384604D01*
X74328216Y63378357D01*
X74471641Y63336688D01*
X74479609Y63335232D01*
X74493031Y63338052D01*
X74496000Y63349513D01*
X74496000Y64248000D01*
X74516002Y64316121D01*
X74569658Y64362614D01*
X74622000Y64374000D01*
X74878000Y64374000D01*
X74946121Y64353998D01*
X74992614Y64300342D01*
X75000000Y64266388D01*
X75000000Y62976000D01*
X74979998Y62907879D01*
X74926342Y62861386D01*
X74874000Y62850000D01*
X73700000Y62850000D01*
X73700000Y61526500D01*
X73679998Y61458379D01*
X73626342Y61411886D01*
X73574000Y61400500D01*
X73175326Y61400500D01*
X73173652Y61400167D01*
X73170248Y61400000D01*
X73029752Y61400000D01*
X73026348Y61400167D01*
X73024674Y61400500D01*
X72525326Y61400500D01*
X72523652Y61400167D01*
X72520248Y61400000D01*
X72379752Y61400000D01*
X72376348Y61400167D01*
X72374674Y61400500D01*
X72210173Y61400500D01*
X72142052Y61420502D01*
X72109346Y61450935D01*
X72068282Y61505727D01*
X72055724Y61518285D01*
X71953649Y61594786D01*
X71938054Y61603324D01*
X71817606Y61648478D01*
X71802351Y61652105D01*
X71751486Y61657631D01*
X71744672Y61658000D01*
X71718115Y61658000D01*
X71702876Y61653525D01*
X71701671Y61652135D01*
X71700000Y61644452D01*
X71700000Y61339789D01*
X71678765Y61269787D01*
X71670928Y61258059D01*
X71670927Y61258056D01*
X71664034Y61247740D01*
X71649500Y61174674D01*
X71649500Y60351000D01*
X71629498Y60282879D01*
X71575842Y60236386D01*
X71523500Y60225000D01*
X71376000Y60225000D01*
X71307879Y60245002D01*
X71261386Y60298658D01*
X71250000Y60351000D01*
X71250000Y61639884D01*
X71245525Y61655123D01*
X71244135Y61656328D01*
X71236452Y61657999D01*
X71205331Y61657999D01*
X71198510Y61657629D01*
X71139793Y61651252D01*
X71139414Y61654738D01*
X71084426Y61657526D01*
X71026720Y61698885D01*
X71000534Y61764877D01*
X71000000Y61776470D01*
X71000000Y63523529D01*
X71020002Y63591650D01*
X71073658Y63638143D01*
X71139672Y63647635D01*
X71139793Y63648748D01*
X71198514Y63642369D01*
X71205328Y63642000D01*
X71231885Y63642000D01*
X71247124Y63646475D01*
X71248329Y63647865D01*
X71250000Y63655548D01*
X71250000Y63660116D01*
X71700000Y63660116D01*
X71704475Y63644877D01*
X71705865Y63643672D01*
X71713548Y63642001D01*
X71744669Y63642001D01*
X71751493Y63642371D01*
X71786393Y63646161D01*
X71813603Y63646161D01*
X71848510Y63642369D01*
X71855329Y63642000D01*
X71881885Y63642000D01*
X71897124Y63646475D01*
X71898329Y63647865D01*
X71900000Y63655548D01*
X71900000Y63660116D01*
X72350000Y63660116D01*
X72354475Y63644877D01*
X72355865Y63643672D01*
X72363548Y63642001D01*
X72394669Y63642001D01*
X72401493Y63642371D01*
X72436393Y63646161D01*
X72463603Y63646161D01*
X72498510Y63642369D01*
X72505329Y63642000D01*
X72531885Y63642000D01*
X72547124Y63646475D01*
X72548329Y63647865D01*
X72550000Y63655548D01*
X72550000Y64606885D01*
X72545525Y64622124D01*
X72544135Y64623329D01*
X72536452Y64625000D01*
X72368115Y64625000D01*
X72352876Y64620525D01*
X72351671Y64619135D01*
X72350000Y64611452D01*
X72350000Y63660116D01*
X71900000Y63660116D01*
X71900000Y64606885D01*
X71895525Y64622124D01*
X71894135Y64623329D01*
X71886452Y64625000D01*
X71718115Y64625000D01*
X71702876Y64620525D01*
X71701671Y64619135D01*
X71700000Y64611452D01*
X71700000Y63660116D01*
X71250000Y63660116D01*
X71250000Y64949000D01*
X71270002Y65017121D01*
X71323658Y65063614D01*
X71376000Y65075000D01*
X72823500Y65075000D01*
X72891621Y65054998D01*
G37*
%TD.AperFunction*%
%TD*%
%TA.AperFunction,Conductor*%
%TO.N,AC_GND_2*%
G36*
X87059191Y11581093D02*
G01*
X87095155Y11531593D01*
X87100000Y11501000D01*
X87100000Y8699000D01*
X87081093Y8640809D01*
X87031593Y8604845D01*
X87001000Y8600000D01*
X84699000Y8600000D01*
X84640809Y8618907D01*
X84604845Y8668407D01*
X84600000Y8699000D01*
X84600000Y11501000D01*
X84618907Y11559191D01*
X84668407Y11595155D01*
X84699000Y11600000D01*
X87001000Y11600000D01*
X87059191Y11581093D01*
G37*
%TD.AperFunction*%
%TD*%
%TA.AperFunction,Conductor*%
%TO.N,/ADCS module/Over-voltage Protection/MOSFET_S*%
G36*
X64491621Y80629998D02*
G01*
X64538114Y80576342D01*
X64549500Y80524000D01*
X64549500Y79130752D01*
X64549833Y79129078D01*
X64550000Y79125674D01*
X64550000Y74774326D01*
X64549833Y74770922D01*
X64549500Y74769248D01*
X64549500Y73376000D01*
X64529498Y73307879D01*
X64475842Y73261386D01*
X64423500Y73250000D01*
X63576500Y73250000D01*
X63508379Y73270002D01*
X63461886Y73323658D01*
X63450500Y73376000D01*
X63450500Y74769248D01*
X63450167Y74770922D01*
X63450000Y74774326D01*
X63450000Y79125674D01*
X63450167Y79129078D01*
X63450500Y79130752D01*
X63450500Y80524000D01*
X63470502Y80592121D01*
X63524158Y80638614D01*
X63576500Y80650000D01*
X64423500Y80650000D01*
X64491621Y80629998D01*
G37*
%TD.AperFunction*%
%TD*%
M02*
