%TF.GenerationSoftware,KiCad,Pcbnew,8.0.3*%
%TF.CreationDate,2024-08-20T13:50:37+03:00*%
%TF.ProjectId,obc-adcs-board,6f62632d-6164-4637-932d-626f6172642e,rev?*%
%TF.SameCoordinates,PX3e2df80PY83e4a60*%
%TF.FileFunction,Copper,L8,Bot*%
%TF.FilePolarity,Positive*%
%FSLAX46Y46*%
G04 Gerber Fmt 4.6, Leading zero omitted, Abs format (unit mm)*
G04 Created by KiCad (PCBNEW 8.0.3) date 2024-08-20 13:50:37*
%MOMM*%
%LPD*%
G01*
G04 APERTURE LIST*
G04 Aperture macros list*
%AMRoundRect*
0 Rectangle with rounded corners*
0 $1 Rounding radius*
0 $2 $3 $4 $5 $6 $7 $8 $9 X,Y pos of 4 corners*
0 Add a 4 corners polygon primitive as box body*
4,1,4,$2,$3,$4,$5,$6,$7,$8,$9,$2,$3,0*
0 Add four circle primitives for the rounded corners*
1,1,$1+$1,$2,$3*
1,1,$1+$1,$4,$5*
1,1,$1+$1,$6,$7*
1,1,$1+$1,$8,$9*
0 Add four rect primitives between the rounded corners*
20,1,$1+$1,$2,$3,$4,$5,0*
20,1,$1+$1,$4,$5,$6,$7,0*
20,1,$1+$1,$6,$7,$8,$9,0*
20,1,$1+$1,$8,$9,$2,$3,0*%
G04 Aperture macros list end*
%TA.AperFunction,ComponentPad*%
%ADD10C,5.600000*%
%TD*%
%TA.AperFunction,ComponentPad*%
%ADD11R,1.700000X1.700000*%
%TD*%
%TA.AperFunction,ComponentPad*%
%ADD12O,1.700000X1.700000*%
%TD*%
%TA.AperFunction,ComponentPad*%
%ADD13R,0.850000X0.850000*%
%TD*%
%TA.AperFunction,ComponentPad*%
%ADD14R,1.530000X1.530000*%
%TD*%
%TA.AperFunction,ComponentPad*%
%ADD15C,1.530000*%
%TD*%
%TA.AperFunction,SMDPad,CuDef*%
%ADD16R,0.450000X1.475000*%
%TD*%
%TA.AperFunction,SMDPad,CuDef*%
%ADD17RoundRect,0.135000X-0.185000X0.135000X-0.185000X-0.135000X0.185000X-0.135000X0.185000X0.135000X0*%
%TD*%
%TA.AperFunction,SMDPad,CuDef*%
%ADD18C,1.000000*%
%TD*%
%TA.AperFunction,SMDPad,CuDef*%
%ADD19R,1.475000X0.300000*%
%TD*%
%TA.AperFunction,SMDPad,CuDef*%
%ADD20R,0.300000X1.475000*%
%TD*%
%TA.AperFunction,SMDPad,CuDef*%
%ADD21RoundRect,0.200000X-0.200000X-0.275000X0.200000X-0.275000X0.200000X0.275000X-0.200000X0.275000X0*%
%TD*%
%TA.AperFunction,SMDPad,CuDef*%
%ADD22RoundRect,0.140000X0.170000X-0.140000X0.170000X0.140000X-0.170000X0.140000X-0.170000X-0.140000X0*%
%TD*%
%TA.AperFunction,SMDPad,CuDef*%
%ADD23RoundRect,0.135000X0.185000X-0.135000X0.185000X0.135000X-0.185000X0.135000X-0.185000X-0.135000X0*%
%TD*%
%TA.AperFunction,SMDPad,CuDef*%
%ADD24R,0.550000X1.000000*%
%TD*%
%TA.AperFunction,SMDPad,CuDef*%
%ADD25R,1.260000X1.300000*%
%TD*%
%TA.AperFunction,SMDPad,CuDef*%
%ADD26RoundRect,0.225000X0.225000X0.250000X-0.225000X0.250000X-0.225000X-0.250000X0.225000X-0.250000X0*%
%TD*%
%TA.AperFunction,SMDPad,CuDef*%
%ADD27R,1.525000X0.650000*%
%TD*%
%TA.AperFunction,SMDPad,CuDef*%
%ADD28RoundRect,0.200000X0.200000X0.275000X-0.200000X0.275000X-0.200000X-0.275000X0.200000X-0.275000X0*%
%TD*%
%TA.AperFunction,SMDPad,CuDef*%
%ADD29RoundRect,0.140000X-0.170000X0.140000X-0.170000X-0.140000X0.170000X-0.140000X0.170000X0.140000X0*%
%TD*%
%TA.AperFunction,SMDPad,CuDef*%
%ADD30R,0.650000X1.528000*%
%TD*%
%TA.AperFunction,SMDPad,CuDef*%
%ADD31R,1.400000X0.450000*%
%TD*%
%TA.AperFunction,SMDPad,CuDef*%
%ADD32RoundRect,0.100000X-0.100000X0.712500X-0.100000X-0.712500X0.100000X-0.712500X0.100000X0.712500X0*%
%TD*%
%TA.AperFunction,SMDPad,CuDef*%
%ADD33RoundRect,0.225000X0.250000X-0.225000X0.250000X0.225000X-0.250000X0.225000X-0.250000X-0.225000X0*%
%TD*%
%TA.AperFunction,SMDPad,CuDef*%
%ADD34RoundRect,0.140000X-0.140000X-0.170000X0.140000X-0.170000X0.140000X0.170000X-0.140000X0.170000X0*%
%TD*%
%TA.AperFunction,SMDPad,CuDef*%
%ADD35RoundRect,0.225000X-0.250000X0.225000X-0.250000X-0.225000X0.250000X-0.225000X0.250000X0.225000X0*%
%TD*%
%TA.AperFunction,SMDPad,CuDef*%
%ADD36RoundRect,0.200000X0.275000X-0.200000X0.275000X0.200000X-0.275000X0.200000X-0.275000X-0.200000X0*%
%TD*%
%TA.AperFunction,SMDPad,CuDef*%
%ADD37C,0.500000*%
%TD*%
%TA.AperFunction,SMDPad,CuDef*%
%ADD38R,1.000000X1.800000*%
%TD*%
%TA.AperFunction,SMDPad,CuDef*%
%ADD39RoundRect,0.140000X0.140000X0.170000X-0.140000X0.170000X-0.140000X-0.170000X0.140000X-0.170000X0*%
%TD*%
%TA.AperFunction,SMDPad,CuDef*%
%ADD40R,1.905000X1.020000*%
%TD*%
%TA.AperFunction,SMDPad,CuDef*%
%ADD41R,0.940000X1.010000*%
%TD*%
%TA.AperFunction,SMDPad,CuDef*%
%ADD42R,0.940000X1.020000*%
%TD*%
%TA.AperFunction,SMDPad,CuDef*%
%ADD43R,0.450000X1.400000*%
%TD*%
%TA.AperFunction,SMDPad,CuDef*%
%ADD44R,0.740000X2.870000*%
%TD*%
%TA.AperFunction,SMDPad,CuDef*%
%ADD45R,1.010000X0.940000*%
%TD*%
%TA.AperFunction,SMDPad,CuDef*%
%ADD46RoundRect,0.225000X-0.225000X-0.250000X0.225000X-0.250000X0.225000X0.250000X-0.225000X0.250000X0*%
%TD*%
%TA.AperFunction,SMDPad,CuDef*%
%ADD47R,0.700000X0.650000*%
%TD*%
%TA.AperFunction,SMDPad,CuDef*%
%ADD48R,0.650000X0.700000*%
%TD*%
%TA.AperFunction,SMDPad,CuDef*%
%ADD49R,1.000000X1.500000*%
%TD*%
%TA.AperFunction,SMDPad,CuDef*%
%ADD50RoundRect,0.135000X-0.135000X-0.185000X0.135000X-0.185000X0.135000X0.185000X-0.135000X0.185000X0*%
%TD*%
%TA.AperFunction,SMDPad,CuDef*%
%ADD51RoundRect,0.200000X-0.275000X0.200000X-0.275000X-0.200000X0.275000X-0.200000X0.275000X0.200000X0*%
%TD*%
%TA.AperFunction,SMDPad,CuDef*%
%ADD52RoundRect,0.135000X0.135000X0.185000X-0.135000X0.185000X-0.135000X-0.185000X0.135000X-0.185000X0*%
%TD*%
%TA.AperFunction,SMDPad,CuDef*%
%ADD53R,1.528000X0.650000*%
%TD*%
%TA.AperFunction,SMDPad,CuDef*%
%ADD54R,0.800000X0.900000*%
%TD*%
%TA.AperFunction,ViaPad*%
%ADD55C,0.800000*%
%TD*%
%TA.AperFunction,Conductor*%
%ADD56C,0.300000*%
%TD*%
%TA.AperFunction,Conductor*%
%ADD57C,0.350000*%
%TD*%
%TA.AperFunction,Conductor*%
%ADD58C,0.250000*%
%TD*%
%TA.AperFunction,Conductor*%
%ADD59C,0.450000*%
%TD*%
%TA.AperFunction,Conductor*%
%ADD60C,0.400000*%
%TD*%
%TA.AperFunction,Conductor*%
%ADD61C,0.800000*%
%TD*%
%TA.AperFunction,Conductor*%
%ADD62C,0.600000*%
%TD*%
%TA.AperFunction,Conductor*%
%ADD63C,0.200000*%
%TD*%
%TA.AperFunction,Profile*%
%ADD64C,0.100000*%
%TD*%
G04 APERTURE END LIST*
D10*
%TO.P,H4,1,1*%
%TO.N,unconnected-(H4-Pad1)*%
X82630000Y90930000D03*
%TD*%
D11*
%TO.P,J7,1,Pin_1*%
%TO.N,/OBC module/MEM_MRAM_OUT_ENABLE*%
X68100000Y4175000D03*
D12*
%TO.P,J7,2,Pin_2*%
%TO.N,/OBC module/MEM_MRAM_WR_ENABLE*%
X65560000Y4175000D03*
%TO.P,J7,3,Pin_3*%
%TO.N,/OBC module/MEM_MRAM_ENABLE*%
X63020000Y4175000D03*
%TO.P,J7,4,Pin_4*%
%TO.N,GND*%
X60480000Y4175000D03*
%TD*%
D10*
%TO.P,H1,1,1*%
%TO.N,unconnected-(H1-Pad1)*%
X5180000Y5190000D03*
%TD*%
D11*
%TO.P,J4,1,Pin_1*%
%TO.N,GND*%
X84625000Y22875000D03*
D12*
%TO.P,J4,2,Pin_2*%
%TO.N,ADCS_SWCLK*%
X84625000Y20335000D03*
%TO.P,J4,3,Pin_3*%
%TO.N,ADCS_SWDIO*%
X84625000Y17795000D03*
%TD*%
D10*
%TO.P,H3,1,1*%
%TO.N,AC_GND_2*%
X85170000Y5210000D03*
%TD*%
D13*
%TO.P,J27,1,Pin_1*%
%TO.N,3V3_PROT*%
X16600000Y20225000D03*
%TD*%
D10*
%TO.P,H2,1,1*%
%TO.N,AC_GND_1*%
X8990000Y90930000D03*
%TD*%
D13*
%TO.P,J29,1,Pin_1*%
%TO.N,/ADCS_VDD*%
X16875000Y59250000D03*
%TD*%
D11*
%TO.P,J6,1,Pin_1*%
%TO.N,GND*%
X6450000Y16175000D03*
D12*
%TO.P,J6,2,Pin_2*%
X3910000Y16175000D03*
%TO.P,J6,3,Pin_3*%
%TO.N,MCU_SWCLK*%
X6450000Y18715000D03*
%TO.P,J6,4,Pin_4*%
%TO.N,GND*%
X3910000Y18715000D03*
%TO.P,J6,5,Pin_5*%
%TO.N,MCU_SWDIO*%
X6450000Y21255000D03*
%TO.P,J6,6,Pin_6*%
%TO.N,MCU_ERASE*%
X3910000Y21255000D03*
%TO.P,J6,7,Pin_7*%
%TO.N,I2C_SCK_PANELS*%
X6450000Y23795000D03*
%TO.P,J6,8,Pin_8*%
%TO.N,/EPS_5V_ADM*%
X3910000Y23795000D03*
%TO.P,J6,9,Pin_9*%
%TO.N,I2C_SDA_PANELS*%
X6450000Y26335000D03*
%TO.P,J6,10,Pin_10*%
%TO.N,GNSS_PPS*%
X3910000Y26335000D03*
%TO.P,J6,11,Pin_11*%
%TO.N,GND*%
X6450000Y28875000D03*
%TO.P,J6,12,Pin_12*%
%TO.N,/ADM_ENABLE_2*%
X3910000Y28875000D03*
%TO.P,J6,13,Pin_13*%
%TO.N,3V3_PROT*%
X6450000Y31415000D03*
%TO.P,J6,14,Pin_14*%
%TO.N,/ADM_ENABLE_1*%
X3910000Y31415000D03*
%TO.P,J6,15,Pin_15*%
%TO.N,3V3_PROT*%
X6450000Y33955000D03*
%TO.P,J6,16,Pin_16*%
%TO.N,GND*%
X3910000Y33955000D03*
%TO.P,J6,17,Pin_17*%
X6450000Y36495000D03*
%TO.P,J6,18,Pin_18*%
%TO.N,MEM_NAND_WR_PROTECT*%
X3910000Y36495000D03*
%TO.P,J6,19,Pin_19*%
%TO.N,MEM_D0*%
X6450000Y39035000D03*
%TO.P,J6,20,Pin_20*%
%TO.N,MEM_NAND_WR_ENABLE*%
X3910000Y39035000D03*
%TO.P,J6,21,Pin_21*%
%TO.N,MEM_D1*%
X6450000Y41575000D03*
%TO.P,J6,22,Pin_22*%
%TO.N,MEM_NAND_ADDR_ENABLE*%
X3910000Y41575000D03*
%TO.P,J6,23,Pin_23*%
%TO.N,MEM_D2*%
X6450000Y44115000D03*
%TO.P,J6,24,Pin_24*%
%TO.N,MEM_NAND_CMD_ENABLE*%
X3910000Y44115000D03*
%TO.P,J6,25,Pin_25*%
%TO.N,MEM_D3*%
X6450000Y46655000D03*
%TO.P,J6,26,Pin_26*%
%TO.N,MEM_NAND_ENABLE_2*%
X3910000Y46655000D03*
%TO.P,J6,27,Pin_27*%
%TO.N,MEM_D4*%
X6450000Y49195000D03*
%TO.P,J6,28,Pin_28*%
%TO.N,MEM_NAND_ENABLE_1*%
X3910000Y49195000D03*
%TO.P,J6,29,Pin_29*%
%TO.N,MEM_D5*%
X6450000Y51735000D03*
%TO.P,J6,30,Pin_30*%
%TO.N,MEM_NAND_OUT_ENABLE*%
X3910000Y51735000D03*
%TO.P,J6,31,Pin_31*%
%TO.N,MEM_D6*%
X6450000Y54275000D03*
%TO.P,J6,32,Pin_32*%
%TO.N,MEM_NAND_BUSY_1*%
X3910000Y54275000D03*
%TO.P,J6,33,Pin_33*%
%TO.N,MEM_D7*%
X6450000Y56815000D03*
%TO.P,J6,34,Pin_34*%
%TO.N,MEM_NAND_BUSY_2*%
X3910000Y56815000D03*
%TO.P,J6,35,Pin_35*%
%TO.N,GND*%
X6450000Y59355000D03*
%TO.P,J6,36,Pin_36*%
X3910000Y59355000D03*
%TO.P,J6,37,Pin_37*%
%TO.N,/RS422_Z_BUS*%
X6450000Y61895000D03*
%TO.P,J6,38,Pin_38*%
%TO.N,/RS422_Y_BUS*%
X3910000Y61895000D03*
%TO.P,J6,39,Pin_39*%
%TO.N,/RS422_B_BUS*%
X6450000Y64435000D03*
%TO.P,J6,40,Pin_40*%
%TO.N,/RS422_A_BUS*%
X3910000Y64435000D03*
%TD*%
D14*
%TO.P,J1,01,01*%
%TO.N,CAN1-*%
X14048000Y83309000D03*
D15*
%TO.P,J1,02,02*%
%TO.N,unconnected-(J1-Pad02)*%
X14048000Y85849000D03*
%TO.P,J1,03,03*%
%TO.N,CAN1+*%
X16588000Y83309000D03*
%TO.P,J1,04,04*%
%TO.N,unconnected-(J1-Pad04)*%
X16588000Y85849000D03*
%TO.P,J1,05,05*%
%TO.N,unconnected-(J1-Pad05)*%
X19128000Y83309000D03*
%TO.P,J1,06,06*%
%TO.N,unconnected-(J1-Pad06)*%
X19128000Y85849000D03*
%TO.P,J1,07,07*%
%TO.N,unconnected-(J1-Pad07)*%
X21668000Y83309000D03*
%TO.P,J1,08,08*%
%TO.N,unconnected-(J1-Pad08)*%
X21668000Y85849000D03*
%TO.P,J1,09,09*%
%TO.N,unconnected-(J1-Pad09)*%
X24208000Y83309000D03*
%TO.P,J1,10,10*%
%TO.N,unconnected-(J1-Pad10)*%
X24208000Y85849000D03*
%TO.P,J1,11,11*%
%TO.N,unconnected-(J1-Pad11)*%
X26748000Y83309000D03*
%TO.P,J1,12,12*%
%TO.N,unconnected-(J1-Pad12)*%
X26748000Y85849000D03*
%TO.P,J1,13,13*%
%TO.N,unconnected-(J1-Pad13)*%
X29288000Y83309000D03*
%TO.P,J1,14,14*%
%TO.N,unconnected-(J1-Pad14)*%
X29288000Y85849000D03*
%TO.P,J1,15,15*%
%TO.N,unconnected-(J1-Pad15)*%
X31828000Y83309000D03*
%TO.P,J1,16,16*%
%TO.N,unconnected-(J1-Pad16)*%
X31828000Y85849000D03*
%TO.P,J1,17,17*%
%TO.N,unconnected-(J1-Pad17)*%
X34368000Y83309000D03*
%TO.P,J1,18,18*%
%TO.N,unconnected-(J1-Pad18)*%
X34368000Y85849000D03*
%TO.P,J1,19,19*%
%TO.N,unconnected-(J1-Pad19)*%
X36908000Y83309000D03*
%TO.P,J1,20,20*%
%TO.N,unconnected-(J1-Pad20)*%
X36908000Y85849000D03*
%TO.P,J1,21,21*%
%TO.N,unconnected-(J1-Pad21)*%
X39448000Y83309000D03*
%TO.P,J1,22,22*%
%TO.N,unconnected-(J1-Pad22)*%
X39448000Y85849000D03*
%TO.P,J1,23,23*%
%TO.N,unconnected-(J1-Pad23)*%
X41988000Y83309000D03*
%TO.P,J1,24,24*%
%TO.N,unconnected-(J1-Pad24)*%
X41988000Y85849000D03*
%TO.P,J1,25,25*%
%TO.N,unconnected-(J1-Pad25)*%
X44528000Y83309000D03*
%TO.P,J1,26,26*%
%TO.N,unconnected-(J1-Pad26)*%
X44528000Y85849000D03*
%TO.P,J1,27,27*%
%TO.N,GND*%
X47068000Y83309000D03*
%TO.P,J1,28,28*%
X47068000Y85849000D03*
%TO.P,J1,29,29*%
%TO.N,unconnected-(J1-Pad29)*%
X49608000Y83309000D03*
%TO.P,J1,30,30*%
%TO.N,unconnected-(J1-Pad30)*%
X49608000Y85849000D03*
%TO.P,J1,31,31*%
%TO.N,GND*%
X52148000Y83309000D03*
%TO.P,J1,32,32*%
X52148000Y85849000D03*
%TO.P,J1,33,33*%
%TO.N,unconnected-(J1-Pad33)*%
X54688000Y83309000D03*
%TO.P,J1,34,34*%
%TO.N,unconnected-(J1-Pad34)*%
X54688000Y85849000D03*
%TO.P,J1,35,35*%
%TO.N,unconnected-(J1-Pad35)*%
X57228000Y83309000D03*
%TO.P,J1,36,36*%
%TO.N,unconnected-(J1-Pad36)*%
X57228000Y85849000D03*
%TO.P,J1,37,37*%
%TO.N,unconnected-(J1-Pad37)*%
X59768000Y83309000D03*
%TO.P,J1,38,38*%
%TO.N,unconnected-(J1-Pad38)*%
X59768000Y85849000D03*
%TO.P,J1,39,39*%
%TO.N,unconnected-(J1-Pad39)*%
X62308000Y83309000D03*
%TO.P,J1,40,40*%
%TO.N,unconnected-(J1-Pad40)*%
X62308000Y85849000D03*
%TO.P,J1,41,41*%
%TO.N,/I2C_MTQ_SDA*%
X64848000Y83309000D03*
%TO.P,J1,42,42*%
%TO.N,unconnected-(J1-Pad42)*%
X64848000Y85849000D03*
%TO.P,J1,43,43*%
%TO.N,/I2C_MTQ_SCK*%
X67388000Y83309000D03*
%TO.P,J1,44,44*%
%TO.N,unconnected-(J1-Pad44)*%
X67388000Y85849000D03*
%TO.P,J1,45,45*%
%TO.N,unconnected-(J1-Pad45)*%
X69928000Y83309000D03*
%TO.P,J1,46,46*%
%TO.N,unconnected-(J1-Pad46)*%
X69928000Y85849000D03*
%TO.P,J1,47,47*%
%TO.N,/EPS_5V_PANELS*%
X72468000Y83309000D03*
%TO.P,J1,48,48*%
%TO.N,/EPS_3V3_OBC*%
X72468000Y85849000D03*
%TO.P,J1,49,49*%
%TO.N,/EPS_5V_ADM*%
X75008000Y83309000D03*
%TO.P,J1,50,50*%
%TO.N,/EPS_3V3_ADCS*%
X75008000Y85849000D03*
%TO.P,J1,51,51*%
%TO.N,unconnected-(J1-Pad51)*%
X77548000Y83309000D03*
%TO.P,J1,52,52*%
%TO.N,unconnected-(J1-Pad52)*%
X77548000Y85849000D03*
%TD*%
D13*
%TO.P,J28,1,Pin_1*%
%TO.N,/ADCS_VDD*%
X13450000Y71900000D03*
%TD*%
D14*
%TO.P,J5,01,01*%
%TO.N,CAN2-*%
X14048000Y88389000D03*
D15*
%TO.P,J5,02,02*%
%TO.N,unconnected-(J5-Pad02)*%
X14048000Y90929000D03*
%TO.P,J5,03,03*%
%TO.N,CAN2+*%
X16588000Y88389000D03*
%TO.P,J5,04,04*%
%TO.N,unconnected-(J5-Pad04)*%
X16588000Y90929000D03*
%TO.P,J5,05,05*%
%TO.N,unconnected-(J5-Pad05)*%
X19128000Y88389000D03*
%TO.P,J5,06,06*%
%TO.N,unconnected-(J5-Pad06)*%
X19128000Y90929000D03*
%TO.P,J5,07,07*%
%TO.N,/COMMS_SWD*%
X21668000Y88389000D03*
%TO.P,J5,08,08*%
%TO.N,/COMMS_SWCLK*%
X21668000Y90929000D03*
%TO.P,J5,09,09*%
%TO.N,/COMMS_RST*%
X24208000Y88389000D03*
%TO.P,J5,10,10*%
%TO.N,/COMMS_3V3_REF*%
X24208000Y90929000D03*
%TO.P,J5,11,11*%
%TO.N,unconnected-(J5-Pad11)*%
X26748000Y88389000D03*
%TO.P,J5,12,12*%
%TO.N,unconnected-(J5-Pad12)*%
X26748000Y90929000D03*
%TO.P,J5,13,13*%
%TO.N,unconnected-(J5-Pad13)*%
X29288000Y88389000D03*
%TO.P,J5,14,14*%
%TO.N,unconnected-(J5-Pad14)*%
X29288000Y90929000D03*
%TO.P,J5,15,15*%
%TO.N,unconnected-(J5-Pad15)*%
X31828000Y88389000D03*
%TO.P,J5,16,16*%
%TO.N,unconnected-(J5-Pad16)*%
X31828000Y90929000D03*
%TO.P,J5,17,17*%
%TO.N,/OBC_UART_TX*%
X34368000Y88389000D03*
%TO.P,J5,18,18*%
%TO.N,/OBC_UART_RX*%
X34368000Y90929000D03*
%TO.P,J5,19,19*%
%TO.N,/ADCS_UART_TX*%
X36908000Y88389000D03*
%TO.P,J5,20,20*%
%TO.N,/ADCS_UART_RX*%
X36908000Y90929000D03*
%TO.P,J5,21,21*%
%TO.N,/COMMS_TX*%
X39448000Y88389000D03*
%TO.P,J5,22,22*%
%TO.N,/COMMS_RX*%
X39448000Y90929000D03*
%TO.P,J5,23,23*%
%TO.N,unconnected-(J5-Pad23)*%
X41988000Y88389000D03*
%TO.P,J5,24,24*%
%TO.N,unconnected-(J5-Pad24)*%
X41988000Y90929000D03*
%TO.P,J5,25,25*%
%TO.N,unconnected-(J5-Pad25)*%
X44528000Y88389000D03*
%TO.P,J5,26,26*%
%TO.N,unconnected-(J5-Pad26)*%
X44528000Y90929000D03*
%TO.P,J5,27,27*%
%TO.N,unconnected-(J5-Pad27)*%
X47068000Y88389000D03*
%TO.P,J5,28,28*%
%TO.N,unconnected-(J5-Pad28)*%
X47068000Y90929000D03*
%TO.P,J5,29,29*%
%TO.N,GND*%
X49608000Y88389000D03*
%TO.P,J5,30,30*%
X49608000Y90929000D03*
%TO.P,J5,31,31*%
%TO.N,unconnected-(J5-Pad31)*%
X52148000Y88389000D03*
%TO.P,J5,32,32*%
%TO.N,GND*%
X52148000Y90929000D03*
%TO.P,J5,33,33*%
%TO.N,unconnected-(J5-Pad33)*%
X54688000Y88389000D03*
%TO.P,J5,34,34*%
%TO.N,unconnected-(J5-Pad34)*%
X54688000Y90929000D03*
%TO.P,J5,35,35*%
%TO.N,unconnected-(J5-Pad35)*%
X57228000Y88389000D03*
%TO.P,J5,36,36*%
%TO.N,unconnected-(J5-Pad36)*%
X57228000Y90929000D03*
%TO.P,J5,37,37*%
%TO.N,GNSS_PPS*%
X59768000Y88389000D03*
%TO.P,J5,38,38*%
%TO.N,unconnected-(J5-Pad38)*%
X59768000Y90929000D03*
%TO.P,J5,39,39*%
%TO.N,unconnected-(J5-Pad39)*%
X62308000Y88389000D03*
%TO.P,J5,40,40*%
%TO.N,unconnected-(J5-Pad40)*%
X62308000Y90929000D03*
%TO.P,J5,41,41*%
%TO.N,unconnected-(J5-Pad41)*%
X64848000Y88389000D03*
%TO.P,J5,42,42*%
%TO.N,unconnected-(J5-Pad42)*%
X64848000Y90929000D03*
%TO.P,J5,43,43*%
%TO.N,unconnected-(J5-Pad43)*%
X67388000Y88389000D03*
%TO.P,J5,44,44*%
%TO.N,unconnected-(J5-Pad44)*%
X67388000Y90929000D03*
%TO.P,J5,45,45*%
%TO.N,unconnected-(J5-Pad45)*%
X69928000Y88389000D03*
%TO.P,J5,46,46*%
%TO.N,unconnected-(J5-Pad46)*%
X69928000Y90929000D03*
%TO.P,J5,47,47*%
%TO.N,unconnected-(J5-Pad47)*%
X72468000Y88389000D03*
%TO.P,J5,48,48*%
%TO.N,unconnected-(J5-Pad48)*%
X72468000Y90929000D03*
%TO.P,J5,49,49*%
%TO.N,unconnected-(J5-Pad49)*%
X75008000Y88389000D03*
%TO.P,J5,50,50*%
%TO.N,unconnected-(J5-Pad50)*%
X75008000Y90929000D03*
%TO.P,J5,51,51*%
%TO.N,unconnected-(J5-Pad51)*%
X77548000Y88389000D03*
%TO.P,J5,52,52*%
%TO.N,unconnected-(J5-Pad52)*%
X77548000Y90929000D03*
%TD*%
D16*
%TO.P,Q2,1,D1*%
%TO.N,/ADCS module/Over-voltage Protection/3V3_OC_PROT*%
X63025000Y79888000D03*
%TO.P,Q2,2,S1_1*%
%TO.N,/ADCS module/Over-voltage Protection/MOSFET_S*%
X63675000Y79888000D03*
%TO.P,Q2,3,S1_2*%
X64325000Y79888000D03*
%TO.P,Q2,4,G1*%
%TO.N,Net-(Q2-G1)*%
X64975000Y79888000D03*
%TO.P,Q2,5,G2*%
X64975000Y74012000D03*
%TO.P,Q2,6,S2_1*%
%TO.N,/ADCS module/Over-voltage Protection/MOSFET_S*%
X64325000Y74012000D03*
%TO.P,Q2,7,S2_2*%
X63675000Y74012000D03*
%TO.P,Q2,8,D2*%
%TO.N,/ADCS_VDD*%
X63025000Y74012000D03*
%TD*%
D17*
%TO.P,R9,1*%
%TO.N,I2C_SCK_PANELS*%
X70800000Y28770000D03*
%TO.P,R9,2*%
%TO.N,/ADCS_VDD*%
X70800000Y27750000D03*
%TD*%
D18*
%TO.P,TP53,1*%
%TO.N,/ADCS module/CAN_RX_2*%
X5620000Y75500000D03*
%TD*%
D19*
%TO.P,U14,1,PD0*%
%TO.N,unconnected-(U14-PD0-Pad1)*%
X48162000Y34350000D03*
%TO.P,U14,2,PD31*%
%TO.N,unconnected-(U14-PD31-Pad2)*%
X48162000Y34850000D03*
%TO.P,U14,3,VDDOUT*%
%TO.N,/ADCS module/Microcontroller/MCU_VDDCORE*%
X48162000Y35350000D03*
%TO.P,U14,4,PE0*%
%TO.N,unconnected-(U14-PE0-Pad4)*%
X48162000Y35850000D03*
%TO.P,U14,5,VDDIN*%
%TO.N,/ADCS_VDD*%
X48162000Y36350000D03*
%TO.P,U14,6,PE1*%
%TO.N,unconnected-(U14-PE1-Pad6)*%
X48162000Y36850000D03*
%TO.P,U14,7,PE2*%
%TO.N,unconnected-(U14-PE2-Pad7)*%
X48162000Y37350000D03*
%TO.P,U14,8,VREFN*%
%TO.N,GND*%
X48162000Y37850000D03*
%TO.P,U14,9,VREFP*%
%TO.N,/ADCS module/Microcontroller/MCU_AD_REF_POS*%
X48162000Y38350000D03*
%TO.P,U14,10,PE3*%
%TO.N,unconnected-(U14-PE3-Pad10)*%
X48162000Y38850000D03*
%TO.P,U14,11,PC0*%
%TO.N,unconnected-(U14-PC0-Pad11)*%
X48162000Y39350000D03*
%TO.P,U14,12,PC27*%
%TO.N,unconnected-(U14-PC27-Pad12)*%
X48162000Y39850000D03*
%TO.P,U14,13,PC26*%
%TO.N,unconnected-(U14-PC26-Pad13)*%
X48162000Y40350000D03*
%TO.P,U14,14,PC31*%
%TO.N,unconnected-(U14-PC31-Pad14)*%
X48162000Y40850000D03*
%TO.P,U14,15,PC30*%
%TO.N,unconnected-(U14-PC30-Pad15)*%
X48162000Y41350000D03*
%TO.P,U14,16,PC29*%
%TO.N,unconnected-(U14-PC29-Pad16)*%
X48162000Y41850000D03*
%TO.P,U14,17,PC12*%
%TO.N,/ADCS module/CAN_RX_2*%
X48162000Y42350000D03*
%TO.P,U14,18,PC15*%
%TO.N,unconnected-(U14-PC15-Pad18)*%
X48162000Y42850000D03*
%TO.P,U14,19,PC13*%
%TO.N,unconnected-(U14-PC13-Pad19)*%
X48162000Y43350000D03*
%TO.P,U14,20,PB1*%
%TO.N,unconnected-(U14-PB1-Pad20)*%
X48162000Y43850000D03*
%TO.P,U14,21,PB0*%
%TO.N,unconnected-(U14-PB0-Pad21)*%
X48162000Y44350000D03*
%TO.P,U14,22,PA20*%
%TO.N,unconnected-(U14-PA20-Pad22)*%
X48162000Y44850000D03*
%TO.P,U14,23,PA19*%
%TO.N,unconnected-(U14-PA19-Pad23)*%
X48162000Y45350000D03*
%TO.P,U14,24,PA18*%
%TO.N,unconnected-(U14-PA18-Pad24)*%
X48162000Y45850000D03*
%TO.P,U14,25,PA17*%
%TO.N,unconnected-(U14-PA17-Pad25)*%
X48162000Y46350000D03*
%TO.P,U14,26,PB2*%
%TO.N,/ADCS module/CAN_TX_1*%
X48162000Y46850000D03*
%TO.P,U14,27,PE4*%
%TO.N,unconnected-(U14-PE4-Pad27)*%
X48162000Y47350000D03*
%TO.P,U14,28,PE5*%
%TO.N,unconnected-(U14-PE5-Pad28)*%
X48162000Y47850000D03*
%TO.P,U14,29,VDDCORE_1*%
%TO.N,/ADCS module/Microcontroller/MCU_VDDCORE*%
X48162000Y48350000D03*
%TO.P,U14,30,VDDIO_1*%
%TO.N,/ADCS_VDD*%
X48162000Y48850000D03*
%TO.P,U14,31,PB3*%
%TO.N,/ADCS module/CAN_RX_1*%
X48162000Y49350000D03*
%TO.P,U14,32,PA21*%
%TO.N,unconnected-(U14-PA21-Pad32)*%
X48162000Y49850000D03*
%TO.P,U14,33,VDDCORE_2*%
%TO.N,/ADCS module/Microcontroller/MCU_VDDCORE*%
X48162000Y50350000D03*
%TO.P,U14,34,PD30*%
%TO.N,/ADCS module/PAYLOAD_RX_ENABLE*%
X48162000Y50850000D03*
%TO.P,U14,35,PA7*%
%TO.N,/ADCS module/MCU_RTC_IN*%
X48162000Y51350000D03*
%TO.P,U14,36,PA8*%
%TO.N,/ADCS module/MCU_RTC_OUT*%
X48162000Y51850000D03*
D20*
%TO.P,U14,37,PA22*%
%TO.N,/ADCS module/CAN_FAULT_1*%
X50150000Y53838000D03*
%TO.P,U14,38,PC1*%
%TO.N,/ADCS module/CAN_SILENT_1*%
X50650000Y53838000D03*
%TO.P,U14,39,PC2*%
%TO.N,unconnected-(U14-PC2-Pad39)*%
X51150000Y53838000D03*
%TO.P,U14,40,PC3*%
%TO.N,/ADCS module/CAN_FAULT_2*%
X51650000Y53838000D03*
%TO.P,U14,41,PC4*%
%TO.N,unconnected-(U14-PC4-Pad41)*%
X52150000Y53838000D03*
%TO.P,U14,42,PA13*%
%TO.N,GNSS_PPS*%
X52650000Y53838000D03*
%TO.P,U14,43,VDDIO_2*%
%TO.N,/ADCS_VDD*%
X53150000Y53838000D03*
%TO.P,U14,44,GND_1*%
%TO.N,GND*%
X53650000Y53838000D03*
%TO.P,U14,45,PA16*%
%TO.N,unconnected-(U14-PA16-Pad45)*%
X54150000Y53838000D03*
%TO.P,U14,46,PA23*%
%TO.N,unconnected-(U14-PA23-Pad46)*%
X54650000Y53838000D03*
%TO.P,U14,47,PD27*%
%TO.N,/ADCS module/I2C_SDA_SENS*%
X55150000Y53838000D03*
%TO.P,U14,48,PC7*%
%TO.N,unconnected-(U14-PC7-Pad48)*%
X55650000Y53838000D03*
%TO.P,U14,49,PA15*%
%TO.N,unconnected-(U14-PA15-Pad49)*%
X56150000Y53838000D03*
%TO.P,U14,50,VDDCORE_3*%
%TO.N,/ADCS module/Microcontroller/MCU_VDDCORE*%
X56650000Y53838000D03*
%TO.P,U14,51,PA14*%
%TO.N,unconnected-(U14-PA14-Pad51)*%
X57150000Y53838000D03*
%TO.P,U14,52,PD25*%
%TO.N,/ADCS module/PAYLOAD_RX*%
X57650000Y53838000D03*
%TO.P,U14,53,PD26*%
%TO.N,/ADCS module/PAYLOAD_TX*%
X58150000Y53838000D03*
%TO.P,U14,54,PC6*%
%TO.N,unconnected-(U14-PC6-Pad54)*%
X58650000Y53838000D03*
%TO.P,U14,55,PD24*%
%TO.N,/ADCS module/CAN_SILENT_2*%
X59150000Y53838000D03*
%TO.P,U14,56,PA24*%
%TO.N,unconnected-(U14-PA24-Pad56)*%
X59650000Y53838000D03*
%TO.P,U14,57,PD23*%
%TO.N,unconnected-(U14-PD23-Pad57)*%
X60150000Y53838000D03*
%TO.P,U14,58,PC5*%
%TO.N,unconnected-(U14-PC5-Pad58)*%
X60650000Y53838000D03*
%TO.P,U14,59,PA25*%
%TO.N,unconnected-(U14-PA25-Pad59)*%
X61150000Y53838000D03*
%TO.P,U14,60,PD22*%
%TO.N,unconnected-(U14-PD22-Pad60)*%
X61650000Y53838000D03*
%TO.P,U14,61,GND_2*%
%TO.N,GND*%
X62150000Y53838000D03*
%TO.P,U14,62,PA26*%
%TO.N,unconnected-(U14-PA26-Pad62)*%
X62650000Y53838000D03*
%TO.P,U14,63,PD21*%
%TO.N,/ADM_ENABLE_1*%
X63150000Y53838000D03*
%TO.P,U14,64,PA11*%
%TO.N,unconnected-(U14-PA11-Pad64)*%
X63650000Y53838000D03*
%TO.P,U14,65,PD20*%
%TO.N,unconnected-(U14-PD20-Pad65)*%
X64150000Y53838000D03*
%TO.P,U14,66,PA10*%
%TO.N,/ADCS_UART_TX*%
X64650000Y53838000D03*
%TO.P,U14,67,PD19*%
%TO.N,unconnected-(U14-PD19-Pad67)*%
X65150000Y53838000D03*
%TO.P,U14,68,PA12*%
%TO.N,unconnected-(U14-PA12-Pad68)*%
X65650000Y53838000D03*
%TO.P,U14,69,PD18*%
%TO.N,unconnected-(U14-PD18-Pad69)*%
X66150000Y53838000D03*
%TO.P,U14,70,PA27*%
%TO.N,unconnected-(U14-PA27-Pad70)*%
X66650000Y53838000D03*
%TO.P,U14,71,PD28*%
%TO.N,/ADCS module/I2C_SCK_SENS*%
X67150000Y53838000D03*
%TO.P,U14,72,VDDIO_3*%
%TO.N,/ADCS_VDD*%
X67650000Y53838000D03*
D19*
%TO.P,U14,73,PA5*%
%TO.N,/ADM_ENABLE_2*%
X69638000Y51850000D03*
%TO.P,U14,74,PD17*%
%TO.N,unconnected-(U14-PD17-Pad74)*%
X69638000Y51350000D03*
%TO.P,U14,75,PA9*%
%TO.N,/ADCS_UART_RX*%
X69638000Y50850000D03*
%TO.P,U14,76,PC28*%
%TO.N,unconnected-(U14-PC28-Pad76)*%
X69638000Y50350000D03*
%TO.P,U14,77,PA4*%
%TO.N,/I2C_MTQ_SCK*%
X69638000Y49850000D03*
%TO.P,U14,78,PD16*%
%TO.N,/ADCS module/PAYLOAD_TX_ENABLE*%
X69638000Y49350000D03*
%TO.P,U14,79,PB6*%
%TO.N,ADCS_SWDIO*%
X69638000Y48850000D03*
%TO.P,U14,80,VDDIO_4*%
%TO.N,/ADCS_VDD*%
X69638000Y48350000D03*
%TO.P,U14,81,VDDCORE_4*%
%TO.N,/ADCS module/Microcontroller/MCU_VDDCORE*%
X69638000Y47850000D03*
%TO.P,U14,82,PC8*%
%TO.N,unconnected-(U14-PC8-Pad82)*%
X69638000Y47350000D03*
%TO.P,U14,83,NRST*%
%TO.N,/ADCS_RESET*%
X69638000Y46850000D03*
%TO.P,U14,84,PD14*%
%TO.N,unconnected-(U14-PD14-Pad84)*%
X69638000Y46350000D03*
%TO.P,U14,85,TST*%
%TO.N,GND*%
X69638000Y45850000D03*
%TO.P,U14,86,PC9*%
%TO.N,unconnected-(U14-PC9-Pad86)*%
X69638000Y45350000D03*
%TO.P,U14,87,PB12*%
%TO.N,ADCS_ERASE*%
X69638000Y44850000D03*
%TO.P,U14,88,PD13*%
%TO.N,unconnected-(U14-PD13-Pad88)*%
X69638000Y44350000D03*
%TO.P,U14,89,PB7*%
%TO.N,ADCS_SWCLK*%
X69638000Y43850000D03*
%TO.P,U14,90,PC10*%
%TO.N,unconnected-(U14-PC10-Pad90)*%
X69638000Y43350000D03*
%TO.P,U14,91,PA3*%
%TO.N,/I2C_MTQ_SDA*%
X69638000Y42850000D03*
%TO.P,U14,92,PD12*%
%TO.N,unconnected-(U14-PD12-Pad92)*%
X69638000Y42350000D03*
%TO.P,U14,93,PA2*%
%TO.N,unconnected-(U14-PA2-Pad93)*%
X69638000Y41850000D03*
%TO.P,U14,94,PC11*%
%TO.N,unconnected-(U14-PC11-Pad94)*%
X69638000Y41350000D03*
%TO.P,U14,95,GND_3*%
%TO.N,GND*%
X69638000Y40850000D03*
%TO.P,U14,96,VDDIO_5*%
%TO.N,/ADCS_VDD*%
X69638000Y40350000D03*
%TO.P,U14,97,PC14*%
%TO.N,/ADCS module/CAN_TX_2*%
X69638000Y39850000D03*
%TO.P,U14,98,PD11*%
%TO.N,unconnected-(U14-PD11-Pad98)*%
X69638000Y39350000D03*
%TO.P,U14,99,PA1*%
%TO.N,unconnected-(U14-PA1-Pad99)*%
X69638000Y38850000D03*
%TO.P,U14,100,PC16*%
%TO.N,unconnected-(U14-PC16-Pad100)*%
X69638000Y38350000D03*
%TO.P,U14,101,PD10*%
%TO.N,unconnected-(U14-PD10-Pad101)*%
X69638000Y37850000D03*
%TO.P,U14,102,PA0*%
%TO.N,unconnected-(U14-PA0-Pad102)*%
X69638000Y37350000D03*
%TO.P,U14,103,PC17*%
%TO.N,unconnected-(U14-PC17-Pad103)*%
X69638000Y36850000D03*
%TO.P,U14,104,JTAGSEL*%
%TO.N,GND*%
X69638000Y36350000D03*
%TO.P,U14,105,PB4*%
%TO.N,I2C_SDA_PANELS*%
X69638000Y35850000D03*
%TO.P,U14,106,PD15*%
%TO.N,unconnected-(U14-PD15-Pad106)*%
X69638000Y35350000D03*
%TO.P,U14,107,VDDCORE_5*%
%TO.N,/ADCS module/Microcontroller/MCU_VDDCORE*%
X69638000Y34850000D03*
%TO.P,U14,108,PD29*%
%TO.N,/ADCS module/USR_GPIO*%
X69638000Y34350000D03*
D20*
%TO.P,U14,109,PB5*%
%TO.N,I2C_SCK_PANELS*%
X67650000Y32362000D03*
%TO.P,U14,110,PD9*%
%TO.N,unconnected-(U14-PD9-Pad110)*%
X67150000Y32362000D03*
%TO.P,U14,111,PC18*%
%TO.N,unconnected-(U14-PC18-Pad111)*%
X66650000Y32362000D03*
%TO.P,U14,112,PA28*%
%TO.N,unconnected-(U14-PA28-Pad112)*%
X66150000Y32362000D03*
%TO.P,U14,113,PD8*%
%TO.N,/ADCS module/ADCS_TRACECLK*%
X65650000Y32362000D03*
%TO.P,U14,114,PA6*%
%TO.N,unconnected-(U14-PA6-Pad114)*%
X65150000Y32362000D03*
%TO.P,U14,115,GND_4*%
%TO.N,GND*%
X64650000Y32362000D03*
%TO.P,U14,116,PA30*%
%TO.N,unconnected-(U14-PA30-Pad116)*%
X64150000Y32362000D03*
%TO.P,U14,117,PC19*%
%TO.N,/ADCS module/USR_GPIO_PWM*%
X63650000Y32362000D03*
%TO.P,U14,118,PA31*%
%TO.N,unconnected-(U14-PA31-Pad118)*%
X63150000Y32362000D03*
%TO.P,U14,119,PD7*%
%TO.N,/ADCS module/ADCS_TRACED_3*%
X62650000Y32362000D03*
%TO.P,U14,120,PC20*%
%TO.N,unconnected-(U14-PC20-Pad120)*%
X62150000Y32362000D03*
%TO.P,U14,121,PD6*%
%TO.N,/ADCS module/ADCS_TRACED_2*%
X61650000Y32362000D03*
%TO.P,U14,122,PC21*%
%TO.N,unconnected-(U14-PC21-Pad122)*%
X61150000Y32362000D03*
%TO.P,U14,123,VDDPLL*%
%TO.N,/ADCS module/Microcontroller/MCU_VDDPLL*%
X60650000Y32362000D03*
%TO.P,U14,124,PC22*%
%TO.N,unconnected-(U14-PC22-Pad124)*%
X60150000Y32362000D03*
%TO.P,U14,125,PD5*%
%TO.N,/ADCS module/ADCS_TRACED_1*%
X59650000Y32362000D03*
%TO.P,U14,126,PD4*%
%TO.N,/ADCS module/ADCS_TRACED_0*%
X59150000Y32362000D03*
%TO.P,U14,127,PC23*%
%TO.N,unconnected-(U14-PC23-Pad127)*%
X58650000Y32362000D03*
%TO.P,U14,128,PD3*%
%TO.N,unconnected-(U14-PD3-Pad128)*%
X58150000Y32362000D03*
%TO.P,U14,129,PA29*%
%TO.N,unconnected-(U14-PA29-Pad129)*%
X57650000Y32362000D03*
%TO.P,U14,130,PC24*%
%TO.N,unconnected-(U14-PC24-Pad130)*%
X57150000Y32362000D03*
%TO.P,U14,131,PD2*%
%TO.N,unconnected-(U14-PD2-Pad131)*%
X56650000Y32362000D03*
%TO.P,U14,132,PD1*%
%TO.N,unconnected-(U14-PD1-Pad132)*%
X56150000Y32362000D03*
%TO.P,U14,133,PC25*%
%TO.N,unconnected-(U14-PC25-Pad133)*%
X55650000Y32362000D03*
%TO.P,U14,134,VDDUTMII*%
%TO.N,/ADCS_VDD*%
X55150000Y32362000D03*
%TO.P,U14,135,GND_5*%
%TO.N,GND*%
X54650000Y32362000D03*
%TO.P,U14,136,HSDM*%
%TO.N,unconnected-(U14-HSDM-Pad136)*%
X54150000Y32362000D03*
%TO.P,U14,137,HSDP*%
%TO.N,unconnected-(U14-HSDP-Pad137)*%
X53650000Y32362000D03*
%TO.P,U14,138,GND_6*%
%TO.N,GND*%
X53150000Y32362000D03*
%TO.P,U14,139,VDDUTMIC*%
%TO.N,/ADCS module/Microcontroller/MCU_VDDUTMIC*%
X52650000Y32362000D03*
%TO.P,U14,140,VBG*%
%TO.N,unconnected-(U14-VBG-Pad140)*%
X52150000Y32362000D03*
%TO.P,U14,141,PB8*%
%TO.N,GND*%
X51650000Y32362000D03*
%TO.P,U14,142,PB9*%
%TO.N,/ADCS module/Microcontroller/MCU_CLK_IN*%
X51150000Y32362000D03*
%TO.P,U14,143,VDDPLLUSB*%
%TO.N,unconnected-(U14-VDDPLLUSB-Pad143)*%
X50650000Y32362000D03*
%TO.P,U14,144,PB13*%
%TO.N,unconnected-(U14-PB13-Pad144)*%
X50150000Y32362000D03*
%TD*%
D21*
%TO.P,R32,1*%
%TO.N,/ADCS module/Over-voltage Protection/PROT_UV_LIM*%
X70325000Y75800000D03*
%TO.P,R32,2*%
%TO.N,Net-(R32-Pad2)*%
X71975000Y75800000D03*
%TD*%
D22*
%TO.P,C35,1*%
%TO.N,/ADCS module/Microcontroller/MCU_VDDCORE*%
X56300000Y55320000D03*
%TO.P,C35,2*%
%TO.N,GND*%
X56300000Y56280000D03*
%TD*%
D13*
%TO.P,J30,1,Pin_1*%
%TO.N,/ADCS_VDD*%
X73525000Y26350000D03*
%TD*%
D23*
%TO.P,R23,1*%
%TO.N,/ADCS_VDD*%
X75800000Y49015000D03*
%TO.P,R23,2*%
%TO.N,ADCS_SWDIO*%
X75800000Y50035000D03*
%TD*%
D24*
%TO.P,J20,1,1*%
%TO.N,/ADCS module/ADCS_TRACECLK*%
X48800000Y7715000D03*
%TO.P,J20,2,2*%
%TO.N,/ADCS module/ADCS_TRACED_3*%
X47800000Y7715000D03*
%TO.P,J20,3,3*%
%TO.N,/ADCS module/ADCS_TRACED_2*%
X46800000Y7715000D03*
%TO.P,J20,4,4*%
%TO.N,/ADCS module/ADCS_TRACED_1*%
X45800000Y7715000D03*
%TO.P,J20,5,5*%
%TO.N,/ADCS module/ADCS_TRACED_0*%
X44800000Y7715000D03*
%TO.P,J20,6,6*%
%TO.N,GND*%
X43800000Y7715000D03*
D25*
%TO.P,J20,MP1,MP1*%
%TO.N,unconnected-(J20-PadMP1)*%
X51175000Y4725000D03*
%TO.P,J20,MP2,MP2*%
%TO.N,unconnected-(J20-PadMP2)*%
X41425000Y4725000D03*
%TD*%
D26*
%TO.P,C21,1*%
%TO.N,/ADCS module/MCU_RTC_IN*%
X46425000Y53438000D03*
%TO.P,C21,2*%
%TO.N,GND*%
X44875000Y53438000D03*
%TD*%
D27*
%TO.P,IC8,1,NC_1*%
%TO.N,unconnected-(IC8-NC_1-Pad1)*%
X36637000Y57885000D03*
%TO.P,IC8,2,RO*%
%TO.N,/OBC module/PAYLOAD_RX*%
X36637000Y56615000D03*
%TO.P,IC8,3,~{RE}*%
%TO.N,/OBC module/PAYLOAD_RX_ENABLE*%
X36637000Y55345000D03*
%TO.P,IC8,4,DE*%
%TO.N,/OBC module/PAYLOAD_TX_ENABLE*%
X36637000Y54075000D03*
%TO.P,IC8,5,DI*%
%TO.N,/OBC module/PAYLOAD_TX*%
X36637000Y52805000D03*
%TO.P,IC8,6,GND_1*%
%TO.N,GND*%
X36637000Y51535000D03*
%TO.P,IC8,7,GND_2*%
X36637000Y50265000D03*
%TO.P,IC8,8,NC_2*%
%TO.N,unconnected-(IC8-NC_2-Pad8)*%
X31213000Y50265000D03*
%TO.P,IC8,9,Y*%
%TO.N,/RS422_Y_BUS*%
X31213000Y51535000D03*
%TO.P,IC8,10,Z*%
%TO.N,/RS422_Z_BUS*%
X31213000Y52805000D03*
%TO.P,IC8,11,B*%
%TO.N,/RS422_B_BUS*%
X31213000Y54075000D03*
%TO.P,IC8,12,A*%
%TO.N,/RS422_A_BUS*%
X31213000Y55345000D03*
%TO.P,IC8,13,VCC_1*%
%TO.N,3V3_PROT*%
X31213000Y56615000D03*
%TO.P,IC8,14,VCC_2*%
X31213000Y57885000D03*
%TD*%
D28*
%TO.P,R30,1*%
%TO.N,Net-(R28-Pad2)*%
X72375000Y77350000D03*
%TO.P,R30,2*%
%TO.N,/ADCS module/Over-voltage Protection/PROT_UV_LIM*%
X70725000Y77350000D03*
%TD*%
D23*
%TO.P,R123,1*%
%TO.N,/ADCS_VDD*%
X6200000Y78590000D03*
%TO.P,R123,2*%
%TO.N,/ADCS module/CAN_FAULT_2*%
X6200000Y79610000D03*
%TD*%
D27*
%TO.P,IC9,1,NC_1*%
%TO.N,unconnected-(IC9-NC_1-Pad1)*%
X50812000Y73235000D03*
%TO.P,IC9,2,RO*%
%TO.N,/ADCS module/PAYLOAD_RX*%
X50812000Y71965000D03*
%TO.P,IC9,3,~{RE}*%
%TO.N,/ADCS module/PAYLOAD_RX_ENABLE*%
X50812000Y70695000D03*
%TO.P,IC9,4,DE*%
%TO.N,/ADCS module/PAYLOAD_TX_ENABLE*%
X50812000Y69425000D03*
%TO.P,IC9,5,DI*%
%TO.N,/ADCS module/PAYLOAD_TX*%
X50812000Y68155000D03*
%TO.P,IC9,6,GND_1*%
%TO.N,GND*%
X50812000Y66885000D03*
%TO.P,IC9,7,GND_2*%
X50812000Y65615000D03*
%TO.P,IC9,8,NC_2*%
%TO.N,unconnected-(IC9-NC_2-Pad8)*%
X45388000Y65615000D03*
%TO.P,IC9,9,Y*%
%TO.N,/RS422_Y_BUS*%
X45388000Y66885000D03*
%TO.P,IC9,10,Z*%
%TO.N,/RS422_Z_BUS*%
X45388000Y68155000D03*
%TO.P,IC9,11,B*%
%TO.N,/RS422_B_BUS*%
X45388000Y69425000D03*
%TO.P,IC9,12,A*%
%TO.N,/RS422_A_BUS*%
X45388000Y70695000D03*
%TO.P,IC9,13,VCC_1*%
%TO.N,/ADCS_VDD*%
X45388000Y71965000D03*
%TO.P,IC9,14,VCC_2*%
X45388000Y73235000D03*
%TD*%
D29*
%TO.P,C19,1*%
%TO.N,/ADCS module/TEMP_FUSE_1*%
X74750000Y65080000D03*
%TO.P,C19,2*%
%TO.N,GND*%
X74750000Y64120000D03*
%TD*%
D28*
%TO.P,R31,1*%
%TO.N,Net-(R29-Pad2)*%
X71975000Y72700000D03*
%TO.P,R31,2*%
%TO.N,/ADCS module/Over-voltage Protection/PROT_OV_LIM*%
X70325000Y72700000D03*
%TD*%
D26*
%TO.P,C38,1*%
%TO.N,/ADCS module/Microcontroller/MCU_VDDCORE*%
X46375000Y33750000D03*
%TO.P,C38,2*%
%TO.N,GND*%
X44825000Y33750000D03*
%TD*%
D17*
%TO.P,R10,1*%
%TO.N,I2C_SDA_PANELS*%
X73710000Y35850000D03*
%TO.P,R10,2*%
%TO.N,/ADCS_VDD*%
X73710000Y34830000D03*
%TD*%
D30*
%TO.P,U11,1,TXD*%
%TO.N,/ADCS module/CAN_TX_2*%
X11605000Y75549000D03*
%TO.P,U11,2,GND*%
%TO.N,GND*%
X10335000Y75549000D03*
%TO.P,U11,3,VCC*%
%TO.N,/ADCS module/CAN_TRX_FUSE_2*%
X9065000Y75549000D03*
%TO.P,U11,4,RXD*%
%TO.N,/ADCS module/CAN_RX_2*%
X7795000Y75549000D03*
%TO.P,U11,5,FAULT*%
%TO.N,/ADCS module/CAN_FAULT_2*%
X7795000Y80971000D03*
%TO.P,U11,6,CANL*%
%TO.N,CAN2-*%
X9065000Y80971000D03*
%TO.P,U11,7,CANH*%
%TO.N,CAN2+*%
X10335000Y80971000D03*
%TO.P,U11,8,S*%
%TO.N,/ADCS module/CAN_SILENT_2*%
X11605000Y80971000D03*
%TD*%
D31*
%TO.P,U13,1,SDA*%
%TO.N,/ADCS module/I2C_SDA_SENS*%
X67000000Y64075000D03*
%TO.P,U13,2,SCL*%
%TO.N,/ADCS module/I2C_SCK_SENS*%
X67000000Y63425000D03*
%TO.P,U13,3,ALERT*%
%TO.N,unconnected-(U13-ALERT-Pad3)*%
X67000000Y62775000D03*
%TO.P,U13,4,GND*%
%TO.N,GND*%
X67000000Y62125000D03*
%TO.P,U13,5,A2*%
X62600000Y62125000D03*
%TO.P,U13,6,A1*%
X62600000Y62775000D03*
%TO.P,U13,7,A0*%
%TO.N,/ADCS module/TEMP_FUSE_2*%
X62600000Y63425000D03*
%TO.P,U13,8,VDD*%
X62600000Y64075000D03*
%TD*%
D32*
%TO.P,U15,1,VIN*%
%TO.N,/ADCS module/Over-voltage Protection/3V3_OC_PROT*%
X66825000Y77212500D03*
%TO.P,U15,2,UV*%
%TO.N,/ADCS module/Over-voltage Protection/PROT_UV_LIM*%
X67475000Y77212500D03*
%TO.P,U15,3,OV*%
%TO.N,/ADCS module/Over-voltage Protection/PROT_OV_LIM*%
X68125000Y77212500D03*
%TO.P,U15,4,GND*%
%TO.N,GND*%
X68775000Y77212500D03*
%TO.P,U15,5,~{SHDN}*%
%TO.N,Net-(U15-~{SHDN})*%
X68775000Y72987500D03*
%TO.P,U15,6,~{FAULT}*%
%TO.N,unconnected-(U15-~{FAULT}-Pad6)*%
X68125000Y72987500D03*
%TO.P,U15,7,VOUT*%
%TO.N,/ADCS_VDD*%
X67475000Y72987500D03*
%TO.P,U15,8,GATE*%
%TO.N,Net-(Q2-G1)*%
X66825000Y72987500D03*
%TD*%
D29*
%TO.P,C33,1*%
%TO.N,/ADCS module/Microcontroller/MCU_VDDPLL*%
X60625000Y30880000D03*
%TO.P,C33,2*%
%TO.N,GND*%
X60625000Y29920000D03*
%TD*%
D33*
%TO.P,C24,1*%
%TO.N,/ADCS module/MCU_RTC_OUT*%
X48300000Y55575000D03*
%TO.P,C24,2*%
%TO.N,GND*%
X48300000Y57125000D03*
%TD*%
D22*
%TO.P,C40,1*%
%TO.N,/ADCS_VDD*%
X71150000Y40020000D03*
%TO.P,C40,2*%
%TO.N,GND*%
X71150000Y40980000D03*
%TD*%
D34*
%TO.P,C20,1*%
%TO.N,/ADCS module/TEMP_FUSE_2*%
X63120000Y65400000D03*
%TO.P,C20,2*%
%TO.N,GND*%
X64080000Y65400000D03*
%TD*%
D29*
%TO.P,C26,1*%
%TO.N,/ADCS module/Microcontroller/MCU_AD_REF_POS*%
X46400000Y39180000D03*
%TO.P,C26,2*%
%TO.N,GND*%
X46400000Y38220000D03*
%TD*%
D18*
%TO.P,TP52,1,1*%
%TO.N,/ADCS module/CAN_TRX_FUSE_1*%
X35200000Y78600000D03*
%TD*%
D35*
%TO.P,C30,1*%
%TO.N,/ADCS_VDD*%
X44750000Y37775000D03*
%TO.P,C30,2*%
%TO.N,GND*%
X44750000Y36225000D03*
%TD*%
D36*
%TO.P,R8,1*%
%TO.N,/RS422_A_BUS*%
X30000000Y60375000D03*
%TO.P,R8,2*%
%TO.N,3V3_PROT*%
X30000000Y62025000D03*
%TD*%
D34*
%TO.P,C18,1*%
%TO.N,/ADCS module/CAN_TRX_FUSE_2*%
X9150000Y74020000D03*
%TO.P,C18,2*%
%TO.N,GND*%
X10110000Y74020000D03*
%TD*%
D23*
%TO.P,R20,1*%
%TO.N,/ADCS_VDD*%
X73400000Y41140000D03*
%TO.P,R20,2*%
%TO.N,/I2C_MTQ_SDA*%
X73400000Y42160000D03*
%TD*%
D33*
%TO.P,C101,1*%
%TO.N,AC_GND_2*%
X86600000Y11125000D03*
%TO.P,C101,2*%
%TO.N,GND*%
X86600000Y12675000D03*
%TD*%
D37*
%TO.P,FID2,*%
%TO.N,*%
X2300000Y2300000D03*
%TD*%
D34*
%TO.P,C41,1*%
%TO.N,/ADCS module/Microcontroller/MCU_VDDCORE*%
X71170000Y34650000D03*
%TO.P,C41,2*%
%TO.N,GND*%
X72130000Y34650000D03*
%TD*%
D38*
%TO.P,Y1,1,CRYSTAL_1*%
%TO.N,/ADCS module/MCU_RTC_IN*%
X43350000Y56800000D03*
%TO.P,Y1,2,CRYSTAL_2*%
%TO.N,/ADCS module/MCU_RTC_OUT*%
X45850000Y56800000D03*
%TD*%
D33*
%TO.P,C92,1*%
%TO.N,/ADCS module/CAN_TRX_FUSE_1*%
X33900000Y74925000D03*
%TO.P,C92,2*%
%TO.N,GND*%
X33900000Y76475000D03*
%TD*%
D18*
%TO.P,TP30,1,1*%
%TO.N,/ADCS module/USR_GPIO*%
X74400000Y32200000D03*
%TD*%
D29*
%TO.P,C91,1*%
%TO.N,GND*%
X47350000Y28330000D03*
%TO.P,C91,2*%
%TO.N,/ADCS_VDD*%
X47350000Y27370000D03*
%TD*%
D39*
%TO.P,C28,1*%
%TO.N,/ADCS_VDD*%
X45940000Y48810000D03*
%TO.P,C28,2*%
%TO.N,GND*%
X44980000Y48810000D03*
%TD*%
D40*
%TO.P,J18,1,1*%
%TO.N,ADCS_SWDIO*%
X84878000Y58110000D03*
%TO.P,J18,2,2*%
%TO.N,ADCS_ERASE*%
X81322000Y55570000D03*
%TO.P,J18,3,3*%
%TO.N,ADCS_SWCLK*%
X84878000Y53030000D03*
%TO.P,J18,4,4*%
%TO.N,GND*%
X81322000Y50490000D03*
%TD*%
D41*
%TO.P,F8,1*%
%TO.N,/ADCS_VDD*%
X77590000Y64450000D03*
%TO.P,F8,2*%
%TO.N,/ADCS module/TEMP_FUSE_1*%
X76010000Y64450000D03*
%TD*%
D42*
%TO.P,F7,1*%
%TO.N,/ADCS_VDD*%
X7260000Y71200000D03*
%TO.P,F7,2*%
%TO.N,/ADCS module/CAN_TRX_FUSE_2*%
X8840000Y71200000D03*
%TD*%
D34*
%TO.P,C23,1*%
%TO.N,/ADCS module/Microcontroller/MCU_VDDUTMIC*%
X52670000Y30825000D03*
%TO.P,C23,2*%
%TO.N,GND*%
X53630000Y30825000D03*
%TD*%
D43*
%TO.P,U12,1,SDA*%
%TO.N,/ADCS module/I2C_SDA_SENS*%
X73425000Y60450000D03*
%TO.P,U12,2,SCL*%
%TO.N,/ADCS module/I2C_SCK_SENS*%
X72775000Y60450000D03*
%TO.P,U12,3,ALERT*%
%TO.N,unconnected-(U12-ALERT-Pad3)*%
X72125000Y60450000D03*
%TO.P,U12,4,GND*%
%TO.N,GND*%
X71475000Y60450000D03*
%TO.P,U12,5,A2*%
X71475000Y64850000D03*
%TO.P,U12,6,A1*%
X72125000Y64850000D03*
%TO.P,U12,7,A0*%
X72775000Y64850000D03*
%TO.P,U12,8,VDD*%
%TO.N,/ADCS module/TEMP_FUSE_1*%
X73425000Y64850000D03*
%TD*%
D36*
%TO.P,R16,1*%
%TO.N,/RS422_B_BUS*%
X28700000Y54275000D03*
%TO.P,R16,2*%
%TO.N,/RS422_A_BUS*%
X28700000Y55925000D03*
%TD*%
D44*
%TO.P,J24,1,1*%
%TO.N,/ADCS module/I2C_SDA_SENS*%
X57895000Y74205000D03*
%TO.P,J24,2,2*%
%TO.N,/ADCS module/I2C_SCK_SENS*%
X56625000Y71745000D03*
%TD*%
D34*
%TO.P,C31,1*%
%TO.N,/ADCS_VDD*%
X52870000Y55350000D03*
%TO.P,C31,2*%
%TO.N,GND*%
X53830000Y55350000D03*
%TD*%
D23*
%TO.P,R24,1*%
%TO.N,/I2C_MTQ_SCK*%
X72850000Y51440000D03*
%TO.P,R24,2*%
%TO.N,/ADCS_VDD*%
X72850000Y52460000D03*
%TD*%
D33*
%TO.P,C99,1*%
%TO.N,AC_GND_2*%
X85100000Y11125000D03*
%TO.P,C99,2*%
%TO.N,GND*%
X85100000Y12675000D03*
%TD*%
D45*
%TO.P,F9,1*%
%TO.N,/ADCS_VDD*%
X61850000Y67240000D03*
%TO.P,F9,2*%
%TO.N,/ADCS module/TEMP_FUSE_2*%
X61850000Y65660000D03*
%TD*%
D36*
%TO.P,R29,1*%
%TO.N,GND*%
X73450000Y71775000D03*
%TO.P,R29,2*%
%TO.N,Net-(R29-Pad2)*%
X73450000Y73425000D03*
%TD*%
D18*
%TO.P,TP13,1,1*%
%TO.N,/ADCS module/USR_GPIO_PWM*%
X74400000Y29900000D03*
%TD*%
D29*
%TO.P,C37,1*%
%TO.N,/ADCS module/Microcontroller/MCU_VDDCORE*%
X71150000Y46880000D03*
%TO.P,C37,2*%
%TO.N,GND*%
X71150000Y45920000D03*
%TD*%
D46*
%TO.P,C94,1*%
%TO.N,/ADCS module/CAN_TRX_FUSE_2*%
X8755000Y72770000D03*
%TO.P,C94,2*%
%TO.N,GND*%
X10305000Y72770000D03*
%TD*%
D47*
%TO.P,FL3,1*%
%TO.N,/ADCS module/Microcontroller/MCU_VDDCORE*%
X61900000Y28325000D03*
%TO.P,FL3,2*%
%TO.N,/ADCS module/Microcontroller/MCU_VDDPLL*%
X61900000Y29675000D03*
%TD*%
D48*
%TO.P,FL1,1*%
%TO.N,/ADCS_VDD*%
X43725000Y40000000D03*
%TO.P,FL1,2*%
%TO.N,/ADCS module/Microcontroller/MCU_AD_REF_POS*%
X45075000Y40000000D03*
%TD*%
D42*
%TO.P,F6,1*%
%TO.N,/ADCS_VDD*%
X36990000Y75000000D03*
%TO.P,F6,2*%
%TO.N,/ADCS module/CAN_TRX_FUSE_1*%
X35410000Y75000000D03*
%TD*%
D39*
%TO.P,C22,1*%
%TO.N,/ADCS_VDD*%
X55580000Y30800000D03*
%TO.P,C22,2*%
%TO.N,GND*%
X54620000Y30800000D03*
%TD*%
D49*
%TO.P,F10,1*%
%TO.N,/EPS_3V3_ADCS*%
X73300000Y80250000D03*
%TO.P,F10,2*%
%TO.N,/ADCS module/Over-voltage Protection/3V3_OC_PROT*%
X71100000Y80250000D03*
%TD*%
D18*
%TO.P,TP54,1*%
%TO.N,/ADCS module/CAN_TX_2*%
X14400000Y73900000D03*
%TD*%
D50*
%TO.P,R122,1*%
%TO.N,/ADCS_VDD*%
X24990000Y72500000D03*
%TO.P,R122,2*%
%TO.N,/ADCS module/CAN_FAULT_1*%
X26010000Y72500000D03*
%TD*%
D17*
%TO.P,R14,1*%
%TO.N,/ADCS_VDD*%
X54800000Y56410000D03*
%TO.P,R14,2*%
%TO.N,/ADCS module/I2C_SDA_SENS*%
X54800000Y55390000D03*
%TD*%
D23*
%TO.P,R15,1*%
%TO.N,/ADCS_VDD*%
X69150000Y57590000D03*
%TO.P,R15,2*%
%TO.N,/ADCS module/I2C_SCK_SENS*%
X69150000Y58610000D03*
%TD*%
D21*
%TO.P,R33,1*%
%TO.N,/ADCS module/Over-voltage Protection/PROT_OV_LIM*%
X70325000Y74250000D03*
%TO.P,R33,2*%
%TO.N,Net-(R32-Pad2)*%
X71975000Y74250000D03*
%TD*%
D51*
%TO.P,R28,1*%
%TO.N,/ADCS module/Over-voltage Protection/3V3_OC_PROT*%
X73800000Y77725000D03*
%TO.P,R28,2*%
%TO.N,Net-(R28-Pad2)*%
X73800000Y76075000D03*
%TD*%
D39*
%TO.P,C32,1*%
%TO.N,/ADCS module/Microcontroller/MCU_VDDCORE*%
X46680000Y50550000D03*
%TO.P,C32,2*%
%TO.N,GND*%
X45720000Y50550000D03*
%TD*%
D52*
%TO.P,R26,1*%
%TO.N,/ADCS_VDD*%
X73460000Y44200000D03*
%TO.P,R26,2*%
%TO.N,ADCS_SWCLK*%
X72440000Y44200000D03*
%TD*%
D29*
%TO.P,C39,1*%
%TO.N,/ADCS_VDD*%
X46450000Y36910000D03*
%TO.P,C39,2*%
%TO.N,GND*%
X46450000Y35950000D03*
%TD*%
D37*
%TO.P,FID3,*%
%TO.N,*%
X87800000Y93800000D03*
%TD*%
D39*
%TO.P,C42,1*%
%TO.N,/ADCS module/Microcontroller/MCU_VDDCORE*%
X46680000Y35000000D03*
%TO.P,C42,2*%
%TO.N,GND*%
X45720000Y35000000D03*
%TD*%
D17*
%TO.P,R11,1*%
%TO.N,/ADCS_VDD*%
X17300000Y56385000D03*
%TO.P,R11,2*%
%TO.N,/ADCS_RESET*%
X17300000Y55365000D03*
%TD*%
D36*
%TO.P,R17,1*%
%TO.N,GND*%
X25400000Y53775000D03*
%TO.P,R17,2*%
%TO.N,/RS422_B_BUS*%
X25400000Y55425000D03*
%TD*%
D53*
%TO.P,U10,1,TXD*%
%TO.N,/ADCS module/CAN_TX_1*%
X31011000Y77705000D03*
%TO.P,U10,2,GND*%
%TO.N,GND*%
X31011000Y76435000D03*
%TO.P,U10,3,VCC*%
%TO.N,/ADCS module/CAN_TRX_FUSE_1*%
X31011000Y75165000D03*
%TO.P,U10,4,RXD*%
%TO.N,/ADCS module/CAN_RX_1*%
X31011000Y73895000D03*
%TO.P,U10,5,FAULT*%
%TO.N,/ADCS module/CAN_FAULT_1*%
X25589000Y73895000D03*
%TO.P,U10,6,CANL*%
%TO.N,CAN1-*%
X25589000Y75165000D03*
%TO.P,U10,7,CANH*%
%TO.N,CAN1+*%
X25589000Y76435000D03*
%TO.P,U10,8,S*%
%TO.N,/ADCS module/CAN_SILENT_1*%
X25589000Y77705000D03*
%TD*%
D54*
%TO.P,Y2,1,TRI-STATE*%
%TO.N,unconnected-(Y2-TRI-STATE-Pad1)*%
X49325000Y27975000D03*
%TO.P,Y2,2,GND*%
%TO.N,GND*%
X49325000Y29825000D03*
%TO.P,Y2,3,OUTPUT*%
%TO.N,/ADCS module/Microcontroller/MCU_CLK_IN*%
X50775000Y29825000D03*
%TO.P,Y2,4,VDD*%
%TO.N,/ADCS_VDD*%
X50775000Y27975000D03*
%TD*%
D34*
%TO.P,C34,1*%
%TO.N,/ADCS_VDD*%
X68620000Y55350000D03*
%TO.P,C34,2*%
%TO.N,GND*%
X69580000Y55350000D03*
%TD*%
D22*
%TO.P,C36,1*%
%TO.N,/ADCS_VDD*%
X71750000Y47795000D03*
%TO.P,C36,2*%
%TO.N,GND*%
X71750000Y48755000D03*
%TD*%
D21*
%TO.P,R34,1*%
%TO.N,Net-(U15-~{SHDN})*%
X66825000Y80300000D03*
%TO.P,R34,2*%
%TO.N,/ADCS module/Over-voltage Protection/3V3_OC_PROT*%
X68475000Y80300000D03*
%TD*%
D39*
%TO.P,C29,1*%
%TO.N,/ADCS module/Microcontroller/MCU_VDDCORE*%
X46680000Y47800000D03*
%TO.P,C29,2*%
%TO.N,GND*%
X45720000Y47800000D03*
%TD*%
D47*
%TO.P,FL2,1*%
%TO.N,/ADCS module/Microcontroller/MCU_VDDCORE*%
X54450000Y27225000D03*
%TO.P,FL2,2*%
%TO.N,/ADCS module/Microcontroller/MCU_VDDUTMIC*%
X54450000Y28575000D03*
%TD*%
D18*
%TO.P,TP56,1,1*%
%TO.N,/ADCS module/CAN_FAULT_2*%
X8830000Y83540000D03*
%TD*%
%TO.P,TP55,1,1*%
%TO.N,/ADCS module/CAN_SILENT_2*%
X13790000Y80130000D03*
%TD*%
D36*
%TO.P,R7,1*%
%TO.N,/RS422_Y_BUS*%
X28700000Y51175000D03*
%TO.P,R7,2*%
%TO.N,/RS422_Z_BUS*%
X28700000Y52825000D03*
%TD*%
D37*
%TO.P,FID1,*%
%TO.N,*%
X87800000Y2300000D03*
%TD*%
D22*
%TO.P,C17,1*%
%TO.N,/ADCS module/CAN_TRX_FUSE_1*%
X32600000Y75170000D03*
%TO.P,C17,2*%
%TO.N,GND*%
X32600000Y76130000D03*
%TD*%
D55*
%TO.N,/OBC module/3V3_LCLPROT_NAND*%
X19450000Y51500000D03*
X47298620Y57825500D03*
%TO.N,GND*%
X47600000Y16600000D03*
X33550000Y69400000D03*
X72463082Y63144775D03*
X43411765Y49939356D03*
X48300000Y64200000D03*
X71800000Y66025000D03*
X72600000Y30900000D03*
X11450000Y72650000D03*
X74100000Y47100000D03*
X55000000Y29900000D03*
X23400000Y41500000D03*
X72675000Y66050000D03*
X33550000Y77700000D03*
X67800000Y36500000D03*
X63825000Y66274500D03*
X83300000Y33950000D03*
X44450000Y43474500D03*
X67300000Y60900000D03*
X60825000Y63274500D03*
X30775201Y70850201D03*
X81600000Y44500000D03*
X76775000Y5300000D03*
X49400000Y57800000D03*
X5200000Y81700000D03*
X43366241Y34898540D03*
X75130000Y54830000D03*
X50254992Y38855008D03*
X75775500Y43700000D03*
X83300000Y29800000D03*
X68000000Y37700000D03*
X15350000Y15025000D03*
X38725000Y42475000D03*
X58599500Y56967278D03*
X58600000Y46400000D03*
X61000000Y61700000D03*
X67550000Y47900000D03*
X67687701Y33787701D03*
X77124702Y59700202D03*
X6674102Y73623326D03*
X16625000Y63600000D03*
X76475000Y3800000D03*
X59825000Y55525000D03*
X47900000Y74400000D03*
X51390000Y49199989D03*
X35275000Y48825000D03*
X53900000Y29900000D03*
X55610482Y56930966D03*
X81800500Y51575000D03*
X48700000Y19826944D03*
X82125500Y65125000D03*
X44710000Y51560000D03*
X35625000Y91600000D03*
X44200000Y54100000D03*
X17250000Y12500000D03*
X47100000Y24800000D03*
X66100000Y10100000D03*
X69600000Y54649500D03*
X45449500Y38925500D03*
X41300000Y62950000D03*
X36300000Y48850000D03*
X53400000Y56350000D03*
X73200000Y75000000D03*
X20113782Y19490461D03*
X62387701Y55712299D03*
X73600000Y54100000D03*
X53100000Y35700000D03*
X25250000Y65275000D03*
X66500000Y71500000D03*
X39100000Y76600000D03*
X81575000Y39000000D03*
X49250000Y24174500D03*
X36490742Y45200000D03*
X19500000Y50400000D03*
X64600000Y31100000D03*
X82275000Y70725000D03*
X30250000Y37500000D03*
X63901953Y64186763D03*
X67100000Y56000000D03*
X72500000Y33438030D03*
X49700000Y35800000D03*
X42450000Y8450000D03*
X37600008Y72300000D03*
X69756632Y76845193D03*
X44230000Y48000000D03*
X38360903Y16264317D03*
X70950000Y65925000D03*
X24600000Y22600000D03*
X74222701Y59300000D03*
X31700000Y7400000D03*
X65500000Y44950000D03*
X18675500Y69800000D03*
X51500000Y37400000D03*
X37300000Y59500000D03*
X86600000Y13600000D03*
X63800000Y26000000D03*
X14525000Y15825000D03*
X20675000Y26675000D03*
X60700000Y42800000D03*
X71850000Y71375000D03*
X27500000Y20000000D03*
X20150000Y32700000D03*
X19300000Y33750000D03*
X1800000Y82700000D03*
X45000000Y47200000D03*
X67400000Y59500000D03*
X31600000Y14700000D03*
X85100000Y13600000D03*
X19550000Y12550000D03*
X43373809Y36404080D03*
X73200000Y62275000D03*
X74780505Y49114314D03*
X24700000Y52700000D03*
X79497175Y49973749D03*
X38068983Y89251723D03*
X38917870Y15565529D03*
X24852333Y31870397D03*
X55225000Y66875000D03*
X56670000Y52500998D03*
X51450000Y55350000D03*
X53350000Y63950000D03*
X52600000Y66300000D03*
X46263346Y28317380D03*
X66724115Y49545772D03*
X74550000Y62250000D03*
X17050000Y18000000D03*
X18276668Y20976266D03*
X73050000Y40200000D03*
X63050000Y47675500D03*
X20600000Y12500000D03*
X73303571Y37000000D03*
X74850000Y46350000D03*
X51549067Y64030103D03*
X68200000Y43600000D03*
X65625000Y61175000D03*
X60598056Y29001944D03*
%TO.N,/ADCS_VDD*%
X7300000Y77900000D03*
X44710000Y49800000D03*
X68025000Y70075000D03*
X56175000Y29575000D03*
X52000000Y56550000D03*
X69150000Y56300000D03*
X75600000Y34780000D03*
X41275000Y74175000D03*
X68050000Y68800000D03*
X17300000Y57175000D03*
X75775500Y44900000D03*
X72725000Y27475000D03*
X17025000Y58100000D03*
X70950000Y56200000D03*
X73700000Y52555500D03*
X76047663Y47847663D03*
X74350000Y41100000D03*
X74847299Y39272701D03*
X6800000Y69800000D03*
X23800000Y73700000D03*
X82350000Y66700000D03*
X44575000Y41325000D03*
X75433724Y65827573D03*
X53800000Y58300000D03*
X71550000Y27000000D03*
X48528357Y27075471D03*
X61800000Y68699500D03*
X62298300Y71630500D03*
X42150000Y74675000D03*
X36400000Y76700000D03*
X72655809Y48537448D03*
%TO.N,/OBC module/3V3_LCLPROT_MRAM*%
X67600000Y26000000D03*
X67600000Y28900000D03*
X62950000Y33800000D03*
%TO.N,/ADCS module/Microcontroller/MCU_VDDCORE*%
X62900000Y28300000D03*
X71200000Y33500000D03*
X45803305Y51672096D03*
X46280000Y46754500D03*
X53650000Y26975500D03*
X55517915Y57926173D03*
X72500000Y46500000D03*
X43300000Y31300000D03*
%TO.N,/OBC module/MCU_VDDCORE*%
X36275500Y42275000D03*
X51600000Y35600000D03*
X39025982Y14571891D03*
X32800000Y13700000D03*
X20700000Y20300000D03*
X50500000Y19900000D03*
X21350000Y32700000D03*
%TO.N,MCU_ERASE*%
X14300000Y30750000D03*
X25600000Y30950000D03*
%TO.N,MCU_SWDIO*%
X76600000Y74750000D03*
X19900000Y37650000D03*
X10650000Y44300000D03*
X9000000Y57400000D03*
X11650000Y34450000D03*
%TO.N,MCU_SWCLK*%
X26200000Y29750000D03*
X13050000Y31200000D03*
X10600000Y57550000D03*
X12200000Y44650000D03*
X76500000Y72700000D03*
%TO.N,ADCS_SWCLK*%
X79450000Y53650000D03*
X85875000Y54500000D03*
%TO.N,/OBC module/LCL_MRAM_SET*%
X61900000Y40500000D03*
X57100000Y26250000D03*
%TO.N,/OBC module/LCL_MRAM_RST*%
X63300000Y37500000D03*
X56740000Y24460000D03*
%TO.N,/OBC module/LCL_CAN_1_SET*%
X47004429Y60955706D03*
X38775000Y38549500D03*
X47250000Y70825000D03*
X38825500Y44424500D03*
%TO.N,/OBC module/LCL_CAN_1_RST*%
X42762299Y59637701D03*
X43700000Y65900000D03*
%TO.N,/OBC module/LCL_CAN1_OP-AMP_OUT*%
X58000000Y65800000D03*
X72550000Y57650000D03*
%TO.N,/OBC module/PAYLOAD_RX*%
X36490742Y47825000D03*
%TO.N,/OBC module/PAYLOAD_RX_ENABLE*%
X44169503Y45905497D03*
%TO.N,/OBC module/PAYLOAD_TX_ENABLE*%
X34612701Y53862701D03*
X25700000Y34925000D03*
%TO.N,/I2C_MTQ_SDA*%
X78274500Y42500000D03*
X75850000Y81600000D03*
X65400000Y43800000D03*
X37939742Y41750000D03*
%TO.N,/I2C_MTQ_SCK*%
X53900000Y40275500D03*
X24970104Y38375431D03*
X75198170Y52589129D03*
%TO.N,/OBC module/PAYLOAD_TX*%
X34439735Y49625303D03*
%TO.N,ADCS_SWDIO*%
X79300000Y57750000D03*
%TO.N,/OBC_UART_TX*%
X79375000Y51625000D03*
X27280000Y35910000D03*
%TO.N,/OBC_UART_RX*%
X18699500Y38924500D03*
X77125000Y51800000D03*
%TO.N,/ADCS_UART_TX*%
X78275000Y71625000D03*
%TO.N,/ADCS_UART_RX*%
X82050000Y69725000D03*
%TO.N,ADCS_ERASE*%
X81993737Y54035421D03*
X77475000Y47775000D03*
%TO.N,/ADCS_RESET*%
X76300000Y68625000D03*
X17700000Y54250000D03*
X56800000Y40000000D03*
X66164025Y46839426D03*
%TO.N,/EPS_5V_ADM*%
X2000000Y60450000D03*
%TO.N,/ADM_ENABLE_1*%
X61550000Y50770000D03*
X42200000Y44800000D03*
X75350000Y57650000D03*
%TO.N,/ADM_ENABLE_2*%
X75300000Y55850000D03*
X9800000Y42300000D03*
X35962500Y38762500D03*
%TO.N,/OBC module/MCU_TRACECLK*%
X27200000Y17200000D03*
X23430000Y7820000D03*
%TO.N,/OBC module/MCU_TRACED_3*%
X26000000Y21500000D03*
X25750000Y10400000D03*
%TO.N,/OBC module/MCU_TRACED_2*%
X27700000Y22500000D03*
X26995000Y9135000D03*
%TO.N,/OBC module/MCU_TRACED_1*%
X28680000Y9130000D03*
X30500000Y21600000D03*
%TO.N,/OBC module/MCU_TRACED_0*%
X32200000Y20700000D03*
X31400000Y8800000D03*
%TO.N,/ADCS module/PAYLOAD_RX_ENABLE*%
X52389650Y70164650D03*
X50075000Y50150000D03*
%TO.N,/OBC module/MEM_MRAM_ENABLE*%
X62800000Y9400000D03*
X31900000Y22700000D03*
%TO.N,/OBC module/MEM_MRAM_WR_ENABLE*%
X33600000Y22800000D03*
X69210000Y9920000D03*
%TO.N,/ADCS module/I2C_SDA_SENS*%
X69375000Y64675500D03*
X74500000Y60950000D03*
X55620000Y51820000D03*
%TO.N,/ADCS module/PAYLOAD_TX_ENABLE*%
X53975000Y69300000D03*
X74850000Y51025000D03*
%TO.N,/ADCS module/PAYLOAD_TX*%
X55112701Y68387701D03*
X57530155Y68755155D03*
%TO.N,/OBC module/I2C_SDA_SENS*%
X19425000Y21100000D03*
X22550000Y15050000D03*
X18425201Y13799799D03*
%TO.N,/OBC module/LCL_PWM_CAN1*%
X44900000Y60900000D03*
X47200000Y63500000D03*
%TO.N,/OBC module/LCL_PWM_MRAM*%
X55150000Y25850000D03*
X60087299Y34087299D03*
%TO.N,/OBC module/LCL_PWM_NAND*%
X57700000Y34100000D03*
X55600000Y28600000D03*
%TO.N,/OBC module/MEM_A20*%
X32550000Y37550000D03*
X28900000Y11400000D03*
%TO.N,/OBC module/MEM_A5*%
X35450000Y17050000D03*
X69200000Y16600000D03*
%TO.N,/OBC module/MEM_A6*%
X35400000Y20000000D03*
X70700960Y14789040D03*
%TO.N,/OBC module/MEM_A7*%
X34900000Y21700000D03*
X71370000Y11540000D03*
%TO.N,/OBC module/MEM_A8*%
X40750000Y24500000D03*
X71100000Y17700000D03*
%TO.N,/OBC module/MEM_A9*%
X73100000Y18600000D03*
X42550000Y24600000D03*
%TO.N,/OBC module/MEM_A10*%
X71200000Y26000000D03*
X34100000Y32500000D03*
%TO.N,/OBC module/MEM_A11*%
X72300000Y22500000D03*
X39887877Y27669050D03*
%TO.N,/OBC module/MEM_A12*%
X39200000Y26050000D03*
X70800000Y21000000D03*
%TO.N,/OBC module/MEM_A13*%
X68800000Y19900000D03*
X41400000Y26150000D03*
%TO.N,/OBC module/MEM_MRAM_OUT_ENABLE*%
X63600000Y14400000D03*
X29800000Y27650000D03*
%TO.N,/OBC module/MEM_A17*%
X53040000Y13980000D03*
X30350000Y23550000D03*
%TO.N,/OBC module/MEM_A18*%
X29900000Y25200000D03*
X51250000Y13700000D03*
%TO.N,/OBC module/MEM_A19*%
X52720273Y28469773D03*
X36500000Y34524598D03*
%TO.N,GNSS_PPS*%
X53800000Y45850000D03*
X22600000Y42850000D03*
X9250000Y43850000D03*
X39900000Y38600000D03*
X54750000Y77350000D03*
%TO.N,/ADCS module/CAN_TX_1*%
X49499002Y48222894D03*
X29255000Y75745000D03*
%TO.N,/ADCS module/CAN_RX_1*%
X50138298Y48991208D03*
X40552129Y70475500D03*
%TO.N,/ADCS module/CAN_TX_2*%
X67900000Y40600000D03*
X11300000Y77175500D03*
%TO.N,/ADCS module/CAN_RX_2*%
X7423942Y74284193D03*
X50200000Y42350000D03*
%TO.N,/ADCS module/CAN_FAULT_2*%
X45225000Y58675000D03*
X49425500Y55270000D03*
%TO.N,/ADCS module/CAN_SILENT_2*%
X53000000Y42200000D03*
X11370000Y79060000D03*
%TO.N,/COMMS_RX*%
X40525000Y91550000D03*
X87275000Y65275000D03*
%TO.N,/COMMS_TX*%
X40725000Y89000500D03*
X87400000Y63675000D03*
%TO.N,/COMMS_3V3_REF*%
X85270577Y56764922D03*
X24225000Y92325500D03*
%TO.N,/COMMS_RST*%
X80925000Y85475000D03*
X85474750Y55650250D03*
X25350000Y87300000D03*
%TO.N,/COMMS_SWCLK*%
X81775000Y57425000D03*
X21675000Y92325500D03*
%TO.N,/COMMS_SWD*%
X22953582Y90374500D03*
X86725000Y60150000D03*
%TO.N,/OBC module/CAN_RX_2*%
X29160000Y32870000D03*
X12910498Y74524500D03*
%TO.N,/OBC module/CAN_FAULT_2*%
X19143501Y41943500D03*
X9700000Y79600000D03*
%TO.N,/OBC module/CAN_TX_1*%
X17400000Y72400000D03*
X39420000Y32380000D03*
%TO.N,/OBC module/CAN_RX_1*%
X42300000Y35700000D03*
X22400000Y74125000D03*
%TO.N,/OBC module/CAN_SILENT_1*%
X17824500Y78775000D03*
X19400000Y67800000D03*
%TO.N,/OBC module/CAN_FAULT_1*%
X22400000Y79200000D03*
X20400000Y66000000D03*
%TO.N,/OBC module/CAN_TX_2*%
X9000000Y77400000D03*
X26900000Y28700000D03*
%TO.N,/OBC module/CAN_SILENT_2*%
X7300000Y82600000D03*
X19226484Y40947449D03*
%TO.N,CAN1-*%
X74300000Y68068921D03*
X82950000Y41100000D03*
X82385793Y64159986D03*
X27700000Y79750500D03*
%TO.N,CAN1+*%
X27700000Y78650500D03*
X82325500Y63147870D03*
X76109467Y67369421D03*
X82600000Y42300000D03*
%TO.N,CAN2-*%
X78306717Y76343283D03*
X83337163Y32450000D03*
%TO.N,CAN2+*%
X83337163Y31350000D03*
X80124500Y77225000D03*
%TO.N,/OBC module/NRST_OBC*%
X15450500Y31425000D03*
X81023056Y47148056D03*
X77049500Y61750000D03*
X24917931Y32917471D03*
%TO.N,AC_GND_1*%
X4425000Y87400000D03*
X2300000Y87400000D03*
X6450000Y87400000D03*
%TO.N,AC_GND_2*%
X85200000Y9100000D03*
X81275000Y5200000D03*
X86500000Y9100000D03*
X81275000Y3900000D03*
%TO.N,I2C_SDA_PANELS*%
X20500000Y28100000D03*
X19100000Y5600000D03*
%TO.N,I2C_SCK_PANELS*%
X17350000Y7600000D03*
X21417701Y36417701D03*
X11650000Y33000000D03*
%TO.N,/RS422_Y_BUS*%
X43400000Y67400000D03*
X29500000Y50550000D03*
%TO.N,/RS422_B_BUS*%
X27628768Y61628768D03*
X42771232Y69228768D03*
%TO.N,/RS422_A_BUS*%
X28371232Y62371232D03*
X42028768Y69971232D03*
%TO.N,/RS422_Z_BUS*%
X43750000Y68600000D03*
X29750000Y53200000D03*
%TO.N,MEM_D7*%
X40300000Y55800000D03*
X64100000Y22500000D03*
X33009668Y33940332D03*
X9300000Y66800000D03*
%TO.N,MEM_NAND_ENABLE_2*%
X15674500Y54150000D03*
X19850000Y44350000D03*
%TO.N,MEM_D5*%
X38306559Y46268441D03*
X31375500Y33550000D03*
X32424500Y44950000D03*
X67500000Y22300000D03*
%TO.N,MEM_D1*%
X65500000Y16600000D03*
X35900000Y28800000D03*
%TO.N,MEM_NAND_ADDR_ENABLE*%
X16277438Y35800000D03*
%TO.N,MEM_D2*%
X34100000Y28800000D03*
X67200000Y15850000D03*
%TO.N,MEM_NAND_OUT_ENABLE*%
X24800000Y50300000D03*
%TO.N,MEM_NAND_ENABLE_1*%
X27437701Y42837701D03*
X19000000Y54000000D03*
%TO.N,MEM_NAND_WR_ENABLE*%
X17002438Y34622867D03*
%TO.N,MEM_D3*%
X33075000Y28700000D03*
X68300000Y14400000D03*
%TO.N,MEM_D0*%
X38900000Y24150000D03*
X37700000Y28900000D03*
X63500000Y17500000D03*
%TO.N,MEM_D4*%
X58600000Y30000000D03*
X38744503Y36424500D03*
%TO.N,MEM_NAND_WR_PROTECT*%
X17601153Y44511153D03*
X26450000Y37400000D03*
%TO.N,MEM_D6*%
X34524006Y47100500D03*
X37939742Y47250000D03*
X65831600Y22356199D03*
X32700000Y35800000D03*
%TO.N,3V3_PROT*%
X57825000Y58075000D03*
X47600000Y15400000D03*
X72300000Y43000000D03*
X21600000Y25373540D03*
X15674500Y58575000D03*
X67300000Y10000000D03*
X49600000Y34500000D03*
X63100000Y42100000D03*
X61100000Y10000000D03*
X25225000Y42425000D03*
X19700000Y30700000D03*
X20150000Y2150000D03*
X68496928Y64136036D03*
X19924951Y59699952D03*
X63300000Y39300000D03*
X51400000Y46200000D03*
X81850000Y61698370D03*
X28425000Y64025000D03*
X56600000Y42450000D03*
X36680000Y67990000D03*
X60800000Y77600000D03*
X24400000Y15000000D03*
X17550000Y18950000D03*
X46800000Y49599500D03*
X18025500Y58525000D03*
X14467936Y33193337D03*
X14200000Y11300000D03*
X67200000Y46050000D03*
X54400000Y61500000D03*
X20000000Y22700000D03*
X29325000Y58875000D03*
X18700000Y35500000D03*
X21537701Y61937701D03*
X19950000Y35509999D03*
X51975000Y74475000D03*
X45000000Y76000000D03*
X15900000Y18350000D03*
X24394500Y66775000D03*
X45100000Y64200000D03*
X49200000Y22500000D03*
X39852248Y42523153D03*
X43000000Y76500000D03*
X32500000Y71800000D03*
X60100000Y52400000D03*
X67150000Y50450000D03*
X62050000Y76150000D03*
X20250000Y7975000D03*
X63350000Y35650000D03*
X28499500Y58700000D03*
X32425000Y58525000D03*
X50375201Y25075500D03*
X62200498Y79711461D03*
X37375000Y16100000D03*
%TD*%
D56*
%TO.N,GND*%
X72500000Y33438030D02*
X72130000Y33808030D01*
D57*
X44750000Y36225000D02*
X45025000Y35950000D01*
D56*
X47580000Y28330000D02*
X49075000Y29825000D01*
X44514781Y33750000D02*
X44825000Y33750000D01*
D58*
X72270000Y49275000D02*
X71750000Y48755000D01*
X62600000Y62775000D02*
X63550000Y62775000D01*
X61324500Y62775000D02*
X60825000Y63274500D01*
X80805749Y49973749D02*
X81322000Y50490000D01*
X79497175Y49973749D02*
X80805749Y49973749D01*
D56*
X51650000Y33350000D02*
X51650000Y32362000D01*
D57*
X10110000Y75324000D02*
X10335000Y75549000D01*
D58*
X45000000Y47200000D02*
X45600000Y47800000D01*
D56*
X69638000Y45850000D02*
X71080000Y45850000D01*
X53900000Y30555000D02*
X53630000Y30825000D01*
D58*
X24700000Y53075000D02*
X25400000Y53775000D01*
D57*
X33625000Y76200000D02*
X33900000Y76475000D01*
D58*
X74780505Y49114314D02*
X74619819Y49275000D01*
D56*
X53650000Y53838000D02*
X53650000Y55170000D01*
D58*
X69580000Y54669500D02*
X69580000Y55350000D01*
D59*
X50812000Y64767170D02*
X51549067Y64030103D01*
D58*
X61974500Y62125000D02*
X62600000Y62125000D01*
D56*
X73200000Y62275000D02*
X73200000Y62675000D01*
X71420000Y45650000D02*
X71150000Y45920000D01*
D57*
X10305000Y72770000D02*
X10305000Y73825000D01*
D60*
X69756632Y76845193D02*
X69142307Y76845193D01*
D58*
X72675000Y66050000D02*
X72775000Y65950000D01*
D56*
X55610482Y56930966D02*
X55649034Y56930966D01*
D57*
X32600000Y76130000D02*
X32295000Y76435000D01*
D56*
X49325000Y29825000D02*
X49325000Y32973522D01*
X54620000Y30280000D02*
X54620000Y30800000D01*
D58*
X63550000Y62775000D02*
X63901953Y63126953D01*
D56*
X63825000Y66274500D02*
X64080000Y66019500D01*
X53400000Y56350000D02*
X53830000Y55920000D01*
X54620000Y30800000D02*
X54650000Y30830000D01*
X62387701Y55712299D02*
X62150000Y55474598D01*
D57*
X10305000Y72770000D02*
X11330000Y72770000D01*
D59*
X35275000Y48825000D02*
X35275000Y51100000D01*
D56*
X43366241Y34898540D02*
X44514781Y33750000D01*
D59*
X36637000Y49187000D02*
X36300000Y48850000D01*
D56*
X71020000Y40850000D02*
X69638000Y40850000D01*
D58*
X60598056Y29001944D02*
X60625000Y29028888D01*
D57*
X43373809Y36404080D02*
X43552889Y36225000D01*
D56*
X53900000Y29900000D02*
X53900000Y30555000D01*
X64600000Y31100000D02*
X64650000Y31150000D01*
X73200000Y62675000D02*
X73650000Y63125000D01*
D61*
X85100000Y13600000D02*
X85100000Y12675000D01*
D56*
X44230000Y48060000D02*
X44980000Y48810000D01*
D57*
X33550000Y77700000D02*
X33900000Y77350000D01*
D58*
X44213000Y54100000D02*
X44875000Y53438000D01*
D56*
X53830000Y55920000D02*
X53830000Y55350000D01*
D58*
X69600000Y54649500D02*
X69580000Y54669500D01*
X48725000Y57125000D02*
X48300000Y57125000D01*
D57*
X45025000Y35950000D02*
X46450000Y35950000D01*
D56*
X45650000Y35000000D02*
X44825000Y34175000D01*
D59*
X51685000Y65615000D02*
X53350000Y63950000D01*
D60*
X73050000Y71375000D02*
X73450000Y71775000D01*
D59*
X55215000Y66885000D02*
X55225000Y66875000D01*
D58*
X49400000Y57800000D02*
X48725000Y57125000D01*
D56*
X51500000Y33500000D02*
X51650000Y33350000D01*
X73650000Y63125000D02*
X74600000Y63125000D01*
X64650000Y31150000D02*
X64650000Y32362000D01*
X64080000Y66019500D02*
X64080000Y65400000D01*
D57*
X11330000Y72770000D02*
X11450000Y72650000D01*
D56*
X46155000Y38220000D02*
X46400000Y38220000D01*
D59*
X35710000Y51535000D02*
X36637000Y51535000D01*
D58*
X44200000Y54100000D02*
X44213000Y54100000D01*
D56*
X44230000Y48000000D02*
X44230000Y48060000D01*
D58*
X72125000Y65700000D02*
X72125000Y64850000D01*
D56*
X67950000Y36350000D02*
X69638000Y36350000D01*
X73050000Y40200000D02*
X72270000Y40980000D01*
D57*
X32600000Y76130000D02*
X32670000Y76200000D01*
X32670000Y76200000D02*
X33625000Y76200000D01*
D58*
X44710000Y51560000D02*
X45720000Y50550000D01*
D59*
X50812000Y65615000D02*
X50812000Y64767170D01*
D58*
X45600000Y47800000D02*
X45720000Y47800000D01*
X60625000Y29028888D02*
X60625000Y29920000D01*
D59*
X50812000Y65615000D02*
X51685000Y65615000D01*
D58*
X62600000Y62775000D02*
X61324500Y62775000D01*
D56*
X46263346Y28317380D02*
X47337380Y28317380D01*
X47337380Y28317380D02*
X47350000Y28330000D01*
X48162000Y37850000D02*
X46750000Y37850000D01*
X55000000Y29900000D02*
X54620000Y30280000D01*
D58*
X74619819Y49275000D02*
X72270000Y49275000D01*
D57*
X33900000Y77350000D02*
X33900000Y76475000D01*
D56*
X45720000Y35000000D02*
X45650000Y35000000D01*
D58*
X24700000Y52700000D02*
X24700000Y53075000D01*
D56*
X54650000Y30830000D02*
X54650000Y32362000D01*
X49325000Y32973522D02*
X49851478Y33500000D01*
D58*
X71475000Y65400000D02*
X71475000Y64850000D01*
D56*
X49075000Y29825000D02*
X49325000Y29825000D01*
D57*
X10305000Y73825000D02*
X10110000Y74020000D01*
D56*
X74600000Y63125000D02*
X74750000Y63275000D01*
X49851478Y33500000D02*
X51500000Y33500000D01*
X74750000Y63275000D02*
X74750000Y64120000D01*
D57*
X32295000Y76435000D02*
X31011000Y76435000D01*
D56*
X47350000Y28330000D02*
X47580000Y28330000D01*
X71080000Y45850000D02*
X71150000Y45920000D01*
D58*
X70950000Y65925000D02*
X71475000Y65400000D01*
D59*
X50812000Y66885000D02*
X55215000Y66885000D01*
D58*
X71800000Y66025000D02*
X72125000Y65700000D01*
D60*
X71850000Y71375000D02*
X73050000Y71375000D01*
D56*
X46750000Y37850000D02*
X46400000Y38200000D01*
X46400000Y38200000D02*
X46400000Y38220000D01*
X44825000Y34175000D02*
X44825000Y33750000D01*
D59*
X50812000Y66885000D02*
X52015000Y66885000D01*
D56*
X45449500Y38925500D02*
X46155000Y38220000D01*
D58*
X60825000Y63274500D02*
X61974500Y62125000D01*
X43800000Y7715000D02*
X43195000Y7715000D01*
D59*
X36637000Y50265000D02*
X36637000Y49187000D01*
D56*
X53150000Y31400000D02*
X53150000Y32362000D01*
X55649034Y56930966D02*
X56300000Y56280000D01*
D58*
X72775000Y65950000D02*
X72775000Y64850000D01*
X43195000Y7715000D02*
X42450000Y8460000D01*
D56*
X67800000Y36500000D02*
X67950000Y36350000D01*
D59*
X35275000Y51100000D02*
X35710000Y51535000D01*
D57*
X10110000Y74020000D02*
X10110000Y75324000D01*
D56*
X72270000Y40980000D02*
X71150000Y40980000D01*
D58*
X72775000Y63456693D02*
X72775000Y64850000D01*
D56*
X72130000Y33808030D02*
X72130000Y34650000D01*
D58*
X63901953Y63126953D02*
X63901953Y64186763D01*
D56*
X74850000Y46350000D02*
X74150000Y45650000D01*
X53630000Y30920000D02*
X53150000Y31400000D01*
D61*
X86600000Y13600000D02*
X86600000Y12675000D01*
D56*
X71150000Y40980000D02*
X71020000Y40850000D01*
X74150000Y45650000D02*
X71420000Y45650000D01*
D58*
X72463082Y63144775D02*
X72775000Y63456693D01*
D56*
X53630000Y30825000D02*
X53630000Y30920000D01*
D60*
X69142307Y76845193D02*
X68775000Y77212500D01*
D57*
X43552889Y36225000D02*
X44750000Y36225000D01*
D59*
X52015000Y66885000D02*
X52600000Y66300000D01*
D56*
X53650000Y55170000D02*
X53830000Y55350000D01*
X62150000Y55474598D02*
X62150000Y53838000D01*
D58*
%TO.N,/ADCS_VDD*%
X70950000Y56200000D02*
X69560000Y57590000D01*
D57*
X36400000Y76700000D02*
X36990000Y76110000D01*
D58*
X75075500Y44200000D02*
X73460000Y44200000D01*
X17300000Y57175000D02*
X17300000Y56385000D01*
X23800000Y73500000D02*
X24800000Y72500000D01*
X46564500Y36910000D02*
X46450000Y36910000D01*
D59*
X43485000Y71965000D02*
X45388000Y71965000D01*
D58*
X43725000Y40000000D02*
X43725000Y40475000D01*
D56*
X71505000Y47795000D02*
X71750000Y47795000D01*
D58*
X6890000Y77900000D02*
X6200000Y78590000D01*
D57*
X36990000Y76110000D02*
X36990000Y75000000D01*
D56*
X61800000Y67290000D02*
X61850000Y67240000D01*
D58*
X48162000Y36350000D02*
X47124500Y36350000D01*
X44750000Y37775000D02*
X43725000Y38800000D01*
X75775500Y44900000D02*
X75075500Y44200000D01*
X76047663Y47847663D02*
X75800000Y48095326D01*
D56*
X76212427Y65827573D02*
X77590000Y64450000D01*
D58*
X43725000Y40475000D02*
X44575000Y41325000D01*
D59*
X68025000Y70075000D02*
X67475000Y70625000D01*
D56*
X45910000Y49140000D02*
X45910000Y48840000D01*
X48162000Y48850000D02*
X46130000Y48850000D01*
X50000000Y27100000D02*
X50775000Y27875000D01*
D60*
X7260000Y70360500D02*
X6649500Y69750000D01*
D56*
X53150000Y53838000D02*
X53150000Y55070000D01*
D58*
X23800000Y73700000D02*
X23800000Y73500000D01*
D56*
X68620000Y54808000D02*
X67650000Y53838000D01*
D58*
X44750000Y37775000D02*
X45585000Y37775000D01*
D56*
X50775000Y27875000D02*
X50775000Y27975000D01*
D58*
X75550000Y34830000D02*
X75600000Y34780000D01*
D56*
X74674598Y39100000D02*
X72070000Y39100000D01*
X70820000Y40350000D02*
X69638000Y40350000D01*
D58*
X43725000Y38800000D02*
X43725000Y40000000D01*
D56*
X68620000Y55770000D02*
X68620000Y55350000D01*
D58*
X73604500Y52460000D02*
X72850000Y52460000D01*
D60*
X7260000Y71200000D02*
X7260000Y70360500D01*
D56*
X52870000Y55680000D02*
X52870000Y55350000D01*
X47620000Y27100000D02*
X50000000Y27100000D01*
D58*
X7300000Y77900000D02*
X6890000Y77900000D01*
D59*
X41275000Y74175000D02*
X43485000Y71965000D01*
D56*
X52000000Y56550000D02*
X52870000Y55680000D01*
X70950000Y48350000D02*
X71505000Y47795000D01*
D58*
X73700000Y52555500D02*
X73604500Y52460000D01*
D56*
X72070000Y39100000D02*
X71150000Y40020000D01*
X48528357Y27075471D02*
X47644529Y27075471D01*
X72655809Y48537448D02*
X71913361Y47795000D01*
D58*
X55150000Y31230000D02*
X55580000Y30800000D01*
D56*
X68620000Y55350000D02*
X68620000Y54808000D01*
X47644529Y27075471D02*
X47350000Y27370000D01*
D58*
X47124500Y36350000D02*
X46564500Y36910000D01*
D59*
X67475000Y70625000D02*
X67475000Y72987500D01*
D58*
X74350000Y41100000D02*
X73440000Y41100000D01*
D56*
X71150000Y40020000D02*
X70820000Y40350000D01*
X47350000Y27370000D02*
X47620000Y27100000D01*
X69638000Y48350000D02*
X70950000Y48350000D01*
X45250000Y49800000D02*
X45910000Y49140000D01*
X53150000Y55070000D02*
X52870000Y55350000D01*
D58*
X71550000Y27000000D02*
X70800000Y27750000D01*
D56*
X75433724Y65827573D02*
X76212427Y65827573D01*
D58*
X55580000Y30800000D02*
X56175000Y30205000D01*
X55150000Y32362000D02*
X55150000Y31230000D01*
X54800000Y57300000D02*
X54800000Y56410000D01*
X53800000Y58300000D02*
X54800000Y57300000D01*
D56*
X74847299Y39272701D02*
X74674598Y39100000D01*
X69150000Y56300000D02*
X68620000Y55770000D01*
D58*
X56175000Y30205000D02*
X56175000Y29575000D01*
D59*
X62298300Y71630500D02*
X63025000Y72357200D01*
D56*
X44710000Y49800000D02*
X45250000Y49800000D01*
D58*
X24800000Y72500000D02*
X24990000Y72500000D01*
D59*
X63025000Y72357200D02*
X63025000Y74012000D01*
D58*
X73710000Y34830000D02*
X75550000Y34830000D01*
X73440000Y41100000D02*
X73400000Y41140000D01*
X45585000Y37775000D02*
X46450000Y36910000D01*
D59*
X43590000Y73235000D02*
X42150000Y74675000D01*
D58*
X75800000Y48095326D02*
X75800000Y49015000D01*
D59*
X45388000Y73235000D02*
X43590000Y73235000D01*
D56*
X61800000Y68699500D02*
X61800000Y67290000D01*
X45910000Y48840000D02*
X45940000Y48810000D01*
X71913361Y47795000D02*
X71750000Y47795000D01*
D58*
X69560000Y57590000D02*
X69150000Y57590000D01*
D57*
%TO.N,/ADCS module/CAN_TRX_FUSE_1*%
X35000000Y75000000D02*
X35410000Y75000000D01*
X33660000Y75165000D02*
X33900000Y74925000D01*
X34925000Y74925000D02*
X35000000Y75000000D01*
X35410000Y75000000D02*
X35410000Y78390000D01*
X31011000Y75165000D02*
X33660000Y75165000D01*
X33900000Y74925000D02*
X34925000Y74925000D01*
X35410000Y78390000D02*
X35200000Y78600000D01*
%TO.N,/ADCS module/CAN_TRX_FUSE_2*%
X9065000Y74105000D02*
X9065000Y75549000D01*
X8755000Y72770000D02*
X8755000Y71285000D01*
X9150000Y74020000D02*
X9065000Y74105000D01*
X8755000Y71285000D02*
X8840000Y71200000D01*
X8755000Y73625000D02*
X9150000Y74020000D01*
X8755000Y72770000D02*
X8755000Y73625000D01*
D56*
%TO.N,/ADCS module/TEMP_FUSE_1*%
X74750000Y65080000D02*
X73655000Y65080000D01*
X76010000Y64450000D02*
X75380000Y65080000D01*
X75380000Y65080000D02*
X74750000Y65080000D01*
X73655000Y65080000D02*
X73425000Y64850000D01*
%TO.N,/ADCS module/TEMP_FUSE_2*%
X61300000Y63900000D02*
X61775000Y63425000D01*
X61775000Y63425000D02*
X62600000Y63425000D01*
X61300000Y65110000D02*
X61300000Y63900000D01*
X63120000Y64595000D02*
X62600000Y64075000D01*
X63120000Y65400000D02*
X63120000Y64595000D01*
X61850000Y65660000D02*
X62860000Y65660000D01*
X62860000Y65660000D02*
X63120000Y65400000D01*
X61850000Y65660000D02*
X61300000Y65110000D01*
%TO.N,/ADCS module/MCU_RTC_IN*%
X43550000Y56400000D02*
X43550000Y56313000D01*
X46800000Y53063000D02*
X46800000Y51700000D01*
X43550000Y56313000D02*
X46425000Y53438000D01*
X46800000Y51700000D02*
X47150000Y51350000D01*
X47150000Y51350000D02*
X48162000Y51350000D01*
X46425000Y53438000D02*
X46800000Y53063000D01*
%TO.N,/ADCS module/Microcontroller/MCU_VDDUTMIC*%
X52670000Y30825000D02*
X52670000Y29980000D01*
X52650000Y32362000D02*
X52650000Y30845000D01*
X52670000Y29980000D02*
X54075000Y28575000D01*
X52650000Y30845000D02*
X52670000Y30825000D01*
X54075000Y28575000D02*
X54450000Y28575000D01*
%TO.N,/ADCS module/MCU_RTC_OUT*%
X47225000Y55575000D02*
X48300000Y55575000D01*
X46050000Y56400000D02*
X46400000Y56400000D01*
X46400000Y56400000D02*
X47225000Y55575000D01*
X48162000Y55437000D02*
X48162000Y51850000D01*
X48300000Y55575000D02*
X48162000Y55437000D01*
%TO.N,/ADCS module/Microcontroller/MCU_AD_REF_POS*%
X46400000Y39180000D02*
X46870000Y39180000D01*
X45075000Y40000000D02*
X46100000Y40000000D01*
X47050000Y38475478D02*
X47175478Y38350000D01*
X46400000Y39700000D02*
X46400000Y39180000D01*
X46100000Y40000000D02*
X46400000Y39700000D01*
X47175478Y38350000D02*
X48162000Y38350000D01*
X47050000Y39000000D02*
X47050000Y38475478D01*
X46870000Y39180000D02*
X47050000Y39000000D01*
%TO.N,/ADCS module/Microcontroller/MCU_VDDCORE*%
X72120000Y46880000D02*
X71150000Y46880000D01*
X46680000Y35000000D02*
X46680000Y34055000D01*
X46680000Y50920000D02*
X46680000Y50550000D01*
X56300000Y55320000D02*
X56650000Y54970000D01*
X47250000Y48350000D02*
X48162000Y48350000D01*
X46880000Y50350000D02*
X46680000Y50550000D01*
X46680000Y34055000D02*
X46375000Y33750000D01*
X72500000Y46500000D02*
X72120000Y46880000D01*
X46280000Y46754500D02*
X46680000Y47154500D01*
X71150000Y47275500D02*
X70575500Y47850000D01*
X57000000Y55973154D02*
X56346846Y55320000D01*
X70970000Y34850000D02*
X71170000Y34650000D01*
X48162000Y50350000D02*
X46880000Y50350000D01*
D60*
X43300000Y31300000D02*
X44350000Y31300000D01*
D56*
X69638000Y34850000D02*
X70970000Y34850000D01*
X46680000Y47154500D02*
X46680000Y47780000D01*
X53650000Y26975500D02*
X53899500Y27225000D01*
X71200000Y34620000D02*
X71200000Y33500000D01*
D60*
X44350000Y31300000D02*
X46375000Y33325000D01*
D56*
X70575500Y47850000D02*
X69638000Y47850000D01*
X55517915Y57926173D02*
X55798827Y57926173D01*
X47030000Y35350000D02*
X46680000Y35000000D01*
X62875000Y28325000D02*
X61900000Y28325000D01*
X56346846Y55320000D02*
X56300000Y55320000D01*
X45803305Y51672096D02*
X45927904Y51672096D01*
X62900000Y28300000D02*
X62875000Y28325000D01*
X48162000Y35350000D02*
X47030000Y35350000D01*
X45927904Y51672096D02*
X46680000Y50920000D01*
X71170000Y34650000D02*
X71200000Y34620000D01*
X46680000Y47780000D02*
X47250000Y48350000D01*
D60*
X46375000Y33325000D02*
X46375000Y33750000D01*
D56*
X57000000Y56725000D02*
X57000000Y55973154D01*
X71150000Y46880000D02*
X71150000Y47275500D01*
X53899500Y27225000D02*
X54450000Y27225000D01*
X56650000Y54970000D02*
X56650000Y53838000D01*
X55798827Y57926173D02*
X57000000Y56725000D01*
D58*
%TO.N,/ADCS module/Microcontroller/MCU_VDDPLL*%
X61170000Y30880000D02*
X61900000Y30150000D01*
X60650000Y30905000D02*
X60625000Y30880000D01*
X60650000Y32362000D02*
X60650000Y30905000D01*
X60625000Y30880000D02*
X61170000Y30880000D01*
X61900000Y30150000D02*
X61900000Y29675000D01*
D60*
%TO.N,/ADCS module/Over-voltage Protection/3V3_OC_PROT*%
X66825000Y77212500D02*
X66825000Y78825000D01*
D59*
X71100000Y80250000D02*
X71100000Y81200000D01*
D60*
X72300000Y78600000D02*
X72925000Y78600000D01*
X70150000Y79300000D02*
X71100000Y80250000D01*
D59*
X71100000Y81200000D02*
X70850000Y81450000D01*
D60*
X71100000Y80250000D02*
X70850000Y80500000D01*
X71100000Y79800000D02*
X72300000Y78600000D01*
X66825000Y78825000D02*
X67300000Y79300000D01*
D59*
X70850000Y81450000D02*
X63525478Y81450000D01*
X63025000Y80949522D02*
X63025000Y79888000D01*
D60*
X72925000Y78600000D02*
X73800000Y77725000D01*
D59*
X63525478Y81450000D02*
X63025000Y80949522D01*
D60*
X67300000Y79300000D02*
X70150000Y79300000D01*
X68675000Y80500000D02*
X68475000Y80300000D01*
X70850000Y80500000D02*
X68675000Y80500000D01*
X71100000Y80250000D02*
X71100000Y79800000D01*
D62*
%TO.N,/EPS_3V3_ADCS*%
X73743000Y80693000D02*
X73300000Y80250000D01*
X75008000Y85849000D02*
X73743000Y84584000D01*
X73743000Y84584000D02*
X73743000Y80693000D01*
D58*
%TO.N,MCU_ERASE*%
X20000305Y31425000D02*
X16475805Y31425000D01*
X16475805Y31425000D02*
X15750805Y30700000D01*
X15750805Y30700000D02*
X14350000Y30700000D01*
X25600000Y30950000D02*
X20475305Y30950000D01*
X14350000Y30700000D02*
X14300000Y30750000D01*
X20475305Y30950000D02*
X20000305Y31425000D01*
%TO.N,MCU_SWDIO*%
X19900000Y37650000D02*
X14850000Y37650000D01*
X14850000Y37650000D02*
X11650000Y34450000D01*
%TO.N,MCU_SWCLK*%
X13050000Y30550000D02*
X13625000Y29975000D01*
X25975000Y29975000D02*
X26200000Y29750000D01*
X13625000Y29975000D02*
X25975000Y29975000D01*
X13050000Y31200000D02*
X13050000Y30550000D01*
%TO.N,ADCS_SWCLK*%
X69638000Y43850000D02*
X70550000Y43850000D01*
X84878000Y53030000D02*
X84878000Y52078000D01*
X74900000Y42950000D02*
X73690000Y42950000D01*
X85875000Y54500000D02*
X84878000Y53503000D01*
X84020000Y51220000D02*
X84020000Y48732000D01*
X78800000Y44700000D02*
X77050000Y42950000D01*
X77050000Y42950000D02*
X74900000Y42950000D01*
X84878000Y52078000D02*
X84020000Y51220000D01*
X84878000Y53503000D02*
X84878000Y53030000D01*
X84020000Y48732000D02*
X79988000Y44700000D01*
X73690000Y42950000D02*
X72440000Y44200000D01*
X79988000Y44700000D02*
X78800000Y44700000D01*
X70900000Y44200000D02*
X72440000Y44200000D01*
X70550000Y43850000D02*
X70900000Y44200000D01*
%TO.N,/OBC module/PAYLOAD_RX*%
X34200000Y47825000D02*
X33500000Y48525000D01*
X36490742Y47825000D02*
X34200000Y47825000D01*
X33500000Y53915500D02*
X36199500Y56615000D01*
X33500000Y48525000D02*
X33500000Y53915500D01*
X36199500Y56615000D02*
X36637000Y56615000D01*
%TO.N,/OBC module/PAYLOAD_RX_ENABLE*%
X44169503Y46530497D02*
X40325000Y50375000D01*
X44169503Y45905497D02*
X44169503Y46530497D01*
X38505000Y55345000D02*
X36637000Y55345000D01*
X40325000Y53525000D02*
X38505000Y55345000D01*
X40325000Y50375000D02*
X40325000Y53525000D01*
%TO.N,/OBC module/PAYLOAD_TX_ENABLE*%
X36637000Y54075000D02*
X34825000Y54075000D01*
X34825000Y54075000D02*
X34612701Y53862701D01*
%TO.N,/I2C_MTQ_SDA*%
X78274500Y42500000D02*
X77774500Y42000000D01*
X73400000Y42160000D02*
X71340000Y42160000D01*
X65400000Y43800000D02*
X66350000Y42850000D01*
X77774500Y42000000D02*
X73560000Y42000000D01*
X66350000Y42850000D02*
X69638000Y42850000D01*
X73560000Y42000000D02*
X73400000Y42160000D01*
X70650000Y42850000D02*
X69638000Y42850000D01*
X71340000Y42160000D02*
X70650000Y42850000D01*
%TO.N,/I2C_MTQ_SCK*%
X66400000Y48025000D02*
X68225000Y49850000D01*
X75198170Y52589129D02*
X74049041Y51440000D01*
X74049041Y51440000D02*
X72850000Y51440000D01*
X64625000Y48025000D02*
X66400000Y48025000D01*
X72140000Y51440000D02*
X70550000Y49850000D01*
X70550000Y49850000D02*
X69638000Y49850000D01*
X53900000Y40275500D02*
X54824500Y41200000D01*
X54824500Y41200000D02*
X57800000Y41200000D01*
X57800000Y41200000D02*
X64625000Y48025000D01*
X68225000Y49850000D02*
X69638000Y49850000D01*
X72850000Y51440000D02*
X72140000Y51440000D01*
%TO.N,/OBC module/PAYLOAD_TX*%
X34439735Y49625303D02*
X34439735Y51075235D01*
X36169500Y52805000D02*
X36637000Y52805000D01*
X34439735Y51075235D02*
X36169500Y52805000D01*
%TO.N,ADCS_SWDIO*%
X70825000Y48850000D02*
X71700000Y49725000D01*
X75800000Y52165654D02*
X79300000Y55665654D01*
X74675886Y50035000D02*
X75800000Y50035000D01*
X80350000Y56700000D02*
X79300000Y57750000D01*
X79300000Y55665654D02*
X79300000Y57750000D01*
X74365886Y49725000D02*
X74675886Y50035000D01*
X75800000Y50035000D02*
X75800000Y52165654D01*
X71700000Y49725000D02*
X74365886Y49725000D01*
X83468000Y56700000D02*
X80350000Y56700000D01*
X84878000Y58110000D02*
X83468000Y56700000D01*
X69638000Y48850000D02*
X70825000Y48850000D01*
%TO.N,/ADCS_UART_TX*%
X78275000Y71625000D02*
X78385000Y71515000D01*
X79400000Y72750000D02*
X78275000Y71625000D01*
X78385000Y61995000D02*
X68690000Y52300000D01*
X78385000Y71515000D02*
X78385000Y61995000D01*
X65000000Y52300000D02*
X64650000Y52650000D01*
X79400000Y85550000D02*
X79400000Y72750000D01*
X64650000Y52650000D02*
X64650000Y53838000D01*
X36908000Y88389000D02*
X37271000Y88389000D01*
X77840000Y87110000D02*
X79400000Y85550000D01*
X38550000Y87110000D02*
X77840000Y87110000D01*
X68690000Y52300000D02*
X65000000Y52300000D01*
X37271000Y88389000D02*
X38550000Y87110000D01*
%TO.N,/ADCS_UART_RX*%
X79973370Y60973370D02*
X76025000Y57025000D01*
X83125000Y84525000D02*
X83125000Y70300000D01*
X38620305Y89725000D02*
X77925000Y89725000D01*
X71790000Y53280000D02*
X71220000Y52710000D01*
X83125000Y61948065D02*
X82150305Y60973370D01*
X74605305Y53280000D02*
X71790000Y53280000D01*
X37416305Y90929000D02*
X38620305Y89725000D01*
X36908000Y90929000D02*
X37416305Y90929000D01*
X71220000Y51170000D02*
X70900000Y50850000D01*
X70900000Y50850000D02*
X69638000Y50850000D01*
X82150305Y60973370D02*
X79973370Y60973370D01*
X71220000Y52710000D02*
X71220000Y51170000D01*
X82050000Y69725000D02*
X82550000Y69725000D01*
X77925000Y89725000D02*
X83125000Y84525000D01*
X82550000Y69725000D02*
X83125000Y70300000D01*
X76025000Y57025000D02*
X76025000Y54699695D01*
X76025000Y54699695D02*
X74605305Y53280000D01*
X83125000Y70300000D02*
X83125000Y61948065D01*
%TO.N,ADCS_ERASE*%
X71740000Y45070000D02*
X71520000Y44850000D01*
X81993737Y54898263D02*
X81322000Y55570000D01*
X74760000Y45070000D02*
X71740000Y45070000D01*
X75640000Y45950000D02*
X74760000Y45070000D01*
X71520000Y44850000D02*
X69638000Y44850000D01*
X77475000Y47775000D02*
X75650000Y45950000D01*
X81993737Y54035421D02*
X81993737Y54898263D01*
X75650000Y45950000D02*
X75640000Y45950000D01*
%TO.N,/ADCS module/PAYLOAD_RX*%
X50812000Y71965000D02*
X52560000Y71965000D01*
X57100000Y67425000D02*
X57100000Y57296752D01*
X57100000Y57296752D02*
X57650000Y56746752D01*
X57650000Y56746752D02*
X57650000Y53838000D01*
X52560000Y71965000D02*
X57100000Y67425000D01*
%TO.N,/ADCS_RESET*%
X17300500Y54649500D02*
X17300500Y55364500D01*
X59200000Y40000000D02*
X66050000Y46850000D01*
X66050000Y46850000D02*
X69638000Y46850000D01*
X17700000Y54250000D02*
X17300500Y54649500D01*
X17300500Y55364500D02*
X17300000Y55365000D01*
X56800000Y40000000D02*
X59200000Y40000000D01*
D56*
%TO.N,/EPS_5V_ADM*%
X3910000Y23795000D02*
X2710000Y24995000D01*
X2710000Y59740000D02*
X2000000Y60450000D01*
X2710000Y24995000D02*
X2710000Y59740000D01*
D58*
%TO.N,/ADM_ENABLE_1*%
X42200000Y43845600D02*
X41300000Y42945600D01*
X8086701Y28900000D02*
X6746701Y30240000D01*
X5085000Y30240000D02*
X3910000Y31415000D01*
X41300000Y42945600D02*
X41300000Y31300000D01*
X41300000Y31300000D02*
X36475000Y26475000D01*
X6746701Y30240000D02*
X5085000Y30240000D01*
X27463299Y26475000D02*
X25038299Y28900000D01*
X36475000Y26475000D02*
X27463299Y26475000D01*
X61550000Y50770000D02*
X61550000Y51010000D01*
X63150000Y52610000D02*
X63150000Y53838000D01*
X61550000Y51010000D02*
X63150000Y52610000D01*
X42200000Y44800000D02*
X42200000Y43845600D01*
X25038299Y28900000D02*
X8086701Y28900000D01*
%TO.N,/ADM_ENABLE_2*%
X69638000Y52198000D02*
X73290000Y55850000D01*
X19443806Y42668500D02*
X10168500Y42668500D01*
X73290000Y55850000D02*
X75300000Y55850000D01*
X35962500Y38762500D02*
X35624569Y39100431D01*
X35624569Y39100431D02*
X23011875Y39100431D01*
X23011875Y39100431D02*
X19443806Y42668500D01*
X10168500Y42668500D02*
X9800000Y42300000D01*
X69638000Y51850000D02*
X69638000Y52198000D01*
%TO.N,/ADCS module/ADCS_TRACECLK*%
X65650000Y23700000D02*
X64950000Y23000000D01*
X64950000Y23000000D02*
X64950000Y21763604D01*
X65650000Y32362000D02*
X65650000Y23700000D01*
X64950000Y21763604D02*
X50901396Y7715000D01*
X50901396Y7715000D02*
X48800000Y7715000D01*
%TO.N,/ADCS module/ADCS_TRACED_3*%
X47800000Y8300000D02*
X47800000Y7715000D01*
X49800000Y10300000D02*
X47800000Y8300000D01*
X64800000Y29200000D02*
X64800000Y25390000D01*
X62800000Y23390000D02*
X62800000Y20250000D01*
X52850000Y10300000D02*
X49800000Y10300000D01*
X62800000Y20250000D02*
X52850000Y10300000D01*
X62650000Y31350000D02*
X64800000Y29200000D01*
X64800000Y25390000D02*
X62800000Y23390000D01*
X62650000Y32362000D02*
X62650000Y31350000D01*
%TO.N,/ADCS module/ADCS_TRACED_2*%
X61200000Y24800000D02*
X61200000Y20600000D01*
X46800000Y8465000D02*
X46800000Y7715000D01*
X49635000Y11300000D02*
X46800000Y8465000D01*
X64000000Y27600000D02*
X61200000Y24800000D01*
X61650000Y32362000D02*
X61650000Y31325478D01*
X61200000Y20600000D02*
X51900000Y11300000D01*
X51900000Y11300000D02*
X49635000Y11300000D01*
X61650000Y31325478D02*
X64000000Y28975478D01*
X64000000Y28975478D02*
X64000000Y27600000D01*
%TO.N,/ADCS module/ADCS_TRACED_1*%
X58240000Y19440000D02*
X57414695Y19440000D01*
X57414695Y19440000D02*
X51975000Y14000305D01*
X49300000Y12300000D02*
X45800000Y8800000D01*
X51975000Y14000305D02*
X51975000Y13399695D01*
X59650000Y32362000D02*
X59650000Y30938417D01*
X45800000Y8800000D02*
X45800000Y7715000D01*
X59650000Y30938417D02*
X59800000Y30788417D01*
X50875305Y12300000D02*
X49300000Y12300000D01*
X59800000Y30788417D02*
X59800000Y21000000D01*
X59800000Y21000000D02*
X58240000Y19440000D01*
X51975000Y13399695D02*
X50875305Y12300000D01*
%TO.N,/ADCS module/ADCS_TRACED_0*%
X59150000Y30802021D02*
X59350000Y30602021D01*
X59350000Y23160000D02*
X44800000Y8610000D01*
X59150000Y32362000D02*
X59150000Y30802021D01*
X59350000Y30602021D02*
X59350000Y23160000D01*
X44800000Y8610000D02*
X44800000Y7715000D01*
%TO.N,/ADCS module/PAYLOAD_RX_ENABLE*%
X52389650Y70164650D02*
X51859300Y70695000D01*
X51859300Y70695000D02*
X50812000Y70695000D01*
X49375000Y50850000D02*
X48162000Y50850000D01*
X50075000Y50150000D02*
X49375000Y50850000D01*
%TO.N,/ADCS module/I2C_SDA_SENS*%
X67000000Y65800000D02*
X67000000Y64075000D01*
X68850500Y65200000D02*
X67700000Y65200000D01*
X57895000Y74205000D02*
X58595000Y74205000D01*
X58595000Y74205000D02*
X67000000Y65800000D01*
X55620000Y51820000D02*
X55150000Y52290000D01*
X69375000Y64675500D02*
X68850500Y65200000D01*
X55150000Y52290000D02*
X55150000Y53838000D01*
X55150000Y55040000D02*
X55150000Y53838000D01*
X67000000Y64500000D02*
X67000000Y64075000D01*
X54800000Y55390000D02*
X55150000Y55040000D01*
X74500000Y60950000D02*
X74000000Y60450000D01*
X74000000Y60450000D02*
X73425000Y60450000D01*
X67700000Y65200000D02*
X67000000Y64500000D01*
%TO.N,/ADCS module/I2C_SCK_SENS*%
X71885000Y58610000D02*
X72775000Y59500000D01*
X68660000Y58610000D02*
X67950000Y57900000D01*
X68150000Y63500000D02*
X68500000Y63150000D01*
X64800000Y66724805D02*
X64800000Y64700000D01*
X72775000Y59500000D02*
X72775000Y60450000D01*
X69150000Y60200000D02*
X69150000Y58610000D01*
X67150000Y54950000D02*
X67150000Y53838000D01*
X67950000Y57900000D02*
X67950000Y55750000D01*
X59779805Y71745000D02*
X64800000Y66724805D01*
X69150000Y58610000D02*
X68660000Y58610000D01*
X64800000Y64700000D02*
X66075000Y63425000D01*
X67950000Y55750000D02*
X67150000Y54950000D01*
X67075000Y63500000D02*
X68150000Y63500000D01*
X66075000Y63425000D02*
X67000000Y63425000D01*
X68500000Y63150000D02*
X68500000Y60850000D01*
X69150000Y58610000D02*
X71885000Y58610000D01*
X56625000Y71745000D02*
X59779805Y71745000D01*
X68500000Y60850000D02*
X69150000Y60200000D01*
X67000000Y63425000D02*
X67075000Y63500000D01*
D60*
%TO.N,Net-(R28-Pad2)*%
X73650000Y76075000D02*
X72375000Y77350000D01*
X73800000Y76075000D02*
X73650000Y76075000D01*
%TO.N,Net-(R29-Pad2)*%
X72050000Y72700000D02*
X71975000Y72700000D01*
X72775000Y73425000D02*
X72050000Y72700000D01*
X73450000Y73425000D02*
X72775000Y73425000D01*
%TO.N,/ADCS module/Over-voltage Protection/PROT_UV_LIM*%
X70325000Y75800000D02*
X70325000Y75875000D01*
X70325000Y75875000D02*
X70725000Y76275000D01*
X67475000Y78200000D02*
X67475000Y77212500D01*
X70725000Y76275000D02*
X70725000Y77350000D01*
X67875000Y78600000D02*
X67475000Y78200000D01*
X70725000Y77350000D02*
X69475000Y78600000D01*
X69475000Y78600000D02*
X67875000Y78600000D01*
%TO.N,/ADCS module/Over-voltage Protection/PROT_OV_LIM*%
X70325000Y72700000D02*
X70325000Y74250000D01*
X68125000Y77212500D02*
X68125000Y76175000D01*
X68125000Y76175000D02*
X70050000Y74250000D01*
X70050000Y74250000D02*
X70325000Y74250000D01*
%TO.N,Net-(R32-Pad2)*%
X71975000Y74250000D02*
X71975000Y75800000D01*
D58*
%TO.N,/ADCS module/PAYLOAD_TX_ENABLE*%
X53850000Y69425000D02*
X53975000Y69300000D01*
X70688604Y49350000D02*
X71888604Y50550000D01*
X69638000Y49350000D02*
X70688604Y49350000D01*
X71888604Y50550000D02*
X74375000Y50550000D01*
X50812000Y69425000D02*
X53850000Y69425000D01*
X74375000Y50550000D02*
X74850000Y51025000D01*
%TO.N,/ADCS module/PAYLOAD_TX*%
X54880000Y68155000D02*
X50812000Y68155000D01*
X57530155Y68755155D02*
X57644845Y68755155D01*
X55112701Y68387701D02*
X54880000Y68155000D01*
X59324500Y56666973D02*
X58150000Y55492473D01*
X57644845Y68755155D02*
X59324500Y67075500D01*
X58150000Y55492473D02*
X58150000Y53838000D01*
X59324500Y67075500D02*
X59324500Y56666973D01*
%TO.N,/OBC module/MEM_MRAM_OUT_ENABLE*%
X68100000Y4175000D02*
X63600000Y8675000D01*
X63600000Y8675000D02*
X63600000Y14400000D01*
%TO.N,GNSS_PPS*%
X9250000Y43850000D02*
X9981500Y43118500D01*
X9981500Y43118500D02*
X22331500Y43118500D01*
X52650000Y47000000D02*
X52650000Y53838000D01*
X22331500Y43118500D02*
X22600000Y42850000D01*
X53800000Y45850000D02*
X52650000Y47000000D01*
%TO.N,/ADCS module/CAN_TX_1*%
X29255000Y75745000D02*
X29255000Y76805000D01*
D56*
X49499002Y48222894D02*
X49499002Y47100480D01*
X49248522Y46850000D02*
X48162000Y46850000D01*
X49499002Y47100480D02*
X49248522Y46850000D01*
D58*
X29255000Y76805000D02*
X30155000Y77705000D01*
X30155000Y77705000D02*
X31011000Y77705000D01*
%TO.N,/ADCS module/CAN_RX_1*%
X40552129Y70475500D02*
X40449813Y70475500D01*
X40449813Y70475500D02*
X37030313Y73895000D01*
X37030313Y73895000D02*
X31011000Y73895000D01*
X50138298Y48991208D02*
X49779506Y49350000D01*
X49779506Y49350000D02*
X48162000Y49350000D01*
%TO.N,/ADCS module/CAN_FAULT_1*%
X28385000Y70125000D02*
X36715000Y70125000D01*
X26010000Y72500000D02*
X28385000Y70125000D01*
X25589000Y73895000D02*
X26000000Y73484000D01*
X50500000Y57400000D02*
X50150000Y57050000D01*
X50500000Y58100000D02*
X50500000Y57400000D01*
X26000000Y72510000D02*
X26010000Y72500000D01*
X48240000Y58600000D02*
X50000000Y58600000D01*
X26000000Y73484000D02*
X26000000Y72510000D01*
X50000000Y58600000D02*
X50500000Y58100000D01*
X50150000Y57050000D02*
X50150000Y53838000D01*
X36715000Y70125000D02*
X48240000Y58600000D01*
%TO.N,/ADCS module/CAN_SILENT_1*%
X26225000Y77705000D02*
X25589000Y77705000D01*
X36980000Y70920000D02*
X31730000Y70920000D01*
X31730000Y70920000D02*
X27850000Y74800000D01*
X47805000Y62775000D02*
X45125000Y62775000D01*
X27850000Y74800000D02*
X27850000Y76080000D01*
X51100000Y59480000D02*
X47805000Y62775000D01*
X45125000Y62775000D02*
X36980000Y70920000D01*
X27850000Y76080000D02*
X26225000Y77705000D01*
X51100000Y57000000D02*
X51100000Y59480000D01*
X50650000Y53838000D02*
X50650000Y56550000D01*
X50650000Y56550000D02*
X51100000Y57000000D01*
D56*
%TO.N,/ADCS module/CAN_TX_2*%
X67900000Y40600000D02*
X68650000Y39850000D01*
D58*
X11605000Y75549000D02*
X11605000Y74495000D01*
X11605000Y76870500D02*
X11605000Y75549000D01*
X11300000Y77175500D02*
X11605000Y76870500D01*
D56*
X68650000Y39850000D02*
X69638000Y39850000D01*
D58*
X11605000Y74495000D02*
X12300000Y73800000D01*
X12300000Y73800000D02*
X14400000Y73800000D01*
%TO.N,/ADCS module/CAN_RX_2*%
X7795000Y74655251D02*
X7795000Y75549000D01*
X5669000Y75549000D02*
X7795000Y75549000D01*
X50200000Y42350000D02*
X48162000Y42350000D01*
X5620000Y75500000D02*
X5669000Y75549000D01*
X7423942Y74284193D02*
X7795000Y74655251D01*
%TO.N,/ADCS module/CAN_FAULT_2*%
X7795000Y80971000D02*
X7795000Y81755000D01*
X51374500Y52525000D02*
X51650000Y52800500D01*
X16990000Y78050000D02*
X33740000Y61300000D01*
X7795000Y81755000D02*
X8830000Y82790000D01*
X7795000Y80971000D02*
X7795000Y80105000D01*
X6200000Y79610000D02*
X6200000Y80400000D01*
X33740000Y61300000D02*
X36800000Y61300000D01*
X7795000Y80105000D02*
X9850000Y78050000D01*
X6200000Y80400000D02*
X6771000Y80971000D01*
X9850000Y78050000D02*
X16990000Y78050000D01*
X6771000Y80971000D02*
X7795000Y80971000D01*
X36800000Y61300000D02*
X39425000Y58675000D01*
X49425500Y52974500D02*
X49875000Y52525000D01*
X39425000Y58675000D02*
X45225000Y58675000D01*
X8830000Y82790000D02*
X8830000Y83540000D01*
X51650000Y52800500D02*
X51650000Y53838000D01*
X49875000Y52525000D02*
X51374500Y52525000D01*
X49425500Y55270000D02*
X49425500Y52974500D01*
%TO.N,/ADCS module/CAN_SILENT_2*%
X53700000Y42200000D02*
X56000000Y44500000D01*
X13790000Y80130000D02*
X12920000Y81000000D01*
X11370000Y79060000D02*
X11370000Y80976000D01*
X59150000Y51950000D02*
X59150000Y53838000D01*
X56000000Y48800000D02*
X59150000Y51950000D01*
X12920000Y81000000D02*
X11416000Y81000000D01*
X56000000Y44500000D02*
X56000000Y48800000D01*
X53000000Y42200000D02*
X53700000Y42200000D01*
%TO.N,/COMMS_SWCLK*%
X78700000Y91700000D02*
X77349500Y93050500D01*
X81775000Y59125000D02*
X86250000Y63600000D01*
X81775000Y57425000D02*
X81775000Y59125000D01*
X22400000Y93050500D02*
X21675000Y92325500D01*
X78700000Y90225000D02*
X78700000Y91700000D01*
X77349500Y93050500D02*
X22400000Y93050500D01*
X86250000Y63600000D02*
X86250000Y82675000D01*
X86250000Y82675000D02*
X78700000Y90225000D01*
D57*
%TO.N,Net-(Q2-G1)*%
X64975000Y79888000D02*
X64975000Y74012000D01*
D60*
X64975000Y74012000D02*
X65647470Y74012000D01*
X65647470Y74012000D02*
X66671970Y72987500D01*
X66671970Y72987500D02*
X66825000Y72987500D01*
D58*
%TO.N,Net-(U15-~{SHDN})*%
X65700000Y76825000D02*
X65700000Y79175000D01*
X68775000Y73753812D02*
X68403812Y74125000D01*
X68403812Y74125000D02*
X68400000Y74125000D01*
X68775000Y72987500D02*
X68775000Y73753812D01*
X68400000Y74125000D02*
X65700000Y76825000D01*
X65700000Y79175000D02*
X66825000Y80300000D01*
%TO.N,/ADCS module/USR_GPIO_PWM*%
X74400000Y29900000D02*
X72600000Y29900000D01*
X65150250Y34800000D02*
X63650000Y33299750D01*
X71875000Y30599695D02*
X71875000Y30625000D01*
X67700000Y34800000D02*
X65150250Y34800000D01*
X72299695Y30175000D02*
X71875000Y30599695D01*
X72325000Y30175000D02*
X72299695Y30175000D01*
X72600000Y29900000D02*
X72325000Y30175000D01*
X63650000Y33299750D02*
X63650000Y32362000D01*
X71875000Y30625000D02*
X67700000Y34800000D01*
%TO.N,/ADCS module/USR_GPIO*%
X71000000Y32400000D02*
X74200000Y32400000D01*
X69638000Y33762000D02*
X71000000Y32400000D01*
X69638000Y34350000D02*
X69638000Y33762000D01*
X74200000Y32400000D02*
X74400000Y32200000D01*
D63*
%TO.N,CAN1-*%
X24442999Y75165000D02*
X24032999Y75575000D01*
X25589000Y75165000D02*
X24442999Y75165000D01*
X22179595Y75575000D02*
X18179595Y79575000D01*
X17782000Y79575000D02*
X14048000Y83309000D01*
X24032999Y75575000D02*
X22179595Y75575000D01*
X18179595Y79575000D02*
X17782000Y79575000D01*
%TO.N,CAN1+*%
X24032999Y76025000D02*
X22365963Y76025000D01*
X17968417Y80024980D02*
X16588000Y81405397D01*
X18365983Y80024980D02*
X17968417Y80024980D01*
X25589000Y76435000D02*
X24442999Y76435000D01*
X22365963Y76025000D02*
X18365983Y80024980D01*
X24442999Y76435000D02*
X24032999Y76025000D01*
X16588000Y81405397D02*
X16588000Y83309000D01*
%TO.N,CAN2-*%
X10961091Y84136091D02*
X9065000Y82240000D01*
X14048000Y88389000D02*
X10961091Y85302091D01*
X9065000Y82240000D02*
X9065000Y80971000D01*
X10961091Y85302091D02*
X10961091Y84136091D01*
%TO.N,CAN2+*%
X13775000Y87175000D02*
X11450000Y84850000D01*
X16588000Y88389000D02*
X15374000Y87175000D01*
X15374000Y87175000D02*
X13775000Y87175000D01*
X11450000Y83950000D02*
X10335000Y82835000D01*
X10335000Y82835000D02*
X10335000Y80971000D01*
X11450000Y84850000D02*
X11450000Y83950000D01*
D56*
%TO.N,/ADCS module/Microcontroller/MCU_CLK_IN*%
X50775000Y29825000D02*
X51150000Y30200000D01*
X51150000Y30200000D02*
X51150000Y32362000D01*
D58*
%TO.N,/OBC module/NRST_OBC*%
X15925500Y31900000D02*
X15450500Y31425000D01*
X24917931Y32917471D02*
X22592776Y32917471D01*
X21575305Y31900000D02*
X15925500Y31900000D01*
X22592776Y32917471D02*
X21575305Y31900000D01*
%TO.N,I2C_SDA_PANELS*%
X73710000Y35850000D02*
X69638000Y35850000D01*
X15300000Y6200000D02*
X18800000Y6200000D01*
X8350000Y21258604D02*
X8350000Y13150000D01*
X8215000Y28100000D02*
X6450000Y26335000D01*
X18800000Y6200000D02*
X54000000Y6200000D01*
X6988604Y22620000D02*
X8350000Y21258604D01*
X18800000Y6200000D02*
X19100000Y5900000D01*
X5275000Y24281701D02*
X5275000Y23308299D01*
X6450000Y25456701D02*
X5275000Y24281701D01*
X5963299Y22620000D02*
X6988604Y22620000D01*
X72900000Y25100000D02*
X73775000Y25100000D01*
X20500000Y28100000D02*
X8215000Y28100000D01*
X76350000Y35300000D02*
X75800000Y35850000D01*
X54000000Y6200000D02*
X72900000Y25100000D01*
X5275000Y23308299D02*
X5963299Y22620000D01*
X73775000Y25100000D02*
X76350000Y27675000D01*
X19100000Y5900000D02*
X19100000Y5600000D01*
X75800000Y35850000D02*
X73710000Y35850000D01*
X76350000Y27675000D02*
X76350000Y35300000D01*
X8350000Y13150000D02*
X15300000Y6200000D01*
X6450000Y26335000D02*
X6450000Y25456701D01*
%TO.N,I2C_SCK_PANELS*%
X31399695Y6675000D02*
X32000305Y6675000D01*
X70150000Y28120000D02*
X70800000Y28770000D01*
X70800000Y29212000D02*
X70800000Y28770000D01*
X31224695Y6850000D02*
X31399695Y6675000D01*
X15175000Y36525000D02*
X11650000Y33000000D01*
X32175305Y6850000D02*
X51750000Y6850000D01*
X32000305Y6675000D02*
X32175305Y6850000D01*
X66775000Y21875000D02*
X66775000Y22600305D01*
X8800000Y14050000D02*
X16000000Y6850000D01*
X70150000Y25975305D02*
X70150000Y28120000D01*
X66775000Y22600305D02*
X70150000Y25975305D01*
X6450000Y23795000D02*
X8800000Y21445000D01*
X21417701Y36417701D02*
X21310402Y36525000D01*
X17600000Y7600000D02*
X17350000Y7600000D01*
X18350000Y6850000D02*
X31224695Y6850000D01*
X67650000Y32362000D02*
X70800000Y29212000D01*
X21310402Y36525000D02*
X15175000Y36525000D01*
X51750000Y6850000D02*
X66775000Y21875000D01*
X16000000Y6850000D02*
X18350000Y6850000D01*
X8800000Y21445000D02*
X8800000Y14050000D01*
X18350000Y6850000D02*
X17600000Y7600000D01*
%TO.N,/RS422_Y_BUS*%
X31213000Y51535000D02*
X29060000Y51535000D01*
X28700000Y51175000D02*
X24288604Y51175000D01*
X24288604Y51175000D02*
X22800000Y52663604D01*
X45388000Y66885000D02*
X43915000Y66885000D01*
X29060000Y51535000D02*
X28700000Y51175000D01*
X28700000Y51175000D02*
X28725000Y51175000D01*
X43915000Y66885000D02*
X43400000Y67400000D01*
X29500000Y50550000D02*
X29350000Y50550000D01*
X5085000Y60720000D02*
X3910000Y61895000D01*
X22800000Y52663604D02*
X22800000Y59013701D01*
X28725000Y51175000D02*
X29500000Y50550000D01*
X20656850Y61156851D02*
X8156851Y61156851D01*
X7720000Y60720000D02*
X5085000Y60720000D01*
X22800000Y59013701D02*
X20656850Y61156851D01*
X8156851Y61156851D02*
X7720000Y60720000D01*
D63*
%TO.N,/RS422_B_BUS*%
X27921231Y61336305D02*
X27921231Y60439431D01*
X16800000Y64800000D02*
X6815000Y64800000D01*
X23300000Y61800000D02*
X22300000Y62800000D01*
X27628768Y61628768D02*
X27921231Y61336305D01*
X26475000Y58993200D02*
X26475000Y56500000D01*
X26475000Y56500000D02*
X28700000Y54275000D01*
X22300000Y62800000D02*
X18800000Y62800000D01*
X18800000Y62800000D02*
X16800000Y64800000D01*
X43834249Y69835000D02*
X42953199Y69835000D01*
X42771232Y69653033D02*
X42771232Y69228768D01*
X28900000Y54075000D02*
X31213000Y54075000D01*
X28700000Y54275000D02*
X28900000Y54075000D01*
X45388000Y69425000D02*
X44244249Y69425000D01*
X44244249Y69425000D02*
X43834249Y69835000D01*
X6815000Y64800000D02*
X6450000Y64435000D01*
X27628768Y61628768D02*
X27457536Y61800000D01*
X27457536Y61800000D02*
X23300000Y61800000D01*
X27921231Y60439431D02*
X26475000Y58993200D01*
X42953199Y69835000D02*
X42771232Y69653033D01*
X25400000Y55425000D02*
X26475000Y56500000D01*
%TO.N,/RS422_A_BUS*%
X28371232Y60253032D02*
X26925000Y58806800D01*
X26925000Y56686397D02*
X27686397Y55925000D01*
X28371232Y60253032D02*
X29878032Y60253032D01*
X44244249Y70695000D02*
X43834249Y70285000D01*
X5060000Y65585000D02*
X3910000Y64435000D01*
X27686397Y55925000D02*
X28700000Y55925000D01*
X43834249Y70285000D02*
X42766801Y70285000D01*
X29280000Y55345000D02*
X31213000Y55345000D01*
X45388000Y70695000D02*
X44244249Y70695000D01*
X28371232Y62371232D02*
X28371232Y60253032D01*
X19300000Y63300000D02*
X17015000Y65585000D01*
X42766801Y70285000D02*
X42453033Y69971232D01*
X17015000Y65585000D02*
X5060000Y65585000D01*
X28371232Y62371232D02*
X23728768Y62371232D01*
X23728768Y62371232D02*
X22800000Y63300000D01*
X29878032Y60253032D02*
X30000000Y60375000D01*
X26925000Y58806800D02*
X26925000Y56686397D01*
X28700000Y55925000D02*
X29280000Y55345000D01*
X42453033Y69971232D02*
X42028768Y69971232D01*
X22800000Y63300000D02*
X19300000Y63300000D01*
D58*
%TO.N,/RS422_Z_BUS*%
X23300000Y59150097D02*
X20650097Y61800000D01*
X27675000Y51800000D02*
X24300000Y51800000D01*
X29700000Y52805000D02*
X28720000Y52805000D01*
X23300000Y52800000D02*
X23300000Y59150097D01*
X20650097Y61800000D02*
X6545000Y61800000D01*
X24300000Y51800000D02*
X23300000Y52800000D01*
X6545000Y61800000D02*
X6450000Y61895000D01*
X44195000Y68155000D02*
X43750000Y68600000D01*
X28720000Y52805000D02*
X28700000Y52825000D01*
X45388000Y68155000D02*
X44195000Y68155000D01*
X29700000Y52805000D02*
X29700000Y53150000D01*
X28700000Y52825000D02*
X27675000Y51800000D01*
X29700000Y53150000D02*
X29750000Y53200000D01*
X31213000Y52805000D02*
X29700000Y52805000D01*
%TO.N,MEM_D7*%
X40300000Y55800000D02*
X37325000Y58775000D01*
X34700305Y58775000D02*
X24950305Y68525000D01*
X9800000Y67300000D02*
X9300000Y66800000D01*
X24950305Y68525000D02*
X11025000Y68525000D01*
X37325000Y58775000D02*
X34700305Y58775000D01*
X11025000Y68525000D02*
X9800000Y67300000D01*
%TO.N,MEM_D5*%
X15800000Y51800000D02*
X13430000Y51800000D01*
X22650000Y44950000D02*
X15800000Y51800000D01*
X32424500Y44950000D02*
X22650000Y44950000D01*
X13430000Y51800000D02*
X13365000Y51735000D01*
X13365000Y51735000D02*
X6450000Y51735000D01*
%TO.N,MEM_D1*%
X9825500Y38199500D02*
X6450000Y41575000D01*
X20210707Y38650000D02*
X19450305Y38650000D01*
X35900000Y28800000D02*
X34625000Y27525000D01*
X18999805Y38199500D02*
X9825500Y38199500D01*
X19450305Y38650000D02*
X18999805Y38199500D01*
X31335707Y27525000D02*
X20210707Y38650000D01*
X34625000Y27525000D02*
X31335707Y27525000D01*
%TO.N,MEM_D2*%
X9011896Y39649500D02*
X7625000Y41036396D01*
X31522103Y27975000D02*
X19847603Y39649500D01*
X7625000Y41036396D02*
X7625000Y42940000D01*
X19847603Y39649500D02*
X9011896Y39649500D01*
X34100000Y28800000D02*
X34100000Y28699695D01*
X33375305Y27975000D02*
X31522103Y27975000D01*
X34100000Y28699695D02*
X33375305Y27975000D01*
X7625000Y42940000D02*
X6450000Y44115000D01*
%TO.N,MEM_D3*%
X20033999Y40099500D02*
X9198292Y40099500D01*
X31433499Y28700000D02*
X26555000Y33578499D01*
X26555000Y35095305D02*
X26000305Y35650000D01*
X33075000Y28700000D02*
X31433499Y28700000D01*
X8075000Y45030000D02*
X6450000Y46655000D01*
X26555000Y33578499D02*
X26555000Y35095305D01*
X9198292Y40099500D02*
X8075000Y41222792D01*
X8075000Y41222792D02*
X8075000Y45030000D01*
X26000305Y35650000D02*
X24483499Y35650000D01*
X24483499Y35650000D02*
X20033999Y40099500D01*
%TO.N,MEM_D0*%
X7625000Y34225000D02*
X7625000Y37860000D01*
X12500000Y29350000D02*
X7625000Y34225000D01*
X27649695Y26925000D02*
X25224695Y29350000D01*
X35725000Y26925000D02*
X27649695Y26925000D01*
X7625000Y37860000D02*
X6450000Y39035000D01*
X37700000Y28900000D02*
X35725000Y26925000D01*
X25224695Y29350000D02*
X12500000Y29350000D01*
%TO.N,MEM_D4*%
X31600000Y44500000D02*
X20725305Y44500000D01*
X16030305Y49195000D02*
X6450000Y49195000D01*
X38744503Y36424500D02*
X38744503Y37355497D01*
X38744503Y37355497D02*
X31600000Y44500000D01*
X20725305Y44500000D02*
X16030305Y49195000D01*
%TO.N,MEM_D6*%
X26499500Y47100500D02*
X20800000Y52800000D01*
X20800000Y52800000D02*
X7925000Y52800000D01*
X7925000Y52800000D02*
X6450000Y54275000D01*
X34524006Y47100500D02*
X26499500Y47100500D01*
D59*
%TO.N,3V3_PROT*%
X29325000Y58875000D02*
X30223000Y58875000D01*
D58*
X6450000Y33955000D02*
X6450000Y31415000D01*
D59*
X30310000Y56615000D02*
X31213000Y56615000D01*
D58*
X28425000Y64025000D02*
X28425000Y63600000D01*
X28425000Y63600000D02*
X30000000Y62025000D01*
D59*
X28499500Y58425500D02*
X30310000Y56615000D01*
X30223000Y58875000D02*
X31213000Y57885000D01*
X28499500Y58700000D02*
X28499500Y58425500D01*
%TD*%
%TA.AperFunction,Conductor*%
%TO.N,/ADCS_VDD*%
G36*
X63204191Y74731093D02*
G01*
X63240155Y74681593D01*
X63245000Y74651000D01*
X63245000Y73376004D01*
X63248933Y73339418D01*
X63249500Y73328836D01*
X63249500Y73254756D01*
X63249523Y73254522D01*
X63250000Y73244813D01*
X63250000Y72850000D01*
X65601000Y72850000D01*
X65659191Y72831093D01*
X65695155Y72781593D01*
X65700000Y72751000D01*
X65700000Y71100000D01*
X65700001Y71100000D01*
X66002429Y71100000D01*
X66060620Y71081093D01*
X66070528Y71072631D01*
X66071718Y71071718D01*
X66197159Y70975464D01*
X66343238Y70914956D01*
X66460809Y70899478D01*
X66499999Y70894318D01*
X66500000Y70894318D01*
X66500001Y70894318D01*
X66531352Y70898446D01*
X66656762Y70914956D01*
X66802841Y70975464D01*
X66928282Y71071718D01*
X66928281Y71071718D01*
X66933430Y71075668D01*
X66934354Y71074463D01*
X66982084Y71098781D01*
X66997571Y71100000D01*
X67199999Y71100000D01*
X67200000Y71100000D01*
X67200000Y72132975D01*
X67208435Y72172962D01*
X67209540Y72175467D01*
X67222585Y72205009D01*
X67225500Y72230135D01*
X67225500Y72944647D01*
X67225500Y73040227D01*
X67225500Y73051749D01*
X67225499Y73051759D01*
X67225499Y73744861D01*
X67225499Y73744864D01*
X67222585Y73769991D01*
X67213869Y73789732D01*
X67208435Y73802040D01*
X67200000Y73842027D01*
X67200000Y73901000D01*
X67218907Y73959191D01*
X67268407Y73995155D01*
X67299000Y74000000D01*
X67677040Y74000000D01*
X67735231Y73981093D01*
X67771195Y73931593D01*
X67771195Y73870407D01*
X67767605Y73861012D01*
X67727414Y73769989D01*
X67724500Y73744870D01*
X67724500Y72230140D01*
X67724501Y72230137D01*
X67727414Y72205010D01*
X67729037Y72201335D01*
X67772794Y72102235D01*
X67772795Y72102234D01*
X67777979Y72094666D01*
X67776343Y72093546D01*
X67798781Y72049509D01*
X67800000Y72034022D01*
X67800000Y70700000D01*
X68741000Y70700000D01*
X68799191Y70681093D01*
X68835155Y70631593D01*
X68840000Y70601000D01*
X68840000Y68409000D01*
X68821093Y68350809D01*
X68771593Y68314845D01*
X68741000Y68310000D01*
X64991335Y68310000D01*
X64933144Y68328907D01*
X64921331Y68338996D01*
X61128996Y72131331D01*
X61101219Y72185848D01*
X61100000Y72201335D01*
X61100000Y74651000D01*
X61118907Y74709191D01*
X61168407Y74745155D01*
X61199000Y74750000D01*
X63146000Y74750000D01*
X63204191Y74731093D01*
G37*
%TD.AperFunction*%
%TD*%
%TA.AperFunction,Conductor*%
%TO.N,GND*%
G36*
X64908512Y64059997D02*
G01*
X64915095Y64053868D01*
X65774525Y63194438D01*
X65844438Y63124525D01*
X65930062Y63075090D01*
X65930065Y63075090D01*
X65936999Y63071086D01*
X65985993Y63019703D01*
X65987817Y63012182D01*
X66012595Y62987404D01*
X66046621Y62925092D01*
X66049500Y62898309D01*
X66049500Y62860120D01*
X66029498Y62791999D01*
X65999009Y62759252D01*
X65937095Y62712905D01*
X65849555Y62595966D01*
X65849555Y62595965D01*
X65798505Y62459094D01*
X65792000Y62398598D01*
X65792000Y62350000D01*
X66110211Y62350000D01*
X66178332Y62329998D01*
X66180192Y62328779D01*
X66202260Y62314034D01*
X66275326Y62299500D01*
X67099000Y62299500D01*
X67167121Y62279498D01*
X67213614Y62225842D01*
X67225000Y62173500D01*
X67225000Y62026000D01*
X67204998Y61957879D01*
X67151342Y61911386D01*
X67099000Y61900000D01*
X65792000Y61900000D01*
X65792000Y61851410D01*
X65793284Y61839473D01*
X65780680Y61769604D01*
X65732304Y61717640D01*
X65668006Y61700000D01*
X63931994Y61700000D01*
X63863873Y61720002D01*
X63817380Y61773658D01*
X63806716Y61839473D01*
X63807999Y61851410D01*
X63808000Y61851415D01*
X63808000Y61900000D01*
X62501000Y61900000D01*
X62432879Y61920002D01*
X62386386Y61973658D01*
X62375000Y62026000D01*
X62375000Y62350000D01*
X62825000Y62350000D01*
X63808000Y62350000D01*
X63808000Y62398587D01*
X63807999Y62398591D01*
X63803920Y62436527D01*
X63803920Y62463473D01*
X63807999Y62501410D01*
X63808000Y62501414D01*
X63808000Y62550000D01*
X62825000Y62550000D01*
X62825000Y62350000D01*
X62375000Y62350000D01*
X62375000Y62823500D01*
X62395002Y62891621D01*
X62448658Y62938114D01*
X62501000Y62949500D01*
X63324674Y62949500D01*
X63397740Y62964034D01*
X63419788Y62978767D01*
X63487541Y62999980D01*
X63489789Y63000000D01*
X63808001Y63000000D01*
X63818807Y63010807D01*
X63828002Y63042121D01*
X63881658Y63088614D01*
X63934000Y63100000D01*
X64700000Y63100000D01*
X64700000Y63964773D01*
X64720002Y64032894D01*
X64773658Y64079387D01*
X64843932Y64089491D01*
X64908512Y64059997D01*
G37*
%TD.AperFunction*%
%TD*%
%TA.AperFunction,Conductor*%
%TO.N,GND*%
G36*
X72891621Y65054998D02*
G01*
X72938114Y65001342D01*
X72949500Y64949000D01*
X72949500Y64125323D01*
X72964033Y64052262D01*
X72964033Y64052261D01*
X72964034Y64052260D01*
X72978766Y64030212D01*
X72999980Y63962462D01*
X73000000Y63960212D01*
X73000000Y63642000D01*
X73048585Y63642000D01*
X73048597Y63642001D01*
X73109093Y63648506D01*
X73245964Y63699556D01*
X73245965Y63699556D01*
X73362904Y63787096D01*
X73409252Y63849009D01*
X73466088Y63891556D01*
X73510120Y63899500D01*
X73675754Y63899500D01*
X73685941Y63900000D01*
X73833846Y63900000D01*
X73901967Y63879998D01*
X73948460Y63826342D01*
X73954843Y63809153D01*
X73980570Y63720600D01*
X74063908Y63579682D01*
X74063914Y63579675D01*
X74179674Y63463915D01*
X74179681Y63463909D01*
X74320599Y63380571D01*
X74477829Y63334891D01*
X74477824Y63334891D01*
X74495999Y63333461D01*
X74496000Y63333461D01*
X74496000Y64248000D01*
X74516002Y64316121D01*
X74569658Y64362614D01*
X74622000Y64374000D01*
X74878000Y64374000D01*
X74946121Y64353998D01*
X74992614Y64300342D01*
X75000000Y64266389D01*
X75000000Y63331569D01*
X75000000Y62976000D01*
X74979998Y62907879D01*
X74926342Y62861386D01*
X74874000Y62850000D01*
X73700000Y62850000D01*
X73700000Y61526500D01*
X73679998Y61458379D01*
X73626342Y61411886D01*
X73574000Y61400500D01*
X73174246Y61400500D01*
X73164059Y61400000D01*
X73035941Y61400000D01*
X73025754Y61400500D01*
X73024674Y61400500D01*
X72525326Y61400500D01*
X72524246Y61400500D01*
X72514059Y61400000D01*
X72385941Y61400000D01*
X72375754Y61400500D01*
X72374674Y61400500D01*
X72210120Y61400500D01*
X72141999Y61420502D01*
X72109252Y61450991D01*
X72062904Y61512905D01*
X71945965Y61600445D01*
X71809093Y61651495D01*
X71748597Y61658000D01*
X71700000Y61658000D01*
X71700000Y61339790D01*
X71679998Y61271669D01*
X71678767Y61269790D01*
X71664033Y61247740D01*
X71649500Y61174678D01*
X71649500Y60351000D01*
X71629498Y60282879D01*
X71575842Y60236386D01*
X71523500Y60225000D01*
X71376000Y60225000D01*
X71307879Y60245002D01*
X71261386Y60298658D01*
X71250000Y60351000D01*
X71250000Y61658000D01*
X71201399Y61658000D01*
X71139469Y61651341D01*
X71069600Y61663947D01*
X71017638Y61712325D01*
X71000000Y61776619D01*
X71000000Y63523382D01*
X71020002Y63591503D01*
X71073658Y63637996D01*
X71139471Y63648660D01*
X71201404Y63642001D01*
X71201415Y63642000D01*
X71250000Y63642000D01*
X71700000Y63642000D01*
X71748587Y63642000D01*
X71748590Y63642001D01*
X71786527Y63646080D01*
X71813473Y63646080D01*
X71851409Y63642001D01*
X71851413Y63642000D01*
X71900000Y63642000D01*
X72350000Y63642000D01*
X72398587Y63642000D01*
X72398590Y63642001D01*
X72436527Y63646080D01*
X72463473Y63646080D01*
X72501409Y63642001D01*
X72501413Y63642000D01*
X72550000Y63642000D01*
X72550000Y64625000D01*
X72350000Y64625000D01*
X72350000Y63642000D01*
X71900000Y63642000D01*
X71900000Y64625000D01*
X71700000Y64625000D01*
X71700000Y63642000D01*
X71250000Y63642000D01*
X71250000Y64949000D01*
X71270002Y65017121D01*
X71323658Y65063614D01*
X71376000Y65075000D01*
X72823500Y65075000D01*
X72891621Y65054998D01*
G37*
%TD.AperFunction*%
%TD*%
%TA.AperFunction,Conductor*%
%TO.N,AC_GND_2*%
G36*
X87059191Y11581093D02*
G01*
X87095155Y11531593D01*
X87100000Y11501000D01*
X87100000Y8699000D01*
X87081093Y8640809D01*
X87031593Y8604845D01*
X87001000Y8600000D01*
X84699000Y8600000D01*
X84640809Y8618907D01*
X84604845Y8668407D01*
X84600000Y8699000D01*
X84600000Y11501000D01*
X84618907Y11559191D01*
X84668407Y11595155D01*
X84699000Y11600000D01*
X87001000Y11600000D01*
X87059191Y11581093D01*
G37*
%TD.AperFunction*%
%TD*%
%TA.AperFunction,Conductor*%
%TO.N,/ADCS module/Over-voltage Protection/MOSFET_S*%
G36*
X64491621Y80629998D02*
G01*
X64538114Y80576342D01*
X64549500Y80524000D01*
X64549500Y79129662D01*
X64550000Y79119485D01*
X64550000Y74780515D01*
X64549500Y74770328D01*
X64549500Y73376000D01*
X64529498Y73307879D01*
X64475842Y73261386D01*
X64423500Y73250000D01*
X63576500Y73250000D01*
X63508379Y73270002D01*
X63461886Y73323658D01*
X63450500Y73376000D01*
X63450500Y74770328D01*
X63450000Y74780515D01*
X63450000Y79119485D01*
X63450500Y79129662D01*
X63450500Y80524000D01*
X63470502Y80592121D01*
X63524158Y80638614D01*
X63576500Y80650000D01*
X64423500Y80650000D01*
X64491621Y80629998D01*
G37*
%TD.AperFunction*%
%TD*%
D64*
X1600000Y43065000D02*
X1600000Y53065000D01*
X66685000Y120000D02*
X89370000Y120000D01*
X100000Y41565000D02*
G75*
G02*
X850000Y42315000I750000J0D01*
G01*
X65185000Y1620000D02*
G75*
G02*
X65935000Y870000I0J-750000D01*
G01*
X72935000Y95260000D02*
G75*
G02*
X72185000Y94510000I-750000J0D01*
G01*
X90270000Y12065000D02*
X90270000Y1020000D01*
X1600000Y43065000D02*
G75*
G02*
X850000Y42315000I-750000J0D01*
G01*
X24435000Y870000D02*
G75*
G02*
X25185000Y1620000I750000J0D01*
G01*
X18185000Y94510000D02*
X72185000Y94510000D01*
X100000Y41565000D02*
X100000Y1010000D01*
X72935000Y95260000D02*
G75*
G02*
X73685000Y96010000I750000J0D01*
G01*
X100000Y95110000D02*
G75*
G02*
X1000000Y96010000I900000J0D01*
G01*
X1000000Y110000D02*
G75*
G02*
X100000Y1010000I0J900000D01*
G01*
X88770000Y13565000D02*
X88770000Y82565000D01*
X89520000Y12815000D02*
G75*
G02*
X90270000Y12065000I0J-750000D01*
G01*
X88770000Y82565000D02*
G75*
G02*
X89520000Y83315000I750000J0D01*
G01*
X89520000Y12815000D02*
G75*
G02*
X88770000Y13565000I0J750000D01*
G01*
X25185000Y1620000D02*
X65185000Y1620000D01*
X73685000Y96010000D02*
X89370000Y96010000D01*
X90270000Y84065000D02*
G75*
G02*
X89520000Y83315000I-750000J0D01*
G01*
X90270000Y1020000D02*
G75*
G02*
X89370000Y120000I-900000J0D01*
G01*
X850000Y53815000D02*
G75*
G02*
X1600000Y53065000I0J-750000D01*
G01*
X24435000Y870000D02*
G75*
G02*
X23685000Y120000I-750000J0D01*
G01*
X89370000Y96010000D02*
G75*
G02*
X90270000Y95110000I0J-900000D01*
G01*
X18185000Y94510000D02*
G75*
G02*
X17435000Y95260000I0J750000D01*
G01*
X850000Y53815000D02*
G75*
G02*
X100000Y54565000I0J750000D01*
G01*
X1000000Y96010000D02*
X16685000Y96010000D01*
X90270000Y95110000D02*
X90270000Y84065000D01*
X100000Y95110000D02*
X100000Y54565000D01*
X16685000Y96010000D02*
G75*
G02*
X17435000Y95260000I0J-750000D01*
G01*
X23685000Y120000D02*
X1000000Y110000D01*
X66685000Y120000D02*
G75*
G02*
X65935000Y870000I0J750000D01*
G01*
M02*
