M48
; DRILL file {KiCad 8.0.3} date 2024-08-20T13:51:13+0300
; FORMAT={-:-/ absolute / metric / decimal}
; #@! TF.CreationDate,2024-08-20T13:51:13+03:00
; #@! TF.GenerationSoftware,Kicad,Pcbnew,8.0.3
; #@! TF.FileFunction,Plated,1,8,PTH
FMAT,2
METRIC
; #@! TA.AperFunction,Plated,PTH,ViaDrill
T1C0.400
; #@! TA.AperFunction,Plated,PTH,ComponentDrill
T2C0.500
; #@! TA.AperFunction,Plated,PTH,ComponentDrill
T3C1.000
; #@! TA.AperFunction,Plated,PTH,ComponentDrill
T4C1.020
; #@! TA.AperFunction,Plated,PTH,ComponentDrill
T5C3.200
%
G90
G05
T1
X1.8Y82.7
X2.0Y60.45
X2.3Y87.4
X4.425Y87.4
X5.2Y81.7
X6.45Y87.4
X6.674Y73.623
X6.8Y69.8
X7.3Y82.6
X7.3Y77.9
X7.424Y74.284
X9.0Y77.4
X9.0Y57.4
X9.25Y43.85
X9.3Y66.8
X9.7Y79.6
X9.8Y42.3
X10.6Y57.55
X10.65Y44.3
X11.3Y77.175
X11.37Y79.06
X11.45Y72.65
X11.65Y34.45
X11.65Y33.0
X12.2Y44.65
X12.91Y74.525
X13.05Y31.2
X14.2Y11.3
X14.3Y30.75
X14.468Y33.193
X14.525Y15.825
X15.35Y15.025
X15.45Y31.425
X15.675Y58.575
X15.675Y54.15
X15.9Y18.35
X16.277Y35.8
X16.625Y63.6
X17.002Y34.623
X17.025Y58.1
X17.05Y18.0
X17.25Y12.5
X17.3Y57.175
X17.35Y7.6
X17.4Y72.4
X17.55Y18.95
X17.601Y44.511
X17.7Y54.25
X17.825Y78.775
X18.025Y58.525
X18.277Y20.976
X18.425Y13.8
X18.675Y69.8
X18.7Y38.924
X18.7Y35.5
X19.0Y54.0
X19.1Y5.6
X19.144Y41.944
X19.226Y40.947
X19.3Y33.75
X19.4Y67.8
X19.425Y21.1
X19.45Y51.5
X19.5Y50.4
X19.55Y12.55
X19.7Y30.7
X19.85Y44.35
X19.9Y37.65
X19.925Y59.7
X19.95Y35.51
X20.0Y22.7
X20.114Y19.49
X20.15Y32.7
X20.15Y2.15
X20.25Y7.975
X20.4Y66.0
X20.5Y28.1
X20.6Y12.5
X20.675Y26.675
X20.7Y20.3
X21.35Y32.7
X21.418Y36.418
X21.538Y61.938
X21.6Y25.374
X21.675Y92.325
X22.4Y79.2
X22.4Y74.125
X22.55Y15.05
X22.6Y42.85
X22.954Y90.374
X23.4Y41.5
X23.43Y7.82
X23.8Y73.7
X24.225Y92.325
X24.394Y66.775
X24.4Y15.0
X24.6Y22.6
X24.7Y52.7
X24.8Y50.3
X24.852Y31.87
X24.918Y32.917
X24.97Y38.375
X25.225Y42.425
X25.25Y65.275
X25.35Y87.3
X25.6Y30.95
X25.7Y34.925
X25.75Y10.4
X26.0Y21.5
X26.2Y29.75
X26.45Y37.4
X26.9Y28.7
X26.995Y9.135
X27.2Y17.2
X27.28Y35.91
X27.438Y42.838
X27.5Y20.0
X27.629Y61.629
X27.7Y79.751
X27.7Y78.65
X27.7Y22.5
X28.371Y62.371
X28.425Y64.025
X28.499Y58.7
X28.68Y9.13
X28.9Y11.4
X29.16Y32.87
X29.255Y75.745
X29.325Y58.875
X29.5Y50.55
X29.75Y53.2
X29.8Y27.65
X29.9Y25.2
X30.25Y37.5
X30.35Y23.55
X30.5Y21.6
X30.775Y70.85
X31.375Y33.55
X31.4Y8.8
X31.6Y14.7
X31.7Y7.4
X31.9Y22.7
X32.2Y20.7
X32.425Y44.95
X32.425Y58.525
X32.5Y71.8
X32.55Y37.55
X32.7Y35.8
X32.8Y13.7
X33.01Y33.94
X33.075Y28.7
X33.55Y77.7
X33.55Y69.4
X33.6Y22.8
X34.1Y32.5
X34.1Y28.8
X34.44Y49.625
X34.524Y47.1
X34.613Y53.863
X34.9Y21.7
X35.275Y48.825
X35.4Y20.0
X35.45Y17.05
X35.625Y91.6
X35.9Y28.8
X35.962Y38.762
X36.276Y42.275
X36.3Y48.85
X36.4Y76.7
X36.491Y47.825
X36.491Y45.2
X36.5Y34.525
X36.68Y67.99
X37.3Y59.5
X37.375Y16.1
X37.6Y72.3
X37.7Y28.9
X37.94Y47.25
X37.94Y41.75
X38.069Y89.252
X38.307Y46.268
X38.361Y16.264
X38.725Y42.475
X38.745Y36.425
X38.775Y38.549
X38.825Y44.424
X38.9Y24.15
X38.918Y15.566
X39.026Y14.572
X39.1Y76.6
X39.2Y26.05
X39.42Y32.38
X39.852Y42.523
X39.888Y27.669
X39.9Y38.6
X40.3Y55.8
X40.525Y91.55
X40.552Y70.475
X40.725Y89.001
X40.75Y24.5
X41.275Y74.175
X41.3Y62.95
X41.4Y26.15
X42.029Y69.971
X42.15Y74.675
X42.2Y44.8
X42.3Y35.7
X42.45Y8.45
X42.55Y24.6
X42.762Y59.638
X42.771Y69.229
X43.0Y76.5
X43.3Y31.3
X43.366Y34.899
X43.374Y36.404
X43.4Y67.4
X43.412Y49.939
X43.7Y65.9
X43.75Y68.6
X44.17Y45.905
X44.2Y54.1
X44.23Y48.0
X44.45Y43.474
X44.575Y41.325
X44.71Y51.56
X44.71Y49.8
X44.9Y60.9
X45.0Y76.0
X45.0Y47.2
X45.1Y64.2
X45.225Y58.675
X45.45Y38.925
X45.803Y51.672
X46.263Y28.317
X46.28Y46.755
X46.8Y49.599
X47.004Y60.956
X47.1Y24.8
X47.2Y63.5
X47.25Y70.825
X47.299Y57.825
X47.6Y16.6
X47.6Y15.4
X47.9Y74.4
X48.3Y64.2
X48.528Y27.075
X48.7Y19.827
X49.2Y22.5
X49.25Y24.174
X49.4Y57.8
X49.425Y55.27
X49.499Y48.223
X49.6Y34.5
X49.7Y35.8
X50.075Y50.15
X50.138Y48.991
X50.2Y42.35
X50.255Y38.855
X50.375Y25.075
X50.5Y19.9
X51.25Y13.7
X51.39Y49.2
X51.4Y46.2
X51.45Y55.35
X51.5Y37.4
X51.549Y64.03
X51.6Y35.6
X51.975Y74.475
X52.0Y56.55
X52.39Y70.165
X52.6Y66.3
X52.72Y28.47
X53.0Y42.2
X53.04Y13.98
X53.1Y35.7
X53.35Y63.95
X53.4Y56.35
X53.65Y26.976
X53.8Y58.3
X53.8Y45.85
X53.9Y40.276
X53.9Y29.9
X53.975Y69.3
X54.4Y61.5
X54.75Y77.35
X55.0Y29.9
X55.113Y68.388
X55.15Y25.85
X55.225Y66.875
X55.518Y57.926
X55.6Y28.6
X55.61Y56.931
X55.62Y51.82
X56.175Y29.575
X56.6Y42.45
X56.67Y52.501
X56.74Y24.46
X56.8Y40.0
X57.1Y26.25
X57.53Y68.755
X57.7Y34.1
X57.825Y58.075
X58.0Y65.8
X58.599Y56.967
X58.6Y46.4
X58.6Y30.0
X59.825Y55.525
X60.087Y34.087
X60.1Y52.4
X60.598Y29.002
X60.7Y42.8
X60.8Y77.6
X60.825Y63.274
X61.0Y61.7
X61.1Y10.0
X61.55Y50.77
X61.8Y68.7
X61.9Y40.5
X62.05Y76.15
X62.2Y79.711
X62.298Y71.63
X62.388Y55.712
X62.8Y9.4
X62.9Y28.3
X62.95Y33.8
X63.05Y47.675
X63.1Y42.1
X63.3Y39.3
X63.3Y37.5
X63.35Y35.65
X63.5Y17.5
X63.6Y14.4
X63.8Y26.0
X63.825Y66.275
X63.902Y64.187
X64.1Y22.5
X64.6Y31.1
X65.4Y43.8
X65.5Y44.95
X65.5Y16.6
X65.625Y61.175
X65.832Y22.356
X66.1Y10.1
X66.164Y46.839
X66.5Y71.5
X66.724Y49.546
X67.1Y56.0
X67.15Y50.45
X67.2Y46.05
X67.2Y15.85
X67.3Y60.9
X67.3Y10.0
X67.4Y59.5
X67.5Y22.3
X67.55Y47.9
X67.6Y28.9
X67.6Y26.0
X67.688Y33.788
X67.8Y36.5
X67.9Y40.6
X68.0Y37.7
X68.025Y70.075
X68.05Y68.8
X68.2Y43.6
X68.3Y14.4
X68.497Y64.136
X68.8Y19.9
X69.15Y56.3
X69.2Y16.6
X69.21Y9.92
X69.375Y64.675
X69.6Y54.649
X69.757Y76.845
X70.701Y14.789
X70.8Y21.0
X70.95Y65.925
X70.95Y56.2
X71.1Y17.7
X71.2Y33.5
X71.2Y26.0
X71.37Y11.54
X71.55Y27.0
X71.8Y66.025
X71.85Y71.375
X72.3Y43.0
X72.3Y22.5
X72.463Y63.145
X72.5Y46.5
X72.5Y33.438
X72.55Y57.65
X72.6Y30.9
X72.656Y48.537
X72.675Y66.05
X72.725Y27.475
X73.05Y40.2
X73.1Y18.6
X73.2Y75.0
X73.2Y62.275
X73.304Y37.0
X73.6Y54.1
X73.7Y52.555
X74.1Y47.1
X74.223Y59.3
X74.3Y68.069
X74.35Y41.1
X74.5Y60.95
X74.55Y62.25
X74.781Y49.114
X74.847Y39.273
X74.85Y51.025
X74.85Y46.35
X75.13Y54.83
X75.198Y52.589
X75.3Y55.85
X75.35Y57.65
X75.434Y65.828
X75.6Y34.78
X75.775Y44.9
X75.775Y43.7
X75.85Y81.6
X76.048Y47.848
X76.109Y67.369
X76.3Y68.625
X76.475Y3.8
X76.5Y72.7
X76.6Y74.75
X76.775Y5.3
X77.049Y61.75
X77.125Y59.7
X77.125Y51.8
X77.475Y47.775
X78.275Y42.5
X78.275Y71.625
X78.307Y76.343
X79.3Y57.75
X79.375Y51.625
X79.45Y53.65
X79.497Y49.974
X80.124Y77.225
X80.925Y85.475
X81.023Y47.148
X81.275Y5.2
X81.275Y3.9
X81.575Y39.0
X81.6Y44.5
X81.775Y57.425
X81.8Y51.575
X81.85Y61.698
X81.994Y54.035
X82.05Y69.725
X82.126Y65.125
X82.275Y70.725
X82.325Y63.148
X82.35Y66.7
X82.386Y64.16
X82.6Y42.3
X82.95Y41.1
X83.3Y33.95
X83.3Y29.8
X83.337Y32.45
X83.337Y31.35
X85.1Y13.6
X85.2Y9.1
X85.271Y56.765
X85.475Y55.65
X85.875Y54.5
X86.5Y9.1
X86.6Y13.6
X86.725Y60.15
X87.275Y65.275
X87.4Y63.675
T2
X13.45Y71.9
X16.6Y20.225
X16.875Y59.25
X73.525Y26.35
T3
X3.91Y64.435
X3.91Y61.895
X3.91Y59.355
X3.91Y56.815
X3.91Y54.275
X3.91Y51.735
X3.91Y49.195
X3.91Y46.655
X3.91Y44.115
X3.91Y41.575
X3.91Y39.035
X3.91Y36.495
X3.91Y33.955
X3.91Y31.415
X3.91Y28.875
X3.91Y26.335
X3.91Y23.795
X3.91Y21.255
X3.91Y18.715
X3.91Y16.175
X6.45Y64.435
X6.45Y61.895
X6.45Y59.355
X6.45Y56.815
X6.45Y54.275
X6.45Y51.735
X6.45Y49.195
X6.45Y46.655
X6.45Y44.115
X6.45Y41.575
X6.45Y39.035
X6.45Y36.495
X6.45Y33.955
X6.45Y31.415
X6.45Y28.875
X6.45Y26.335
X6.45Y23.795
X6.45Y21.255
X6.45Y18.715
X6.45Y16.175
X60.48Y4.175
X63.02Y4.175
X65.56Y4.175
X68.1Y4.175
X84.625Y22.875
X84.625Y20.335
X84.625Y17.795
T4
X14.048Y90.929
X14.048Y88.389
X14.048Y85.849
X14.048Y83.309
X16.588Y90.929
X16.588Y88.389
X16.588Y85.849
X16.588Y83.309
X19.128Y90.929
X19.128Y88.389
X19.128Y85.849
X19.128Y83.309
X21.668Y90.929
X21.668Y88.389
X21.668Y85.849
X21.668Y83.309
X24.208Y90.929
X24.208Y88.389
X24.208Y85.849
X24.208Y83.309
X26.748Y90.929
X26.748Y88.389
X26.748Y85.849
X26.748Y83.309
X29.288Y90.929
X29.288Y88.389
X29.288Y85.849
X29.288Y83.309
X31.828Y90.929
X31.828Y88.389
X31.828Y85.849
X31.828Y83.309
X34.368Y90.929
X34.368Y88.389
X34.368Y85.849
X34.368Y83.309
X36.908Y90.929
X36.908Y88.389
X36.908Y85.849
X36.908Y83.309
X39.448Y90.929
X39.448Y88.389
X39.448Y85.849
X39.448Y83.309
X41.988Y90.929
X41.988Y88.389
X41.988Y85.849
X41.988Y83.309
X44.528Y90.929
X44.528Y88.389
X44.528Y85.849
X44.528Y83.309
X47.068Y90.929
X47.068Y88.389
X47.068Y85.849
X47.068Y83.309
X49.608Y90.929
X49.608Y88.389
X49.608Y85.849
X49.608Y83.309
X52.148Y90.929
X52.148Y88.389
X52.148Y85.849
X52.148Y83.309
X54.688Y90.929
X54.688Y88.389
X54.688Y85.849
X54.688Y83.309
X57.228Y90.929
X57.228Y88.389
X57.228Y85.849
X57.228Y83.309
X59.768Y90.929
X59.768Y88.389
X59.768Y85.849
X59.768Y83.309
X62.308Y90.929
X62.308Y88.389
X62.308Y85.849
X62.308Y83.309
X64.848Y90.929
X64.848Y88.389
X64.848Y85.849
X64.848Y83.309
X67.388Y90.929
X67.388Y88.389
X67.388Y85.849
X67.388Y83.309
X69.928Y90.929
X69.928Y88.389
X69.928Y85.849
X69.928Y83.309
X72.468Y90.929
X72.468Y88.389
X72.468Y85.849
X72.468Y83.309
X75.008Y90.929
X75.008Y88.389
X75.008Y85.849
X75.008Y83.309
X77.548Y90.929
X77.548Y88.389
X77.548Y85.849
X77.548Y83.309
T5
X5.18Y5.19
X8.99Y90.93
X82.63Y90.93
X85.17Y5.21
M30
