%TF.GenerationSoftware,KiCad,Pcbnew,6.0.7-f9a2dced07~116~ubuntu20.04.1*%
%TF.CreationDate,2022-10-11T04:26:58+03:00*%
%TF.ProjectId,obc-adcs-board,6f62632d-6164-4637-932d-626f6172642e,rev?*%
%TF.SameCoordinates,PX3e2df80PY83e4a60*%
%TF.FileFunction,Drillmap*%
%TF.FilePolarity,Positive*%
%FSLAX45Y45*%
G04 Gerber Fmt 4.5, Leading zero omitted, Abs format (unit mm)*
G04 Created by KiCad (PCBNEW 6.0.7-f9a2dced07~116~ubuntu20.04.1) date 2022-10-11 04:26:58*
%MOMM*%
%LPD*%
G01*
G04 APERTURE LIST*
%ADD10C,0.100000*%
%ADD11C,0.200000*%
%ADD12C,0.090000*%
%ADD13C,0.119000*%
G04 APERTURE END LIST*
D10*
X160000Y4306500D02*
X160000Y5306500D01*
X6668500Y12000D02*
X8937000Y12000D01*
X85000Y4231500D02*
G75*
G03*
X10000Y4156500I0J-75000D01*
G01*
X6593500Y87000D02*
G75*
G03*
X6518500Y162000I-75000J0D01*
G01*
X7218500Y9451000D02*
G75*
G03*
X7293500Y9526000I0J75000D01*
G01*
X9027000Y1206500D02*
X9027000Y102000D01*
X85000Y4231500D02*
G75*
G03*
X160000Y4306500I0J75000D01*
G01*
X2518500Y162000D02*
G75*
G03*
X2443500Y87000I0J-75000D01*
G01*
X1818500Y9451000D02*
X7218500Y9451000D01*
X10000Y4156500D02*
X10000Y101000D01*
X7368500Y9601000D02*
G75*
G03*
X7293500Y9526000I0J-75000D01*
G01*
X100000Y9601000D02*
G75*
G03*
X10000Y9511000I0J-90000D01*
G01*
X10000Y101000D02*
G75*
G03*
X100000Y11000I90000J0D01*
G01*
X8877000Y1356500D02*
X8877000Y8256500D01*
X9027000Y1206500D02*
G75*
G03*
X8952000Y1281500I-75000J0D01*
G01*
X8952000Y8331500D02*
G75*
G03*
X8877000Y8256500I0J-75000D01*
G01*
X8877000Y1356500D02*
G75*
G03*
X8952000Y1281500I75000J0D01*
G01*
X2518500Y162000D02*
X6518500Y162000D01*
X7368500Y9601000D02*
X8937000Y9601000D01*
X8952000Y8331500D02*
G75*
G03*
X9027000Y8406500I0J75000D01*
G01*
X8937000Y12000D02*
G75*
G03*
X9027000Y102000I0J90000D01*
G01*
X160000Y5306500D02*
G75*
G03*
X85000Y5381500I-75000J0D01*
G01*
X2368500Y12000D02*
G75*
G03*
X2443500Y87000I0J75000D01*
G01*
X9027000Y9511000D02*
G75*
G03*
X8937000Y9601000I-90000J0D01*
G01*
X1743500Y9526000D02*
G75*
G03*
X1818500Y9451000I75000J0D01*
G01*
X10000Y5456500D02*
G75*
G03*
X85000Y5381500I75000J0D01*
G01*
X100000Y9601000D02*
X1668500Y9601000D01*
X9027000Y9511000D02*
X9027000Y8406500D01*
X10000Y9511000D02*
X10000Y5456500D01*
X1743500Y9526000D02*
G75*
G03*
X1668500Y9601000I-75000J0D01*
G01*
X2368500Y12000D02*
X100000Y11000D01*
X6593500Y87000D02*
G75*
G03*
X6668500Y12000I75000J0D01*
G01*
D11*
D12*
X7990000Y8050000D02*
X8080000Y7960000D01*
X8080000Y8050000D02*
X7990000Y7960000D01*
X7990000Y6600000D02*
X8080000Y6510000D01*
X8080000Y6600000D02*
X7990000Y6510000D01*
X8020000Y6160000D02*
X8110000Y6070000D01*
X8110000Y6160000D02*
X8020000Y6070000D01*
X8020000Y4910000D02*
X8110000Y4820000D01*
X8110000Y4910000D02*
X8020000Y4820000D01*
X8465000Y8050000D02*
X8555000Y7960000D01*
X8555000Y8050000D02*
X8465000Y7960000D01*
X8465000Y6600000D02*
X8555000Y6510000D01*
X8555000Y6600000D02*
X8465000Y6510000D01*
X8495000Y6160000D02*
X8585000Y6070000D01*
X8585000Y6160000D02*
X8495000Y6070000D01*
X8495000Y4910000D02*
X8585000Y4820000D01*
X8585000Y4910000D02*
X8495000Y4820000D01*
D13*
X949500Y6731750D02*
G75*
G03*
X949500Y6731750I-59500J0D01*
G01*
X949500Y5270750D02*
G75*
G03*
X949500Y5270750I-59500J0D01*
G01*
D11*
X262619Y-304476D02*
X262619Y-104476D01*
X310238Y-104476D01*
X338810Y-114000D01*
X357857Y-133048D01*
X367381Y-152095D01*
X376905Y-190190D01*
X376905Y-218762D01*
X367381Y-256857D01*
X357857Y-275905D01*
X338810Y-294952D01*
X310238Y-304476D01*
X262619Y-304476D01*
X462619Y-304476D02*
X462619Y-171143D01*
X462619Y-209238D02*
X472143Y-190190D01*
X481667Y-180667D01*
X500714Y-171143D01*
X519762Y-171143D01*
X586429Y-304476D02*
X586429Y-171143D01*
X586429Y-104476D02*
X576905Y-114000D01*
X586429Y-123524D01*
X595952Y-114000D01*
X586429Y-104476D01*
X586429Y-123524D01*
X710238Y-304476D02*
X691190Y-294952D01*
X681667Y-275905D01*
X681667Y-104476D01*
X815000Y-304476D02*
X795952Y-294952D01*
X786428Y-275905D01*
X786428Y-104476D01*
X1043571Y-304476D02*
X1043571Y-104476D01*
X1110238Y-247333D01*
X1176905Y-104476D01*
X1176905Y-304476D01*
X1357857Y-304476D02*
X1357857Y-199714D01*
X1348333Y-180667D01*
X1329286Y-171143D01*
X1291190Y-171143D01*
X1272143Y-180667D01*
X1357857Y-294952D02*
X1338810Y-304476D01*
X1291190Y-304476D01*
X1272143Y-294952D01*
X1262619Y-275905D01*
X1262619Y-256857D01*
X1272143Y-237809D01*
X1291190Y-228286D01*
X1338810Y-228286D01*
X1357857Y-218762D01*
X1453095Y-171143D02*
X1453095Y-371143D01*
X1453095Y-180667D02*
X1472143Y-171143D01*
X1510238Y-171143D01*
X1529286Y-180667D01*
X1538809Y-190190D01*
X1548333Y-209238D01*
X1548333Y-266381D01*
X1538809Y-285429D01*
X1529286Y-294952D01*
X1510238Y-304476D01*
X1472143Y-304476D01*
X1453095Y-294952D01*
X1634048Y-285429D02*
X1643571Y-294952D01*
X1634048Y-304476D01*
X1624524Y-294952D01*
X1634048Y-285429D01*
X1634048Y-304476D01*
X1634048Y-180667D02*
X1643571Y-190190D01*
X1634048Y-199714D01*
X1624524Y-190190D01*
X1634048Y-180667D01*
X1634048Y-199714D01*
D12*
X-85000Y-589000D02*
X5000Y-679000D01*
X5000Y-589000D02*
X-85000Y-679000D01*
D11*
X300714Y-524476D02*
X319762Y-524476D01*
X338810Y-534000D01*
X348333Y-543524D01*
X357857Y-562571D01*
X367381Y-600667D01*
X367381Y-648286D01*
X357857Y-686381D01*
X348333Y-705428D01*
X338810Y-714952D01*
X319762Y-724476D01*
X300714Y-724476D01*
X281667Y-714952D01*
X272143Y-705428D01*
X262619Y-686381D01*
X253095Y-648286D01*
X253095Y-600667D01*
X262619Y-562571D01*
X272143Y-543524D01*
X281667Y-534000D01*
X300714Y-524476D01*
X453095Y-705428D02*
X462619Y-714952D01*
X453095Y-724476D01*
X443571Y-714952D01*
X453095Y-705428D01*
X453095Y-724476D01*
X557857Y-724476D02*
X595952Y-724476D01*
X615000Y-714952D01*
X624524Y-705428D01*
X643571Y-676857D01*
X653095Y-638762D01*
X653095Y-562571D01*
X643571Y-543524D01*
X634048Y-534000D01*
X615000Y-524476D01*
X576905Y-524476D01*
X557857Y-534000D01*
X548333Y-543524D01*
X538810Y-562571D01*
X538810Y-610190D01*
X548333Y-629238D01*
X557857Y-638762D01*
X576905Y-648286D01*
X615000Y-648286D01*
X634048Y-638762D01*
X643571Y-629238D01*
X653095Y-610190D01*
X776905Y-524476D02*
X795952Y-524476D01*
X815000Y-534000D01*
X824524Y-543524D01*
X834048Y-562571D01*
X843571Y-600667D01*
X843571Y-648286D01*
X834048Y-686381D01*
X824524Y-705428D01*
X815000Y-714952D01*
X795952Y-724476D01*
X776905Y-724476D01*
X757857Y-714952D01*
X748333Y-705428D01*
X738809Y-686381D01*
X729286Y-648286D01*
X729286Y-600667D01*
X738809Y-562571D01*
X748333Y-543524D01*
X757857Y-534000D01*
X776905Y-524476D01*
X967381Y-524476D02*
X986428Y-524476D01*
X1005476Y-534000D01*
X1015000Y-543524D01*
X1024524Y-562571D01*
X1034048Y-600667D01*
X1034048Y-648286D01*
X1024524Y-686381D01*
X1015000Y-705428D01*
X1005476Y-714952D01*
X986428Y-724476D01*
X967381Y-724476D01*
X948333Y-714952D01*
X938809Y-705428D01*
X929286Y-686381D01*
X919762Y-648286D01*
X919762Y-600667D01*
X929286Y-562571D01*
X938809Y-543524D01*
X948333Y-534000D01*
X967381Y-524476D01*
X1119762Y-724476D02*
X1119762Y-591143D01*
X1119762Y-610190D02*
X1129286Y-600667D01*
X1148333Y-591143D01*
X1176905Y-591143D01*
X1195952Y-600667D01*
X1205476Y-619714D01*
X1205476Y-724476D01*
X1205476Y-619714D02*
X1215000Y-600667D01*
X1234048Y-591143D01*
X1262619Y-591143D01*
X1281667Y-600667D01*
X1291190Y-619714D01*
X1291190Y-724476D01*
X1386429Y-724476D02*
X1386429Y-591143D01*
X1386429Y-610190D02*
X1395952Y-600667D01*
X1415000Y-591143D01*
X1443571Y-591143D01*
X1462619Y-600667D01*
X1472143Y-619714D01*
X1472143Y-724476D01*
X1472143Y-619714D02*
X1481667Y-600667D01*
X1500714Y-591143D01*
X1529286Y-591143D01*
X1548333Y-600667D01*
X1557857Y-619714D01*
X1557857Y-724476D01*
X1948333Y-514952D02*
X1776905Y-772095D01*
X2205476Y-524476D02*
X2224524Y-524476D01*
X2243571Y-534000D01*
X2253095Y-543524D01*
X2262619Y-562571D01*
X2272143Y-600667D01*
X2272143Y-648286D01*
X2262619Y-686381D01*
X2253095Y-705428D01*
X2243571Y-714952D01*
X2224524Y-724476D01*
X2205476Y-724476D01*
X2186429Y-714952D01*
X2176905Y-705428D01*
X2167381Y-686381D01*
X2157857Y-648286D01*
X2157857Y-600667D01*
X2167381Y-562571D01*
X2176905Y-543524D01*
X2186429Y-534000D01*
X2205476Y-524476D01*
X2357857Y-705428D02*
X2367381Y-714952D01*
X2357857Y-724476D01*
X2348333Y-714952D01*
X2357857Y-705428D01*
X2357857Y-724476D01*
X2491190Y-524476D02*
X2510238Y-524476D01*
X2529286Y-534000D01*
X2538810Y-543524D01*
X2548333Y-562571D01*
X2557857Y-600667D01*
X2557857Y-648286D01*
X2548333Y-686381D01*
X2538810Y-705428D01*
X2529286Y-714952D01*
X2510238Y-724476D01*
X2491190Y-724476D01*
X2472143Y-714952D01*
X2462619Y-705428D01*
X2453095Y-686381D01*
X2443571Y-648286D01*
X2443571Y-600667D01*
X2453095Y-562571D01*
X2462619Y-543524D01*
X2472143Y-534000D01*
X2491190Y-524476D01*
X2624524Y-524476D02*
X2748333Y-524476D01*
X2681667Y-600667D01*
X2710238Y-600667D01*
X2729286Y-610190D01*
X2738810Y-619714D01*
X2748333Y-638762D01*
X2748333Y-686381D01*
X2738810Y-705428D01*
X2729286Y-714952D01*
X2710238Y-724476D01*
X2653095Y-724476D01*
X2634048Y-714952D01*
X2624524Y-705428D01*
X2929286Y-524476D02*
X2834048Y-524476D01*
X2824524Y-619714D01*
X2834048Y-610190D01*
X2853095Y-600667D01*
X2900714Y-600667D01*
X2919762Y-610190D01*
X2929286Y-619714D01*
X2938809Y-638762D01*
X2938809Y-686381D01*
X2929286Y-705428D01*
X2919762Y-714952D01*
X2900714Y-724476D01*
X2853095Y-724476D01*
X2834048Y-714952D01*
X2824524Y-705428D01*
X3110238Y-591143D02*
X3110238Y-724476D01*
X3062619Y-514952D02*
X3015000Y-657810D01*
X3138809Y-657810D01*
X3205476Y-524476D02*
X3205476Y-562571D01*
X3281667Y-524476D02*
X3281667Y-562571D01*
X3576905Y-800667D02*
X3567381Y-791143D01*
X3548333Y-762571D01*
X3538809Y-743524D01*
X3529286Y-714952D01*
X3519762Y-667333D01*
X3519762Y-629238D01*
X3529286Y-581619D01*
X3538809Y-553048D01*
X3548333Y-534000D01*
X3567381Y-505428D01*
X3576905Y-495905D01*
X3681667Y-610190D02*
X3662619Y-600667D01*
X3653095Y-591143D01*
X3643571Y-572095D01*
X3643571Y-562571D01*
X3653095Y-543524D01*
X3662619Y-534000D01*
X3681667Y-524476D01*
X3719762Y-524476D01*
X3738809Y-534000D01*
X3748333Y-543524D01*
X3757857Y-562571D01*
X3757857Y-572095D01*
X3748333Y-591143D01*
X3738809Y-600667D01*
X3719762Y-610190D01*
X3681667Y-610190D01*
X3662619Y-619714D01*
X3653095Y-629238D01*
X3643571Y-648286D01*
X3643571Y-686381D01*
X3653095Y-705428D01*
X3662619Y-714952D01*
X3681667Y-724476D01*
X3719762Y-724476D01*
X3738809Y-714952D01*
X3748333Y-705428D01*
X3757857Y-686381D01*
X3757857Y-648286D01*
X3748333Y-629238D01*
X3738809Y-619714D01*
X3719762Y-610190D01*
X3995952Y-724476D02*
X3995952Y-524476D01*
X4081667Y-724476D02*
X4081667Y-619714D01*
X4072143Y-600667D01*
X4053095Y-591143D01*
X4024524Y-591143D01*
X4005476Y-600667D01*
X3995952Y-610190D01*
X4205476Y-724476D02*
X4186428Y-714952D01*
X4176905Y-705428D01*
X4167381Y-686381D01*
X4167381Y-629238D01*
X4176905Y-610190D01*
X4186428Y-600667D01*
X4205476Y-591143D01*
X4234048Y-591143D01*
X4253095Y-600667D01*
X4262619Y-610190D01*
X4272143Y-629238D01*
X4272143Y-686381D01*
X4262619Y-705428D01*
X4253095Y-714952D01*
X4234048Y-724476D01*
X4205476Y-724476D01*
X4386429Y-724476D02*
X4367381Y-714952D01*
X4357857Y-695905D01*
X4357857Y-524476D01*
X4538810Y-714952D02*
X4519762Y-724476D01*
X4481667Y-724476D01*
X4462619Y-714952D01*
X4453095Y-695905D01*
X4453095Y-619714D01*
X4462619Y-600667D01*
X4481667Y-591143D01*
X4519762Y-591143D01*
X4538810Y-600667D01*
X4548333Y-619714D01*
X4548333Y-638762D01*
X4453095Y-657810D01*
X4624524Y-714952D02*
X4643571Y-724476D01*
X4681667Y-724476D01*
X4700714Y-714952D01*
X4710238Y-695905D01*
X4710238Y-686381D01*
X4700714Y-667333D01*
X4681667Y-657810D01*
X4653095Y-657810D01*
X4634048Y-648286D01*
X4624524Y-629238D01*
X4624524Y-619714D01*
X4634048Y-600667D01*
X4653095Y-591143D01*
X4681667Y-591143D01*
X4700714Y-600667D01*
X4776905Y-800667D02*
X4786429Y-791143D01*
X4805476Y-762571D01*
X4815000Y-743524D01*
X4824524Y-714952D01*
X4834048Y-667333D01*
X4834048Y-629238D01*
X4824524Y-581619D01*
X4815000Y-553048D01*
X4805476Y-534000D01*
X4786429Y-505428D01*
X4776905Y-495905D01*
X5138810Y-800667D02*
X5129286Y-791143D01*
X5110238Y-762571D01*
X5100714Y-743524D01*
X5091190Y-714952D01*
X5081667Y-667333D01*
X5081667Y-629238D01*
X5091190Y-581619D01*
X5100714Y-553048D01*
X5110238Y-534000D01*
X5129286Y-505428D01*
X5138810Y-495905D01*
X5215000Y-591143D02*
X5215000Y-724476D01*
X5215000Y-610190D02*
X5224524Y-600667D01*
X5243571Y-591143D01*
X5272143Y-591143D01*
X5291190Y-600667D01*
X5300714Y-619714D01*
X5300714Y-724476D01*
X5424524Y-724476D02*
X5405476Y-714952D01*
X5395952Y-705428D01*
X5386429Y-686381D01*
X5386429Y-629238D01*
X5395952Y-610190D01*
X5405476Y-600667D01*
X5424524Y-591143D01*
X5453095Y-591143D01*
X5472143Y-600667D01*
X5481667Y-610190D01*
X5491190Y-629238D01*
X5491190Y-686381D01*
X5481667Y-705428D01*
X5472143Y-714952D01*
X5453095Y-724476D01*
X5424524Y-724476D01*
X5548333Y-591143D02*
X5624524Y-591143D01*
X5576905Y-524476D02*
X5576905Y-695905D01*
X5586429Y-714952D01*
X5605476Y-724476D01*
X5624524Y-724476D01*
X5843571Y-591143D02*
X5843571Y-791143D01*
X5843571Y-600667D02*
X5862619Y-591143D01*
X5900714Y-591143D01*
X5919762Y-600667D01*
X5929286Y-610190D01*
X5938809Y-629238D01*
X5938809Y-686381D01*
X5929286Y-705428D01*
X5919762Y-714952D01*
X5900714Y-724476D01*
X5862619Y-724476D01*
X5843571Y-714952D01*
X6053095Y-724476D02*
X6034048Y-714952D01*
X6024524Y-695905D01*
X6024524Y-524476D01*
X6215000Y-724476D02*
X6215000Y-619714D01*
X6205476Y-600667D01*
X6186428Y-591143D01*
X6148333Y-591143D01*
X6129286Y-600667D01*
X6215000Y-714952D02*
X6195952Y-724476D01*
X6148333Y-724476D01*
X6129286Y-714952D01*
X6119762Y-695905D01*
X6119762Y-676857D01*
X6129286Y-657810D01*
X6148333Y-648286D01*
X6195952Y-648286D01*
X6215000Y-638762D01*
X6281667Y-591143D02*
X6357857Y-591143D01*
X6310238Y-524476D02*
X6310238Y-695905D01*
X6319762Y-714952D01*
X6338809Y-724476D01*
X6357857Y-724476D01*
X6500714Y-714952D02*
X6481667Y-724476D01*
X6443571Y-724476D01*
X6424524Y-714952D01*
X6415000Y-695905D01*
X6415000Y-619714D01*
X6424524Y-600667D01*
X6443571Y-591143D01*
X6481667Y-591143D01*
X6500714Y-600667D01*
X6510238Y-619714D01*
X6510238Y-638762D01*
X6415000Y-657810D01*
X6681667Y-724476D02*
X6681667Y-524476D01*
X6681667Y-714952D02*
X6662619Y-724476D01*
X6624524Y-724476D01*
X6605476Y-714952D01*
X6595952Y-705428D01*
X6586428Y-686381D01*
X6586428Y-629238D01*
X6595952Y-610190D01*
X6605476Y-600667D01*
X6624524Y-591143D01*
X6662619Y-591143D01*
X6681667Y-600667D01*
X6757857Y-800667D02*
X6767381Y-791143D01*
X6786428Y-762571D01*
X6795952Y-743524D01*
X6805476Y-714952D01*
X6815000Y-667333D01*
X6815000Y-629238D01*
X6805476Y-581619D01*
X6795952Y-553048D01*
X6786428Y-534000D01*
X6767381Y-505428D01*
X6757857Y-495905D01*
D13*
X5000Y-898000D02*
G75*
G03*
X5000Y-898000I-59500J0D01*
G01*
D11*
X367381Y-988476D02*
X253095Y-988476D01*
X310238Y-988476D02*
X310238Y-788476D01*
X291190Y-817048D01*
X272143Y-836095D01*
X253095Y-845619D01*
X453095Y-969428D02*
X462619Y-978952D01*
X453095Y-988476D01*
X443571Y-978952D01*
X453095Y-969428D01*
X453095Y-988476D01*
X653095Y-988476D02*
X538810Y-988476D01*
X595952Y-988476D02*
X595952Y-788476D01*
X576905Y-817048D01*
X557857Y-836095D01*
X538810Y-845619D01*
X748333Y-988476D02*
X786428Y-988476D01*
X805476Y-978952D01*
X815000Y-969428D01*
X834048Y-940857D01*
X843571Y-902762D01*
X843571Y-826571D01*
X834048Y-807524D01*
X824524Y-798000D01*
X805476Y-788476D01*
X767381Y-788476D01*
X748333Y-798000D01*
X738809Y-807524D01*
X729286Y-826571D01*
X729286Y-874190D01*
X738809Y-893238D01*
X748333Y-902762D01*
X767381Y-912286D01*
X805476Y-912286D01*
X824524Y-902762D01*
X834048Y-893238D01*
X843571Y-874190D01*
X967381Y-788476D02*
X986428Y-788476D01*
X1005476Y-798000D01*
X1015000Y-807524D01*
X1024524Y-826571D01*
X1034048Y-864667D01*
X1034048Y-912286D01*
X1024524Y-950381D01*
X1015000Y-969428D01*
X1005476Y-978952D01*
X986428Y-988476D01*
X967381Y-988476D01*
X948333Y-978952D01*
X938809Y-969428D01*
X929286Y-950381D01*
X919762Y-912286D01*
X919762Y-864667D01*
X929286Y-826571D01*
X938809Y-807524D01*
X948333Y-798000D01*
X967381Y-788476D01*
X1119762Y-988476D02*
X1119762Y-855143D01*
X1119762Y-874190D02*
X1129286Y-864667D01*
X1148333Y-855143D01*
X1176905Y-855143D01*
X1195952Y-864667D01*
X1205476Y-883714D01*
X1205476Y-988476D01*
X1205476Y-883714D02*
X1215000Y-864667D01*
X1234048Y-855143D01*
X1262619Y-855143D01*
X1281667Y-864667D01*
X1291190Y-883714D01*
X1291190Y-988476D01*
X1386429Y-988476D02*
X1386429Y-855143D01*
X1386429Y-874190D02*
X1395952Y-864667D01*
X1415000Y-855143D01*
X1443571Y-855143D01*
X1462619Y-864667D01*
X1472143Y-883714D01*
X1472143Y-988476D01*
X1472143Y-883714D02*
X1481667Y-864667D01*
X1500714Y-855143D01*
X1529286Y-855143D01*
X1548333Y-864667D01*
X1557857Y-883714D01*
X1557857Y-988476D01*
X1948333Y-778952D02*
X1776905Y-1036095D01*
X2205476Y-788476D02*
X2224524Y-788476D01*
X2243571Y-798000D01*
X2253095Y-807524D01*
X2262619Y-826571D01*
X2272143Y-864667D01*
X2272143Y-912286D01*
X2262619Y-950381D01*
X2253095Y-969428D01*
X2243571Y-978952D01*
X2224524Y-988476D01*
X2205476Y-988476D01*
X2186429Y-978952D01*
X2176905Y-969428D01*
X2167381Y-950381D01*
X2157857Y-912286D01*
X2157857Y-864667D01*
X2167381Y-826571D01*
X2176905Y-807524D01*
X2186429Y-798000D01*
X2205476Y-788476D01*
X2357857Y-969428D02*
X2367381Y-978952D01*
X2357857Y-988476D01*
X2348333Y-978952D01*
X2357857Y-969428D01*
X2357857Y-988476D01*
X2491190Y-788476D02*
X2510238Y-788476D01*
X2529286Y-798000D01*
X2538810Y-807524D01*
X2548333Y-826571D01*
X2557857Y-864667D01*
X2557857Y-912286D01*
X2548333Y-950381D01*
X2538810Y-969428D01*
X2529286Y-978952D01*
X2510238Y-988476D01*
X2491190Y-988476D01*
X2472143Y-978952D01*
X2462619Y-969428D01*
X2453095Y-950381D01*
X2443571Y-912286D01*
X2443571Y-864667D01*
X2453095Y-826571D01*
X2462619Y-807524D01*
X2472143Y-798000D01*
X2491190Y-788476D01*
X2729286Y-855143D02*
X2729286Y-988476D01*
X2681667Y-778952D02*
X2634048Y-921809D01*
X2757857Y-921809D01*
X2919762Y-788476D02*
X2881667Y-788476D01*
X2862619Y-798000D01*
X2853095Y-807524D01*
X2834048Y-836095D01*
X2824524Y-874190D01*
X2824524Y-950381D01*
X2834048Y-969428D01*
X2843571Y-978952D01*
X2862619Y-988476D01*
X2900714Y-988476D01*
X2919762Y-978952D01*
X2929286Y-969428D01*
X2938809Y-950381D01*
X2938809Y-902762D01*
X2929286Y-883714D01*
X2919762Y-874190D01*
X2900714Y-864667D01*
X2862619Y-864667D01*
X2843571Y-874190D01*
X2834048Y-883714D01*
X2824524Y-902762D01*
X3034048Y-988476D02*
X3072143Y-988476D01*
X3091190Y-978952D01*
X3100714Y-969428D01*
X3119762Y-940857D01*
X3129286Y-902762D01*
X3129286Y-826571D01*
X3119762Y-807524D01*
X3110238Y-798000D01*
X3091190Y-788476D01*
X3053095Y-788476D01*
X3034048Y-798000D01*
X3024524Y-807524D01*
X3015000Y-826571D01*
X3015000Y-874190D01*
X3024524Y-893238D01*
X3034048Y-902762D01*
X3053095Y-912286D01*
X3091190Y-912286D01*
X3110238Y-902762D01*
X3119762Y-893238D01*
X3129286Y-874190D01*
X3205476Y-788476D02*
X3205476Y-826571D01*
X3281667Y-788476D02*
X3281667Y-826571D01*
X3576905Y-1064667D02*
X3567381Y-1055143D01*
X3548333Y-1026571D01*
X3538809Y-1007524D01*
X3529286Y-978952D01*
X3519762Y-931333D01*
X3519762Y-893238D01*
X3529286Y-845619D01*
X3538809Y-817048D01*
X3548333Y-798000D01*
X3567381Y-769428D01*
X3576905Y-759905D01*
X3643571Y-807524D02*
X3653095Y-798000D01*
X3672143Y-788476D01*
X3719762Y-788476D01*
X3738809Y-798000D01*
X3748333Y-807524D01*
X3757857Y-826571D01*
X3757857Y-845619D01*
X3748333Y-874190D01*
X3634048Y-988476D01*
X3757857Y-988476D01*
X3995952Y-988476D02*
X3995952Y-788476D01*
X4081667Y-988476D02*
X4081667Y-883714D01*
X4072143Y-864667D01*
X4053095Y-855143D01*
X4024524Y-855143D01*
X4005476Y-864667D01*
X3995952Y-874190D01*
X4205476Y-988476D02*
X4186428Y-978952D01*
X4176905Y-969428D01*
X4167381Y-950381D01*
X4167381Y-893238D01*
X4176905Y-874190D01*
X4186428Y-864667D01*
X4205476Y-855143D01*
X4234048Y-855143D01*
X4253095Y-864667D01*
X4262619Y-874190D01*
X4272143Y-893238D01*
X4272143Y-950381D01*
X4262619Y-969428D01*
X4253095Y-978952D01*
X4234048Y-988476D01*
X4205476Y-988476D01*
X4386429Y-988476D02*
X4367381Y-978952D01*
X4357857Y-959905D01*
X4357857Y-788476D01*
X4538810Y-978952D02*
X4519762Y-988476D01*
X4481667Y-988476D01*
X4462619Y-978952D01*
X4453095Y-959905D01*
X4453095Y-883714D01*
X4462619Y-864667D01*
X4481667Y-855143D01*
X4519762Y-855143D01*
X4538810Y-864667D01*
X4548333Y-883714D01*
X4548333Y-902762D01*
X4453095Y-921809D01*
X4624524Y-978952D02*
X4643571Y-988476D01*
X4681667Y-988476D01*
X4700714Y-978952D01*
X4710238Y-959905D01*
X4710238Y-950381D01*
X4700714Y-931333D01*
X4681667Y-921809D01*
X4653095Y-921809D01*
X4634048Y-912286D01*
X4624524Y-893238D01*
X4624524Y-883714D01*
X4634048Y-864667D01*
X4653095Y-855143D01*
X4681667Y-855143D01*
X4700714Y-864667D01*
X4776905Y-1064667D02*
X4786429Y-1055143D01*
X4805476Y-1026571D01*
X4815000Y-1007524D01*
X4824524Y-978952D01*
X4834048Y-931333D01*
X4834048Y-893238D01*
X4824524Y-845619D01*
X4815000Y-817048D01*
X4805476Y-798000D01*
X4786429Y-769428D01*
X4776905Y-759905D01*
X5138810Y-1064667D02*
X5129286Y-1055143D01*
X5110238Y-1026571D01*
X5100714Y-1007524D01*
X5091190Y-978952D01*
X5081667Y-931333D01*
X5081667Y-893238D01*
X5091190Y-845619D01*
X5100714Y-817048D01*
X5110238Y-798000D01*
X5129286Y-769428D01*
X5138810Y-759905D01*
X5215000Y-855143D02*
X5215000Y-988476D01*
X5215000Y-874190D02*
X5224524Y-864667D01*
X5243571Y-855143D01*
X5272143Y-855143D01*
X5291190Y-864667D01*
X5300714Y-883714D01*
X5300714Y-988476D01*
X5424524Y-988476D02*
X5405476Y-978952D01*
X5395952Y-969428D01*
X5386429Y-950381D01*
X5386429Y-893238D01*
X5395952Y-874190D01*
X5405476Y-864667D01*
X5424524Y-855143D01*
X5453095Y-855143D01*
X5472143Y-864667D01*
X5481667Y-874190D01*
X5491190Y-893238D01*
X5491190Y-950381D01*
X5481667Y-969428D01*
X5472143Y-978952D01*
X5453095Y-988476D01*
X5424524Y-988476D01*
X5548333Y-855143D02*
X5624524Y-855143D01*
X5576905Y-788476D02*
X5576905Y-959905D01*
X5586429Y-978952D01*
X5605476Y-988476D01*
X5624524Y-988476D01*
X5843571Y-855143D02*
X5843571Y-1055143D01*
X5843571Y-864667D02*
X5862619Y-855143D01*
X5900714Y-855143D01*
X5919762Y-864667D01*
X5929286Y-874190D01*
X5938809Y-893238D01*
X5938809Y-950381D01*
X5929286Y-969428D01*
X5919762Y-978952D01*
X5900714Y-988476D01*
X5862619Y-988476D01*
X5843571Y-978952D01*
X6053095Y-988476D02*
X6034048Y-978952D01*
X6024524Y-959905D01*
X6024524Y-788476D01*
X6215000Y-988476D02*
X6215000Y-883714D01*
X6205476Y-864667D01*
X6186428Y-855143D01*
X6148333Y-855143D01*
X6129286Y-864667D01*
X6215000Y-978952D02*
X6195952Y-988476D01*
X6148333Y-988476D01*
X6129286Y-978952D01*
X6119762Y-959905D01*
X6119762Y-940857D01*
X6129286Y-921809D01*
X6148333Y-912286D01*
X6195952Y-912286D01*
X6215000Y-902762D01*
X6281667Y-855143D02*
X6357857Y-855143D01*
X6310238Y-788476D02*
X6310238Y-959905D01*
X6319762Y-978952D01*
X6338809Y-988476D01*
X6357857Y-988476D01*
X6500714Y-978952D02*
X6481667Y-988476D01*
X6443571Y-988476D01*
X6424524Y-978952D01*
X6415000Y-959905D01*
X6415000Y-883714D01*
X6424524Y-864667D01*
X6443571Y-855143D01*
X6481667Y-855143D01*
X6500714Y-864667D01*
X6510238Y-883714D01*
X6510238Y-902762D01*
X6415000Y-921809D01*
X6681667Y-988476D02*
X6681667Y-788476D01*
X6681667Y-978952D02*
X6662619Y-988476D01*
X6624524Y-988476D01*
X6605476Y-978952D01*
X6595952Y-969428D01*
X6586428Y-950381D01*
X6586428Y-893238D01*
X6595952Y-874190D01*
X6605476Y-864667D01*
X6624524Y-855143D01*
X6662619Y-855143D01*
X6681667Y-864667D01*
X6757857Y-1064667D02*
X6767381Y-1055143D01*
X6786428Y-1026571D01*
X6795952Y-1007524D01*
X6805476Y-978952D01*
X6815000Y-931333D01*
X6815000Y-893238D01*
X6805476Y-845619D01*
X6795952Y-817048D01*
X6786428Y-798000D01*
X6767381Y-769428D01*
X6757857Y-759905D01*
M02*
