%TF.GenerationSoftware,KiCad,Pcbnew,6.0.7-f9a2dced07~116~ubuntu20.04.1*%
%TF.CreationDate,2022-10-11T04:26:53+03:00*%
%TF.ProjectId,obc-adcs-board,6f62632d-6164-4637-932d-626f6172642e,rev?*%
%TF.SameCoordinates,PX3e2df80PY83e4a60*%
%TF.FileFunction,Copper,L6,Inr*%
%TF.FilePolarity,Positive*%
%FSLAX46Y46*%
G04 Gerber Fmt 4.6, Leading zero omitted, Abs format (unit mm)*
G04 Created by KiCad (PCBNEW 6.0.7-f9a2dced07~116~ubuntu20.04.1) date 2022-10-11 04:26:53*
%MOMM*%
%LPD*%
G01*
G04 APERTURE LIST*
%TA.AperFunction,Profile*%
%ADD10C,0.100000*%
%TD*%
%TA.AperFunction,ComponentPad*%
%ADD11C,5.600000*%
%TD*%
%TA.AperFunction,ComponentPad*%
%ADD12R,0.850000X0.850000*%
%TD*%
%TA.AperFunction,ComponentPad*%
%ADD13R,1.530000X1.530000*%
%TD*%
%TA.AperFunction,ComponentPad*%
%ADD14C,1.530000*%
%TD*%
%TA.AperFunction,ViaPad*%
%ADD15C,0.800000*%
%TD*%
%TA.AperFunction,Conductor*%
%ADD16C,0.250000*%
%TD*%
%TA.AperFunction,Conductor*%
%ADD17C,0.200000*%
%TD*%
%TA.AperFunction,Conductor*%
%ADD18C,0.150000*%
%TD*%
G04 APERTURE END LIST*
D10*
X1600000Y43065000D02*
X1600000Y53065000D01*
X66685000Y120000D02*
X89370000Y120000D01*
X850000Y42315000D02*
G75*
G03*
X100000Y41565000I0J-750000D01*
G01*
X65935000Y870000D02*
G75*
G03*
X65185000Y1620000I-750000J0D01*
G01*
X72185000Y94510000D02*
G75*
G03*
X72935000Y95260000I0J750000D01*
G01*
X90270000Y12065000D02*
X90270000Y1020000D01*
X850000Y42315000D02*
G75*
G03*
X1600000Y43065000I0J750000D01*
G01*
X25185000Y1620000D02*
G75*
G03*
X24435000Y870000I0J-750000D01*
G01*
X18185000Y94510000D02*
X72185000Y94510000D01*
X100000Y41565000D02*
X100000Y1010000D01*
X73685000Y96010000D02*
G75*
G03*
X72935000Y95260000I0J-750000D01*
G01*
X1000000Y96010000D02*
G75*
G03*
X100000Y95110000I0J-900000D01*
G01*
X100000Y1010000D02*
G75*
G03*
X1000000Y110000I900000J0D01*
G01*
X88770000Y13565000D02*
X88770000Y82565000D01*
X90270000Y12065000D02*
G75*
G03*
X89520000Y12815000I-750000J0D01*
G01*
X89520000Y83315000D02*
G75*
G03*
X88770000Y82565000I0J-750000D01*
G01*
X88770000Y13565000D02*
G75*
G03*
X89520000Y12815000I750000J0D01*
G01*
X25185000Y1620000D02*
X65185000Y1620000D01*
X73685000Y96010000D02*
X89370000Y96010000D01*
X89520000Y83315000D02*
G75*
G03*
X90270000Y84065000I0J750000D01*
G01*
X89370000Y120000D02*
G75*
G03*
X90270000Y1020000I0J900000D01*
G01*
X1600000Y53065000D02*
G75*
G03*
X850000Y53815000I-750000J0D01*
G01*
X23685000Y120000D02*
G75*
G03*
X24435000Y870000I0J750000D01*
G01*
X90270000Y95110000D02*
G75*
G03*
X89370000Y96010000I-900000J0D01*
G01*
X17435000Y95260000D02*
G75*
G03*
X18185000Y94510000I750000J0D01*
G01*
X100000Y54565000D02*
G75*
G03*
X850000Y53815000I750000J0D01*
G01*
X1000000Y96010000D02*
X16685000Y96010000D01*
X90270000Y95110000D02*
X90270000Y84065000D01*
X100000Y95110000D02*
X100000Y54565000D01*
X17435000Y95260000D02*
G75*
G03*
X16685000Y96010000I-750000J0D01*
G01*
X23685000Y120000D02*
X1000000Y110000D01*
X65935000Y870000D02*
G75*
G03*
X66685000Y120000I750000J0D01*
G01*
D11*
%TO.N,unconnected-(H4-Pad1)*%
%TO.C,H2*%
X82630000Y90930000D03*
%TD*%
%TO.N,unconnected-(H1-Pad1)*%
%TO.C,H3*%
X5180000Y5190000D03*
%TD*%
%TO.N,AC_GND_2*%
%TO.C,H4*%
X85170000Y5210000D03*
%TD*%
%TO.N,AC_GND_1*%
%TO.C,H1*%
X8990000Y90930000D03*
%TD*%
D12*
%TO.N,/OBC module/3V3_PROT*%
%TO.C,J10*%
X3000000Y9700000D03*
%TD*%
D13*
%TO.N,CAN1-*%
%TO.C,J1*%
X14048000Y83309000D03*
D14*
%TO.N,unconnected-(J1-Pad02)*%
X14048000Y85849000D03*
%TO.N,CAN1+*%
X16588000Y83309000D03*
%TO.N,unconnected-(J1-Pad04)*%
X16588000Y85849000D03*
%TO.N,unconnected-(J1-Pad05)*%
X19128000Y83309000D03*
%TO.N,unconnected-(J1-Pad06)*%
X19128000Y85849000D03*
%TO.N,unconnected-(J1-Pad07)*%
X21668000Y83309000D03*
%TO.N,unconnected-(J1-Pad08)*%
X21668000Y85849000D03*
%TO.N,unconnected-(J1-Pad09)*%
X24208000Y83309000D03*
%TO.N,unconnected-(J1-Pad10)*%
X24208000Y85849000D03*
%TO.N,unconnected-(J1-Pad11)*%
X26748000Y83309000D03*
%TO.N,unconnected-(J1-Pad12)*%
X26748000Y85849000D03*
%TO.N,unconnected-(J1-Pad13)*%
X29288000Y83309000D03*
%TO.N,unconnected-(J1-Pad14)*%
X29288000Y85849000D03*
%TO.N,unconnected-(J1-Pad15)*%
X31828000Y83309000D03*
%TO.N,unconnected-(J1-Pad16)*%
X31828000Y85849000D03*
%TO.N,unconnected-(J1-Pad17)*%
X34368000Y83309000D03*
%TO.N,unconnected-(J1-Pad18)*%
X34368000Y85849000D03*
%TO.N,unconnected-(J1-Pad19)*%
X36908000Y83309000D03*
%TO.N,unconnected-(J1-Pad20)*%
X36908000Y85849000D03*
%TO.N,unconnected-(J1-Pad21)*%
X39448000Y83309000D03*
%TO.N,unconnected-(J1-Pad22)*%
X39448000Y85849000D03*
%TO.N,unconnected-(J1-Pad23)*%
X41988000Y83309000D03*
%TO.N,unconnected-(J1-Pad24)*%
X41988000Y85849000D03*
%TO.N,unconnected-(J1-Pad25)*%
X44528000Y83309000D03*
%TO.N,unconnected-(J1-Pad26)*%
X44528000Y85849000D03*
%TO.N,unconnected-(J1-Pad27)*%
X47068000Y83309000D03*
%TO.N,unconnected-(J1-Pad28)*%
X47068000Y85849000D03*
%TO.N,unconnected-(J1-Pad29)*%
X49608000Y83309000D03*
%TO.N,unconnected-(J1-Pad30)*%
X49608000Y85849000D03*
%TO.N,unconnected-(J1-Pad31)*%
X52148000Y83309000D03*
%TO.N,unconnected-(J1-Pad32)*%
X52148000Y85849000D03*
%TO.N,unconnected-(J1-Pad33)*%
X54688000Y83309000D03*
%TO.N,unconnected-(J1-Pad34)*%
X54688000Y85849000D03*
%TO.N,unconnected-(J1-Pad35)*%
X57228000Y83309000D03*
%TO.N,unconnected-(J1-Pad36)*%
X57228000Y85849000D03*
%TO.N,unconnected-(J1-Pad37)*%
X59768000Y83309000D03*
%TO.N,unconnected-(J1-Pad38)*%
X59768000Y85849000D03*
%TO.N,unconnected-(J1-Pad39)*%
X62308000Y83309000D03*
%TO.N,unconnected-(J1-Pad40)*%
X62308000Y85849000D03*
%TO.N,/I2C_MTQ_SDA*%
X64848000Y83309000D03*
%TO.N,unconnected-(J1-Pad42)*%
X64848000Y85849000D03*
%TO.N,/I2C_MTQ_SCK*%
X67388000Y83309000D03*
%TO.N,unconnected-(J1-Pad44)*%
X67388000Y85849000D03*
%TO.N,GND*%
X69928000Y83309000D03*
X69928000Y85849000D03*
%TO.N,/EPS_3V3_ADCS*%
X72468000Y83309000D03*
%TO.N,/EPS_3V3_SU*%
X72468000Y85849000D03*
%TO.N,/EPS_3V3_OBC*%
X75008000Y83309000D03*
%TO.N,/EPS_3V3_RW*%
X75008000Y85849000D03*
%TO.N,unconnected-(J1-Pad51)*%
X77548000Y83309000D03*
%TO.N,/EPS_5V_SU*%
X77548000Y85849000D03*
%TD*%
D13*
%TO.N,CAN2-*%
%TO.C,J2*%
X14048000Y88389000D03*
D14*
%TO.N,unconnected-(J5-Pad02)*%
X14048000Y90929000D03*
%TO.N,CAN2+*%
X16588000Y88389000D03*
%TO.N,unconnected-(J5-Pad04)*%
X16588000Y90929000D03*
%TO.N,unconnected-(J5-Pad05)*%
X19128000Y88389000D03*
%TO.N,unconnected-(J5-Pad06)*%
X19128000Y90929000D03*
%TO.N,unconnected-(J5-Pad07)*%
X21668000Y88389000D03*
%TO.N,unconnected-(J5-Pad08)*%
X21668000Y90929000D03*
%TO.N,unconnected-(J5-Pad09)*%
X24208000Y88389000D03*
%TO.N,unconnected-(J5-Pad10)*%
X24208000Y90929000D03*
%TO.N,unconnected-(J5-Pad11)*%
X26748000Y88389000D03*
%TO.N,unconnected-(J5-Pad12)*%
X26748000Y90929000D03*
%TO.N,unconnected-(J5-Pad13)*%
X29288000Y88389000D03*
%TO.N,unconnected-(J5-Pad14)*%
X29288000Y90929000D03*
%TO.N,unconnected-(J5-Pad15)*%
X31828000Y88389000D03*
%TO.N,unconnected-(J5-Pad16)*%
X31828000Y90929000D03*
%TO.N,/OBC_UART_TX*%
X34368000Y88389000D03*
%TO.N,/OBC_UART_RX*%
X34368000Y90929000D03*
%TO.N,/ADCS_UART_TX*%
X36908000Y88389000D03*
%TO.N,/ADCS_UART_RX*%
X36908000Y90929000D03*
%TO.N,unconnected-(J5-Pad21)*%
X39448000Y88389000D03*
%TO.N,unconnected-(J5-Pad22)*%
X39448000Y90929000D03*
%TO.N,unconnected-(J5-Pad23)*%
X41988000Y88389000D03*
%TO.N,unconnected-(J5-Pad24)*%
X41988000Y90929000D03*
%TO.N,unconnected-(J5-Pad25)*%
X44528000Y88389000D03*
%TO.N,unconnected-(J5-Pad26)*%
X44528000Y90929000D03*
%TO.N,unconnected-(J5-Pad27)*%
X47068000Y88389000D03*
%TO.N,unconnected-(J5-Pad28)*%
X47068000Y90929000D03*
%TO.N,GND*%
X49608000Y88389000D03*
X49608000Y90929000D03*
X52148000Y88389000D03*
X52148000Y90929000D03*
%TO.N,unconnected-(J5-Pad33)*%
X54688000Y88389000D03*
%TO.N,unconnected-(J5-Pad34)*%
X54688000Y90929000D03*
%TO.N,unconnected-(J5-Pad35)*%
X57228000Y88389000D03*
%TO.N,unconnected-(J5-Pad36)*%
X57228000Y90929000D03*
%TO.N,unconnected-(J5-Pad37)*%
X59768000Y88389000D03*
%TO.N,unconnected-(J5-Pad38)*%
X59768000Y90929000D03*
%TO.N,unconnected-(J5-Pad39)*%
X62308000Y88389000D03*
%TO.N,unconnected-(J5-Pad40)*%
X62308000Y90929000D03*
%TO.N,unconnected-(J5-Pad41)*%
X64848000Y88389000D03*
%TO.N,unconnected-(J5-Pad42)*%
X64848000Y90929000D03*
%TO.N,unconnected-(J5-Pad43)*%
X67388000Y88389000D03*
%TO.N,unconnected-(J5-Pad44)*%
X67388000Y90929000D03*
%TO.N,unconnected-(J5-Pad45)*%
X69928000Y88389000D03*
%TO.N,unconnected-(J5-Pad46)*%
X69928000Y90929000D03*
%TO.N,/EPS_5V_PANELS*%
X72468000Y88389000D03*
%TO.N,/EPS_5V_ADM*%
X72468000Y90929000D03*
%TO.N,/EPS_12V_SU*%
X75008000Y88389000D03*
%TO.N,unconnected-(J5-Pad50)*%
X75008000Y90929000D03*
%TO.N,/EPS_5V_ADM*%
X77548000Y88389000D03*
%TO.N,unconnected-(J5-Pad52)*%
X77548000Y90929000D03*
%TD*%
D12*
%TO.N,/ADCS_VDD*%
%TO.C,J18*%
X9300000Y51200000D03*
%TD*%
D15*
%TO.N,/OBC module/3V3_LCLPROT_NAND*%
X19450000Y51500000D03*
X47298620Y57825500D03*
%TO.N,GND*%
X81600000Y18700000D03*
X47600000Y16600000D03*
X25200000Y42400000D03*
X33550000Y69400000D03*
X23800000Y48100000D03*
X35150000Y8300000D03*
X10300000Y44900000D03*
X43411765Y49939356D03*
X15273056Y32773056D03*
X74800000Y16000000D03*
X48300000Y64200000D03*
X72600000Y30900000D03*
X75000000Y73800000D03*
X74950000Y75800000D03*
X11450000Y72650000D03*
X74100000Y47100000D03*
X55000000Y29900000D03*
X22300000Y41300000D03*
X33550000Y77700000D03*
X67800000Y36500000D03*
X64100000Y66400000D03*
X44800000Y44125500D03*
X67300000Y60900000D03*
X28800000Y68000000D03*
X11100000Y38500000D03*
X32650000Y60400000D03*
X81600000Y44500000D03*
X76775000Y5300000D03*
X49400000Y57800000D03*
X5200000Y81700000D03*
X65350000Y7200000D03*
X43366241Y34898540D03*
X21740000Y65430000D03*
X50254992Y38855008D03*
X75775500Y43700000D03*
X83300000Y29800000D03*
X8500000Y47300000D03*
X68000000Y37700000D03*
X81600000Y25300000D03*
X30600000Y36400000D03*
X38674500Y42600000D03*
X58700000Y56350000D03*
X6500000Y53100000D03*
X58600000Y46400000D03*
X15975980Y30075517D03*
X70750000Y69800000D03*
X46000000Y63400000D03*
X61000000Y61700000D03*
X67550000Y47900000D03*
X67687701Y33787701D03*
X28920000Y56990000D03*
X7200000Y72700000D03*
X76475000Y3800000D03*
X12950000Y65100000D03*
X59050000Y55300000D03*
X47900000Y74400000D03*
X51390000Y49199989D03*
X54600000Y8900000D03*
X29775500Y35249989D03*
X21350000Y7400000D03*
X40000000Y66900000D03*
X4100000Y65000000D03*
X16074000Y63300000D03*
X53900000Y29900000D03*
X17600000Y57000000D03*
X4100000Y68700000D03*
X24200000Y39275500D03*
X48550000Y8900000D03*
X38800000Y46400000D03*
X56250000Y57150000D03*
X29250000Y37550000D03*
X44800000Y8700000D03*
X34400000Y50350000D03*
X11300000Y36800000D03*
X48700000Y19826944D03*
X33723056Y60676944D03*
X44710000Y51560000D03*
X46650000Y73900000D03*
X38150000Y91850000D03*
X44200000Y54100000D03*
X17250000Y12500000D03*
X47100000Y24800000D03*
X66100000Y10100000D03*
X69600000Y54649500D03*
X45449500Y38925500D03*
X25000000Y48000000D03*
X41300000Y62950000D03*
X6500000Y20500000D03*
X10400000Y33050000D03*
X25800000Y67470000D03*
X33675500Y46000000D03*
X53400000Y56350000D03*
X73200000Y75000000D03*
X28900000Y70499500D03*
X6900000Y16000000D03*
X9300000Y32950000D03*
X8300000Y32700000D03*
X21700000Y18900000D03*
X62387701Y55712299D03*
X81324500Y50800000D03*
X53100000Y35700000D03*
X38000000Y89500000D03*
X80124500Y75800000D03*
X25800000Y62800000D03*
X55571636Y6503924D03*
X66500000Y71500000D03*
X39100000Y76600000D03*
X49250000Y24174500D03*
X35850000Y45750000D03*
X19500000Y50400000D03*
X64600000Y31100000D03*
X30250000Y37500000D03*
X64100000Y64200000D03*
X67100000Y56000000D03*
X23800000Y50600000D03*
X72500000Y33438030D03*
X49700000Y35800000D03*
X37600008Y72300000D03*
X80550000Y57000000D03*
X69600000Y77200000D03*
X44230000Y48000000D03*
X38400000Y16150000D03*
X24600000Y22600000D03*
X5540500Y26100000D03*
X31700000Y7400000D03*
X8300000Y42500000D03*
X40000000Y65589500D03*
X65500000Y44950000D03*
X18675500Y69800000D03*
X51500000Y37400000D03*
X15300000Y6800000D03*
X37300000Y59500000D03*
X86600000Y13600000D03*
X22150000Y66575000D03*
X63800000Y26000000D03*
X78100000Y45400000D03*
X15750000Y51550000D03*
X20700000Y27600000D03*
X60700000Y42800000D03*
X74800000Y15100000D03*
X27500000Y20000000D03*
X20150000Y32700000D03*
X19300000Y33750000D03*
X23400000Y71200000D03*
X1800000Y82700000D03*
X25875431Y53399971D03*
X45000000Y47200000D03*
X16100000Y61500000D03*
X67400000Y59500000D03*
X31600000Y14700000D03*
X7000000Y35400000D03*
X85100000Y13600000D03*
X52950000Y73250000D03*
X43373809Y36404080D03*
X53600000Y69025500D03*
X72200000Y7350000D03*
X75550000Y63250000D03*
X74600000Y49400000D03*
X16500000Y47000000D03*
X40500000Y70200000D03*
X39150000Y15450000D03*
X24700000Y32224500D03*
X22375500Y67800000D03*
X56503904Y52400000D03*
X11190000Y67560000D03*
X42000000Y69200000D03*
X8000000Y36600000D03*
X51450000Y55350000D03*
X52600000Y66300000D03*
X46350000Y28324500D03*
X66750000Y49350000D03*
X74550000Y62250000D03*
X16100000Y59900000D03*
X13100000Y18300000D03*
X73050000Y40200000D03*
X63050000Y47675500D03*
X36702141Y36857492D03*
X54900000Y67000000D03*
X73303571Y37000000D03*
X74850000Y46350000D03*
X44700000Y73700000D03*
X68200000Y43600000D03*
X64900000Y61000000D03*
X33700000Y71249511D03*
X60598056Y29001944D03*
%TO.N,/ADCS_VDD*%
X11900000Y41300000D03*
X64500000Y56100000D03*
X7300000Y77900000D03*
X44710000Y49800000D03*
X67100000Y69800000D03*
X60400000Y66500000D03*
X52000000Y56550000D03*
X69150000Y56300000D03*
X58300000Y22600000D03*
X68900000Y69600000D03*
X75775500Y44900000D03*
X44600000Y41200000D03*
X70950000Y56200000D03*
X4200000Y63400000D03*
X73300000Y52300000D03*
X36550000Y58600000D03*
X76300000Y48400000D03*
X74350000Y41100000D03*
X74500000Y38700000D03*
X31100000Y48200000D03*
X75350000Y36950000D03*
X23800000Y73700000D03*
X70000000Y29300000D03*
X65500000Y59200000D03*
X57100000Y59200000D03*
X55600000Y58250000D03*
X7240000Y70070000D03*
X77400000Y63000000D03*
X53800000Y58300000D03*
X24600000Y53300000D03*
X46600000Y26800000D03*
X61800000Y68974500D03*
X61600000Y71300000D03*
X56300000Y30200000D03*
X71500000Y10000000D03*
X63300000Y70000000D03*
X36400000Y76700000D03*
X12862299Y58862299D03*
X72800000Y48600000D03*
%TO.N,/OBC module/3V3_LCLPROT_MRAM*%
X67600000Y26000000D03*
X67600000Y28900000D03*
X62950000Y33800000D03*
%TO.N,/ADCS module/Microcontroller/MCU_VDDCORE*%
X62900000Y28300000D03*
X71200000Y33500000D03*
X45803305Y51672096D03*
X46280000Y46754500D03*
X53650000Y26975500D03*
X57700000Y55300000D03*
X72500000Y46500000D03*
X43300000Y31300000D03*
%TO.N,/OBC module/3V3_PROT*%
X57750000Y57250000D03*
X47600000Y15400000D03*
X72300000Y43000000D03*
X20700000Y26400000D03*
X17600000Y58900000D03*
X67300000Y10000000D03*
X49600000Y34500000D03*
X63100000Y42100000D03*
X9800000Y17600000D03*
X61100000Y10000000D03*
X23336186Y40776577D03*
X12950000Y63750000D03*
X19700000Y30700000D03*
X68496928Y64136036D03*
X20199500Y59600000D03*
X63300000Y39300000D03*
X51400000Y46200000D03*
X28800000Y62000000D03*
X56600000Y42450000D03*
X38350000Y69100000D03*
X60800000Y77600000D03*
X7000000Y39300000D03*
X24400000Y15000000D03*
X46800000Y49599500D03*
X18250000Y60800000D03*
X14200000Y11300000D03*
X67200000Y46050000D03*
X54400000Y61500000D03*
X20000000Y22700000D03*
X73600000Y54100000D03*
X18700000Y35500000D03*
X21537701Y61937701D03*
X20550000Y35430000D03*
X51650000Y74100000D03*
X45000000Y76000000D03*
X22300000Y64225000D03*
X45100000Y64200000D03*
X7100000Y18000000D03*
X74222701Y59300000D03*
X49200000Y22500000D03*
X39800000Y42449000D03*
X43000000Y76500000D03*
X32500000Y71800000D03*
X60100000Y52400000D03*
X67150000Y50450000D03*
X62050000Y76150000D03*
X63350000Y35650000D03*
X30900000Y59600000D03*
X50300000Y24850000D03*
X61800000Y79150000D03*
X37200000Y15900000D03*
%TO.N,/OBC module/MCU_VDDCORE*%
X36000000Y42000000D03*
X51600000Y35600000D03*
X39250000Y14050000D03*
X32800000Y13700000D03*
X20700000Y20300000D03*
X50500000Y19900000D03*
X21350000Y32700000D03*
%TO.N,ADM_PD*%
X76600000Y60100000D03*
X29400000Y56000000D03*
%TO.N,/ADCS module/MAG_FUSE*%
X11900000Y35800000D03*
X9500000Y28900000D03*
%TO.N,/EPS_3V3_OBC*%
X4100000Y69900000D03*
%TO.N,/EPS_3V3_ADCS*%
X4000000Y66800000D03*
%TO.N,/EPS_3V3_RW*%
X86700000Y56500000D03*
%TO.N,/OBC module/MEM_NAND_ENABLE_1*%
X25187701Y44687701D03*
X19000000Y54000000D03*
%TO.N,/OBC module/MEM_NAND_ENABLE_2*%
X16500000Y53650000D03*
X20450000Y43100000D03*
%TO.N,/OBC module/MEM_NAND_WR_PROTECT*%
X17200000Y45400000D03*
X26450000Y37400000D03*
%TO.N,/OBC module/MEM_D0*%
X38900000Y24150000D03*
X37700000Y28900000D03*
X63500000Y17500000D03*
%TO.N,/OBC module/MEM_D1*%
X65500000Y16600000D03*
X35900000Y28800000D03*
%TO.N,/OBC module/MEM_D2*%
X34100000Y28800000D03*
X67200000Y15850000D03*
%TO.N,/OBC module/MEM_D3*%
X32500000Y29500000D03*
X68300000Y14400000D03*
%TO.N,/OBC module/MEM_D4*%
X58600000Y30000000D03*
X38700000Y36700000D03*
%TO.N,/OBC module/MEM_D5*%
X37550000Y48700000D03*
X31375500Y33550000D03*
X31400000Y46400000D03*
X67500000Y22300000D03*
%TO.N,/OBC module/MEM_D6*%
X34250000Y48800000D03*
X37500000Y50750000D03*
X65831600Y22356199D03*
X32700000Y35800000D03*
%TO.N,/OBC module/MEM_D7*%
X64100000Y22500000D03*
X33009668Y33940332D03*
%TO.N,/OBC module/LCL_MRAM_SET*%
X61900000Y40500000D03*
X57100000Y26250000D03*
%TO.N,/OBC module/LCL_MRAM_RST*%
X63300000Y37500000D03*
X56950000Y24250000D03*
%TO.N,/OBC module/LCL_CAN_1_SET*%
X47004429Y60955706D03*
X43800000Y71400000D03*
%TO.N,/OBC module/LCL_CAN_1_RST*%
X43250000Y59925000D03*
X43700000Y65900000D03*
%TO.N,/OBC module/LCL_CAN1_OP-AMP_OUT*%
X58000000Y65800000D03*
X72550000Y57650000D03*
%TO.N,/I2C_MTQ_SDA*%
X78274500Y42500000D03*
X65400000Y43800000D03*
X37950000Y41724500D03*
%TO.N,/I2C_MTQ_SCK*%
X53900000Y40275500D03*
X24970104Y38375431D03*
X80800000Y54100000D03*
%TO.N,/OBC module/Connectors/SU_SWCLK*%
X80300000Y69350000D03*
X81549312Y38950688D03*
%TO.N,/OBC module/Connectors/SU_SWDIO*%
X81600000Y35100000D03*
X78450000Y66550000D03*
%TO.N,/ADCS_SWDIO*%
X10900000Y52800000D03*
X78729735Y46347576D03*
X14100000Y3400000D03*
%TO.N,/OBC_UART_TX*%
X3800000Y58700000D03*
X26850000Y35650000D03*
%TO.N,/OBC_UART_RX*%
X18400000Y39500000D03*
X4786638Y57093772D03*
%TO.N,/ADCS_UART_TX*%
X16600000Y67400000D03*
%TO.N,/ADCS_UART_RX*%
X16000000Y69300000D03*
%TO.N,/ADCS_SWCLK*%
X12200000Y50700000D03*
X74900000Y42950000D03*
X42200000Y4900000D03*
%TO.N,/ADCS_RESET*%
X5050000Y61750000D03*
X56800000Y40000000D03*
%TO.N,/EPS_5V_PANELS*%
X6510000Y21630000D03*
X71000000Y7300000D03*
X81600000Y24110000D03*
X54260000Y6670000D03*
%TO.N,/OBC module/MCU_SWCLK*%
X26700000Y30450000D03*
X10675000Y40000000D03*
%TO.N,/OBC module/MCU_SWDIO*%
X24900000Y35200000D03*
X13700000Y41200000D03*
%TO.N,/OBC module/ADM_DEPLOY_1*%
X75200000Y51100000D03*
X39450000Y38750000D03*
%TO.N,/OBC module/ADM_DEPLOY_2*%
X53900000Y44800000D03*
X75200000Y53000000D03*
%TO.N,/OBC module/ADM_DEPLOY_3*%
X56100000Y35200000D03*
X58300000Y38700000D03*
X41100000Y34200000D03*
X78100000Y49800000D03*
%TO.N,/OBC module/ADM_ENABLE_1*%
X42200000Y44800000D03*
X75350000Y57650000D03*
%TO.N,/OBC module/ADM_ENABLE_2*%
X75300000Y55850000D03*
X35800000Y38600000D03*
%TO.N,/OBC module/I2C_SDA_PANELS*%
X67600000Y6350000D03*
X5440000Y19060000D03*
X5440000Y24880000D03*
X79750000Y20740000D03*
X50900000Y7800000D03*
X25200000Y29400000D03*
%TO.N,/OBC module/I2C_SCK_PANELS*%
X8850000Y39750000D03*
X82700000Y21900000D03*
X52100000Y6050000D03*
X4410000Y23520000D03*
X68800000Y4850000D03*
X19700000Y38200000D03*
%TO.N,/OBC module/MCU_TRACECLK*%
X27200000Y17200000D03*
X23500000Y7100000D03*
%TO.N,/OBC module/MCU_TRACED_3*%
X26000000Y21500000D03*
X25126944Y8773056D03*
%TO.N,/OBC module/MCU_TRACED_2*%
X27200000Y8900000D03*
X27700000Y22500000D03*
%TO.N,/OBC module/MCU_TRACED_1*%
X29300000Y8800000D03*
X30500000Y21600000D03*
%TO.N,/OBC module/MCU_TRACED_0*%
X32200000Y20700000D03*
X31400000Y8800000D03*
%TO.N,/OBC module/MEM_MRAM_ENABLE*%
X62800000Y9400000D03*
X31900000Y22700000D03*
%TO.N,/OBC module/MEM_MRAM_WR_ENABLE*%
X33600000Y22800000D03*
X68700000Y10000000D03*
%TO.N,/ADCS module/Magnetometer/XINP*%
X7100000Y29400000D03*
X13400000Y21100000D03*
%TO.N,/ADCS module/Magnetometer/YINP*%
X18400000Y24600000D03*
X11700000Y26200000D03*
%TO.N,/ADCS module/Magnetometer/YINN*%
X16800000Y23000000D03*
X9700000Y26000000D03*
%TO.N,/ADCS module/I2C_SDA_SENS*%
X70250000Y63900000D03*
X74500000Y60950000D03*
X55150000Y52400000D03*
%TO.N,/ADCS module/MAG_CS*%
X15900000Y31600000D03*
X51100000Y22550000D03*
%TO.N,/ADCS module/GYR_MISO*%
X32200000Y69450000D03*
X49350000Y63250000D03*
X43700000Y68000000D03*
X30400000Y70900000D03*
X25450000Y59010000D03*
X41800000Y72600000D03*
%TO.N,/ADCS module/GYR_CS3*%
X57600000Y47300000D03*
X37500000Y55400000D03*
X40600000Y52300000D03*
X34400000Y58900000D03*
%TO.N,/ADCS module/GYR_CS2*%
X56700000Y67500000D03*
X58800000Y60900000D03*
%TO.N,/ADCS module/GYR_CS1*%
X60300000Y55600000D03*
X40100000Y56500000D03*
%TO.N,/OBC module/I2C_SDA_SENS*%
X17950000Y17400000D03*
X22550000Y15050000D03*
X17900000Y13950000D03*
%TO.N,/OBC module/LCL_PWM_CAN1*%
X44900000Y60900000D03*
X47200000Y63500000D03*
%TO.N,/OBC module/LCL_PWM_MRAM*%
X55150000Y25850000D03*
X60087299Y34087299D03*
%TO.N,/OBC module/LCL_PWM_NAND*%
X57700000Y34100000D03*
X55600000Y28600000D03*
%TO.N,/ADCS module/MAG_DRDY*%
X9700000Y34600000D03*
X36900000Y26600000D03*
%TO.N,/ADCS module/GYR_MOSI*%
X27400000Y59100000D03*
X54900000Y77800000D03*
X33200000Y61900000D03*
X53150000Y62850000D03*
X54800000Y68400000D03*
X48800000Y59900000D03*
X62950000Y52400000D03*
%TO.N,/ADCS module/GYR_SPCK*%
X29150000Y72350000D03*
X40400000Y74600000D03*
X51300000Y63400000D03*
X25400000Y60800000D03*
%TO.N,/ADCS module/MAG_SPCK*%
X28634668Y29565332D03*
X13386732Y34315109D03*
X54650000Y33850000D03*
%TO.N,/ADCS module/MAG_MOSI*%
X15800000Y34900000D03*
X53400000Y37400000D03*
X31400000Y31100000D03*
%TO.N,/ADCS module/MAG_MISO*%
X4252345Y38500000D03*
X14500000Y36100000D03*
X52600000Y39000000D03*
%TO.N,/OBC module/MEM_A20*%
X32550000Y37550000D03*
X28900000Y11400000D03*
%TO.N,/OBC module/MEM_A5*%
X35450000Y17050000D03*
X69200000Y16600000D03*
%TO.N,/OBC module/MEM_A6*%
X35400000Y20000000D03*
X70400000Y15200000D03*
%TO.N,/OBC module/MEM_A7*%
X34900000Y21700000D03*
X71500000Y14350000D03*
%TO.N,/OBC module/MEM_A8*%
X40750000Y24500000D03*
X71100000Y17700000D03*
%TO.N,/OBC module/MEM_A9*%
X73100000Y18600000D03*
X42550000Y24600000D03*
%TO.N,/OBC module/MEM_A10*%
X71200000Y26000000D03*
X34100000Y32500000D03*
%TO.N,/OBC module/MEM_A11*%
X72300000Y22500000D03*
X39887877Y27669050D03*
%TO.N,/OBC module/MEM_A12*%
X39200000Y26050000D03*
X70800000Y21000000D03*
%TO.N,/OBC module/MEM_A13*%
X68800000Y19900000D03*
X41400000Y26150000D03*
%TO.N,/OBC module/MEM_MRAM_OUT_ENABLE*%
X63600000Y14400000D03*
X29800000Y27650000D03*
%TO.N,/OBC module/MEM_A17*%
X53040000Y13980000D03*
X30350000Y23550000D03*
%TO.N,/OBC module/MEM_A18*%
X29900000Y25200000D03*
X51250000Y13700000D03*
%TO.N,/OBC module/MEM_A19*%
X52720273Y28469773D03*
X36600000Y34800000D03*
%TO.N,/ADCS module/CAN_TX_1*%
X49700000Y48600000D03*
X29150000Y76250000D03*
%TO.N,/ADCS module/CAN_RX_1*%
X50172201Y50544249D03*
X32500000Y73900000D03*
%TO.N,/ADCS module/CAN_TX_2*%
X67900000Y40600000D03*
X11300000Y77175500D03*
%TO.N,/ADCS module/CAN_RX_2*%
X6875394Y74124606D03*
X50200000Y42350000D03*
%TO.N,/ADCS module/CAN_FAULT_2*%
X33600000Y55900000D03*
X49800011Y52350000D03*
%TO.N,/ADCS module/CAN_SILENT_2*%
X53000000Y42200000D03*
X11370000Y79060000D03*
%TO.N,/OBC module/CAN_RX_2*%
X29000000Y32800000D03*
X12910498Y74524500D03*
%TO.N,/OBC module/CAN_FAULT_2*%
X20100000Y40850000D03*
X9700000Y79600000D03*
%TO.N,/OBC module/CAN_TX_1*%
X17400000Y72400000D03*
X39420000Y32380000D03*
%TO.N,/OBC module/CAN_RX_1*%
X42300000Y35700000D03*
X22400000Y74900000D03*
%TO.N,/OBC module/CAN_SILENT_1*%
X17900000Y78900000D03*
X19400000Y67800000D03*
%TO.N,/OBC module/CAN_FAULT_1*%
X22400000Y79200000D03*
X20400000Y66000000D03*
%TO.N,/OBC module/CAN_TX_2*%
X9000000Y77400000D03*
X26900000Y28700000D03*
%TO.N,/OBC module/CAN_SILENT_2*%
X7300000Y82600000D03*
X21200000Y39350000D03*
%TO.N,CAN1-*%
X73875055Y68797621D03*
X83405280Y41811091D03*
X13450000Y71304998D03*
X80849000Y63900000D03*
X27700000Y79750500D03*
%TO.N,CAN1+*%
X27700000Y78650500D03*
X80849000Y62800000D03*
X74652873Y68019803D03*
X14550000Y71304998D03*
X82627462Y42588909D03*
%TO.N,CAN2-*%
X2950000Y79900000D03*
X80325998Y71600000D03*
X10211091Y83658909D03*
X83337163Y32450000D03*
%TO.N,CAN2+*%
X1850000Y79900000D03*
X10988909Y82881091D03*
X83337163Y31350000D03*
X80325998Y72700000D03*
%TO.N,/OBC module/NRST_OBC*%
X25800000Y32800000D03*
X17100000Y62200000D03*
X12800000Y62000000D03*
X14800000Y38400000D03*
%TO.N,AC_GND_1*%
X4600000Y87400000D03*
X3200000Y87400000D03*
X6000000Y87400000D03*
%TO.N,AC_GND_2*%
X85200000Y9100000D03*
X81275000Y5200000D03*
X86500000Y9100000D03*
X81275000Y3900000D03*
%TD*%
D16*
%TO.N,/I2C_MTQ_SDA*%
X78400000Y87100000D02*
X66600000Y87100000D01*
X82200000Y46750000D02*
X82200000Y83300000D01*
X66100000Y86600000D02*
X66100000Y84561000D01*
X66600000Y87100000D02*
X66100000Y86600000D01*
X82200000Y83300000D02*
X78400000Y87100000D01*
X78274500Y42500000D02*
X78274500Y42824500D01*
X66100000Y84561000D02*
X64848000Y83309000D01*
X78274500Y42824500D02*
X82200000Y46750000D01*
%TO.N,/I2C_MTQ_SCK*%
X53875500Y40300000D02*
X50430000Y40300000D01*
X34174569Y38375431D02*
X24970104Y38375431D01*
X50430000Y40300000D02*
X47730000Y37600000D01*
X79400000Y83200000D02*
X79400000Y55500000D01*
X78050000Y84550000D02*
X79400000Y83200000D01*
X68629000Y84550000D02*
X78050000Y84550000D01*
X79400000Y55500000D02*
X80800000Y54100000D01*
X47730000Y37600000D02*
X34950000Y37600000D01*
X34950000Y37600000D02*
X34174569Y38375431D01*
X53900000Y40275500D02*
X53875500Y40300000D01*
X67388000Y83309000D02*
X68629000Y84550000D01*
%TO.N,/ADCS_RESET*%
X56800000Y40000000D02*
X55600000Y41200000D01*
X5710000Y47090000D02*
X5710000Y61140000D01*
X13790000Y42560000D02*
X10240000Y42560000D01*
X5710000Y61140000D02*
X5100000Y61750000D01*
X48410000Y39700000D02*
X32000000Y39700000D01*
X20920000Y37340000D02*
X19010000Y37340000D01*
X10240000Y42560000D02*
X5710000Y47090000D01*
X49910000Y41200000D02*
X48410000Y39700000D01*
X5100000Y61750000D02*
X5050000Y61750000D01*
X23800000Y40220000D02*
X20920000Y37340000D01*
X31480000Y40220000D02*
X23800000Y40220000D01*
X32000000Y39700000D02*
X31480000Y40220000D01*
X55600000Y41200000D02*
X49910000Y41200000D01*
X19010000Y37340000D02*
X13790000Y42560000D01*
%TO.N,/ADCS module/Magnetometer/XINP*%
X10400000Y21100000D02*
X7100000Y24400000D01*
X13400000Y21100000D02*
X10400000Y21100000D01*
X7100000Y24400000D02*
X7100000Y29400000D01*
%TO.N,/ADCS module/Magnetometer/YINP*%
X18400000Y24600000D02*
X18200000Y24400000D01*
X18200000Y24400000D02*
X13500000Y24400000D01*
X13500000Y24400000D02*
X11700000Y26200000D01*
%TO.N,/ADCS module/Magnetometer/YINN*%
X9700000Y26000000D02*
X9700000Y23800000D01*
X10500000Y23000000D02*
X16800000Y23000000D01*
X9700000Y23800000D02*
X10500000Y23000000D01*
%TO.N,/ADCS module/I2C_SDA_SENS*%
X70250000Y63900000D02*
X71800000Y63900000D01*
X71800000Y63900000D02*
X74500000Y61200000D01*
X65800000Y56100000D02*
X65800000Y52700000D01*
X64000000Y50900000D02*
X56650000Y50900000D01*
X70000000Y63650000D02*
X70000000Y60300000D01*
X70250000Y63900000D02*
X70000000Y63650000D01*
X74500000Y61200000D02*
X74500000Y60950000D01*
X70000000Y60300000D02*
X65800000Y56100000D01*
X56650000Y50900000D02*
X55150000Y52400000D01*
X65800000Y52700000D02*
X64000000Y50900000D01*
%TO.N,/ADCS module/MAG_CS*%
X19000000Y28500000D02*
X15900000Y31600000D01*
X36500000Y24400000D02*
X25100000Y24400000D01*
X21000000Y28500000D02*
X19000000Y28500000D01*
X51100000Y22550000D02*
X50100000Y21550000D01*
X25100000Y24400000D02*
X21000000Y28500000D01*
X50100000Y21550000D02*
X39350000Y21550000D01*
X39350000Y21550000D02*
X36500000Y24400000D01*
%TO.N,/ADCS module/GYR_MISO*%
X32200000Y69500000D02*
X32900000Y70200000D01*
X27800000Y64000000D02*
X29600000Y65800000D01*
X49350000Y64850000D02*
X49350000Y63250000D01*
X29600000Y65800000D02*
X29600000Y70100000D01*
X41300000Y68000000D02*
X43700000Y68000000D01*
X25610000Y59010000D02*
X27800000Y61200000D01*
X32200000Y69450000D02*
X32200000Y69500000D01*
X41800000Y72600000D02*
X41800000Y71300000D01*
X29600000Y70100000D02*
X30400000Y70900000D01*
X41800000Y71300000D02*
X43700000Y69400000D01*
X25450000Y59010000D02*
X25610000Y59010000D01*
X27800000Y61200000D02*
X27800000Y64000000D01*
X43700000Y68000000D02*
X46200000Y68000000D01*
X39100000Y70200000D02*
X41300000Y68000000D01*
X46200000Y68000000D02*
X49350000Y64850000D01*
X32900000Y70200000D02*
X39100000Y70200000D01*
X43700000Y69400000D02*
X43700000Y68000000D01*
%TO.N,/ADCS module/GYR_CS3*%
X45730000Y53170000D02*
X48230000Y50670000D01*
X57280000Y47700000D02*
X57600000Y47380000D01*
X48230000Y50670000D02*
X48230000Y48620000D01*
X37500000Y55400000D02*
X34400000Y58500000D01*
X40600000Y52300000D02*
X41470000Y53170000D01*
X48230000Y48620000D02*
X49150000Y47700000D01*
X49150000Y47700000D02*
X57280000Y47700000D01*
X34400000Y58500000D02*
X34400000Y58900000D01*
X57600000Y47380000D02*
X57600000Y47300000D01*
X41470000Y53170000D02*
X45730000Y53170000D01*
%TO.N,/ADCS module/GYR_CS2*%
X56700000Y67500000D02*
X56700000Y63000000D01*
X56700000Y63000000D02*
X58800000Y60900000D01*
%TO.N,/ADCS module/GYR_CS1*%
X54900000Y53900000D02*
X59300000Y53900000D01*
X49819249Y49500000D02*
X50500000Y49500000D01*
X49320000Y49999249D02*
X49819249Y49500000D01*
X50500000Y49500000D02*
X54900000Y53900000D01*
X44300000Y56500000D02*
X49320000Y51480000D01*
X49320000Y51480000D02*
X49320000Y49999249D01*
X40100000Y56500000D02*
X44300000Y56500000D01*
X60300000Y54900000D02*
X60300000Y55600000D01*
X59300000Y53900000D02*
X60300000Y54900000D01*
%TO.N,/ADCS module/MAG_DRDY*%
X10404866Y34600000D02*
X11504866Y33500000D01*
X22950000Y29350000D02*
X25700000Y26600000D01*
X16100000Y33500000D02*
X17100000Y32500000D01*
X25700000Y26600000D02*
X36900000Y26600000D01*
X11504866Y33500000D02*
X16100000Y33500000D01*
X19550000Y29350000D02*
X22950000Y29350000D01*
X17100000Y32500000D02*
X17100000Y31800000D01*
X17100000Y31800000D02*
X19550000Y29350000D01*
X9700000Y34600000D02*
X10404866Y34600000D01*
%TO.N,/ADCS module/GYR_MOSI*%
X54750000Y62850000D02*
X61500000Y56100000D01*
X44725500Y59774500D02*
X42600000Y61900000D01*
X30800000Y61900000D02*
X33200000Y61900000D01*
X53150000Y64150000D02*
X53800000Y64800000D01*
X48800000Y59900000D02*
X48674500Y59774500D01*
X42600000Y61900000D02*
X33200000Y61900000D01*
X53800000Y64800000D02*
X53800000Y67400000D01*
X53800000Y67400000D02*
X54800000Y68400000D01*
X61500000Y53850000D02*
X62950000Y52400000D01*
X54900000Y77800000D02*
X55300000Y77400000D01*
X28000000Y59100000D02*
X30800000Y61900000D01*
X48674500Y59774500D02*
X44725500Y59774500D01*
X53150000Y62850000D02*
X54750000Y62850000D01*
X53150000Y62850000D02*
X53150000Y64150000D01*
X55300000Y68900000D02*
X54800000Y68400000D01*
X61500000Y56100000D02*
X61500000Y53850000D01*
X55300000Y77400000D02*
X55300000Y68900000D01*
X27400000Y59100000D02*
X28000000Y59100000D01*
%TO.N,/ADCS module/GYR_SPCK*%
X51300000Y65200000D02*
X41900000Y74600000D01*
X26600000Y69800000D02*
X29150000Y72350000D01*
X41900000Y74600000D02*
X40400000Y74600000D01*
X26600000Y62000000D02*
X26600000Y69800000D01*
X51300000Y63400000D02*
X51300000Y65200000D01*
X25400000Y60800000D02*
X26600000Y62000000D01*
%TO.N,/ADCS module/MAG_SPCK*%
X28634668Y29565332D02*
X29369336Y30300000D01*
X21100000Y30600000D02*
X17730000Y33970000D01*
X28634668Y29565332D02*
X26334668Y29565332D01*
X26334668Y29565332D02*
X25300000Y30600000D01*
X46400000Y32100000D02*
X52900000Y32100000D01*
X44600000Y30300000D02*
X46400000Y32100000D01*
X17730000Y33970000D02*
X13731841Y33970000D01*
X25300000Y30600000D02*
X21100000Y30600000D01*
X52900000Y32100000D02*
X54650000Y33850000D01*
X29369336Y30300000D02*
X44600000Y30300000D01*
X13731841Y33970000D02*
X13386732Y34315109D01*
%TO.N,/ADCS module/MAG_MOSI*%
X17700000Y34900000D02*
X18100000Y34500000D01*
X20800000Y34500000D02*
X23900000Y31400000D01*
X23900000Y31400000D02*
X31100000Y31400000D01*
X52575489Y36575489D02*
X53400000Y37400000D01*
X45010000Y32310000D02*
X49275489Y36575489D01*
X49275489Y36575489D02*
X52575489Y36575489D01*
X31100000Y31400000D02*
X31400000Y31100000D01*
X15800000Y34900000D02*
X17700000Y34900000D01*
X41410000Y32310000D02*
X45010000Y32310000D01*
X18100000Y34500000D02*
X20800000Y34500000D01*
X31400000Y31100000D02*
X40200000Y31100000D01*
X40200000Y31100000D02*
X41410000Y32310000D01*
%TO.N,/ADCS module/MAG_MISO*%
X21300000Y36600000D02*
X15000000Y36600000D01*
X34300000Y34800000D02*
X31000000Y34800000D01*
X31000000Y34800000D02*
X29960000Y33760000D01*
X24140000Y33760000D02*
X21300000Y36600000D01*
D17*
X4252345Y38500000D02*
X6500000Y38500000D01*
D16*
X35800000Y33300000D02*
X34300000Y34800000D01*
X51730497Y38130497D02*
X49730497Y38130497D01*
X29960000Y33760000D02*
X24140000Y33760000D01*
D17*
X12900000Y37700000D02*
X14500000Y36100000D01*
X6500000Y38500000D02*
X7300000Y37700000D01*
D16*
X44900000Y33300000D02*
X35800000Y33300000D01*
X49730497Y38130497D02*
X44900000Y33300000D01*
D17*
X7300000Y37700000D02*
X12900000Y37700000D01*
D16*
X52600000Y39000000D02*
X51730497Y38130497D01*
X15000000Y36600000D02*
X14500000Y36100000D01*
%TO.N,/ADCS module/CAN_TX_1*%
X44900000Y54900000D02*
X42242859Y54900000D01*
X49700000Y48600000D02*
X48800000Y49500000D01*
X29129520Y54070480D02*
X24000000Y59200000D01*
X24000000Y70700000D02*
X29150000Y75850000D01*
X29150000Y75850000D02*
X29150000Y76250000D01*
X48800000Y49500000D02*
X48800000Y51000000D01*
X24000000Y59200000D02*
X24000000Y70700000D01*
X42242859Y54900000D02*
X41413339Y54070480D01*
X41413339Y54070480D02*
X29129520Y54070480D01*
X48800000Y51000000D02*
X44900000Y54900000D01*
%TO.N,/ADCS module/CAN_RX_1*%
X50650000Y51022048D02*
X50650000Y60350000D01*
X31300000Y68600000D02*
X31300000Y72400000D01*
X35400000Y64500000D02*
X31300000Y68600000D01*
X31300000Y72400000D02*
X32500000Y73600000D01*
X42800000Y64500000D02*
X35400000Y64500000D01*
X50172201Y50544249D02*
X50650000Y51022048D01*
X50650000Y60350000D02*
X48900000Y62100000D01*
X45200000Y62100000D02*
X42800000Y64500000D01*
X32500000Y73600000D02*
X32500000Y73900000D01*
X48900000Y62100000D02*
X45200000Y62100000D01*
%TO.N,/ADCS module/CAN_TX_2*%
X54230000Y45670000D02*
X61330000Y45670000D01*
X42600000Y51400000D02*
X43200000Y50800000D01*
X46900000Y50800000D02*
X47700000Y50000000D01*
X23300000Y58900000D02*
X28660000Y53540000D01*
X47700000Y48150000D02*
X48625000Y47225000D01*
X43200000Y50800000D02*
X46900000Y50800000D01*
X37960000Y53540000D02*
X40100000Y51400000D01*
X14524500Y77175500D02*
X23300000Y68400000D01*
X61330000Y45670000D02*
X66400000Y40600000D01*
X28660000Y53540000D02*
X37960000Y53540000D01*
X11300000Y77175500D02*
X14524500Y77175500D01*
X40100000Y51400000D02*
X42600000Y51400000D01*
X52675000Y47225000D02*
X54230000Y45670000D01*
X48625000Y47225000D02*
X52675000Y47225000D01*
X47700000Y50000000D02*
X47700000Y48150000D01*
X66400000Y40600000D02*
X67900000Y40600000D01*
X23300000Y68400000D02*
X23300000Y58900000D01*
%TO.N,/ADCS module/CAN_RX_2*%
X10200000Y63200000D02*
X10200000Y70800000D01*
X37050000Y52450000D02*
X27950000Y52450000D01*
X15675000Y57725000D02*
X10200000Y63200000D01*
X50200000Y43500000D02*
X49350000Y44350000D01*
X40850000Y50100000D02*
X39400000Y50100000D01*
X50200000Y42350000D02*
X50200000Y43500000D01*
X27950000Y52450000D02*
X22675000Y57725000D01*
X49350000Y44350000D02*
X46600000Y44350000D01*
X10200000Y70800000D02*
X6875394Y74124606D01*
X39400000Y50100000D02*
X37050000Y52450000D01*
X46600000Y44350000D02*
X40850000Y50100000D01*
X22675000Y57725000D02*
X15675000Y57725000D01*
%TO.N,/ADCS module/CAN_FAULT_2*%
X44650000Y57700000D02*
X39300000Y57700000D01*
X34980000Y54520000D02*
X33600000Y55900000D01*
X38680000Y55180000D02*
X38020000Y54520000D01*
X49800011Y52350000D02*
X49800011Y52549989D01*
X49800011Y52549989D02*
X44650000Y57700000D01*
X38020000Y54520000D02*
X34980000Y54520000D01*
X38680000Y57080000D02*
X38680000Y55180000D01*
X39300000Y57700000D02*
X38680000Y57080000D01*
%TO.N,/ADCS module/CAN_SILENT_2*%
X39700000Y50750000D02*
X41390000Y50750000D01*
X49900000Y46300000D02*
X53000000Y43200000D01*
X53000000Y43200000D02*
X53000000Y42200000D01*
X43340000Y48800000D02*
X45894283Y48800000D01*
X37470000Y52980000D02*
X39700000Y50750000D01*
X22650480Y58549520D02*
X28220000Y52980000D01*
X45894283Y48800000D02*
X48394283Y46300000D01*
X10300000Y71900000D02*
X22650480Y59549520D01*
X11370000Y79060000D02*
X11370000Y78770000D01*
X22650480Y59549520D02*
X22650480Y58549520D01*
X28220000Y52980000D02*
X37470000Y52980000D01*
X10300000Y77700000D02*
X10300000Y71900000D01*
X41390000Y50750000D02*
X43340000Y48800000D01*
X11370000Y78770000D02*
X10300000Y77700000D01*
X48394283Y46300000D02*
X49900000Y46300000D01*
D18*
%TO.N,CAN2-*%
X12823530Y87331729D02*
X12929595Y87437795D01*
X10880901Y84293364D02*
X10765525Y84408740D01*
X11729431Y84717629D02*
X11835496Y84823695D01*
X13880800Y88389000D02*
X14048000Y88389000D01*
X12823531Y87331728D02*
X12823530Y87331729D01*
X10211091Y83658909D02*
X10670710Y83658909D01*
X12283890Y87447104D02*
X12283890Y87447105D01*
X12929595Y87437795D02*
X13880800Y88389000D01*
X11975000Y86907464D02*
X11859624Y87022840D01*
X11975000Y84963199D02*
X11975000Y86483200D01*
X10670710Y83658909D02*
X10880901Y83869100D01*
X12283890Y87447105D02*
X12399267Y87331728D01*
X11835496Y84823695D02*
X11975000Y84963199D01*
X11189791Y84833004D02*
X11189791Y84833005D01*
X11729432Y84717628D02*
X11729431Y84717629D01*
X11189791Y84833005D02*
X11305168Y84717628D01*
X10765497Y84833032D02*
G75*
G03*
X10765525Y84408740I212203J-212132D01*
G01*
X10880869Y84293332D02*
G75*
G02*
X10880901Y83869100I-212069J-212132D01*
G01*
X11974968Y86907432D02*
G75*
G02*
X11975000Y86483200I-212068J-212132D01*
G01*
X12823530Y87331729D02*
G75*
G02*
X12399268Y87331729I-212131J212131D01*
G01*
X11729431Y84717629D02*
G75*
G02*
X11305169Y84717629I-212131J212131D01*
G01*
X11189790Y84833003D02*
G75*
G03*
X10765526Y84833003I-212132J-212130D01*
G01*
X11859597Y87447131D02*
G75*
G03*
X11859625Y87022841I212203J-212131D01*
G01*
X12283889Y87447103D02*
G75*
G03*
X11859625Y87447103I-212132J-212130D01*
G01*
%TO.N,CAN2+*%
X12425000Y86296800D02*
X13258200Y87130000D01*
X10988909Y83340710D02*
X12425000Y84776801D01*
X10988909Y82881091D02*
X10988909Y83340710D01*
X15329000Y87130000D02*
X16588000Y88389000D01*
X13258200Y87130000D02*
X15329000Y87130000D01*
X12425000Y84776801D02*
X12425000Y86296800D01*
%TD*%
%TA.AperFunction,Conductor*%
%TO.N,/EPS_5V_PANELS*%
G36*
X89168339Y95490593D02*
G01*
X89204303Y95441093D01*
X89209140Y95411653D01*
X89216320Y94792383D01*
X89301828Y87417309D01*
X89342751Y83887675D01*
X89324520Y83829269D01*
X89275440Y83792733D01*
X89266875Y83790264D01*
X89193586Y83772669D01*
X89136156Y83758881D01*
X89136153Y83758880D01*
X89132379Y83757974D01*
X89128789Y83756487D01*
X88954120Y83684137D01*
X88954114Y83684134D01*
X88950529Y83682649D01*
X88947218Y83680620D01*
X88947214Y83680618D01*
X88882941Y83641231D01*
X88782702Y83579804D01*
X88633029Y83451971D01*
X88505196Y83302298D01*
X88478526Y83258776D01*
X88429044Y83178029D01*
X88402351Y83134471D01*
X88400866Y83130886D01*
X88400863Y83130880D01*
X88347818Y83002817D01*
X88327026Y82952621D01*
X88326120Y82948847D01*
X88326119Y82948844D01*
X88292639Y82809391D01*
X88281076Y82761226D01*
X88280772Y82757361D01*
X88280771Y82757356D01*
X88268180Y82597369D01*
X88267307Y82589909D01*
X88264391Y82571177D01*
X88266814Y82552646D01*
X88268664Y82538500D01*
X88269500Y82525664D01*
X88269500Y13611649D01*
X88268321Y13596419D01*
X88264391Y13571177D01*
X88265305Y13564186D01*
X88265305Y13564184D01*
X88265959Y13559185D01*
X88266489Y13554118D01*
X88280285Y13378829D01*
X88281076Y13368774D01*
X88281982Y13365001D01*
X88281982Y13365000D01*
X88323190Y13193359D01*
X88327026Y13177379D01*
X88328513Y13173789D01*
X88400863Y12999120D01*
X88400866Y12999114D01*
X88402351Y12995529D01*
X88404380Y12992218D01*
X88404382Y12992214D01*
X88434912Y12942394D01*
X88505196Y12827702D01*
X88633029Y12678029D01*
X88782702Y12550196D01*
X88859374Y12503211D01*
X88947214Y12449382D01*
X88947218Y12449380D01*
X88950529Y12447351D01*
X88954114Y12445866D01*
X88954120Y12445863D01*
X89128789Y12373513D01*
X89132379Y12372026D01*
X89136153Y12371120D01*
X89136156Y12371119D01*
X89237189Y12346863D01*
X89323774Y12326076D01*
X89416836Y12318752D01*
X89479829Y12313794D01*
X89488484Y12312727D01*
X89503872Y12310138D01*
X89503884Y12310137D01*
X89507646Y12309504D01*
X89513562Y12309432D01*
X89513823Y12309391D01*
X89514085Y12309425D01*
X89520000Y12309353D01*
X89523780Y12309894D01*
X89527597Y12310143D01*
X89527630Y12309641D01*
X89551809Y12309462D01*
X89552258Y12309391D01*
X89581612Y12304742D01*
X89611072Y12295170D01*
X89652680Y12273969D01*
X89677738Y12255764D01*
X89710764Y12222738D01*
X89728969Y12197680D01*
X89748142Y12160053D01*
X89750170Y12156072D01*
X89759742Y12126612D01*
X89764301Y12097825D01*
X89765513Y12081130D01*
X89765477Y12078149D01*
X89764391Y12071177D01*
X89765306Y12064180D01*
X89765306Y12064179D01*
X89768664Y12038500D01*
X89769500Y12025664D01*
X89769500Y5648565D01*
X89750593Y5590374D01*
X89701093Y5554410D01*
X89670614Y5549565D01*
X89053248Y5548857D01*
X88341180Y5548040D01*
X88282967Y5566881D01*
X88246947Y5616339D01*
X88243452Y5630530D01*
X88242405Y5636724D01*
X88206216Y5850681D01*
X88198674Y5895274D01*
X88198674Y5895276D01*
X88198214Y5897993D01*
X88122559Y6161833D01*
X88103415Y6228598D01*
X88103414Y6228602D01*
X88102652Y6231258D01*
X87970537Y6551793D01*
X87803516Y6855603D01*
X87786557Y6879644D01*
X87605259Y7136651D01*
X87605255Y7136655D01*
X87603670Y7138903D01*
X87373490Y7398161D01*
X87371441Y7400006D01*
X87371437Y7400010D01*
X87244136Y7514631D01*
X87115846Y7630144D01*
X86983619Y7724809D01*
X86836203Y7830349D01*
X86836198Y7830352D01*
X86833948Y7831963D01*
X86762008Y7872169D01*
X86533733Y7999749D01*
X86533724Y7999753D01*
X86531311Y8001102D01*
X86211706Y8135451D01*
X85879117Y8233337D01*
X85584864Y8285222D01*
X85548750Y8291590D01*
X85494726Y8320315D01*
X85467904Y8375308D01*
X85478529Y8435564D01*
X85521459Y8477530D01*
X85585162Y8509569D01*
X85585165Y8509571D01*
X85590498Y8512253D01*
X85595035Y8516128D01*
X85595038Y8516130D01*
X85714888Y8618492D01*
X85714891Y8618495D01*
X85719423Y8622366D01*
X85766913Y8688455D01*
X85769382Y8691891D01*
X85818693Y8728113D01*
X85879877Y8728433D01*
X85931949Y8689337D01*
X85950355Y8661946D01*
X85965830Y8638917D01*
X86091233Y8524809D01*
X86240235Y8443908D01*
X86299680Y8428313D01*
X86398464Y8402397D01*
X86398468Y8402396D01*
X86404233Y8400884D01*
X86410194Y8400790D01*
X86410197Y8400790D01*
X86488996Y8399553D01*
X86573760Y8398221D01*
X86579575Y8399553D01*
X86579577Y8399553D01*
X86733206Y8434738D01*
X86733209Y8434739D01*
X86739029Y8436072D01*
X86754610Y8443908D01*
X86825662Y8479644D01*
X86890498Y8512253D01*
X86895035Y8516128D01*
X86895038Y8516130D01*
X87014888Y8618492D01*
X87014891Y8618495D01*
X87019423Y8622366D01*
X87022904Y8627210D01*
X87114877Y8755204D01*
X87114878Y8755206D01*
X87118361Y8760053D01*
X87121014Y8766651D01*
X87179377Y8911833D01*
X87179378Y8911835D01*
X87181601Y8917366D01*
X87183863Y8933261D01*
X87205034Y9082015D01*
X87205034Y9082021D01*
X87205490Y9085222D01*
X87205645Y9100000D01*
X87190286Y9226923D01*
X87185993Y9262398D01*
X87185992Y9262401D01*
X87185276Y9268320D01*
X87125345Y9426923D01*
X87113672Y9443908D01*
X87032692Y9561733D01*
X87029312Y9566651D01*
X86902721Y9679440D01*
X86883729Y9689496D01*
X86856709Y9703802D01*
X86752881Y9758776D01*
X86647509Y9785244D01*
X86594231Y9798627D01*
X86594228Y9798627D01*
X86588441Y9800081D01*
X86502841Y9800529D01*
X86424861Y9800938D01*
X86424859Y9800938D01*
X86418895Y9800969D01*
X86413099Y9799577D01*
X86413095Y9799577D01*
X86330072Y9779644D01*
X86254032Y9761388D01*
X86209368Y9738335D01*
X86108675Y9686364D01*
X86108673Y9686362D01*
X86103369Y9683625D01*
X86098572Y9679440D01*
X85983615Y9579157D01*
X85975604Y9572169D01*
X85931610Y9509571D01*
X85931070Y9508803D01*
X85882141Y9472066D01*
X85820963Y9471104D01*
X85768485Y9509654D01*
X85764032Y9516134D01*
X85729312Y9566651D01*
X85602721Y9679440D01*
X85583729Y9689496D01*
X85556709Y9703802D01*
X85452881Y9758776D01*
X85347509Y9785244D01*
X85294231Y9798627D01*
X85294228Y9798627D01*
X85288441Y9800081D01*
X85202841Y9800529D01*
X85124861Y9800938D01*
X85124859Y9800938D01*
X85118895Y9800969D01*
X85113099Y9799577D01*
X85113095Y9799577D01*
X85030072Y9779644D01*
X84954032Y9761388D01*
X84909368Y9738335D01*
X84808675Y9686364D01*
X84808673Y9686362D01*
X84803369Y9683625D01*
X84798572Y9679440D01*
X84683615Y9579157D01*
X84675604Y9572169D01*
X84672173Y9567287D01*
X84672172Y9567286D01*
X84581544Y9438335D01*
X84578113Y9433453D01*
X84563810Y9396769D01*
X84543201Y9343908D01*
X84516524Y9275487D01*
X84515745Y9269572D01*
X84515745Y9269571D01*
X84511814Y9239707D01*
X84494394Y9107389D01*
X84495049Y9101456D01*
X84495049Y9101452D01*
X84512344Y8944796D01*
X84512999Y8938865D01*
X84571266Y8779644D01*
X84574591Y8774695D01*
X84574592Y8774694D01*
X84585623Y8758278D01*
X84665830Y8638917D01*
X84791233Y8524809D01*
X84870063Y8482008D01*
X84912179Y8437627D01*
X84920165Y8376965D01*
X84890970Y8323194D01*
X84838651Y8297280D01*
X84503164Y8242943D01*
X84169241Y8149710D01*
X84068797Y8109128D01*
X83850352Y8020871D01*
X83850348Y8020869D01*
X83847791Y8019836D01*
X83845367Y8018525D01*
X83845362Y8018523D01*
X83545251Y7856254D01*
X83545242Y7856249D01*
X83542822Y7854940D01*
X83540560Y7853368D01*
X83540557Y7853366D01*
X83428482Y7775472D01*
X83258134Y7657077D01*
X82997276Y7428713D01*
X82995415Y7426675D01*
X82995414Y7426674D01*
X82957563Y7385222D01*
X82763499Y7172694D01*
X82559717Y6892213D01*
X82388470Y6590763D01*
X82387381Y6588221D01*
X82387377Y6588214D01*
X82309018Y6405387D01*
X82251893Y6272104D01*
X82251097Y6269469D01*
X82251096Y6269465D01*
X82225162Y6183568D01*
X82151687Y5940207D01*
X82151190Y5937499D01*
X82151189Y5937495D01*
X82093265Y5621892D01*
X82064163Y5568070D01*
X82008984Y5541633D01*
X81996005Y5540763D01*
X81960565Y5540722D01*
X81943074Y5540702D01*
X81884862Y5559542D01*
X81861376Y5583623D01*
X81804312Y5666651D01*
X81677721Y5779440D01*
X81527881Y5858776D01*
X81434504Y5882231D01*
X81369231Y5898627D01*
X81369228Y5898627D01*
X81363441Y5900081D01*
X81277841Y5900529D01*
X81199861Y5900938D01*
X81199859Y5900938D01*
X81193895Y5900969D01*
X81188099Y5899577D01*
X81188095Y5899577D01*
X81115847Y5882231D01*
X81029032Y5861388D01*
X80953700Y5822506D01*
X80883675Y5786364D01*
X80883673Y5786362D01*
X80878369Y5783625D01*
X80750604Y5672169D01*
X80686700Y5581242D01*
X80637771Y5544506D01*
X80605819Y5539168D01*
X79613760Y5538031D01*
X77503386Y5535611D01*
X77445173Y5554452D01*
X77410663Y5599617D01*
X77402454Y5621341D01*
X77400345Y5626923D01*
X77385708Y5648221D01*
X77307692Y5761733D01*
X77304312Y5766651D01*
X77177721Y5879440D01*
X77170505Y5883261D01*
X77113402Y5913495D01*
X77027881Y5958776D01*
X76945661Y5979428D01*
X76869231Y5998627D01*
X76869228Y5998627D01*
X76863441Y6000081D01*
X76777841Y6000529D01*
X76699861Y6000938D01*
X76699859Y6000938D01*
X76693895Y6000969D01*
X76688099Y5999577D01*
X76688095Y5999577D01*
X76580703Y5973793D01*
X76529032Y5961388D01*
X76493108Y5942846D01*
X76383675Y5886364D01*
X76383673Y5886362D01*
X76378369Y5883625D01*
X76250604Y5772169D01*
X76247173Y5767287D01*
X76247172Y5767286D01*
X76195601Y5693908D01*
X76153113Y5633453D01*
X76138891Y5596975D01*
X76100140Y5549630D01*
X76046771Y5533940D01*
X68997243Y5525854D01*
X68973019Y5528836D01*
X68888441Y5550081D01*
X68802841Y5550529D01*
X68724861Y5550938D01*
X68724859Y5550938D01*
X68718895Y5550969D01*
X68713093Y5549576D01*
X68623784Y5528135D01*
X68600787Y5525400D01*
X68359334Y5525123D01*
X67935336Y5524637D01*
X67877125Y5543477D01*
X67841105Y5592935D01*
X67841034Y5654121D01*
X67876941Y5703662D01*
X67890741Y5712080D01*
X67985165Y5759571D01*
X67990498Y5762253D01*
X67995035Y5766128D01*
X67995038Y5766130D01*
X68114888Y5868492D01*
X68114891Y5868495D01*
X68119423Y5872366D01*
X68122904Y5877210D01*
X68214877Y6005204D01*
X68214878Y6005206D01*
X68218361Y6010053D01*
X68224889Y6026290D01*
X68279377Y6161833D01*
X68279378Y6161835D01*
X68281601Y6167366D01*
X68282442Y6173273D01*
X68305034Y6332015D01*
X68305034Y6332021D01*
X68305490Y6335222D01*
X68305645Y6350000D01*
X68292327Y6460053D01*
X68285993Y6512398D01*
X68285992Y6512401D01*
X68285276Y6518320D01*
X68225345Y6676923D01*
X68213672Y6693908D01*
X68132692Y6811733D01*
X68129312Y6816651D01*
X68002721Y6929440D01*
X67852881Y7008776D01*
X67769803Y7029644D01*
X67694231Y7048627D01*
X67694228Y7048627D01*
X67688441Y7050081D01*
X67602841Y7050529D01*
X67524861Y7050938D01*
X67524859Y7050938D01*
X67518895Y7050969D01*
X67513099Y7049577D01*
X67513095Y7049577D01*
X67430072Y7029644D01*
X67354032Y7011388D01*
X67342051Y7005204D01*
X67208675Y6936364D01*
X67208673Y6936362D01*
X67203369Y6933625D01*
X67075604Y6822169D01*
X67072173Y6817287D01*
X67072172Y6817286D01*
X66981544Y6688335D01*
X66978113Y6683453D01*
X66951865Y6616130D01*
X66918983Y6531793D01*
X66916524Y6525487D01*
X66894394Y6357389D01*
X66895049Y6351456D01*
X66895049Y6351452D01*
X66906017Y6252104D01*
X66912999Y6188865D01*
X66971266Y6029644D01*
X66974591Y6024695D01*
X66974592Y6024694D01*
X66991131Y6000081D01*
X67065830Y5888917D01*
X67191233Y5774809D01*
X67310840Y5709868D01*
X67352956Y5665487D01*
X67360942Y5604825D01*
X67331747Y5551054D01*
X67276522Y5524713D01*
X67263717Y5523866D01*
X63404262Y5519440D01*
X52765786Y5507239D01*
X52707573Y5526080D01*
X52671553Y5575538D01*
X52671482Y5636724D01*
X52685276Y5664009D01*
X52714874Y5705200D01*
X52714875Y5705201D01*
X52718361Y5710053D01*
X52738268Y5759571D01*
X52779377Y5861833D01*
X52779378Y5861835D01*
X52781601Y5867366D01*
X52783002Y5877210D01*
X52805034Y6032015D01*
X52805034Y6032021D01*
X52805490Y6035222D01*
X52805645Y6050000D01*
X52790727Y6173273D01*
X52785993Y6212398D01*
X52785992Y6212401D01*
X52785276Y6218320D01*
X52725345Y6376923D01*
X52710708Y6398221D01*
X52632981Y6511313D01*
X54866030Y6511313D01*
X54866685Y6505380D01*
X54866685Y6505376D01*
X54883839Y6350000D01*
X54884635Y6342789D01*
X54942902Y6183568D01*
X54946227Y6178619D01*
X54946228Y6178618D01*
X54957507Y6161833D01*
X55037466Y6042841D01*
X55162869Y5928733D01*
X55311871Y5847832D01*
X55346825Y5838662D01*
X55470100Y5806321D01*
X55470104Y5806320D01*
X55475869Y5804808D01*
X55481830Y5804714D01*
X55481833Y5804714D01*
X55560632Y5803477D01*
X55645396Y5802145D01*
X55651211Y5803477D01*
X55651213Y5803477D01*
X55804842Y5838662D01*
X55804845Y5838663D01*
X55810665Y5839996D01*
X55826246Y5847832D01*
X55907830Y5888865D01*
X55962134Y5916177D01*
X55966671Y5920052D01*
X55966674Y5920054D01*
X56086524Y6022416D01*
X56086527Y6022419D01*
X56091059Y6026290D01*
X56095173Y6032015D01*
X56186513Y6159128D01*
X56186514Y6159130D01*
X56189997Y6163977D01*
X56197750Y6183261D01*
X56251013Y6315757D01*
X56251014Y6315759D01*
X56253237Y6321290D01*
X56254078Y6327197D01*
X56276670Y6485939D01*
X56276670Y6485945D01*
X56277126Y6489146D01*
X56277281Y6503924D01*
X56261754Y6632231D01*
X56257629Y6666322D01*
X56257628Y6666325D01*
X56256912Y6672244D01*
X56196981Y6830847D01*
X56178414Y6857863D01*
X56104328Y6965657D01*
X56100948Y6970575D01*
X55974357Y7083364D01*
X55824517Y7162700D01*
X55734854Y7185222D01*
X55665867Y7202551D01*
X55665864Y7202551D01*
X55660077Y7204005D01*
X55574477Y7204453D01*
X55496497Y7204862D01*
X55496495Y7204862D01*
X55490531Y7204893D01*
X55484735Y7203501D01*
X55484731Y7203501D01*
X55422063Y7188455D01*
X55325668Y7165312D01*
X55269017Y7136072D01*
X55180311Y7090288D01*
X55180309Y7090286D01*
X55175005Y7087549D01*
X55047240Y6976093D01*
X55043809Y6971211D01*
X55043808Y6971210D01*
X54953180Y6842259D01*
X54949749Y6837377D01*
X54939751Y6811733D01*
X54899560Y6708649D01*
X54888160Y6679411D01*
X54887381Y6673496D01*
X54887381Y6673495D01*
X54886437Y6666322D01*
X54866030Y6511313D01*
X52632981Y6511313D01*
X52632692Y6511733D01*
X52629312Y6516651D01*
X52502721Y6629440D01*
X52352881Y6708776D01*
X52270661Y6729428D01*
X52194231Y6748627D01*
X52194228Y6748627D01*
X52188441Y6750081D01*
X52102841Y6750529D01*
X52024861Y6750938D01*
X52024859Y6750938D01*
X52018895Y6750969D01*
X52013099Y6749577D01*
X52013095Y6749577D01*
X51919934Y6727210D01*
X51854032Y6711388D01*
X51809368Y6688335D01*
X51708675Y6636364D01*
X51708673Y6636362D01*
X51703369Y6633625D01*
X51575604Y6522169D01*
X51572173Y6517287D01*
X51572172Y6517286D01*
X51560510Y6500693D01*
X51478113Y6383453D01*
X51416524Y6225487D01*
X51415745Y6219572D01*
X51415745Y6219571D01*
X51411743Y6189168D01*
X51394394Y6057389D01*
X51395049Y6051456D01*
X51395049Y6051452D01*
X51411666Y5900938D01*
X51412999Y5888865D01*
X51471266Y5729644D01*
X51474591Y5724695D01*
X51474592Y5724694D01*
X51488725Y5703662D01*
X51514378Y5665487D01*
X51518111Y5659931D01*
X51534874Y5601086D01*
X51513846Y5543627D01*
X51463062Y5509502D01*
X51436054Y5505714D01*
X49800804Y5503838D01*
X49765624Y5510256D01*
X47892909Y6219571D01*
X43700795Y7807389D01*
X50194394Y7807389D01*
X50195049Y7801456D01*
X50195049Y7801452D01*
X50209493Y7670619D01*
X50212999Y7638865D01*
X50271266Y7479644D01*
X50274591Y7474695D01*
X50274592Y7474694D01*
X50287689Y7455204D01*
X50365830Y7338917D01*
X50491233Y7224809D01*
X50640235Y7143908D01*
X50699680Y7128313D01*
X50798464Y7102397D01*
X50798468Y7102396D01*
X50804233Y7100884D01*
X50810194Y7100790D01*
X50810197Y7100790D01*
X50888996Y7099553D01*
X50973760Y7098221D01*
X50979575Y7099553D01*
X50979577Y7099553D01*
X51133206Y7134738D01*
X51133209Y7134739D01*
X51139029Y7136072D01*
X51154610Y7143908D01*
X51243996Y7188865D01*
X51280827Y7207389D01*
X64644394Y7207389D01*
X64645049Y7201456D01*
X64645049Y7201452D01*
X64661666Y7050938D01*
X64662999Y7038865D01*
X64721266Y6879644D01*
X64724591Y6874695D01*
X64724592Y6874694D01*
X64749668Y6837377D01*
X64815830Y6738917D01*
X64887728Y6673495D01*
X64925729Y6638917D01*
X64941233Y6624809D01*
X65090235Y6543908D01*
X65149680Y6528313D01*
X65248464Y6502397D01*
X65248468Y6502396D01*
X65254233Y6500884D01*
X65260194Y6500790D01*
X65260197Y6500790D01*
X65338996Y6499553D01*
X65423760Y6498221D01*
X65429575Y6499553D01*
X65429577Y6499553D01*
X65583206Y6534738D01*
X65583209Y6534739D01*
X65589029Y6536072D01*
X65604610Y6543908D01*
X65697770Y6590763D01*
X65740498Y6612253D01*
X65745035Y6616128D01*
X65745038Y6616130D01*
X65864888Y6718492D01*
X65864891Y6718495D01*
X65869423Y6722366D01*
X65884875Y6743870D01*
X65964877Y6855204D01*
X65964878Y6855206D01*
X65968361Y6860053D01*
X65971754Y6868492D01*
X66029377Y7011833D01*
X66029378Y7011835D01*
X66031601Y7017366D01*
X66032644Y7024694D01*
X66055034Y7182015D01*
X66055034Y7182021D01*
X66055490Y7185222D01*
X66055645Y7200000D01*
X66040251Y7327210D01*
X66036599Y7357389D01*
X71494394Y7357389D01*
X71495049Y7351456D01*
X71495049Y7351452D01*
X71512126Y7196769D01*
X71512999Y7188865D01*
X71571266Y7029644D01*
X71574591Y7024695D01*
X71574592Y7024694D01*
X71607658Y6975487D01*
X71665830Y6888917D01*
X71791233Y6774809D01*
X71940235Y6693908D01*
X71986224Y6681843D01*
X72098464Y6652397D01*
X72098468Y6652396D01*
X72104233Y6650884D01*
X72110194Y6650790D01*
X72110197Y6650790D01*
X72188996Y6649553D01*
X72273760Y6648221D01*
X72279575Y6649553D01*
X72279577Y6649553D01*
X72433206Y6684738D01*
X72433209Y6684739D01*
X72439029Y6686072D01*
X72454610Y6693908D01*
X72538443Y6736072D01*
X72590498Y6762253D01*
X72595035Y6766128D01*
X72595038Y6766130D01*
X72714888Y6868492D01*
X72714891Y6868495D01*
X72719423Y6872366D01*
X72731954Y6889805D01*
X72814877Y7005204D01*
X72814878Y7005206D01*
X72818361Y7010053D01*
X72823676Y7023273D01*
X72879377Y7161833D01*
X72879378Y7161835D01*
X72881601Y7167366D01*
X72883863Y7183261D01*
X72905034Y7332015D01*
X72905034Y7332021D01*
X72905490Y7335222D01*
X72905645Y7350000D01*
X72891657Y7465592D01*
X72885993Y7512398D01*
X72885992Y7512401D01*
X72885276Y7518320D01*
X72825345Y7676923D01*
X72801064Y7712253D01*
X72732692Y7811733D01*
X72729312Y7816651D01*
X72602721Y7929440D01*
X72452881Y8008776D01*
X72370661Y8029428D01*
X72294231Y8048627D01*
X72294228Y8048627D01*
X72288441Y8050081D01*
X72202841Y8050529D01*
X72124861Y8050938D01*
X72124859Y8050938D01*
X72118895Y8050969D01*
X72113099Y8049577D01*
X72113095Y8049577D01*
X72005703Y8023793D01*
X71954032Y8011388D01*
X71892529Y7979644D01*
X71808675Y7936364D01*
X71808673Y7936362D01*
X71803369Y7933625D01*
X71675604Y7822169D01*
X71672173Y7817287D01*
X71672172Y7817286D01*
X71608664Y7726923D01*
X71578113Y7683453D01*
X71516524Y7525487D01*
X71494394Y7357389D01*
X66036599Y7357389D01*
X66035993Y7362398D01*
X66035992Y7362401D01*
X66035276Y7368320D01*
X65975345Y7526923D01*
X65946894Y7568320D01*
X65882692Y7661733D01*
X65879312Y7666651D01*
X65752721Y7779440D01*
X65602881Y7858776D01*
X65520661Y7879428D01*
X65444231Y7898627D01*
X65444228Y7898627D01*
X65438441Y7900081D01*
X65352841Y7900529D01*
X65274861Y7900938D01*
X65274859Y7900938D01*
X65268895Y7900969D01*
X65263099Y7899577D01*
X65263095Y7899577D01*
X65155703Y7873793D01*
X65104032Y7861388D01*
X65047022Y7831963D01*
X64958675Y7786364D01*
X64958673Y7786362D01*
X64953369Y7783625D01*
X64825604Y7672169D01*
X64822173Y7667287D01*
X64822172Y7667286D01*
X64757655Y7575487D01*
X64728113Y7533453D01*
X64725945Y7527892D01*
X64670320Y7385222D01*
X64666524Y7375487D01*
X64644394Y7207389D01*
X51280827Y7207389D01*
X51290498Y7212253D01*
X51295035Y7216128D01*
X51295038Y7216130D01*
X51414888Y7318492D01*
X51414891Y7318495D01*
X51419423Y7322366D01*
X51422904Y7327210D01*
X51514877Y7455204D01*
X51514878Y7455206D01*
X51518361Y7460053D01*
X51534453Y7500081D01*
X51579377Y7611833D01*
X51579378Y7611835D01*
X51581601Y7617366D01*
X51583420Y7630144D01*
X51605034Y7782015D01*
X51605034Y7782021D01*
X51605490Y7785222D01*
X51605645Y7800000D01*
X51589981Y7929440D01*
X51585993Y7962398D01*
X51585992Y7962401D01*
X51585276Y7968320D01*
X51525345Y8126923D01*
X51520218Y8134384D01*
X51432692Y8261733D01*
X51429312Y8266651D01*
X51302721Y8379440D01*
X51152881Y8458776D01*
X51060388Y8482009D01*
X50994231Y8498627D01*
X50994228Y8498627D01*
X50988441Y8500081D01*
X50902841Y8500529D01*
X50824861Y8500938D01*
X50824859Y8500938D01*
X50818895Y8500969D01*
X50813099Y8499577D01*
X50813095Y8499577D01*
X50712757Y8475487D01*
X50654032Y8461388D01*
X50587813Y8427210D01*
X50508675Y8386364D01*
X50508673Y8386362D01*
X50503369Y8383625D01*
X50375604Y8272169D01*
X50372173Y8267287D01*
X50372172Y8267286D01*
X50281544Y8138335D01*
X50278113Y8133453D01*
X50254910Y8073940D01*
X50243201Y8043908D01*
X50216524Y7975487D01*
X50194394Y7807389D01*
X43700795Y7807389D01*
X41324639Y8707389D01*
X44094394Y8707389D01*
X44095049Y8701456D01*
X44095049Y8701452D01*
X44108497Y8579644D01*
X44112999Y8538865D01*
X44171266Y8379644D01*
X44174591Y8374695D01*
X44174592Y8374694D01*
X44187689Y8355204D01*
X44265830Y8238917D01*
X44391233Y8124809D01*
X44540235Y8043908D01*
X44575189Y8034738D01*
X44698464Y8002397D01*
X44698468Y8002396D01*
X44704233Y8000884D01*
X44710194Y8000790D01*
X44710197Y8000790D01*
X44788965Y7999553D01*
X44873760Y7998221D01*
X44879575Y7999553D01*
X44879577Y7999553D01*
X45033206Y8034738D01*
X45033209Y8034739D01*
X45039029Y8036072D01*
X45054610Y8043908D01*
X45162598Y8098221D01*
X45190498Y8112253D01*
X45195035Y8116128D01*
X45195038Y8116130D01*
X45314888Y8218492D01*
X45314891Y8218495D01*
X45319423Y8222366D01*
X45326746Y8232557D01*
X45414877Y8355204D01*
X45414878Y8355206D01*
X45418361Y8360053D01*
X45424560Y8375472D01*
X45479377Y8511833D01*
X45479378Y8511835D01*
X45481601Y8517366D01*
X45482442Y8523273D01*
X45505034Y8682015D01*
X45505034Y8682021D01*
X45505490Y8685222D01*
X45505645Y8700000D01*
X45493544Y8800000D01*
X45485993Y8862398D01*
X45485992Y8862401D01*
X45485276Y8868320D01*
X45470513Y8907389D01*
X47844394Y8907389D01*
X47845049Y8901456D01*
X47845049Y8901452D01*
X47858497Y8779644D01*
X47862999Y8738865D01*
X47921266Y8579644D01*
X47924591Y8574695D01*
X47924592Y8574694D01*
X47937689Y8555204D01*
X48015830Y8438917D01*
X48073585Y8386364D01*
X48125729Y8338917D01*
X48141233Y8324809D01*
X48290235Y8243908D01*
X48333503Y8232557D01*
X48448464Y8202397D01*
X48448468Y8202396D01*
X48454233Y8200884D01*
X48460194Y8200790D01*
X48460197Y8200790D01*
X48538965Y8199553D01*
X48623760Y8198221D01*
X48629575Y8199553D01*
X48629577Y8199553D01*
X48783206Y8234738D01*
X48783209Y8234739D01*
X48789029Y8236072D01*
X48801214Y8242200D01*
X48903291Y8293540D01*
X48940498Y8312253D01*
X48945035Y8316128D01*
X48945038Y8316130D01*
X49064888Y8418492D01*
X49064891Y8418495D01*
X49069423Y8422366D01*
X49084875Y8443870D01*
X49164877Y8555204D01*
X49164878Y8555206D01*
X49168361Y8560053D01*
X49180570Y8590422D01*
X49229377Y8711833D01*
X49229378Y8711835D01*
X49231601Y8717366D01*
X49232442Y8723273D01*
X49255034Y8882015D01*
X49255034Y8882021D01*
X49255490Y8885222D01*
X49255645Y8900000D01*
X49254751Y8907389D01*
X53894394Y8907389D01*
X53895049Y8901456D01*
X53895049Y8901452D01*
X53908497Y8779644D01*
X53912999Y8738865D01*
X53971266Y8579644D01*
X53974591Y8574695D01*
X53974592Y8574694D01*
X53987689Y8555204D01*
X54065830Y8438917D01*
X54123585Y8386364D01*
X54175729Y8338917D01*
X54191233Y8324809D01*
X54340235Y8243908D01*
X54383503Y8232557D01*
X54498464Y8202397D01*
X54498468Y8202396D01*
X54504233Y8200884D01*
X54510194Y8200790D01*
X54510197Y8200790D01*
X54588965Y8199553D01*
X54673760Y8198221D01*
X54679575Y8199553D01*
X54679577Y8199553D01*
X54833206Y8234738D01*
X54833209Y8234739D01*
X54839029Y8236072D01*
X54851214Y8242200D01*
X54953291Y8293540D01*
X54990498Y8312253D01*
X54995035Y8316128D01*
X54995038Y8316130D01*
X55114888Y8418492D01*
X55114891Y8418495D01*
X55119423Y8422366D01*
X55134875Y8443870D01*
X55214877Y8555204D01*
X55214878Y8555206D01*
X55218361Y8560053D01*
X55230570Y8590422D01*
X55279377Y8711833D01*
X55279378Y8711835D01*
X55281601Y8717366D01*
X55282442Y8723273D01*
X55305034Y8882015D01*
X55305034Y8882021D01*
X55305490Y8885222D01*
X55305645Y8900000D01*
X55290961Y9021341D01*
X55285993Y9062398D01*
X55285992Y9062401D01*
X55285276Y9068320D01*
X55225345Y9226923D01*
X55217138Y9238865D01*
X55142985Y9346757D01*
X55129312Y9366651D01*
X55002721Y9479440D01*
X54852881Y9558776D01*
X54764214Y9581048D01*
X54694231Y9598627D01*
X54694228Y9598627D01*
X54688441Y9600081D01*
X54602841Y9600529D01*
X54524861Y9600938D01*
X54524859Y9600938D01*
X54518895Y9600969D01*
X54513099Y9599577D01*
X54513095Y9599577D01*
X54415277Y9576092D01*
X54354032Y9561388D01*
X54290950Y9528829D01*
X54208675Y9486364D01*
X54208673Y9486362D01*
X54203369Y9483625D01*
X54075604Y9372169D01*
X54072173Y9367287D01*
X54072172Y9367286D01*
X53981544Y9238335D01*
X53978113Y9233453D01*
X53975945Y9227892D01*
X53920320Y9085222D01*
X53916524Y9075487D01*
X53894394Y8907389D01*
X49254751Y8907389D01*
X49240961Y9021341D01*
X49235993Y9062398D01*
X49235992Y9062401D01*
X49235276Y9068320D01*
X49175345Y9226923D01*
X49167138Y9238865D01*
X49092985Y9346757D01*
X49079312Y9366651D01*
X48952721Y9479440D01*
X48802881Y9558776D01*
X48714214Y9581048D01*
X48644231Y9598627D01*
X48644228Y9598627D01*
X48638441Y9600081D01*
X48552841Y9600529D01*
X48474861Y9600938D01*
X48474859Y9600938D01*
X48468895Y9600969D01*
X48463099Y9599577D01*
X48463095Y9599577D01*
X48365277Y9576092D01*
X48304032Y9561388D01*
X48240950Y9528829D01*
X48158675Y9486364D01*
X48158673Y9486362D01*
X48153369Y9483625D01*
X48025604Y9372169D01*
X48022173Y9367287D01*
X48022172Y9367286D01*
X47931544Y9238335D01*
X47928113Y9233453D01*
X47925945Y9227892D01*
X47870320Y9085222D01*
X47866524Y9075487D01*
X47844394Y8907389D01*
X45470513Y8907389D01*
X45425345Y9026923D01*
X45402576Y9060053D01*
X45332692Y9161733D01*
X45329312Y9166651D01*
X45202721Y9279440D01*
X45052881Y9358776D01*
X44960364Y9382015D01*
X44894231Y9398627D01*
X44894228Y9398627D01*
X44888441Y9400081D01*
X44802841Y9400529D01*
X44724861Y9400938D01*
X44724859Y9400938D01*
X44718895Y9400969D01*
X44713099Y9399577D01*
X44713095Y9399577D01*
X44629222Y9379440D01*
X44554032Y9361388D01*
X44504983Y9336072D01*
X44408675Y9286364D01*
X44408673Y9286362D01*
X44403369Y9283625D01*
X44275604Y9172169D01*
X44272173Y9167287D01*
X44272172Y9167286D01*
X44198456Y9062398D01*
X44178113Y9033453D01*
X44175945Y9027892D01*
X44120320Y8885222D01*
X44116524Y8875487D01*
X44094394Y8707389D01*
X41324639Y8707389D01*
X39100000Y9550000D01*
X29516084Y9996769D01*
X29288268Y10007389D01*
X60394394Y10007389D01*
X60395049Y10001456D01*
X60395049Y10001452D01*
X60408889Y9876092D01*
X60412999Y9838865D01*
X60471266Y9679644D01*
X60474591Y9674695D01*
X60474592Y9674694D01*
X60509574Y9622635D01*
X60565830Y9538917D01*
X60691233Y9424809D01*
X60840235Y9343908D01*
X60875189Y9334738D01*
X60998464Y9302397D01*
X60998468Y9302396D01*
X61004233Y9300884D01*
X61010194Y9300790D01*
X61010197Y9300790D01*
X61088996Y9299553D01*
X61173760Y9298221D01*
X61179575Y9299553D01*
X61179577Y9299553D01*
X61333206Y9334738D01*
X61333209Y9334739D01*
X61339029Y9336072D01*
X61354610Y9343908D01*
X61430376Y9382015D01*
X61480827Y9407389D01*
X62094394Y9407389D01*
X62095049Y9401456D01*
X62095049Y9401452D01*
X62109131Y9273901D01*
X62112999Y9238865D01*
X62171266Y9079644D01*
X62174591Y9074695D01*
X62174592Y9074694D01*
X62187689Y9055204D01*
X62265830Y8938917D01*
X62391233Y8824809D01*
X62540235Y8743908D01*
X62575189Y8734738D01*
X62698464Y8702397D01*
X62698468Y8702396D01*
X62704233Y8700884D01*
X62710194Y8700790D01*
X62710197Y8700790D01*
X62788996Y8699553D01*
X62873760Y8698221D01*
X62879575Y8699553D01*
X62879577Y8699553D01*
X63033206Y8734738D01*
X63033209Y8734739D01*
X63039029Y8736072D01*
X63044583Y8738865D01*
X63136753Y8785222D01*
X63190498Y8812253D01*
X63195035Y8816128D01*
X63195038Y8816130D01*
X63314888Y8918492D01*
X63314891Y8918495D01*
X63319423Y8922366D01*
X63347463Y8961388D01*
X63414877Y9055204D01*
X63414878Y9055206D01*
X63418361Y9060053D01*
X63421685Y9068320D01*
X63479377Y9211833D01*
X63479378Y9211835D01*
X63481601Y9217366D01*
X63483099Y9227892D01*
X63505034Y9382015D01*
X63505034Y9382021D01*
X63505490Y9385222D01*
X63505645Y9400000D01*
X63492478Y9508803D01*
X63485993Y9562398D01*
X63485992Y9562401D01*
X63485276Y9568320D01*
X63425345Y9726923D01*
X63405373Y9755983D01*
X63332692Y9861733D01*
X63329312Y9866651D01*
X63202721Y9979440D01*
X63052881Y10058776D01*
X62970661Y10079429D01*
X62894231Y10098627D01*
X62894228Y10098627D01*
X62888441Y10100081D01*
X62802841Y10100529D01*
X62724861Y10100938D01*
X62724859Y10100938D01*
X62718895Y10100969D01*
X62713099Y10099577D01*
X62713095Y10099577D01*
X62605703Y10073793D01*
X62554032Y10061388D01*
X62478701Y10022507D01*
X62408675Y9986364D01*
X62408673Y9986362D01*
X62403369Y9983625D01*
X62275604Y9872169D01*
X62272173Y9867287D01*
X62272172Y9867286D01*
X62198725Y9762781D01*
X62178113Y9733453D01*
X62160975Y9689496D01*
X62134802Y9622366D01*
X62116524Y9575487D01*
X62094394Y9407389D01*
X61480827Y9407389D01*
X61490498Y9412253D01*
X61495035Y9416128D01*
X61495038Y9416130D01*
X61614888Y9518492D01*
X61614891Y9518495D01*
X61619423Y9522366D01*
X61651245Y9566651D01*
X61714877Y9655204D01*
X61714878Y9655206D01*
X61718361Y9660053D01*
X61724560Y9675472D01*
X61779377Y9811833D01*
X61779378Y9811835D01*
X61781601Y9817366D01*
X61785505Y9844796D01*
X61805034Y9982015D01*
X61805034Y9982021D01*
X61805490Y9985222D01*
X61805645Y10000000D01*
X61793368Y10101452D01*
X61792650Y10107389D01*
X65394394Y10107389D01*
X65395049Y10101456D01*
X65395049Y10101452D01*
X65411659Y9950999D01*
X65412999Y9938865D01*
X65471266Y9779644D01*
X65474591Y9774695D01*
X65474592Y9774694D01*
X65485374Y9758649D01*
X65565830Y9638917D01*
X65642040Y9569571D01*
X65675729Y9538917D01*
X65691233Y9524809D01*
X65696482Y9521959D01*
X65707210Y9516134D01*
X65840235Y9443908D01*
X65886224Y9431843D01*
X65998464Y9402397D01*
X65998468Y9402396D01*
X66004233Y9400884D01*
X66010194Y9400790D01*
X66010197Y9400790D01*
X66088996Y9399553D01*
X66173760Y9398221D01*
X66179575Y9399553D01*
X66179577Y9399553D01*
X66333206Y9434738D01*
X66333209Y9434739D01*
X66339029Y9436072D01*
X66354610Y9443908D01*
X66430806Y9482231D01*
X66490498Y9512253D01*
X66517014Y9534900D01*
X66592324Y9599220D01*
X66648851Y9622635D01*
X66708346Y9608351D01*
X66738790Y9579157D01*
X66765830Y9538917D01*
X66891233Y9424809D01*
X67040235Y9343908D01*
X67075189Y9334738D01*
X67198464Y9302397D01*
X67198468Y9302396D01*
X67204233Y9300884D01*
X67210194Y9300790D01*
X67210197Y9300790D01*
X67288996Y9299553D01*
X67373760Y9298221D01*
X67379575Y9299553D01*
X67379577Y9299553D01*
X67533206Y9334738D01*
X67533209Y9334739D01*
X67539029Y9336072D01*
X67554610Y9343908D01*
X67630376Y9382015D01*
X67690498Y9412253D01*
X67695035Y9416128D01*
X67695038Y9416130D01*
X67814888Y9518492D01*
X67814891Y9518495D01*
X67819423Y9522366D01*
X67860232Y9579157D01*
X67918361Y9660053D01*
X67919593Y9659168D01*
X67958944Y9696128D01*
X68019646Y9703802D01*
X68073266Y9674331D01*
X68083276Y9661771D01*
X68085025Y9659168D01*
X68165830Y9538917D01*
X68291233Y9424809D01*
X68440235Y9343908D01*
X68475189Y9334738D01*
X68598464Y9302397D01*
X68598468Y9302396D01*
X68604233Y9300884D01*
X68610194Y9300790D01*
X68610197Y9300790D01*
X68688996Y9299553D01*
X68773760Y9298221D01*
X68779575Y9299553D01*
X68779577Y9299553D01*
X68933206Y9334738D01*
X68933209Y9334739D01*
X68939029Y9336072D01*
X68954610Y9343908D01*
X69030376Y9382015D01*
X69090498Y9412253D01*
X69095035Y9416128D01*
X69095038Y9416130D01*
X69214888Y9518492D01*
X69214891Y9518495D01*
X69219423Y9522366D01*
X69251245Y9566651D01*
X69314877Y9655204D01*
X69314878Y9655206D01*
X69318361Y9660053D01*
X69324560Y9675472D01*
X69379377Y9811833D01*
X69379378Y9811835D01*
X69381601Y9817366D01*
X69385505Y9844796D01*
X69405034Y9982015D01*
X69405034Y9982021D01*
X69405490Y9985222D01*
X69405645Y10000000D01*
X69404751Y10007389D01*
X70794394Y10007389D01*
X70795049Y10001456D01*
X70795049Y10001452D01*
X70808889Y9876092D01*
X70812999Y9838865D01*
X70871266Y9679644D01*
X70874591Y9674695D01*
X70874592Y9674694D01*
X70909574Y9622635D01*
X70965830Y9538917D01*
X71091233Y9424809D01*
X71240235Y9343908D01*
X71275189Y9334738D01*
X71398464Y9302397D01*
X71398468Y9302396D01*
X71404233Y9300884D01*
X71410194Y9300790D01*
X71410197Y9300790D01*
X71488996Y9299553D01*
X71573760Y9298221D01*
X71579575Y9299553D01*
X71579577Y9299553D01*
X71733206Y9334738D01*
X71733209Y9334739D01*
X71739029Y9336072D01*
X71754610Y9343908D01*
X71830376Y9382015D01*
X71890498Y9412253D01*
X71895035Y9416128D01*
X71895038Y9416130D01*
X72014888Y9518492D01*
X72014891Y9518495D01*
X72019423Y9522366D01*
X72051245Y9566651D01*
X72114877Y9655204D01*
X72114878Y9655206D01*
X72118361Y9660053D01*
X72124560Y9675472D01*
X72179377Y9811833D01*
X72179378Y9811835D01*
X72181601Y9817366D01*
X72185505Y9844796D01*
X72205034Y9982015D01*
X72205034Y9982021D01*
X72205490Y9985222D01*
X72205645Y10000000D01*
X72193368Y10101452D01*
X72185993Y10162398D01*
X72185992Y10162401D01*
X72185276Y10168320D01*
X72125345Y10326923D01*
X72118512Y10336866D01*
X72032692Y10461733D01*
X72029312Y10466651D01*
X71902721Y10579440D01*
X71752881Y10658776D01*
X71658652Y10682445D01*
X71594231Y10698627D01*
X71594228Y10698627D01*
X71588441Y10700081D01*
X71502841Y10700529D01*
X71424861Y10700938D01*
X71424859Y10700938D01*
X71418895Y10700969D01*
X71413099Y10699577D01*
X71413095Y10699577D01*
X71340847Y10682231D01*
X71254032Y10661388D01*
X71204983Y10636072D01*
X71108675Y10586364D01*
X71108673Y10586362D01*
X71103369Y10583625D01*
X70975604Y10472169D01*
X70972173Y10467287D01*
X70972172Y10467286D01*
X70940700Y10422506D01*
X70878113Y10333453D01*
X70816524Y10175487D01*
X70794394Y10007389D01*
X69404751Y10007389D01*
X69393368Y10101452D01*
X69385993Y10162398D01*
X69385992Y10162401D01*
X69385276Y10168320D01*
X69325345Y10326923D01*
X69318512Y10336866D01*
X69232692Y10461733D01*
X69229312Y10466651D01*
X69102721Y10579440D01*
X68952881Y10658776D01*
X68858652Y10682445D01*
X68794231Y10698627D01*
X68794228Y10698627D01*
X68788441Y10700081D01*
X68702841Y10700529D01*
X68624861Y10700938D01*
X68624859Y10700938D01*
X68618895Y10700969D01*
X68613099Y10699577D01*
X68613095Y10699577D01*
X68540847Y10682231D01*
X68454032Y10661388D01*
X68404983Y10636072D01*
X68308675Y10586364D01*
X68308673Y10586362D01*
X68303369Y10583625D01*
X68175604Y10472169D01*
X68172173Y10467287D01*
X68172172Y10467286D01*
X68168269Y10461733D01*
X68108676Y10376939D01*
X68080512Y10336866D01*
X68031583Y10300129D01*
X67970405Y10299167D01*
X67917927Y10337716D01*
X67917502Y10338335D01*
X67829312Y10466651D01*
X67702721Y10579440D01*
X67552881Y10658776D01*
X67458652Y10682445D01*
X67394231Y10698627D01*
X67394228Y10698627D01*
X67388441Y10700081D01*
X67302841Y10700529D01*
X67224861Y10700938D01*
X67224859Y10700938D01*
X67218895Y10700969D01*
X67213099Y10699577D01*
X67213095Y10699577D01*
X67140847Y10682231D01*
X67054032Y10661388D01*
X67004983Y10636072D01*
X66908675Y10586364D01*
X66908673Y10586362D01*
X66903369Y10583625D01*
X66898871Y10579701D01*
X66808474Y10500843D01*
X66752194Y10476838D01*
X66692553Y10490498D01*
X66661806Y10519372D01*
X66632692Y10561733D01*
X66629312Y10566651D01*
X66502721Y10679440D01*
X66352881Y10758776D01*
X66270661Y10779428D01*
X66194231Y10798627D01*
X66194228Y10798627D01*
X66188441Y10800081D01*
X66102841Y10800529D01*
X66024861Y10800938D01*
X66024859Y10800938D01*
X66018895Y10800969D01*
X66013099Y10799577D01*
X66013095Y10799577D01*
X65905703Y10773793D01*
X65854032Y10761388D01*
X65804983Y10736072D01*
X65708675Y10686364D01*
X65708673Y10686362D01*
X65703369Y10683625D01*
X65575604Y10572169D01*
X65572173Y10567287D01*
X65572172Y10567286D01*
X65497988Y10461733D01*
X65478113Y10433453D01*
X65475945Y10427892D01*
X65425757Y10299167D01*
X65416524Y10275487D01*
X65394394Y10107389D01*
X61792650Y10107389D01*
X61785993Y10162398D01*
X61785992Y10162401D01*
X61785276Y10168320D01*
X61725345Y10326923D01*
X61718512Y10336866D01*
X61632692Y10461733D01*
X61629312Y10466651D01*
X61502721Y10579440D01*
X61352881Y10658776D01*
X61258652Y10682445D01*
X61194231Y10698627D01*
X61194228Y10698627D01*
X61188441Y10700081D01*
X61102841Y10700529D01*
X61024861Y10700938D01*
X61024859Y10700938D01*
X61018895Y10700969D01*
X61013099Y10699577D01*
X61013095Y10699577D01*
X60940847Y10682231D01*
X60854032Y10661388D01*
X60804983Y10636072D01*
X60708675Y10586364D01*
X60708673Y10586362D01*
X60703369Y10583625D01*
X60575604Y10472169D01*
X60572173Y10467287D01*
X60572172Y10467286D01*
X60540700Y10422506D01*
X60478113Y10333453D01*
X60416524Y10175487D01*
X60394394Y10007389D01*
X29288268Y10007389D01*
X14807240Y10682445D01*
X14749993Y10704042D01*
X14716373Y10755163D01*
X14719222Y10816282D01*
X14731454Y10839109D01*
X14814877Y10955204D01*
X14814878Y10955206D01*
X14818361Y10960053D01*
X14881601Y11117366D01*
X14887164Y11156455D01*
X14905034Y11282015D01*
X14905034Y11282021D01*
X14905490Y11285222D01*
X14905645Y11300000D01*
X14893155Y11403211D01*
X14892649Y11407389D01*
X28194394Y11407389D01*
X28195049Y11401456D01*
X28195049Y11401452D01*
X28206606Y11296769D01*
X28212999Y11238865D01*
X28271266Y11079644D01*
X28274591Y11074695D01*
X28274592Y11074694D01*
X28287689Y11055204D01*
X28365830Y10938917D01*
X28388277Y10918492D01*
X28475729Y10838917D01*
X28491233Y10824809D01*
X28640235Y10743908D01*
X28675189Y10734738D01*
X28798464Y10702397D01*
X28798468Y10702396D01*
X28804233Y10700884D01*
X28810194Y10700790D01*
X28810197Y10700790D01*
X28888965Y10699553D01*
X28973760Y10698221D01*
X28979575Y10699553D01*
X28979577Y10699553D01*
X29133206Y10734738D01*
X29133209Y10734739D01*
X29139029Y10736072D01*
X29154610Y10743908D01*
X29214764Y10774163D01*
X29290498Y10812253D01*
X29295035Y10816128D01*
X29295038Y10816130D01*
X29414888Y10918492D01*
X29414891Y10918495D01*
X29419423Y10922366D01*
X29434875Y10943870D01*
X29514877Y11055204D01*
X29514878Y11055206D01*
X29518361Y11060053D01*
X29581601Y11217366D01*
X29590802Y11282015D01*
X29605034Y11382015D01*
X29605034Y11382021D01*
X29605490Y11385222D01*
X29605645Y11400000D01*
X29585276Y11568320D01*
X29525345Y11726923D01*
X29495314Y11770619D01*
X29432692Y11861733D01*
X29429312Y11866651D01*
X29302721Y11979440D01*
X29152881Y12058776D01*
X29051152Y12084329D01*
X28994231Y12098627D01*
X28994228Y12098627D01*
X28988441Y12100081D01*
X28902841Y12100529D01*
X28824861Y12100938D01*
X28824859Y12100938D01*
X28818895Y12100969D01*
X28813099Y12099577D01*
X28813095Y12099577D01*
X28736261Y12081130D01*
X28654032Y12061388D01*
X28597301Y12032107D01*
X28508675Y11986364D01*
X28508673Y11986362D01*
X28503369Y11983625D01*
X28375604Y11872169D01*
X28372173Y11867287D01*
X28372172Y11867286D01*
X28308080Y11776092D01*
X28278113Y11733453D01*
X28275945Y11727892D01*
X28238497Y11631843D01*
X28216524Y11575487D01*
X28194394Y11407389D01*
X14892649Y11407389D01*
X14885993Y11462398D01*
X14885992Y11462401D01*
X14885276Y11468320D01*
X14825345Y11626923D01*
X14756617Y11726923D01*
X14732692Y11761733D01*
X14729312Y11766651D01*
X14602721Y11879440D01*
X14452881Y11958776D01*
X14359504Y11982231D01*
X14294231Y11998627D01*
X14294228Y11998627D01*
X14288441Y12000081D01*
X14202841Y12000529D01*
X14124861Y12000938D01*
X14124859Y12000938D01*
X14118895Y12000969D01*
X14113099Y11999577D01*
X14113095Y11999577D01*
X14040847Y11982231D01*
X13954032Y11961388D01*
X13890950Y11928829D01*
X13808675Y11886364D01*
X13808673Y11886362D01*
X13803369Y11883625D01*
X13675604Y11772169D01*
X13672173Y11767287D01*
X13672172Y11767286D01*
X13581544Y11638335D01*
X13578113Y11633453D01*
X13516524Y11475487D01*
X13494394Y11307389D01*
X13495049Y11301456D01*
X13495049Y11301452D01*
X13504943Y11211833D01*
X13512999Y11138865D01*
X13571266Y10979644D01*
X13584431Y10960053D01*
X13627753Y10895582D01*
X13644514Y10836738D01*
X13623487Y10779279D01*
X13572702Y10745153D01*
X13540974Y10741473D01*
X5911521Y11097132D01*
X5854274Y11118729D01*
X5825383Y11156455D01*
X5236313Y12507389D01*
X16544394Y12507389D01*
X16545049Y12501456D01*
X16545049Y12501452D01*
X16545566Y12496769D01*
X16562999Y12338865D01*
X16621266Y12179644D01*
X16624591Y12174695D01*
X16624592Y12174694D01*
X16637689Y12155204D01*
X16715830Y12038917D01*
X16841233Y11924809D01*
X16990235Y11843908D01*
X17025189Y11834738D01*
X17148464Y11802397D01*
X17148468Y11802396D01*
X17154233Y11800884D01*
X17160194Y11800790D01*
X17160197Y11800790D01*
X17238996Y11799553D01*
X17323760Y11798221D01*
X17329575Y11799553D01*
X17329577Y11799553D01*
X17483206Y11834738D01*
X17483209Y11834739D01*
X17489029Y11836072D01*
X17504610Y11843908D01*
X17580806Y11882231D01*
X17640498Y11912253D01*
X17645035Y11916128D01*
X17645038Y11916130D01*
X17764888Y12018492D01*
X17764891Y12018495D01*
X17769423Y12022366D01*
X17778430Y12034900D01*
X17864877Y12155204D01*
X17864878Y12155206D01*
X17868361Y12160053D01*
X17893561Y12222738D01*
X17929377Y12311833D01*
X17929378Y12311835D01*
X17931601Y12317366D01*
X17932442Y12323273D01*
X17955034Y12482015D01*
X17955034Y12482021D01*
X17955490Y12485222D01*
X17955645Y12500000D01*
X17935276Y12668320D01*
X17875345Y12826923D01*
X17826279Y12898315D01*
X17782692Y12961733D01*
X17779312Y12966651D01*
X17652721Y13079440D01*
X17647450Y13082231D01*
X17647447Y13082233D01*
X17618296Y13097668D01*
X17575717Y13141607D01*
X17567096Y13202182D01*
X17595727Y13256255D01*
X17650674Y13283172D01*
X17689744Y13280919D01*
X17798457Y13252398D01*
X17798467Y13252397D01*
X17804233Y13250884D01*
X17810194Y13250790D01*
X17810197Y13250790D01*
X17888965Y13249553D01*
X17973760Y13248221D01*
X17979575Y13249553D01*
X17979577Y13249553D01*
X18133206Y13284738D01*
X18133209Y13284739D01*
X18139029Y13286072D01*
X18154610Y13293908D01*
X18270458Y13352174D01*
X18290498Y13362253D01*
X18295035Y13366128D01*
X18295038Y13366130D01*
X18414888Y13468492D01*
X18414891Y13468495D01*
X18419423Y13472366D01*
X18428430Y13484900D01*
X18514877Y13605204D01*
X18514878Y13605206D01*
X18518361Y13610053D01*
X18533743Y13648315D01*
X18579377Y13761833D01*
X18579378Y13761835D01*
X18581601Y13767366D01*
X18582531Y13773901D01*
X18605034Y13932015D01*
X18605034Y13932021D01*
X18605490Y13935222D01*
X18605645Y13950000D01*
X18592914Y14055204D01*
X18585993Y14112398D01*
X18585992Y14112401D01*
X18585276Y14118320D01*
X18525345Y14276923D01*
X18518857Y14286364D01*
X18432692Y14411733D01*
X18429312Y14416651D01*
X18302721Y14529440D01*
X18295505Y14533261D01*
X18240474Y14562398D01*
X18152881Y14608776D01*
X18059504Y14632231D01*
X17994231Y14648627D01*
X17994228Y14648627D01*
X17988441Y14650081D01*
X17902841Y14650529D01*
X17824861Y14650938D01*
X17824859Y14650938D01*
X17818895Y14650969D01*
X17813099Y14649577D01*
X17813095Y14649577D01*
X17740847Y14632231D01*
X17654032Y14611388D01*
X17587813Y14577210D01*
X17508675Y14536364D01*
X17508673Y14536362D01*
X17503369Y14533625D01*
X17375604Y14422169D01*
X17372173Y14417287D01*
X17372172Y14417286D01*
X17290186Y14300631D01*
X17278113Y14283453D01*
X17250410Y14212398D01*
X17236013Y14175472D01*
X17216524Y14125487D01*
X17194394Y13957389D01*
X17195049Y13951456D01*
X17195049Y13951452D01*
X17210417Y13812253D01*
X17212999Y13788865D01*
X17271266Y13629644D01*
X17274591Y13624695D01*
X17274592Y13624694D01*
X17303271Y13582015D01*
X17365830Y13488917D01*
X17491233Y13374809D01*
X17514359Y13362253D01*
X17532922Y13352174D01*
X17575040Y13307792D01*
X17583026Y13247130D01*
X17553831Y13193359D01*
X17498607Y13167018D01*
X17461566Y13169154D01*
X17344231Y13198627D01*
X17344228Y13198627D01*
X17338441Y13200081D01*
X17252841Y13200529D01*
X17174861Y13200938D01*
X17174859Y13200938D01*
X17168895Y13200969D01*
X17163099Y13199577D01*
X17163095Y13199577D01*
X17070638Y13177379D01*
X17004032Y13161388D01*
X16940950Y13128829D01*
X16858675Y13086364D01*
X16858673Y13086362D01*
X16853369Y13083625D01*
X16725604Y12972169D01*
X16722173Y12967287D01*
X16722172Y12967286D01*
X16631544Y12838335D01*
X16628113Y12833453D01*
X16566524Y12675487D01*
X16544394Y12507389D01*
X5236313Y12507389D01*
X5048218Y12938754D01*
X4124394Y15057389D01*
X21844394Y15057389D01*
X21845049Y15051456D01*
X21845049Y15051452D01*
X21859200Y14923273D01*
X21862999Y14888865D01*
X21921266Y14729644D01*
X21924591Y14724695D01*
X21924592Y14724694D01*
X21937378Y14705667D01*
X22015830Y14588917D01*
X22141233Y14474809D01*
X22290235Y14393908D01*
X22336224Y14381843D01*
X22448464Y14352397D01*
X22448468Y14352396D01*
X22454233Y14350884D01*
X22460194Y14350790D01*
X22460197Y14350790D01*
X22538965Y14349553D01*
X22623760Y14348221D01*
X22629575Y14349553D01*
X22629577Y14349553D01*
X22783206Y14384738D01*
X22783209Y14384739D01*
X22789029Y14386072D01*
X22804610Y14393908D01*
X22874042Y14428829D01*
X22940498Y14462253D01*
X22945035Y14466128D01*
X22945038Y14466130D01*
X23064888Y14568492D01*
X23064891Y14568495D01*
X23069423Y14572366D01*
X23107107Y14624809D01*
X23164877Y14705204D01*
X23164878Y14705206D01*
X23168361Y14710053D01*
X23175533Y14727892D01*
X23229377Y14861833D01*
X23229378Y14861835D01*
X23231601Y14867366D01*
X23232644Y14874694D01*
X23251529Y15007389D01*
X23694394Y15007389D01*
X23695049Y15001456D01*
X23695049Y15001452D01*
X23712116Y14846862D01*
X23712999Y14838865D01*
X23771266Y14679644D01*
X23774591Y14674695D01*
X23774592Y14674694D01*
X23802189Y14633625D01*
X23865830Y14538917D01*
X23991233Y14424809D01*
X24140235Y14343908D01*
X24199680Y14328313D01*
X24298464Y14302397D01*
X24298468Y14302396D01*
X24304233Y14300884D01*
X24310194Y14300790D01*
X24310197Y14300790D01*
X24388996Y14299553D01*
X24473760Y14298221D01*
X24479575Y14299553D01*
X24479577Y14299553D01*
X24633206Y14334738D01*
X24633209Y14334739D01*
X24639029Y14336072D01*
X24654610Y14343908D01*
X24730376Y14382015D01*
X24790498Y14412253D01*
X24795035Y14416128D01*
X24795038Y14416130D01*
X24914888Y14518492D01*
X24914891Y14518495D01*
X24919423Y14522366D01*
X24927252Y14533261D01*
X25014877Y14655204D01*
X25014878Y14655206D01*
X25018361Y14660053D01*
X25026413Y14680081D01*
X25037391Y14707389D01*
X30894394Y14707389D01*
X30895049Y14701456D01*
X30895049Y14701452D01*
X30911945Y14548410D01*
X30912999Y14538865D01*
X30971266Y14379644D01*
X30974591Y14374695D01*
X30974592Y14374694D01*
X30987165Y14355983D01*
X31065830Y14238917D01*
X31191233Y14124809D01*
X31340235Y14043908D01*
X31386224Y14031843D01*
X31498464Y14002397D01*
X31498468Y14002396D01*
X31504233Y14000884D01*
X31510194Y14000790D01*
X31510197Y14000790D01*
X31588996Y13999553D01*
X31673760Y13998221D01*
X31679575Y13999553D01*
X31679577Y13999553D01*
X31833206Y14034738D01*
X31833209Y14034739D01*
X31839029Y14036072D01*
X31854610Y14043908D01*
X31925662Y14079644D01*
X31990498Y14112253D01*
X31995035Y14116128D01*
X31995038Y14116130D01*
X32018135Y14135857D01*
X32074663Y14159271D01*
X32134158Y14144987D01*
X32173894Y14098461D01*
X32178694Y14037464D01*
X32174668Y14024617D01*
X32157272Y13980000D01*
X32134802Y13922366D01*
X32116524Y13875487D01*
X32115745Y13869572D01*
X32115745Y13869571D01*
X32110737Y13831526D01*
X32094394Y13707389D01*
X32095049Y13701456D01*
X32095049Y13701452D01*
X32112344Y13544796D01*
X32112999Y13538865D01*
X32171266Y13379644D01*
X32174591Y13374695D01*
X32174592Y13374694D01*
X32184754Y13359571D01*
X32265830Y13238917D01*
X32333459Y13177379D01*
X32375729Y13138917D01*
X32391233Y13124809D01*
X32396482Y13121959D01*
X32407218Y13116130D01*
X32540235Y13043908D01*
X32575189Y13034738D01*
X32698464Y13002397D01*
X32698468Y13002396D01*
X32704233Y13000884D01*
X32710194Y13000790D01*
X32710197Y13000790D01*
X32788965Y12999553D01*
X32873760Y12998221D01*
X32879575Y12999553D01*
X32879577Y12999553D01*
X33033206Y13034738D01*
X33033209Y13034739D01*
X33039029Y13036072D01*
X33054610Y13043908D01*
X33130810Y13082233D01*
X33190498Y13112253D01*
X33195035Y13116128D01*
X33195038Y13116130D01*
X33314888Y13218492D01*
X33314891Y13218495D01*
X33319423Y13222366D01*
X33341003Y13252398D01*
X33414877Y13355204D01*
X33414878Y13355206D01*
X33418361Y13360053D01*
X33423148Y13371959D01*
X33479377Y13511833D01*
X33479378Y13511835D01*
X33481601Y13517366D01*
X33486622Y13552646D01*
X33505034Y13682015D01*
X33505034Y13682021D01*
X33505490Y13685222D01*
X33505645Y13700000D01*
X33493862Y13797366D01*
X33485993Y13862398D01*
X33485992Y13862401D01*
X33485276Y13868320D01*
X33425345Y14026923D01*
X33421846Y14032015D01*
X33332692Y14161733D01*
X33329312Y14166651D01*
X33202721Y14279440D01*
X33052881Y14358776D01*
X32954639Y14383453D01*
X32894231Y14398627D01*
X32894228Y14398627D01*
X32888441Y14400081D01*
X32802841Y14400529D01*
X32724861Y14400938D01*
X32724859Y14400938D01*
X32718895Y14400969D01*
X32713099Y14399577D01*
X32713095Y14399577D01*
X32609454Y14374694D01*
X32554032Y14361388D01*
X32502399Y14334738D01*
X32408675Y14286364D01*
X32408673Y14286362D01*
X32403369Y14283625D01*
X32398867Y14279698D01*
X32398866Y14279697D01*
X32381866Y14264868D01*
X32325587Y14240863D01*
X32265946Y14254523D01*
X32225724Y14300631D01*
X32220286Y14361574D01*
X32224931Y14376397D01*
X32225143Y14376923D01*
X32273905Y14498221D01*
X32279377Y14511833D01*
X32279378Y14511835D01*
X32281601Y14517366D01*
X32282531Y14523901D01*
X32305034Y14682015D01*
X32305034Y14682021D01*
X32305490Y14685222D01*
X32305645Y14700000D01*
X32294281Y14793908D01*
X32285993Y14862398D01*
X32285992Y14862401D01*
X32285276Y14868320D01*
X32225345Y15026923D01*
X32221846Y15032015D01*
X32132692Y15161733D01*
X32129312Y15166651D01*
X32002721Y15279440D01*
X31995505Y15283261D01*
X31933425Y15316130D01*
X31852881Y15358776D01*
X31754639Y15383453D01*
X31694231Y15398627D01*
X31694228Y15398627D01*
X31688441Y15400081D01*
X31602841Y15400529D01*
X31524861Y15400938D01*
X31524859Y15400938D01*
X31518895Y15400969D01*
X31513099Y15399577D01*
X31513095Y15399577D01*
X31419934Y15377210D01*
X31354032Y15361388D01*
X31309368Y15338335D01*
X31208675Y15286364D01*
X31208673Y15286362D01*
X31203369Y15283625D01*
X31075604Y15172169D01*
X31072173Y15167287D01*
X31072172Y15167286D01*
X30981628Y15038455D01*
X30978113Y15033453D01*
X30970053Y15012781D01*
X30934802Y14922366D01*
X30916524Y14875487D01*
X30915745Y14869572D01*
X30915745Y14869571D01*
X30911703Y14838865D01*
X30894394Y14707389D01*
X25037391Y14707389D01*
X25079377Y14811833D01*
X25079378Y14811835D01*
X25081601Y14817366D01*
X25082442Y14823273D01*
X25105034Y14982015D01*
X25105034Y14982021D01*
X25105490Y14985222D01*
X25105645Y15000000D01*
X25092914Y15105204D01*
X25085993Y15162398D01*
X25085992Y15162401D01*
X25085276Y15168320D01*
X25025345Y15326923D01*
X25013672Y15343908D01*
X24932692Y15461733D01*
X24929312Y15466651D01*
X24802721Y15579440D01*
X24652881Y15658776D01*
X24569803Y15679644D01*
X24494231Y15698627D01*
X24494228Y15698627D01*
X24488441Y15700081D01*
X24402841Y15700529D01*
X24324861Y15700938D01*
X24324859Y15700938D01*
X24318895Y15700969D01*
X24313099Y15699577D01*
X24313095Y15699577D01*
X24230072Y15679644D01*
X24154032Y15661388D01*
X24092640Y15629701D01*
X24008675Y15586364D01*
X24008673Y15586362D01*
X24003369Y15583625D01*
X23875604Y15472169D01*
X23872173Y15467287D01*
X23872172Y15467286D01*
X23781544Y15338335D01*
X23778113Y15333453D01*
X23751865Y15266130D01*
X23720320Y15185222D01*
X23716524Y15175487D01*
X23694394Y15007389D01*
X23251529Y15007389D01*
X23255034Y15032015D01*
X23255034Y15032021D01*
X23255490Y15035222D01*
X23255645Y15050000D01*
X23241175Y15169571D01*
X23235993Y15212398D01*
X23235992Y15212401D01*
X23235276Y15218320D01*
X23175345Y15376923D01*
X23171846Y15382015D01*
X23082692Y15511733D01*
X23079312Y15516651D01*
X22952721Y15629440D01*
X22802881Y15708776D01*
X22711049Y15731843D01*
X22644231Y15748627D01*
X22644228Y15748627D01*
X22638441Y15750081D01*
X22552841Y15750529D01*
X22474861Y15750938D01*
X22474859Y15750938D01*
X22468895Y15750969D01*
X22463099Y15749577D01*
X22463095Y15749577D01*
X22368738Y15726923D01*
X22304032Y15711388D01*
X22271886Y15694796D01*
X22158675Y15636364D01*
X22158673Y15636362D01*
X22153369Y15633625D01*
X22025604Y15522169D01*
X22022173Y15517287D01*
X22022172Y15517286D01*
X21935434Y15393870D01*
X21928113Y15383453D01*
X21906073Y15326923D01*
X21871697Y15238754D01*
X21866524Y15225487D01*
X21844394Y15057389D01*
X4124394Y15057389D01*
X3710150Y16007389D01*
X6194394Y16007389D01*
X6195049Y16001456D01*
X6195049Y16001452D01*
X6212126Y15846769D01*
X6212999Y15838865D01*
X6271266Y15679644D01*
X6274591Y15674695D01*
X6274592Y15674694D01*
X6285374Y15658649D01*
X6365830Y15538917D01*
X6444551Y15467286D01*
X6475729Y15438917D01*
X6491233Y15424809D01*
X6496482Y15421959D01*
X6507218Y15416130D01*
X6640235Y15343908D01*
X6686224Y15331843D01*
X6798464Y15302397D01*
X6798468Y15302396D01*
X6804233Y15300884D01*
X6810194Y15300790D01*
X6810197Y15300790D01*
X6888996Y15299553D01*
X6973760Y15298221D01*
X6979575Y15299553D01*
X6979577Y15299553D01*
X7133206Y15334738D01*
X7133209Y15334739D01*
X7139029Y15336072D01*
X7154610Y15343908D01*
X7230376Y15382015D01*
X7290498Y15412253D01*
X7295035Y15416128D01*
X7295038Y15416130D01*
X7414888Y15518492D01*
X7414891Y15518495D01*
X7419423Y15522366D01*
X7450196Y15565191D01*
X7514877Y15655204D01*
X7514878Y15655206D01*
X7518361Y15660053D01*
X7521014Y15666651D01*
X7579377Y15811833D01*
X7579378Y15811835D01*
X7581601Y15817366D01*
X7583863Y15833261D01*
X7605034Y15982015D01*
X7605034Y15982021D01*
X7605490Y15985222D01*
X7605645Y16000000D01*
X7587483Y16150081D01*
X7585993Y16162398D01*
X7585992Y16162401D01*
X7585276Y16168320D01*
X7525345Y16326923D01*
X7510708Y16348221D01*
X7432692Y16461733D01*
X7429312Y16466651D01*
X7302721Y16579440D01*
X7287835Y16587322D01*
X7222416Y16621959D01*
X7152881Y16658776D01*
X7070661Y16679428D01*
X6994231Y16698627D01*
X6994228Y16698627D01*
X6988441Y16700081D01*
X6902841Y16700529D01*
X6824861Y16700938D01*
X6824859Y16700938D01*
X6818895Y16700969D01*
X6813099Y16699577D01*
X6813095Y16699577D01*
X6705703Y16673793D01*
X6654032Y16661388D01*
X6590950Y16628829D01*
X6508675Y16586364D01*
X6508673Y16586362D01*
X6503369Y16583625D01*
X6375604Y16472169D01*
X6372173Y16467287D01*
X6372172Y16467286D01*
X6289428Y16349553D01*
X6278113Y16333453D01*
X6216524Y16175487D01*
X6194394Y16007389D01*
X3710150Y16007389D01*
X2838057Y18007389D01*
X6394394Y18007389D01*
X6395049Y18001456D01*
X6395049Y18001452D01*
X6406446Y17898221D01*
X6412999Y17838865D01*
X6471266Y17679644D01*
X6474591Y17674695D01*
X6474592Y17674694D01*
X6487689Y17655204D01*
X6565830Y17538917D01*
X6691233Y17424809D01*
X6840235Y17343908D01*
X6875189Y17334738D01*
X6998464Y17302397D01*
X6998468Y17302396D01*
X7004233Y17300884D01*
X7010194Y17300790D01*
X7010197Y17300790D01*
X7088996Y17299553D01*
X7173760Y17298221D01*
X7179575Y17299553D01*
X7179577Y17299553D01*
X7333206Y17334738D01*
X7333209Y17334739D01*
X7339029Y17336072D01*
X7344583Y17338865D01*
X7425662Y17379644D01*
X7490498Y17412253D01*
X7495035Y17416128D01*
X7495038Y17416130D01*
X7614888Y17518492D01*
X7614891Y17518495D01*
X7619423Y17522366D01*
X7634875Y17543870D01*
X7714877Y17655204D01*
X7714878Y17655206D01*
X7718361Y17660053D01*
X7721014Y17666651D01*
X7779377Y17811833D01*
X7779378Y17811835D01*
X7781601Y17817366D01*
X7783863Y17833261D01*
X7805034Y17982015D01*
X7805034Y17982021D01*
X7805490Y17985222D01*
X7805645Y18000000D01*
X7793426Y18100969D01*
X7785993Y18162398D01*
X7785992Y18162401D01*
X7785276Y18168320D01*
X7725345Y18326923D01*
X7703835Y18358221D01*
X7632692Y18461733D01*
X7629312Y18466651D01*
X7502721Y18579440D01*
X7352881Y18658776D01*
X7260364Y18682015D01*
X7194231Y18698627D01*
X7194228Y18698627D01*
X7188441Y18700081D01*
X7102841Y18700529D01*
X7024861Y18700938D01*
X7024859Y18700938D01*
X7018895Y18700969D01*
X7013099Y18699577D01*
X7013095Y18699577D01*
X6905703Y18673793D01*
X6854032Y18661388D01*
X6799909Y18633453D01*
X6708675Y18586364D01*
X6708673Y18586362D01*
X6703369Y18583625D01*
X6575604Y18472169D01*
X6572173Y18467287D01*
X6572172Y18467286D01*
X6498455Y18362397D01*
X6478113Y18333453D01*
X6467951Y18307389D01*
X6434802Y18222366D01*
X6416524Y18175487D01*
X6394394Y18007389D01*
X2838057Y18007389D01*
X2375848Y19067389D01*
X4734394Y19067389D01*
X4735049Y19061456D01*
X4735049Y19061452D01*
X4746096Y18961388D01*
X4752999Y18898865D01*
X4811266Y18739644D01*
X4814591Y18734695D01*
X4814592Y18734694D01*
X4832940Y18707389D01*
X4905830Y18598917D01*
X5031233Y18484809D01*
X5180235Y18403908D01*
X5215189Y18394738D01*
X5338464Y18362397D01*
X5338468Y18362396D01*
X5344233Y18360884D01*
X5350194Y18360790D01*
X5350197Y18360790D01*
X5428965Y18359553D01*
X5513760Y18358221D01*
X5519575Y18359553D01*
X5519577Y18359553D01*
X5673206Y18394738D01*
X5673209Y18394739D01*
X5679029Y18396072D01*
X5694610Y18403908D01*
X5809581Y18461733D01*
X5830498Y18472253D01*
X5835035Y18476128D01*
X5835038Y18476130D01*
X5954888Y18578492D01*
X5954891Y18578495D01*
X5959423Y18582366D01*
X5971316Y18598917D01*
X6054877Y18715204D01*
X6054878Y18715206D01*
X6058361Y18720053D01*
X6065924Y18738865D01*
X6119377Y18871833D01*
X6119378Y18871835D01*
X6121601Y18877366D01*
X6124661Y18898865D01*
X6145034Y19042015D01*
X6145034Y19042021D01*
X6145490Y19045222D01*
X6145645Y19060000D01*
X6132259Y19170619D01*
X6125993Y19222398D01*
X6125992Y19222401D01*
X6125276Y19228320D01*
X6065345Y19386923D01*
X6056649Y19399577D01*
X5972692Y19521733D01*
X5969312Y19526651D01*
X5842721Y19639440D01*
X5834283Y19643908D01*
X5803790Y19660053D01*
X5692881Y19718776D01*
X5610661Y19739429D01*
X5534231Y19758627D01*
X5534228Y19758627D01*
X5528441Y19760081D01*
X5442841Y19760529D01*
X5364861Y19760938D01*
X5364859Y19760938D01*
X5358895Y19760969D01*
X5353099Y19759577D01*
X5353095Y19759577D01*
X5266827Y19738865D01*
X5194032Y19721388D01*
X5118700Y19682506D01*
X5048675Y19646364D01*
X5048673Y19646362D01*
X5043369Y19643625D01*
X4915604Y19532169D01*
X4912173Y19527287D01*
X4912172Y19527286D01*
X4822793Y19400112D01*
X4818113Y19393453D01*
X4756524Y19235487D01*
X4755745Y19229572D01*
X4755745Y19229571D01*
X4751618Y19198221D01*
X4734394Y19067389D01*
X2375848Y19067389D01*
X2108252Y19681076D01*
X2100000Y19720645D01*
X2100000Y20507389D01*
X5794394Y20507389D01*
X5795049Y20501456D01*
X5795049Y20501452D01*
X5804818Y20412968D01*
X5812999Y20338865D01*
X5871266Y20179644D01*
X5874591Y20174695D01*
X5874592Y20174694D01*
X5887689Y20155204D01*
X5965830Y20038917D01*
X6091233Y19924809D01*
X6240235Y19843908D01*
X6275189Y19834738D01*
X6398464Y19802397D01*
X6398468Y19802396D01*
X6404233Y19800884D01*
X6410194Y19800790D01*
X6410197Y19800790D01*
X6488996Y19799553D01*
X6573760Y19798221D01*
X6579575Y19799553D01*
X6579577Y19799553D01*
X6733206Y19834738D01*
X6733209Y19834739D01*
X6739029Y19836072D01*
X6744583Y19838865D01*
X6836753Y19885222D01*
X6890498Y19912253D01*
X6895035Y19916128D01*
X6895038Y19916130D01*
X7014888Y20018492D01*
X7014891Y20018495D01*
X7019423Y20022366D01*
X7034875Y20043870D01*
X7114877Y20155204D01*
X7114878Y20155206D01*
X7118361Y20160053D01*
X7121685Y20168320D01*
X7179377Y20311833D01*
X7179378Y20311835D01*
X7181601Y20317366D01*
X7183863Y20333261D01*
X7205034Y20482015D01*
X7205034Y20482021D01*
X7205490Y20485222D01*
X7205645Y20500000D01*
X7190286Y20626923D01*
X7185993Y20662398D01*
X7185992Y20662401D01*
X7185276Y20668320D01*
X7125345Y20826923D01*
X7117138Y20838865D01*
X7032692Y20961733D01*
X7029312Y20966651D01*
X6902721Y21079440D01*
X6752881Y21158776D01*
X6644177Y21186081D01*
X6594231Y21198627D01*
X6594228Y21198627D01*
X6588441Y21200081D01*
X6502841Y21200529D01*
X6424861Y21200938D01*
X6424859Y21200938D01*
X6418895Y21200969D01*
X6413099Y21199577D01*
X6413095Y21199577D01*
X6330072Y21179644D01*
X6254032Y21161388D01*
X6202862Y21134977D01*
X6108675Y21086364D01*
X6108673Y21086362D01*
X6103369Y21083625D01*
X5975604Y20972169D01*
X5972173Y20967287D01*
X5972172Y20967286D01*
X5881544Y20838335D01*
X5878113Y20833453D01*
X5854219Y20772169D01*
X5820320Y20685222D01*
X5816524Y20675487D01*
X5794394Y20507389D01*
X2100000Y20507389D01*
X2100000Y22391000D01*
X2118907Y22449191D01*
X2168407Y22485155D01*
X2199000Y22490000D01*
X4700069Y22490000D01*
X5815375Y22496561D01*
X6364947Y22499794D01*
X6427372Y22478102D01*
X6572834Y22361733D01*
X6895715Y22103428D01*
X6903874Y22096126D01*
X8475835Y20524165D01*
X8504112Y20466074D01*
X8873096Y17421959D01*
X8900000Y17200000D01*
X8997653Y17177465D01*
X9274973Y17113467D01*
X9319340Y17090226D01*
X9378855Y17036072D01*
X9391233Y17024809D01*
X9396479Y17021961D01*
X9396480Y17021960D01*
X9435298Y17000884D01*
X9540235Y16943908D01*
X9587570Y16931490D01*
X9698464Y16902397D01*
X9698468Y16902396D01*
X9704233Y16900884D01*
X9710194Y16900790D01*
X9710197Y16900790D01*
X9788965Y16899553D01*
X9873760Y16898221D01*
X9879575Y16899553D01*
X9879577Y16899553D01*
X10019180Y16931526D01*
X10063542Y16931490D01*
X10194123Y16901356D01*
X10194125Y16901356D01*
X10200000Y16900000D01*
X16890830Y17010592D01*
X17308630Y17017498D01*
X17367125Y16999555D01*
X17392437Y16973729D01*
X17415830Y16938917D01*
X17541233Y16824809D01*
X17690235Y16743908D01*
X17724572Y16734900D01*
X17848464Y16702397D01*
X17848468Y16702396D01*
X17854233Y16700884D01*
X17860194Y16700790D01*
X17860197Y16700790D01*
X17938996Y16699553D01*
X18023760Y16698221D01*
X18029575Y16699553D01*
X18029577Y16699553D01*
X18183206Y16734738D01*
X18183209Y16734739D01*
X18189029Y16736072D01*
X18204610Y16743908D01*
X18317893Y16800884D01*
X18340498Y16812253D01*
X18345035Y16816128D01*
X18345038Y16816130D01*
X18464888Y16918492D01*
X18464891Y16918495D01*
X18469423Y16922366D01*
X18506331Y16973729D01*
X18523532Y16997666D01*
X18572843Y17033888D01*
X18602291Y17038881D01*
X22296490Y17099942D01*
X22303495Y17099810D01*
X26530205Y16870098D01*
X26587283Y16848061D01*
X26607003Y16826461D01*
X26617132Y16811388D01*
X26665830Y16738917D01*
X26791233Y16624809D01*
X26940235Y16543908D01*
X26975189Y16534738D01*
X27098464Y16502397D01*
X27098468Y16502396D01*
X27104233Y16500884D01*
X27110194Y16500790D01*
X27110197Y16500790D01*
X27188996Y16499553D01*
X27273760Y16498221D01*
X27279575Y16499553D01*
X27279577Y16499553D01*
X27433206Y16534738D01*
X27433209Y16534739D01*
X27439029Y16536072D01*
X27454610Y16543908D01*
X27525776Y16579701D01*
X27590498Y16612253D01*
X27595035Y16616128D01*
X27595038Y16616130D01*
X27714886Y16718491D01*
X27719423Y16722366D01*
X27759349Y16777929D01*
X27808657Y16814150D01*
X27842983Y16819104D01*
X34881171Y16588502D01*
X34938710Y16567699D01*
X34944549Y16562785D01*
X34973906Y16536072D01*
X35036144Y16479440D01*
X35041233Y16474809D01*
X35190235Y16393908D01*
X35220234Y16386038D01*
X35348464Y16352397D01*
X35348468Y16352396D01*
X35354233Y16350884D01*
X35360194Y16350790D01*
X35360197Y16350790D01*
X35438965Y16349553D01*
X35523760Y16348221D01*
X35529575Y16349553D01*
X35529577Y16349553D01*
X35683206Y16384738D01*
X35683209Y16384739D01*
X35689029Y16386072D01*
X35704610Y16393908D01*
X35777750Y16430694D01*
X35840498Y16462253D01*
X35845035Y16466128D01*
X35845038Y16466130D01*
X35918230Y16528643D01*
X35974758Y16552058D01*
X35985768Y16552310D01*
X36601535Y16532135D01*
X36659075Y16511332D01*
X36693399Y16460681D01*
X36691395Y16399528D01*
X36675177Y16372469D01*
X36675604Y16372169D01*
X36578113Y16233453D01*
X36556073Y16176923D01*
X36534802Y16122366D01*
X36516524Y16075487D01*
X36494394Y15907389D01*
X36495049Y15901456D01*
X36495049Y15901452D01*
X36511666Y15750938D01*
X36512999Y15738865D01*
X36571266Y15579644D01*
X36574591Y15574695D01*
X36574592Y15574694D01*
X36602305Y15533453D01*
X36665830Y15438917D01*
X36791233Y15324809D01*
X36940235Y15243908D01*
X36999680Y15228313D01*
X37098464Y15202397D01*
X37098468Y15202396D01*
X37104233Y15200884D01*
X37110194Y15200790D01*
X37110197Y15200790D01*
X37188965Y15199553D01*
X37273760Y15198221D01*
X37279575Y15199553D01*
X37279577Y15199553D01*
X37433206Y15234738D01*
X37433209Y15234739D01*
X37439029Y15236072D01*
X37444583Y15238865D01*
X37532854Y15283261D01*
X37590498Y15312253D01*
X37595035Y15316128D01*
X37595038Y15316130D01*
X37714888Y15418492D01*
X37714891Y15418495D01*
X37719423Y15422366D01*
X37723396Y15427894D01*
X37814879Y15555207D01*
X37814880Y15555208D01*
X37818361Y15560053D01*
X37820462Y15565279D01*
X37864971Y15607074D01*
X37925675Y15614741D01*
X37973747Y15590720D01*
X37991233Y15574809D01*
X38140235Y15493908D01*
X38199680Y15478313D01*
X38298464Y15452397D01*
X38298468Y15452396D01*
X38304233Y15450884D01*
X38310194Y15450790D01*
X38310197Y15450790D01*
X38354600Y15450093D01*
X38358087Y15450038D01*
X38415974Y15430219D01*
X38451156Y15380160D01*
X38454934Y15361914D01*
X38461966Y15298221D01*
X38462999Y15288865D01*
X38521266Y15129644D01*
X38524591Y15124695D01*
X38524592Y15124694D01*
X38541131Y15100081D01*
X38615830Y14988917D01*
X38741233Y14874809D01*
X38857406Y14811733D01*
X38859288Y14810711D01*
X38901406Y14766329D01*
X38909392Y14705667D01*
X38880197Y14651896D01*
X38863430Y14639979D01*
X38863608Y14639716D01*
X38858675Y14636364D01*
X38853369Y14633625D01*
X38848871Y14629701D01*
X38734124Y14529601D01*
X38725604Y14522169D01*
X38722173Y14517287D01*
X38722172Y14517286D01*
X38631628Y14388455D01*
X38628113Y14383453D01*
X38613810Y14346769D01*
X38586013Y14275472D01*
X38566524Y14225487D01*
X38565745Y14219572D01*
X38565745Y14219571D01*
X38561703Y14188865D01*
X38544394Y14057389D01*
X38545049Y14051456D01*
X38545049Y14051452D01*
X38559728Y13918492D01*
X38562999Y13888865D01*
X38621266Y13729644D01*
X38624591Y13724695D01*
X38624592Y13724694D01*
X38637689Y13705204D01*
X38715830Y13588917D01*
X38797174Y13514900D01*
X38825729Y13488917D01*
X38841233Y13474809D01*
X38846482Y13471959D01*
X38857218Y13466130D01*
X38990235Y13393908D01*
X39025189Y13384738D01*
X39148464Y13352397D01*
X39148468Y13352396D01*
X39154233Y13350884D01*
X39160194Y13350790D01*
X39160197Y13350790D01*
X39238996Y13349553D01*
X39323760Y13348221D01*
X39329575Y13349553D01*
X39329577Y13349553D01*
X39483206Y13384738D01*
X39483209Y13384739D01*
X39489029Y13386072D01*
X39504610Y13393908D01*
X39593996Y13438865D01*
X39640498Y13462253D01*
X39645035Y13466128D01*
X39645038Y13466130D01*
X39764888Y13568492D01*
X39764891Y13568495D01*
X39769423Y13572366D01*
X39773579Y13578150D01*
X39864877Y13705204D01*
X39864878Y13705206D01*
X39866447Y13707389D01*
X50544394Y13707389D01*
X50545049Y13701456D01*
X50545049Y13701452D01*
X50562344Y13544796D01*
X50562999Y13538865D01*
X50621266Y13379644D01*
X50624591Y13374695D01*
X50624592Y13374694D01*
X50634754Y13359571D01*
X50715830Y13238917D01*
X50783459Y13177379D01*
X50825729Y13138917D01*
X50841233Y13124809D01*
X50846482Y13121959D01*
X50857218Y13116130D01*
X50990235Y13043908D01*
X51025189Y13034738D01*
X51148464Y13002397D01*
X51148468Y13002396D01*
X51154233Y13000884D01*
X51160194Y13000790D01*
X51160197Y13000790D01*
X51238965Y12999553D01*
X51323760Y12998221D01*
X51329575Y12999553D01*
X51329577Y12999553D01*
X51483206Y13034738D01*
X51483209Y13034739D01*
X51489029Y13036072D01*
X51504610Y13043908D01*
X51580810Y13082233D01*
X51640498Y13112253D01*
X51645035Y13116128D01*
X51645038Y13116130D01*
X51764888Y13218492D01*
X51764891Y13218495D01*
X51769423Y13222366D01*
X51791003Y13252398D01*
X51864877Y13355204D01*
X51864878Y13355206D01*
X51868361Y13360053D01*
X51873148Y13371959D01*
X51929377Y13511833D01*
X51929378Y13511835D01*
X51931601Y13517366D01*
X51936622Y13552646D01*
X51955034Y13682015D01*
X51955034Y13682021D01*
X51955490Y13685222D01*
X51955645Y13700000D01*
X51943862Y13797366D01*
X51935993Y13862398D01*
X51935992Y13862401D01*
X51935276Y13868320D01*
X51890284Y13987389D01*
X52334394Y13987389D01*
X52335049Y13981456D01*
X52335049Y13981452D01*
X52348193Y13862398D01*
X52352999Y13818865D01*
X52411266Y13659644D01*
X52414591Y13654695D01*
X52414592Y13654694D01*
X52446380Y13607389D01*
X52505830Y13518917D01*
X52631233Y13404809D01*
X52780235Y13323908D01*
X52815189Y13314738D01*
X52938464Y13282397D01*
X52938468Y13282396D01*
X52944233Y13280884D01*
X52950194Y13280790D01*
X52950197Y13280790D01*
X53028996Y13279553D01*
X53113760Y13278221D01*
X53119575Y13279553D01*
X53119577Y13279553D01*
X53273206Y13314738D01*
X53273209Y13314739D01*
X53279029Y13316072D01*
X53287826Y13320496D01*
X53376311Y13365000D01*
X53430498Y13392253D01*
X53435035Y13396128D01*
X53435038Y13396130D01*
X53554888Y13498492D01*
X53554891Y13498495D01*
X53559423Y13502366D01*
X53574875Y13523870D01*
X53634890Y13607389D01*
X84394394Y13607389D01*
X84395049Y13601456D01*
X84395049Y13601452D01*
X84409031Y13474809D01*
X84412999Y13438865D01*
X84471266Y13279644D01*
X84474591Y13274695D01*
X84474592Y13274694D01*
X84506500Y13227210D01*
X84565830Y13138917D01*
X84691233Y13024809D01*
X84840235Y12943908D01*
X84875189Y12934738D01*
X84998464Y12902397D01*
X84998468Y12902396D01*
X85004233Y12900884D01*
X85010194Y12900790D01*
X85010197Y12900790D01*
X85088965Y12899553D01*
X85173760Y12898221D01*
X85179575Y12899553D01*
X85179577Y12899553D01*
X85333206Y12934738D01*
X85333209Y12934739D01*
X85339029Y12936072D01*
X85354610Y12943908D01*
X85467893Y13000884D01*
X85490498Y13012253D01*
X85495035Y13016128D01*
X85495038Y13016130D01*
X85614888Y13118492D01*
X85614891Y13118495D01*
X85619423Y13122366D01*
X85676777Y13202182D01*
X85714877Y13255204D01*
X85714878Y13255206D01*
X85718361Y13260053D01*
X85720588Y13265592D01*
X85720590Y13265596D01*
X85758309Y13359423D01*
X85797556Y13406361D01*
X85856898Y13421267D01*
X85913668Y13398445D01*
X85943134Y13356518D01*
X85969215Y13285247D01*
X85969217Y13285244D01*
X85971266Y13279644D01*
X85974591Y13274695D01*
X85974592Y13274694D01*
X86006500Y13227210D01*
X86065830Y13138917D01*
X86191233Y13024809D01*
X86340235Y12943908D01*
X86375189Y12934738D01*
X86498464Y12902397D01*
X86498468Y12902396D01*
X86504233Y12900884D01*
X86510194Y12900790D01*
X86510197Y12900790D01*
X86588965Y12899553D01*
X86673760Y12898221D01*
X86679575Y12899553D01*
X86679577Y12899553D01*
X86833206Y12934738D01*
X86833209Y12934739D01*
X86839029Y12936072D01*
X86854610Y12943908D01*
X86967893Y13000884D01*
X86990498Y13012253D01*
X86995035Y13016128D01*
X86995038Y13016130D01*
X87114888Y13118492D01*
X87114891Y13118495D01*
X87119423Y13122366D01*
X87176777Y13202182D01*
X87214877Y13255204D01*
X87214878Y13255206D01*
X87218361Y13260053D01*
X87220590Y13265596D01*
X87279377Y13411833D01*
X87279378Y13411835D01*
X87281601Y13417366D01*
X87287608Y13459571D01*
X87305034Y13582015D01*
X87305034Y13582021D01*
X87305490Y13585222D01*
X87305645Y13600000D01*
X87292914Y13705204D01*
X87285993Y13762398D01*
X87285992Y13762401D01*
X87285276Y13768320D01*
X87225345Y13926923D01*
X87221846Y13932015D01*
X87132692Y14061733D01*
X87129312Y14066651D01*
X87002721Y14179440D01*
X86995505Y14183261D01*
X86929289Y14218320D01*
X86852881Y14258776D01*
X86754639Y14283453D01*
X86694231Y14298627D01*
X86694228Y14298627D01*
X86688441Y14300081D01*
X86602841Y14300529D01*
X86524861Y14300938D01*
X86524859Y14300938D01*
X86518895Y14300969D01*
X86513099Y14299577D01*
X86513095Y14299577D01*
X86418738Y14276923D01*
X86354032Y14261388D01*
X86284475Y14225487D01*
X86208675Y14186364D01*
X86208673Y14186362D01*
X86203369Y14183625D01*
X86075604Y14072169D01*
X86072173Y14067287D01*
X86072172Y14067286D01*
X85985434Y13943870D01*
X85978113Y13933453D01*
X85942180Y13841290D01*
X85903429Y13793947D01*
X85844246Y13778420D01*
X85787241Y13800646D01*
X85757336Y13842262D01*
X85727454Y13921341D01*
X85725345Y13926923D01*
X85721846Y13932015D01*
X85632692Y14061733D01*
X85629312Y14066651D01*
X85502721Y14179440D01*
X85495505Y14183261D01*
X85429289Y14218320D01*
X85352881Y14258776D01*
X85254639Y14283453D01*
X85194231Y14298627D01*
X85194228Y14298627D01*
X85188441Y14300081D01*
X85102841Y14300529D01*
X85024861Y14300938D01*
X85024859Y14300938D01*
X85018895Y14300969D01*
X85013099Y14299577D01*
X85013095Y14299577D01*
X84918738Y14276923D01*
X84854032Y14261388D01*
X84784475Y14225487D01*
X84708675Y14186364D01*
X84708673Y14186362D01*
X84703369Y14183625D01*
X84575604Y14072169D01*
X84572173Y14067287D01*
X84572172Y14067286D01*
X84485434Y13943870D01*
X84478113Y13933453D01*
X84450410Y13862398D01*
X84433437Y13818865D01*
X84416524Y13775487D01*
X84394394Y13607389D01*
X53634890Y13607389D01*
X53654877Y13635204D01*
X53654878Y13635206D01*
X53658361Y13640053D01*
X53661683Y13648315D01*
X53719377Y13791833D01*
X53719378Y13791835D01*
X53721601Y13797366D01*
X53723863Y13813261D01*
X53745034Y13962015D01*
X53745034Y13962021D01*
X53745490Y13965222D01*
X53745645Y13980000D01*
X53729623Y14112398D01*
X53725993Y14142398D01*
X53725992Y14142401D01*
X53725276Y14148320D01*
X53665345Y14306923D01*
X53646229Y14334738D01*
X53596296Y14407389D01*
X62894394Y14407389D01*
X62895049Y14401456D01*
X62895049Y14401452D01*
X62910512Y14261388D01*
X62912999Y14238865D01*
X62971266Y14079644D01*
X62974591Y14074695D01*
X62974592Y14074694D01*
X63000545Y14036072D01*
X63065830Y13938917D01*
X63191233Y13824809D01*
X63196482Y13821959D01*
X63207218Y13816130D01*
X63340235Y13743908D01*
X63375189Y13734738D01*
X63498464Y13702397D01*
X63498468Y13702396D01*
X63504233Y13700884D01*
X63510194Y13700790D01*
X63510197Y13700790D01*
X63588996Y13699553D01*
X63673760Y13698221D01*
X63679575Y13699553D01*
X63679577Y13699553D01*
X63833206Y13734738D01*
X63833209Y13734739D01*
X63839029Y13736072D01*
X63854610Y13743908D01*
X63949897Y13791833D01*
X63990498Y13812253D01*
X63995035Y13816128D01*
X63995038Y13816130D01*
X64114888Y13918492D01*
X64114891Y13918495D01*
X64119423Y13922366D01*
X64126233Y13931843D01*
X64214877Y14055204D01*
X64214878Y14055206D01*
X64218361Y14060053D01*
X64221014Y14066651D01*
X64279377Y14211833D01*
X64279378Y14211835D01*
X64281601Y14217366D01*
X64282757Y14225487D01*
X64305034Y14382015D01*
X64305034Y14382021D01*
X64305490Y14385222D01*
X64305645Y14400000D01*
X64304751Y14407389D01*
X67594394Y14407389D01*
X67595049Y14401456D01*
X67595049Y14401452D01*
X67610512Y14261388D01*
X67612999Y14238865D01*
X67671266Y14079644D01*
X67674591Y14074695D01*
X67674592Y14074694D01*
X67700545Y14036072D01*
X67765830Y13938917D01*
X67891233Y13824809D01*
X67896482Y13821959D01*
X67907218Y13816130D01*
X68040235Y13743908D01*
X68075189Y13734738D01*
X68198464Y13702397D01*
X68198468Y13702396D01*
X68204233Y13700884D01*
X68210194Y13700790D01*
X68210197Y13700790D01*
X68288996Y13699553D01*
X68373760Y13698221D01*
X68379575Y13699553D01*
X68379577Y13699553D01*
X68533206Y13734738D01*
X68533209Y13734739D01*
X68539029Y13736072D01*
X68554610Y13743908D01*
X68649897Y13791833D01*
X68690498Y13812253D01*
X68695035Y13816128D01*
X68695038Y13816130D01*
X68814888Y13918492D01*
X68814891Y13918495D01*
X68819423Y13922366D01*
X68826233Y13931843D01*
X68914877Y14055204D01*
X68914878Y14055206D01*
X68918361Y14060053D01*
X68921014Y14066651D01*
X68979377Y14211833D01*
X68979378Y14211835D01*
X68981601Y14217366D01*
X68982757Y14225487D01*
X69005034Y14382015D01*
X69005034Y14382021D01*
X69005490Y14385222D01*
X69005645Y14400000D01*
X68993254Y14502397D01*
X68985993Y14562398D01*
X68985992Y14562401D01*
X68985276Y14568320D01*
X68925345Y14726923D01*
X68921710Y14732213D01*
X68832692Y14861733D01*
X68829312Y14866651D01*
X68702721Y14979440D01*
X68552881Y15058776D01*
X68460364Y15082015D01*
X68394231Y15098627D01*
X68394228Y15098627D01*
X68388441Y15100081D01*
X68302841Y15100529D01*
X68224861Y15100938D01*
X68224859Y15100938D01*
X68218895Y15100969D01*
X68213099Y15099577D01*
X68213095Y15099577D01*
X68130072Y15079644D01*
X68054032Y15061388D01*
X67999909Y15033453D01*
X67908675Y14986364D01*
X67908673Y14986362D01*
X67903369Y14983625D01*
X67775604Y14872169D01*
X67772173Y14867287D01*
X67772172Y14867286D01*
X67681544Y14738335D01*
X67678113Y14733453D01*
X67663810Y14696769D01*
X67634802Y14622366D01*
X67616524Y14575487D01*
X67615745Y14569572D01*
X67615745Y14569571D01*
X67612367Y14543908D01*
X67594394Y14407389D01*
X64304751Y14407389D01*
X64293254Y14502397D01*
X64285993Y14562398D01*
X64285992Y14562401D01*
X64285276Y14568320D01*
X64225345Y14726923D01*
X64221710Y14732213D01*
X64132692Y14861733D01*
X64129312Y14866651D01*
X64002721Y14979440D01*
X63852881Y15058776D01*
X63760364Y15082015D01*
X63694231Y15098627D01*
X63694228Y15098627D01*
X63688441Y15100081D01*
X63602841Y15100529D01*
X63524861Y15100938D01*
X63524859Y15100938D01*
X63518895Y15100969D01*
X63513099Y15099577D01*
X63513095Y15099577D01*
X63430072Y15079644D01*
X63354032Y15061388D01*
X63299909Y15033453D01*
X63208675Y14986364D01*
X63208673Y14986362D01*
X63203369Y14983625D01*
X63075604Y14872169D01*
X63072173Y14867287D01*
X63072172Y14867286D01*
X62981544Y14738335D01*
X62978113Y14733453D01*
X62963810Y14696769D01*
X62934802Y14622366D01*
X62916524Y14575487D01*
X62915745Y14569572D01*
X62915745Y14569571D01*
X62912367Y14543908D01*
X62894394Y14407389D01*
X53596296Y14407389D01*
X53572692Y14441733D01*
X53569312Y14446651D01*
X53442721Y14559440D01*
X53437135Y14562398D01*
X53346795Y14610230D01*
X53292881Y14638776D01*
X53208175Y14660053D01*
X53134231Y14678627D01*
X53134228Y14678627D01*
X53128441Y14680081D01*
X53042841Y14680529D01*
X52964861Y14680938D01*
X52964859Y14680938D01*
X52958895Y14680969D01*
X52953099Y14679577D01*
X52953095Y14679577D01*
X52851578Y14655204D01*
X52794032Y14641388D01*
X52730601Y14608649D01*
X52648675Y14566364D01*
X52648673Y14566362D01*
X52643369Y14563625D01*
X52515604Y14452169D01*
X52512173Y14447287D01*
X52512172Y14447286D01*
X52421544Y14318335D01*
X52418113Y14313453D01*
X52390983Y14243870D01*
X52363459Y14173273D01*
X52356524Y14155487D01*
X52355745Y14149572D01*
X52355745Y14149571D01*
X52352485Y14124809D01*
X52334394Y13987389D01*
X51890284Y13987389D01*
X51875345Y14026923D01*
X51871846Y14032015D01*
X51782692Y14161733D01*
X51779312Y14166651D01*
X51652721Y14279440D01*
X51502881Y14358776D01*
X51404639Y14383453D01*
X51344231Y14398627D01*
X51344228Y14398627D01*
X51338441Y14400081D01*
X51252841Y14400529D01*
X51174861Y14400938D01*
X51174859Y14400938D01*
X51168895Y14400969D01*
X51163099Y14399577D01*
X51163095Y14399577D01*
X51059454Y14374694D01*
X51004032Y14361388D01*
X50952399Y14334738D01*
X50858675Y14286364D01*
X50858673Y14286362D01*
X50853369Y14283625D01*
X50725604Y14172169D01*
X50722173Y14167287D01*
X50722172Y14167286D01*
X50631628Y14038455D01*
X50628113Y14033453D01*
X50607272Y13980000D01*
X50584802Y13922366D01*
X50566524Y13875487D01*
X50565745Y13869572D01*
X50565745Y13869571D01*
X50560737Y13831526D01*
X50544394Y13707389D01*
X39866447Y13707389D01*
X39868361Y13710053D01*
X39878285Y13734738D01*
X39929377Y13861833D01*
X39929378Y13861835D01*
X39931601Y13867366D01*
X39933002Y13877210D01*
X39955034Y14032015D01*
X39955034Y14032021D01*
X39955490Y14035222D01*
X39955645Y14050000D01*
X39941442Y14167366D01*
X39935993Y14212398D01*
X39935992Y14212401D01*
X39935276Y14218320D01*
X39875345Y14376923D01*
X39871846Y14382015D01*
X39782692Y14511733D01*
X39779312Y14516651D01*
X39652721Y14629440D01*
X39642409Y14634900D01*
X39541603Y14688274D01*
X39499023Y14732213D01*
X39490402Y14792788D01*
X39519033Y14846862D01*
X39533141Y14858226D01*
X39535166Y14859571D01*
X39540498Y14862253D01*
X39545035Y14866128D01*
X39545038Y14866130D01*
X39664888Y14968492D01*
X39664891Y14968495D01*
X39669423Y14972366D01*
X39674694Y14979701D01*
X39764877Y15105204D01*
X39764878Y15105206D01*
X39768361Y15110053D01*
X39783743Y15148315D01*
X39829377Y15261833D01*
X39829378Y15261835D01*
X39831601Y15267366D01*
X39832531Y15273901D01*
X39855034Y15432015D01*
X39855034Y15432021D01*
X39855490Y15435222D01*
X39855645Y15450000D01*
X39840651Y15573901D01*
X39835993Y15612398D01*
X39835992Y15612401D01*
X39835276Y15618320D01*
X39775345Y15776923D01*
X39768857Y15786364D01*
X39682692Y15911733D01*
X39679312Y15916651D01*
X39552721Y16029440D01*
X39402881Y16108776D01*
X39320661Y16129429D01*
X39244231Y16148627D01*
X39244228Y16148627D01*
X39238441Y16150081D01*
X39204968Y16150256D01*
X39192829Y16150320D01*
X39134738Y16169532D01*
X39099034Y16219220D01*
X39095065Y16237426D01*
X39085993Y16312397D01*
X39085993Y16312399D01*
X39085276Y16318320D01*
X39083167Y16323901D01*
X39082893Y16325017D01*
X39087374Y16386038D01*
X39126866Y16432771D01*
X39182276Y16447579D01*
X42835224Y16327892D01*
X43263065Y16313874D01*
X43263069Y16313874D01*
X43263585Y16313857D01*
X44637587Y16297101D01*
X46926746Y16269184D01*
X46984702Y16249568D01*
X47007710Y16225408D01*
X47045258Y16169532D01*
X47065830Y16138917D01*
X47138096Y16073160D01*
X47168411Y16020013D01*
X47161697Y15959197D01*
X47136548Y15925334D01*
X47105576Y15898315D01*
X47075604Y15872169D01*
X47072173Y15867287D01*
X47072172Y15867286D01*
X46981544Y15738335D01*
X46978113Y15733453D01*
X46952315Y15667286D01*
X46929027Y15607554D01*
X46916524Y15575487D01*
X46915745Y15569572D01*
X46915745Y15569571D01*
X46914801Y15562398D01*
X46894394Y15407389D01*
X46895049Y15401456D01*
X46895049Y15401452D01*
X46909031Y15274809D01*
X46912999Y15238865D01*
X46971266Y15079644D01*
X46974591Y15074695D01*
X46974592Y15074694D01*
X46991131Y15050081D01*
X47065830Y14938917D01*
X47191233Y14824809D01*
X47340235Y14743908D01*
X47384814Y14732213D01*
X47498464Y14702397D01*
X47498468Y14702396D01*
X47504233Y14700884D01*
X47510194Y14700790D01*
X47510197Y14700790D01*
X47588965Y14699553D01*
X47673760Y14698221D01*
X47679575Y14699553D01*
X47679577Y14699553D01*
X47833206Y14734738D01*
X47833209Y14734739D01*
X47839029Y14736072D01*
X47854610Y14743908D01*
X47925662Y14779644D01*
X47990498Y14812253D01*
X47995035Y14816128D01*
X47995038Y14816130D01*
X48114888Y14918492D01*
X48114891Y14918495D01*
X48119423Y14922366D01*
X48127252Y14933261D01*
X48214877Y15055204D01*
X48214878Y15055206D01*
X48218361Y15060053D01*
X48234453Y15100081D01*
X48279377Y15211833D01*
X48279378Y15211835D01*
X48281601Y15217366D01*
X48282757Y15225487D01*
X48305034Y15382015D01*
X48305034Y15382021D01*
X48305490Y15385222D01*
X48305645Y15400000D01*
X48291306Y15518492D01*
X48285993Y15562398D01*
X48285992Y15562401D01*
X48285276Y15568320D01*
X48225345Y15726923D01*
X48217138Y15738865D01*
X48132692Y15861733D01*
X48129312Y15866651D01*
X48062668Y15926029D01*
X48031798Y15978856D01*
X48037876Y16039739D01*
X48064230Y16075226D01*
X48114887Y16118492D01*
X48119423Y16122366D01*
X48183573Y16211641D01*
X48232882Y16247862D01*
X48265175Y16252862D01*
X51463585Y16213857D01*
X61350866Y16437557D01*
X64715476Y16513681D01*
X64774079Y16496094D01*
X64811154Y16447421D01*
X64812604Y16442445D01*
X64812999Y16438865D01*
X64871266Y16279644D01*
X64874591Y16274695D01*
X64874592Y16274694D01*
X64891476Y16249568D01*
X64965830Y16138917D01*
X65091233Y16024809D01*
X65240235Y15943908D01*
X65275189Y15934738D01*
X65398464Y15902397D01*
X65398468Y15902396D01*
X65404233Y15900884D01*
X65410194Y15900790D01*
X65410197Y15900790D01*
X65488996Y15899553D01*
X65573760Y15898221D01*
X65579575Y15899553D01*
X65579577Y15899553D01*
X65733206Y15934738D01*
X65733209Y15934739D01*
X65739029Y15936072D01*
X65754610Y15943908D01*
X65830376Y15982015D01*
X65890498Y16012253D01*
X65895035Y16016128D01*
X65895038Y16016130D01*
X66014888Y16118492D01*
X66014891Y16118495D01*
X66019423Y16122366D01*
X66034875Y16143870D01*
X66114877Y16255204D01*
X66114878Y16255206D01*
X66118361Y16260053D01*
X66124153Y16274459D01*
X66179377Y16411833D01*
X66179378Y16411835D01*
X66181601Y16417366D01*
X66183320Y16429440D01*
X66185901Y16447579D01*
X66188258Y16464144D01*
X66215175Y16519090D01*
X66269248Y16547721D01*
X66284028Y16549170D01*
X66679791Y16558124D01*
X66738393Y16540537D01*
X66775468Y16491864D01*
X66776851Y16430694D01*
X66747110Y16384547D01*
X66675604Y16322169D01*
X66672173Y16317287D01*
X66672172Y16317286D01*
X66609345Y16227892D01*
X66578113Y16183453D01*
X66572213Y16168320D01*
X66538187Y16081048D01*
X66516524Y16025487D01*
X66494394Y15857389D01*
X66495049Y15851456D01*
X66495049Y15851452D01*
X66511666Y15700938D01*
X66512999Y15688865D01*
X66571266Y15529644D01*
X66574591Y15524695D01*
X66574592Y15524694D01*
X66596297Y15492394D01*
X66665830Y15388917D01*
X66791233Y15274809D01*
X66940235Y15193908D01*
X66999680Y15178313D01*
X67098464Y15152397D01*
X67098468Y15152396D01*
X67104233Y15150884D01*
X67110194Y15150790D01*
X67110197Y15150790D01*
X67188965Y15149553D01*
X67273760Y15148221D01*
X67279575Y15149553D01*
X67279577Y15149553D01*
X67433206Y15184738D01*
X67433209Y15184739D01*
X67439029Y15186072D01*
X67454610Y15193908D01*
X67481414Y15207389D01*
X69694394Y15207389D01*
X69695049Y15201456D01*
X69695049Y15201452D01*
X69711816Y15049577D01*
X69712999Y15038865D01*
X69771266Y14879644D01*
X69774591Y14874695D01*
X69774592Y14874694D01*
X69785483Y14858486D01*
X69865830Y14738917D01*
X69936410Y14674694D01*
X69975729Y14638917D01*
X69991233Y14624809D01*
X69996482Y14621959D01*
X70013386Y14612781D01*
X70140235Y14543908D01*
X70174572Y14534900D01*
X70298464Y14502397D01*
X70298468Y14502396D01*
X70304233Y14500884D01*
X70310194Y14500790D01*
X70310197Y14500790D01*
X70388996Y14499553D01*
X70473760Y14498221D01*
X70479575Y14499553D01*
X70479577Y14499553D01*
X70633206Y14534738D01*
X70633209Y14534739D01*
X70639029Y14536072D01*
X70644366Y14538756D01*
X70663562Y14548410D01*
X70724044Y14557665D01*
X70778414Y14529601D01*
X70805905Y14474940D01*
X70806197Y14447044D01*
X70794394Y14357389D01*
X70795049Y14351456D01*
X70795049Y14351452D01*
X70808342Y14231048D01*
X70812999Y14188865D01*
X70871266Y14029644D01*
X70874591Y14024695D01*
X70874592Y14024694D01*
X70915840Y13963310D01*
X70965830Y13888917D01*
X71091233Y13774809D01*
X71240235Y13693908D01*
X71299680Y13678313D01*
X71398464Y13652397D01*
X71398468Y13652396D01*
X71404233Y13650884D01*
X71410194Y13650790D01*
X71410197Y13650790D01*
X71488996Y13649553D01*
X71573760Y13648221D01*
X71579575Y13649553D01*
X71579577Y13649553D01*
X71733206Y13684738D01*
X71733209Y13684739D01*
X71739029Y13686072D01*
X71754610Y13693908D01*
X71825662Y13729644D01*
X71890498Y13762253D01*
X71895035Y13766128D01*
X71895038Y13766130D01*
X72014888Y13868492D01*
X72014891Y13868495D01*
X72019423Y13872366D01*
X72058626Y13926923D01*
X72114877Y14005204D01*
X72114878Y14005206D01*
X72118361Y14010053D01*
X72125533Y14027892D01*
X72179377Y14161833D01*
X72179378Y14161835D01*
X72181601Y14167366D01*
X72182843Y14176092D01*
X72205034Y14332015D01*
X72205034Y14332021D01*
X72205490Y14335222D01*
X72205645Y14350000D01*
X72193281Y14452169D01*
X72185993Y14512398D01*
X72185992Y14512401D01*
X72185276Y14518320D01*
X72125345Y14676923D01*
X72121846Y14682015D01*
X72032692Y14811733D01*
X72029312Y14816651D01*
X71902721Y14929440D01*
X71895505Y14933261D01*
X71828964Y14968492D01*
X71752881Y15008776D01*
X71660364Y15032015D01*
X71594231Y15048627D01*
X71594228Y15048627D01*
X71588441Y15050081D01*
X71502841Y15050529D01*
X71424861Y15050938D01*
X71424859Y15050938D01*
X71418895Y15050969D01*
X71413099Y15049577D01*
X71413095Y15049577D01*
X71318738Y15026923D01*
X71254032Y15011388D01*
X71237457Y15002833D01*
X71177077Y14992944D01*
X71122416Y15020434D01*
X71094352Y15074804D01*
X71094038Y15104754D01*
X71105034Y15182015D01*
X71105034Y15182021D01*
X71105490Y15185222D01*
X71105645Y15200000D01*
X71093254Y15302397D01*
X71085993Y15362398D01*
X71085992Y15362401D01*
X71085276Y15368320D01*
X71025345Y15526923D01*
X71019627Y15535244D01*
X70932692Y15661733D01*
X70929312Y15666651D01*
X70802721Y15779440D01*
X70652881Y15858776D01*
X70570661Y15879429D01*
X70494231Y15898627D01*
X70494228Y15898627D01*
X70488441Y15900081D01*
X70402841Y15900529D01*
X70324861Y15900938D01*
X70324859Y15900938D01*
X70318895Y15900969D01*
X70313099Y15899577D01*
X70313095Y15899577D01*
X70215277Y15876092D01*
X70154032Y15861388D01*
X70099537Y15833261D01*
X70008675Y15786364D01*
X70008673Y15786362D01*
X70003369Y15783625D01*
X69875604Y15672169D01*
X69872173Y15667287D01*
X69872172Y15667286D01*
X69806540Y15573901D01*
X69778113Y15533453D01*
X69762105Y15492394D01*
X69720320Y15385222D01*
X69716524Y15375487D01*
X69694394Y15207389D01*
X67481414Y15207389D01*
X67532854Y15233261D01*
X67590498Y15262253D01*
X67595035Y15266128D01*
X67595038Y15266130D01*
X67714888Y15368492D01*
X67714891Y15368495D01*
X67719423Y15372366D01*
X67726233Y15381843D01*
X67814877Y15505204D01*
X67814878Y15505206D01*
X67818361Y15510053D01*
X67821014Y15516651D01*
X67879377Y15661833D01*
X67879378Y15661835D01*
X67881601Y15667366D01*
X67882843Y15676092D01*
X67905034Y15832015D01*
X67905034Y15832021D01*
X67905490Y15835222D01*
X67905645Y15850000D01*
X67889981Y15979440D01*
X67885993Y16012398D01*
X67885992Y16012401D01*
X67885276Y16018320D01*
X67825345Y16176923D01*
X67801486Y16211639D01*
X67732692Y16311733D01*
X67729312Y16316651D01*
X67626678Y16408095D01*
X67595808Y16460922D01*
X67601885Y16521805D01*
X67642588Y16567488D01*
X67690295Y16580986D01*
X67970313Y16587322D01*
X67976592Y16587264D01*
X68321904Y16573073D01*
X68413984Y16569289D01*
X68471349Y16548008D01*
X68505250Y16497073D01*
X68508321Y16481236D01*
X68510591Y16460681D01*
X68512999Y16438865D01*
X68515048Y16433265D01*
X68515049Y16433262D01*
X68532331Y16386038D01*
X68571266Y16279644D01*
X68574591Y16274695D01*
X68574592Y16274694D01*
X68591476Y16249568D01*
X68665830Y16138917D01*
X68791233Y16024809D01*
X68940235Y15943908D01*
X68975189Y15934738D01*
X69098464Y15902397D01*
X69098468Y15902396D01*
X69104233Y15900884D01*
X69110194Y15900790D01*
X69110197Y15900790D01*
X69188996Y15899553D01*
X69273760Y15898221D01*
X69279575Y15899553D01*
X69279577Y15899553D01*
X69433206Y15934738D01*
X69433209Y15934739D01*
X69439029Y15936072D01*
X69454610Y15943908D01*
X69530376Y15982015D01*
X69590498Y16012253D01*
X69595035Y16016128D01*
X69595038Y16016130D01*
X69714888Y16118492D01*
X69714891Y16118495D01*
X69719423Y16122366D01*
X69734875Y16143870D01*
X69814877Y16255204D01*
X69814878Y16255206D01*
X69818361Y16260053D01*
X69824153Y16274459D01*
X69879377Y16411833D01*
X69879378Y16411835D01*
X69881601Y16417366D01*
X69882442Y16423273D01*
X69883986Y16429037D01*
X69886186Y16428448D01*
X69908857Y16474738D01*
X69962928Y16503374D01*
X69984023Y16504767D01*
X73691692Y16352397D01*
X74039172Y16338117D01*
X74096537Y16316836D01*
X74130438Y16265901D01*
X74127344Y16203239D01*
X74116524Y16175487D01*
X74094394Y16007389D01*
X74095049Y16001456D01*
X74095049Y16001452D01*
X74112126Y15846769D01*
X74112999Y15838865D01*
X74171266Y15679644D01*
X74174591Y15674695D01*
X74174592Y15674694D01*
X74221235Y15605282D01*
X74237998Y15546437D01*
X74220061Y15493140D01*
X74181544Y15438336D01*
X74181541Y15438331D01*
X74178113Y15433453D01*
X74116524Y15275487D01*
X74115745Y15269572D01*
X74115745Y15269571D01*
X74112367Y15243908D01*
X74094394Y15107389D01*
X74095049Y15101456D01*
X74095049Y15101452D01*
X74109300Y14972366D01*
X74112999Y14938865D01*
X74171266Y14779644D01*
X74174591Y14774695D01*
X74174592Y14774694D01*
X74201441Y14734738D01*
X74265830Y14638917D01*
X74296084Y14611388D01*
X74375729Y14538917D01*
X74391233Y14524809D01*
X74396482Y14521959D01*
X74403184Y14518320D01*
X74540235Y14443908D01*
X74575189Y14434738D01*
X74698464Y14402397D01*
X74698468Y14402396D01*
X74704233Y14400884D01*
X74710194Y14400790D01*
X74710197Y14400790D01*
X74788965Y14399553D01*
X74873760Y14398221D01*
X74879575Y14399553D01*
X74879577Y14399553D01*
X75033206Y14434738D01*
X75033209Y14434739D01*
X75039029Y14436072D01*
X75054610Y14443908D01*
X75167893Y14500884D01*
X75190498Y14512253D01*
X75195035Y14516128D01*
X75195038Y14516130D01*
X75314888Y14618492D01*
X75314891Y14618495D01*
X75319423Y14622366D01*
X75326512Y14632231D01*
X75414877Y14755204D01*
X75414878Y14755206D01*
X75418361Y14760053D01*
X75438268Y14809571D01*
X75479377Y14911833D01*
X75479378Y14911835D01*
X75481601Y14917366D01*
X75483002Y14927210D01*
X75505034Y15082015D01*
X75505034Y15082021D01*
X75505490Y15085222D01*
X75505645Y15100000D01*
X75493155Y15203211D01*
X75485993Y15262398D01*
X75485992Y15262401D01*
X75485276Y15268320D01*
X75425345Y15426923D01*
X75421846Y15432015D01*
X75391552Y15476092D01*
X75379444Y15493709D01*
X75362066Y15552374D01*
X75380636Y15607554D01*
X75388373Y15618320D01*
X75418361Y15660053D01*
X75421014Y15666651D01*
X75479377Y15811833D01*
X75479378Y15811835D01*
X75481601Y15817366D01*
X75483863Y15833261D01*
X75505034Y15982015D01*
X75505034Y15982021D01*
X75505490Y15985222D01*
X75505645Y16000000D01*
X75485841Y16163649D01*
X75497620Y16223689D01*
X75542441Y16265339D01*
X75588188Y16274459D01*
X78923456Y16137393D01*
X78920930Y18707389D01*
X80894394Y18707389D01*
X80895049Y18701456D01*
X80895049Y18701452D01*
X80910660Y18560053D01*
X80912999Y18538865D01*
X80971266Y18379644D01*
X80974591Y18374695D01*
X80974592Y18374694D01*
X80987689Y18355204D01*
X81065830Y18238917D01*
X81126595Y18183625D01*
X81175729Y18138917D01*
X81191233Y18124809D01*
X81340235Y18043908D01*
X81399680Y18028313D01*
X81498464Y18002397D01*
X81498468Y18002396D01*
X81504233Y18000884D01*
X81510194Y18000790D01*
X81510197Y18000790D01*
X81588965Y17999553D01*
X81673760Y17998221D01*
X81679575Y17999553D01*
X81679577Y17999553D01*
X81833206Y18034738D01*
X81833209Y18034739D01*
X81839029Y18036072D01*
X81854610Y18043908D01*
X81925257Y18079440D01*
X81990498Y18112253D01*
X81995035Y18116128D01*
X81995038Y18116130D01*
X82114888Y18218492D01*
X82114891Y18218495D01*
X82119423Y18222366D01*
X82134875Y18243870D01*
X82214877Y18355204D01*
X82214878Y18355206D01*
X82218361Y18360053D01*
X82232305Y18394738D01*
X82279377Y18511833D01*
X82279378Y18511835D01*
X82281601Y18517366D01*
X82289871Y18575472D01*
X82305034Y18682015D01*
X82305034Y18682021D01*
X82305490Y18685222D01*
X82305645Y18700000D01*
X82285276Y18868320D01*
X82225345Y19026923D01*
X82214973Y19042015D01*
X82132692Y19161733D01*
X82129312Y19166651D01*
X82002721Y19279440D01*
X81852881Y19358776D01*
X81736967Y19387892D01*
X81694231Y19398627D01*
X81694228Y19398627D01*
X81688441Y19400081D01*
X81602841Y19400529D01*
X81524861Y19400938D01*
X81524859Y19400938D01*
X81518895Y19400969D01*
X81513099Y19399577D01*
X81513095Y19399577D01*
X81437140Y19381341D01*
X81354032Y19361388D01*
X81304983Y19336072D01*
X81208675Y19286364D01*
X81208673Y19286362D01*
X81203369Y19283625D01*
X81075604Y19172169D01*
X81072173Y19167287D01*
X81072172Y19167286D01*
X80986384Y19045222D01*
X80978113Y19033453D01*
X80975945Y19027892D01*
X80920320Y18885222D01*
X80916524Y18875487D01*
X80894394Y18707389D01*
X78920930Y18707389D01*
X78919253Y20412968D01*
X78938103Y20471176D01*
X78987568Y20507188D01*
X79048753Y20507249D01*
X79098288Y20471333D01*
X79111223Y20447087D01*
X79112387Y20443908D01*
X79121266Y20419644D01*
X79124591Y20414695D01*
X79124592Y20414694D01*
X79137689Y20395204D01*
X79215830Y20278917D01*
X79265794Y20233453D01*
X79330370Y20174694D01*
X79341233Y20164809D01*
X79346482Y20161959D01*
X79357218Y20156130D01*
X79490235Y20083908D01*
X79522334Y20075487D01*
X79648464Y20042397D01*
X79648468Y20042396D01*
X79654233Y20040884D01*
X79660194Y20040790D01*
X79660197Y20040790D01*
X79738965Y20039553D01*
X79823760Y20038221D01*
X79829575Y20039553D01*
X79829577Y20039553D01*
X79983206Y20074738D01*
X79983209Y20074739D01*
X79989029Y20076072D01*
X80004610Y20083908D01*
X80135165Y20149571D01*
X80140498Y20152253D01*
X80145035Y20156128D01*
X80145038Y20156130D01*
X80264888Y20258492D01*
X80264891Y20258495D01*
X80269423Y20262366D01*
X80285847Y20285222D01*
X80364877Y20395204D01*
X80364878Y20395206D01*
X80368361Y20400053D01*
X80372589Y20410569D01*
X80429377Y20551833D01*
X80429378Y20551835D01*
X80431601Y20557366D01*
X80440852Y20622366D01*
X80455034Y20722015D01*
X80455034Y20722021D01*
X80455490Y20725222D01*
X80455645Y20740000D01*
X80438771Y20879440D01*
X80435993Y20902398D01*
X80435992Y20902401D01*
X80435276Y20908320D01*
X80375345Y21066923D01*
X80369470Y21075472D01*
X80282692Y21201733D01*
X80279312Y21206651D01*
X80152721Y21319440D01*
X80002881Y21398776D01*
X79920661Y21419429D01*
X79844231Y21438627D01*
X79844228Y21438627D01*
X79838441Y21440081D01*
X79752841Y21440529D01*
X79674861Y21440938D01*
X79674859Y21440938D01*
X79668895Y21440969D01*
X79663099Y21439577D01*
X79663095Y21439577D01*
X79555703Y21413793D01*
X79504032Y21401388D01*
X79461904Y21379644D01*
X79358675Y21326364D01*
X79358673Y21326362D01*
X79353369Y21323625D01*
X79225604Y21212169D01*
X79222173Y21207287D01*
X79222172Y21207286D01*
X79155382Y21112253D01*
X79128113Y21073453D01*
X79112518Y21033453D01*
X79109852Y21026616D01*
X79071099Y20979268D01*
X79011916Y20963742D01*
X78954910Y20985968D01*
X78921855Y21037456D01*
X78918615Y21062481D01*
X78917785Y21907389D01*
X81994394Y21907389D01*
X81995049Y21901456D01*
X81995049Y21901452D01*
X82009747Y21768320D01*
X82012999Y21738865D01*
X82071266Y21579644D01*
X82074591Y21574695D01*
X82074592Y21574694D01*
X82087689Y21555204D01*
X82165830Y21438917D01*
X82291233Y21324809D01*
X82296482Y21321959D01*
X82304941Y21317366D01*
X82440235Y21243908D01*
X82475189Y21234738D01*
X82598464Y21202397D01*
X82598468Y21202396D01*
X82604233Y21200884D01*
X82610194Y21200790D01*
X82610197Y21200790D01*
X82688996Y21199553D01*
X82773760Y21198221D01*
X82779575Y21199553D01*
X82779577Y21199553D01*
X82933206Y21234738D01*
X82933209Y21234739D01*
X82939029Y21236072D01*
X82954610Y21243908D01*
X83025662Y21279644D01*
X83090498Y21312253D01*
X83095035Y21316128D01*
X83095038Y21316130D01*
X83214888Y21418492D01*
X83214891Y21418495D01*
X83219423Y21422366D01*
X83231316Y21438917D01*
X83314877Y21555204D01*
X83314878Y21555206D01*
X83318361Y21560053D01*
X83321014Y21566651D01*
X83379377Y21711833D01*
X83379378Y21711835D01*
X83381601Y21717366D01*
X83382442Y21723273D01*
X83405034Y21882015D01*
X83405034Y21882021D01*
X83405490Y21885222D01*
X83405645Y21900000D01*
X83390837Y22022366D01*
X83385993Y22062398D01*
X83385992Y22062401D01*
X83385276Y22068320D01*
X83325345Y22226923D01*
X83302576Y22260053D01*
X83244721Y22344231D01*
X83229312Y22366651D01*
X83102721Y22479440D01*
X82952881Y22558776D01*
X82848572Y22584977D01*
X82794231Y22598627D01*
X82794228Y22598627D01*
X82788441Y22600081D01*
X82702841Y22600529D01*
X82624861Y22600938D01*
X82624859Y22600938D01*
X82618895Y22600969D01*
X82613099Y22599577D01*
X82613095Y22599577D01*
X82508646Y22574500D01*
X82454032Y22561388D01*
X82382600Y22524519D01*
X82308675Y22486364D01*
X82308673Y22486362D01*
X82303369Y22483625D01*
X82175604Y22372169D01*
X82172173Y22367287D01*
X82172172Y22367286D01*
X82114497Y22285222D01*
X82078113Y22233453D01*
X82068990Y22210053D01*
X82034802Y22122366D01*
X82016524Y22075487D01*
X81994394Y21907389D01*
X78917785Y21907389D01*
X78914443Y25307389D01*
X80894394Y25307389D01*
X80895049Y25301456D01*
X80895049Y25301452D01*
X80908797Y25176923D01*
X80912999Y25138865D01*
X80971266Y24979644D01*
X80974591Y24974695D01*
X80974592Y24974694D01*
X80987689Y24955204D01*
X81065830Y24838917D01*
X81191233Y24724809D01*
X81196482Y24721959D01*
X81206258Y24716651D01*
X81340235Y24643908D01*
X81375189Y24634738D01*
X81498464Y24602397D01*
X81498468Y24602396D01*
X81504233Y24600884D01*
X81510194Y24600790D01*
X81510197Y24600790D01*
X81588996Y24599553D01*
X81673760Y24598221D01*
X81679575Y24599553D01*
X81679577Y24599553D01*
X81833206Y24634738D01*
X81833209Y24634739D01*
X81839029Y24636072D01*
X81844583Y24638865D01*
X81917397Y24675487D01*
X81990498Y24712253D01*
X81995035Y24716128D01*
X81995038Y24716130D01*
X82114888Y24818492D01*
X82114891Y24818495D01*
X82119423Y24822366D01*
X82127390Y24833453D01*
X82214877Y24955204D01*
X82214878Y24955206D01*
X82218361Y24960053D01*
X82221014Y24966651D01*
X82279377Y25111833D01*
X82279378Y25111835D01*
X82281601Y25117366D01*
X82283863Y25133261D01*
X82305034Y25282015D01*
X82305034Y25282021D01*
X82305490Y25285222D01*
X82305645Y25300000D01*
X82292061Y25412253D01*
X82285993Y25462398D01*
X82285992Y25462401D01*
X82285276Y25468320D01*
X82225345Y25626923D01*
X82202576Y25660053D01*
X82132692Y25761733D01*
X82129312Y25766651D01*
X82002721Y25879440D01*
X81852881Y25958776D01*
X81770661Y25979428D01*
X81694231Y25998627D01*
X81694228Y25998627D01*
X81688441Y26000081D01*
X81602841Y26000529D01*
X81524861Y26000938D01*
X81524859Y26000938D01*
X81518895Y26000969D01*
X81513099Y25999577D01*
X81513095Y25999577D01*
X81405703Y25973793D01*
X81354032Y25961388D01*
X81310395Y25938865D01*
X81208675Y25886364D01*
X81208673Y25886362D01*
X81203369Y25883625D01*
X81075604Y25772169D01*
X81072173Y25767287D01*
X81072172Y25767286D01*
X81017094Y25688917D01*
X80978113Y25633453D01*
X80975945Y25627892D01*
X80927297Y25503117D01*
X80916524Y25475487D01*
X80894394Y25307389D01*
X78914443Y25307389D01*
X78910020Y29807389D01*
X82594394Y29807389D01*
X82595049Y29801456D01*
X82595049Y29801452D01*
X82604713Y29713921D01*
X82612999Y29638865D01*
X82671266Y29479644D01*
X82674591Y29474695D01*
X82674592Y29474694D01*
X82687689Y29455204D01*
X82765830Y29338917D01*
X82891233Y29224809D01*
X83040235Y29143908D01*
X83088824Y29131161D01*
X83198464Y29102397D01*
X83198468Y29102396D01*
X83204233Y29100884D01*
X83210194Y29100790D01*
X83210197Y29100790D01*
X83288996Y29099553D01*
X83373760Y29098221D01*
X83379575Y29099553D01*
X83379577Y29099553D01*
X83533206Y29134738D01*
X83533209Y29134739D01*
X83539029Y29136072D01*
X83544583Y29138865D01*
X83629317Y29181482D01*
X83690498Y29212253D01*
X83695035Y29216128D01*
X83695038Y29216130D01*
X83814888Y29318492D01*
X83814891Y29318495D01*
X83819423Y29322366D01*
X83822904Y29327210D01*
X83914877Y29455204D01*
X83914878Y29455206D01*
X83918361Y29460053D01*
X83921685Y29468320D01*
X83979377Y29611833D01*
X83979378Y29611835D01*
X83981601Y29617366D01*
X83982442Y29623273D01*
X84005034Y29782015D01*
X84005034Y29782021D01*
X84005490Y29785222D01*
X84005645Y29800000D01*
X83992857Y29905674D01*
X83985993Y29962398D01*
X83985992Y29962401D01*
X83985276Y29968320D01*
X83925345Y30126923D01*
X83910202Y30148957D01*
X83832692Y30261733D01*
X83829312Y30266651D01*
X83702721Y30379440D01*
X83552881Y30458776D01*
X83490614Y30474417D01*
X83438784Y30506929D01*
X83415962Y30563699D01*
X83430868Y30623041D01*
X83477807Y30662289D01*
X83492631Y30666934D01*
X83529774Y30675441D01*
X83576192Y30686072D01*
X83589339Y30692684D01*
X83706225Y30751472D01*
X83727661Y30762253D01*
X83732198Y30766128D01*
X83732201Y30766130D01*
X83852051Y30868492D01*
X83852054Y30868495D01*
X83856586Y30872366D01*
X83877078Y30900884D01*
X83952040Y31005204D01*
X83952041Y31005206D01*
X83955524Y31010053D01*
X83972175Y31051472D01*
X84016540Y31161833D01*
X84016541Y31161835D01*
X84018764Y31167366D01*
X84027240Y31226923D01*
X84042197Y31332015D01*
X84042197Y31332021D01*
X84042653Y31335222D01*
X84042808Y31350000D01*
X84028490Y31468320D01*
X84023156Y31512398D01*
X84023155Y31512401D01*
X84022439Y31518320D01*
X83962508Y31676923D01*
X83953328Y31690281D01*
X83869855Y31811733D01*
X83866475Y31816651D01*
X83856887Y31825193D01*
X83826017Y31878018D01*
X83832092Y31938901D01*
X83849870Y31966121D01*
X83852051Y31968492D01*
X83856586Y31972366D01*
X83892515Y32022366D01*
X83952040Y32105204D01*
X83952041Y32105206D01*
X83955524Y32110053D01*
X83958303Y32116964D01*
X84016540Y32261833D01*
X84016541Y32261835D01*
X84018764Y32267366D01*
X84021026Y32283261D01*
X84042197Y32432015D01*
X84042197Y32432021D01*
X84042653Y32435222D01*
X84042808Y32450000D01*
X84024700Y32599639D01*
X84023156Y32612398D01*
X84023155Y32612401D01*
X84022439Y32618320D01*
X83962508Y32776923D01*
X83959062Y32781938D01*
X83869855Y32911733D01*
X83866475Y32916651D01*
X83739884Y33029440D01*
X83590044Y33108776D01*
X83491802Y33133453D01*
X83431394Y33148627D01*
X83431391Y33148627D01*
X83425604Y33150081D01*
X83340004Y33150529D01*
X83262024Y33150938D01*
X83262022Y33150938D01*
X83256058Y33150969D01*
X83250262Y33149577D01*
X83250258Y33149577D01*
X83155901Y33126923D01*
X83091195Y33111388D01*
X83047015Y33088585D01*
X82945838Y33036364D01*
X82945836Y33036362D01*
X82940532Y33033625D01*
X82812767Y32922169D01*
X82809336Y32917287D01*
X82809335Y32917286D01*
X82745827Y32826923D01*
X82715276Y32783453D01*
X82713108Y32777892D01*
X82680341Y32693849D01*
X82653687Y32625487D01*
X82631557Y32457389D01*
X82632212Y32451456D01*
X82632212Y32451452D01*
X82648924Y32300081D01*
X82650162Y32288865D01*
X82708429Y32129644D01*
X82711754Y32124695D01*
X82711755Y32124694D01*
X82724852Y32105204D01*
X82802993Y31988917D01*
X82819151Y31974215D01*
X82849466Y31921069D01*
X82842753Y31860253D01*
X82820912Y31830842D01*
X82821259Y31830529D01*
X82817953Y31826857D01*
X82817607Y31826391D01*
X82812767Y31822169D01*
X82809336Y31817287D01*
X82809335Y31817286D01*
X82768214Y31758776D01*
X82715276Y31683453D01*
X82713108Y31677892D01*
X82683117Y31600969D01*
X82653687Y31525487D01*
X82631557Y31357389D01*
X82632212Y31351456D01*
X82632212Y31351452D01*
X82640140Y31279644D01*
X82650162Y31188865D01*
X82708429Y31029644D01*
X82711754Y31024695D01*
X82711755Y31024694D01*
X82724852Y31005204D01*
X82802993Y30888917D01*
X82928396Y30774809D01*
X83077398Y30693908D01*
X83083170Y30692394D01*
X83083172Y30692393D01*
X83107267Y30686072D01*
X83147792Y30675441D01*
X83199280Y30642386D01*
X83221506Y30585381D01*
X83205980Y30526198D01*
X83158633Y30487444D01*
X83145782Y30483417D01*
X83059842Y30462784D01*
X83059834Y30462781D01*
X83054032Y30461388D01*
X82978700Y30422506D01*
X82908675Y30386364D01*
X82908673Y30386362D01*
X82903369Y30383625D01*
X82775604Y30272169D01*
X82772173Y30267287D01*
X82772172Y30267286D01*
X82707655Y30175487D01*
X82678113Y30133453D01*
X82655513Y30075487D01*
X82620320Y29985222D01*
X82616524Y29975487D01*
X82594394Y29807389D01*
X78910020Y29807389D01*
X78904810Y35107389D01*
X80894394Y35107389D01*
X80895049Y35101456D01*
X80895049Y35101452D01*
X80906152Y35000884D01*
X80912999Y34938865D01*
X80971266Y34779644D01*
X80974591Y34774695D01*
X80974592Y34774694D01*
X80987689Y34755204D01*
X81065830Y34638917D01*
X81191233Y34524809D01*
X81340235Y34443908D01*
X81395384Y34429440D01*
X81498464Y34402397D01*
X81498468Y34402396D01*
X81504233Y34400884D01*
X81510194Y34400790D01*
X81510197Y34400790D01*
X81588965Y34399553D01*
X81673760Y34398221D01*
X81679575Y34399553D01*
X81679577Y34399553D01*
X81833206Y34434738D01*
X81833209Y34434739D01*
X81839029Y34436072D01*
X81844583Y34438865D01*
X81962598Y34498221D01*
X81990498Y34512253D01*
X81995035Y34516128D01*
X81995038Y34516130D01*
X82114888Y34618492D01*
X82114891Y34618495D01*
X82119423Y34622366D01*
X82131316Y34638917D01*
X82214877Y34755204D01*
X82214878Y34755206D01*
X82218361Y34760053D01*
X82223307Y34772355D01*
X82279377Y34911833D01*
X82279378Y34911835D01*
X82281601Y34917366D01*
X82283863Y34933261D01*
X82305034Y35082015D01*
X82305034Y35082021D01*
X82305490Y35085222D01*
X82305645Y35100000D01*
X82293544Y35200000D01*
X82285993Y35262398D01*
X82285992Y35262401D01*
X82285276Y35268320D01*
X82225345Y35426923D01*
X82217138Y35438865D01*
X82132692Y35561733D01*
X82129312Y35566651D01*
X82002721Y35679440D01*
X81852881Y35758776D01*
X81769803Y35779644D01*
X81694231Y35798627D01*
X81694228Y35798627D01*
X81688441Y35800081D01*
X81602841Y35800529D01*
X81524861Y35800938D01*
X81524859Y35800938D01*
X81518895Y35800969D01*
X81513099Y35799577D01*
X81513095Y35799577D01*
X81430072Y35779644D01*
X81354032Y35761388D01*
X81312888Y35740152D01*
X81208675Y35686364D01*
X81208673Y35686362D01*
X81203369Y35683625D01*
X81075604Y35572169D01*
X81072173Y35567287D01*
X81072172Y35567286D01*
X80981544Y35438335D01*
X80978113Y35433453D01*
X80949495Y35360053D01*
X80934802Y35322366D01*
X80916524Y35275487D01*
X80894394Y35107389D01*
X78904810Y35107389D01*
X78901025Y38958077D01*
X80843706Y38958077D01*
X80844361Y38952144D01*
X80844361Y38952140D01*
X80856310Y38843908D01*
X80862311Y38789553D01*
X80920578Y38630332D01*
X80923903Y38625383D01*
X80923904Y38625382D01*
X80948442Y38588865D01*
X81015142Y38489605D01*
X81105496Y38407389D01*
X81135988Y38379644D01*
X81140545Y38375497D01*
X81289547Y38294596D01*
X81324501Y38285426D01*
X81447776Y38253085D01*
X81447780Y38253084D01*
X81453545Y38251572D01*
X81459506Y38251478D01*
X81459509Y38251478D01*
X81538308Y38250241D01*
X81623072Y38248909D01*
X81628887Y38250241D01*
X81628889Y38250241D01*
X81782518Y38285426D01*
X81782521Y38285427D01*
X81788341Y38286760D01*
X81803922Y38294596D01*
X81914694Y38350309D01*
X81939810Y38362941D01*
X81944347Y38366816D01*
X81944350Y38366818D01*
X82064200Y38469180D01*
X82064203Y38469183D01*
X82068735Y38473054D01*
X82093407Y38507389D01*
X82164189Y38605892D01*
X82164190Y38605894D01*
X82167673Y38610741D01*
X82187497Y38660053D01*
X82228689Y38762521D01*
X82228690Y38762523D01*
X82230913Y38768054D01*
X82231754Y38773961D01*
X82254346Y38932703D01*
X82254346Y38932709D01*
X82254802Y38935910D01*
X82254957Y38950688D01*
X82237636Y39093820D01*
X82235305Y39113086D01*
X82235304Y39113089D01*
X82234588Y39119008D01*
X82174657Y39277611D01*
X82169595Y39284977D01*
X82083632Y39410053D01*
X82078624Y39417339D01*
X81952033Y39530128D01*
X81935434Y39538917D01*
X81904890Y39555089D01*
X81802193Y39609464D01*
X81706690Y39633453D01*
X81643543Y39649315D01*
X81643540Y39649315D01*
X81637753Y39650769D01*
X81552153Y39651217D01*
X81474173Y39651626D01*
X81474171Y39651626D01*
X81468207Y39651657D01*
X81462411Y39650265D01*
X81462407Y39650265D01*
X81365185Y39626923D01*
X81303344Y39612076D01*
X81284642Y39602423D01*
X81157987Y39537052D01*
X81157985Y39537050D01*
X81152681Y39534313D01*
X81024916Y39422857D01*
X81021485Y39417975D01*
X81021484Y39417974D01*
X80931740Y39290281D01*
X80927425Y39284141D01*
X80865836Y39126175D01*
X80843706Y38958077D01*
X78901025Y38958077D01*
X78900045Y39954601D01*
X78918895Y40012810D01*
X78934375Y40029657D01*
X81779226Y42484038D01*
X81835636Y42507734D01*
X81895202Y42493747D01*
X81935170Y42447420D01*
X81939900Y42432859D01*
X81940461Y42427774D01*
X81998728Y42268553D01*
X82002053Y42263604D01*
X82002054Y42263603D01*
X82033124Y42217366D01*
X82093292Y42127826D01*
X82218695Y42013718D01*
X82367697Y41932817D01*
X82398222Y41924809D01*
X82525926Y41891306D01*
X82525930Y41891305D01*
X82531695Y41889793D01*
X82537656Y41889699D01*
X82537659Y41889699D01*
X82604811Y41888644D01*
X82662697Y41868824D01*
X82697879Y41818765D01*
X82701657Y41800520D01*
X82718279Y41649956D01*
X82776546Y41490735D01*
X82779871Y41485786D01*
X82779872Y41485785D01*
X82791608Y41468320D01*
X82871110Y41350008D01*
X82960884Y41268320D01*
X82984462Y41246866D01*
X82996513Y41235900D01*
X83145515Y41154999D01*
X83180469Y41145829D01*
X83303744Y41113488D01*
X83303748Y41113487D01*
X83309513Y41111975D01*
X83315474Y41111881D01*
X83315477Y41111881D01*
X83394276Y41110644D01*
X83479040Y41109312D01*
X83484855Y41110644D01*
X83484857Y41110644D01*
X83638486Y41145829D01*
X83638489Y41145830D01*
X83644309Y41147163D01*
X83659890Y41154999D01*
X83720043Y41185253D01*
X83795778Y41223344D01*
X83800315Y41227219D01*
X83800318Y41227221D01*
X83920168Y41329583D01*
X83920171Y41329586D01*
X83924703Y41333457D01*
X83993674Y41429440D01*
X84020157Y41466295D01*
X84020158Y41466297D01*
X84023641Y41471144D01*
X84044233Y41522366D01*
X84084657Y41622924D01*
X84084658Y41622926D01*
X84086881Y41628457D01*
X84094166Y41679644D01*
X84110314Y41793106D01*
X84110314Y41793112D01*
X84110770Y41796313D01*
X84110925Y41811091D01*
X84095463Y41938865D01*
X84091273Y41973489D01*
X84091272Y41973492D01*
X84090556Y41979411D01*
X84030625Y42138014D01*
X84026575Y42143908D01*
X83950001Y42255322D01*
X83934592Y42277742D01*
X83808001Y42390531D01*
X83797969Y42395843D01*
X83766975Y42412253D01*
X83658161Y42469867D01*
X83555998Y42495529D01*
X83499511Y42509718D01*
X83499508Y42509718D01*
X83493721Y42511172D01*
X83429697Y42511507D01*
X83371607Y42530719D01*
X83335903Y42580406D01*
X83331933Y42598612D01*
X83313455Y42751307D01*
X83313454Y42751310D01*
X83312738Y42757229D01*
X83252807Y42915832D01*
X83240697Y42933453D01*
X83160154Y43050642D01*
X83156774Y43055560D01*
X83030183Y43168349D01*
X82970252Y43200081D01*
X82885617Y43244893D01*
X82885614Y43244894D01*
X82880343Y43247685D01*
X82880750Y43248454D01*
X82837176Y43283741D01*
X82821341Y43342841D01*
X82843268Y43399963D01*
X82855535Y43412618D01*
X83988129Y44389758D01*
X83988129Y44389759D01*
X84000000Y44400000D01*
X84000000Y48609138D01*
X84645497Y48609138D01*
X84675134Y48436660D01*
X84743654Y48275627D01*
X84847383Y48134676D01*
X84851765Y48130953D01*
X84851767Y48130951D01*
X84963447Y48036072D01*
X84980755Y48021368D01*
X85033972Y47994194D01*
X85131492Y47944397D01*
X85131495Y47944396D01*
X85136616Y47941781D01*
X85142201Y47940414D01*
X85142202Y47940414D01*
X85302326Y47901232D01*
X85302329Y47901232D01*
X85306606Y47900185D01*
X85311004Y47899912D01*
X85311005Y47899912D01*
X85316132Y47899594D01*
X85316133Y47899594D01*
X85317648Y47899500D01*
X85443822Y47899500D01*
X85448806Y47900081D01*
X85458678Y47901232D01*
X85573828Y47914657D01*
X85579234Y47916619D01*
X85579237Y47916620D01*
X85732923Y47972406D01*
X85738331Y47974369D01*
X85743140Y47977522D01*
X85743144Y47977524D01*
X85854239Y48050362D01*
X85884685Y48070323D01*
X85888634Y48074492D01*
X85888638Y48074495D01*
X86001084Y48193196D01*
X86005040Y48197372D01*
X86010859Y48207389D01*
X86090050Y48343728D01*
X86090050Y48343729D01*
X86092939Y48348702D01*
X86128662Y48466651D01*
X86142000Y48510688D01*
X86142000Y48510690D01*
X86143667Y48516193D01*
X86152023Y48650884D01*
X86154147Y48685122D01*
X86154147Y48685123D01*
X86154503Y48690862D01*
X86124866Y48863340D01*
X86056346Y49024373D01*
X85974144Y49136072D01*
X85956026Y49160692D01*
X85956025Y49160693D01*
X85952617Y49165324D01*
X85948235Y49169047D01*
X85948233Y49169049D01*
X85823631Y49274906D01*
X85823630Y49274907D01*
X85819245Y49278632D01*
X85733382Y49322476D01*
X85668508Y49355603D01*
X85668505Y49355604D01*
X85663384Y49358219D01*
X85657799Y49359586D01*
X85657798Y49359586D01*
X85497674Y49398768D01*
X85497671Y49398768D01*
X85493394Y49399815D01*
X85488996Y49400088D01*
X85488995Y49400088D01*
X85483868Y49400406D01*
X85483867Y49400406D01*
X85482352Y49400500D01*
X85356178Y49400500D01*
X85353331Y49400168D01*
X85353330Y49400168D01*
X85342662Y49398924D01*
X85226172Y49385343D01*
X85220766Y49383381D01*
X85220763Y49383380D01*
X85128804Y49350000D01*
X85061669Y49325631D01*
X85056860Y49322478D01*
X85056856Y49322476D01*
X84980126Y49272169D01*
X84915315Y49229677D01*
X84911366Y49225508D01*
X84911362Y49225505D01*
X84834065Y49143908D01*
X84794960Y49102628D01*
X84792073Y49097658D01*
X84792071Y49097655D01*
X84742176Y49011753D01*
X84707061Y48951298D01*
X84656333Y48783807D01*
X84650919Y48696530D01*
X84646469Y48624798D01*
X84645497Y48609138D01*
X84000000Y48609138D01*
X84000000Y56507389D01*
X85994394Y56507389D01*
X85995049Y56501456D01*
X85995049Y56501452D01*
X86012344Y56344796D01*
X86012999Y56338865D01*
X86071266Y56179644D01*
X86074591Y56174695D01*
X86074592Y56174694D01*
X86087689Y56155204D01*
X86165830Y56038917D01*
X86291233Y55924809D01*
X86440235Y55843908D01*
X86475189Y55834738D01*
X86598464Y55802397D01*
X86598468Y55802396D01*
X86604233Y55800884D01*
X86610194Y55800790D01*
X86610197Y55800790D01*
X86688965Y55799553D01*
X86773760Y55798221D01*
X86779575Y55799553D01*
X86779577Y55799553D01*
X86933206Y55834738D01*
X86933209Y55834739D01*
X86939029Y55836072D01*
X86944583Y55838865D01*
X87027601Y55880619D01*
X87090498Y55912253D01*
X87095035Y55916128D01*
X87095038Y55916130D01*
X87214888Y56018492D01*
X87214891Y56018495D01*
X87219423Y56022366D01*
X87239452Y56050239D01*
X87314877Y56155204D01*
X87314878Y56155206D01*
X87318361Y56160053D01*
X87321685Y56168320D01*
X87379377Y56311833D01*
X87379378Y56311835D01*
X87381601Y56317366D01*
X87383863Y56333261D01*
X87405034Y56482015D01*
X87405034Y56482021D01*
X87405490Y56485222D01*
X87405645Y56500000D01*
X87389588Y56632689D01*
X87385993Y56662398D01*
X87385992Y56662401D01*
X87385276Y56668320D01*
X87325345Y56826923D01*
X87317138Y56838865D01*
X87232692Y56961733D01*
X87229312Y56966651D01*
X87102721Y57079440D01*
X86952881Y57158776D01*
X86869827Y57179638D01*
X86794231Y57198627D01*
X86794228Y57198627D01*
X86788441Y57200081D01*
X86702841Y57200529D01*
X86624861Y57200938D01*
X86624859Y57200938D01*
X86618895Y57200969D01*
X86613099Y57199577D01*
X86613095Y57199577D01*
X86530047Y57179638D01*
X86454032Y57161388D01*
X86400242Y57133625D01*
X86308675Y57086364D01*
X86308673Y57086362D01*
X86303369Y57083625D01*
X86175604Y56972169D01*
X86172173Y56967287D01*
X86172172Y56967286D01*
X86081544Y56838335D01*
X86078113Y56833453D01*
X86016524Y56675487D01*
X85994394Y56507389D01*
X84000000Y56507389D01*
X84000000Y61109138D01*
X84645497Y61109138D01*
X84675134Y60936660D01*
X84743654Y60775627D01*
X84847383Y60634676D01*
X84851765Y60630953D01*
X84851767Y60630951D01*
X84976369Y60525094D01*
X84980755Y60521368D01*
X84996491Y60513333D01*
X85131492Y60444397D01*
X85131495Y60444396D01*
X85136616Y60441781D01*
X85142201Y60440414D01*
X85142202Y60440414D01*
X85302326Y60401232D01*
X85302329Y60401232D01*
X85306606Y60400185D01*
X85311004Y60399912D01*
X85311005Y60399912D01*
X85316132Y60399594D01*
X85316133Y60399594D01*
X85317648Y60399500D01*
X85443822Y60399500D01*
X85449698Y60400185D01*
X85458678Y60401232D01*
X85573828Y60414657D01*
X85579234Y60416619D01*
X85579237Y60416620D01*
X85732923Y60472406D01*
X85738331Y60474369D01*
X85743140Y60477522D01*
X85743144Y60477524D01*
X85867073Y60558776D01*
X85884685Y60570323D01*
X85888634Y60574492D01*
X85888638Y60574495D01*
X86001084Y60693196D01*
X86005040Y60697372D01*
X86016654Y60717366D01*
X86090050Y60843728D01*
X86090050Y60843729D01*
X86092939Y60848702D01*
X86119579Y60936660D01*
X86142000Y61010688D01*
X86142000Y61010690D01*
X86143667Y61016193D01*
X86154503Y61190862D01*
X86124866Y61363340D01*
X86097406Y61427875D01*
X86058597Y61519083D01*
X86058597Y61519084D01*
X86056346Y61524373D01*
X85988111Y61617094D01*
X85956026Y61660692D01*
X85956025Y61660693D01*
X85952617Y61665324D01*
X85948235Y61669047D01*
X85948233Y61669049D01*
X85823631Y61774906D01*
X85823630Y61774907D01*
X85819245Y61778632D01*
X85733382Y61822476D01*
X85668508Y61855603D01*
X85668505Y61855604D01*
X85663384Y61858219D01*
X85657799Y61859586D01*
X85657798Y61859586D01*
X85497674Y61898768D01*
X85497671Y61898768D01*
X85493394Y61899815D01*
X85488996Y61900088D01*
X85488995Y61900088D01*
X85483868Y61900406D01*
X85483867Y61900406D01*
X85482352Y61900500D01*
X85356178Y61900500D01*
X85353331Y61900168D01*
X85353330Y61900168D01*
X85342662Y61898924D01*
X85226172Y61885343D01*
X85220766Y61883381D01*
X85220763Y61883380D01*
X85083218Y61833453D01*
X85061669Y61825631D01*
X85056860Y61822478D01*
X85056856Y61822476D01*
X84980426Y61772366D01*
X84915315Y61729677D01*
X84911366Y61725508D01*
X84911362Y61725505D01*
X84846159Y61656675D01*
X84794960Y61602628D01*
X84792073Y61597658D01*
X84792071Y61597655D01*
X84709950Y61456272D01*
X84707061Y61451298D01*
X84689471Y61393220D01*
X84660699Y61298221D01*
X84656333Y61283807D01*
X84645497Y61109138D01*
X84000000Y61109138D01*
X84000000Y65509138D01*
X84345497Y65509138D01*
X84375134Y65336660D01*
X84377387Y65331365D01*
X84428070Y65212253D01*
X84443654Y65175627D01*
X84547383Y65034676D01*
X84551765Y65030953D01*
X84551767Y65030951D01*
X84675891Y64925500D01*
X84680755Y64921368D01*
X84754231Y64883849D01*
X84831492Y64844397D01*
X84831495Y64844396D01*
X84836616Y64841781D01*
X84842201Y64840414D01*
X84842202Y64840414D01*
X85002326Y64801232D01*
X85002329Y64801232D01*
X85006606Y64800185D01*
X85011004Y64799912D01*
X85011005Y64799912D01*
X85016132Y64799594D01*
X85016133Y64799594D01*
X85017648Y64799500D01*
X85143822Y64799500D01*
X85149698Y64800185D01*
X85158678Y64801232D01*
X85273828Y64814657D01*
X85279234Y64816619D01*
X85279237Y64816620D01*
X85432923Y64872406D01*
X85438331Y64874369D01*
X85443140Y64877522D01*
X85443144Y64877524D01*
X85579877Y64967171D01*
X85584685Y64970323D01*
X85588634Y64974492D01*
X85588638Y64974495D01*
X85701084Y65093196D01*
X85705040Y65097372D01*
X85710859Y65107389D01*
X85790050Y65243728D01*
X85790050Y65243729D01*
X85792939Y65248702D01*
X85843667Y65416193D01*
X85854503Y65590862D01*
X85824866Y65763340D01*
X85756346Y65924373D01*
X85652617Y66065324D01*
X85648235Y66069047D01*
X85648233Y66069049D01*
X85523631Y66174906D01*
X85523630Y66174907D01*
X85519245Y66178632D01*
X85428813Y66224809D01*
X85368508Y66255603D01*
X85368505Y66255604D01*
X85363384Y66258219D01*
X85357799Y66259586D01*
X85357798Y66259586D01*
X85197674Y66298768D01*
X85197671Y66298768D01*
X85193394Y66299815D01*
X85188996Y66300088D01*
X85188995Y66300088D01*
X85183868Y66300406D01*
X85183867Y66300406D01*
X85182352Y66300500D01*
X85056178Y66300500D01*
X85053331Y66300168D01*
X85053330Y66300168D01*
X85042662Y66298924D01*
X84926172Y66285343D01*
X84920766Y66283381D01*
X84920763Y66283380D01*
X84844240Y66255603D01*
X84761669Y66225631D01*
X84756860Y66222478D01*
X84756856Y66222476D01*
X84681584Y66173125D01*
X84615315Y66129677D01*
X84611366Y66125508D01*
X84611362Y66125505D01*
X84549359Y66060053D01*
X84494960Y66002628D01*
X84492073Y65997658D01*
X84492071Y65997655D01*
X84409950Y65856272D01*
X84407061Y65851298D01*
X84393762Y65807389D01*
X84360699Y65698221D01*
X84356333Y65683807D01*
X84345497Y65509138D01*
X84000000Y65509138D01*
X84000000Y80009138D01*
X84345497Y80009138D01*
X84375134Y79836660D01*
X84377387Y79831365D01*
X84424183Y79721388D01*
X84443654Y79675627D01*
X84547383Y79534676D01*
X84551765Y79530953D01*
X84551767Y79530951D01*
X84670425Y79430144D01*
X84680755Y79421368D01*
X84735423Y79393453D01*
X84831492Y79344397D01*
X84831495Y79344396D01*
X84836616Y79341781D01*
X84842201Y79340414D01*
X84842202Y79340414D01*
X85002326Y79301232D01*
X85002329Y79301232D01*
X85006606Y79300185D01*
X85011004Y79299912D01*
X85011005Y79299912D01*
X85016132Y79299594D01*
X85016133Y79299594D01*
X85017648Y79299500D01*
X85143822Y79299500D01*
X85149698Y79300185D01*
X85158678Y79301232D01*
X85273828Y79314657D01*
X85279234Y79316619D01*
X85279237Y79316620D01*
X85432923Y79372406D01*
X85438331Y79374369D01*
X85443140Y79377522D01*
X85443144Y79377524D01*
X85579877Y79467171D01*
X85584685Y79470323D01*
X85588634Y79474492D01*
X85588638Y79474495D01*
X85701084Y79593196D01*
X85705040Y79597372D01*
X85710859Y79607389D01*
X85790050Y79743728D01*
X85790050Y79743729D01*
X85792939Y79748702D01*
X85843667Y79916193D01*
X85854503Y80090862D01*
X85824866Y80263340D01*
X85756346Y80424373D01*
X85652617Y80565324D01*
X85648235Y80569047D01*
X85648233Y80569049D01*
X85523631Y80674906D01*
X85523630Y80674907D01*
X85519245Y80678632D01*
X85433382Y80722476D01*
X85368508Y80755603D01*
X85368505Y80755604D01*
X85363384Y80758219D01*
X85357799Y80759586D01*
X85357798Y80759586D01*
X85197674Y80798768D01*
X85197671Y80798768D01*
X85193394Y80799815D01*
X85188996Y80800088D01*
X85188995Y80800088D01*
X85183868Y80800406D01*
X85183867Y80800406D01*
X85182352Y80800500D01*
X85056178Y80800500D01*
X85053331Y80800168D01*
X85053330Y80800168D01*
X85042662Y80798924D01*
X84926172Y80785343D01*
X84920766Y80783381D01*
X84920763Y80783380D01*
X84844240Y80755603D01*
X84761669Y80725631D01*
X84756860Y80722478D01*
X84756856Y80722476D01*
X84665054Y80662288D01*
X84615315Y80629677D01*
X84611366Y80625508D01*
X84611362Y80625505D01*
X84502451Y80510536D01*
X84494960Y80502628D01*
X84492073Y80497658D01*
X84492071Y80497655D01*
X84464729Y80450581D01*
X84407061Y80351298D01*
X84391818Y80300969D01*
X84369392Y80226923D01*
X84356333Y80183807D01*
X84345497Y80009138D01*
X84000000Y80009138D01*
X84000000Y84300000D01*
X81796007Y86183412D01*
X78500597Y88999490D01*
X78500591Y88999495D01*
X78500000Y89000000D01*
X78499404Y89000477D01*
X78499382Y89000495D01*
X78013165Y89389468D01*
X78000000Y89400000D01*
X77900329Y89400000D01*
X77871054Y89404427D01*
X77767906Y89436357D01*
X77767902Y89436358D01*
X77763285Y89437787D01*
X77758477Y89438292D01*
X77758474Y89438293D01*
X77560291Y89459123D01*
X77560289Y89459123D01*
X77555475Y89459629D01*
X77499116Y89454500D01*
X77352199Y89441130D01*
X77352195Y89441129D01*
X77347379Y89440691D01*
X77342737Y89439325D01*
X77342733Y89439324D01*
X77237231Y89408272D01*
X77224166Y89404427D01*
X77222810Y89404028D01*
X77194858Y89400000D01*
X75360329Y89400000D01*
X75331054Y89404427D01*
X75227906Y89436357D01*
X75227902Y89436358D01*
X75223285Y89437787D01*
X75218477Y89438292D01*
X75218474Y89438293D01*
X75020291Y89459123D01*
X75020289Y89459123D01*
X75015475Y89459629D01*
X74959116Y89454500D01*
X74812199Y89441130D01*
X74812195Y89441129D01*
X74807379Y89440691D01*
X74802737Y89439325D01*
X74802733Y89439324D01*
X74697231Y89408272D01*
X74684166Y89404427D01*
X74682810Y89404028D01*
X74654858Y89400000D01*
X73982679Y89400000D01*
X73984556Y89183224D01*
X73988605Y88715638D01*
X73983975Y88684847D01*
X73962206Y88616221D01*
X73960741Y88611602D01*
X73958558Y88592139D01*
X73943542Y88458266D01*
X73937449Y88403949D01*
X73938936Y88386240D01*
X73949319Y88262599D01*
X73954934Y88195726D01*
X73956267Y88191078D01*
X73956267Y88191077D01*
X73990583Y88071403D01*
X73994414Y88044972D01*
X73998048Y87625357D01*
X73979646Y87567005D01*
X73930459Y87530614D01*
X73899052Y87525500D01*
X70806480Y87525500D01*
X70748289Y87544407D01*
X70712325Y87593907D01*
X70712325Y87655093D01*
X70731537Y87689188D01*
X70799716Y87768174D01*
X70799718Y87768176D01*
X70802880Y87771840D01*
X70826448Y87813327D01*
X70903703Y87949319D01*
X70903704Y87949322D01*
X70906092Y87953525D01*
X70913536Y87975900D01*
X70970522Y88147207D01*
X70970522Y88147209D01*
X70972049Y88151798D01*
X70977599Y88195726D01*
X70986242Y88264145D01*
X70998238Y88359106D01*
X70998277Y88361880D01*
X70998617Y88386240D01*
X70998617Y88386249D01*
X70998655Y88389000D01*
X70984280Y88535613D01*
X70978738Y88592139D01*
X70978737Y88592144D01*
X70978265Y88596958D01*
X70942433Y88715638D01*
X70919269Y88792363D01*
X70919267Y88792368D01*
X70917870Y88796995D01*
X70912998Y88806159D01*
X70822044Y88977217D01*
X70822042Y88977220D01*
X70819771Y88981491D01*
X70805092Y88999490D01*
X70690766Y89139667D01*
X70690765Y89139668D01*
X70687705Y89143420D01*
X70589278Y89224846D01*
X70530430Y89273530D01*
X70530428Y89273531D01*
X70526703Y89276613D01*
X70400000Y89345121D01*
X70401018Y89347003D01*
X70400000Y89347430D01*
X70400000Y89350000D01*
X70393603Y89350110D01*
X70388884Y89352088D01*
X70384430Y89355324D01*
X70375391Y89358427D01*
X70347150Y89373697D01*
X70347149Y89373697D01*
X70342896Y89375997D01*
X70245194Y89406241D01*
X70147906Y89436357D01*
X70147902Y89436358D01*
X70143285Y89437787D01*
X70138477Y89438292D01*
X70138474Y89438293D01*
X69940291Y89459123D01*
X69940289Y89459123D01*
X69935475Y89459629D01*
X69879116Y89454500D01*
X69732199Y89441130D01*
X69732195Y89441129D01*
X69727379Y89440691D01*
X69722737Y89439325D01*
X69722733Y89439324D01*
X69619433Y89408920D01*
X69526926Y89381694D01*
X69522644Y89379456D01*
X69522638Y89379453D01*
X69518465Y89377271D01*
X69470890Y89366019D01*
X67752744Y89395642D01*
X67725176Y89400055D01*
X67603285Y89437787D01*
X67571479Y89441130D01*
X67400291Y89459123D01*
X67400289Y89459123D01*
X67395475Y89459629D01*
X67339116Y89454500D01*
X67192199Y89441130D01*
X67192195Y89441129D01*
X67187379Y89440691D01*
X67182737Y89439325D01*
X67182733Y89439324D01*
X67062810Y89404028D01*
X67034858Y89400000D01*
X65714339Y89400000D01*
X65656148Y89418907D01*
X65620184Y89468407D01*
X65615340Y89499327D01*
X65615386Y89513060D01*
X65616614Y89884817D01*
X65617501Y90153264D01*
X65636600Y90211392D01*
X65641557Y90217625D01*
X65719711Y90308168D01*
X65719714Y90308172D01*
X65722880Y90311840D01*
X65826092Y90493525D01*
X65839845Y90534866D01*
X65890522Y90687207D01*
X65890522Y90687209D01*
X65892049Y90691798D01*
X65897599Y90735726D01*
X65911187Y90843293D01*
X65918238Y90899106D01*
X65918277Y90901880D01*
X65918617Y90926240D01*
X65918617Y90926249D01*
X65918655Y90929000D01*
X65917189Y90943949D01*
X66317449Y90943949D01*
X66334934Y90735726D01*
X66392530Y90534866D01*
X66488043Y90349017D01*
X66617835Y90185261D01*
X66621515Y90182129D01*
X66621517Y90182127D01*
X66737256Y90083625D01*
X66776963Y90049832D01*
X66781185Y90047472D01*
X66781190Y90047469D01*
X66825272Y90022833D01*
X66959364Y89947892D01*
X66963962Y89946398D01*
X67153488Y89884817D01*
X67153490Y89884816D01*
X67158093Y89883321D01*
X67365578Y89858580D01*
X67370400Y89858951D01*
X67370403Y89858951D01*
X67569089Y89874239D01*
X67569094Y89874240D01*
X67573917Y89874611D01*
X67775175Y89930803D01*
X67779488Y89932982D01*
X67779494Y89932984D01*
X67957365Y90022833D01*
X67957367Y90022835D01*
X67961686Y90025016D01*
X68004526Y90058486D01*
X68122534Y90150684D01*
X68122537Y90150687D01*
X68126345Y90153662D01*
X68129507Y90157325D01*
X68259716Y90308174D01*
X68259718Y90308176D01*
X68262880Y90311840D01*
X68265273Y90316052D01*
X68363703Y90489319D01*
X68363704Y90489322D01*
X68366092Y90493525D01*
X68379845Y90534866D01*
X68430522Y90687207D01*
X68430522Y90687209D01*
X68432049Y90691798D01*
X68437599Y90735726D01*
X68451187Y90843293D01*
X68458238Y90899106D01*
X68458277Y90901880D01*
X68458617Y90926240D01*
X68458617Y90926249D01*
X68458655Y90929000D01*
X68457189Y90943949D01*
X68857449Y90943949D01*
X68874934Y90735726D01*
X68932530Y90534866D01*
X69028043Y90349017D01*
X69157835Y90185261D01*
X69161515Y90182129D01*
X69161517Y90182127D01*
X69277256Y90083625D01*
X69316963Y90049832D01*
X69321185Y90047472D01*
X69321190Y90047469D01*
X69365272Y90022833D01*
X69499364Y89947892D01*
X69503962Y89946398D01*
X69693488Y89884817D01*
X69693490Y89884816D01*
X69698093Y89883321D01*
X69905578Y89858580D01*
X69910400Y89858951D01*
X69910403Y89858951D01*
X70109089Y89874239D01*
X70109094Y89874240D01*
X70113917Y89874611D01*
X70315175Y89930803D01*
X70319488Y89932982D01*
X70319494Y89932984D01*
X70497365Y90022833D01*
X70497367Y90022835D01*
X70501686Y90025016D01*
X70544526Y90058486D01*
X70662534Y90150684D01*
X70662537Y90150687D01*
X70666345Y90153662D01*
X70669507Y90157325D01*
X70799716Y90308174D01*
X70799718Y90308176D01*
X70802880Y90311840D01*
X70805273Y90316052D01*
X70903703Y90489319D01*
X70903704Y90489322D01*
X70906092Y90493525D01*
X70919845Y90534866D01*
X70970522Y90687207D01*
X70970522Y90687209D01*
X70972049Y90691798D01*
X70977599Y90735726D01*
X70991187Y90843293D01*
X70998238Y90899106D01*
X70998277Y90901880D01*
X70998617Y90926240D01*
X70998617Y90926249D01*
X70998655Y90929000D01*
X70997189Y90943949D01*
X71397449Y90943949D01*
X71414934Y90735726D01*
X71472530Y90534866D01*
X71568043Y90349017D01*
X71697835Y90185261D01*
X71701515Y90182129D01*
X71701517Y90182127D01*
X71817256Y90083625D01*
X71856963Y90049832D01*
X71861185Y90047472D01*
X71861190Y90047469D01*
X71905272Y90022833D01*
X72039364Y89947892D01*
X72043962Y89946398D01*
X72233488Y89884817D01*
X72233490Y89884816D01*
X72238093Y89883321D01*
X72445578Y89858580D01*
X72450400Y89858951D01*
X72450403Y89858951D01*
X72649089Y89874239D01*
X72649094Y89874240D01*
X72653917Y89874611D01*
X72855175Y89930803D01*
X72859488Y89932982D01*
X72859494Y89932984D01*
X73037365Y90022833D01*
X73037367Y90022835D01*
X73041686Y90025016D01*
X73084526Y90058486D01*
X73202534Y90150684D01*
X73202537Y90150687D01*
X73206345Y90153662D01*
X73209507Y90157325D01*
X73339716Y90308174D01*
X73339718Y90308176D01*
X73342880Y90311840D01*
X73345273Y90316052D01*
X73443703Y90489319D01*
X73443704Y90489322D01*
X73446092Y90493525D01*
X73459845Y90534866D01*
X73510522Y90687207D01*
X73510522Y90687209D01*
X73512049Y90691798D01*
X73517599Y90735726D01*
X73531187Y90843293D01*
X73538238Y90899106D01*
X73538277Y90901880D01*
X73538617Y90926240D01*
X73538617Y90926249D01*
X73538655Y90929000D01*
X73537189Y90943949D01*
X73937449Y90943949D01*
X73954934Y90735726D01*
X74012530Y90534866D01*
X74108043Y90349017D01*
X74237835Y90185261D01*
X74241515Y90182129D01*
X74241517Y90182127D01*
X74357256Y90083625D01*
X74396963Y90049832D01*
X74401185Y90047472D01*
X74401190Y90047469D01*
X74445272Y90022833D01*
X74579364Y89947892D01*
X74583962Y89946398D01*
X74773488Y89884817D01*
X74773490Y89884816D01*
X74778093Y89883321D01*
X74985578Y89858580D01*
X74990400Y89858951D01*
X74990403Y89858951D01*
X75189089Y89874239D01*
X75189094Y89874240D01*
X75193917Y89874611D01*
X75395175Y89930803D01*
X75399488Y89932982D01*
X75399494Y89932984D01*
X75577365Y90022833D01*
X75577367Y90022835D01*
X75581686Y90025016D01*
X75624526Y90058486D01*
X75742534Y90150684D01*
X75742537Y90150687D01*
X75746345Y90153662D01*
X75749507Y90157325D01*
X75879716Y90308174D01*
X75879718Y90308176D01*
X75882880Y90311840D01*
X75885273Y90316052D01*
X75983703Y90489319D01*
X75983704Y90489322D01*
X75986092Y90493525D01*
X75999845Y90534866D01*
X76050522Y90687207D01*
X76050522Y90687209D01*
X76052049Y90691798D01*
X76057599Y90735726D01*
X76071187Y90843293D01*
X76078238Y90899106D01*
X76078277Y90901880D01*
X76078617Y90926240D01*
X76078617Y90926249D01*
X76078655Y90929000D01*
X76077189Y90943949D01*
X76477449Y90943949D01*
X76494934Y90735726D01*
X76552530Y90534866D01*
X76648043Y90349017D01*
X76777835Y90185261D01*
X76781515Y90182129D01*
X76781517Y90182127D01*
X76897256Y90083625D01*
X76936963Y90049832D01*
X76941185Y90047472D01*
X76941190Y90047469D01*
X76985272Y90022833D01*
X77119364Y89947892D01*
X77123962Y89946398D01*
X77313488Y89884817D01*
X77313490Y89884816D01*
X77318093Y89883321D01*
X77525578Y89858580D01*
X77530400Y89858951D01*
X77530403Y89858951D01*
X77729089Y89874239D01*
X77729094Y89874240D01*
X77733917Y89874611D01*
X77935175Y89930803D01*
X77939488Y89932982D01*
X77939494Y89932984D01*
X78117365Y90022833D01*
X78117367Y90022835D01*
X78121686Y90025016D01*
X78164526Y90058486D01*
X78282534Y90150684D01*
X78282537Y90150687D01*
X78286345Y90153662D01*
X78289507Y90157325D01*
X78419716Y90308174D01*
X78419718Y90308176D01*
X78422880Y90311840D01*
X78425273Y90316052D01*
X78523703Y90489319D01*
X78523704Y90489322D01*
X78526092Y90493525D01*
X78539845Y90534866D01*
X78590522Y90687207D01*
X78590522Y90687209D01*
X78592049Y90691798D01*
X78597599Y90735726D01*
X78611187Y90843293D01*
X78618238Y90899106D01*
X78618277Y90901880D01*
X78618617Y90926240D01*
X78618617Y90926249D01*
X78618655Y90929000D01*
X78614306Y90973358D01*
X79524918Y90973358D01*
X79539436Y90626968D01*
X79539859Y90624237D01*
X79588788Y90308174D01*
X79592475Y90284354D01*
X79615130Y90200969D01*
X79656836Y90047469D01*
X79683375Y89949788D01*
X79684393Y89947216D01*
X79684395Y89947211D01*
X79809985Y89630006D01*
X79811001Y89627440D01*
X79812290Y89625015D01*
X79812295Y89625005D01*
X79970667Y89327153D01*
X79973765Y89321327D01*
X79992280Y89294286D01*
X80168075Y89037543D01*
X80168080Y89037537D01*
X80169636Y89035264D01*
X80171433Y89033182D01*
X80171437Y89033177D01*
X80258876Y88931878D01*
X80396173Y88772818D01*
X80650553Y88537260D01*
X80929605Y88331525D01*
X81229852Y88158177D01*
X81547550Y88019379D01*
X81550191Y88018561D01*
X81550195Y88018560D01*
X81876086Y87917679D01*
X81876090Y87917678D01*
X81878739Y87916858D01*
X81881465Y87916338D01*
X82089785Y87876599D01*
X82219293Y87851894D01*
X82564966Y87825296D01*
X82567718Y87825392D01*
X82567723Y87825392D01*
X82777288Y87832711D01*
X82911449Y87837396D01*
X83254424Y87888042D01*
X83257093Y87888747D01*
X83257097Y87888748D01*
X83586957Y87975900D01*
X83586960Y87975901D01*
X83589617Y87976603D01*
X83625590Y87990556D01*
X83910261Y88100973D01*
X83910270Y88100977D01*
X83912848Y88101977D01*
X84220090Y88262599D01*
X84507513Y88456468D01*
X84602443Y88537260D01*
X84769430Y88679377D01*
X84769433Y88679380D01*
X84771534Y88681168D01*
X85008863Y88933897D01*
X85010525Y88936118D01*
X85214881Y89209286D01*
X85214887Y89209295D01*
X85216541Y89211506D01*
X85217937Y89213886D01*
X85217942Y89213893D01*
X85357348Y89451506D01*
X85391980Y89510535D01*
X85532994Y89827256D01*
X85550779Y89883321D01*
X85636991Y90155095D01*
X85636992Y90155101D01*
X85637824Y90157722D01*
X85674950Y90345222D01*
X85704628Y90495105D01*
X85704629Y90495112D01*
X85705164Y90497814D01*
X85734174Y90843293D01*
X85734992Y90901880D01*
X85735361Y90928253D01*
X85735361Y90928264D01*
X85735385Y90930000D01*
X85716032Y91276154D01*
X85658214Y91617993D01*
X85591687Y91850000D01*
X85563415Y91948598D01*
X85563414Y91948602D01*
X85562652Y91951258D01*
X85430537Y92271793D01*
X85263516Y92575603D01*
X85063670Y92858903D01*
X84833490Y93118161D01*
X84831441Y93120006D01*
X84831437Y93120010D01*
X84704136Y93234631D01*
X84575846Y93350144D01*
X84505698Y93400365D01*
X84296203Y93550349D01*
X84296198Y93550352D01*
X84293948Y93551963D01*
X84225418Y93590263D01*
X83993733Y93719749D01*
X83993724Y93719753D01*
X83991311Y93721102D01*
X83671706Y93855451D01*
X83339117Y93953337D01*
X83125665Y93990975D01*
X83000408Y94013061D01*
X83000403Y94013062D01*
X82997690Y94013540D01*
X82651680Y94035309D01*
X82648919Y94035174D01*
X82648915Y94035174D01*
X82379190Y94021982D01*
X82305399Y94018373D01*
X81963164Y93962943D01*
X81629241Y93869710D01*
X81593949Y93855451D01*
X81310352Y93740871D01*
X81310348Y93740869D01*
X81307791Y93739836D01*
X81305367Y93738525D01*
X81305362Y93738523D01*
X81005251Y93576254D01*
X81005242Y93576249D01*
X81002822Y93574940D01*
X81000560Y93573368D01*
X81000557Y93573366D01*
X80969762Y93551963D01*
X80718134Y93377077D01*
X80457276Y93148713D01*
X80455415Y93146675D01*
X80455414Y93146674D01*
X80384259Y93068749D01*
X80223499Y92892694D01*
X80019717Y92612213D01*
X79848470Y92310763D01*
X79847381Y92308221D01*
X79847377Y92308214D01*
X79832806Y92274216D01*
X79711893Y91992104D01*
X79711097Y91989469D01*
X79711096Y91989465D01*
X79700333Y91953817D01*
X79611687Y91660207D01*
X79611190Y91657499D01*
X79611189Y91657495D01*
X79552367Y91336995D01*
X79549102Y91319208D01*
X79548909Y91316446D01*
X79537146Y91148221D01*
X79524918Y90973358D01*
X78614306Y90973358D01*
X78610374Y91013454D01*
X78598738Y91132139D01*
X78598737Y91132144D01*
X78598265Y91136958D01*
X78555418Y91278873D01*
X78539269Y91332363D01*
X78539267Y91332368D01*
X78537870Y91336995D01*
X78532998Y91346159D01*
X78442044Y91517217D01*
X78442042Y91517220D01*
X78439771Y91521491D01*
X78363284Y91615274D01*
X78310766Y91679667D01*
X78310765Y91679668D01*
X78307705Y91683420D01*
X78146703Y91816613D01*
X77962896Y91915997D01*
X77898405Y91935960D01*
X77767906Y91976357D01*
X77767902Y91976358D01*
X77763285Y91977787D01*
X77758477Y91978292D01*
X77758474Y91978293D01*
X77560291Y91999123D01*
X77560289Y91999123D01*
X77555475Y91999629D01*
X77486196Y91993324D01*
X77352199Y91981130D01*
X77352195Y91981129D01*
X77347379Y91980691D01*
X77342737Y91979325D01*
X77342733Y91979324D01*
X77151573Y91923062D01*
X77151570Y91923061D01*
X77146926Y91921694D01*
X76961749Y91824886D01*
X76957980Y91821856D01*
X76957979Y91821855D01*
X76802675Y91696988D01*
X76802673Y91696986D01*
X76798902Y91693954D01*
X76795788Y91690243D01*
X76795787Y91690242D01*
X76732882Y91615274D01*
X76664588Y91533885D01*
X76563923Y91350776D01*
X76562460Y91346163D01*
X76562458Y91346159D01*
X76511676Y91186072D01*
X76500741Y91151602D01*
X76500201Y91146790D01*
X76500201Y91146789D01*
X76480748Y90973358D01*
X76477449Y90943949D01*
X76077189Y90943949D01*
X76070374Y91013454D01*
X76058738Y91132139D01*
X76058737Y91132144D01*
X76058265Y91136958D01*
X76015418Y91278873D01*
X75999269Y91332363D01*
X75999267Y91332368D01*
X75997870Y91336995D01*
X75992998Y91346159D01*
X75902044Y91517217D01*
X75902042Y91517220D01*
X75899771Y91521491D01*
X75823284Y91615274D01*
X75770766Y91679667D01*
X75770765Y91679668D01*
X75767705Y91683420D01*
X75606703Y91816613D01*
X75422896Y91915997D01*
X75358405Y91935960D01*
X75227906Y91976357D01*
X75227902Y91976358D01*
X75223285Y91977787D01*
X75218477Y91978292D01*
X75218474Y91978293D01*
X75020291Y91999123D01*
X75020289Y91999123D01*
X75015475Y91999629D01*
X74946196Y91993324D01*
X74812199Y91981130D01*
X74812195Y91981129D01*
X74807379Y91980691D01*
X74802737Y91979325D01*
X74802733Y91979324D01*
X74611573Y91923062D01*
X74611570Y91923061D01*
X74606926Y91921694D01*
X74421749Y91824886D01*
X74417980Y91821856D01*
X74417979Y91821855D01*
X74262675Y91696988D01*
X74262673Y91696986D01*
X74258902Y91693954D01*
X74255788Y91690243D01*
X74255787Y91690242D01*
X74192882Y91615274D01*
X74124588Y91533885D01*
X74023923Y91350776D01*
X74022460Y91346163D01*
X74022458Y91346159D01*
X73971676Y91186072D01*
X73960741Y91151602D01*
X73960201Y91146790D01*
X73960201Y91146789D01*
X73940748Y90973358D01*
X73937449Y90943949D01*
X73537189Y90943949D01*
X73530374Y91013454D01*
X73518738Y91132139D01*
X73518737Y91132144D01*
X73518265Y91136958D01*
X73475418Y91278873D01*
X73459269Y91332363D01*
X73459267Y91332368D01*
X73457870Y91336995D01*
X73452998Y91346159D01*
X73362044Y91517217D01*
X73362042Y91517220D01*
X73359771Y91521491D01*
X73283284Y91615274D01*
X73230766Y91679667D01*
X73230765Y91679668D01*
X73227705Y91683420D01*
X73066703Y91816613D01*
X72882896Y91915997D01*
X72818405Y91935960D01*
X72687906Y91976357D01*
X72687902Y91976358D01*
X72683285Y91977787D01*
X72678477Y91978292D01*
X72678474Y91978293D01*
X72480291Y91999123D01*
X72480289Y91999123D01*
X72475475Y91999629D01*
X72406196Y91993324D01*
X72272199Y91981130D01*
X72272195Y91981129D01*
X72267379Y91980691D01*
X72262737Y91979325D01*
X72262733Y91979324D01*
X72071573Y91923062D01*
X72071570Y91923061D01*
X72066926Y91921694D01*
X71881749Y91824886D01*
X71877980Y91821856D01*
X71877979Y91821855D01*
X71722675Y91696988D01*
X71722673Y91696986D01*
X71718902Y91693954D01*
X71715788Y91690243D01*
X71715787Y91690242D01*
X71652882Y91615274D01*
X71584588Y91533885D01*
X71483923Y91350776D01*
X71482460Y91346163D01*
X71482458Y91346159D01*
X71431676Y91186072D01*
X71420741Y91151602D01*
X71420201Y91146790D01*
X71420201Y91146789D01*
X71400748Y90973358D01*
X71397449Y90943949D01*
X70997189Y90943949D01*
X70990374Y91013454D01*
X70978738Y91132139D01*
X70978737Y91132144D01*
X70978265Y91136958D01*
X70935418Y91278873D01*
X70919269Y91332363D01*
X70919267Y91332368D01*
X70917870Y91336995D01*
X70912998Y91346159D01*
X70822044Y91517217D01*
X70822042Y91517220D01*
X70819771Y91521491D01*
X70743284Y91615274D01*
X70690766Y91679667D01*
X70690765Y91679668D01*
X70687705Y91683420D01*
X70526703Y91816613D01*
X70342896Y91915997D01*
X70278405Y91935960D01*
X70147906Y91976357D01*
X70147902Y91976358D01*
X70143285Y91977787D01*
X70138477Y91978292D01*
X70138474Y91978293D01*
X69940291Y91999123D01*
X69940289Y91999123D01*
X69935475Y91999629D01*
X69866196Y91993324D01*
X69732199Y91981130D01*
X69732195Y91981129D01*
X69727379Y91980691D01*
X69722737Y91979325D01*
X69722733Y91979324D01*
X69531573Y91923062D01*
X69531570Y91923061D01*
X69526926Y91921694D01*
X69341749Y91824886D01*
X69337980Y91821856D01*
X69337979Y91821855D01*
X69182675Y91696988D01*
X69182673Y91696986D01*
X69178902Y91693954D01*
X69175788Y91690243D01*
X69175787Y91690242D01*
X69112882Y91615274D01*
X69044588Y91533885D01*
X68943923Y91350776D01*
X68942460Y91346163D01*
X68942458Y91346159D01*
X68891676Y91186072D01*
X68880741Y91151602D01*
X68880201Y91146790D01*
X68880201Y91146789D01*
X68860748Y90973358D01*
X68857449Y90943949D01*
X68457189Y90943949D01*
X68450374Y91013454D01*
X68438738Y91132139D01*
X68438737Y91132144D01*
X68438265Y91136958D01*
X68395418Y91278873D01*
X68379269Y91332363D01*
X68379267Y91332368D01*
X68377870Y91336995D01*
X68372998Y91346159D01*
X68282044Y91517217D01*
X68282042Y91517220D01*
X68279771Y91521491D01*
X68203284Y91615274D01*
X68150766Y91679667D01*
X68150765Y91679668D01*
X68147705Y91683420D01*
X67986703Y91816613D01*
X67802896Y91915997D01*
X67738405Y91935960D01*
X67607906Y91976357D01*
X67607902Y91976358D01*
X67603285Y91977787D01*
X67598477Y91978292D01*
X67598474Y91978293D01*
X67400291Y91999123D01*
X67400289Y91999123D01*
X67395475Y91999629D01*
X67326196Y91993324D01*
X67192199Y91981130D01*
X67192195Y91981129D01*
X67187379Y91980691D01*
X67182737Y91979325D01*
X67182733Y91979324D01*
X66991573Y91923062D01*
X66991570Y91923061D01*
X66986926Y91921694D01*
X66801749Y91824886D01*
X66797980Y91821856D01*
X66797979Y91821855D01*
X66642675Y91696988D01*
X66642673Y91696986D01*
X66638902Y91693954D01*
X66635788Y91690243D01*
X66635787Y91690242D01*
X66572882Y91615274D01*
X66504588Y91533885D01*
X66403923Y91350776D01*
X66402460Y91346163D01*
X66402458Y91346159D01*
X66351676Y91186072D01*
X66340741Y91151602D01*
X66340201Y91146790D01*
X66340201Y91146789D01*
X66320748Y90973358D01*
X66317449Y90943949D01*
X65917189Y90943949D01*
X65910374Y91013454D01*
X65898738Y91132139D01*
X65898737Y91132144D01*
X65898265Y91136958D01*
X65855418Y91278873D01*
X65839269Y91332363D01*
X65839267Y91332368D01*
X65837870Y91336995D01*
X65832998Y91346159D01*
X65742043Y91517218D01*
X65739771Y91521491D01*
X65644891Y91637825D01*
X65622613Y91700721D01*
X65622986Y91813530D01*
X65629915Y93910828D01*
X65649014Y93968955D01*
X65698633Y94004755D01*
X65728914Y94009500D01*
X72134681Y94009500D01*
X72151106Y94008128D01*
X72168876Y94005138D01*
X72168880Y94005138D01*
X72172646Y94004504D01*
X72176463Y94004457D01*
X72176467Y94004457D01*
X72179032Y94004426D01*
X72185000Y94004353D01*
X72188783Y94004895D01*
X72188785Y94004895D01*
X72191680Y94005310D01*
X72201732Y94006750D01*
X72207978Y94007442D01*
X72274866Y94012706D01*
X72377357Y94020771D01*
X72377364Y94020772D01*
X72381226Y94021076D01*
X72467811Y94041863D01*
X72568844Y94066119D01*
X72568847Y94066120D01*
X72572621Y94067026D01*
X72576211Y94068513D01*
X72750880Y94140863D01*
X72750886Y94140866D01*
X72754471Y94142351D01*
X72757782Y94144380D01*
X72757786Y94144382D01*
X72822059Y94183769D01*
X72922298Y94245196D01*
X73071971Y94373029D01*
X73199804Y94522702D01*
X73302649Y94690529D01*
X73304134Y94694114D01*
X73304137Y94694120D01*
X73376487Y94868789D01*
X73377974Y94872379D01*
X73423924Y95063774D01*
X73436206Y95219829D01*
X73437273Y95228484D01*
X73439861Y95243870D01*
X73439861Y95243873D01*
X73440496Y95247646D01*
X73440647Y95260000D01*
X73440104Y95263793D01*
X73439856Y95267599D01*
X73440359Y95267632D01*
X73440538Y95291810D01*
X73445258Y95321612D01*
X73454830Y95351072D01*
X73476031Y95392680D01*
X73494236Y95417738D01*
X73527262Y95450764D01*
X73552320Y95468969D01*
X73593928Y95490170D01*
X73623388Y95499742D01*
X73652175Y95504301D01*
X73668870Y95505513D01*
X73671851Y95505477D01*
X73678823Y95504391D01*
X73685820Y95505306D01*
X73685821Y95505306D01*
X73711500Y95508664D01*
X73724336Y95509500D01*
X89110148Y95509500D01*
X89168339Y95490593D01*
G37*
%TD.AperFunction*%
%TD*%
M02*
