%TF.GenerationSoftware,KiCad,Pcbnew,6.0.7-f9a2dced07~116~ubuntu20.04.1*%
%TF.CreationDate,2022-10-11T04:26:53+03:00*%
%TF.ProjectId,obc-adcs-board,6f62632d-6164-4637-932d-626f6172642e,rev?*%
%TF.SameCoordinates,PX3e2df80PY83e4a60*%
%TF.FileFunction,Copper,L3,Inr*%
%TF.FilePolarity,Positive*%
%FSLAX46Y46*%
G04 Gerber Fmt 4.6, Leading zero omitted, Abs format (unit mm)*
G04 Created by KiCad (PCBNEW 6.0.7-f9a2dced07~116~ubuntu20.04.1) date 2022-10-11 04:26:53*
%MOMM*%
%LPD*%
G01*
G04 APERTURE LIST*
%TA.AperFunction,Profile*%
%ADD10C,0.100000*%
%TD*%
%TA.AperFunction,ComponentPad*%
%ADD11C,5.600000*%
%TD*%
%TA.AperFunction,ComponentPad*%
%ADD12R,0.850000X0.850000*%
%TD*%
%TA.AperFunction,ComponentPad*%
%ADD13R,1.530000X1.530000*%
%TD*%
%TA.AperFunction,ComponentPad*%
%ADD14C,1.530000*%
%TD*%
%TA.AperFunction,ViaPad*%
%ADD15C,0.800000*%
%TD*%
%TA.AperFunction,Conductor*%
%ADD16C,0.400000*%
%TD*%
%TA.AperFunction,Conductor*%
%ADD17C,0.350000*%
%TD*%
%TA.AperFunction,Conductor*%
%ADD18C,0.250000*%
%TD*%
%TA.AperFunction,Conductor*%
%ADD19C,0.150000*%
%TD*%
G04 APERTURE END LIST*
D10*
X1600000Y43065000D02*
X1600000Y53065000D01*
X66685000Y120000D02*
X89370000Y120000D01*
X850000Y42315000D02*
G75*
G03*
X100000Y41565000I0J-750000D01*
G01*
X65935000Y870000D02*
G75*
G03*
X65185000Y1620000I-750000J0D01*
G01*
X72185000Y94510000D02*
G75*
G03*
X72935000Y95260000I0J750000D01*
G01*
X90270000Y12065000D02*
X90270000Y1020000D01*
X850000Y42315000D02*
G75*
G03*
X1600000Y43065000I0J750000D01*
G01*
X25185000Y1620000D02*
G75*
G03*
X24435000Y870000I0J-750000D01*
G01*
X18185000Y94510000D02*
X72185000Y94510000D01*
X100000Y41565000D02*
X100000Y1010000D01*
X73685000Y96010000D02*
G75*
G03*
X72935000Y95260000I0J-750000D01*
G01*
X1000000Y96010000D02*
G75*
G03*
X100000Y95110000I0J-900000D01*
G01*
X100000Y1010000D02*
G75*
G03*
X1000000Y110000I900000J0D01*
G01*
X88770000Y13565000D02*
X88770000Y82565000D01*
X90270000Y12065000D02*
G75*
G03*
X89520000Y12815000I-750000J0D01*
G01*
X89520000Y83315000D02*
G75*
G03*
X88770000Y82565000I0J-750000D01*
G01*
X88770000Y13565000D02*
G75*
G03*
X89520000Y12815000I750000J0D01*
G01*
X25185000Y1620000D02*
X65185000Y1620000D01*
X73685000Y96010000D02*
X89370000Y96010000D01*
X89520000Y83315000D02*
G75*
G03*
X90270000Y84065000I0J750000D01*
G01*
X89370000Y120000D02*
G75*
G03*
X90270000Y1020000I0J900000D01*
G01*
X1600000Y53065000D02*
G75*
G03*
X850000Y53815000I-750000J0D01*
G01*
X23685000Y120000D02*
G75*
G03*
X24435000Y870000I0J750000D01*
G01*
X90270000Y95110000D02*
G75*
G03*
X89370000Y96010000I-900000J0D01*
G01*
X17435000Y95260000D02*
G75*
G03*
X18185000Y94510000I750000J0D01*
G01*
X100000Y54565000D02*
G75*
G03*
X850000Y53815000I750000J0D01*
G01*
X1000000Y96010000D02*
X16685000Y96010000D01*
X90270000Y95110000D02*
X90270000Y84065000D01*
X100000Y95110000D02*
X100000Y54565000D01*
X17435000Y95260000D02*
G75*
G03*
X16685000Y96010000I-750000J0D01*
G01*
X23685000Y120000D02*
X1000000Y110000D01*
X65935000Y870000D02*
G75*
G03*
X66685000Y120000I750000J0D01*
G01*
D11*
%TO.N,unconnected-(H4-Pad1)*%
%TO.C,H2*%
X82630000Y90930000D03*
%TD*%
%TO.N,unconnected-(H1-Pad1)*%
%TO.C,H3*%
X5180000Y5190000D03*
%TD*%
%TO.N,AC_GND_2*%
%TO.C,H4*%
X85170000Y5210000D03*
%TD*%
%TO.N,AC_GND_1*%
%TO.C,H1*%
X8990000Y90930000D03*
%TD*%
D12*
%TO.N,/OBC module/3V3_PROT*%
%TO.C,J10*%
X3000000Y9700000D03*
%TD*%
D13*
%TO.N,CAN1-*%
%TO.C,J1*%
X14048000Y83309000D03*
D14*
%TO.N,unconnected-(J1-Pad02)*%
X14048000Y85849000D03*
%TO.N,CAN1+*%
X16588000Y83309000D03*
%TO.N,unconnected-(J1-Pad04)*%
X16588000Y85849000D03*
%TO.N,unconnected-(J1-Pad05)*%
X19128000Y83309000D03*
%TO.N,unconnected-(J1-Pad06)*%
X19128000Y85849000D03*
%TO.N,unconnected-(J1-Pad07)*%
X21668000Y83309000D03*
%TO.N,unconnected-(J1-Pad08)*%
X21668000Y85849000D03*
%TO.N,unconnected-(J1-Pad09)*%
X24208000Y83309000D03*
%TO.N,unconnected-(J1-Pad10)*%
X24208000Y85849000D03*
%TO.N,unconnected-(J1-Pad11)*%
X26748000Y83309000D03*
%TO.N,unconnected-(J1-Pad12)*%
X26748000Y85849000D03*
%TO.N,unconnected-(J1-Pad13)*%
X29288000Y83309000D03*
%TO.N,unconnected-(J1-Pad14)*%
X29288000Y85849000D03*
%TO.N,unconnected-(J1-Pad15)*%
X31828000Y83309000D03*
%TO.N,unconnected-(J1-Pad16)*%
X31828000Y85849000D03*
%TO.N,unconnected-(J1-Pad17)*%
X34368000Y83309000D03*
%TO.N,unconnected-(J1-Pad18)*%
X34368000Y85849000D03*
%TO.N,unconnected-(J1-Pad19)*%
X36908000Y83309000D03*
%TO.N,unconnected-(J1-Pad20)*%
X36908000Y85849000D03*
%TO.N,unconnected-(J1-Pad21)*%
X39448000Y83309000D03*
%TO.N,unconnected-(J1-Pad22)*%
X39448000Y85849000D03*
%TO.N,unconnected-(J1-Pad23)*%
X41988000Y83309000D03*
%TO.N,unconnected-(J1-Pad24)*%
X41988000Y85849000D03*
%TO.N,unconnected-(J1-Pad25)*%
X44528000Y83309000D03*
%TO.N,unconnected-(J1-Pad26)*%
X44528000Y85849000D03*
%TO.N,unconnected-(J1-Pad27)*%
X47068000Y83309000D03*
%TO.N,unconnected-(J1-Pad28)*%
X47068000Y85849000D03*
%TO.N,unconnected-(J1-Pad29)*%
X49608000Y83309000D03*
%TO.N,unconnected-(J1-Pad30)*%
X49608000Y85849000D03*
%TO.N,unconnected-(J1-Pad31)*%
X52148000Y83309000D03*
%TO.N,unconnected-(J1-Pad32)*%
X52148000Y85849000D03*
%TO.N,unconnected-(J1-Pad33)*%
X54688000Y83309000D03*
%TO.N,unconnected-(J1-Pad34)*%
X54688000Y85849000D03*
%TO.N,unconnected-(J1-Pad35)*%
X57228000Y83309000D03*
%TO.N,unconnected-(J1-Pad36)*%
X57228000Y85849000D03*
%TO.N,unconnected-(J1-Pad37)*%
X59768000Y83309000D03*
%TO.N,unconnected-(J1-Pad38)*%
X59768000Y85849000D03*
%TO.N,unconnected-(J1-Pad39)*%
X62308000Y83309000D03*
%TO.N,unconnected-(J1-Pad40)*%
X62308000Y85849000D03*
%TO.N,/I2C_MTQ_SDA*%
X64848000Y83309000D03*
%TO.N,unconnected-(J1-Pad42)*%
X64848000Y85849000D03*
%TO.N,/I2C_MTQ_SCK*%
X67388000Y83309000D03*
%TO.N,unconnected-(J1-Pad44)*%
X67388000Y85849000D03*
%TO.N,GND*%
X69928000Y83309000D03*
X69928000Y85849000D03*
%TO.N,/EPS_3V3_ADCS*%
X72468000Y83309000D03*
%TO.N,/EPS_3V3_SU*%
X72468000Y85849000D03*
%TO.N,/EPS_3V3_OBC*%
X75008000Y83309000D03*
%TO.N,/EPS_3V3_RW*%
X75008000Y85849000D03*
%TO.N,unconnected-(J1-Pad51)*%
X77548000Y83309000D03*
%TO.N,/EPS_5V_SU*%
X77548000Y85849000D03*
%TD*%
D13*
%TO.N,CAN2-*%
%TO.C,J2*%
X14048000Y88389000D03*
D14*
%TO.N,unconnected-(J5-Pad02)*%
X14048000Y90929000D03*
%TO.N,CAN2+*%
X16588000Y88389000D03*
%TO.N,unconnected-(J5-Pad04)*%
X16588000Y90929000D03*
%TO.N,unconnected-(J5-Pad05)*%
X19128000Y88389000D03*
%TO.N,unconnected-(J5-Pad06)*%
X19128000Y90929000D03*
%TO.N,unconnected-(J5-Pad07)*%
X21668000Y88389000D03*
%TO.N,unconnected-(J5-Pad08)*%
X21668000Y90929000D03*
%TO.N,unconnected-(J5-Pad09)*%
X24208000Y88389000D03*
%TO.N,unconnected-(J5-Pad10)*%
X24208000Y90929000D03*
%TO.N,unconnected-(J5-Pad11)*%
X26748000Y88389000D03*
%TO.N,unconnected-(J5-Pad12)*%
X26748000Y90929000D03*
%TO.N,unconnected-(J5-Pad13)*%
X29288000Y88389000D03*
%TO.N,unconnected-(J5-Pad14)*%
X29288000Y90929000D03*
%TO.N,unconnected-(J5-Pad15)*%
X31828000Y88389000D03*
%TO.N,unconnected-(J5-Pad16)*%
X31828000Y90929000D03*
%TO.N,/OBC_UART_TX*%
X34368000Y88389000D03*
%TO.N,/OBC_UART_RX*%
X34368000Y90929000D03*
%TO.N,/ADCS_UART_TX*%
X36908000Y88389000D03*
%TO.N,/ADCS_UART_RX*%
X36908000Y90929000D03*
%TO.N,unconnected-(J5-Pad21)*%
X39448000Y88389000D03*
%TO.N,unconnected-(J5-Pad22)*%
X39448000Y90929000D03*
%TO.N,unconnected-(J5-Pad23)*%
X41988000Y88389000D03*
%TO.N,unconnected-(J5-Pad24)*%
X41988000Y90929000D03*
%TO.N,unconnected-(J5-Pad25)*%
X44528000Y88389000D03*
%TO.N,unconnected-(J5-Pad26)*%
X44528000Y90929000D03*
%TO.N,unconnected-(J5-Pad27)*%
X47068000Y88389000D03*
%TO.N,unconnected-(J5-Pad28)*%
X47068000Y90929000D03*
%TO.N,GND*%
X49608000Y88389000D03*
X49608000Y90929000D03*
X52148000Y88389000D03*
X52148000Y90929000D03*
%TO.N,unconnected-(J5-Pad33)*%
X54688000Y88389000D03*
%TO.N,unconnected-(J5-Pad34)*%
X54688000Y90929000D03*
%TO.N,unconnected-(J5-Pad35)*%
X57228000Y88389000D03*
%TO.N,unconnected-(J5-Pad36)*%
X57228000Y90929000D03*
%TO.N,unconnected-(J5-Pad37)*%
X59768000Y88389000D03*
%TO.N,unconnected-(J5-Pad38)*%
X59768000Y90929000D03*
%TO.N,unconnected-(J5-Pad39)*%
X62308000Y88389000D03*
%TO.N,unconnected-(J5-Pad40)*%
X62308000Y90929000D03*
%TO.N,unconnected-(J5-Pad41)*%
X64848000Y88389000D03*
%TO.N,unconnected-(J5-Pad42)*%
X64848000Y90929000D03*
%TO.N,unconnected-(J5-Pad43)*%
X67388000Y88389000D03*
%TO.N,unconnected-(J5-Pad44)*%
X67388000Y90929000D03*
%TO.N,unconnected-(J5-Pad45)*%
X69928000Y88389000D03*
%TO.N,unconnected-(J5-Pad46)*%
X69928000Y90929000D03*
%TO.N,/EPS_5V_PANELS*%
X72468000Y88389000D03*
%TO.N,/EPS_5V_ADM*%
X72468000Y90929000D03*
%TO.N,/EPS_12V_SU*%
X75008000Y88389000D03*
%TO.N,unconnected-(J5-Pad50)*%
X75008000Y90929000D03*
%TO.N,/EPS_5V_ADM*%
X77548000Y88389000D03*
%TO.N,unconnected-(J5-Pad52)*%
X77548000Y90929000D03*
%TD*%
D12*
%TO.N,/ADCS_VDD*%
%TO.C,J18*%
X9300000Y51200000D03*
%TD*%
D15*
%TO.N,/OBC module/3V3_LCLPROT_NAND*%
X19450000Y51500000D03*
X47298620Y57825500D03*
%TO.N,GND*%
X81600000Y18700000D03*
X47600000Y16600000D03*
X25200000Y42400000D03*
X33550000Y69400000D03*
X23800000Y48100000D03*
X35150000Y8300000D03*
X10300000Y44900000D03*
X43411765Y49939356D03*
X15273056Y32773056D03*
X74800000Y16000000D03*
X48300000Y64200000D03*
X72600000Y30900000D03*
X75000000Y73800000D03*
X74950000Y75800000D03*
X11450000Y72650000D03*
X74100000Y47100000D03*
X55000000Y29900000D03*
X22300000Y41300000D03*
X33550000Y77700000D03*
X67800000Y36500000D03*
X64100000Y66400000D03*
X44800000Y44125500D03*
X67300000Y60900000D03*
X28800000Y68000000D03*
X11100000Y38500000D03*
X32650000Y60400000D03*
X81600000Y44500000D03*
X76775000Y5300000D03*
X49400000Y57800000D03*
X5200000Y81700000D03*
X65350000Y7200000D03*
X43366241Y34898540D03*
X21740000Y65430000D03*
X50254992Y38855008D03*
X75775500Y43700000D03*
X83300000Y29800000D03*
X8500000Y47300000D03*
X68000000Y37700000D03*
X81600000Y25300000D03*
X30600000Y36400000D03*
X38674500Y42600000D03*
X58700000Y56350000D03*
X6500000Y53100000D03*
X58600000Y46400000D03*
X15975980Y30075517D03*
X70750000Y69800000D03*
X46000000Y63400000D03*
X61000000Y61700000D03*
X67550000Y47900000D03*
X67687701Y33787701D03*
X28920000Y56990000D03*
X7200000Y72700000D03*
X76475000Y3800000D03*
X12950000Y65100000D03*
X59050000Y55300000D03*
X47900000Y74400000D03*
X51390000Y49199989D03*
X54600000Y8900000D03*
X29775500Y35249989D03*
X21350000Y7400000D03*
X40000000Y66900000D03*
X4100000Y65000000D03*
X16074000Y63300000D03*
X53900000Y29900000D03*
X17600000Y57000000D03*
X4100000Y68700000D03*
X24200000Y39275500D03*
X48550000Y8900000D03*
X38800000Y46400000D03*
X56250000Y57150000D03*
X29250000Y37550000D03*
X44800000Y8700000D03*
X34400000Y50350000D03*
X11300000Y36800000D03*
X48700000Y19826944D03*
X33723056Y60676944D03*
X44710000Y51560000D03*
X46650000Y73900000D03*
X38150000Y91850000D03*
X44200000Y54100000D03*
X17250000Y12500000D03*
X47100000Y24800000D03*
X66100000Y10100000D03*
X69600000Y54649500D03*
X45449500Y38925500D03*
X25000000Y48000000D03*
X41300000Y62950000D03*
X6500000Y20500000D03*
X10400000Y33050000D03*
X25800000Y67470000D03*
X33675500Y46000000D03*
X53400000Y56350000D03*
X73200000Y75000000D03*
X28900000Y70499500D03*
X6900000Y16000000D03*
X9300000Y32950000D03*
X8300000Y32700000D03*
X21700000Y18900000D03*
X62387701Y55712299D03*
X81324500Y50800000D03*
X53100000Y35700000D03*
X38000000Y89500000D03*
X80124500Y75800000D03*
X25800000Y62800000D03*
X55571636Y6503924D03*
X66500000Y71500000D03*
X39100000Y76600000D03*
X49250000Y24174500D03*
X35850000Y45750000D03*
X19500000Y50400000D03*
X64600000Y31100000D03*
X30250000Y37500000D03*
X64100000Y64200000D03*
X67100000Y56000000D03*
X23800000Y50600000D03*
X72500000Y33438030D03*
X49700000Y35800000D03*
X37600008Y72300000D03*
X80550000Y57000000D03*
X69600000Y77200000D03*
X44230000Y48000000D03*
X38400000Y16150000D03*
X24600000Y22600000D03*
X5540500Y26100000D03*
X31700000Y7400000D03*
X8300000Y42500000D03*
X40000000Y65589500D03*
X65500000Y44950000D03*
X18675500Y69800000D03*
X51500000Y37400000D03*
X15300000Y6800000D03*
X37300000Y59500000D03*
X86600000Y13600000D03*
X22150000Y66575000D03*
X63800000Y26000000D03*
X78100000Y45400000D03*
X15750000Y51550000D03*
X20700000Y27600000D03*
X60700000Y42800000D03*
X74800000Y15100000D03*
X27500000Y20000000D03*
X20150000Y32700000D03*
X19300000Y33750000D03*
X23400000Y71200000D03*
X1800000Y82700000D03*
X25875431Y53399971D03*
X45000000Y47200000D03*
X16100000Y61500000D03*
X67400000Y59500000D03*
X31600000Y14700000D03*
X7000000Y35400000D03*
X85100000Y13600000D03*
X52950000Y73250000D03*
X43373809Y36404080D03*
X53600000Y69025500D03*
X72200000Y7350000D03*
X75550000Y63250000D03*
X74600000Y49400000D03*
X16500000Y47000000D03*
X40500000Y70200000D03*
X39150000Y15450000D03*
X24700000Y32224500D03*
X22375500Y67800000D03*
X56503904Y52400000D03*
X11190000Y67560000D03*
X42000000Y69200000D03*
X8000000Y36600000D03*
X51450000Y55350000D03*
X52600000Y66300000D03*
X46350000Y28324500D03*
X66750000Y49350000D03*
X74550000Y62250000D03*
X16100000Y59900000D03*
X13100000Y18300000D03*
X73050000Y40200000D03*
X63050000Y47675500D03*
X36702141Y36857492D03*
X54900000Y67000000D03*
X73303571Y37000000D03*
X74850000Y46350000D03*
X44700000Y73700000D03*
X68200000Y43600000D03*
X64900000Y61000000D03*
X33700000Y71249511D03*
X60598056Y29001944D03*
%TO.N,/ADCS_VDD*%
X11900000Y41300000D03*
X64500000Y56100000D03*
X7300000Y77900000D03*
X44710000Y49800000D03*
X67100000Y69800000D03*
X60400000Y66500000D03*
X52000000Y56550000D03*
X69150000Y56300000D03*
X58300000Y22600000D03*
X68900000Y69600000D03*
X75775500Y44900000D03*
X44600000Y41200000D03*
X70950000Y56200000D03*
X4200000Y63400000D03*
X73300000Y52300000D03*
X36550000Y58600000D03*
X76300000Y48400000D03*
X74350000Y41100000D03*
X74500000Y38700000D03*
X31100000Y48200000D03*
X75350000Y36950000D03*
X23800000Y73700000D03*
X70000000Y29300000D03*
X65500000Y59200000D03*
X57100000Y59200000D03*
X55600000Y58250000D03*
X7240000Y70070000D03*
X77400000Y63000000D03*
X53800000Y58300000D03*
X24600000Y53300000D03*
X46600000Y26800000D03*
X61800000Y68974500D03*
X61600000Y71300000D03*
X56300000Y30200000D03*
X71500000Y10000000D03*
X63300000Y70000000D03*
X36400000Y76700000D03*
X12862299Y58862299D03*
X72800000Y48600000D03*
%TO.N,/OBC module/3V3_LCLPROT_MRAM*%
X67600000Y26000000D03*
X67600000Y28900000D03*
X62950000Y33800000D03*
%TO.N,/ADCS module/Microcontroller/MCU_VDDCORE*%
X62900000Y28300000D03*
X71200000Y33500000D03*
X45803305Y51672096D03*
X46280000Y46754500D03*
X53650000Y26975500D03*
X57700000Y55300000D03*
X72500000Y46500000D03*
X43300000Y31300000D03*
%TO.N,/OBC module/3V3_PROT*%
X57750000Y57250000D03*
X47600000Y15400000D03*
X72300000Y43000000D03*
X20700000Y26400000D03*
X17600000Y58900000D03*
X67300000Y10000000D03*
X49600000Y34500000D03*
X63100000Y42100000D03*
X9800000Y17600000D03*
X61100000Y10000000D03*
X23336186Y40776577D03*
X12950000Y63750000D03*
X19700000Y30700000D03*
X68496928Y64136036D03*
X20199500Y59600000D03*
X63300000Y39300000D03*
X51400000Y46200000D03*
X28800000Y62000000D03*
X56600000Y42450000D03*
X38350000Y69100000D03*
X60800000Y77600000D03*
X7000000Y39300000D03*
X24400000Y15000000D03*
X46800000Y49599500D03*
X18250000Y60800000D03*
X14200000Y11300000D03*
X67200000Y46050000D03*
X54400000Y61500000D03*
X20000000Y22700000D03*
X73600000Y54100000D03*
X18700000Y35500000D03*
X21537701Y61937701D03*
X20550000Y35430000D03*
X51650000Y74100000D03*
X45000000Y76000000D03*
X22300000Y64225000D03*
X45100000Y64200000D03*
X7100000Y18000000D03*
X74222701Y59300000D03*
X49200000Y22500000D03*
X39800000Y42449000D03*
X43000000Y76500000D03*
X32500000Y71800000D03*
X60100000Y52400000D03*
X67150000Y50450000D03*
X62050000Y76150000D03*
X63350000Y35650000D03*
X30900000Y59600000D03*
X50300000Y24850000D03*
X61800000Y79150000D03*
X37200000Y15900000D03*
%TO.N,/OBC module/MCU_VDDCORE*%
X36000000Y42000000D03*
X51600000Y35600000D03*
X39250000Y14050000D03*
X32800000Y13700000D03*
X20700000Y20300000D03*
X50500000Y19900000D03*
X21350000Y32700000D03*
%TO.N,ADM_PD*%
X76600000Y60100000D03*
X29400000Y56000000D03*
%TO.N,/ADCS module/MAG_FUSE*%
X11900000Y35800000D03*
X9500000Y28900000D03*
%TO.N,/EPS_3V3_OBC*%
X4100000Y69900000D03*
%TO.N,/EPS_3V3_ADCS*%
X4000000Y66800000D03*
%TO.N,/EPS_3V3_RW*%
X86700000Y56500000D03*
%TO.N,/OBC module/MEM_NAND_ENABLE_1*%
X25187701Y44687701D03*
X19000000Y54000000D03*
%TO.N,/OBC module/MEM_NAND_ENABLE_2*%
X16500000Y53650000D03*
X20450000Y43100000D03*
%TO.N,/OBC module/MEM_NAND_WR_PROTECT*%
X17200000Y45400000D03*
X26450000Y37400000D03*
%TO.N,/OBC module/MEM_D0*%
X38900000Y24150000D03*
X37700000Y28900000D03*
X63500000Y17500000D03*
%TO.N,/OBC module/MEM_D1*%
X65500000Y16600000D03*
X35900000Y28800000D03*
%TO.N,/OBC module/MEM_D2*%
X34100000Y28800000D03*
X67200000Y15850000D03*
%TO.N,/OBC module/MEM_D3*%
X32500000Y29500000D03*
X68300000Y14400000D03*
%TO.N,/OBC module/MEM_D4*%
X58600000Y30000000D03*
X38700000Y36700000D03*
%TO.N,/OBC module/MEM_D5*%
X37550000Y48700000D03*
X31375500Y33550000D03*
X31400000Y46400000D03*
X67500000Y22300000D03*
%TO.N,/OBC module/MEM_D6*%
X34250000Y48800000D03*
X37500000Y50750000D03*
X65831600Y22356199D03*
X32700000Y35800000D03*
%TO.N,/OBC module/MEM_D7*%
X64100000Y22500000D03*
X33009668Y33940332D03*
%TO.N,/OBC module/LCL_MRAM_SET*%
X61900000Y40500000D03*
X57100000Y26250000D03*
%TO.N,/OBC module/LCL_MRAM_RST*%
X63300000Y37500000D03*
X56950000Y24250000D03*
%TO.N,/OBC module/LCL_CAN_1_SET*%
X47004429Y60955706D03*
X43800000Y71400000D03*
%TO.N,/OBC module/LCL_CAN_1_RST*%
X43250000Y59925000D03*
X43700000Y65900000D03*
%TO.N,/OBC module/LCL_CAN1_OP-AMP_OUT*%
X58000000Y65800000D03*
X72550000Y57650000D03*
%TO.N,/I2C_MTQ_SDA*%
X78274500Y42500000D03*
X65400000Y43800000D03*
X37950000Y41724500D03*
%TO.N,/I2C_MTQ_SCK*%
X53900000Y40275500D03*
X24970104Y38375431D03*
X80800000Y54100000D03*
%TO.N,/OBC module/Connectors/SU_SWCLK*%
X80300000Y69350000D03*
X81549312Y38950688D03*
%TO.N,/OBC module/Connectors/SU_SWDIO*%
X81600000Y35100000D03*
X78450000Y66550000D03*
%TO.N,/ADCS_SWDIO*%
X10900000Y52800000D03*
X78729735Y46347576D03*
X14100000Y3400000D03*
%TO.N,/OBC_UART_TX*%
X3800000Y58700000D03*
X26850000Y35650000D03*
%TO.N,/OBC_UART_RX*%
X18400000Y39500000D03*
X4786638Y57093772D03*
%TO.N,/ADCS_UART_TX*%
X16600000Y67400000D03*
%TO.N,/ADCS_UART_RX*%
X16000000Y69300000D03*
%TO.N,/ADCS_SWCLK*%
X12200000Y50700000D03*
X74900000Y42950000D03*
X42200000Y4900000D03*
%TO.N,/ADCS_RESET*%
X5050000Y61750000D03*
X56800000Y40000000D03*
%TO.N,/EPS_5V_PANELS*%
X6510000Y21630000D03*
X71000000Y7300000D03*
X81600000Y24110000D03*
X54260000Y6670000D03*
%TO.N,/OBC module/MCU_SWCLK*%
X26700000Y30450000D03*
X10675000Y40000000D03*
%TO.N,/OBC module/MCU_SWDIO*%
X24900000Y35200000D03*
X13700000Y41200000D03*
%TO.N,/OBC module/ADM_DEPLOY_1*%
X75200000Y51100000D03*
X39450000Y38750000D03*
%TO.N,/OBC module/ADM_DEPLOY_2*%
X53900000Y44800000D03*
X75200000Y53000000D03*
%TO.N,/OBC module/ADM_DEPLOY_3*%
X56100000Y35200000D03*
X58300000Y38700000D03*
X41100000Y34200000D03*
X78100000Y49800000D03*
%TO.N,/OBC module/ADM_ENABLE_1*%
X42200000Y44800000D03*
X75350000Y57650000D03*
%TO.N,/OBC module/ADM_ENABLE_2*%
X75300000Y55850000D03*
X35800000Y38600000D03*
%TO.N,/OBC module/I2C_SDA_PANELS*%
X67600000Y6350000D03*
X5440000Y19060000D03*
X5440000Y24880000D03*
X79750000Y20740000D03*
X50900000Y7800000D03*
X25200000Y29400000D03*
%TO.N,/OBC module/I2C_SCK_PANELS*%
X8850000Y39750000D03*
X82700000Y21900000D03*
X52100000Y6050000D03*
X4410000Y23520000D03*
X68800000Y4850000D03*
X19700000Y38200000D03*
%TO.N,/OBC module/MCU_TRACECLK*%
X27200000Y17200000D03*
X23500000Y7100000D03*
%TO.N,/OBC module/MCU_TRACED_3*%
X26000000Y21500000D03*
X25126944Y8773056D03*
%TO.N,/OBC module/MCU_TRACED_2*%
X27200000Y8900000D03*
X27700000Y22500000D03*
%TO.N,/OBC module/MCU_TRACED_1*%
X29300000Y8800000D03*
X30500000Y21600000D03*
%TO.N,/OBC module/MCU_TRACED_0*%
X32200000Y20700000D03*
X31400000Y8800000D03*
%TO.N,/OBC module/MEM_MRAM_ENABLE*%
X62800000Y9400000D03*
X31900000Y22700000D03*
%TO.N,/OBC module/MEM_MRAM_WR_ENABLE*%
X33600000Y22800000D03*
X68700000Y10000000D03*
%TO.N,/ADCS module/Magnetometer/XINP*%
X7100000Y29400000D03*
X13400000Y21100000D03*
%TO.N,/ADCS module/Magnetometer/YINP*%
X18400000Y24600000D03*
X11700000Y26200000D03*
%TO.N,/ADCS module/Magnetometer/YINN*%
X16800000Y23000000D03*
X9700000Y26000000D03*
%TO.N,/ADCS module/I2C_SDA_SENS*%
X70250000Y63900000D03*
X74500000Y60950000D03*
X55150000Y52400000D03*
%TO.N,/ADCS module/MAG_CS*%
X15900000Y31600000D03*
X51100000Y22550000D03*
%TO.N,/ADCS module/GYR_MISO*%
X32200000Y69450000D03*
X49350000Y63250000D03*
X43700000Y68000000D03*
X30400000Y70900000D03*
X25450000Y59010000D03*
X41800000Y72600000D03*
%TO.N,/ADCS module/GYR_CS3*%
X57600000Y47300000D03*
X37500000Y55400000D03*
X40600000Y52300000D03*
X34400000Y58900000D03*
%TO.N,/ADCS module/GYR_CS2*%
X56700000Y67500000D03*
X58800000Y60900000D03*
%TO.N,/ADCS module/GYR_CS1*%
X60300000Y55600000D03*
X40100000Y56500000D03*
%TO.N,/OBC module/I2C_SDA_SENS*%
X17950000Y17400000D03*
X22550000Y15050000D03*
X17900000Y13950000D03*
%TO.N,/OBC module/LCL_PWM_CAN1*%
X44900000Y60900000D03*
X47200000Y63500000D03*
%TO.N,/OBC module/LCL_PWM_MRAM*%
X55150000Y25850000D03*
X60087299Y34087299D03*
%TO.N,/OBC module/LCL_PWM_NAND*%
X57700000Y34100000D03*
X55600000Y28600000D03*
%TO.N,/ADCS module/MAG_DRDY*%
X9700000Y34600000D03*
X36900000Y26600000D03*
%TO.N,/ADCS module/GYR_MOSI*%
X27400000Y59100000D03*
X54900000Y77800000D03*
X33200000Y61900000D03*
X53150000Y62850000D03*
X54800000Y68400000D03*
X48800000Y59900000D03*
X62950000Y52400000D03*
%TO.N,/ADCS module/GYR_SPCK*%
X29150000Y72350000D03*
X40400000Y74600000D03*
X51300000Y63400000D03*
X25400000Y60800000D03*
%TO.N,/ADCS module/MAG_SPCK*%
X28634668Y29565332D03*
X13386732Y34315109D03*
X54650000Y33850000D03*
%TO.N,/ADCS module/MAG_MOSI*%
X15800000Y34900000D03*
X53400000Y37400000D03*
X31400000Y31100000D03*
%TO.N,/ADCS module/MAG_MISO*%
X4252345Y38500000D03*
X14500000Y36100000D03*
X52600000Y39000000D03*
%TO.N,/OBC module/MEM_A20*%
X32550000Y37550000D03*
X28900000Y11400000D03*
%TO.N,/OBC module/MEM_A5*%
X35450000Y17050000D03*
X69200000Y16600000D03*
%TO.N,/OBC module/MEM_A6*%
X35400000Y20000000D03*
X70400000Y15200000D03*
%TO.N,/OBC module/MEM_A7*%
X34900000Y21700000D03*
X71500000Y14350000D03*
%TO.N,/OBC module/MEM_A8*%
X40750000Y24500000D03*
X71100000Y17700000D03*
%TO.N,/OBC module/MEM_A9*%
X73100000Y18600000D03*
X42550000Y24600000D03*
%TO.N,/OBC module/MEM_A10*%
X71200000Y26000000D03*
X34100000Y32500000D03*
%TO.N,/OBC module/MEM_A11*%
X72300000Y22500000D03*
X39887877Y27669050D03*
%TO.N,/OBC module/MEM_A12*%
X39200000Y26050000D03*
X70800000Y21000000D03*
%TO.N,/OBC module/MEM_A13*%
X68800000Y19900000D03*
X41400000Y26150000D03*
%TO.N,/OBC module/MEM_MRAM_OUT_ENABLE*%
X63600000Y14400000D03*
X29800000Y27650000D03*
%TO.N,/OBC module/MEM_A17*%
X53040000Y13980000D03*
X30350000Y23550000D03*
%TO.N,/OBC module/MEM_A18*%
X29900000Y25200000D03*
X51250000Y13700000D03*
%TO.N,/OBC module/MEM_A19*%
X52720273Y28469773D03*
X36600000Y34800000D03*
%TO.N,/ADCS module/CAN_TX_1*%
X49700000Y48600000D03*
X29150000Y76250000D03*
%TO.N,/ADCS module/CAN_RX_1*%
X50172201Y50544249D03*
X32500000Y73900000D03*
%TO.N,/ADCS module/CAN_TX_2*%
X67900000Y40600000D03*
X11300000Y77175500D03*
%TO.N,/ADCS module/CAN_RX_2*%
X6875394Y74124606D03*
X50200000Y42350000D03*
%TO.N,/ADCS module/CAN_FAULT_2*%
X33600000Y55900000D03*
X49800011Y52350000D03*
%TO.N,/ADCS module/CAN_SILENT_2*%
X53000000Y42200000D03*
X11370000Y79060000D03*
%TO.N,/OBC module/CAN_RX_2*%
X29000000Y32800000D03*
X12910498Y74524500D03*
%TO.N,/OBC module/CAN_FAULT_2*%
X20100000Y40850000D03*
X9700000Y79600000D03*
%TO.N,/OBC module/CAN_TX_1*%
X17400000Y72400000D03*
X39420000Y32380000D03*
%TO.N,/OBC module/CAN_RX_1*%
X42300000Y35700000D03*
X22400000Y74900000D03*
%TO.N,/OBC module/CAN_SILENT_1*%
X17900000Y78900000D03*
X19400000Y67800000D03*
%TO.N,/OBC module/CAN_FAULT_1*%
X22400000Y79200000D03*
X20400000Y66000000D03*
%TO.N,/OBC module/CAN_TX_2*%
X9000000Y77400000D03*
X26900000Y28700000D03*
%TO.N,/OBC module/CAN_SILENT_2*%
X7300000Y82600000D03*
X21200000Y39350000D03*
%TO.N,CAN1-*%
X73875055Y68797621D03*
X83405280Y41811091D03*
X13450000Y71304998D03*
X80849000Y63900000D03*
X27700000Y79750500D03*
%TO.N,CAN1+*%
X27700000Y78650500D03*
X80849000Y62800000D03*
X74652873Y68019803D03*
X14550000Y71304998D03*
X82627462Y42588909D03*
%TO.N,CAN2-*%
X2950000Y79900000D03*
X80325998Y71600000D03*
X10211091Y83658909D03*
X83337163Y32450000D03*
%TO.N,CAN2+*%
X1850000Y79900000D03*
X10988909Y82881091D03*
X83337163Y31350000D03*
X80325998Y72700000D03*
%TO.N,/OBC module/NRST_OBC*%
X25800000Y32800000D03*
X17100000Y62200000D03*
X12800000Y62000000D03*
X14800000Y38400000D03*
%TO.N,AC_GND_1*%
X4600000Y87400000D03*
X3200000Y87400000D03*
X6000000Y87400000D03*
%TO.N,AC_GND_2*%
X85200000Y9100000D03*
X81275000Y5200000D03*
X86500000Y9100000D03*
X81275000Y3900000D03*
%TD*%
D16*
%TO.N,/OBC module/3V3_LCLPROT_MRAM*%
X67600000Y29700000D02*
X67600000Y28900000D01*
X67600000Y26000000D02*
X67600000Y28900000D01*
X63500000Y33800000D02*
X67600000Y29700000D01*
X62950000Y33800000D02*
X63500000Y33800000D01*
D17*
%TO.N,ADM_PD*%
X32160000Y53240000D02*
X29400000Y56000000D01*
X70000000Y53700000D02*
X46700000Y53700000D01*
X46700000Y53700000D02*
X46240000Y53240000D01*
X76600000Y60100000D02*
X76400000Y60100000D01*
X46240000Y53240000D02*
X32160000Y53240000D01*
X76400000Y60100000D02*
X70000000Y53700000D01*
D18*
%TO.N,/OBC module/MEM_NAND_ENABLE_1*%
X25187701Y44687701D02*
X25175402Y44700000D01*
X21125000Y44700000D02*
X18400000Y47425000D01*
X25175402Y44700000D02*
X21125000Y44700000D01*
X18400000Y47425000D02*
X18400000Y53400000D01*
X18400000Y53400000D02*
X19000000Y54000000D01*
%TO.N,/OBC module/MEM_NAND_ENABLE_2*%
X20450000Y43400000D02*
X17650000Y46200000D01*
X17650000Y46200000D02*
X17650000Y52500000D01*
X20450000Y43100000D02*
X20450000Y43400000D01*
X17650000Y52500000D02*
X16500000Y53650000D01*
%TO.N,/OBC module/MEM_NAND_WR_PROTECT*%
X24912307Y37200000D02*
X17200000Y44912307D01*
X26250000Y37200000D02*
X24912307Y37200000D01*
X26450000Y37400000D02*
X26250000Y37200000D01*
X17200000Y44912307D02*
X17200000Y45400000D01*
%TO.N,/OBC module/MEM_D0*%
X38900000Y24150000D02*
X37800000Y25250000D01*
X53700000Y18200000D02*
X44850000Y18200000D01*
X37800000Y28800000D02*
X37700000Y28900000D01*
X44850000Y18200000D02*
X38900000Y24150000D01*
X54400000Y17500000D02*
X53700000Y18200000D01*
X37800000Y25250000D02*
X37800000Y28800000D01*
X63500000Y17500000D02*
X54400000Y17500000D01*
%TO.N,/OBC module/MEM_D1*%
X36000000Y25700000D02*
X44200000Y17500000D01*
X54150480Y16649520D02*
X65450480Y16649520D01*
X36000000Y28700000D02*
X36000000Y25700000D01*
X35900000Y28800000D02*
X36000000Y28700000D01*
X65450480Y16649520D02*
X65500000Y16600000D01*
X53300000Y17500000D02*
X54150480Y16649520D01*
X44200000Y17500000D02*
X53300000Y17500000D01*
%TO.N,/OBC module/MEM_D2*%
X39450000Y21550000D02*
X39450000Y18750000D01*
X39450000Y18750000D02*
X43700000Y14500000D01*
X64200000Y16200000D02*
X64900000Y15500000D01*
X43700000Y14500000D02*
X48200000Y14500000D01*
X49900000Y16200000D02*
X64200000Y16200000D01*
X48200000Y14500000D02*
X49900000Y16200000D01*
X64900000Y15500000D02*
X66850000Y15500000D01*
X66850000Y15500000D02*
X67200000Y15850000D01*
X34100000Y26900000D02*
X39450000Y21550000D01*
X34100000Y28800000D02*
X34100000Y26900000D01*
%TO.N,/OBC module/MEM_D3*%
X63700000Y15600000D02*
X64900000Y14400000D01*
X50600000Y15600000D02*
X63700000Y15600000D01*
X43600000Y13900000D02*
X48900000Y13900000D01*
X64900000Y14400000D02*
X68300000Y14400000D01*
X32500000Y29500000D02*
X32500000Y27700000D01*
X32500000Y27700000D02*
X38750000Y21450000D01*
X38750000Y18750000D02*
X43600000Y13900000D01*
X38750000Y21450000D02*
X38750000Y18750000D01*
X48900000Y13900000D02*
X50600000Y15600000D01*
%TO.N,/OBC module/MEM_D4*%
X56575000Y36525000D02*
X46575000Y36525000D01*
X39300000Y37300000D02*
X38700000Y36700000D01*
X58600000Y30000000D02*
X58600000Y34500000D01*
X46575000Y36525000D02*
X45800000Y37300000D01*
X45800000Y37300000D02*
X39300000Y37300000D01*
X58600000Y34500000D02*
X56575000Y36525000D01*
%TO.N,/OBC module/MEM_D5*%
X32400000Y47400000D02*
X36250000Y47400000D01*
X48250989Y29049011D02*
X56400480Y20899520D01*
X33750000Y29950000D02*
X39000000Y29950000D01*
X31375500Y32324500D02*
X33750000Y29950000D01*
X39900989Y29049011D02*
X48250989Y29049011D01*
X31375500Y33550000D02*
X31375500Y32324500D01*
X56400480Y20899520D02*
X66099520Y20899520D01*
X36250000Y47400000D02*
X37550000Y48700000D01*
X39000000Y29950000D02*
X39900989Y29049011D01*
X31400000Y46400000D02*
X32400000Y47400000D01*
X66099520Y20899520D02*
X67500000Y22300000D01*
%TO.N,/OBC module/MEM_D6*%
X65831600Y22356199D02*
X64824921Y21349520D01*
X48655046Y29498531D02*
X40701469Y29498531D01*
X56804057Y21349520D02*
X48655046Y29498531D01*
X34950000Y48800000D02*
X34250000Y48800000D01*
X34100000Y30450000D02*
X32200000Y32350000D01*
X32200000Y32350000D02*
X32200000Y35300000D01*
X40701469Y29498531D02*
X39750000Y30450000D01*
X39750000Y30450000D02*
X34100000Y30450000D01*
X32200000Y35300000D02*
X32700000Y35800000D01*
X36900000Y50750000D02*
X34950000Y48800000D01*
X37500000Y50750000D02*
X36900000Y50750000D01*
X64824921Y21349520D02*
X56804057Y21349520D01*
%TO.N,/OBC module/MEM_D7*%
X33009668Y33940332D02*
X33009668Y32390332D01*
X63400000Y21800000D02*
X64100000Y22500000D01*
X48894821Y29948051D02*
X57042872Y21800000D01*
X33009668Y32390332D02*
X34400000Y31000000D01*
X57042872Y21800000D02*
X63400000Y21800000D01*
X34400000Y31000000D02*
X40650000Y31000000D01*
X40650000Y31000000D02*
X41701949Y29948051D01*
X41701949Y29948051D02*
X48894821Y29948051D01*
%TO.N,/OBC module/LCL_MRAM_SET*%
X61900000Y40500000D02*
X61400000Y40000000D01*
X61400000Y40000000D02*
X61400000Y28500000D01*
X61400000Y28500000D02*
X59150000Y26250000D01*
X59150000Y26250000D02*
X57100000Y26250000D01*
%TO.N,/OBC module/LCL_MRAM_RST*%
X56950000Y24250000D02*
X57100000Y24400000D01*
X62100000Y36300000D02*
X63300000Y37500000D01*
X62100000Y27850000D02*
X62100000Y36300000D01*
X58650000Y24400000D02*
X62100000Y27850000D01*
X57100000Y24400000D02*
X58650000Y24400000D01*
%TO.N,/OBC module/LCL_CAN_1_SET*%
X50400000Y64400000D02*
X43800000Y71000000D01*
X48555706Y60955706D02*
X50400000Y62800000D01*
X47004429Y60955706D02*
X48555706Y60955706D01*
X43800000Y71000000D02*
X43800000Y71400000D01*
X50400000Y62800000D02*
X50400000Y64400000D01*
%TO.N,/OBC module/LCL_CAN_1_RST*%
X43700000Y60375000D02*
X43700000Y65900000D01*
X43250000Y59925000D02*
X43700000Y60375000D01*
%TO.N,/OBC module/LCL_CAN1_OP-AMP_OUT*%
X71600000Y59900000D02*
X71600000Y64050000D01*
X71600000Y64050000D02*
X70250000Y65400000D01*
X58400000Y65400000D02*
X58000000Y65800000D01*
X72550000Y57650000D02*
X72550000Y58950000D01*
X70250000Y65400000D02*
X58400000Y65400000D01*
X72550000Y58950000D02*
X71600000Y59900000D01*
%TO.N,/I2C_MTQ_SDA*%
X42180000Y40900000D02*
X43580000Y42300000D01*
X43580000Y42300000D02*
X47700000Y42300000D01*
X47700000Y42300000D02*
X49200000Y43800000D01*
X38774500Y40900000D02*
X42180000Y40900000D01*
X49200000Y43800000D02*
X65400000Y43800000D01*
X37950000Y41724500D02*
X38774500Y40900000D01*
%TO.N,/OBC module/Connectors/SU_SWCLK*%
X79300000Y66000000D02*
X79300000Y54000000D01*
X79300000Y54000000D02*
X79700000Y53600000D01*
X80300000Y69350000D02*
X80300000Y67000000D01*
X80300000Y67000000D02*
X79300000Y66000000D01*
X80700000Y39400000D02*
X81149312Y38950688D01*
X80700000Y47100000D02*
X80700000Y39400000D01*
X81149312Y38950688D02*
X81549312Y38950688D01*
X79700000Y53600000D02*
X79700000Y48100000D01*
X79700000Y48100000D02*
X80700000Y47100000D01*
%TO.N,/OBC module/Connectors/SU_SWDIO*%
X78450000Y66550000D02*
X78450000Y61750000D01*
X80100000Y36600000D02*
X81600000Y35100000D01*
X78450000Y61750000D02*
X77750000Y61050000D01*
X79100000Y50450000D02*
X79100000Y47700000D01*
X79100000Y47700000D02*
X80100000Y46700000D01*
X80100000Y46700000D02*
X80100000Y36600000D01*
X77750000Y51800000D02*
X79100000Y50450000D01*
X77750000Y61050000D02*
X77750000Y51800000D01*
%TO.N,/ADCS_SWDIO*%
X2300000Y39900000D02*
X2300000Y13200000D01*
X10900000Y48500000D02*
X2300000Y39900000D01*
X12100000Y3400000D02*
X14100000Y3400000D01*
X85000000Y26800000D02*
X85000000Y14600000D01*
X2300000Y13200000D02*
X12100000Y3400000D01*
X79300000Y45777311D02*
X79300000Y32500000D01*
X14300000Y3200000D02*
X14100000Y3400000D01*
X10900000Y52800000D02*
X10900000Y48500000D01*
X78729735Y46347576D02*
X79300000Y45777311D01*
X79300000Y32500000D02*
X85000000Y26800000D01*
X85000000Y14600000D02*
X73600000Y3200000D01*
X73600000Y3200000D02*
X14300000Y3200000D01*
%TO.N,/OBC_UART_TX*%
X22100000Y38300000D02*
X20850000Y38300000D01*
X33100000Y87121000D02*
X34368000Y88389000D01*
X3100000Y59400000D02*
X3100000Y71000000D01*
X3100000Y71000000D02*
X4600000Y72500000D01*
X26400000Y36100000D02*
X24300000Y36100000D01*
X6300000Y81100000D02*
X6300000Y83230000D01*
X4600000Y79400000D02*
X6300000Y81100000D01*
X7670000Y84600000D02*
X32500000Y84600000D01*
X33100000Y85200000D02*
X33100000Y87121000D01*
X26850000Y35650000D02*
X26400000Y36100000D01*
X20850000Y38300000D02*
X13650000Y45500000D01*
X8300000Y58700000D02*
X3800000Y58700000D01*
X24300000Y36100000D02*
X22100000Y38300000D01*
X6300000Y83230000D02*
X7670000Y84600000D01*
X13650000Y53350000D02*
X8300000Y58700000D01*
X3800000Y58700000D02*
X3100000Y59400000D01*
X4600000Y72500000D02*
X4600000Y79400000D01*
X32500000Y84600000D02*
X33100000Y85200000D01*
X13650000Y45500000D02*
X13650000Y53350000D01*
%TO.N,/OBC_UART_RX*%
X19734922Y87100000D02*
X20400000Y87765078D01*
X21050000Y89650000D02*
X33089000Y89650000D01*
X4786638Y57093772D02*
X7906228Y57093772D01*
X11380000Y85140000D02*
X13340000Y87100000D01*
X2400000Y71500000D02*
X3900000Y73000000D01*
X33089000Y89650000D02*
X34368000Y90929000D01*
X20400000Y89000000D02*
X21050000Y89650000D01*
X13100000Y51900000D02*
X13100000Y44800000D01*
X4786638Y57093772D02*
X3955923Y57093772D01*
X3900000Y81736396D02*
X7303604Y85140000D01*
X2400000Y58649695D02*
X2400000Y71500000D01*
X3900000Y73000000D02*
X3900000Y81736396D01*
X13100000Y44800000D02*
X18400000Y39500000D01*
X13340000Y87100000D02*
X19734922Y87100000D01*
X7303604Y85140000D02*
X11380000Y85140000D01*
X3955923Y57093772D02*
X2400000Y58649695D01*
X20400000Y87765078D02*
X20400000Y89000000D01*
X7906228Y57093772D02*
X13100000Y51900000D01*
%TO.N,/ADCS_UART_TX*%
X38200000Y82500000D02*
X38200000Y87097000D01*
X16400000Y79000000D02*
X18200000Y80800000D01*
X36500000Y80800000D02*
X38200000Y82500000D01*
X16600000Y67400000D02*
X16900000Y67700000D01*
X16900000Y67700000D02*
X16900000Y69900000D01*
X18200000Y80800000D02*
X36500000Y80800000D01*
X16400000Y70400000D02*
X16400000Y79000000D01*
X38200000Y87097000D02*
X36908000Y88389000D01*
X16900000Y69900000D02*
X16400000Y70400000D01*
%TO.N,/ADCS_UART_RX*%
X15500000Y69800000D02*
X15500000Y79500000D01*
X34800000Y81800000D02*
X35600000Y82600000D01*
X35600000Y89621000D02*
X36908000Y90929000D01*
X15500000Y79500000D02*
X17800000Y81800000D01*
X17800000Y81800000D02*
X34800000Y81800000D01*
X16000000Y69300000D02*
X15500000Y69800000D01*
X35600000Y82600000D02*
X35600000Y89621000D01*
%TO.N,/ADCS_SWCLK*%
X84000000Y15000000D02*
X73100000Y4100000D01*
X37400000Y4900000D02*
X42200000Y4900000D01*
X76600000Y41250000D02*
X76600000Y34000000D01*
X3300000Y39200000D02*
X3300000Y13450000D01*
X12200000Y48100000D02*
X3300000Y39200000D01*
X57600000Y4100000D02*
X56800000Y4900000D01*
X73100000Y4100000D02*
X57600000Y4100000D01*
X76600000Y34000000D02*
X84000000Y26600000D01*
X12200000Y50700000D02*
X12200000Y48100000D01*
X36900000Y4400000D02*
X37400000Y4900000D01*
X84000000Y26600000D02*
X84000000Y15000000D01*
X12350000Y4400000D02*
X36900000Y4400000D01*
X56800000Y4900000D02*
X42200000Y4900000D01*
X74900000Y42950000D02*
X76600000Y41250000D01*
X3300000Y13450000D02*
X12350000Y4400000D01*
%TO.N,/OBC module/MCU_SWCLK*%
X14625000Y40000000D02*
X10675000Y40000000D01*
X18225000Y36400000D02*
X14625000Y40000000D01*
X21400000Y36400000D02*
X18225000Y36400000D01*
X26700000Y33425000D02*
X26125000Y34000000D01*
X23800000Y34000000D02*
X21400000Y36400000D01*
X26700000Y30450000D02*
X26700000Y33425000D01*
X26125000Y34000000D02*
X23800000Y34000000D01*
%TO.N,/OBC module/MCU_SWDIO*%
X22100000Y37200000D02*
X24100000Y35200000D01*
X14300000Y41200000D02*
X18300000Y37200000D01*
X24100000Y35200000D02*
X24900000Y35200000D01*
X18300000Y37200000D02*
X22100000Y37200000D01*
X13700000Y41200000D02*
X14300000Y41200000D01*
%TO.N,/OBC module/ADM_DEPLOY_1*%
X61900000Y42900000D02*
X60300000Y41300000D01*
X74246096Y51100000D02*
X66046096Y42900000D01*
X60300000Y41300000D02*
X50600000Y41300000D01*
X75200000Y51100000D02*
X74246096Y51100000D01*
X66046096Y42900000D02*
X61900000Y42900000D01*
X50600000Y41300000D02*
X49200000Y39900000D01*
X49200000Y39900000D02*
X40600000Y39900000D01*
X40600000Y39900000D02*
X39450000Y38750000D01*
%TO.N,/OBC module/ADM_DEPLOY_2*%
X75200000Y53000000D02*
X69220000Y47020000D01*
X69220000Y47020000D02*
X64470114Y47020000D01*
X62250114Y44800000D02*
X53900000Y44800000D01*
X64470114Y47020000D02*
X62250114Y44800000D01*
%TO.N,/OBC module/ADM_DEPLOY_3*%
X49200000Y32900000D02*
X55400000Y32900000D01*
X67000000Y41300000D02*
X70500000Y44800000D01*
X70500000Y44800000D02*
X74350000Y44800000D01*
X74350000Y44800000D02*
X78100000Y48550000D01*
X58300000Y38700000D02*
X58800000Y38700000D01*
X55400000Y32900000D02*
X56100000Y33600000D01*
X78100000Y48550000D02*
X78100000Y49800000D01*
X41100000Y34200000D02*
X41350000Y33950000D01*
X58800000Y38700000D02*
X61400000Y41300000D01*
X61400000Y41300000D02*
X67000000Y41300000D01*
X48150000Y33950000D02*
X49200000Y32900000D01*
X56100000Y33600000D02*
X56100000Y35200000D01*
X41350000Y33950000D02*
X48150000Y33950000D01*
%TO.N,/OBC module/ADM_ENABLE_1*%
X52950000Y49450000D02*
X61750000Y49450000D01*
X42200000Y44800000D02*
X43000000Y45600000D01*
X49100000Y45600000D02*
X52950000Y49450000D01*
X61750000Y49450000D02*
X64800000Y52500000D01*
X70200000Y52500000D02*
X75350000Y57650000D01*
X43000000Y45600000D02*
X49100000Y45600000D01*
X64800000Y52500000D02*
X70200000Y52500000D01*
%TO.N,/OBC module/ADM_ENABLE_2*%
X75300000Y55850000D02*
X75300000Y54500000D01*
X74000000Y53200000D02*
X72700000Y53200000D01*
X63700000Y48400000D02*
X55500000Y48400000D01*
X37000000Y42800000D02*
X37000000Y39800000D01*
X71000000Y51500000D02*
X66800000Y51500000D01*
X75300000Y54500000D02*
X74000000Y53200000D01*
X66800000Y51500000D02*
X63700000Y48400000D01*
X45800500Y43400500D02*
X37600500Y43400500D01*
X51700000Y44600000D02*
X47000000Y44600000D01*
X55500000Y48400000D02*
X51700000Y44600000D01*
X37000000Y39800000D02*
X35800000Y38600000D01*
X37600500Y43400500D02*
X37000000Y42800000D01*
X72700000Y53200000D02*
X71000000Y51500000D01*
X47000000Y44600000D02*
X45800500Y43400500D01*
%TO.N,/OBC module/I2C_SDA_PANELS*%
X5440000Y19420000D02*
X5440000Y19740000D01*
X79700000Y20690000D02*
X79750000Y20740000D01*
X50900000Y7800000D02*
X36150000Y7800000D01*
X5440000Y13860000D02*
X5440000Y19060000D01*
X24500000Y28700000D02*
X19700000Y28700000D01*
X5440000Y19060000D02*
X5440000Y19420000D01*
X15880000Y24880000D02*
X5440000Y24880000D01*
X36150000Y7800000D02*
X34250000Y5900000D01*
X34250000Y5900000D02*
X13400000Y5900000D01*
X57500000Y7800000D02*
X50900000Y7800000D01*
X67550000Y6300000D02*
X59000000Y6300000D01*
X59000000Y6300000D02*
X57500000Y7800000D01*
X5440000Y19740000D02*
X5440000Y19920000D01*
X19700000Y28700000D02*
X15880000Y24880000D01*
X67600000Y6350000D02*
X67550000Y6300000D01*
X5440000Y19920000D02*
X5440000Y24880000D01*
X13400000Y5900000D02*
X5440000Y13860000D01*
X25200000Y29400000D02*
X24500000Y28700000D01*
X72550000Y6350000D02*
X79700000Y13500000D01*
X79700000Y13500000D02*
X79700000Y20690000D01*
X67600000Y6350000D02*
X72550000Y6350000D01*
%TO.N,/OBC module/I2C_SCK_PANELS*%
X8850000Y39750000D02*
X11600000Y42500000D01*
X14100000Y42500000D02*
X18400000Y38200000D01*
X36500000Y6100000D02*
X52050000Y6100000D01*
X4400000Y23510000D02*
X4400000Y13600000D01*
X68800000Y4850000D02*
X68750000Y4900000D01*
X4410000Y23520000D02*
X4400000Y23530000D01*
X52050000Y6100000D02*
X52100000Y6050000D01*
X57750000Y5700000D02*
X52450000Y5700000D01*
X82700000Y21900000D02*
X82700000Y15000000D01*
X72550000Y4850000D02*
X68800000Y4850000D01*
X82700000Y15000000D02*
X72550000Y4850000D01*
X68750000Y4900000D02*
X58550000Y4900000D01*
X4410000Y23520000D02*
X4400000Y23510000D01*
X58550000Y4900000D02*
X57750000Y5700000D01*
X12900000Y5100000D02*
X35500000Y5100000D01*
X4400000Y35300000D02*
X8850000Y39750000D01*
X4400000Y13600000D02*
X12900000Y5100000D01*
X35500000Y5100000D02*
X36500000Y6100000D01*
X18400000Y38200000D02*
X19700000Y38200000D01*
X4400000Y32700000D02*
X4400000Y35300000D01*
X11600000Y42500000D02*
X14100000Y42500000D01*
X52450000Y5700000D02*
X52100000Y6050000D01*
X4400000Y23530000D02*
X4400000Y32700000D01*
%TO.N,/OBC module/MCU_TRACECLK*%
X23500000Y12400000D02*
X23500000Y12140000D01*
X23200000Y11840000D02*
X22834398Y11840000D01*
X23500000Y9440000D02*
X22834398Y9440000D01*
X27200000Y17200000D02*
X27200000Y16100000D01*
X23500000Y8540000D02*
X23500000Y7100000D01*
X22834398Y11240000D02*
X23200000Y11240000D01*
X27200000Y16100000D02*
X23500000Y12400000D01*
X22834398Y10040000D02*
X23500000Y10040000D01*
X24165602Y9440000D02*
X23500000Y9440000D01*
X23200000Y11240000D02*
X24165602Y11240000D01*
X23500000Y10640000D02*
X22834398Y10640000D01*
X24165602Y10640000D02*
X23500000Y10640000D01*
X22834398Y8840000D02*
X23200000Y8840000D01*
X23500000Y10040000D02*
X24165602Y10040000D01*
X22534400Y9140000D02*
G75*
G02*
X22834398Y9440000I300000J0D01*
G01*
X23200000Y11840000D02*
G75*
G03*
X23500000Y12140000I0J300000D01*
G01*
X24465600Y9740000D02*
G75*
G03*
X24165602Y10040000I-300000J0D01*
G01*
X22834398Y10039998D02*
G75*
G02*
X22534398Y10340000I2J300002D01*
G01*
X22834398Y11239998D02*
G75*
G02*
X22534398Y11540000I2J300002D01*
G01*
X22834398Y8839998D02*
G75*
G02*
X22534398Y9140000I2J300002D01*
G01*
X24165602Y9439998D02*
G75*
G03*
X24465602Y9740000I-2J300002D01*
G01*
X23500000Y8540000D02*
G75*
G03*
X23200000Y8840000I-300000J0D01*
G01*
X22534400Y10340000D02*
G75*
G02*
X22834398Y10640000I300000J0D01*
G01*
X24465600Y10940000D02*
G75*
G03*
X24165602Y11240000I-300000J0D01*
G01*
X22534400Y11540000D02*
G75*
G02*
X22834398Y11840000I300000J0D01*
G01*
X24165602Y10639998D02*
G75*
G03*
X24465602Y10940000I-2J300002D01*
G01*
%TO.N,/OBC module/MCU_TRACED_3*%
X27950000Y18350000D02*
X27950000Y15250000D01*
X26000000Y20300000D02*
X27950000Y18350000D01*
X25126944Y12426944D02*
X25126944Y8773056D01*
X26000000Y21500000D02*
X26000000Y20300000D01*
X27950000Y15250000D02*
X25126944Y12426944D01*
%TO.N,/OBC module/MCU_TRACED_2*%
X26975000Y12075000D02*
X26916633Y12075000D01*
X28400000Y21800000D02*
X28400000Y14100000D01*
X27200000Y12900000D02*
X27200000Y12300000D01*
X27200000Y11400000D02*
X27200000Y10251450D01*
X26916633Y11625000D02*
X26975000Y11625000D01*
X27700000Y22500000D02*
X28400000Y21800000D01*
X27200000Y10251450D02*
X27200000Y8900000D01*
X28400000Y14100000D02*
X27200000Y12900000D01*
X26975000Y12075000D02*
G75*
G03*
X27200000Y12300000I0J225000D01*
G01*
X27200000Y11400000D02*
G75*
G03*
X26975000Y11625000I-225000J0D01*
G01*
X26691600Y11850000D02*
G75*
G02*
X26916633Y12075000I225000J0D01*
G01*
X26916633Y11625033D02*
G75*
G02*
X26691633Y11850000I-33J224967D01*
G01*
%TO.N,/OBC module/MCU_TRACED_1*%
X30225000Y12825000D02*
X29713022Y12825000D01*
X30225000Y13275000D02*
X30286978Y13275000D01*
X30000000Y12375000D02*
X30286978Y12375000D01*
X30000000Y11700000D02*
X30000000Y9704235D01*
X30000000Y9704235D02*
X30000000Y9500000D01*
X29713022Y12375000D02*
X30000000Y12375000D01*
X30286978Y12825000D02*
X30225000Y12825000D01*
X30500000Y21600000D02*
X30000000Y21100000D01*
X30000000Y21100000D02*
X30000000Y13500000D01*
X30286978Y11925000D02*
X30225000Y11925000D01*
X30000000Y9500000D02*
X29300000Y8800000D01*
X30286978Y12825022D02*
G75*
G03*
X30511978Y13050000I22J224978D01*
G01*
X30286978Y11925022D02*
G75*
G03*
X30511978Y12150000I22J224978D01*
G01*
X30512000Y12150000D02*
G75*
G03*
X30286978Y12375000I-225000J0D01*
G01*
X30512000Y13050000D02*
G75*
G03*
X30286978Y13275000I-225000J0D01*
G01*
X30000000Y11700000D02*
G75*
G02*
X30225000Y11925000I225000J0D01*
G01*
X30225000Y13275000D02*
G75*
G02*
X30000000Y13500000I0J225000D01*
G01*
X29713022Y12375022D02*
G75*
G02*
X29488022Y12600000I-22J224978D01*
G01*
X29488000Y12600000D02*
G75*
G02*
X29713022Y12825000I225000J0D01*
G01*
%TO.N,/OBC module/MCU_TRACED_0*%
X32200000Y20700000D02*
X30700000Y19200000D01*
X31400000Y9925000D02*
X31758531Y9925000D01*
X31400000Y9250000D02*
X31400000Y8800000D01*
X30700000Y14100000D02*
X31400000Y13400000D01*
X31175000Y10825000D02*
X31758531Y10825000D01*
X31758531Y9475000D02*
X31625000Y9475000D01*
X31400000Y10375000D02*
X31041469Y10375000D01*
X31175000Y11275000D02*
X31041469Y11275000D01*
X31041469Y10825000D02*
X31175000Y10825000D01*
X31041469Y9925000D02*
X31400000Y9925000D01*
X30700000Y19200000D02*
X30700000Y14100000D01*
X31400000Y13400000D02*
X31400000Y11500000D01*
X31758531Y10375000D02*
X31400000Y10375000D01*
X31041469Y10824969D02*
G75*
G02*
X30816469Y11050000I31J225031D01*
G01*
X31983500Y10600000D02*
G75*
G03*
X31758531Y10825000I-225000J0D01*
G01*
X30816500Y11050000D02*
G75*
G02*
X31041469Y11275000I225000J0D01*
G01*
X31400000Y9250000D02*
G75*
G02*
X31625000Y9475000I225000J0D01*
G01*
X31758531Y10374969D02*
G75*
G03*
X31983531Y10600000I-31J225031D01*
G01*
X31983500Y9700000D02*
G75*
G03*
X31758531Y9925000I-225000J0D01*
G01*
X31041469Y9924969D02*
G75*
G02*
X30816469Y10150000I31J225031D01*
G01*
X30816500Y10150000D02*
G75*
G02*
X31041469Y10375000I225000J0D01*
G01*
X31175000Y11275000D02*
G75*
G03*
X31400000Y11500000I0J225000D01*
G01*
X31758531Y9474969D02*
G75*
G03*
X31983531Y9700000I-31J225031D01*
G01*
%TO.N,/OBC module/MEM_MRAM_ENABLE*%
X62800000Y9200000D02*
X62800000Y9400000D01*
X62200000Y8600000D02*
X62800000Y9200000D01*
X37900000Y9900000D02*
X56450000Y9900000D01*
X31900000Y22700000D02*
X33100000Y21500000D01*
X33100000Y14700000D02*
X37900000Y9900000D01*
X57750000Y8600000D02*
X62200000Y8600000D01*
X56450000Y9900000D02*
X57750000Y8600000D01*
X33100000Y21500000D02*
X33100000Y14700000D01*
%TO.N,/OBC module/MEM_MRAM_WR_ENABLE*%
X33600000Y22800000D02*
X33600960Y22799040D01*
X67700000Y11000000D02*
X68700000Y10000000D01*
X60100000Y11000000D02*
X67700000Y11000000D01*
X59500000Y10400000D02*
X60100000Y11000000D01*
X33600960Y22799040D02*
X33600960Y14999040D01*
X33600960Y14999040D02*
X38200000Y10400000D01*
X38200000Y10400000D02*
X59500000Y10400000D01*
%TO.N,/OBC module/I2C_SDA_SENS*%
X17950000Y17400000D02*
X20300000Y15050000D01*
X17950000Y14000000D02*
X17900000Y13950000D01*
X20300000Y15050000D02*
X22550000Y15050000D01*
X17950000Y17400000D02*
X17950000Y14000000D01*
%TO.N,/OBC module/LCL_PWM_CAN1*%
X47200000Y63237500D02*
X47200000Y63500000D01*
X44900000Y60900000D02*
X44900000Y60937500D01*
X44900000Y60937500D02*
X47200000Y63237500D01*
%TO.N,/OBC module/LCL_PWM_MRAM*%
X55150000Y25850000D02*
X57500000Y28200000D01*
X59923545Y29323545D02*
X59923545Y33923545D01*
X58800000Y28200000D02*
X59923545Y29323545D01*
X57500000Y28200000D02*
X58800000Y28200000D01*
X59923545Y33923545D02*
X60087299Y34087299D01*
%TO.N,/OBC module/LCL_PWM_NAND*%
X57700000Y30000000D02*
X56300000Y28600000D01*
X56300000Y28600000D02*
X55600000Y28600000D01*
X57700000Y34100000D02*
X57700000Y30000000D01*
%TO.N,/OBC module/MEM_A20*%
X28900000Y28300000D02*
X28900000Y11400000D01*
X30500000Y29900000D02*
X28900000Y28300000D01*
X32550000Y37550000D02*
X32550000Y37250000D01*
X32550000Y37250000D02*
X30500000Y35200000D01*
X30500000Y35200000D02*
X30500000Y29900000D01*
%TO.N,/OBC module/MEM_A5*%
X39200000Y11900000D02*
X57100000Y11900000D01*
X35450000Y17050000D02*
X35450000Y15650000D01*
X68500000Y13200000D02*
X69200000Y13900000D01*
X58400000Y13200000D02*
X68500000Y13200000D01*
X57100000Y11900000D02*
X58400000Y13200000D01*
X35450000Y15650000D02*
X39200000Y11900000D01*
X69200000Y13900000D02*
X69200000Y16600000D01*
%TO.N,/OBC module/MEM_A6*%
X35400000Y20000000D02*
X34500000Y19100000D01*
X38850000Y11450000D02*
X57950000Y11450000D01*
X59000000Y12500000D02*
X69100000Y12500000D01*
X69100000Y12500000D02*
X70400000Y13800000D01*
X34500000Y15800000D02*
X38850000Y11450000D01*
X57950000Y11450000D02*
X59000000Y12500000D01*
X70400000Y13800000D02*
X70400000Y15200000D01*
X34500000Y19100000D02*
X34500000Y15800000D01*
%TO.N,/OBC module/MEM_A7*%
X59800000Y11700000D02*
X69800000Y11700000D01*
X69800000Y11700000D02*
X71500000Y13400000D01*
X59100000Y11000000D02*
X59800000Y11700000D01*
X34900000Y21700000D02*
X34050480Y20850480D01*
X38400000Y11000000D02*
X59100000Y11000000D01*
X34050480Y15349520D02*
X38400000Y11000000D01*
X71500000Y13400000D02*
X71500000Y14350000D01*
X34050480Y20850480D02*
X34050480Y15349520D01*
%TO.N,/OBC module/MEM_A8*%
X54550000Y18350000D02*
X70450000Y18350000D01*
X70450000Y18350000D02*
X71100000Y17700000D01*
X46350000Y18900000D02*
X54000000Y18900000D01*
X54000000Y18900000D02*
X54550000Y18350000D01*
X40750000Y24500000D02*
X46350000Y18900000D01*
%TO.N,/OBC module/MEM_A9*%
X53100000Y20900000D02*
X46250000Y20900000D01*
X72850000Y18850000D02*
X55150000Y18850000D01*
X46250000Y20900000D02*
X42550000Y24600000D01*
X73100000Y18600000D02*
X72850000Y18850000D01*
X55150000Y18850000D02*
X53100000Y20900000D01*
%TO.N,/OBC module/MEM_A10*%
X41450000Y31500000D02*
X42474511Y30475489D01*
X35100000Y31500000D02*
X41450000Y31500000D01*
X34100000Y32500000D02*
X35100000Y31500000D01*
X49003101Y30475489D02*
X56078590Y23400000D01*
X42474511Y30475489D02*
X49003101Y30475489D01*
X69000000Y23800000D02*
X71200000Y26000000D01*
X58400000Y23800000D02*
X69000000Y23800000D01*
X58000000Y23400000D02*
X58400000Y23800000D01*
X56078590Y23400000D02*
X58000000Y23400000D01*
%TO.N,/OBC module/MEM_A11*%
X46000000Y25800000D02*
X44130950Y27669050D01*
X50700000Y25800000D02*
X46000000Y25800000D01*
X68986779Y22386779D02*
X67050000Y20450000D01*
X44130950Y27669050D02*
X39887877Y27669050D01*
X67050000Y20450000D02*
X56050000Y20450000D01*
X72186779Y22386779D02*
X68986779Y22386779D01*
X72300000Y22500000D02*
X72186779Y22386779D01*
X56050000Y20450000D02*
X50700000Y25800000D01*
%TO.N,/OBC module/MEM_A12*%
X42800000Y27100000D02*
X40950000Y27100000D01*
X55950480Y19749520D02*
X52300000Y23400000D01*
X46500000Y23400000D02*
X42800000Y27100000D01*
X67206611Y19749520D02*
X55950480Y19749520D01*
X40950000Y27100000D02*
X39900000Y26050000D01*
X70800000Y21000000D02*
X68457091Y21000000D01*
X52300000Y23400000D02*
X46500000Y23400000D01*
X68457091Y21000000D02*
X67206611Y19749520D01*
X39900000Y26050000D02*
X39200000Y26050000D01*
%TO.N,/OBC module/MEM_A13*%
X53400000Y21500000D02*
X55600000Y19300000D01*
X41400000Y26150000D02*
X42450000Y26150000D01*
X47100000Y21500000D02*
X53400000Y21500000D01*
X68200000Y19300000D02*
X68800000Y19900000D01*
X42450000Y26150000D02*
X47100000Y21500000D01*
X55600000Y19300000D02*
X68200000Y19300000D01*
%TO.N,/OBC module/MEM_MRAM_OUT_ENABLE*%
X63600000Y14400000D02*
X63100000Y14900000D01*
X38150000Y21350000D02*
X31850000Y27650000D01*
X31850000Y27650000D02*
X29800000Y27650000D01*
X51153577Y14900000D02*
X49704057Y13450480D01*
X43249520Y13450480D02*
X38150000Y18550000D01*
X38150000Y18550000D02*
X38150000Y21350000D01*
X63100000Y14900000D02*
X51153577Y14900000D01*
X49704057Y13450480D02*
X43249520Y13450480D01*
%TO.N,/OBC module/MEM_A17*%
X36300000Y15536396D02*
X36300000Y21700000D01*
X36300000Y21700000D02*
X34300000Y23700000D01*
X53040000Y13980000D02*
X51460000Y12400000D01*
X51460000Y12400000D02*
X39436396Y12400000D01*
X39436396Y12400000D02*
X36300000Y15536396D01*
X34300000Y23700000D02*
X30500000Y23700000D01*
X30500000Y23700000D02*
X30350000Y23550000D01*
%TO.N,/OBC module/MEM_A18*%
X43000000Y12900000D02*
X50450000Y12900000D01*
X29900000Y25200000D02*
X33500000Y25200000D01*
X33500000Y25200000D02*
X37450000Y21250000D01*
X37450000Y21250000D02*
X37450000Y18450000D01*
X50450000Y12900000D02*
X51250000Y13700000D01*
X37450000Y18450000D02*
X43000000Y12900000D01*
%TO.N,/OBC module/MEM_A19*%
X40625000Y32900000D02*
X38725000Y34800000D01*
X48000000Y32900000D02*
X40625000Y32900000D01*
X38725000Y34800000D02*
X36600000Y34800000D01*
X52720273Y28469773D02*
X52430227Y28469773D01*
X52430227Y28469773D02*
X48000000Y32900000D01*
%TO.N,/OBC module/CAN_RX_2*%
X28500000Y44100000D02*
X28500000Y33300000D01*
X23300000Y46900000D02*
X25700000Y46900000D01*
X28500000Y33300000D02*
X29000000Y32800000D01*
X12300000Y70200000D02*
X19200000Y63300000D01*
X12910498Y74524500D02*
X12300000Y73914002D01*
X21300000Y48900000D02*
X23300000Y46900000D01*
X19200000Y63300000D02*
X19200000Y58606427D01*
X12300000Y73914002D02*
X12300000Y70200000D01*
X21300000Y56506427D02*
X21300000Y48900000D01*
X25700000Y46900000D02*
X28500000Y44100000D01*
X19200000Y58606427D02*
X21300000Y56506427D01*
%TO.N,/OBC module/CAN_FAULT_2*%
X14950000Y55450000D02*
X14950000Y46050000D01*
X9700000Y79600000D02*
X7550000Y79600000D01*
X14950000Y46050000D02*
X20100000Y40900000D01*
X5950000Y64450000D02*
X14950000Y55450000D01*
X5950000Y78000000D02*
X5950000Y64450000D01*
X20100000Y40900000D02*
X20100000Y40850000D01*
X7550000Y79600000D02*
X5950000Y78000000D01*
%TO.N,/OBC module/CAN_TX_1*%
X17400000Y72400000D02*
X17700000Y72100000D01*
X33720000Y36280000D02*
X37620000Y32380000D01*
X17700000Y72100000D02*
X17700000Y67200000D01*
X37620000Y32380000D02*
X39420000Y32380000D01*
X22400000Y50600000D02*
X23900000Y49100000D01*
X25200000Y49100000D02*
X33720000Y40580000D01*
X23900000Y49100000D02*
X25200000Y49100000D01*
X22400000Y62500000D02*
X22400000Y50600000D01*
X33720000Y40580000D02*
X33720000Y36280000D01*
X17700000Y67200000D02*
X22400000Y62500000D01*
%TO.N,/OBC module/CAN_RX_1*%
X34700000Y37500000D02*
X36500000Y35700000D01*
X23300000Y52800000D02*
X34700000Y41400000D01*
X22400000Y74900000D02*
X22400000Y70900000D01*
X36500000Y35700000D02*
X42300000Y35700000D01*
X22400000Y70900000D02*
X23300000Y70000000D01*
X23300000Y70000000D02*
X23300000Y52800000D01*
X34700000Y41400000D02*
X34700000Y37500000D01*
%TO.N,/OBC module/CAN_SILENT_1*%
X17500000Y75400000D02*
X19400000Y73500000D01*
X19400000Y73500000D02*
X19400000Y67800000D01*
X17500000Y78500000D02*
X17500000Y75400000D01*
X17900000Y78900000D02*
X17500000Y78500000D01*
%TO.N,/OBC module/CAN_FAULT_1*%
X20400000Y77200000D02*
X20400000Y66000000D01*
X22400000Y79200000D02*
X20400000Y77200000D01*
%TO.N,/OBC module/CAN_TX_2*%
X26900000Y28700000D02*
X27700000Y29500000D01*
X15550000Y57750000D02*
X10300000Y63000000D01*
X27700000Y29500000D02*
X27700000Y43600000D01*
X20350470Y47849530D02*
X20350470Y55649530D01*
X25300000Y46000000D02*
X22200000Y46000000D01*
X20350470Y55649530D02*
X18250000Y57750000D01*
X18250000Y57750000D02*
X15550000Y57750000D01*
X10300000Y63000000D02*
X10300000Y68500000D01*
X27700000Y43600000D02*
X25300000Y46000000D01*
X9000000Y69800000D02*
X9000000Y77400000D01*
X22200000Y46000000D02*
X20350470Y47849530D01*
X10300000Y68500000D02*
X9000000Y69800000D01*
%TO.N,/OBC module/CAN_SILENT_2*%
X20450000Y39350000D02*
X21200000Y39350000D01*
X14300000Y54600000D02*
X14300000Y45500000D01*
X7300000Y82600000D02*
X7300000Y80700000D01*
X7300000Y80700000D02*
X5200000Y78600000D01*
X5200000Y63700000D02*
X14300000Y54600000D01*
X5200000Y78600000D02*
X5200000Y63700000D01*
X14300000Y45500000D02*
X20450000Y39350000D01*
D19*
%TO.N,CAN1-*%
X56025000Y74493200D02*
X56025000Y72093200D01*
X83405280Y42270710D02*
X83725000Y42590430D01*
X13774999Y80063199D02*
X13774999Y71629997D01*
X73875055Y68338002D02*
X73875055Y68797621D01*
X83405280Y41811091D02*
X83405280Y42270710D01*
X83725000Y46893200D02*
X82625000Y47993200D01*
X13774999Y71629997D02*
X13450000Y71304998D01*
X73562053Y68025000D02*
X73875055Y68338002D01*
X15092999Y81432999D02*
X15092999Y81382999D01*
X51092699Y79425501D02*
X56025000Y74493200D01*
X81987574Y63575001D02*
X81173999Y63575001D01*
X15092999Y81382999D02*
X15092999Y81381199D01*
X60093200Y68025000D02*
X73562053Y68025000D01*
X83725000Y42590430D02*
X83725000Y46893200D01*
X14917999Y81957999D02*
X14744981Y81957999D01*
X15092999Y82264001D02*
X15092999Y82132999D01*
X28024999Y79425501D02*
X51092699Y79425501D01*
X82625000Y62937575D02*
X81987574Y63575001D01*
X15092999Y81381199D02*
X13774999Y80063199D01*
X56025000Y72093200D02*
X60093200Y68025000D01*
X27700000Y79750500D02*
X28024999Y79425501D01*
X82625000Y47993200D02*
X82625000Y62937575D01*
X81173999Y63575001D02*
X80849000Y63900000D01*
X14744981Y81607999D02*
X14917999Y81607999D01*
X14048000Y83309000D02*
X15092999Y82264001D01*
X14570001Y81782999D02*
G75*
G02*
X14744981Y81957999I174999J1D01*
G01*
X14744981Y81607981D02*
G75*
G02*
X14569981Y81782999I19J175019D01*
G01*
X15092999Y81432999D02*
G75*
G03*
X14917999Y81607999I-174999J1D01*
G01*
X14917999Y81958001D02*
G75*
G03*
X15092999Y82132999I1J174999D01*
G01*
%TO.N,CAN1+*%
X81173999Y63124999D02*
X80849000Y62800000D01*
X83275000Y46706800D02*
X82175000Y47806800D01*
X55575000Y71906800D02*
X59906800Y67575000D01*
X14550000Y71304998D02*
X14225001Y71629997D01*
X82175000Y62751175D02*
X81801176Y63124999D01*
X14225001Y71629997D02*
X14225001Y79876801D01*
X15543001Y81194801D02*
X15543001Y82264001D01*
X74193254Y68019803D02*
X74652873Y68019803D01*
X81801176Y63124999D02*
X81173999Y63124999D01*
X14225001Y79876801D02*
X15543001Y81194801D01*
X82627462Y42588909D02*
X83087081Y42588909D01*
X50906301Y78975499D02*
X55575000Y74306800D01*
X27700000Y78650500D02*
X28024999Y78975499D01*
X82175000Y47806800D02*
X82175000Y62751175D01*
X83275000Y42776828D02*
X83275000Y46706800D01*
X28024999Y78975499D02*
X50906301Y78975499D01*
X55575000Y74306800D02*
X55575000Y71906800D01*
X15543001Y82264001D02*
X16588000Y83309000D01*
X83087081Y42588909D02*
X83275000Y42776828D01*
X73748451Y67575000D02*
X74193254Y68019803D01*
X59906800Y67575000D02*
X73748451Y67575000D01*
%TO.N,CAN2-*%
X10864073Y87035877D02*
X10864073Y87035876D01*
X11111562Y87035875D02*
X11484609Y86662828D01*
X11854023Y88025826D02*
X11854024Y88025825D01*
X83662162Y32125001D02*
X83337163Y32450000D01*
X83575000Y66975000D02*
X83575000Y66925000D01*
X6326983Y85409684D02*
X6522299Y85605000D01*
X10864073Y87035876D02*
X10864075Y87035875D01*
X83575000Y48306800D02*
X84875000Y47006800D01*
X2950000Y79900000D02*
X2625001Y80224999D01*
X2625001Y80224999D02*
X2625001Y81706801D01*
X10616587Y86540900D02*
X10989634Y86167853D01*
X83400000Y68900000D02*
X83064637Y68900000D01*
X83064637Y67150000D02*
X83400000Y67150000D01*
X11359048Y87530852D02*
X11359048Y87530851D01*
X84875000Y47006800D02*
X84875000Y32993200D01*
X84006801Y32125001D02*
X83662162Y32125001D01*
X6522299Y85605000D02*
X9433200Y85605000D01*
X10616586Y86540900D02*
X10616587Y86540900D01*
X12219200Y88389000D02*
X14048000Y88389000D01*
X11854024Y88025825D02*
X11960090Y88131890D01*
X80325998Y71600000D02*
X80650997Y71924999D01*
X12227072Y87157803D02*
X12227071Y87157803D01*
X83064637Y68550000D02*
X83400000Y68550000D01*
X11732096Y86910316D02*
X11359048Y87283364D01*
X80650997Y71924999D02*
X81656801Y71924999D01*
X11237122Y86167853D02*
X11237121Y86167853D01*
X12218200Y88390000D02*
X12219200Y88389000D01*
X84875000Y32993200D02*
X84006801Y32125001D01*
X11960090Y88131890D02*
X12218200Y88390000D01*
X83064637Y67850000D02*
X83400000Y67850000D01*
X83400000Y69600000D02*
X83064637Y69600000D01*
X83400000Y68200000D02*
X83064637Y68200000D01*
X11854023Y88025827D02*
X11854023Y88025826D01*
X83575000Y66925000D02*
X83575000Y48306800D01*
X6326983Y85408783D02*
X6326983Y85409684D01*
X83064637Y69250000D02*
X83400000Y69250000D01*
X2625001Y81706801D02*
X6326983Y85408783D01*
X83575000Y70006800D02*
X83575000Y69775000D01*
X83400000Y67500000D02*
X83064637Y67500000D01*
X81656801Y71924999D02*
X83575000Y70006800D01*
X9433200Y85605000D02*
X10369100Y86540900D01*
X11237121Y86415341D02*
X10864073Y86788389D01*
X11359048Y87530851D02*
X11359050Y87530850D01*
X11606536Y87530850D02*
X11606537Y87530850D01*
X11111561Y87035875D02*
X11111562Y87035875D01*
X11606537Y87530850D02*
X11979584Y87157803D01*
X12227071Y87405291D02*
X11854023Y87778339D01*
X11732097Y86662828D02*
X11732096Y86662828D01*
X11606536Y87530850D02*
G75*
G03*
X11359050Y87530850I-123743J-123743D01*
G01*
X83575000Y69075000D02*
G75*
G03*
X83400000Y69250000I-175000J0D01*
G01*
X83400000Y68200000D02*
G75*
G03*
X83575000Y68375000I0J175000D01*
G01*
X83064637Y67150037D02*
G75*
G02*
X82889637Y67325000I-37J174963D01*
G01*
X82889600Y68725000D02*
G75*
G02*
X83064637Y68900000I175000J0D01*
G01*
X82889600Y67325000D02*
G75*
G02*
X83064637Y67500000I175000J0D01*
G01*
X11732096Y86662829D02*
G75*
G02*
X11484610Y86662829I-123743J123745D01*
G01*
X83400000Y68900000D02*
G75*
G03*
X83575000Y69075000I0J175000D01*
G01*
X11359056Y87530844D02*
G75*
G03*
X11359048Y87283364I123744J-123744D01*
G01*
X11237121Y86167854D02*
G75*
G02*
X10989635Y86167854I-123743J123745D01*
G01*
X82889600Y69425000D02*
G75*
G02*
X83064637Y69600000I175000J0D01*
G01*
X10616586Y86540900D02*
G75*
G03*
X10369100Y86540900I-123743J-123743D01*
G01*
X11111561Y87035875D02*
G75*
G03*
X10864075Y87035875I-123743J-123743D01*
G01*
X10864106Y87035844D02*
G75*
G03*
X10864073Y86788389I123694J-123744D01*
G01*
X83400000Y67500000D02*
G75*
G03*
X83575000Y67675000I0J175000D01*
G01*
X11237124Y86415344D02*
G75*
G02*
X11237121Y86167853I-123724J-123744D01*
G01*
X82889600Y68025000D02*
G75*
G02*
X83064637Y68200000I175000J0D01*
G01*
X83064637Y68550037D02*
G75*
G02*
X82889637Y68725000I-37J174963D01*
G01*
X12227071Y87157804D02*
G75*
G02*
X11979585Y87157804I-123743J123745D01*
G01*
X12227024Y87405244D02*
G75*
G02*
X12227071Y87157803I-123724J-123744D01*
G01*
X83064637Y67850037D02*
G75*
G02*
X82889637Y68025000I-37J174963D01*
G01*
X83400000Y69600000D02*
G75*
G03*
X83575000Y69775000I0J175000D01*
G01*
X83575000Y68375000D02*
G75*
G03*
X83400000Y68550000I-175000J0D01*
G01*
X83064637Y69250037D02*
G75*
G02*
X82889637Y69425000I-37J174963D01*
G01*
X83575000Y67675000D02*
G75*
G03*
X83400000Y67850000I-175000J0D01*
G01*
X11854007Y88025843D02*
G75*
G03*
X11854024Y87778340I123793J-123743D01*
G01*
X11732124Y86910344D02*
G75*
G02*
X11732096Y86662828I-123724J-123744D01*
G01*
X83575000Y66975000D02*
G75*
G03*
X83400000Y67150000I-175000J0D01*
G01*
%TO.N,CAN2+*%
X84025000Y70193200D02*
X81843199Y72375001D01*
X84193199Y31674999D02*
X83662162Y31674999D01*
X83662162Y31674999D02*
X83337163Y31350000D01*
X1850000Y79900000D02*
X2174999Y80224999D01*
X11910900Y88719100D02*
X11910900Y88720900D01*
X80650997Y72375001D02*
X80325998Y72700000D01*
X11910900Y88720900D02*
X12880000Y89690000D01*
X5860000Y85578200D02*
X5860000Y85580000D01*
X85325000Y47193200D02*
X85325000Y32806800D01*
X6335899Y86055000D02*
X9246800Y86055000D01*
X2174999Y80224999D02*
X2174999Y81893199D01*
X2174999Y81893199D02*
X5860000Y85578200D01*
X81843199Y72375001D02*
X80650997Y72375001D01*
X9246800Y86055000D02*
X11910900Y88719100D01*
X5860000Y85580000D02*
X6138783Y85858783D01*
X12880000Y89690000D02*
X15287000Y89690000D01*
X84025000Y48493200D02*
X85325000Y47193200D01*
X84025000Y70193200D02*
X84025000Y48493200D01*
X85325000Y32806800D02*
X84193199Y31674999D01*
X6138783Y85858783D02*
X6139682Y85858783D01*
X6139682Y85858783D02*
X6335899Y86055000D01*
X15287000Y89690000D02*
X16588000Y88389000D01*
D18*
%TO.N,/OBC module/NRST_OBC*%
X21900000Y34500000D02*
X23200000Y33200000D01*
X25400000Y33200000D02*
X25800000Y32800000D01*
X14800000Y37500000D02*
X17800000Y34500000D01*
X13200000Y62400000D02*
X12800000Y62000000D01*
X16900000Y62400000D02*
X13200000Y62400000D01*
X17800000Y34500000D02*
X21900000Y34500000D01*
X14800000Y38400000D02*
X14800000Y37500000D01*
X17100000Y62200000D02*
X16900000Y62400000D01*
X23200000Y33200000D02*
X25400000Y33200000D01*
%TD*%
M02*
