%TF.GenerationSoftware,KiCad,Pcbnew,7.0.5*%
%TF.CreationDate,2024-04-25T22:20:38+03:00*%
%TF.ProjectId,obc-adcs-board,6f62632d-6164-4637-932d-626f6172642e,rev?*%
%TF.SameCoordinates,PX3e2df80PY83e4a60*%
%TF.FileFunction,Other,Comment*%
%FSLAX46Y46*%
G04 Gerber Fmt 4.6, Leading zero omitted, Abs format (unit mm)*
G04 Created by KiCad (PCBNEW 7.0.5) date 2024-04-25 22:20:38*
%MOMM*%
%LPD*%
G01*
G04 APERTURE LIST*
%ADD10C,0.100000*%
%ADD11C,0.150000*%
G04 APERTURE END LIST*
D10*
X397108000Y40326700D02*
G75*
G03*
X396155500Y41279200I-952500J0D01*
G01*
D11*
X7952000Y5204000D02*
G75*
G03*
X7952000Y5204000I-2794000J0D01*
G01*
D10*
X363326000Y4436500D02*
G75*
G03*
X362373500Y5389000I-952500J0D01*
G01*
X343958500Y97464000D02*
X362373500Y97464000D01*
D11*
X85803000Y90900000D02*
G75*
G03*
X85803000Y90900000I-3175000J0D01*
G01*
D10*
X343958500Y5389000D02*
X362373500Y5389000D01*
X364278500Y99369000D02*
G75*
G03*
X363326000Y98416500I0J-952500D01*
G01*
X362373500Y97464000D02*
G75*
G03*
X363326000Y98416500I0J952500D01*
G01*
X343958500Y5389000D02*
G75*
G03*
X343006000Y4436500I0J-952500D01*
G01*
X306938000Y40326700D02*
X306938000Y4436500D01*
D11*
X395203000Y8564000D02*
G75*
G03*
X395203000Y8564000I-3175000J0D01*
G01*
X88343000Y5204000D02*
G75*
G03*
X88343000Y5204000I-3175000J0D01*
G01*
D10*
X397108000Y40326700D02*
X397108000Y4436500D01*
D11*
X10492000Y90929000D02*
G75*
G03*
X10492000Y90929000I-1524000J0D01*
G01*
X313542000Y8564000D02*
G75*
G03*
X313542000Y8564000I-1524000J0D01*
G01*
D10*
X395203000Y42231700D02*
G75*
G03*
X396155500Y41279200I952500J0D01*
G01*
D11*
X8333000Y5204000D02*
G75*
G03*
X8333000Y5204000I-3175000J0D01*
G01*
X6682000Y5204000D02*
G75*
G03*
X6682000Y5204000I-1524000J0D01*
G01*
D10*
X343006000Y98416500D02*
G75*
G03*
X343958500Y97464000I952500J0D01*
G01*
X307890500Y99369000D02*
G75*
G03*
X306938000Y98416500I0J-952500D01*
G01*
X364278500Y99369000D02*
X396155500Y99369000D01*
D11*
X394822000Y8564000D02*
G75*
G03*
X394822000Y8564000I-2794000J0D01*
G01*
X317352000Y94289000D02*
G75*
G03*
X317352000Y94289000I-1524000J0D01*
G01*
X393552000Y8691000D02*
G75*
G03*
X393552000Y8691000I-1524000J0D01*
G01*
X12143000Y90929000D02*
G75*
G03*
X12143000Y90929000I-3175000J0D01*
G01*
D10*
X343006000Y98416500D02*
G75*
G03*
X342053500Y99369000I-952500J0D01*
G01*
X396155500Y61573800D02*
G75*
G03*
X397108000Y62526300I0J952500D01*
G01*
D11*
X319003000Y94289000D02*
G75*
G03*
X319003000Y94289000I-3175000J0D01*
G01*
D10*
X397108000Y98416500D02*
G75*
G03*
X396155500Y99369000I-952500J0D01*
G01*
D11*
X392663000Y94260000D02*
G75*
G03*
X392663000Y94260000I-3175000J0D01*
G01*
X11762000Y90929000D02*
G75*
G03*
X11762000Y90929000I-2794000J0D01*
G01*
D10*
X307890500Y99369000D02*
X342053500Y99369000D01*
X307890500Y41279200D02*
G75*
G03*
X306938000Y40326700I0J-952500D01*
G01*
D11*
X314812000Y8564000D02*
G75*
G03*
X314812000Y8564000I-2794000J0D01*
G01*
X315193000Y8564000D02*
G75*
G03*
X315193000Y8564000I-3175000J0D01*
G01*
D10*
X306938000Y4436500D02*
G75*
G03*
X307890500Y3484000I952500J0D01*
G01*
X396155500Y61573800D02*
G75*
G03*
X395203000Y60621300I0J-952500D01*
G01*
X395203000Y60621300D02*
X395203000Y42231700D01*
D11*
X86692000Y5331000D02*
G75*
G03*
X86692000Y5331000I-1524000J0D01*
G01*
X318622000Y94289000D02*
G75*
G03*
X318622000Y94289000I-2794000J0D01*
G01*
D10*
X364278500Y3484000D02*
X396155500Y3484000D01*
D11*
X87962000Y5204000D02*
G75*
G03*
X87962000Y5204000I-2794000J0D01*
G01*
D10*
X308843000Y60621300D02*
X308843000Y42231700D01*
X397108000Y98416500D02*
X397108000Y62526300D01*
X307890500Y41279200D02*
G75*
G03*
X308843000Y42231700I0J952500D01*
G01*
X396155500Y3484000D02*
G75*
G03*
X397108000Y4436500I0J952500D01*
G01*
X342053500Y3484000D02*
G75*
G03*
X343006000Y4436500I0J952500D01*
G01*
D11*
X392282000Y94260000D02*
G75*
G03*
X392282000Y94260000I-2794000J0D01*
G01*
D10*
X306938000Y98416500D02*
X306938000Y62526300D01*
X308843000Y60621300D02*
G75*
G03*
X307890500Y61573800I-952500J0D01*
G01*
X306938000Y62526300D02*
G75*
G03*
X307890500Y61573800I952500J0D01*
G01*
X363326000Y4436500D02*
G75*
G03*
X364278500Y3484000I952500J0D01*
G01*
X307890500Y3484000D02*
X342053500Y3484000D01*
D11*
X85422000Y90900000D02*
G75*
G03*
X85422000Y90900000I-2794000J0D01*
G01*
X84152000Y90900000D02*
G75*
G03*
X84152000Y90900000I-1524000J0D01*
G01*
X391012000Y94260000D02*
G75*
G03*
X391012000Y94260000I-1524000J0D01*
G01*
X40639191Y-8985219D02*
X40829667Y-8985219D01*
X40829667Y-8985219D02*
X40924905Y-8937600D01*
X40924905Y-8937600D02*
X40972524Y-8889980D01*
X40972524Y-8889980D02*
X41067762Y-8747123D01*
X41067762Y-8747123D02*
X41115381Y-8556647D01*
X41115381Y-8556647D02*
X41115381Y-8175695D01*
X41115381Y-8175695D02*
X41067762Y-8080457D01*
X41067762Y-8080457D02*
X41020143Y-8032838D01*
X41020143Y-8032838D02*
X40924905Y-7985219D01*
X40924905Y-7985219D02*
X40734429Y-7985219D01*
X40734429Y-7985219D02*
X40639191Y-8032838D01*
X40639191Y-8032838D02*
X40591572Y-8080457D01*
X40591572Y-8080457D02*
X40543953Y-8175695D01*
X40543953Y-8175695D02*
X40543953Y-8413790D01*
X40543953Y-8413790D02*
X40591572Y-8509028D01*
X40591572Y-8509028D02*
X40639191Y-8556647D01*
X40639191Y-8556647D02*
X40734429Y-8604266D01*
X40734429Y-8604266D02*
X40924905Y-8604266D01*
X40924905Y-8604266D02*
X41020143Y-8556647D01*
X41020143Y-8556647D02*
X41067762Y-8509028D01*
X41067762Y-8509028D02*
X41115381Y-8413790D01*
X41734429Y-7985219D02*
X41829667Y-7985219D01*
X41829667Y-7985219D02*
X41924905Y-8032838D01*
X41924905Y-8032838D02*
X41972524Y-8080457D01*
X41972524Y-8080457D02*
X42020143Y-8175695D01*
X42020143Y-8175695D02*
X42067762Y-8366171D01*
X42067762Y-8366171D02*
X42067762Y-8604266D01*
X42067762Y-8604266D02*
X42020143Y-8794742D01*
X42020143Y-8794742D02*
X41972524Y-8889980D01*
X41972524Y-8889980D02*
X41924905Y-8937600D01*
X41924905Y-8937600D02*
X41829667Y-8985219D01*
X41829667Y-8985219D02*
X41734429Y-8985219D01*
X41734429Y-8985219D02*
X41639191Y-8937600D01*
X41639191Y-8937600D02*
X41591572Y-8889980D01*
X41591572Y-8889980D02*
X41543953Y-8794742D01*
X41543953Y-8794742D02*
X41496334Y-8604266D01*
X41496334Y-8604266D02*
X41496334Y-8366171D01*
X41496334Y-8366171D02*
X41543953Y-8175695D01*
X41543953Y-8175695D02*
X41591572Y-8080457D01*
X41591572Y-8080457D02*
X41639191Y-8032838D01*
X41639191Y-8032838D02*
X41734429Y-7985219D01*
X42496334Y-8889980D02*
X42543953Y-8937600D01*
X42543953Y-8937600D02*
X42496334Y-8985219D01*
X42496334Y-8985219D02*
X42448715Y-8937600D01*
X42448715Y-8937600D02*
X42496334Y-8889980D01*
X42496334Y-8889980D02*
X42496334Y-8985219D01*
X43496333Y-8985219D02*
X42924905Y-8985219D01*
X43210619Y-8985219D02*
X43210619Y-7985219D01*
X43210619Y-7985219D02*
X43115381Y-8128076D01*
X43115381Y-8128076D02*
X43020143Y-8223314D01*
X43020143Y-8223314D02*
X42924905Y-8270933D01*
X43829667Y-7985219D02*
X44496333Y-7985219D01*
X44496333Y-7985219D02*
X44067762Y-8985219D01*
X45067762Y-7985219D02*
X45163000Y-7985219D01*
X45163000Y-7985219D02*
X45258238Y-8032838D01*
X45258238Y-8032838D02*
X45305857Y-8080457D01*
X45305857Y-8080457D02*
X45353476Y-8175695D01*
X45353476Y-8175695D02*
X45401095Y-8366171D01*
X45401095Y-8366171D02*
X45401095Y-8604266D01*
X45401095Y-8604266D02*
X45353476Y-8794742D01*
X45353476Y-8794742D02*
X45305857Y-8889980D01*
X45305857Y-8889980D02*
X45258238Y-8937600D01*
X45258238Y-8937600D02*
X45163000Y-8985219D01*
X45163000Y-8985219D02*
X45067762Y-8985219D01*
X45067762Y-8985219D02*
X44972524Y-8937600D01*
X44972524Y-8937600D02*
X44924905Y-8889980D01*
X44924905Y-8889980D02*
X44877286Y-8794742D01*
X44877286Y-8794742D02*
X44829667Y-8604266D01*
X44829667Y-8604266D02*
X44829667Y-8366171D01*
X44829667Y-8366171D02*
X44877286Y-8175695D01*
X44877286Y-8175695D02*
X44924905Y-8080457D01*
X44924905Y-8080457D02*
X44972524Y-8032838D01*
X44972524Y-8032838D02*
X45067762Y-7985219D01*
X46020143Y-7985219D02*
X46115381Y-7985219D01*
X46115381Y-7985219D02*
X46210619Y-8032838D01*
X46210619Y-8032838D02*
X46258238Y-8080457D01*
X46258238Y-8080457D02*
X46305857Y-8175695D01*
X46305857Y-8175695D02*
X46353476Y-8366171D01*
X46353476Y-8366171D02*
X46353476Y-8604266D01*
X46353476Y-8604266D02*
X46305857Y-8794742D01*
X46305857Y-8794742D02*
X46258238Y-8889980D01*
X46258238Y-8889980D02*
X46210619Y-8937600D01*
X46210619Y-8937600D02*
X46115381Y-8985219D01*
X46115381Y-8985219D02*
X46020143Y-8985219D01*
X46020143Y-8985219D02*
X45924905Y-8937600D01*
X45924905Y-8937600D02*
X45877286Y-8889980D01*
X45877286Y-8889980D02*
X45829667Y-8794742D01*
X45829667Y-8794742D02*
X45782048Y-8604266D01*
X45782048Y-8604266D02*
X45782048Y-8366171D01*
X45782048Y-8366171D02*
X45829667Y-8175695D01*
X45829667Y-8175695D02*
X45877286Y-8080457D01*
X45877286Y-8080457D02*
X45924905Y-8032838D01*
X45924905Y-8032838D02*
X46020143Y-7985219D01*
X47543953Y-8985219D02*
X47543953Y-8318552D01*
X47543953Y-8413790D02*
X47591572Y-8366171D01*
X47591572Y-8366171D02*
X47686810Y-8318552D01*
X47686810Y-8318552D02*
X47829667Y-8318552D01*
X47829667Y-8318552D02*
X47924905Y-8366171D01*
X47924905Y-8366171D02*
X47972524Y-8461409D01*
X47972524Y-8461409D02*
X47972524Y-8985219D01*
X47972524Y-8461409D02*
X48020143Y-8366171D01*
X48020143Y-8366171D02*
X48115381Y-8318552D01*
X48115381Y-8318552D02*
X48258238Y-8318552D01*
X48258238Y-8318552D02*
X48353477Y-8366171D01*
X48353477Y-8366171D02*
X48401096Y-8461409D01*
X48401096Y-8461409D02*
X48401096Y-8985219D01*
X48877286Y-8985219D02*
X48877286Y-8318552D01*
X48877286Y-8413790D02*
X48924905Y-8366171D01*
X48924905Y-8366171D02*
X49020143Y-8318552D01*
X49020143Y-8318552D02*
X49163000Y-8318552D01*
X49163000Y-8318552D02*
X49258238Y-8366171D01*
X49258238Y-8366171D02*
X49305857Y-8461409D01*
X49305857Y-8461409D02*
X49305857Y-8985219D01*
X49305857Y-8461409D02*
X49353476Y-8366171D01*
X49353476Y-8366171D02*
X49448714Y-8318552D01*
X49448714Y-8318552D02*
X49591571Y-8318552D01*
X49591571Y-8318552D02*
X49686810Y-8366171D01*
X49686810Y-8366171D02*
X49734429Y-8461409D01*
X49734429Y-8461409D02*
X49734429Y-8985219D01*
D10*
X78000Y576500D02*
X78000Y-10266820D01*
X90248000Y576500D02*
X90248000Y-10266820D01*
X78000Y-9680400D02*
X90248000Y-9680400D01*
X78000Y-9680400D02*
X90248000Y-9680400D01*
X78000Y-9680400D02*
X1204504Y-9093979D01*
X78000Y-9680400D02*
X1204504Y-10266821D01*
X90248000Y-9680400D02*
X89121496Y-10266821D01*
X90248000Y-9680400D02*
X89121496Y-9093979D01*
D11*
X345054429Y-2920189D02*
X344959191Y-2872570D01*
X344959191Y-2872570D02*
X344911572Y-2824951D01*
X344911572Y-2824951D02*
X344863953Y-2729713D01*
X344863953Y-2729713D02*
X344863953Y-2682094D01*
X344863953Y-2682094D02*
X344911572Y-2586856D01*
X344911572Y-2586856D02*
X344959191Y-2539237D01*
X344959191Y-2539237D02*
X345054429Y-2491618D01*
X345054429Y-2491618D02*
X345244905Y-2491618D01*
X345244905Y-2491618D02*
X345340143Y-2539237D01*
X345340143Y-2539237D02*
X345387762Y-2586856D01*
X345387762Y-2586856D02*
X345435381Y-2682094D01*
X345435381Y-2682094D02*
X345435381Y-2729713D01*
X345435381Y-2729713D02*
X345387762Y-2824951D01*
X345387762Y-2824951D02*
X345340143Y-2872570D01*
X345340143Y-2872570D02*
X345244905Y-2920189D01*
X345244905Y-2920189D02*
X345054429Y-2920189D01*
X345054429Y-2920189D02*
X344959191Y-2967808D01*
X344959191Y-2967808D02*
X344911572Y-3015427D01*
X344911572Y-3015427D02*
X344863953Y-3110665D01*
X344863953Y-3110665D02*
X344863953Y-3301141D01*
X344863953Y-3301141D02*
X344911572Y-3396379D01*
X344911572Y-3396379D02*
X344959191Y-3443999D01*
X344959191Y-3443999D02*
X345054429Y-3491618D01*
X345054429Y-3491618D02*
X345244905Y-3491618D01*
X345244905Y-3491618D02*
X345340143Y-3443999D01*
X345340143Y-3443999D02*
X345387762Y-3396379D01*
X345387762Y-3396379D02*
X345435381Y-3301141D01*
X345435381Y-3301141D02*
X345435381Y-3110665D01*
X345435381Y-3110665D02*
X345387762Y-3015427D01*
X345387762Y-3015427D02*
X345340143Y-2967808D01*
X345340143Y-2967808D02*
X345244905Y-2920189D01*
X346340143Y-2491618D02*
X345863953Y-2491618D01*
X345863953Y-2491618D02*
X345816334Y-2967808D01*
X345816334Y-2967808D02*
X345863953Y-2920189D01*
X345863953Y-2920189D02*
X345959191Y-2872570D01*
X345959191Y-2872570D02*
X346197286Y-2872570D01*
X346197286Y-2872570D02*
X346292524Y-2920189D01*
X346292524Y-2920189D02*
X346340143Y-2967808D01*
X346340143Y-2967808D02*
X346387762Y-3063046D01*
X346387762Y-3063046D02*
X346387762Y-3301141D01*
X346387762Y-3301141D02*
X346340143Y-3396379D01*
X346340143Y-3396379D02*
X346292524Y-3443999D01*
X346292524Y-3443999D02*
X346197286Y-3491618D01*
X346197286Y-3491618D02*
X345959191Y-3491618D01*
X345959191Y-3491618D02*
X345863953Y-3443999D01*
X345863953Y-3443999D02*
X345816334Y-3396379D01*
X346816334Y-3396379D02*
X346863953Y-3443999D01*
X346863953Y-3443999D02*
X346816334Y-3491618D01*
X346816334Y-3491618D02*
X346768715Y-3443999D01*
X346768715Y-3443999D02*
X346816334Y-3396379D01*
X346816334Y-3396379D02*
X346816334Y-3491618D01*
X347483000Y-2491618D02*
X347578238Y-2491618D01*
X347578238Y-2491618D02*
X347673476Y-2539237D01*
X347673476Y-2539237D02*
X347721095Y-2586856D01*
X347721095Y-2586856D02*
X347768714Y-2682094D01*
X347768714Y-2682094D02*
X347816333Y-2872570D01*
X347816333Y-2872570D02*
X347816333Y-3110665D01*
X347816333Y-3110665D02*
X347768714Y-3301141D01*
X347768714Y-3301141D02*
X347721095Y-3396379D01*
X347721095Y-3396379D02*
X347673476Y-3443999D01*
X347673476Y-3443999D02*
X347578238Y-3491618D01*
X347578238Y-3491618D02*
X347483000Y-3491618D01*
X347483000Y-3491618D02*
X347387762Y-3443999D01*
X347387762Y-3443999D02*
X347340143Y-3396379D01*
X347340143Y-3396379D02*
X347292524Y-3301141D01*
X347292524Y-3301141D02*
X347244905Y-3110665D01*
X347244905Y-3110665D02*
X347244905Y-2872570D01*
X347244905Y-2872570D02*
X347292524Y-2682094D01*
X347292524Y-2682094D02*
X347340143Y-2586856D01*
X347340143Y-2586856D02*
X347387762Y-2539237D01*
X347387762Y-2539237D02*
X347483000Y-2491618D01*
X348292524Y-3491618D02*
X348483000Y-3491618D01*
X348483000Y-3491618D02*
X348578238Y-3443999D01*
X348578238Y-3443999D02*
X348625857Y-3396379D01*
X348625857Y-3396379D02*
X348721095Y-3253522D01*
X348721095Y-3253522D02*
X348768714Y-3063046D01*
X348768714Y-3063046D02*
X348768714Y-2682094D01*
X348768714Y-2682094D02*
X348721095Y-2586856D01*
X348721095Y-2586856D02*
X348673476Y-2539237D01*
X348673476Y-2539237D02*
X348578238Y-2491618D01*
X348578238Y-2491618D02*
X348387762Y-2491618D01*
X348387762Y-2491618D02*
X348292524Y-2539237D01*
X348292524Y-2539237D02*
X348244905Y-2586856D01*
X348244905Y-2586856D02*
X348197286Y-2682094D01*
X348197286Y-2682094D02*
X348197286Y-2920189D01*
X348197286Y-2920189D02*
X348244905Y-3015427D01*
X348244905Y-3015427D02*
X348292524Y-3063046D01*
X348292524Y-3063046D02*
X348387762Y-3110665D01*
X348387762Y-3110665D02*
X348578238Y-3110665D01*
X348578238Y-3110665D02*
X348673476Y-3063046D01*
X348673476Y-3063046D02*
X348721095Y-3015427D01*
X348721095Y-3015427D02*
X348768714Y-2920189D01*
X349387762Y-2491618D02*
X349483000Y-2491618D01*
X349483000Y-2491618D02*
X349578238Y-2539237D01*
X349578238Y-2539237D02*
X349625857Y-2586856D01*
X349625857Y-2586856D02*
X349673476Y-2682094D01*
X349673476Y-2682094D02*
X349721095Y-2872570D01*
X349721095Y-2872570D02*
X349721095Y-3110665D01*
X349721095Y-3110665D02*
X349673476Y-3301141D01*
X349673476Y-3301141D02*
X349625857Y-3396379D01*
X349625857Y-3396379D02*
X349578238Y-3443999D01*
X349578238Y-3443999D02*
X349483000Y-3491618D01*
X349483000Y-3491618D02*
X349387762Y-3491618D01*
X349387762Y-3491618D02*
X349292524Y-3443999D01*
X349292524Y-3443999D02*
X349244905Y-3396379D01*
X349244905Y-3396379D02*
X349197286Y-3301141D01*
X349197286Y-3301141D02*
X349149667Y-3110665D01*
X349149667Y-3110665D02*
X349149667Y-2872570D01*
X349149667Y-2872570D02*
X349197286Y-2682094D01*
X349197286Y-2682094D02*
X349244905Y-2586856D01*
X349244905Y-2586856D02*
X349292524Y-2539237D01*
X349292524Y-2539237D02*
X349387762Y-2491618D01*
X350340143Y-2491618D02*
X350435381Y-2491618D01*
X350435381Y-2491618D02*
X350530619Y-2539237D01*
X350530619Y-2539237D02*
X350578238Y-2586856D01*
X350578238Y-2586856D02*
X350625857Y-2682094D01*
X350625857Y-2682094D02*
X350673476Y-2872570D01*
X350673476Y-2872570D02*
X350673476Y-3110665D01*
X350673476Y-3110665D02*
X350625857Y-3301141D01*
X350625857Y-3301141D02*
X350578238Y-3396379D01*
X350578238Y-3396379D02*
X350530619Y-3443999D01*
X350530619Y-3443999D02*
X350435381Y-3491618D01*
X350435381Y-3491618D02*
X350340143Y-3491618D01*
X350340143Y-3491618D02*
X350244905Y-3443999D01*
X350244905Y-3443999D02*
X350197286Y-3396379D01*
X350197286Y-3396379D02*
X350149667Y-3301141D01*
X350149667Y-3301141D02*
X350102048Y-3110665D01*
X350102048Y-3110665D02*
X350102048Y-2872570D01*
X350102048Y-2872570D02*
X350149667Y-2682094D01*
X350149667Y-2682094D02*
X350197286Y-2586856D01*
X350197286Y-2586856D02*
X350244905Y-2539237D01*
X350244905Y-2539237D02*
X350340143Y-2491618D01*
X351863953Y-3491618D02*
X351863953Y-2824951D01*
X351863953Y-2920189D02*
X351911572Y-2872570D01*
X351911572Y-2872570D02*
X352006810Y-2824951D01*
X352006810Y-2824951D02*
X352149667Y-2824951D01*
X352149667Y-2824951D02*
X352244905Y-2872570D01*
X352244905Y-2872570D02*
X352292524Y-2967808D01*
X352292524Y-2967808D02*
X352292524Y-3491618D01*
X352292524Y-2967808D02*
X352340143Y-2872570D01*
X352340143Y-2872570D02*
X352435381Y-2824951D01*
X352435381Y-2824951D02*
X352578238Y-2824951D01*
X352578238Y-2824951D02*
X352673477Y-2872570D01*
X352673477Y-2872570D02*
X352721096Y-2967808D01*
X352721096Y-2967808D02*
X352721096Y-3491618D01*
X353197286Y-3491618D02*
X353197286Y-2824951D01*
X353197286Y-2920189D02*
X353244905Y-2872570D01*
X353244905Y-2872570D02*
X353340143Y-2824951D01*
X353340143Y-2824951D02*
X353483000Y-2824951D01*
X353483000Y-2824951D02*
X353578238Y-2872570D01*
X353578238Y-2872570D02*
X353625857Y-2967808D01*
X353625857Y-2967808D02*
X353625857Y-3491618D01*
X353625857Y-2967808D02*
X353673476Y-2872570D01*
X353673476Y-2872570D02*
X353768714Y-2824951D01*
X353768714Y-2824951D02*
X353911571Y-2824951D01*
X353911571Y-2824951D02*
X354006810Y-2872570D01*
X354006810Y-2872570D02*
X354054429Y-2967808D01*
X354054429Y-2967808D02*
X354054429Y-3491618D01*
D10*
X306938000Y2984000D02*
X306938000Y-4773219D01*
X392028000Y2984000D02*
X392028000Y-4773219D01*
X306938000Y-4186799D02*
X392028000Y-4186799D01*
X306938000Y-4186799D02*
X392028000Y-4186799D01*
X306938000Y-4186799D02*
X308064504Y-3600378D01*
X306938000Y-4186799D02*
X308064504Y-4773220D01*
X392028000Y-4186799D02*
X390901496Y-4773220D01*
X392028000Y-4186799D02*
X390901496Y-3600378D01*
D11*
X300670819Y2404953D02*
X300670819Y1928763D01*
X300670819Y1928763D02*
X301147009Y1881144D01*
X301147009Y1881144D02*
X301099390Y1928763D01*
X301099390Y1928763D02*
X301051771Y2024001D01*
X301051771Y2024001D02*
X301051771Y2262096D01*
X301051771Y2262096D02*
X301099390Y2357334D01*
X301099390Y2357334D02*
X301147009Y2404953D01*
X301147009Y2404953D02*
X301242247Y2452572D01*
X301242247Y2452572D02*
X301480342Y2452572D01*
X301480342Y2452572D02*
X301575580Y2404953D01*
X301575580Y2404953D02*
X301623200Y2357334D01*
X301623200Y2357334D02*
X301670819Y2262096D01*
X301670819Y2262096D02*
X301670819Y2024001D01*
X301670819Y2024001D02*
X301623200Y1928763D01*
X301623200Y1928763D02*
X301575580Y1881144D01*
X301575580Y2881144D02*
X301623200Y2928763D01*
X301623200Y2928763D02*
X301670819Y2881144D01*
X301670819Y2881144D02*
X301623200Y2833525D01*
X301623200Y2833525D02*
X301575580Y2881144D01*
X301575580Y2881144D02*
X301670819Y2881144D01*
X300670819Y3547810D02*
X300670819Y3643048D01*
X300670819Y3643048D02*
X300718438Y3738286D01*
X300718438Y3738286D02*
X300766057Y3785905D01*
X300766057Y3785905D02*
X300861295Y3833524D01*
X300861295Y3833524D02*
X301051771Y3881143D01*
X301051771Y3881143D02*
X301289866Y3881143D01*
X301289866Y3881143D02*
X301480342Y3833524D01*
X301480342Y3833524D02*
X301575580Y3785905D01*
X301575580Y3785905D02*
X301623200Y3738286D01*
X301623200Y3738286D02*
X301670819Y3643048D01*
X301670819Y3643048D02*
X301670819Y3547810D01*
X301670819Y3547810D02*
X301623200Y3452572D01*
X301623200Y3452572D02*
X301575580Y3404953D01*
X301575580Y3404953D02*
X301480342Y3357334D01*
X301480342Y3357334D02*
X301289866Y3309715D01*
X301289866Y3309715D02*
X301051771Y3309715D01*
X301051771Y3309715D02*
X300861295Y3357334D01*
X300861295Y3357334D02*
X300766057Y3404953D01*
X300766057Y3404953D02*
X300718438Y3452572D01*
X300718438Y3452572D02*
X300670819Y3547810D01*
X301099390Y4452572D02*
X301051771Y4357334D01*
X301051771Y4357334D02*
X301004152Y4309715D01*
X301004152Y4309715D02*
X300908914Y4262096D01*
X300908914Y4262096D02*
X300861295Y4262096D01*
X300861295Y4262096D02*
X300766057Y4309715D01*
X300766057Y4309715D02*
X300718438Y4357334D01*
X300718438Y4357334D02*
X300670819Y4452572D01*
X300670819Y4452572D02*
X300670819Y4643048D01*
X300670819Y4643048D02*
X300718438Y4738286D01*
X300718438Y4738286D02*
X300766057Y4785905D01*
X300766057Y4785905D02*
X300861295Y4833524D01*
X300861295Y4833524D02*
X300908914Y4833524D01*
X300908914Y4833524D02*
X301004152Y4785905D01*
X301004152Y4785905D02*
X301051771Y4738286D01*
X301051771Y4738286D02*
X301099390Y4643048D01*
X301099390Y4643048D02*
X301099390Y4452572D01*
X301099390Y4452572D02*
X301147009Y4357334D01*
X301147009Y4357334D02*
X301194628Y4309715D01*
X301194628Y4309715D02*
X301289866Y4262096D01*
X301289866Y4262096D02*
X301480342Y4262096D01*
X301480342Y4262096D02*
X301575580Y4309715D01*
X301575580Y4309715D02*
X301623200Y4357334D01*
X301623200Y4357334D02*
X301670819Y4452572D01*
X301670819Y4452572D02*
X301670819Y4643048D01*
X301670819Y4643048D02*
X301623200Y4738286D01*
X301623200Y4738286D02*
X301575580Y4785905D01*
X301575580Y4785905D02*
X301480342Y4833524D01*
X301480342Y4833524D02*
X301289866Y4833524D01*
X301289866Y4833524D02*
X301194628Y4785905D01*
X301194628Y4785905D02*
X301147009Y4738286D01*
X301147009Y4738286D02*
X301099390Y4643048D01*
X300670819Y5452572D02*
X300670819Y5547810D01*
X300670819Y5547810D02*
X300718438Y5643048D01*
X300718438Y5643048D02*
X300766057Y5690667D01*
X300766057Y5690667D02*
X300861295Y5738286D01*
X300861295Y5738286D02*
X301051771Y5785905D01*
X301051771Y5785905D02*
X301289866Y5785905D01*
X301289866Y5785905D02*
X301480342Y5738286D01*
X301480342Y5738286D02*
X301575580Y5690667D01*
X301575580Y5690667D02*
X301623200Y5643048D01*
X301623200Y5643048D02*
X301670819Y5547810D01*
X301670819Y5547810D02*
X301670819Y5452572D01*
X301670819Y5452572D02*
X301623200Y5357334D01*
X301623200Y5357334D02*
X301575580Y5309715D01*
X301575580Y5309715D02*
X301480342Y5262096D01*
X301480342Y5262096D02*
X301289866Y5214477D01*
X301289866Y5214477D02*
X301051771Y5214477D01*
X301051771Y5214477D02*
X300861295Y5262096D01*
X300861295Y5262096D02*
X300766057Y5309715D01*
X300766057Y5309715D02*
X300718438Y5357334D01*
X300718438Y5357334D02*
X300670819Y5452572D01*
X300670819Y6404953D02*
X300670819Y6500191D01*
X300670819Y6500191D02*
X300718438Y6595429D01*
X300718438Y6595429D02*
X300766057Y6643048D01*
X300766057Y6643048D02*
X300861295Y6690667D01*
X300861295Y6690667D02*
X301051771Y6738286D01*
X301051771Y6738286D02*
X301289866Y6738286D01*
X301289866Y6738286D02*
X301480342Y6690667D01*
X301480342Y6690667D02*
X301575580Y6643048D01*
X301575580Y6643048D02*
X301623200Y6595429D01*
X301623200Y6595429D02*
X301670819Y6500191D01*
X301670819Y6500191D02*
X301670819Y6404953D01*
X301670819Y6404953D02*
X301623200Y6309715D01*
X301623200Y6309715D02*
X301575580Y6262096D01*
X301575580Y6262096D02*
X301480342Y6214477D01*
X301480342Y6214477D02*
X301289866Y6166858D01*
X301289866Y6166858D02*
X301051771Y6166858D01*
X301051771Y6166858D02*
X300861295Y6214477D01*
X300861295Y6214477D02*
X300766057Y6262096D01*
X300766057Y6262096D02*
X300718438Y6309715D01*
X300718438Y6309715D02*
X300670819Y6404953D01*
X301670819Y7928763D02*
X301004152Y7928763D01*
X301099390Y7928763D02*
X301051771Y7976382D01*
X301051771Y7976382D02*
X301004152Y8071620D01*
X301004152Y8071620D02*
X301004152Y8214477D01*
X301004152Y8214477D02*
X301051771Y8309715D01*
X301051771Y8309715D02*
X301147009Y8357334D01*
X301147009Y8357334D02*
X301670819Y8357334D01*
X301147009Y8357334D02*
X301051771Y8404953D01*
X301051771Y8404953D02*
X301004152Y8500191D01*
X301004152Y8500191D02*
X301004152Y8643048D01*
X301004152Y8643048D02*
X301051771Y8738287D01*
X301051771Y8738287D02*
X301147009Y8785906D01*
X301147009Y8785906D02*
X301670819Y8785906D01*
X301670819Y9262096D02*
X301004152Y9262096D01*
X301099390Y9262096D02*
X301051771Y9309715D01*
X301051771Y9309715D02*
X301004152Y9404953D01*
X301004152Y9404953D02*
X301004152Y9547810D01*
X301004152Y9547810D02*
X301051771Y9643048D01*
X301051771Y9643048D02*
X301147009Y9690667D01*
X301147009Y9690667D02*
X301670819Y9690667D01*
X301147009Y9690667D02*
X301051771Y9738286D01*
X301051771Y9738286D02*
X301004152Y9833524D01*
X301004152Y9833524D02*
X301004152Y9976381D01*
X301004152Y9976381D02*
X301051771Y10071620D01*
X301051771Y10071620D02*
X301147009Y10119239D01*
X301147009Y10119239D02*
X301670819Y10119239D01*
D10*
X311518000Y8564000D02*
X301779580Y8564000D01*
X311518000Y3484000D02*
X301779580Y3484000D01*
X302366000Y8564000D02*
X302366000Y3484000D01*
X302366000Y8564000D02*
X302366000Y3484000D01*
X302366000Y8564000D02*
X302952421Y7437496D01*
X302366000Y8564000D02*
X301779579Y7437496D01*
X302366000Y3484000D02*
X301779579Y4610504D01*
X302366000Y3484000D02*
X302952421Y4610504D01*
D11*
X-24797981Y43542692D02*
X-24797981Y43733168D01*
X-24797981Y43733168D02*
X-24845600Y43828406D01*
X-24845600Y43828406D02*
X-24893220Y43876025D01*
X-24893220Y43876025D02*
X-25036077Y43971263D01*
X-25036077Y43971263D02*
X-25226553Y44018882D01*
X-25226553Y44018882D02*
X-25607505Y44018882D01*
X-25607505Y44018882D02*
X-25702743Y43971263D01*
X-25702743Y43971263D02*
X-25750362Y43923644D01*
X-25750362Y43923644D02*
X-25797981Y43828406D01*
X-25797981Y43828406D02*
X-25797981Y43637930D01*
X-25797981Y43637930D02*
X-25750362Y43542692D01*
X-25750362Y43542692D02*
X-25702743Y43495073D01*
X-25702743Y43495073D02*
X-25607505Y43447454D01*
X-25607505Y43447454D02*
X-25369410Y43447454D01*
X-25369410Y43447454D02*
X-25274172Y43495073D01*
X-25274172Y43495073D02*
X-25226553Y43542692D01*
X-25226553Y43542692D02*
X-25178934Y43637930D01*
X-25178934Y43637930D02*
X-25178934Y43828406D01*
X-25178934Y43828406D02*
X-25226553Y43923644D01*
X-25226553Y43923644D02*
X-25274172Y43971263D01*
X-25274172Y43971263D02*
X-25369410Y44018882D01*
X-25797981Y44923644D02*
X-25797981Y44447454D01*
X-25797981Y44447454D02*
X-25321791Y44399835D01*
X-25321791Y44399835D02*
X-25369410Y44447454D01*
X-25369410Y44447454D02*
X-25417029Y44542692D01*
X-25417029Y44542692D02*
X-25417029Y44780787D01*
X-25417029Y44780787D02*
X-25369410Y44876025D01*
X-25369410Y44876025D02*
X-25321791Y44923644D01*
X-25321791Y44923644D02*
X-25226553Y44971263D01*
X-25226553Y44971263D02*
X-24988458Y44971263D01*
X-24988458Y44971263D02*
X-24893220Y44923644D01*
X-24893220Y44923644D02*
X-24845600Y44876025D01*
X-24845600Y44876025D02*
X-24797981Y44780787D01*
X-24797981Y44780787D02*
X-24797981Y44542692D01*
X-24797981Y44542692D02*
X-24845600Y44447454D01*
X-24845600Y44447454D02*
X-24893220Y44399835D01*
X-24893220Y45399835D02*
X-24845600Y45447454D01*
X-24845600Y45447454D02*
X-24797981Y45399835D01*
X-24797981Y45399835D02*
X-24845600Y45352216D01*
X-24845600Y45352216D02*
X-24893220Y45399835D01*
X-24893220Y45399835D02*
X-24797981Y45399835D01*
X-25369410Y46018882D02*
X-25417029Y45923644D01*
X-25417029Y45923644D02*
X-25464648Y45876025D01*
X-25464648Y45876025D02*
X-25559886Y45828406D01*
X-25559886Y45828406D02*
X-25607505Y45828406D01*
X-25607505Y45828406D02*
X-25702743Y45876025D01*
X-25702743Y45876025D02*
X-25750362Y45923644D01*
X-25750362Y45923644D02*
X-25797981Y46018882D01*
X-25797981Y46018882D02*
X-25797981Y46209358D01*
X-25797981Y46209358D02*
X-25750362Y46304596D01*
X-25750362Y46304596D02*
X-25702743Y46352215D01*
X-25702743Y46352215D02*
X-25607505Y46399834D01*
X-25607505Y46399834D02*
X-25559886Y46399834D01*
X-25559886Y46399834D02*
X-25464648Y46352215D01*
X-25464648Y46352215D02*
X-25417029Y46304596D01*
X-25417029Y46304596D02*
X-25369410Y46209358D01*
X-25369410Y46209358D02*
X-25369410Y46018882D01*
X-25369410Y46018882D02*
X-25321791Y45923644D01*
X-25321791Y45923644D02*
X-25274172Y45876025D01*
X-25274172Y45876025D02*
X-25178934Y45828406D01*
X-25178934Y45828406D02*
X-24988458Y45828406D01*
X-24988458Y45828406D02*
X-24893220Y45876025D01*
X-24893220Y45876025D02*
X-24845600Y45923644D01*
X-24845600Y45923644D02*
X-24797981Y46018882D01*
X-24797981Y46018882D02*
X-24797981Y46209358D01*
X-24797981Y46209358D02*
X-24845600Y46304596D01*
X-24845600Y46304596D02*
X-24893220Y46352215D01*
X-24893220Y46352215D02*
X-24988458Y46399834D01*
X-24988458Y46399834D02*
X-25178934Y46399834D01*
X-25178934Y46399834D02*
X-25274172Y46352215D01*
X-25274172Y46352215D02*
X-25321791Y46304596D01*
X-25321791Y46304596D02*
X-25369410Y46209358D01*
X-25369410Y46971263D02*
X-25417029Y46876025D01*
X-25417029Y46876025D02*
X-25464648Y46828406D01*
X-25464648Y46828406D02*
X-25559886Y46780787D01*
X-25559886Y46780787D02*
X-25607505Y46780787D01*
X-25607505Y46780787D02*
X-25702743Y46828406D01*
X-25702743Y46828406D02*
X-25750362Y46876025D01*
X-25750362Y46876025D02*
X-25797981Y46971263D01*
X-25797981Y46971263D02*
X-25797981Y47161739D01*
X-25797981Y47161739D02*
X-25750362Y47256977D01*
X-25750362Y47256977D02*
X-25702743Y47304596D01*
X-25702743Y47304596D02*
X-25607505Y47352215D01*
X-25607505Y47352215D02*
X-25559886Y47352215D01*
X-25559886Y47352215D02*
X-25464648Y47304596D01*
X-25464648Y47304596D02*
X-25417029Y47256977D01*
X-25417029Y47256977D02*
X-25369410Y47161739D01*
X-25369410Y47161739D02*
X-25369410Y46971263D01*
X-25369410Y46971263D02*
X-25321791Y46876025D01*
X-25321791Y46876025D02*
X-25274172Y46828406D01*
X-25274172Y46828406D02*
X-25178934Y46780787D01*
X-25178934Y46780787D02*
X-24988458Y46780787D01*
X-24988458Y46780787D02*
X-24893220Y46828406D01*
X-24893220Y46828406D02*
X-24845600Y46876025D01*
X-24845600Y46876025D02*
X-24797981Y46971263D01*
X-24797981Y46971263D02*
X-24797981Y47161739D01*
X-24797981Y47161739D02*
X-24845600Y47256977D01*
X-24845600Y47256977D02*
X-24893220Y47304596D01*
X-24893220Y47304596D02*
X-24988458Y47352215D01*
X-24988458Y47352215D02*
X-25178934Y47352215D01*
X-25178934Y47352215D02*
X-25274172Y47304596D01*
X-25274172Y47304596D02*
X-25321791Y47256977D01*
X-25321791Y47256977D02*
X-25369410Y47161739D01*
X-25797981Y48256977D02*
X-25797981Y47780787D01*
X-25797981Y47780787D02*
X-25321791Y47733168D01*
X-25321791Y47733168D02*
X-25369410Y47780787D01*
X-25369410Y47780787D02*
X-25417029Y47876025D01*
X-25417029Y47876025D02*
X-25417029Y48114120D01*
X-25417029Y48114120D02*
X-25369410Y48209358D01*
X-25369410Y48209358D02*
X-25321791Y48256977D01*
X-25321791Y48256977D02*
X-25226553Y48304596D01*
X-25226553Y48304596D02*
X-24988458Y48304596D01*
X-24988458Y48304596D02*
X-24893220Y48256977D01*
X-24893220Y48256977D02*
X-24845600Y48209358D01*
X-24845600Y48209358D02*
X-24797981Y48114120D01*
X-24797981Y48114120D02*
X-24797981Y47876025D01*
X-24797981Y47876025D02*
X-24845600Y47780787D01*
X-24845600Y47780787D02*
X-24893220Y47733168D01*
X-25797981Y48923644D02*
X-25797981Y49018882D01*
X-25797981Y49018882D02*
X-25750362Y49114120D01*
X-25750362Y49114120D02*
X-25702743Y49161739D01*
X-25702743Y49161739D02*
X-25607505Y49209358D01*
X-25607505Y49209358D02*
X-25417029Y49256977D01*
X-25417029Y49256977D02*
X-25178934Y49256977D01*
X-25178934Y49256977D02*
X-24988458Y49209358D01*
X-24988458Y49209358D02*
X-24893220Y49161739D01*
X-24893220Y49161739D02*
X-24845600Y49114120D01*
X-24845600Y49114120D02*
X-24797981Y49018882D01*
X-24797981Y49018882D02*
X-24797981Y48923644D01*
X-24797981Y48923644D02*
X-24845600Y48828406D01*
X-24845600Y48828406D02*
X-24893220Y48780787D01*
X-24893220Y48780787D02*
X-24988458Y48733168D01*
X-24988458Y48733168D02*
X-25178934Y48685549D01*
X-25178934Y48685549D02*
X-25417029Y48685549D01*
X-25417029Y48685549D02*
X-25607505Y48733168D01*
X-25607505Y48733168D02*
X-25702743Y48780787D01*
X-25702743Y48780787D02*
X-25750362Y48828406D01*
X-25750362Y48828406D02*
X-25797981Y48923644D01*
X-24797981Y50447454D02*
X-25464648Y50447454D01*
X-25369410Y50447454D02*
X-25417029Y50495073D01*
X-25417029Y50495073D02*
X-25464648Y50590311D01*
X-25464648Y50590311D02*
X-25464648Y50733168D01*
X-25464648Y50733168D02*
X-25417029Y50828406D01*
X-25417029Y50828406D02*
X-25321791Y50876025D01*
X-25321791Y50876025D02*
X-24797981Y50876025D01*
X-25321791Y50876025D02*
X-25417029Y50923644D01*
X-25417029Y50923644D02*
X-25464648Y51018882D01*
X-25464648Y51018882D02*
X-25464648Y51161739D01*
X-25464648Y51161739D02*
X-25417029Y51256978D01*
X-25417029Y51256978D02*
X-25321791Y51304597D01*
X-25321791Y51304597D02*
X-24797981Y51304597D01*
X-24797981Y51780787D02*
X-25464648Y51780787D01*
X-25369410Y51780787D02*
X-25417029Y51828406D01*
X-25417029Y51828406D02*
X-25464648Y51923644D01*
X-25464648Y51923644D02*
X-25464648Y52066501D01*
X-25464648Y52066501D02*
X-25417029Y52161739D01*
X-25417029Y52161739D02*
X-25321791Y52209358D01*
X-25321791Y52209358D02*
X-24797981Y52209358D01*
X-25321791Y52209358D02*
X-25417029Y52256977D01*
X-25417029Y52256977D02*
X-25464648Y52352215D01*
X-25464648Y52352215D02*
X-25464648Y52495072D01*
X-25464648Y52495072D02*
X-25417029Y52590311D01*
X-25417029Y52590311D02*
X-25321791Y52637930D01*
X-25321791Y52637930D02*
X-24797981Y52637930D01*
D10*
X530500Y96009000D02*
X-24689220Y96009000D01*
X530500Y124000D02*
X-24689220Y124000D01*
X-24102800Y96009000D02*
X-24102800Y124000D01*
X-24102800Y96009000D02*
X-24102800Y124000D01*
X-24102800Y96009000D02*
X-23516379Y94882496D01*
X-24102800Y96009000D02*
X-24689221Y94882496D01*
X-24102800Y124000D02*
X-24689221Y1250504D01*
X-24102800Y124000D02*
X-23516379Y1250504D01*
D11*
X38194429Y-6280189D02*
X38099191Y-6232570D01*
X38099191Y-6232570D02*
X38051572Y-6184951D01*
X38051572Y-6184951D02*
X38003953Y-6089713D01*
X38003953Y-6089713D02*
X38003953Y-6042094D01*
X38003953Y-6042094D02*
X38051572Y-5946856D01*
X38051572Y-5946856D02*
X38099191Y-5899237D01*
X38099191Y-5899237D02*
X38194429Y-5851618D01*
X38194429Y-5851618D02*
X38384905Y-5851618D01*
X38384905Y-5851618D02*
X38480143Y-5899237D01*
X38480143Y-5899237D02*
X38527762Y-5946856D01*
X38527762Y-5946856D02*
X38575381Y-6042094D01*
X38575381Y-6042094D02*
X38575381Y-6089713D01*
X38575381Y-6089713D02*
X38527762Y-6184951D01*
X38527762Y-6184951D02*
X38480143Y-6232570D01*
X38480143Y-6232570D02*
X38384905Y-6280189D01*
X38384905Y-6280189D02*
X38194429Y-6280189D01*
X38194429Y-6280189D02*
X38099191Y-6327808D01*
X38099191Y-6327808D02*
X38051572Y-6375427D01*
X38051572Y-6375427D02*
X38003953Y-6470665D01*
X38003953Y-6470665D02*
X38003953Y-6661141D01*
X38003953Y-6661141D02*
X38051572Y-6756379D01*
X38051572Y-6756379D02*
X38099191Y-6803999D01*
X38099191Y-6803999D02*
X38194429Y-6851618D01*
X38194429Y-6851618D02*
X38384905Y-6851618D01*
X38384905Y-6851618D02*
X38480143Y-6803999D01*
X38480143Y-6803999D02*
X38527762Y-6756379D01*
X38527762Y-6756379D02*
X38575381Y-6661141D01*
X38575381Y-6661141D02*
X38575381Y-6470665D01*
X38575381Y-6470665D02*
X38527762Y-6375427D01*
X38527762Y-6375427D02*
X38480143Y-6327808D01*
X38480143Y-6327808D02*
X38384905Y-6280189D01*
X39480143Y-5851618D02*
X39003953Y-5851618D01*
X39003953Y-5851618D02*
X38956334Y-6327808D01*
X38956334Y-6327808D02*
X39003953Y-6280189D01*
X39003953Y-6280189D02*
X39099191Y-6232570D01*
X39099191Y-6232570D02*
X39337286Y-6232570D01*
X39337286Y-6232570D02*
X39432524Y-6280189D01*
X39432524Y-6280189D02*
X39480143Y-6327808D01*
X39480143Y-6327808D02*
X39527762Y-6423046D01*
X39527762Y-6423046D02*
X39527762Y-6661141D01*
X39527762Y-6661141D02*
X39480143Y-6756379D01*
X39480143Y-6756379D02*
X39432524Y-6803999D01*
X39432524Y-6803999D02*
X39337286Y-6851618D01*
X39337286Y-6851618D02*
X39099191Y-6851618D01*
X39099191Y-6851618D02*
X39003953Y-6803999D01*
X39003953Y-6803999D02*
X38956334Y-6756379D01*
X39956334Y-6756379D02*
X40003953Y-6803999D01*
X40003953Y-6803999D02*
X39956334Y-6851618D01*
X39956334Y-6851618D02*
X39908715Y-6803999D01*
X39908715Y-6803999D02*
X39956334Y-6756379D01*
X39956334Y-6756379D02*
X39956334Y-6851618D01*
X40623000Y-5851618D02*
X40718238Y-5851618D01*
X40718238Y-5851618D02*
X40813476Y-5899237D01*
X40813476Y-5899237D02*
X40861095Y-5946856D01*
X40861095Y-5946856D02*
X40908714Y-6042094D01*
X40908714Y-6042094D02*
X40956333Y-6232570D01*
X40956333Y-6232570D02*
X40956333Y-6470665D01*
X40956333Y-6470665D02*
X40908714Y-6661141D01*
X40908714Y-6661141D02*
X40861095Y-6756379D01*
X40861095Y-6756379D02*
X40813476Y-6803999D01*
X40813476Y-6803999D02*
X40718238Y-6851618D01*
X40718238Y-6851618D02*
X40623000Y-6851618D01*
X40623000Y-6851618D02*
X40527762Y-6803999D01*
X40527762Y-6803999D02*
X40480143Y-6756379D01*
X40480143Y-6756379D02*
X40432524Y-6661141D01*
X40432524Y-6661141D02*
X40384905Y-6470665D01*
X40384905Y-6470665D02*
X40384905Y-6232570D01*
X40384905Y-6232570D02*
X40432524Y-6042094D01*
X40432524Y-6042094D02*
X40480143Y-5946856D01*
X40480143Y-5946856D02*
X40527762Y-5899237D01*
X40527762Y-5899237D02*
X40623000Y-5851618D01*
X41432524Y-6851618D02*
X41623000Y-6851618D01*
X41623000Y-6851618D02*
X41718238Y-6803999D01*
X41718238Y-6803999D02*
X41765857Y-6756379D01*
X41765857Y-6756379D02*
X41861095Y-6613522D01*
X41861095Y-6613522D02*
X41908714Y-6423046D01*
X41908714Y-6423046D02*
X41908714Y-6042094D01*
X41908714Y-6042094D02*
X41861095Y-5946856D01*
X41861095Y-5946856D02*
X41813476Y-5899237D01*
X41813476Y-5899237D02*
X41718238Y-5851618D01*
X41718238Y-5851618D02*
X41527762Y-5851618D01*
X41527762Y-5851618D02*
X41432524Y-5899237D01*
X41432524Y-5899237D02*
X41384905Y-5946856D01*
X41384905Y-5946856D02*
X41337286Y-6042094D01*
X41337286Y-6042094D02*
X41337286Y-6280189D01*
X41337286Y-6280189D02*
X41384905Y-6375427D01*
X41384905Y-6375427D02*
X41432524Y-6423046D01*
X41432524Y-6423046D02*
X41527762Y-6470665D01*
X41527762Y-6470665D02*
X41718238Y-6470665D01*
X41718238Y-6470665D02*
X41813476Y-6423046D01*
X41813476Y-6423046D02*
X41861095Y-6375427D01*
X41861095Y-6375427D02*
X41908714Y-6280189D01*
X42527762Y-5851618D02*
X42623000Y-5851618D01*
X42623000Y-5851618D02*
X42718238Y-5899237D01*
X42718238Y-5899237D02*
X42765857Y-5946856D01*
X42765857Y-5946856D02*
X42813476Y-6042094D01*
X42813476Y-6042094D02*
X42861095Y-6232570D01*
X42861095Y-6232570D02*
X42861095Y-6470665D01*
X42861095Y-6470665D02*
X42813476Y-6661141D01*
X42813476Y-6661141D02*
X42765857Y-6756379D01*
X42765857Y-6756379D02*
X42718238Y-6803999D01*
X42718238Y-6803999D02*
X42623000Y-6851618D01*
X42623000Y-6851618D02*
X42527762Y-6851618D01*
X42527762Y-6851618D02*
X42432524Y-6803999D01*
X42432524Y-6803999D02*
X42384905Y-6756379D01*
X42384905Y-6756379D02*
X42337286Y-6661141D01*
X42337286Y-6661141D02*
X42289667Y-6470665D01*
X42289667Y-6470665D02*
X42289667Y-6232570D01*
X42289667Y-6232570D02*
X42337286Y-6042094D01*
X42337286Y-6042094D02*
X42384905Y-5946856D01*
X42384905Y-5946856D02*
X42432524Y-5899237D01*
X42432524Y-5899237D02*
X42527762Y-5851618D01*
X43480143Y-5851618D02*
X43575381Y-5851618D01*
X43575381Y-5851618D02*
X43670619Y-5899237D01*
X43670619Y-5899237D02*
X43718238Y-5946856D01*
X43718238Y-5946856D02*
X43765857Y-6042094D01*
X43765857Y-6042094D02*
X43813476Y-6232570D01*
X43813476Y-6232570D02*
X43813476Y-6470665D01*
X43813476Y-6470665D02*
X43765857Y-6661141D01*
X43765857Y-6661141D02*
X43718238Y-6756379D01*
X43718238Y-6756379D02*
X43670619Y-6803999D01*
X43670619Y-6803999D02*
X43575381Y-6851618D01*
X43575381Y-6851618D02*
X43480143Y-6851618D01*
X43480143Y-6851618D02*
X43384905Y-6803999D01*
X43384905Y-6803999D02*
X43337286Y-6756379D01*
X43337286Y-6756379D02*
X43289667Y-6661141D01*
X43289667Y-6661141D02*
X43242048Y-6470665D01*
X43242048Y-6470665D02*
X43242048Y-6232570D01*
X43242048Y-6232570D02*
X43289667Y-6042094D01*
X43289667Y-6042094D02*
X43337286Y-5946856D01*
X43337286Y-5946856D02*
X43384905Y-5899237D01*
X43384905Y-5899237D02*
X43480143Y-5851618D01*
X45003953Y-6851618D02*
X45003953Y-6184951D01*
X45003953Y-6280189D02*
X45051572Y-6232570D01*
X45051572Y-6232570D02*
X45146810Y-6184951D01*
X45146810Y-6184951D02*
X45289667Y-6184951D01*
X45289667Y-6184951D02*
X45384905Y-6232570D01*
X45384905Y-6232570D02*
X45432524Y-6327808D01*
X45432524Y-6327808D02*
X45432524Y-6851618D01*
X45432524Y-6327808D02*
X45480143Y-6232570D01*
X45480143Y-6232570D02*
X45575381Y-6184951D01*
X45575381Y-6184951D02*
X45718238Y-6184951D01*
X45718238Y-6184951D02*
X45813477Y-6232570D01*
X45813477Y-6232570D02*
X45861096Y-6327808D01*
X45861096Y-6327808D02*
X45861096Y-6851618D01*
X46337286Y-6851618D02*
X46337286Y-6184951D01*
X46337286Y-6280189D02*
X46384905Y-6232570D01*
X46384905Y-6232570D02*
X46480143Y-6184951D01*
X46480143Y-6184951D02*
X46623000Y-6184951D01*
X46623000Y-6184951D02*
X46718238Y-6232570D01*
X46718238Y-6232570D02*
X46765857Y-6327808D01*
X46765857Y-6327808D02*
X46765857Y-6851618D01*
X46765857Y-6327808D02*
X46813476Y-6232570D01*
X46813476Y-6232570D02*
X46908714Y-6184951D01*
X46908714Y-6184951D02*
X47051571Y-6184951D01*
X47051571Y-6184951D02*
X47146810Y-6232570D01*
X47146810Y-6232570D02*
X47194429Y-6327808D01*
X47194429Y-6327808D02*
X47194429Y-6851618D01*
D10*
X78000Y-376000D02*
X78000Y-8133219D01*
X85168000Y-376000D02*
X85168000Y-8133219D01*
X78000Y-7546799D02*
X85168000Y-7546799D01*
X78000Y-7546799D02*
X85168000Y-7546799D01*
X78000Y-7546799D02*
X1204504Y-6960378D01*
X78000Y-7546799D02*
X1204504Y-8133220D01*
X85168000Y-7546799D02*
X84041496Y-8133220D01*
X85168000Y-7546799D02*
X84041496Y-6960378D01*
D11*
X347499191Y-5625219D02*
X347689667Y-5625219D01*
X347689667Y-5625219D02*
X347784905Y-5577600D01*
X347784905Y-5577600D02*
X347832524Y-5529980D01*
X347832524Y-5529980D02*
X347927762Y-5387123D01*
X347927762Y-5387123D02*
X347975381Y-5196647D01*
X347975381Y-5196647D02*
X347975381Y-4815695D01*
X347975381Y-4815695D02*
X347927762Y-4720457D01*
X347927762Y-4720457D02*
X347880143Y-4672838D01*
X347880143Y-4672838D02*
X347784905Y-4625219D01*
X347784905Y-4625219D02*
X347594429Y-4625219D01*
X347594429Y-4625219D02*
X347499191Y-4672838D01*
X347499191Y-4672838D02*
X347451572Y-4720457D01*
X347451572Y-4720457D02*
X347403953Y-4815695D01*
X347403953Y-4815695D02*
X347403953Y-5053790D01*
X347403953Y-5053790D02*
X347451572Y-5149028D01*
X347451572Y-5149028D02*
X347499191Y-5196647D01*
X347499191Y-5196647D02*
X347594429Y-5244266D01*
X347594429Y-5244266D02*
X347784905Y-5244266D01*
X347784905Y-5244266D02*
X347880143Y-5196647D01*
X347880143Y-5196647D02*
X347927762Y-5149028D01*
X347927762Y-5149028D02*
X347975381Y-5053790D01*
X348594429Y-4625219D02*
X348689667Y-4625219D01*
X348689667Y-4625219D02*
X348784905Y-4672838D01*
X348784905Y-4672838D02*
X348832524Y-4720457D01*
X348832524Y-4720457D02*
X348880143Y-4815695D01*
X348880143Y-4815695D02*
X348927762Y-5006171D01*
X348927762Y-5006171D02*
X348927762Y-5244266D01*
X348927762Y-5244266D02*
X348880143Y-5434742D01*
X348880143Y-5434742D02*
X348832524Y-5529980D01*
X348832524Y-5529980D02*
X348784905Y-5577600D01*
X348784905Y-5577600D02*
X348689667Y-5625219D01*
X348689667Y-5625219D02*
X348594429Y-5625219D01*
X348594429Y-5625219D02*
X348499191Y-5577600D01*
X348499191Y-5577600D02*
X348451572Y-5529980D01*
X348451572Y-5529980D02*
X348403953Y-5434742D01*
X348403953Y-5434742D02*
X348356334Y-5244266D01*
X348356334Y-5244266D02*
X348356334Y-5006171D01*
X348356334Y-5006171D02*
X348403953Y-4815695D01*
X348403953Y-4815695D02*
X348451572Y-4720457D01*
X348451572Y-4720457D02*
X348499191Y-4672838D01*
X348499191Y-4672838D02*
X348594429Y-4625219D01*
X349356334Y-5529980D02*
X349403953Y-5577600D01*
X349403953Y-5577600D02*
X349356334Y-5625219D01*
X349356334Y-5625219D02*
X349308715Y-5577600D01*
X349308715Y-5577600D02*
X349356334Y-5529980D01*
X349356334Y-5529980D02*
X349356334Y-5625219D01*
X350356333Y-5625219D02*
X349784905Y-5625219D01*
X350070619Y-5625219D02*
X350070619Y-4625219D01*
X350070619Y-4625219D02*
X349975381Y-4768076D01*
X349975381Y-4768076D02*
X349880143Y-4863314D01*
X349880143Y-4863314D02*
X349784905Y-4910933D01*
X350689667Y-4625219D02*
X351356333Y-4625219D01*
X351356333Y-4625219D02*
X350927762Y-5625219D01*
X351927762Y-4625219D02*
X352023000Y-4625219D01*
X352023000Y-4625219D02*
X352118238Y-4672838D01*
X352118238Y-4672838D02*
X352165857Y-4720457D01*
X352165857Y-4720457D02*
X352213476Y-4815695D01*
X352213476Y-4815695D02*
X352261095Y-5006171D01*
X352261095Y-5006171D02*
X352261095Y-5244266D01*
X352261095Y-5244266D02*
X352213476Y-5434742D01*
X352213476Y-5434742D02*
X352165857Y-5529980D01*
X352165857Y-5529980D02*
X352118238Y-5577600D01*
X352118238Y-5577600D02*
X352023000Y-5625219D01*
X352023000Y-5625219D02*
X351927762Y-5625219D01*
X351927762Y-5625219D02*
X351832524Y-5577600D01*
X351832524Y-5577600D02*
X351784905Y-5529980D01*
X351784905Y-5529980D02*
X351737286Y-5434742D01*
X351737286Y-5434742D02*
X351689667Y-5244266D01*
X351689667Y-5244266D02*
X351689667Y-5006171D01*
X351689667Y-5006171D02*
X351737286Y-4815695D01*
X351737286Y-4815695D02*
X351784905Y-4720457D01*
X351784905Y-4720457D02*
X351832524Y-4672838D01*
X351832524Y-4672838D02*
X351927762Y-4625219D01*
X352880143Y-4625219D02*
X352975381Y-4625219D01*
X352975381Y-4625219D02*
X353070619Y-4672838D01*
X353070619Y-4672838D02*
X353118238Y-4720457D01*
X353118238Y-4720457D02*
X353165857Y-4815695D01*
X353165857Y-4815695D02*
X353213476Y-5006171D01*
X353213476Y-5006171D02*
X353213476Y-5244266D01*
X353213476Y-5244266D02*
X353165857Y-5434742D01*
X353165857Y-5434742D02*
X353118238Y-5529980D01*
X353118238Y-5529980D02*
X353070619Y-5577600D01*
X353070619Y-5577600D02*
X352975381Y-5625219D01*
X352975381Y-5625219D02*
X352880143Y-5625219D01*
X352880143Y-5625219D02*
X352784905Y-5577600D01*
X352784905Y-5577600D02*
X352737286Y-5529980D01*
X352737286Y-5529980D02*
X352689667Y-5434742D01*
X352689667Y-5434742D02*
X352642048Y-5244266D01*
X352642048Y-5244266D02*
X352642048Y-5006171D01*
X352642048Y-5006171D02*
X352689667Y-4815695D01*
X352689667Y-4815695D02*
X352737286Y-4720457D01*
X352737286Y-4720457D02*
X352784905Y-4672838D01*
X352784905Y-4672838D02*
X352880143Y-4625219D01*
X354403953Y-5625219D02*
X354403953Y-4958552D01*
X354403953Y-5053790D02*
X354451572Y-5006171D01*
X354451572Y-5006171D02*
X354546810Y-4958552D01*
X354546810Y-4958552D02*
X354689667Y-4958552D01*
X354689667Y-4958552D02*
X354784905Y-5006171D01*
X354784905Y-5006171D02*
X354832524Y-5101409D01*
X354832524Y-5101409D02*
X354832524Y-5625219D01*
X354832524Y-5101409D02*
X354880143Y-5006171D01*
X354880143Y-5006171D02*
X354975381Y-4958552D01*
X354975381Y-4958552D02*
X355118238Y-4958552D01*
X355118238Y-4958552D02*
X355213477Y-5006171D01*
X355213477Y-5006171D02*
X355261096Y-5101409D01*
X355261096Y-5101409D02*
X355261096Y-5625219D01*
X355737286Y-5625219D02*
X355737286Y-4958552D01*
X355737286Y-5053790D02*
X355784905Y-5006171D01*
X355784905Y-5006171D02*
X355880143Y-4958552D01*
X355880143Y-4958552D02*
X356023000Y-4958552D01*
X356023000Y-4958552D02*
X356118238Y-5006171D01*
X356118238Y-5006171D02*
X356165857Y-5101409D01*
X356165857Y-5101409D02*
X356165857Y-5625219D01*
X356165857Y-5101409D02*
X356213476Y-5006171D01*
X356213476Y-5006171D02*
X356308714Y-4958552D01*
X356308714Y-4958552D02*
X356451571Y-4958552D01*
X356451571Y-4958552D02*
X356546810Y-5006171D01*
X356546810Y-5006171D02*
X356594429Y-5101409D01*
X356594429Y-5101409D02*
X356594429Y-5625219D01*
D10*
X306938000Y3936500D02*
X306938000Y-6906820D01*
X397108000Y3936500D02*
X397108000Y-6906820D01*
X306938000Y-6320400D02*
X397108000Y-6320400D01*
X306938000Y-6320400D02*
X397108000Y-6320400D01*
X306938000Y-6320400D02*
X308064504Y-5733979D01*
X306938000Y-6320400D02*
X308064504Y-6906821D01*
X397108000Y-6320400D02*
X395981496Y-6906821D01*
X397108000Y-6320400D02*
X395981496Y-5733979D01*
D11*
X307430619Y105182210D02*
X307335381Y105229829D01*
X307335381Y105229829D02*
X307287762Y105277448D01*
X307287762Y105277448D02*
X307240143Y105372686D01*
X307240143Y105372686D02*
X307240143Y105420305D01*
X307240143Y105420305D02*
X307287762Y105515543D01*
X307287762Y105515543D02*
X307335381Y105563162D01*
X307335381Y105563162D02*
X307430619Y105610781D01*
X307430619Y105610781D02*
X307621095Y105610781D01*
X307621095Y105610781D02*
X307716333Y105563162D01*
X307716333Y105563162D02*
X307763952Y105515543D01*
X307763952Y105515543D02*
X307811571Y105420305D01*
X307811571Y105420305D02*
X307811571Y105372686D01*
X307811571Y105372686D02*
X307763952Y105277448D01*
X307763952Y105277448D02*
X307716333Y105229829D01*
X307716333Y105229829D02*
X307621095Y105182210D01*
X307621095Y105182210D02*
X307430619Y105182210D01*
X307430619Y105182210D02*
X307335381Y105134591D01*
X307335381Y105134591D02*
X307287762Y105086972D01*
X307287762Y105086972D02*
X307240143Y104991734D01*
X307240143Y104991734D02*
X307240143Y104801258D01*
X307240143Y104801258D02*
X307287762Y104706020D01*
X307287762Y104706020D02*
X307335381Y104658400D01*
X307335381Y104658400D02*
X307430619Y104610781D01*
X307430619Y104610781D02*
X307621095Y104610781D01*
X307621095Y104610781D02*
X307716333Y104658400D01*
X307716333Y104658400D02*
X307763952Y104706020D01*
X307763952Y104706020D02*
X307811571Y104801258D01*
X307811571Y104801258D02*
X307811571Y104991734D01*
X307811571Y104991734D02*
X307763952Y105086972D01*
X307763952Y105086972D02*
X307716333Y105134591D01*
X307716333Y105134591D02*
X307621095Y105182210D01*
X308240143Y104706020D02*
X308287762Y104658400D01*
X308287762Y104658400D02*
X308240143Y104610781D01*
X308240143Y104610781D02*
X308192524Y104658400D01*
X308192524Y104658400D02*
X308240143Y104706020D01*
X308240143Y104706020D02*
X308240143Y104610781D01*
X308859190Y105182210D02*
X308763952Y105229829D01*
X308763952Y105229829D02*
X308716333Y105277448D01*
X308716333Y105277448D02*
X308668714Y105372686D01*
X308668714Y105372686D02*
X308668714Y105420305D01*
X308668714Y105420305D02*
X308716333Y105515543D01*
X308716333Y105515543D02*
X308763952Y105563162D01*
X308763952Y105563162D02*
X308859190Y105610781D01*
X308859190Y105610781D02*
X309049666Y105610781D01*
X309049666Y105610781D02*
X309144904Y105563162D01*
X309144904Y105563162D02*
X309192523Y105515543D01*
X309192523Y105515543D02*
X309240142Y105420305D01*
X309240142Y105420305D02*
X309240142Y105372686D01*
X309240142Y105372686D02*
X309192523Y105277448D01*
X309192523Y105277448D02*
X309144904Y105229829D01*
X309144904Y105229829D02*
X309049666Y105182210D01*
X309049666Y105182210D02*
X308859190Y105182210D01*
X308859190Y105182210D02*
X308763952Y105134591D01*
X308763952Y105134591D02*
X308716333Y105086972D01*
X308716333Y105086972D02*
X308668714Y104991734D01*
X308668714Y104991734D02*
X308668714Y104801258D01*
X308668714Y104801258D02*
X308716333Y104706020D01*
X308716333Y104706020D02*
X308763952Y104658400D01*
X308763952Y104658400D02*
X308859190Y104610781D01*
X308859190Y104610781D02*
X309049666Y104610781D01*
X309049666Y104610781D02*
X309144904Y104658400D01*
X309144904Y104658400D02*
X309192523Y104706020D01*
X309192523Y104706020D02*
X309240142Y104801258D01*
X309240142Y104801258D02*
X309240142Y104991734D01*
X309240142Y104991734D02*
X309192523Y105086972D01*
X309192523Y105086972D02*
X309144904Y105134591D01*
X309144904Y105134591D02*
X309049666Y105182210D01*
X309716333Y104610781D02*
X309906809Y104610781D01*
X309906809Y104610781D02*
X310002047Y104658400D01*
X310002047Y104658400D02*
X310049666Y104706020D01*
X310049666Y104706020D02*
X310144904Y104848877D01*
X310144904Y104848877D02*
X310192523Y105039353D01*
X310192523Y105039353D02*
X310192523Y105420305D01*
X310192523Y105420305D02*
X310144904Y105515543D01*
X310144904Y105515543D02*
X310097285Y105563162D01*
X310097285Y105563162D02*
X310002047Y105610781D01*
X310002047Y105610781D02*
X309811571Y105610781D01*
X309811571Y105610781D02*
X309716333Y105563162D01*
X309716333Y105563162D02*
X309668714Y105515543D01*
X309668714Y105515543D02*
X309621095Y105420305D01*
X309621095Y105420305D02*
X309621095Y105182210D01*
X309621095Y105182210D02*
X309668714Y105086972D01*
X309668714Y105086972D02*
X309716333Y105039353D01*
X309716333Y105039353D02*
X309811571Y104991734D01*
X309811571Y104991734D02*
X310002047Y104991734D01*
X310002047Y104991734D02*
X310097285Y105039353D01*
X310097285Y105039353D02*
X310144904Y105086972D01*
X310144904Y105086972D02*
X310192523Y105182210D01*
X310811571Y105610781D02*
X310906809Y105610781D01*
X310906809Y105610781D02*
X311002047Y105563162D01*
X311002047Y105563162D02*
X311049666Y105515543D01*
X311049666Y105515543D02*
X311097285Y105420305D01*
X311097285Y105420305D02*
X311144904Y105229829D01*
X311144904Y105229829D02*
X311144904Y104991734D01*
X311144904Y104991734D02*
X311097285Y104801258D01*
X311097285Y104801258D02*
X311049666Y104706020D01*
X311049666Y104706020D02*
X311002047Y104658400D01*
X311002047Y104658400D02*
X310906809Y104610781D01*
X310906809Y104610781D02*
X310811571Y104610781D01*
X310811571Y104610781D02*
X310716333Y104658400D01*
X310716333Y104658400D02*
X310668714Y104706020D01*
X310668714Y104706020D02*
X310621095Y104801258D01*
X310621095Y104801258D02*
X310573476Y104991734D01*
X310573476Y104991734D02*
X310573476Y105229829D01*
X310573476Y105229829D02*
X310621095Y105420305D01*
X310621095Y105420305D02*
X310668714Y105515543D01*
X310668714Y105515543D02*
X310716333Y105563162D01*
X310716333Y105563162D02*
X310811571Y105610781D01*
X311763952Y105610781D02*
X311859190Y105610781D01*
X311859190Y105610781D02*
X311954428Y105563162D01*
X311954428Y105563162D02*
X312002047Y105515543D01*
X312002047Y105515543D02*
X312049666Y105420305D01*
X312049666Y105420305D02*
X312097285Y105229829D01*
X312097285Y105229829D02*
X312097285Y104991734D01*
X312097285Y104991734D02*
X312049666Y104801258D01*
X312049666Y104801258D02*
X312002047Y104706020D01*
X312002047Y104706020D02*
X311954428Y104658400D01*
X311954428Y104658400D02*
X311859190Y104610781D01*
X311859190Y104610781D02*
X311763952Y104610781D01*
X311763952Y104610781D02*
X311668714Y104658400D01*
X311668714Y104658400D02*
X311621095Y104706020D01*
X311621095Y104706020D02*
X311573476Y104801258D01*
X311573476Y104801258D02*
X311525857Y104991734D01*
X311525857Y104991734D02*
X311525857Y105229829D01*
X311525857Y105229829D02*
X311573476Y105420305D01*
X311573476Y105420305D02*
X311621095Y105515543D01*
X311621095Y105515543D02*
X311668714Y105563162D01*
X311668714Y105563162D02*
X311763952Y105610781D01*
X313287762Y104610781D02*
X313287762Y105277448D01*
X313287762Y105182210D02*
X313335381Y105229829D01*
X313335381Y105229829D02*
X313430619Y105277448D01*
X313430619Y105277448D02*
X313573476Y105277448D01*
X313573476Y105277448D02*
X313668714Y105229829D01*
X313668714Y105229829D02*
X313716333Y105134591D01*
X313716333Y105134591D02*
X313716333Y104610781D01*
X313716333Y105134591D02*
X313763952Y105229829D01*
X313763952Y105229829D02*
X313859190Y105277448D01*
X313859190Y105277448D02*
X314002047Y105277448D01*
X314002047Y105277448D02*
X314097286Y105229829D01*
X314097286Y105229829D02*
X314144905Y105134591D01*
X314144905Y105134591D02*
X314144905Y104610781D01*
X314621095Y104610781D02*
X314621095Y105277448D01*
X314621095Y105182210D02*
X314668714Y105229829D01*
X314668714Y105229829D02*
X314763952Y105277448D01*
X314763952Y105277448D02*
X314906809Y105277448D01*
X314906809Y105277448D02*
X315002047Y105229829D01*
X315002047Y105229829D02*
X315049666Y105134591D01*
X315049666Y105134591D02*
X315049666Y104610781D01*
X315049666Y105134591D02*
X315097285Y105229829D01*
X315097285Y105229829D02*
X315192523Y105277448D01*
X315192523Y105277448D02*
X315335380Y105277448D01*
X315335380Y105277448D02*
X315430619Y105229829D01*
X315430619Y105229829D02*
X315478238Y105134591D01*
X315478238Y105134591D02*
X315478238Y104610781D01*
D10*
X315828000Y94789000D02*
X315828000Y104502020D01*
X306938000Y94789000D02*
X306938000Y104502020D01*
X315828000Y103915600D02*
X306938000Y103915600D01*
X315828000Y103915600D02*
X306938000Y103915600D01*
X315828000Y103915600D02*
X314701496Y103329179D01*
X315828000Y103915600D02*
X314701496Y104502021D01*
X306938000Y103915600D02*
X308064504Y104502021D01*
X306938000Y103915600D02*
X308064504Y103329179D01*
D11*
X-21622981Y41002692D02*
X-21622981Y41193168D01*
X-21622981Y41193168D02*
X-21670600Y41288406D01*
X-21670600Y41288406D02*
X-21718220Y41336025D01*
X-21718220Y41336025D02*
X-21861077Y41431263D01*
X-21861077Y41431263D02*
X-22051553Y41478882D01*
X-22051553Y41478882D02*
X-22432505Y41478882D01*
X-22432505Y41478882D02*
X-22527743Y41431263D01*
X-22527743Y41431263D02*
X-22575362Y41383644D01*
X-22575362Y41383644D02*
X-22622981Y41288406D01*
X-22622981Y41288406D02*
X-22622981Y41097930D01*
X-22622981Y41097930D02*
X-22575362Y41002692D01*
X-22575362Y41002692D02*
X-22527743Y40955073D01*
X-22527743Y40955073D02*
X-22432505Y40907454D01*
X-22432505Y40907454D02*
X-22194410Y40907454D01*
X-22194410Y40907454D02*
X-22099172Y40955073D01*
X-22099172Y40955073D02*
X-22051553Y41002692D01*
X-22051553Y41002692D02*
X-22003934Y41097930D01*
X-22003934Y41097930D02*
X-22003934Y41288406D01*
X-22003934Y41288406D02*
X-22051553Y41383644D01*
X-22051553Y41383644D02*
X-22099172Y41431263D01*
X-22099172Y41431263D02*
X-22194410Y41478882D01*
X-22622981Y42097930D02*
X-22622981Y42193168D01*
X-22622981Y42193168D02*
X-22575362Y42288406D01*
X-22575362Y42288406D02*
X-22527743Y42336025D01*
X-22527743Y42336025D02*
X-22432505Y42383644D01*
X-22432505Y42383644D02*
X-22242029Y42431263D01*
X-22242029Y42431263D02*
X-22003934Y42431263D01*
X-22003934Y42431263D02*
X-21813458Y42383644D01*
X-21813458Y42383644D02*
X-21718220Y42336025D01*
X-21718220Y42336025D02*
X-21670600Y42288406D01*
X-21670600Y42288406D02*
X-21622981Y42193168D01*
X-21622981Y42193168D02*
X-21622981Y42097930D01*
X-21622981Y42097930D02*
X-21670600Y42002692D01*
X-21670600Y42002692D02*
X-21718220Y41955073D01*
X-21718220Y41955073D02*
X-21813458Y41907454D01*
X-21813458Y41907454D02*
X-22003934Y41859835D01*
X-22003934Y41859835D02*
X-22242029Y41859835D01*
X-22242029Y41859835D02*
X-22432505Y41907454D01*
X-22432505Y41907454D02*
X-22527743Y41955073D01*
X-22527743Y41955073D02*
X-22575362Y42002692D01*
X-22575362Y42002692D02*
X-22622981Y42097930D01*
X-21718220Y42859835D02*
X-21670600Y42907454D01*
X-21670600Y42907454D02*
X-21622981Y42859835D01*
X-21622981Y42859835D02*
X-21670600Y42812216D01*
X-21670600Y42812216D02*
X-21718220Y42859835D01*
X-21718220Y42859835D02*
X-21622981Y42859835D01*
X-22194410Y43478882D02*
X-22242029Y43383644D01*
X-22242029Y43383644D02*
X-22289648Y43336025D01*
X-22289648Y43336025D02*
X-22384886Y43288406D01*
X-22384886Y43288406D02*
X-22432505Y43288406D01*
X-22432505Y43288406D02*
X-22527743Y43336025D01*
X-22527743Y43336025D02*
X-22575362Y43383644D01*
X-22575362Y43383644D02*
X-22622981Y43478882D01*
X-22622981Y43478882D02*
X-22622981Y43669358D01*
X-22622981Y43669358D02*
X-22575362Y43764596D01*
X-22575362Y43764596D02*
X-22527743Y43812215D01*
X-22527743Y43812215D02*
X-22432505Y43859834D01*
X-22432505Y43859834D02*
X-22384886Y43859834D01*
X-22384886Y43859834D02*
X-22289648Y43812215D01*
X-22289648Y43812215D02*
X-22242029Y43764596D01*
X-22242029Y43764596D02*
X-22194410Y43669358D01*
X-22194410Y43669358D02*
X-22194410Y43478882D01*
X-22194410Y43478882D02*
X-22146791Y43383644D01*
X-22146791Y43383644D02*
X-22099172Y43336025D01*
X-22099172Y43336025D02*
X-22003934Y43288406D01*
X-22003934Y43288406D02*
X-21813458Y43288406D01*
X-21813458Y43288406D02*
X-21718220Y43336025D01*
X-21718220Y43336025D02*
X-21670600Y43383644D01*
X-21670600Y43383644D02*
X-21622981Y43478882D01*
X-21622981Y43478882D02*
X-21622981Y43669358D01*
X-21622981Y43669358D02*
X-21670600Y43764596D01*
X-21670600Y43764596D02*
X-21718220Y43812215D01*
X-21718220Y43812215D02*
X-21813458Y43859834D01*
X-21813458Y43859834D02*
X-22003934Y43859834D01*
X-22003934Y43859834D02*
X-22099172Y43812215D01*
X-22099172Y43812215D02*
X-22146791Y43764596D01*
X-22146791Y43764596D02*
X-22194410Y43669358D01*
X-22622981Y44478882D02*
X-22622981Y44574120D01*
X-22622981Y44574120D02*
X-22575362Y44669358D01*
X-22575362Y44669358D02*
X-22527743Y44716977D01*
X-22527743Y44716977D02*
X-22432505Y44764596D01*
X-22432505Y44764596D02*
X-22242029Y44812215D01*
X-22242029Y44812215D02*
X-22003934Y44812215D01*
X-22003934Y44812215D02*
X-21813458Y44764596D01*
X-21813458Y44764596D02*
X-21718220Y44716977D01*
X-21718220Y44716977D02*
X-21670600Y44669358D01*
X-21670600Y44669358D02*
X-21622981Y44574120D01*
X-21622981Y44574120D02*
X-21622981Y44478882D01*
X-21622981Y44478882D02*
X-21670600Y44383644D01*
X-21670600Y44383644D02*
X-21718220Y44336025D01*
X-21718220Y44336025D02*
X-21813458Y44288406D01*
X-21813458Y44288406D02*
X-22003934Y44240787D01*
X-22003934Y44240787D02*
X-22242029Y44240787D01*
X-22242029Y44240787D02*
X-22432505Y44288406D01*
X-22432505Y44288406D02*
X-22527743Y44336025D01*
X-22527743Y44336025D02*
X-22575362Y44383644D01*
X-22575362Y44383644D02*
X-22622981Y44478882D01*
X-22622981Y45716977D02*
X-22622981Y45240787D01*
X-22622981Y45240787D02*
X-22146791Y45193168D01*
X-22146791Y45193168D02*
X-22194410Y45240787D01*
X-22194410Y45240787D02*
X-22242029Y45336025D01*
X-22242029Y45336025D02*
X-22242029Y45574120D01*
X-22242029Y45574120D02*
X-22194410Y45669358D01*
X-22194410Y45669358D02*
X-22146791Y45716977D01*
X-22146791Y45716977D02*
X-22051553Y45764596D01*
X-22051553Y45764596D02*
X-21813458Y45764596D01*
X-21813458Y45764596D02*
X-21718220Y45716977D01*
X-21718220Y45716977D02*
X-21670600Y45669358D01*
X-21670600Y45669358D02*
X-21622981Y45574120D01*
X-21622981Y45574120D02*
X-21622981Y45336025D01*
X-21622981Y45336025D02*
X-21670600Y45240787D01*
X-21670600Y45240787D02*
X-21718220Y45193168D01*
X-22622981Y46383644D02*
X-22622981Y46478882D01*
X-22622981Y46478882D02*
X-22575362Y46574120D01*
X-22575362Y46574120D02*
X-22527743Y46621739D01*
X-22527743Y46621739D02*
X-22432505Y46669358D01*
X-22432505Y46669358D02*
X-22242029Y46716977D01*
X-22242029Y46716977D02*
X-22003934Y46716977D01*
X-22003934Y46716977D02*
X-21813458Y46669358D01*
X-21813458Y46669358D02*
X-21718220Y46621739D01*
X-21718220Y46621739D02*
X-21670600Y46574120D01*
X-21670600Y46574120D02*
X-21622981Y46478882D01*
X-21622981Y46478882D02*
X-21622981Y46383644D01*
X-21622981Y46383644D02*
X-21670600Y46288406D01*
X-21670600Y46288406D02*
X-21718220Y46240787D01*
X-21718220Y46240787D02*
X-21813458Y46193168D01*
X-21813458Y46193168D02*
X-22003934Y46145549D01*
X-22003934Y46145549D02*
X-22242029Y46145549D01*
X-22242029Y46145549D02*
X-22432505Y46193168D01*
X-22432505Y46193168D02*
X-22527743Y46240787D01*
X-22527743Y46240787D02*
X-22575362Y46288406D01*
X-22575362Y46288406D02*
X-22622981Y46383644D01*
X-21622981Y47907454D02*
X-22289648Y47907454D01*
X-22194410Y47907454D02*
X-22242029Y47955073D01*
X-22242029Y47955073D02*
X-22289648Y48050311D01*
X-22289648Y48050311D02*
X-22289648Y48193168D01*
X-22289648Y48193168D02*
X-22242029Y48288406D01*
X-22242029Y48288406D02*
X-22146791Y48336025D01*
X-22146791Y48336025D02*
X-21622981Y48336025D01*
X-22146791Y48336025D02*
X-22242029Y48383644D01*
X-22242029Y48383644D02*
X-22289648Y48478882D01*
X-22289648Y48478882D02*
X-22289648Y48621739D01*
X-22289648Y48621739D02*
X-22242029Y48716978D01*
X-22242029Y48716978D02*
X-22146791Y48764597D01*
X-22146791Y48764597D02*
X-21622981Y48764597D01*
X-21622981Y49240787D02*
X-22289648Y49240787D01*
X-22194410Y49240787D02*
X-22242029Y49288406D01*
X-22242029Y49288406D02*
X-22289648Y49383644D01*
X-22289648Y49383644D02*
X-22289648Y49526501D01*
X-22289648Y49526501D02*
X-22242029Y49621739D01*
X-22242029Y49621739D02*
X-22146791Y49669358D01*
X-22146791Y49669358D02*
X-21622981Y49669358D01*
X-22146791Y49669358D02*
X-22242029Y49716977D01*
X-22242029Y49716977D02*
X-22289648Y49812215D01*
X-22289648Y49812215D02*
X-22289648Y49955072D01*
X-22289648Y49955072D02*
X-22242029Y50050311D01*
X-22242029Y50050311D02*
X-22146791Y50097930D01*
X-22146791Y50097930D02*
X-21622981Y50097930D01*
D10*
X-422000Y124000D02*
X-21514220Y124000D01*
X-422000Y90929000D02*
X-21514220Y90929000D01*
X-20927800Y124000D02*
X-20927800Y90929000D01*
X-20927800Y124000D02*
X-20927800Y90929000D01*
X-20927800Y124000D02*
X-21514221Y1250504D01*
X-20927800Y124000D02*
X-20341379Y1250504D01*
X-20927800Y90929000D02*
X-20341379Y89802496D01*
X-20927800Y90929000D02*
X-21514221Y89802496D01*
D11*
X305858952Y-713619D02*
X305382762Y-713619D01*
X305382762Y-713619D02*
X305335143Y-1189809D01*
X305335143Y-1189809D02*
X305382762Y-1142190D01*
X305382762Y-1142190D02*
X305478000Y-1094571D01*
X305478000Y-1094571D02*
X305716095Y-1094571D01*
X305716095Y-1094571D02*
X305811333Y-1142190D01*
X305811333Y-1142190D02*
X305858952Y-1189809D01*
X305858952Y-1189809D02*
X305906571Y-1285047D01*
X305906571Y-1285047D02*
X305906571Y-1523142D01*
X305906571Y-1523142D02*
X305858952Y-1618380D01*
X305858952Y-1618380D02*
X305811333Y-1666000D01*
X305811333Y-1666000D02*
X305716095Y-1713619D01*
X305716095Y-1713619D02*
X305478000Y-1713619D01*
X305478000Y-1713619D02*
X305382762Y-1666000D01*
X305382762Y-1666000D02*
X305335143Y-1618380D01*
X306335143Y-1618380D02*
X306382762Y-1666000D01*
X306382762Y-1666000D02*
X306335143Y-1713619D01*
X306335143Y-1713619D02*
X306287524Y-1666000D01*
X306287524Y-1666000D02*
X306335143Y-1618380D01*
X306335143Y-1618380D02*
X306335143Y-1713619D01*
X307001809Y-713619D02*
X307097047Y-713619D01*
X307097047Y-713619D02*
X307192285Y-761238D01*
X307192285Y-761238D02*
X307239904Y-808857D01*
X307239904Y-808857D02*
X307287523Y-904095D01*
X307287523Y-904095D02*
X307335142Y-1094571D01*
X307335142Y-1094571D02*
X307335142Y-1332666D01*
X307335142Y-1332666D02*
X307287523Y-1523142D01*
X307287523Y-1523142D02*
X307239904Y-1618380D01*
X307239904Y-1618380D02*
X307192285Y-1666000D01*
X307192285Y-1666000D02*
X307097047Y-1713619D01*
X307097047Y-1713619D02*
X307001809Y-1713619D01*
X307001809Y-1713619D02*
X306906571Y-1666000D01*
X306906571Y-1666000D02*
X306858952Y-1618380D01*
X306858952Y-1618380D02*
X306811333Y-1523142D01*
X306811333Y-1523142D02*
X306763714Y-1332666D01*
X306763714Y-1332666D02*
X306763714Y-1094571D01*
X306763714Y-1094571D02*
X306811333Y-904095D01*
X306811333Y-904095D02*
X306858952Y-808857D01*
X306858952Y-808857D02*
X306906571Y-761238D01*
X306906571Y-761238D02*
X307001809Y-713619D01*
X307906571Y-1142190D02*
X307811333Y-1094571D01*
X307811333Y-1094571D02*
X307763714Y-1046952D01*
X307763714Y-1046952D02*
X307716095Y-951714D01*
X307716095Y-951714D02*
X307716095Y-904095D01*
X307716095Y-904095D02*
X307763714Y-808857D01*
X307763714Y-808857D02*
X307811333Y-761238D01*
X307811333Y-761238D02*
X307906571Y-713619D01*
X307906571Y-713619D02*
X308097047Y-713619D01*
X308097047Y-713619D02*
X308192285Y-761238D01*
X308192285Y-761238D02*
X308239904Y-808857D01*
X308239904Y-808857D02*
X308287523Y-904095D01*
X308287523Y-904095D02*
X308287523Y-951714D01*
X308287523Y-951714D02*
X308239904Y-1046952D01*
X308239904Y-1046952D02*
X308192285Y-1094571D01*
X308192285Y-1094571D02*
X308097047Y-1142190D01*
X308097047Y-1142190D02*
X307906571Y-1142190D01*
X307906571Y-1142190D02*
X307811333Y-1189809D01*
X307811333Y-1189809D02*
X307763714Y-1237428D01*
X307763714Y-1237428D02*
X307716095Y-1332666D01*
X307716095Y-1332666D02*
X307716095Y-1523142D01*
X307716095Y-1523142D02*
X307763714Y-1618380D01*
X307763714Y-1618380D02*
X307811333Y-1666000D01*
X307811333Y-1666000D02*
X307906571Y-1713619D01*
X307906571Y-1713619D02*
X308097047Y-1713619D01*
X308097047Y-1713619D02*
X308192285Y-1666000D01*
X308192285Y-1666000D02*
X308239904Y-1618380D01*
X308239904Y-1618380D02*
X308287523Y-1523142D01*
X308287523Y-1523142D02*
X308287523Y-1332666D01*
X308287523Y-1332666D02*
X308239904Y-1237428D01*
X308239904Y-1237428D02*
X308192285Y-1189809D01*
X308192285Y-1189809D02*
X308097047Y-1142190D01*
X308906571Y-713619D02*
X309001809Y-713619D01*
X309001809Y-713619D02*
X309097047Y-761238D01*
X309097047Y-761238D02*
X309144666Y-808857D01*
X309144666Y-808857D02*
X309192285Y-904095D01*
X309192285Y-904095D02*
X309239904Y-1094571D01*
X309239904Y-1094571D02*
X309239904Y-1332666D01*
X309239904Y-1332666D02*
X309192285Y-1523142D01*
X309192285Y-1523142D02*
X309144666Y-1618380D01*
X309144666Y-1618380D02*
X309097047Y-1666000D01*
X309097047Y-1666000D02*
X309001809Y-1713619D01*
X309001809Y-1713619D02*
X308906571Y-1713619D01*
X308906571Y-1713619D02*
X308811333Y-1666000D01*
X308811333Y-1666000D02*
X308763714Y-1618380D01*
X308763714Y-1618380D02*
X308716095Y-1523142D01*
X308716095Y-1523142D02*
X308668476Y-1332666D01*
X308668476Y-1332666D02*
X308668476Y-1094571D01*
X308668476Y-1094571D02*
X308716095Y-904095D01*
X308716095Y-904095D02*
X308763714Y-808857D01*
X308763714Y-808857D02*
X308811333Y-761238D01*
X308811333Y-761238D02*
X308906571Y-713619D01*
X309858952Y-713619D02*
X309954190Y-713619D01*
X309954190Y-713619D02*
X310049428Y-761238D01*
X310049428Y-761238D02*
X310097047Y-808857D01*
X310097047Y-808857D02*
X310144666Y-904095D01*
X310144666Y-904095D02*
X310192285Y-1094571D01*
X310192285Y-1094571D02*
X310192285Y-1332666D01*
X310192285Y-1332666D02*
X310144666Y-1523142D01*
X310144666Y-1523142D02*
X310097047Y-1618380D01*
X310097047Y-1618380D02*
X310049428Y-1666000D01*
X310049428Y-1666000D02*
X309954190Y-1713619D01*
X309954190Y-1713619D02*
X309858952Y-1713619D01*
X309858952Y-1713619D02*
X309763714Y-1666000D01*
X309763714Y-1666000D02*
X309716095Y-1618380D01*
X309716095Y-1618380D02*
X309668476Y-1523142D01*
X309668476Y-1523142D02*
X309620857Y-1332666D01*
X309620857Y-1332666D02*
X309620857Y-1094571D01*
X309620857Y-1094571D02*
X309668476Y-904095D01*
X309668476Y-904095D02*
X309716095Y-808857D01*
X309716095Y-808857D02*
X309763714Y-761238D01*
X309763714Y-761238D02*
X309858952Y-713619D01*
X311382762Y-1713619D02*
X311382762Y-1046952D01*
X311382762Y-1142190D02*
X311430381Y-1094571D01*
X311430381Y-1094571D02*
X311525619Y-1046952D01*
X311525619Y-1046952D02*
X311668476Y-1046952D01*
X311668476Y-1046952D02*
X311763714Y-1094571D01*
X311763714Y-1094571D02*
X311811333Y-1189809D01*
X311811333Y-1189809D02*
X311811333Y-1713619D01*
X311811333Y-1189809D02*
X311858952Y-1094571D01*
X311858952Y-1094571D02*
X311954190Y-1046952D01*
X311954190Y-1046952D02*
X312097047Y-1046952D01*
X312097047Y-1046952D02*
X312192286Y-1094571D01*
X312192286Y-1094571D02*
X312239905Y-1189809D01*
X312239905Y-1189809D02*
X312239905Y-1713619D01*
X312716095Y-1713619D02*
X312716095Y-1046952D01*
X312716095Y-1142190D02*
X312763714Y-1094571D01*
X312763714Y-1094571D02*
X312858952Y-1046952D01*
X312858952Y-1046952D02*
X313001809Y-1046952D01*
X313001809Y-1046952D02*
X313097047Y-1094571D01*
X313097047Y-1094571D02*
X313144666Y-1189809D01*
X313144666Y-1189809D02*
X313144666Y-1713619D01*
X313144666Y-1189809D02*
X313192285Y-1094571D01*
X313192285Y-1094571D02*
X313287523Y-1046952D01*
X313287523Y-1046952D02*
X313430380Y-1046952D01*
X313430380Y-1046952D02*
X313525619Y-1094571D01*
X313525619Y-1094571D02*
X313573238Y-1189809D01*
X313573238Y-1189809D02*
X313573238Y-1713619D01*
D10*
X306938000Y2984000D02*
X306938000Y-2995220D01*
X312018000Y2984000D02*
X312018000Y-2995220D01*
X306938000Y-2408800D02*
X312018000Y-2408800D01*
X306938000Y-2408800D02*
X312018000Y-2408800D01*
X306938000Y-2408800D02*
X308064504Y-1822379D01*
X306938000Y-2408800D02*
X308064504Y-2995221D01*
X312018000Y-2408800D02*
X310891496Y-2995221D01*
X312018000Y-2408800D02*
X310891496Y-1822379D01*
D11*
X343784429Y117374210D02*
X343689191Y117421829D01*
X343689191Y117421829D02*
X343641572Y117469448D01*
X343641572Y117469448D02*
X343593953Y117564686D01*
X343593953Y117564686D02*
X343593953Y117612305D01*
X343593953Y117612305D02*
X343641572Y117707543D01*
X343641572Y117707543D02*
X343689191Y117755162D01*
X343689191Y117755162D02*
X343784429Y117802781D01*
X343784429Y117802781D02*
X343974905Y117802781D01*
X343974905Y117802781D02*
X344070143Y117755162D01*
X344070143Y117755162D02*
X344117762Y117707543D01*
X344117762Y117707543D02*
X344165381Y117612305D01*
X344165381Y117612305D02*
X344165381Y117564686D01*
X344165381Y117564686D02*
X344117762Y117469448D01*
X344117762Y117469448D02*
X344070143Y117421829D01*
X344070143Y117421829D02*
X343974905Y117374210D01*
X343974905Y117374210D02*
X343784429Y117374210D01*
X343784429Y117374210D02*
X343689191Y117326591D01*
X343689191Y117326591D02*
X343641572Y117278972D01*
X343641572Y117278972D02*
X343593953Y117183734D01*
X343593953Y117183734D02*
X343593953Y116993258D01*
X343593953Y116993258D02*
X343641572Y116898020D01*
X343641572Y116898020D02*
X343689191Y116850400D01*
X343689191Y116850400D02*
X343784429Y116802781D01*
X343784429Y116802781D02*
X343974905Y116802781D01*
X343974905Y116802781D02*
X344070143Y116850400D01*
X344070143Y116850400D02*
X344117762Y116898020D01*
X344117762Y116898020D02*
X344165381Y116993258D01*
X344165381Y116993258D02*
X344165381Y117183734D01*
X344165381Y117183734D02*
X344117762Y117278972D01*
X344117762Y117278972D02*
X344070143Y117326591D01*
X344070143Y117326591D02*
X343974905Y117374210D01*
X344546334Y117707543D02*
X344593953Y117755162D01*
X344593953Y117755162D02*
X344689191Y117802781D01*
X344689191Y117802781D02*
X344927286Y117802781D01*
X344927286Y117802781D02*
X345022524Y117755162D01*
X345022524Y117755162D02*
X345070143Y117707543D01*
X345070143Y117707543D02*
X345117762Y117612305D01*
X345117762Y117612305D02*
X345117762Y117517067D01*
X345117762Y117517067D02*
X345070143Y117374210D01*
X345070143Y117374210D02*
X344498715Y116802781D01*
X344498715Y116802781D02*
X345117762Y116802781D01*
X345546334Y116898020D02*
X345593953Y116850400D01*
X345593953Y116850400D02*
X345546334Y116802781D01*
X345546334Y116802781D02*
X345498715Y116850400D01*
X345498715Y116850400D02*
X345546334Y116898020D01*
X345546334Y116898020D02*
X345546334Y116802781D01*
X346498714Y117802781D02*
X346022524Y117802781D01*
X346022524Y117802781D02*
X345974905Y117326591D01*
X345974905Y117326591D02*
X346022524Y117374210D01*
X346022524Y117374210D02*
X346117762Y117421829D01*
X346117762Y117421829D02*
X346355857Y117421829D01*
X346355857Y117421829D02*
X346451095Y117374210D01*
X346451095Y117374210D02*
X346498714Y117326591D01*
X346498714Y117326591D02*
X346546333Y117231353D01*
X346546333Y117231353D02*
X346546333Y116993258D01*
X346546333Y116993258D02*
X346498714Y116898020D01*
X346498714Y116898020D02*
X346451095Y116850400D01*
X346451095Y116850400D02*
X346355857Y116802781D01*
X346355857Y116802781D02*
X346117762Y116802781D01*
X346117762Y116802781D02*
X346022524Y116850400D01*
X346022524Y116850400D02*
X345974905Y116898020D01*
X347451095Y117802781D02*
X346974905Y117802781D01*
X346974905Y117802781D02*
X346927286Y117326591D01*
X346927286Y117326591D02*
X346974905Y117374210D01*
X346974905Y117374210D02*
X347070143Y117421829D01*
X347070143Y117421829D02*
X347308238Y117421829D01*
X347308238Y117421829D02*
X347403476Y117374210D01*
X347403476Y117374210D02*
X347451095Y117326591D01*
X347451095Y117326591D02*
X347498714Y117231353D01*
X347498714Y117231353D02*
X347498714Y116993258D01*
X347498714Y116993258D02*
X347451095Y116898020D01*
X347451095Y116898020D02*
X347403476Y116850400D01*
X347403476Y116850400D02*
X347308238Y116802781D01*
X347308238Y116802781D02*
X347070143Y116802781D01*
X347070143Y116802781D02*
X346974905Y116850400D01*
X346974905Y116850400D02*
X346927286Y116898020D01*
X348117762Y117802781D02*
X348213000Y117802781D01*
X348213000Y117802781D02*
X348308238Y117755162D01*
X348308238Y117755162D02*
X348355857Y117707543D01*
X348355857Y117707543D02*
X348403476Y117612305D01*
X348403476Y117612305D02*
X348451095Y117421829D01*
X348451095Y117421829D02*
X348451095Y117183734D01*
X348451095Y117183734D02*
X348403476Y116993258D01*
X348403476Y116993258D02*
X348355857Y116898020D01*
X348355857Y116898020D02*
X348308238Y116850400D01*
X348308238Y116850400D02*
X348213000Y116802781D01*
X348213000Y116802781D02*
X348117762Y116802781D01*
X348117762Y116802781D02*
X348022524Y116850400D01*
X348022524Y116850400D02*
X347974905Y116898020D01*
X347974905Y116898020D02*
X347927286Y116993258D01*
X347927286Y116993258D02*
X347879667Y117183734D01*
X347879667Y117183734D02*
X347879667Y117421829D01*
X347879667Y117421829D02*
X347927286Y117612305D01*
X347927286Y117612305D02*
X347974905Y117707543D01*
X347974905Y117707543D02*
X348022524Y117755162D01*
X348022524Y117755162D02*
X348117762Y117802781D01*
X349070143Y117802781D02*
X349165381Y117802781D01*
X349165381Y117802781D02*
X349260619Y117755162D01*
X349260619Y117755162D02*
X349308238Y117707543D01*
X349308238Y117707543D02*
X349355857Y117612305D01*
X349355857Y117612305D02*
X349403476Y117421829D01*
X349403476Y117421829D02*
X349403476Y117183734D01*
X349403476Y117183734D02*
X349355857Y116993258D01*
X349355857Y116993258D02*
X349308238Y116898020D01*
X349308238Y116898020D02*
X349260619Y116850400D01*
X349260619Y116850400D02*
X349165381Y116802781D01*
X349165381Y116802781D02*
X349070143Y116802781D01*
X349070143Y116802781D02*
X348974905Y116850400D01*
X348974905Y116850400D02*
X348927286Y116898020D01*
X348927286Y116898020D02*
X348879667Y116993258D01*
X348879667Y116993258D02*
X348832048Y117183734D01*
X348832048Y117183734D02*
X348832048Y117421829D01*
X348832048Y117421829D02*
X348879667Y117612305D01*
X348879667Y117612305D02*
X348927286Y117707543D01*
X348927286Y117707543D02*
X348974905Y117755162D01*
X348974905Y117755162D02*
X349070143Y117802781D01*
X350593953Y116802781D02*
X350593953Y117469448D01*
X350593953Y117374210D02*
X350641572Y117421829D01*
X350641572Y117421829D02*
X350736810Y117469448D01*
X350736810Y117469448D02*
X350879667Y117469448D01*
X350879667Y117469448D02*
X350974905Y117421829D01*
X350974905Y117421829D02*
X351022524Y117326591D01*
X351022524Y117326591D02*
X351022524Y116802781D01*
X351022524Y117326591D02*
X351070143Y117421829D01*
X351070143Y117421829D02*
X351165381Y117469448D01*
X351165381Y117469448D02*
X351308238Y117469448D01*
X351308238Y117469448D02*
X351403477Y117421829D01*
X351403477Y117421829D02*
X351451096Y117326591D01*
X351451096Y117326591D02*
X351451096Y116802781D01*
X351927286Y116802781D02*
X351927286Y117469448D01*
X351927286Y117374210D02*
X351974905Y117421829D01*
X351974905Y117421829D02*
X352070143Y117469448D01*
X352070143Y117469448D02*
X352213000Y117469448D01*
X352213000Y117469448D02*
X352308238Y117421829D01*
X352308238Y117421829D02*
X352355857Y117326591D01*
X352355857Y117326591D02*
X352355857Y116802781D01*
X352355857Y117326591D02*
X352403476Y117421829D01*
X352403476Y117421829D02*
X352498714Y117469448D01*
X352498714Y117469448D02*
X352641571Y117469448D01*
X352641571Y117469448D02*
X352736810Y117421829D01*
X352736810Y117421829D02*
X352784429Y117326591D01*
X352784429Y117326591D02*
X352784429Y116802781D01*
D10*
X389488000Y94789000D02*
X389488000Y116694020D01*
X306938000Y94789000D02*
X306938000Y116694020D01*
X389488000Y116107600D02*
X306938000Y116107600D01*
X389488000Y116107600D02*
X306938000Y116107600D01*
X389488000Y116107600D02*
X388361496Y115521179D01*
X389488000Y116107600D02*
X388361496Y116694021D01*
X306938000Y116107600D02*
X308064504Y116694021D01*
X306938000Y116107600D02*
X308064504Y115521179D01*
D11*
X570619Y101822210D02*
X475381Y101869829D01*
X475381Y101869829D02*
X427762Y101917448D01*
X427762Y101917448D02*
X380143Y102012686D01*
X380143Y102012686D02*
X380143Y102060305D01*
X380143Y102060305D02*
X427762Y102155543D01*
X427762Y102155543D02*
X475381Y102203162D01*
X475381Y102203162D02*
X570619Y102250781D01*
X570619Y102250781D02*
X761095Y102250781D01*
X761095Y102250781D02*
X856333Y102203162D01*
X856333Y102203162D02*
X903952Y102155543D01*
X903952Y102155543D02*
X951571Y102060305D01*
X951571Y102060305D02*
X951571Y102012686D01*
X951571Y102012686D02*
X903952Y101917448D01*
X903952Y101917448D02*
X856333Y101869829D01*
X856333Y101869829D02*
X761095Y101822210D01*
X761095Y101822210D02*
X570619Y101822210D01*
X570619Y101822210D02*
X475381Y101774591D01*
X475381Y101774591D02*
X427762Y101726972D01*
X427762Y101726972D02*
X380143Y101631734D01*
X380143Y101631734D02*
X380143Y101441258D01*
X380143Y101441258D02*
X427762Y101346020D01*
X427762Y101346020D02*
X475381Y101298400D01*
X475381Y101298400D02*
X570619Y101250781D01*
X570619Y101250781D02*
X761095Y101250781D01*
X761095Y101250781D02*
X856333Y101298400D01*
X856333Y101298400D02*
X903952Y101346020D01*
X903952Y101346020D02*
X951571Y101441258D01*
X951571Y101441258D02*
X951571Y101631734D01*
X951571Y101631734D02*
X903952Y101726972D01*
X903952Y101726972D02*
X856333Y101774591D01*
X856333Y101774591D02*
X761095Y101822210D01*
X1380143Y101346020D02*
X1427762Y101298400D01*
X1427762Y101298400D02*
X1380143Y101250781D01*
X1380143Y101250781D02*
X1332524Y101298400D01*
X1332524Y101298400D02*
X1380143Y101346020D01*
X1380143Y101346020D02*
X1380143Y101250781D01*
X1999190Y101822210D02*
X1903952Y101869829D01*
X1903952Y101869829D02*
X1856333Y101917448D01*
X1856333Y101917448D02*
X1808714Y102012686D01*
X1808714Y102012686D02*
X1808714Y102060305D01*
X1808714Y102060305D02*
X1856333Y102155543D01*
X1856333Y102155543D02*
X1903952Y102203162D01*
X1903952Y102203162D02*
X1999190Y102250781D01*
X1999190Y102250781D02*
X2189666Y102250781D01*
X2189666Y102250781D02*
X2284904Y102203162D01*
X2284904Y102203162D02*
X2332523Y102155543D01*
X2332523Y102155543D02*
X2380142Y102060305D01*
X2380142Y102060305D02*
X2380142Y102012686D01*
X2380142Y102012686D02*
X2332523Y101917448D01*
X2332523Y101917448D02*
X2284904Y101869829D01*
X2284904Y101869829D02*
X2189666Y101822210D01*
X2189666Y101822210D02*
X1999190Y101822210D01*
X1999190Y101822210D02*
X1903952Y101774591D01*
X1903952Y101774591D02*
X1856333Y101726972D01*
X1856333Y101726972D02*
X1808714Y101631734D01*
X1808714Y101631734D02*
X1808714Y101441258D01*
X1808714Y101441258D02*
X1856333Y101346020D01*
X1856333Y101346020D02*
X1903952Y101298400D01*
X1903952Y101298400D02*
X1999190Y101250781D01*
X1999190Y101250781D02*
X2189666Y101250781D01*
X2189666Y101250781D02*
X2284904Y101298400D01*
X2284904Y101298400D02*
X2332523Y101346020D01*
X2332523Y101346020D02*
X2380142Y101441258D01*
X2380142Y101441258D02*
X2380142Y101631734D01*
X2380142Y101631734D02*
X2332523Y101726972D01*
X2332523Y101726972D02*
X2284904Y101774591D01*
X2284904Y101774591D02*
X2189666Y101822210D01*
X2856333Y101250781D02*
X3046809Y101250781D01*
X3046809Y101250781D02*
X3142047Y101298400D01*
X3142047Y101298400D02*
X3189666Y101346020D01*
X3189666Y101346020D02*
X3284904Y101488877D01*
X3284904Y101488877D02*
X3332523Y101679353D01*
X3332523Y101679353D02*
X3332523Y102060305D01*
X3332523Y102060305D02*
X3284904Y102155543D01*
X3284904Y102155543D02*
X3237285Y102203162D01*
X3237285Y102203162D02*
X3142047Y102250781D01*
X3142047Y102250781D02*
X2951571Y102250781D01*
X2951571Y102250781D02*
X2856333Y102203162D01*
X2856333Y102203162D02*
X2808714Y102155543D01*
X2808714Y102155543D02*
X2761095Y102060305D01*
X2761095Y102060305D02*
X2761095Y101822210D01*
X2761095Y101822210D02*
X2808714Y101726972D01*
X2808714Y101726972D02*
X2856333Y101679353D01*
X2856333Y101679353D02*
X2951571Y101631734D01*
X2951571Y101631734D02*
X3142047Y101631734D01*
X3142047Y101631734D02*
X3237285Y101679353D01*
X3237285Y101679353D02*
X3284904Y101726972D01*
X3284904Y101726972D02*
X3332523Y101822210D01*
X3951571Y102250781D02*
X4046809Y102250781D01*
X4046809Y102250781D02*
X4142047Y102203162D01*
X4142047Y102203162D02*
X4189666Y102155543D01*
X4189666Y102155543D02*
X4237285Y102060305D01*
X4237285Y102060305D02*
X4284904Y101869829D01*
X4284904Y101869829D02*
X4284904Y101631734D01*
X4284904Y101631734D02*
X4237285Y101441258D01*
X4237285Y101441258D02*
X4189666Y101346020D01*
X4189666Y101346020D02*
X4142047Y101298400D01*
X4142047Y101298400D02*
X4046809Y101250781D01*
X4046809Y101250781D02*
X3951571Y101250781D01*
X3951571Y101250781D02*
X3856333Y101298400D01*
X3856333Y101298400D02*
X3808714Y101346020D01*
X3808714Y101346020D02*
X3761095Y101441258D01*
X3761095Y101441258D02*
X3713476Y101631734D01*
X3713476Y101631734D02*
X3713476Y101869829D01*
X3713476Y101869829D02*
X3761095Y102060305D01*
X3761095Y102060305D02*
X3808714Y102155543D01*
X3808714Y102155543D02*
X3856333Y102203162D01*
X3856333Y102203162D02*
X3951571Y102250781D01*
X4903952Y102250781D02*
X4999190Y102250781D01*
X4999190Y102250781D02*
X5094428Y102203162D01*
X5094428Y102203162D02*
X5142047Y102155543D01*
X5142047Y102155543D02*
X5189666Y102060305D01*
X5189666Y102060305D02*
X5237285Y101869829D01*
X5237285Y101869829D02*
X5237285Y101631734D01*
X5237285Y101631734D02*
X5189666Y101441258D01*
X5189666Y101441258D02*
X5142047Y101346020D01*
X5142047Y101346020D02*
X5094428Y101298400D01*
X5094428Y101298400D02*
X4999190Y101250781D01*
X4999190Y101250781D02*
X4903952Y101250781D01*
X4903952Y101250781D02*
X4808714Y101298400D01*
X4808714Y101298400D02*
X4761095Y101346020D01*
X4761095Y101346020D02*
X4713476Y101441258D01*
X4713476Y101441258D02*
X4665857Y101631734D01*
X4665857Y101631734D02*
X4665857Y101869829D01*
X4665857Y101869829D02*
X4713476Y102060305D01*
X4713476Y102060305D02*
X4761095Y102155543D01*
X4761095Y102155543D02*
X4808714Y102203162D01*
X4808714Y102203162D02*
X4903952Y102250781D01*
X6427762Y101250781D02*
X6427762Y101917448D01*
X6427762Y101822210D02*
X6475381Y101869829D01*
X6475381Y101869829D02*
X6570619Y101917448D01*
X6570619Y101917448D02*
X6713476Y101917448D01*
X6713476Y101917448D02*
X6808714Y101869829D01*
X6808714Y101869829D02*
X6856333Y101774591D01*
X6856333Y101774591D02*
X6856333Y101250781D01*
X6856333Y101774591D02*
X6903952Y101869829D01*
X6903952Y101869829D02*
X6999190Y101917448D01*
X6999190Y101917448D02*
X7142047Y101917448D01*
X7142047Y101917448D02*
X7237286Y101869829D01*
X7237286Y101869829D02*
X7284905Y101774591D01*
X7284905Y101774591D02*
X7284905Y101250781D01*
X7761095Y101250781D02*
X7761095Y101917448D01*
X7761095Y101822210D02*
X7808714Y101869829D01*
X7808714Y101869829D02*
X7903952Y101917448D01*
X7903952Y101917448D02*
X8046809Y101917448D01*
X8046809Y101917448D02*
X8142047Y101869829D01*
X8142047Y101869829D02*
X8189666Y101774591D01*
X8189666Y101774591D02*
X8189666Y101250781D01*
X8189666Y101774591D02*
X8237285Y101869829D01*
X8237285Y101869829D02*
X8332523Y101917448D01*
X8332523Y101917448D02*
X8475380Y101917448D01*
X8475380Y101917448D02*
X8570619Y101869829D01*
X8570619Y101869829D02*
X8618238Y101774591D01*
X8618238Y101774591D02*
X8618238Y101250781D01*
D10*
X8968000Y91429000D02*
X8968000Y101142020D01*
X78000Y91429000D02*
X78000Y101142020D01*
X8968000Y100555600D02*
X78000Y100555600D01*
X8968000Y100555600D02*
X78000Y100555600D01*
X8968000Y100555600D02*
X7841496Y99969179D01*
X8968000Y100555600D02*
X7841496Y101142021D01*
X78000Y100555600D02*
X1204504Y101142021D01*
X78000Y100555600D02*
X1204504Y99969179D01*
D11*
X282062019Y46902692D02*
X282062019Y47093168D01*
X282062019Y47093168D02*
X282014400Y47188406D01*
X282014400Y47188406D02*
X281966780Y47236025D01*
X281966780Y47236025D02*
X281823923Y47331263D01*
X281823923Y47331263D02*
X281633447Y47378882D01*
X281633447Y47378882D02*
X281252495Y47378882D01*
X281252495Y47378882D02*
X281157257Y47331263D01*
X281157257Y47331263D02*
X281109638Y47283644D01*
X281109638Y47283644D02*
X281062019Y47188406D01*
X281062019Y47188406D02*
X281062019Y46997930D01*
X281062019Y46997930D02*
X281109638Y46902692D01*
X281109638Y46902692D02*
X281157257Y46855073D01*
X281157257Y46855073D02*
X281252495Y46807454D01*
X281252495Y46807454D02*
X281490590Y46807454D01*
X281490590Y46807454D02*
X281585828Y46855073D01*
X281585828Y46855073D02*
X281633447Y46902692D01*
X281633447Y46902692D02*
X281681066Y46997930D01*
X281681066Y46997930D02*
X281681066Y47188406D01*
X281681066Y47188406D02*
X281633447Y47283644D01*
X281633447Y47283644D02*
X281585828Y47331263D01*
X281585828Y47331263D02*
X281490590Y47378882D01*
X281062019Y48283644D02*
X281062019Y47807454D01*
X281062019Y47807454D02*
X281538209Y47759835D01*
X281538209Y47759835D02*
X281490590Y47807454D01*
X281490590Y47807454D02*
X281442971Y47902692D01*
X281442971Y47902692D02*
X281442971Y48140787D01*
X281442971Y48140787D02*
X281490590Y48236025D01*
X281490590Y48236025D02*
X281538209Y48283644D01*
X281538209Y48283644D02*
X281633447Y48331263D01*
X281633447Y48331263D02*
X281871542Y48331263D01*
X281871542Y48331263D02*
X281966780Y48283644D01*
X281966780Y48283644D02*
X282014400Y48236025D01*
X282014400Y48236025D02*
X282062019Y48140787D01*
X282062019Y48140787D02*
X282062019Y47902692D01*
X282062019Y47902692D02*
X282014400Y47807454D01*
X282014400Y47807454D02*
X281966780Y47759835D01*
X281966780Y48759835D02*
X282014400Y48807454D01*
X282014400Y48807454D02*
X282062019Y48759835D01*
X282062019Y48759835D02*
X282014400Y48712216D01*
X282014400Y48712216D02*
X281966780Y48759835D01*
X281966780Y48759835D02*
X282062019Y48759835D01*
X281490590Y49378882D02*
X281442971Y49283644D01*
X281442971Y49283644D02*
X281395352Y49236025D01*
X281395352Y49236025D02*
X281300114Y49188406D01*
X281300114Y49188406D02*
X281252495Y49188406D01*
X281252495Y49188406D02*
X281157257Y49236025D01*
X281157257Y49236025D02*
X281109638Y49283644D01*
X281109638Y49283644D02*
X281062019Y49378882D01*
X281062019Y49378882D02*
X281062019Y49569358D01*
X281062019Y49569358D02*
X281109638Y49664596D01*
X281109638Y49664596D02*
X281157257Y49712215D01*
X281157257Y49712215D02*
X281252495Y49759834D01*
X281252495Y49759834D02*
X281300114Y49759834D01*
X281300114Y49759834D02*
X281395352Y49712215D01*
X281395352Y49712215D02*
X281442971Y49664596D01*
X281442971Y49664596D02*
X281490590Y49569358D01*
X281490590Y49569358D02*
X281490590Y49378882D01*
X281490590Y49378882D02*
X281538209Y49283644D01*
X281538209Y49283644D02*
X281585828Y49236025D01*
X281585828Y49236025D02*
X281681066Y49188406D01*
X281681066Y49188406D02*
X281871542Y49188406D01*
X281871542Y49188406D02*
X281966780Y49236025D01*
X281966780Y49236025D02*
X282014400Y49283644D01*
X282014400Y49283644D02*
X282062019Y49378882D01*
X282062019Y49378882D02*
X282062019Y49569358D01*
X282062019Y49569358D02*
X282014400Y49664596D01*
X282014400Y49664596D02*
X281966780Y49712215D01*
X281966780Y49712215D02*
X281871542Y49759834D01*
X281871542Y49759834D02*
X281681066Y49759834D01*
X281681066Y49759834D02*
X281585828Y49712215D01*
X281585828Y49712215D02*
X281538209Y49664596D01*
X281538209Y49664596D02*
X281490590Y49569358D01*
X281490590Y50331263D02*
X281442971Y50236025D01*
X281442971Y50236025D02*
X281395352Y50188406D01*
X281395352Y50188406D02*
X281300114Y50140787D01*
X281300114Y50140787D02*
X281252495Y50140787D01*
X281252495Y50140787D02*
X281157257Y50188406D01*
X281157257Y50188406D02*
X281109638Y50236025D01*
X281109638Y50236025D02*
X281062019Y50331263D01*
X281062019Y50331263D02*
X281062019Y50521739D01*
X281062019Y50521739D02*
X281109638Y50616977D01*
X281109638Y50616977D02*
X281157257Y50664596D01*
X281157257Y50664596D02*
X281252495Y50712215D01*
X281252495Y50712215D02*
X281300114Y50712215D01*
X281300114Y50712215D02*
X281395352Y50664596D01*
X281395352Y50664596D02*
X281442971Y50616977D01*
X281442971Y50616977D02*
X281490590Y50521739D01*
X281490590Y50521739D02*
X281490590Y50331263D01*
X281490590Y50331263D02*
X281538209Y50236025D01*
X281538209Y50236025D02*
X281585828Y50188406D01*
X281585828Y50188406D02*
X281681066Y50140787D01*
X281681066Y50140787D02*
X281871542Y50140787D01*
X281871542Y50140787D02*
X281966780Y50188406D01*
X281966780Y50188406D02*
X282014400Y50236025D01*
X282014400Y50236025D02*
X282062019Y50331263D01*
X282062019Y50331263D02*
X282062019Y50521739D01*
X282062019Y50521739D02*
X282014400Y50616977D01*
X282014400Y50616977D02*
X281966780Y50664596D01*
X281966780Y50664596D02*
X281871542Y50712215D01*
X281871542Y50712215D02*
X281681066Y50712215D01*
X281681066Y50712215D02*
X281585828Y50664596D01*
X281585828Y50664596D02*
X281538209Y50616977D01*
X281538209Y50616977D02*
X281490590Y50521739D01*
X281062019Y51616977D02*
X281062019Y51140787D01*
X281062019Y51140787D02*
X281538209Y51093168D01*
X281538209Y51093168D02*
X281490590Y51140787D01*
X281490590Y51140787D02*
X281442971Y51236025D01*
X281442971Y51236025D02*
X281442971Y51474120D01*
X281442971Y51474120D02*
X281490590Y51569358D01*
X281490590Y51569358D02*
X281538209Y51616977D01*
X281538209Y51616977D02*
X281633447Y51664596D01*
X281633447Y51664596D02*
X281871542Y51664596D01*
X281871542Y51664596D02*
X281966780Y51616977D01*
X281966780Y51616977D02*
X282014400Y51569358D01*
X282014400Y51569358D02*
X282062019Y51474120D01*
X282062019Y51474120D02*
X282062019Y51236025D01*
X282062019Y51236025D02*
X282014400Y51140787D01*
X282014400Y51140787D02*
X281966780Y51093168D01*
X281062019Y52283644D02*
X281062019Y52378882D01*
X281062019Y52378882D02*
X281109638Y52474120D01*
X281109638Y52474120D02*
X281157257Y52521739D01*
X281157257Y52521739D02*
X281252495Y52569358D01*
X281252495Y52569358D02*
X281442971Y52616977D01*
X281442971Y52616977D02*
X281681066Y52616977D01*
X281681066Y52616977D02*
X281871542Y52569358D01*
X281871542Y52569358D02*
X281966780Y52521739D01*
X281966780Y52521739D02*
X282014400Y52474120D01*
X282014400Y52474120D02*
X282062019Y52378882D01*
X282062019Y52378882D02*
X282062019Y52283644D01*
X282062019Y52283644D02*
X282014400Y52188406D01*
X282014400Y52188406D02*
X281966780Y52140787D01*
X281966780Y52140787D02*
X281871542Y52093168D01*
X281871542Y52093168D02*
X281681066Y52045549D01*
X281681066Y52045549D02*
X281442971Y52045549D01*
X281442971Y52045549D02*
X281252495Y52093168D01*
X281252495Y52093168D02*
X281157257Y52140787D01*
X281157257Y52140787D02*
X281109638Y52188406D01*
X281109638Y52188406D02*
X281062019Y52283644D01*
X282062019Y53807454D02*
X281395352Y53807454D01*
X281490590Y53807454D02*
X281442971Y53855073D01*
X281442971Y53855073D02*
X281395352Y53950311D01*
X281395352Y53950311D02*
X281395352Y54093168D01*
X281395352Y54093168D02*
X281442971Y54188406D01*
X281442971Y54188406D02*
X281538209Y54236025D01*
X281538209Y54236025D02*
X282062019Y54236025D01*
X281538209Y54236025D02*
X281442971Y54283644D01*
X281442971Y54283644D02*
X281395352Y54378882D01*
X281395352Y54378882D02*
X281395352Y54521739D01*
X281395352Y54521739D02*
X281442971Y54616978D01*
X281442971Y54616978D02*
X281538209Y54664597D01*
X281538209Y54664597D02*
X282062019Y54664597D01*
X282062019Y55140787D02*
X281395352Y55140787D01*
X281490590Y55140787D02*
X281442971Y55188406D01*
X281442971Y55188406D02*
X281395352Y55283644D01*
X281395352Y55283644D02*
X281395352Y55426501D01*
X281395352Y55426501D02*
X281442971Y55521739D01*
X281442971Y55521739D02*
X281538209Y55569358D01*
X281538209Y55569358D02*
X282062019Y55569358D01*
X281538209Y55569358D02*
X281442971Y55616977D01*
X281442971Y55616977D02*
X281395352Y55712215D01*
X281395352Y55712215D02*
X281395352Y55855072D01*
X281395352Y55855072D02*
X281442971Y55950311D01*
X281442971Y55950311D02*
X281538209Y55997930D01*
X281538209Y55997930D02*
X282062019Y55997930D01*
D10*
X307390500Y99369000D02*
X282170780Y99369000D01*
X307390500Y3484000D02*
X282170780Y3484000D01*
X282757200Y99369000D02*
X282757200Y3484000D01*
X282757200Y99369000D02*
X282757200Y3484000D01*
X282757200Y99369000D02*
X283343621Y98242496D01*
X282757200Y99369000D02*
X282170779Y98242496D01*
X282757200Y3484000D02*
X282170779Y4610504D01*
X282757200Y3484000D02*
X283343621Y4610504D01*
D11*
X285237019Y44362692D02*
X285237019Y44553168D01*
X285237019Y44553168D02*
X285189400Y44648406D01*
X285189400Y44648406D02*
X285141780Y44696025D01*
X285141780Y44696025D02*
X284998923Y44791263D01*
X284998923Y44791263D02*
X284808447Y44838882D01*
X284808447Y44838882D02*
X284427495Y44838882D01*
X284427495Y44838882D02*
X284332257Y44791263D01*
X284332257Y44791263D02*
X284284638Y44743644D01*
X284284638Y44743644D02*
X284237019Y44648406D01*
X284237019Y44648406D02*
X284237019Y44457930D01*
X284237019Y44457930D02*
X284284638Y44362692D01*
X284284638Y44362692D02*
X284332257Y44315073D01*
X284332257Y44315073D02*
X284427495Y44267454D01*
X284427495Y44267454D02*
X284665590Y44267454D01*
X284665590Y44267454D02*
X284760828Y44315073D01*
X284760828Y44315073D02*
X284808447Y44362692D01*
X284808447Y44362692D02*
X284856066Y44457930D01*
X284856066Y44457930D02*
X284856066Y44648406D01*
X284856066Y44648406D02*
X284808447Y44743644D01*
X284808447Y44743644D02*
X284760828Y44791263D01*
X284760828Y44791263D02*
X284665590Y44838882D01*
X284237019Y45457930D02*
X284237019Y45553168D01*
X284237019Y45553168D02*
X284284638Y45648406D01*
X284284638Y45648406D02*
X284332257Y45696025D01*
X284332257Y45696025D02*
X284427495Y45743644D01*
X284427495Y45743644D02*
X284617971Y45791263D01*
X284617971Y45791263D02*
X284856066Y45791263D01*
X284856066Y45791263D02*
X285046542Y45743644D01*
X285046542Y45743644D02*
X285141780Y45696025D01*
X285141780Y45696025D02*
X285189400Y45648406D01*
X285189400Y45648406D02*
X285237019Y45553168D01*
X285237019Y45553168D02*
X285237019Y45457930D01*
X285237019Y45457930D02*
X285189400Y45362692D01*
X285189400Y45362692D02*
X285141780Y45315073D01*
X285141780Y45315073D02*
X285046542Y45267454D01*
X285046542Y45267454D02*
X284856066Y45219835D01*
X284856066Y45219835D02*
X284617971Y45219835D01*
X284617971Y45219835D02*
X284427495Y45267454D01*
X284427495Y45267454D02*
X284332257Y45315073D01*
X284332257Y45315073D02*
X284284638Y45362692D01*
X284284638Y45362692D02*
X284237019Y45457930D01*
X285141780Y46219835D02*
X285189400Y46267454D01*
X285189400Y46267454D02*
X285237019Y46219835D01*
X285237019Y46219835D02*
X285189400Y46172216D01*
X285189400Y46172216D02*
X285141780Y46219835D01*
X285141780Y46219835D02*
X285237019Y46219835D01*
X284665590Y46838882D02*
X284617971Y46743644D01*
X284617971Y46743644D02*
X284570352Y46696025D01*
X284570352Y46696025D02*
X284475114Y46648406D01*
X284475114Y46648406D02*
X284427495Y46648406D01*
X284427495Y46648406D02*
X284332257Y46696025D01*
X284332257Y46696025D02*
X284284638Y46743644D01*
X284284638Y46743644D02*
X284237019Y46838882D01*
X284237019Y46838882D02*
X284237019Y47029358D01*
X284237019Y47029358D02*
X284284638Y47124596D01*
X284284638Y47124596D02*
X284332257Y47172215D01*
X284332257Y47172215D02*
X284427495Y47219834D01*
X284427495Y47219834D02*
X284475114Y47219834D01*
X284475114Y47219834D02*
X284570352Y47172215D01*
X284570352Y47172215D02*
X284617971Y47124596D01*
X284617971Y47124596D02*
X284665590Y47029358D01*
X284665590Y47029358D02*
X284665590Y46838882D01*
X284665590Y46838882D02*
X284713209Y46743644D01*
X284713209Y46743644D02*
X284760828Y46696025D01*
X284760828Y46696025D02*
X284856066Y46648406D01*
X284856066Y46648406D02*
X285046542Y46648406D01*
X285046542Y46648406D02*
X285141780Y46696025D01*
X285141780Y46696025D02*
X285189400Y46743644D01*
X285189400Y46743644D02*
X285237019Y46838882D01*
X285237019Y46838882D02*
X285237019Y47029358D01*
X285237019Y47029358D02*
X285189400Y47124596D01*
X285189400Y47124596D02*
X285141780Y47172215D01*
X285141780Y47172215D02*
X285046542Y47219834D01*
X285046542Y47219834D02*
X284856066Y47219834D01*
X284856066Y47219834D02*
X284760828Y47172215D01*
X284760828Y47172215D02*
X284713209Y47124596D01*
X284713209Y47124596D02*
X284665590Y47029358D01*
X284237019Y47838882D02*
X284237019Y47934120D01*
X284237019Y47934120D02*
X284284638Y48029358D01*
X284284638Y48029358D02*
X284332257Y48076977D01*
X284332257Y48076977D02*
X284427495Y48124596D01*
X284427495Y48124596D02*
X284617971Y48172215D01*
X284617971Y48172215D02*
X284856066Y48172215D01*
X284856066Y48172215D02*
X285046542Y48124596D01*
X285046542Y48124596D02*
X285141780Y48076977D01*
X285141780Y48076977D02*
X285189400Y48029358D01*
X285189400Y48029358D02*
X285237019Y47934120D01*
X285237019Y47934120D02*
X285237019Y47838882D01*
X285237019Y47838882D02*
X285189400Y47743644D01*
X285189400Y47743644D02*
X285141780Y47696025D01*
X285141780Y47696025D02*
X285046542Y47648406D01*
X285046542Y47648406D02*
X284856066Y47600787D01*
X284856066Y47600787D02*
X284617971Y47600787D01*
X284617971Y47600787D02*
X284427495Y47648406D01*
X284427495Y47648406D02*
X284332257Y47696025D01*
X284332257Y47696025D02*
X284284638Y47743644D01*
X284284638Y47743644D02*
X284237019Y47838882D01*
X284237019Y49076977D02*
X284237019Y48600787D01*
X284237019Y48600787D02*
X284713209Y48553168D01*
X284713209Y48553168D02*
X284665590Y48600787D01*
X284665590Y48600787D02*
X284617971Y48696025D01*
X284617971Y48696025D02*
X284617971Y48934120D01*
X284617971Y48934120D02*
X284665590Y49029358D01*
X284665590Y49029358D02*
X284713209Y49076977D01*
X284713209Y49076977D02*
X284808447Y49124596D01*
X284808447Y49124596D02*
X285046542Y49124596D01*
X285046542Y49124596D02*
X285141780Y49076977D01*
X285141780Y49076977D02*
X285189400Y49029358D01*
X285189400Y49029358D02*
X285237019Y48934120D01*
X285237019Y48934120D02*
X285237019Y48696025D01*
X285237019Y48696025D02*
X285189400Y48600787D01*
X285189400Y48600787D02*
X285141780Y48553168D01*
X284237019Y49743644D02*
X284237019Y49838882D01*
X284237019Y49838882D02*
X284284638Y49934120D01*
X284284638Y49934120D02*
X284332257Y49981739D01*
X284332257Y49981739D02*
X284427495Y50029358D01*
X284427495Y50029358D02*
X284617971Y50076977D01*
X284617971Y50076977D02*
X284856066Y50076977D01*
X284856066Y50076977D02*
X285046542Y50029358D01*
X285046542Y50029358D02*
X285141780Y49981739D01*
X285141780Y49981739D02*
X285189400Y49934120D01*
X285189400Y49934120D02*
X285237019Y49838882D01*
X285237019Y49838882D02*
X285237019Y49743644D01*
X285237019Y49743644D02*
X285189400Y49648406D01*
X285189400Y49648406D02*
X285141780Y49600787D01*
X285141780Y49600787D02*
X285046542Y49553168D01*
X285046542Y49553168D02*
X284856066Y49505549D01*
X284856066Y49505549D02*
X284617971Y49505549D01*
X284617971Y49505549D02*
X284427495Y49553168D01*
X284427495Y49553168D02*
X284332257Y49600787D01*
X284332257Y49600787D02*
X284284638Y49648406D01*
X284284638Y49648406D02*
X284237019Y49743644D01*
X285237019Y51267454D02*
X284570352Y51267454D01*
X284665590Y51267454D02*
X284617971Y51315073D01*
X284617971Y51315073D02*
X284570352Y51410311D01*
X284570352Y51410311D02*
X284570352Y51553168D01*
X284570352Y51553168D02*
X284617971Y51648406D01*
X284617971Y51648406D02*
X284713209Y51696025D01*
X284713209Y51696025D02*
X285237019Y51696025D01*
X284713209Y51696025D02*
X284617971Y51743644D01*
X284617971Y51743644D02*
X284570352Y51838882D01*
X284570352Y51838882D02*
X284570352Y51981739D01*
X284570352Y51981739D02*
X284617971Y52076978D01*
X284617971Y52076978D02*
X284713209Y52124597D01*
X284713209Y52124597D02*
X285237019Y52124597D01*
X285237019Y52600787D02*
X284570352Y52600787D01*
X284665590Y52600787D02*
X284617971Y52648406D01*
X284617971Y52648406D02*
X284570352Y52743644D01*
X284570352Y52743644D02*
X284570352Y52886501D01*
X284570352Y52886501D02*
X284617971Y52981739D01*
X284617971Y52981739D02*
X284713209Y53029358D01*
X284713209Y53029358D02*
X285237019Y53029358D01*
X284713209Y53029358D02*
X284617971Y53076977D01*
X284617971Y53076977D02*
X284570352Y53172215D01*
X284570352Y53172215D02*
X284570352Y53315072D01*
X284570352Y53315072D02*
X284617971Y53410311D01*
X284617971Y53410311D02*
X284713209Y53457930D01*
X284713209Y53457930D02*
X285237019Y53457930D01*
D10*
X306438000Y3484000D02*
X285345780Y3484000D01*
X306438000Y94289000D02*
X285345780Y94289000D01*
X285932200Y3484000D02*
X285932200Y94289000D01*
X285932200Y3484000D02*
X285932200Y94289000D01*
X285932200Y3484000D02*
X285345779Y4610504D01*
X285932200Y3484000D02*
X286518621Y4610504D01*
X285932200Y94289000D02*
X286518621Y93162496D01*
X285932200Y94289000D02*
X285345779Y93162496D01*
D11*
X289872590Y40647930D02*
X289824971Y40552692D01*
X289824971Y40552692D02*
X289777352Y40505073D01*
X289777352Y40505073D02*
X289682114Y40457454D01*
X289682114Y40457454D02*
X289634495Y40457454D01*
X289634495Y40457454D02*
X289539257Y40505073D01*
X289539257Y40505073D02*
X289491638Y40552692D01*
X289491638Y40552692D02*
X289444019Y40647930D01*
X289444019Y40647930D02*
X289444019Y40838406D01*
X289444019Y40838406D02*
X289491638Y40933644D01*
X289491638Y40933644D02*
X289539257Y40981263D01*
X289539257Y40981263D02*
X289634495Y41028882D01*
X289634495Y41028882D02*
X289682114Y41028882D01*
X289682114Y41028882D02*
X289777352Y40981263D01*
X289777352Y40981263D02*
X289824971Y40933644D01*
X289824971Y40933644D02*
X289872590Y40838406D01*
X289872590Y40838406D02*
X289872590Y40647930D01*
X289872590Y40647930D02*
X289920209Y40552692D01*
X289920209Y40552692D02*
X289967828Y40505073D01*
X289967828Y40505073D02*
X290063066Y40457454D01*
X290063066Y40457454D02*
X290253542Y40457454D01*
X290253542Y40457454D02*
X290348780Y40505073D01*
X290348780Y40505073D02*
X290396400Y40552692D01*
X290396400Y40552692D02*
X290444019Y40647930D01*
X290444019Y40647930D02*
X290444019Y40838406D01*
X290444019Y40838406D02*
X290396400Y40933644D01*
X290396400Y40933644D02*
X290348780Y40981263D01*
X290348780Y40981263D02*
X290253542Y41028882D01*
X290253542Y41028882D02*
X290063066Y41028882D01*
X290063066Y41028882D02*
X289967828Y40981263D01*
X289967828Y40981263D02*
X289920209Y40933644D01*
X289920209Y40933644D02*
X289872590Y40838406D01*
X289444019Y41362216D02*
X289444019Y41981263D01*
X289444019Y41981263D02*
X289824971Y41647930D01*
X289824971Y41647930D02*
X289824971Y41790787D01*
X289824971Y41790787D02*
X289872590Y41886025D01*
X289872590Y41886025D02*
X289920209Y41933644D01*
X289920209Y41933644D02*
X290015447Y41981263D01*
X290015447Y41981263D02*
X290253542Y41981263D01*
X290253542Y41981263D02*
X290348780Y41933644D01*
X290348780Y41933644D02*
X290396400Y41886025D01*
X290396400Y41886025D02*
X290444019Y41790787D01*
X290444019Y41790787D02*
X290444019Y41505073D01*
X290444019Y41505073D02*
X290396400Y41409835D01*
X290396400Y41409835D02*
X290348780Y41362216D01*
X290348780Y42409835D02*
X290396400Y42457454D01*
X290396400Y42457454D02*
X290444019Y42409835D01*
X290444019Y42409835D02*
X290396400Y42362216D01*
X290396400Y42362216D02*
X290348780Y42409835D01*
X290348780Y42409835D02*
X290444019Y42409835D01*
X290444019Y43409834D02*
X290444019Y42838406D01*
X290444019Y43124120D02*
X289444019Y43124120D01*
X289444019Y43124120D02*
X289586876Y43028882D01*
X289586876Y43028882D02*
X289682114Y42933644D01*
X289682114Y42933644D02*
X289729733Y42838406D01*
X289872590Y43981263D02*
X289824971Y43886025D01*
X289824971Y43886025D02*
X289777352Y43838406D01*
X289777352Y43838406D02*
X289682114Y43790787D01*
X289682114Y43790787D02*
X289634495Y43790787D01*
X289634495Y43790787D02*
X289539257Y43838406D01*
X289539257Y43838406D02*
X289491638Y43886025D01*
X289491638Y43886025D02*
X289444019Y43981263D01*
X289444019Y43981263D02*
X289444019Y44171739D01*
X289444019Y44171739D02*
X289491638Y44266977D01*
X289491638Y44266977D02*
X289539257Y44314596D01*
X289539257Y44314596D02*
X289634495Y44362215D01*
X289634495Y44362215D02*
X289682114Y44362215D01*
X289682114Y44362215D02*
X289777352Y44314596D01*
X289777352Y44314596D02*
X289824971Y44266977D01*
X289824971Y44266977D02*
X289872590Y44171739D01*
X289872590Y44171739D02*
X289872590Y43981263D01*
X289872590Y43981263D02*
X289920209Y43886025D01*
X289920209Y43886025D02*
X289967828Y43838406D01*
X289967828Y43838406D02*
X290063066Y43790787D01*
X290063066Y43790787D02*
X290253542Y43790787D01*
X290253542Y43790787D02*
X290348780Y43838406D01*
X290348780Y43838406D02*
X290396400Y43886025D01*
X290396400Y43886025D02*
X290444019Y43981263D01*
X290444019Y43981263D02*
X290444019Y44171739D01*
X290444019Y44171739D02*
X290396400Y44266977D01*
X290396400Y44266977D02*
X290348780Y44314596D01*
X290348780Y44314596D02*
X290253542Y44362215D01*
X290253542Y44362215D02*
X290063066Y44362215D01*
X290063066Y44362215D02*
X289967828Y44314596D01*
X289967828Y44314596D02*
X289920209Y44266977D01*
X289920209Y44266977D02*
X289872590Y44171739D01*
X289444019Y45266977D02*
X289444019Y44790787D01*
X289444019Y44790787D02*
X289920209Y44743168D01*
X289920209Y44743168D02*
X289872590Y44790787D01*
X289872590Y44790787D02*
X289824971Y44886025D01*
X289824971Y44886025D02*
X289824971Y45124120D01*
X289824971Y45124120D02*
X289872590Y45219358D01*
X289872590Y45219358D02*
X289920209Y45266977D01*
X289920209Y45266977D02*
X290015447Y45314596D01*
X290015447Y45314596D02*
X290253542Y45314596D01*
X290253542Y45314596D02*
X290348780Y45266977D01*
X290348780Y45266977D02*
X290396400Y45219358D01*
X290396400Y45219358D02*
X290444019Y45124120D01*
X290444019Y45124120D02*
X290444019Y44886025D01*
X290444019Y44886025D02*
X290396400Y44790787D01*
X290396400Y44790787D02*
X290348780Y44743168D01*
X289444019Y45933644D02*
X289444019Y46028882D01*
X289444019Y46028882D02*
X289491638Y46124120D01*
X289491638Y46124120D02*
X289539257Y46171739D01*
X289539257Y46171739D02*
X289634495Y46219358D01*
X289634495Y46219358D02*
X289824971Y46266977D01*
X289824971Y46266977D02*
X290063066Y46266977D01*
X290063066Y46266977D02*
X290253542Y46219358D01*
X290253542Y46219358D02*
X290348780Y46171739D01*
X290348780Y46171739D02*
X290396400Y46124120D01*
X290396400Y46124120D02*
X290444019Y46028882D01*
X290444019Y46028882D02*
X290444019Y45933644D01*
X290444019Y45933644D02*
X290396400Y45838406D01*
X290396400Y45838406D02*
X290348780Y45790787D01*
X290348780Y45790787D02*
X290253542Y45743168D01*
X290253542Y45743168D02*
X290063066Y45695549D01*
X290063066Y45695549D02*
X289824971Y45695549D01*
X289824971Y45695549D02*
X289634495Y45743168D01*
X289634495Y45743168D02*
X289539257Y45790787D01*
X289539257Y45790787D02*
X289491638Y45838406D01*
X289491638Y45838406D02*
X289444019Y45933644D01*
X290444019Y47457454D02*
X289777352Y47457454D01*
X289872590Y47457454D02*
X289824971Y47505073D01*
X289824971Y47505073D02*
X289777352Y47600311D01*
X289777352Y47600311D02*
X289777352Y47743168D01*
X289777352Y47743168D02*
X289824971Y47838406D01*
X289824971Y47838406D02*
X289920209Y47886025D01*
X289920209Y47886025D02*
X290444019Y47886025D01*
X289920209Y47886025D02*
X289824971Y47933644D01*
X289824971Y47933644D02*
X289777352Y48028882D01*
X289777352Y48028882D02*
X289777352Y48171739D01*
X289777352Y48171739D02*
X289824971Y48266978D01*
X289824971Y48266978D02*
X289920209Y48314597D01*
X289920209Y48314597D02*
X290444019Y48314597D01*
X290444019Y48790787D02*
X289777352Y48790787D01*
X289872590Y48790787D02*
X289824971Y48838406D01*
X289824971Y48838406D02*
X289777352Y48933644D01*
X289777352Y48933644D02*
X289777352Y49076501D01*
X289777352Y49076501D02*
X289824971Y49171739D01*
X289824971Y49171739D02*
X289920209Y49219358D01*
X289920209Y49219358D02*
X290444019Y49219358D01*
X289920209Y49219358D02*
X289824971Y49266977D01*
X289824971Y49266977D02*
X289777352Y49362215D01*
X289777352Y49362215D02*
X289777352Y49505072D01*
X289777352Y49505072D02*
X289824971Y49600311D01*
X289824971Y49600311D02*
X289920209Y49647930D01*
X289920209Y49647930D02*
X290444019Y49647930D01*
D10*
X306438000Y3484000D02*
X290552780Y3484000D01*
X306438000Y86669000D02*
X290552780Y86669000D01*
X291139200Y3484000D02*
X291139200Y86669000D01*
X291139200Y3484000D02*
X291139200Y86669000D01*
X291139200Y3484000D02*
X290552779Y4610504D01*
X291139200Y3484000D02*
X291725621Y4610504D01*
X291139200Y86669000D02*
X291725621Y85542496D01*
X291139200Y86669000D02*
X290552779Y85542496D01*
D11*
X-1001048Y-4073619D02*
X-1477238Y-4073619D01*
X-1477238Y-4073619D02*
X-1524857Y-4549809D01*
X-1524857Y-4549809D02*
X-1477238Y-4502190D01*
X-1477238Y-4502190D02*
X-1382000Y-4454571D01*
X-1382000Y-4454571D02*
X-1143905Y-4454571D01*
X-1143905Y-4454571D02*
X-1048667Y-4502190D01*
X-1048667Y-4502190D02*
X-1001048Y-4549809D01*
X-1001048Y-4549809D02*
X-953429Y-4645047D01*
X-953429Y-4645047D02*
X-953429Y-4883142D01*
X-953429Y-4883142D02*
X-1001048Y-4978380D01*
X-1001048Y-4978380D02*
X-1048667Y-5026000D01*
X-1048667Y-5026000D02*
X-1143905Y-5073619D01*
X-1143905Y-5073619D02*
X-1382000Y-5073619D01*
X-1382000Y-5073619D02*
X-1477238Y-5026000D01*
X-1477238Y-5026000D02*
X-1524857Y-4978380D01*
X-524857Y-4978380D02*
X-477238Y-5026000D01*
X-477238Y-5026000D02*
X-524857Y-5073619D01*
X-524857Y-5073619D02*
X-572476Y-5026000D01*
X-572476Y-5026000D02*
X-524857Y-4978380D01*
X-524857Y-4978380D02*
X-524857Y-5073619D01*
X141809Y-4073619D02*
X237047Y-4073619D01*
X237047Y-4073619D02*
X332285Y-4121238D01*
X332285Y-4121238D02*
X379904Y-4168857D01*
X379904Y-4168857D02*
X427523Y-4264095D01*
X427523Y-4264095D02*
X475142Y-4454571D01*
X475142Y-4454571D02*
X475142Y-4692666D01*
X475142Y-4692666D02*
X427523Y-4883142D01*
X427523Y-4883142D02*
X379904Y-4978380D01*
X379904Y-4978380D02*
X332285Y-5026000D01*
X332285Y-5026000D02*
X237047Y-5073619D01*
X237047Y-5073619D02*
X141809Y-5073619D01*
X141809Y-5073619D02*
X46571Y-5026000D01*
X46571Y-5026000D02*
X-1048Y-4978380D01*
X-1048Y-4978380D02*
X-48667Y-4883142D01*
X-48667Y-4883142D02*
X-96286Y-4692666D01*
X-96286Y-4692666D02*
X-96286Y-4454571D01*
X-96286Y-4454571D02*
X-48667Y-4264095D01*
X-48667Y-4264095D02*
X-1048Y-4168857D01*
X-1048Y-4168857D02*
X46571Y-4121238D01*
X46571Y-4121238D02*
X141809Y-4073619D01*
X1046571Y-4502190D02*
X951333Y-4454571D01*
X951333Y-4454571D02*
X903714Y-4406952D01*
X903714Y-4406952D02*
X856095Y-4311714D01*
X856095Y-4311714D02*
X856095Y-4264095D01*
X856095Y-4264095D02*
X903714Y-4168857D01*
X903714Y-4168857D02*
X951333Y-4121238D01*
X951333Y-4121238D02*
X1046571Y-4073619D01*
X1046571Y-4073619D02*
X1237047Y-4073619D01*
X1237047Y-4073619D02*
X1332285Y-4121238D01*
X1332285Y-4121238D02*
X1379904Y-4168857D01*
X1379904Y-4168857D02*
X1427523Y-4264095D01*
X1427523Y-4264095D02*
X1427523Y-4311714D01*
X1427523Y-4311714D02*
X1379904Y-4406952D01*
X1379904Y-4406952D02*
X1332285Y-4454571D01*
X1332285Y-4454571D02*
X1237047Y-4502190D01*
X1237047Y-4502190D02*
X1046571Y-4502190D01*
X1046571Y-4502190D02*
X951333Y-4549809D01*
X951333Y-4549809D02*
X903714Y-4597428D01*
X903714Y-4597428D02*
X856095Y-4692666D01*
X856095Y-4692666D02*
X856095Y-4883142D01*
X856095Y-4883142D02*
X903714Y-4978380D01*
X903714Y-4978380D02*
X951333Y-5026000D01*
X951333Y-5026000D02*
X1046571Y-5073619D01*
X1046571Y-5073619D02*
X1237047Y-5073619D01*
X1237047Y-5073619D02*
X1332285Y-5026000D01*
X1332285Y-5026000D02*
X1379904Y-4978380D01*
X1379904Y-4978380D02*
X1427523Y-4883142D01*
X1427523Y-4883142D02*
X1427523Y-4692666D01*
X1427523Y-4692666D02*
X1379904Y-4597428D01*
X1379904Y-4597428D02*
X1332285Y-4549809D01*
X1332285Y-4549809D02*
X1237047Y-4502190D01*
X2046571Y-4073619D02*
X2141809Y-4073619D01*
X2141809Y-4073619D02*
X2237047Y-4121238D01*
X2237047Y-4121238D02*
X2284666Y-4168857D01*
X2284666Y-4168857D02*
X2332285Y-4264095D01*
X2332285Y-4264095D02*
X2379904Y-4454571D01*
X2379904Y-4454571D02*
X2379904Y-4692666D01*
X2379904Y-4692666D02*
X2332285Y-4883142D01*
X2332285Y-4883142D02*
X2284666Y-4978380D01*
X2284666Y-4978380D02*
X2237047Y-5026000D01*
X2237047Y-5026000D02*
X2141809Y-5073619D01*
X2141809Y-5073619D02*
X2046571Y-5073619D01*
X2046571Y-5073619D02*
X1951333Y-5026000D01*
X1951333Y-5026000D02*
X1903714Y-4978380D01*
X1903714Y-4978380D02*
X1856095Y-4883142D01*
X1856095Y-4883142D02*
X1808476Y-4692666D01*
X1808476Y-4692666D02*
X1808476Y-4454571D01*
X1808476Y-4454571D02*
X1856095Y-4264095D01*
X1856095Y-4264095D02*
X1903714Y-4168857D01*
X1903714Y-4168857D02*
X1951333Y-4121238D01*
X1951333Y-4121238D02*
X2046571Y-4073619D01*
X2998952Y-4073619D02*
X3094190Y-4073619D01*
X3094190Y-4073619D02*
X3189428Y-4121238D01*
X3189428Y-4121238D02*
X3237047Y-4168857D01*
X3237047Y-4168857D02*
X3284666Y-4264095D01*
X3284666Y-4264095D02*
X3332285Y-4454571D01*
X3332285Y-4454571D02*
X3332285Y-4692666D01*
X3332285Y-4692666D02*
X3284666Y-4883142D01*
X3284666Y-4883142D02*
X3237047Y-4978380D01*
X3237047Y-4978380D02*
X3189428Y-5026000D01*
X3189428Y-5026000D02*
X3094190Y-5073619D01*
X3094190Y-5073619D02*
X2998952Y-5073619D01*
X2998952Y-5073619D02*
X2903714Y-5026000D01*
X2903714Y-5026000D02*
X2856095Y-4978380D01*
X2856095Y-4978380D02*
X2808476Y-4883142D01*
X2808476Y-4883142D02*
X2760857Y-4692666D01*
X2760857Y-4692666D02*
X2760857Y-4454571D01*
X2760857Y-4454571D02*
X2808476Y-4264095D01*
X2808476Y-4264095D02*
X2856095Y-4168857D01*
X2856095Y-4168857D02*
X2903714Y-4121238D01*
X2903714Y-4121238D02*
X2998952Y-4073619D01*
X4522762Y-5073619D02*
X4522762Y-4406952D01*
X4522762Y-4502190D02*
X4570381Y-4454571D01*
X4570381Y-4454571D02*
X4665619Y-4406952D01*
X4665619Y-4406952D02*
X4808476Y-4406952D01*
X4808476Y-4406952D02*
X4903714Y-4454571D01*
X4903714Y-4454571D02*
X4951333Y-4549809D01*
X4951333Y-4549809D02*
X4951333Y-5073619D01*
X4951333Y-4549809D02*
X4998952Y-4454571D01*
X4998952Y-4454571D02*
X5094190Y-4406952D01*
X5094190Y-4406952D02*
X5237047Y-4406952D01*
X5237047Y-4406952D02*
X5332286Y-4454571D01*
X5332286Y-4454571D02*
X5379905Y-4549809D01*
X5379905Y-4549809D02*
X5379905Y-5073619D01*
X5856095Y-5073619D02*
X5856095Y-4406952D01*
X5856095Y-4502190D02*
X5903714Y-4454571D01*
X5903714Y-4454571D02*
X5998952Y-4406952D01*
X5998952Y-4406952D02*
X6141809Y-4406952D01*
X6141809Y-4406952D02*
X6237047Y-4454571D01*
X6237047Y-4454571D02*
X6284666Y-4549809D01*
X6284666Y-4549809D02*
X6284666Y-5073619D01*
X6284666Y-4549809D02*
X6332285Y-4454571D01*
X6332285Y-4454571D02*
X6427523Y-4406952D01*
X6427523Y-4406952D02*
X6570380Y-4406952D01*
X6570380Y-4406952D02*
X6665619Y-4454571D01*
X6665619Y-4454571D02*
X6713238Y-4549809D01*
X6713238Y-4549809D02*
X6713238Y-5073619D01*
D10*
X78000Y-376000D02*
X78000Y-6355220D01*
X5158000Y-376000D02*
X5158000Y-6355220D01*
X78000Y-5768800D02*
X5158000Y-5768800D01*
X78000Y-5768800D02*
X5158000Y-5768800D01*
X78000Y-5768800D02*
X1204504Y-5182379D01*
X78000Y-5768800D02*
X1204504Y-6355221D01*
X5158000Y-5768800D02*
X4031496Y-6355221D01*
X5158000Y-5768800D02*
X4031496Y-5182379D01*
D11*
X-8747181Y-969047D02*
X-8747181Y-1445237D01*
X-8747181Y-1445237D02*
X-8270991Y-1492856D01*
X-8270991Y-1492856D02*
X-8318610Y-1445237D01*
X-8318610Y-1445237D02*
X-8366229Y-1349999D01*
X-8366229Y-1349999D02*
X-8366229Y-1111904D01*
X-8366229Y-1111904D02*
X-8318610Y-1016666D01*
X-8318610Y-1016666D02*
X-8270991Y-969047D01*
X-8270991Y-969047D02*
X-8175753Y-921428D01*
X-8175753Y-921428D02*
X-7937658Y-921428D01*
X-7937658Y-921428D02*
X-7842420Y-969047D01*
X-7842420Y-969047D02*
X-7794800Y-1016666D01*
X-7794800Y-1016666D02*
X-7747181Y-1111904D01*
X-7747181Y-1111904D02*
X-7747181Y-1349999D01*
X-7747181Y-1349999D02*
X-7794800Y-1445237D01*
X-7794800Y-1445237D02*
X-7842420Y-1492856D01*
X-7842420Y-492856D02*
X-7794800Y-445237D01*
X-7794800Y-445237D02*
X-7747181Y-492856D01*
X-7747181Y-492856D02*
X-7794800Y-540475D01*
X-7794800Y-540475D02*
X-7842420Y-492856D01*
X-7842420Y-492856D02*
X-7747181Y-492856D01*
X-8747181Y173810D02*
X-8747181Y269048D01*
X-8747181Y269048D02*
X-8699562Y364286D01*
X-8699562Y364286D02*
X-8651943Y411905D01*
X-8651943Y411905D02*
X-8556705Y459524D01*
X-8556705Y459524D02*
X-8366229Y507143D01*
X-8366229Y507143D02*
X-8128134Y507143D01*
X-8128134Y507143D02*
X-7937658Y459524D01*
X-7937658Y459524D02*
X-7842420Y411905D01*
X-7842420Y411905D02*
X-7794800Y364286D01*
X-7794800Y364286D02*
X-7747181Y269048D01*
X-7747181Y269048D02*
X-7747181Y173810D01*
X-7747181Y173810D02*
X-7794800Y78572D01*
X-7794800Y78572D02*
X-7842420Y30953D01*
X-7842420Y30953D02*
X-7937658Y-16666D01*
X-7937658Y-16666D02*
X-8128134Y-64285D01*
X-8128134Y-64285D02*
X-8366229Y-64285D01*
X-8366229Y-64285D02*
X-8556705Y-16666D01*
X-8556705Y-16666D02*
X-8651943Y30953D01*
X-8651943Y30953D02*
X-8699562Y78572D01*
X-8699562Y78572D02*
X-8747181Y173810D01*
X-8318610Y1078572D02*
X-8366229Y983334D01*
X-8366229Y983334D02*
X-8413848Y935715D01*
X-8413848Y935715D02*
X-8509086Y888096D01*
X-8509086Y888096D02*
X-8556705Y888096D01*
X-8556705Y888096D02*
X-8651943Y935715D01*
X-8651943Y935715D02*
X-8699562Y983334D01*
X-8699562Y983334D02*
X-8747181Y1078572D01*
X-8747181Y1078572D02*
X-8747181Y1269048D01*
X-8747181Y1269048D02*
X-8699562Y1364286D01*
X-8699562Y1364286D02*
X-8651943Y1411905D01*
X-8651943Y1411905D02*
X-8556705Y1459524D01*
X-8556705Y1459524D02*
X-8509086Y1459524D01*
X-8509086Y1459524D02*
X-8413848Y1411905D01*
X-8413848Y1411905D02*
X-8366229Y1364286D01*
X-8366229Y1364286D02*
X-8318610Y1269048D01*
X-8318610Y1269048D02*
X-8318610Y1078572D01*
X-8318610Y1078572D02*
X-8270991Y983334D01*
X-8270991Y983334D02*
X-8223372Y935715D01*
X-8223372Y935715D02*
X-8128134Y888096D01*
X-8128134Y888096D02*
X-7937658Y888096D01*
X-7937658Y888096D02*
X-7842420Y935715D01*
X-7842420Y935715D02*
X-7794800Y983334D01*
X-7794800Y983334D02*
X-7747181Y1078572D01*
X-7747181Y1078572D02*
X-7747181Y1269048D01*
X-7747181Y1269048D02*
X-7794800Y1364286D01*
X-7794800Y1364286D02*
X-7842420Y1411905D01*
X-7842420Y1411905D02*
X-7937658Y1459524D01*
X-7937658Y1459524D02*
X-8128134Y1459524D01*
X-8128134Y1459524D02*
X-8223372Y1411905D01*
X-8223372Y1411905D02*
X-8270991Y1364286D01*
X-8270991Y1364286D02*
X-8318610Y1269048D01*
X-8747181Y2078572D02*
X-8747181Y2173810D01*
X-8747181Y2173810D02*
X-8699562Y2269048D01*
X-8699562Y2269048D02*
X-8651943Y2316667D01*
X-8651943Y2316667D02*
X-8556705Y2364286D01*
X-8556705Y2364286D02*
X-8366229Y2411905D01*
X-8366229Y2411905D02*
X-8128134Y2411905D01*
X-8128134Y2411905D02*
X-7937658Y2364286D01*
X-7937658Y2364286D02*
X-7842420Y2316667D01*
X-7842420Y2316667D02*
X-7794800Y2269048D01*
X-7794800Y2269048D02*
X-7747181Y2173810D01*
X-7747181Y2173810D02*
X-7747181Y2078572D01*
X-7747181Y2078572D02*
X-7794800Y1983334D01*
X-7794800Y1983334D02*
X-7842420Y1935715D01*
X-7842420Y1935715D02*
X-7937658Y1888096D01*
X-7937658Y1888096D02*
X-8128134Y1840477D01*
X-8128134Y1840477D02*
X-8366229Y1840477D01*
X-8366229Y1840477D02*
X-8556705Y1888096D01*
X-8556705Y1888096D02*
X-8651943Y1935715D01*
X-8651943Y1935715D02*
X-8699562Y1983334D01*
X-8699562Y1983334D02*
X-8747181Y2078572D01*
X-8747181Y3030953D02*
X-8747181Y3126191D01*
X-8747181Y3126191D02*
X-8699562Y3221429D01*
X-8699562Y3221429D02*
X-8651943Y3269048D01*
X-8651943Y3269048D02*
X-8556705Y3316667D01*
X-8556705Y3316667D02*
X-8366229Y3364286D01*
X-8366229Y3364286D02*
X-8128134Y3364286D01*
X-8128134Y3364286D02*
X-7937658Y3316667D01*
X-7937658Y3316667D02*
X-7842420Y3269048D01*
X-7842420Y3269048D02*
X-7794800Y3221429D01*
X-7794800Y3221429D02*
X-7747181Y3126191D01*
X-7747181Y3126191D02*
X-7747181Y3030953D01*
X-7747181Y3030953D02*
X-7794800Y2935715D01*
X-7794800Y2935715D02*
X-7842420Y2888096D01*
X-7842420Y2888096D02*
X-7937658Y2840477D01*
X-7937658Y2840477D02*
X-8128134Y2792858D01*
X-8128134Y2792858D02*
X-8366229Y2792858D01*
X-8366229Y2792858D02*
X-8556705Y2840477D01*
X-8556705Y2840477D02*
X-8651943Y2888096D01*
X-8651943Y2888096D02*
X-8699562Y2935715D01*
X-8699562Y2935715D02*
X-8747181Y3030953D01*
X-7747181Y4554763D02*
X-8413848Y4554763D01*
X-8318610Y4554763D02*
X-8366229Y4602382D01*
X-8366229Y4602382D02*
X-8413848Y4697620D01*
X-8413848Y4697620D02*
X-8413848Y4840477D01*
X-8413848Y4840477D02*
X-8366229Y4935715D01*
X-8366229Y4935715D02*
X-8270991Y4983334D01*
X-8270991Y4983334D02*
X-7747181Y4983334D01*
X-8270991Y4983334D02*
X-8366229Y5030953D01*
X-8366229Y5030953D02*
X-8413848Y5126191D01*
X-8413848Y5126191D02*
X-8413848Y5269048D01*
X-8413848Y5269048D02*
X-8366229Y5364287D01*
X-8366229Y5364287D02*
X-8270991Y5411906D01*
X-8270991Y5411906D02*
X-7747181Y5411906D01*
X-7747181Y5888096D02*
X-8413848Y5888096D01*
X-8318610Y5888096D02*
X-8366229Y5935715D01*
X-8366229Y5935715D02*
X-8413848Y6030953D01*
X-8413848Y6030953D02*
X-8413848Y6173810D01*
X-8413848Y6173810D02*
X-8366229Y6269048D01*
X-8366229Y6269048D02*
X-8270991Y6316667D01*
X-8270991Y6316667D02*
X-7747181Y6316667D01*
X-8270991Y6316667D02*
X-8366229Y6364286D01*
X-8366229Y6364286D02*
X-8413848Y6459524D01*
X-8413848Y6459524D02*
X-8413848Y6602381D01*
X-8413848Y6602381D02*
X-8366229Y6697620D01*
X-8366229Y6697620D02*
X-8270991Y6745239D01*
X-8270991Y6745239D02*
X-7747181Y6745239D01*
D10*
X2100000Y5190000D02*
X-7638420Y5190000D01*
X2100000Y110000D02*
X-7638420Y110000D01*
X-7052000Y5190000D02*
X-7052000Y110000D01*
X-7052000Y5190000D02*
X-7052000Y110000D01*
X-7052000Y5190000D02*
X-6465579Y4063496D01*
X-7052000Y5190000D02*
X-7638421Y4063496D01*
X-7052000Y110000D02*
X-7638421Y1236504D01*
X-7052000Y110000D02*
X-6465579Y1236504D01*
D11*
X-19425810Y39827930D02*
X-19473429Y39732692D01*
X-19473429Y39732692D02*
X-19521048Y39685073D01*
X-19521048Y39685073D02*
X-19616286Y39637454D01*
X-19616286Y39637454D02*
X-19663905Y39637454D01*
X-19663905Y39637454D02*
X-19759143Y39685073D01*
X-19759143Y39685073D02*
X-19806762Y39732692D01*
X-19806762Y39732692D02*
X-19854381Y39827930D01*
X-19854381Y39827930D02*
X-19854381Y40018406D01*
X-19854381Y40018406D02*
X-19806762Y40113644D01*
X-19806762Y40113644D02*
X-19759143Y40161263D01*
X-19759143Y40161263D02*
X-19663905Y40208882D01*
X-19663905Y40208882D02*
X-19616286Y40208882D01*
X-19616286Y40208882D02*
X-19521048Y40161263D01*
X-19521048Y40161263D02*
X-19473429Y40113644D01*
X-19473429Y40113644D02*
X-19425810Y40018406D01*
X-19425810Y40018406D02*
X-19425810Y39827930D01*
X-19425810Y39827930D02*
X-19378191Y39732692D01*
X-19378191Y39732692D02*
X-19330572Y39685073D01*
X-19330572Y39685073D02*
X-19235334Y39637454D01*
X-19235334Y39637454D02*
X-19044858Y39637454D01*
X-19044858Y39637454D02*
X-18949620Y39685073D01*
X-18949620Y39685073D02*
X-18902000Y39732692D01*
X-18902000Y39732692D02*
X-18854381Y39827930D01*
X-18854381Y39827930D02*
X-18854381Y40018406D01*
X-18854381Y40018406D02*
X-18902000Y40113644D01*
X-18902000Y40113644D02*
X-18949620Y40161263D01*
X-18949620Y40161263D02*
X-19044858Y40208882D01*
X-19044858Y40208882D02*
X-19235334Y40208882D01*
X-19235334Y40208882D02*
X-19330572Y40161263D01*
X-19330572Y40161263D02*
X-19378191Y40113644D01*
X-19378191Y40113644D02*
X-19425810Y40018406D01*
X-19425810Y40780311D02*
X-19473429Y40685073D01*
X-19473429Y40685073D02*
X-19521048Y40637454D01*
X-19521048Y40637454D02*
X-19616286Y40589835D01*
X-19616286Y40589835D02*
X-19663905Y40589835D01*
X-19663905Y40589835D02*
X-19759143Y40637454D01*
X-19759143Y40637454D02*
X-19806762Y40685073D01*
X-19806762Y40685073D02*
X-19854381Y40780311D01*
X-19854381Y40780311D02*
X-19854381Y40970787D01*
X-19854381Y40970787D02*
X-19806762Y41066025D01*
X-19806762Y41066025D02*
X-19759143Y41113644D01*
X-19759143Y41113644D02*
X-19663905Y41161263D01*
X-19663905Y41161263D02*
X-19616286Y41161263D01*
X-19616286Y41161263D02*
X-19521048Y41113644D01*
X-19521048Y41113644D02*
X-19473429Y41066025D01*
X-19473429Y41066025D02*
X-19425810Y40970787D01*
X-19425810Y40970787D02*
X-19425810Y40780311D01*
X-19425810Y40780311D02*
X-19378191Y40685073D01*
X-19378191Y40685073D02*
X-19330572Y40637454D01*
X-19330572Y40637454D02*
X-19235334Y40589835D01*
X-19235334Y40589835D02*
X-19044858Y40589835D01*
X-19044858Y40589835D02*
X-18949620Y40637454D01*
X-18949620Y40637454D02*
X-18902000Y40685073D01*
X-18902000Y40685073D02*
X-18854381Y40780311D01*
X-18854381Y40780311D02*
X-18854381Y40970787D01*
X-18854381Y40970787D02*
X-18902000Y41066025D01*
X-18902000Y41066025D02*
X-18949620Y41113644D01*
X-18949620Y41113644D02*
X-19044858Y41161263D01*
X-19044858Y41161263D02*
X-19235334Y41161263D01*
X-19235334Y41161263D02*
X-19330572Y41113644D01*
X-19330572Y41113644D02*
X-19378191Y41066025D01*
X-19378191Y41066025D02*
X-19425810Y40970787D01*
X-18949620Y41589835D02*
X-18902000Y41637454D01*
X-18902000Y41637454D02*
X-18854381Y41589835D01*
X-18854381Y41589835D02*
X-18902000Y41542216D01*
X-18902000Y41542216D02*
X-18949620Y41589835D01*
X-18949620Y41589835D02*
X-18854381Y41589835D01*
X-19759143Y42018406D02*
X-19806762Y42066025D01*
X-19806762Y42066025D02*
X-19854381Y42161263D01*
X-19854381Y42161263D02*
X-19854381Y42399358D01*
X-19854381Y42399358D02*
X-19806762Y42494596D01*
X-19806762Y42494596D02*
X-19759143Y42542215D01*
X-19759143Y42542215D02*
X-19663905Y42589834D01*
X-19663905Y42589834D02*
X-19568667Y42589834D01*
X-19568667Y42589834D02*
X-19425810Y42542215D01*
X-19425810Y42542215D02*
X-18854381Y41970787D01*
X-18854381Y41970787D02*
X-18854381Y42589834D01*
X-19854381Y43446977D02*
X-19854381Y43256501D01*
X-19854381Y43256501D02*
X-19806762Y43161263D01*
X-19806762Y43161263D02*
X-19759143Y43113644D01*
X-19759143Y43113644D02*
X-19616286Y43018406D01*
X-19616286Y43018406D02*
X-19425810Y42970787D01*
X-19425810Y42970787D02*
X-19044858Y42970787D01*
X-19044858Y42970787D02*
X-18949620Y43018406D01*
X-18949620Y43018406D02*
X-18902000Y43066025D01*
X-18902000Y43066025D02*
X-18854381Y43161263D01*
X-18854381Y43161263D02*
X-18854381Y43351739D01*
X-18854381Y43351739D02*
X-18902000Y43446977D01*
X-18902000Y43446977D02*
X-18949620Y43494596D01*
X-18949620Y43494596D02*
X-19044858Y43542215D01*
X-19044858Y43542215D02*
X-19282953Y43542215D01*
X-19282953Y43542215D02*
X-19378191Y43494596D01*
X-19378191Y43494596D02*
X-19425810Y43446977D01*
X-19425810Y43446977D02*
X-19473429Y43351739D01*
X-19473429Y43351739D02*
X-19473429Y43161263D01*
X-19473429Y43161263D02*
X-19425810Y43066025D01*
X-19425810Y43066025D02*
X-19378191Y43018406D01*
X-19378191Y43018406D02*
X-19282953Y42970787D01*
X-19854381Y44446977D02*
X-19854381Y43970787D01*
X-19854381Y43970787D02*
X-19378191Y43923168D01*
X-19378191Y43923168D02*
X-19425810Y43970787D01*
X-19425810Y43970787D02*
X-19473429Y44066025D01*
X-19473429Y44066025D02*
X-19473429Y44304120D01*
X-19473429Y44304120D02*
X-19425810Y44399358D01*
X-19425810Y44399358D02*
X-19378191Y44446977D01*
X-19378191Y44446977D02*
X-19282953Y44494596D01*
X-19282953Y44494596D02*
X-19044858Y44494596D01*
X-19044858Y44494596D02*
X-18949620Y44446977D01*
X-18949620Y44446977D02*
X-18902000Y44399358D01*
X-18902000Y44399358D02*
X-18854381Y44304120D01*
X-18854381Y44304120D02*
X-18854381Y44066025D01*
X-18854381Y44066025D02*
X-18902000Y43970787D01*
X-18902000Y43970787D02*
X-18949620Y43923168D01*
X-19854381Y45113644D02*
X-19854381Y45208882D01*
X-19854381Y45208882D02*
X-19806762Y45304120D01*
X-19806762Y45304120D02*
X-19759143Y45351739D01*
X-19759143Y45351739D02*
X-19663905Y45399358D01*
X-19663905Y45399358D02*
X-19473429Y45446977D01*
X-19473429Y45446977D02*
X-19235334Y45446977D01*
X-19235334Y45446977D02*
X-19044858Y45399358D01*
X-19044858Y45399358D02*
X-18949620Y45351739D01*
X-18949620Y45351739D02*
X-18902000Y45304120D01*
X-18902000Y45304120D02*
X-18854381Y45208882D01*
X-18854381Y45208882D02*
X-18854381Y45113644D01*
X-18854381Y45113644D02*
X-18902000Y45018406D01*
X-18902000Y45018406D02*
X-18949620Y44970787D01*
X-18949620Y44970787D02*
X-19044858Y44923168D01*
X-19044858Y44923168D02*
X-19235334Y44875549D01*
X-19235334Y44875549D02*
X-19473429Y44875549D01*
X-19473429Y44875549D02*
X-19663905Y44923168D01*
X-19663905Y44923168D02*
X-19759143Y44970787D01*
X-19759143Y44970787D02*
X-19806762Y45018406D01*
X-19806762Y45018406D02*
X-19854381Y45113644D01*
X-18854381Y46637454D02*
X-19521048Y46637454D01*
X-19425810Y46637454D02*
X-19473429Y46685073D01*
X-19473429Y46685073D02*
X-19521048Y46780311D01*
X-19521048Y46780311D02*
X-19521048Y46923168D01*
X-19521048Y46923168D02*
X-19473429Y47018406D01*
X-19473429Y47018406D02*
X-19378191Y47066025D01*
X-19378191Y47066025D02*
X-18854381Y47066025D01*
X-19378191Y47066025D02*
X-19473429Y47113644D01*
X-19473429Y47113644D02*
X-19521048Y47208882D01*
X-19521048Y47208882D02*
X-19521048Y47351739D01*
X-19521048Y47351739D02*
X-19473429Y47446978D01*
X-19473429Y47446978D02*
X-19378191Y47494597D01*
X-19378191Y47494597D02*
X-18854381Y47494597D01*
X-18854381Y47970787D02*
X-19521048Y47970787D01*
X-19425810Y47970787D02*
X-19473429Y48018406D01*
X-19473429Y48018406D02*
X-19521048Y48113644D01*
X-19521048Y48113644D02*
X-19521048Y48256501D01*
X-19521048Y48256501D02*
X-19473429Y48351739D01*
X-19473429Y48351739D02*
X-19378191Y48399358D01*
X-19378191Y48399358D02*
X-18854381Y48399358D01*
X-19378191Y48399358D02*
X-19473429Y48446977D01*
X-19473429Y48446977D02*
X-19521048Y48542215D01*
X-19521048Y48542215D02*
X-19521048Y48685072D01*
X-19521048Y48685072D02*
X-19473429Y48780311D01*
X-19473429Y48780311D02*
X-19378191Y48827930D01*
X-19378191Y48827930D02*
X-18854381Y48827930D01*
D10*
X-422000Y124000D02*
X-18745620Y124000D01*
X-422000Y88389000D02*
X-18745620Y88389000D01*
X-18159200Y124000D02*
X-18159200Y88389000D01*
X-18159200Y124000D02*
X-18159200Y88389000D01*
X-18159200Y124000D02*
X-18745621Y1250504D01*
X-18159200Y124000D02*
X-17572779Y1250504D01*
X-18159200Y88389000D02*
X-17572779Y87262496D01*
X-18159200Y88389000D02*
X-18745621Y87262496D01*
D11*
X-16987410Y37287930D02*
X-17035029Y37192692D01*
X-17035029Y37192692D02*
X-17082648Y37145073D01*
X-17082648Y37145073D02*
X-17177886Y37097454D01*
X-17177886Y37097454D02*
X-17225505Y37097454D01*
X-17225505Y37097454D02*
X-17320743Y37145073D01*
X-17320743Y37145073D02*
X-17368362Y37192692D01*
X-17368362Y37192692D02*
X-17415981Y37287930D01*
X-17415981Y37287930D02*
X-17415981Y37478406D01*
X-17415981Y37478406D02*
X-17368362Y37573644D01*
X-17368362Y37573644D02*
X-17320743Y37621263D01*
X-17320743Y37621263D02*
X-17225505Y37668882D01*
X-17225505Y37668882D02*
X-17177886Y37668882D01*
X-17177886Y37668882D02*
X-17082648Y37621263D01*
X-17082648Y37621263D02*
X-17035029Y37573644D01*
X-17035029Y37573644D02*
X-16987410Y37478406D01*
X-16987410Y37478406D02*
X-16987410Y37287930D01*
X-16987410Y37287930D02*
X-16939791Y37192692D01*
X-16939791Y37192692D02*
X-16892172Y37145073D01*
X-16892172Y37145073D02*
X-16796934Y37097454D01*
X-16796934Y37097454D02*
X-16606458Y37097454D01*
X-16606458Y37097454D02*
X-16511220Y37145073D01*
X-16511220Y37145073D02*
X-16463600Y37192692D01*
X-16463600Y37192692D02*
X-16415981Y37287930D01*
X-16415981Y37287930D02*
X-16415981Y37478406D01*
X-16415981Y37478406D02*
X-16463600Y37573644D01*
X-16463600Y37573644D02*
X-16511220Y37621263D01*
X-16511220Y37621263D02*
X-16606458Y37668882D01*
X-16606458Y37668882D02*
X-16796934Y37668882D01*
X-16796934Y37668882D02*
X-16892172Y37621263D01*
X-16892172Y37621263D02*
X-16939791Y37573644D01*
X-16939791Y37573644D02*
X-16987410Y37478406D01*
X-17415981Y38002216D02*
X-17415981Y38621263D01*
X-17415981Y38621263D02*
X-17035029Y38287930D01*
X-17035029Y38287930D02*
X-17035029Y38430787D01*
X-17035029Y38430787D02*
X-16987410Y38526025D01*
X-16987410Y38526025D02*
X-16939791Y38573644D01*
X-16939791Y38573644D02*
X-16844553Y38621263D01*
X-16844553Y38621263D02*
X-16606458Y38621263D01*
X-16606458Y38621263D02*
X-16511220Y38573644D01*
X-16511220Y38573644D02*
X-16463600Y38526025D01*
X-16463600Y38526025D02*
X-16415981Y38430787D01*
X-16415981Y38430787D02*
X-16415981Y38145073D01*
X-16415981Y38145073D02*
X-16463600Y38049835D01*
X-16463600Y38049835D02*
X-16511220Y38002216D01*
X-16511220Y39049835D02*
X-16463600Y39097454D01*
X-16463600Y39097454D02*
X-16415981Y39049835D01*
X-16415981Y39049835D02*
X-16463600Y39002216D01*
X-16463600Y39002216D02*
X-16511220Y39049835D01*
X-16511220Y39049835D02*
X-16415981Y39049835D01*
X-16415981Y40049834D02*
X-16415981Y39478406D01*
X-16415981Y39764120D02*
X-17415981Y39764120D01*
X-17415981Y39764120D02*
X-17273124Y39668882D01*
X-17273124Y39668882D02*
X-17177886Y39573644D01*
X-17177886Y39573644D02*
X-17130267Y39478406D01*
X-16987410Y40621263D02*
X-17035029Y40526025D01*
X-17035029Y40526025D02*
X-17082648Y40478406D01*
X-17082648Y40478406D02*
X-17177886Y40430787D01*
X-17177886Y40430787D02*
X-17225505Y40430787D01*
X-17225505Y40430787D02*
X-17320743Y40478406D01*
X-17320743Y40478406D02*
X-17368362Y40526025D01*
X-17368362Y40526025D02*
X-17415981Y40621263D01*
X-17415981Y40621263D02*
X-17415981Y40811739D01*
X-17415981Y40811739D02*
X-17368362Y40906977D01*
X-17368362Y40906977D02*
X-17320743Y40954596D01*
X-17320743Y40954596D02*
X-17225505Y41002215D01*
X-17225505Y41002215D02*
X-17177886Y41002215D01*
X-17177886Y41002215D02*
X-17082648Y40954596D01*
X-17082648Y40954596D02*
X-17035029Y40906977D01*
X-17035029Y40906977D02*
X-16987410Y40811739D01*
X-16987410Y40811739D02*
X-16987410Y40621263D01*
X-16987410Y40621263D02*
X-16939791Y40526025D01*
X-16939791Y40526025D02*
X-16892172Y40478406D01*
X-16892172Y40478406D02*
X-16796934Y40430787D01*
X-16796934Y40430787D02*
X-16606458Y40430787D01*
X-16606458Y40430787D02*
X-16511220Y40478406D01*
X-16511220Y40478406D02*
X-16463600Y40526025D01*
X-16463600Y40526025D02*
X-16415981Y40621263D01*
X-16415981Y40621263D02*
X-16415981Y40811739D01*
X-16415981Y40811739D02*
X-16463600Y40906977D01*
X-16463600Y40906977D02*
X-16511220Y40954596D01*
X-16511220Y40954596D02*
X-16606458Y41002215D01*
X-16606458Y41002215D02*
X-16796934Y41002215D01*
X-16796934Y41002215D02*
X-16892172Y40954596D01*
X-16892172Y40954596D02*
X-16939791Y40906977D01*
X-16939791Y40906977D02*
X-16987410Y40811739D01*
X-17415981Y41906977D02*
X-17415981Y41430787D01*
X-17415981Y41430787D02*
X-16939791Y41383168D01*
X-16939791Y41383168D02*
X-16987410Y41430787D01*
X-16987410Y41430787D02*
X-17035029Y41526025D01*
X-17035029Y41526025D02*
X-17035029Y41764120D01*
X-17035029Y41764120D02*
X-16987410Y41859358D01*
X-16987410Y41859358D02*
X-16939791Y41906977D01*
X-16939791Y41906977D02*
X-16844553Y41954596D01*
X-16844553Y41954596D02*
X-16606458Y41954596D01*
X-16606458Y41954596D02*
X-16511220Y41906977D01*
X-16511220Y41906977D02*
X-16463600Y41859358D01*
X-16463600Y41859358D02*
X-16415981Y41764120D01*
X-16415981Y41764120D02*
X-16415981Y41526025D01*
X-16415981Y41526025D02*
X-16463600Y41430787D01*
X-16463600Y41430787D02*
X-16511220Y41383168D01*
X-17415981Y42573644D02*
X-17415981Y42668882D01*
X-17415981Y42668882D02*
X-17368362Y42764120D01*
X-17368362Y42764120D02*
X-17320743Y42811739D01*
X-17320743Y42811739D02*
X-17225505Y42859358D01*
X-17225505Y42859358D02*
X-17035029Y42906977D01*
X-17035029Y42906977D02*
X-16796934Y42906977D01*
X-16796934Y42906977D02*
X-16606458Y42859358D01*
X-16606458Y42859358D02*
X-16511220Y42811739D01*
X-16511220Y42811739D02*
X-16463600Y42764120D01*
X-16463600Y42764120D02*
X-16415981Y42668882D01*
X-16415981Y42668882D02*
X-16415981Y42573644D01*
X-16415981Y42573644D02*
X-16463600Y42478406D01*
X-16463600Y42478406D02*
X-16511220Y42430787D01*
X-16511220Y42430787D02*
X-16606458Y42383168D01*
X-16606458Y42383168D02*
X-16796934Y42335549D01*
X-16796934Y42335549D02*
X-17035029Y42335549D01*
X-17035029Y42335549D02*
X-17225505Y42383168D01*
X-17225505Y42383168D02*
X-17320743Y42430787D01*
X-17320743Y42430787D02*
X-17368362Y42478406D01*
X-17368362Y42478406D02*
X-17415981Y42573644D01*
X-16415981Y44097454D02*
X-17082648Y44097454D01*
X-16987410Y44097454D02*
X-17035029Y44145073D01*
X-17035029Y44145073D02*
X-17082648Y44240311D01*
X-17082648Y44240311D02*
X-17082648Y44383168D01*
X-17082648Y44383168D02*
X-17035029Y44478406D01*
X-17035029Y44478406D02*
X-16939791Y44526025D01*
X-16939791Y44526025D02*
X-16415981Y44526025D01*
X-16939791Y44526025D02*
X-17035029Y44573644D01*
X-17035029Y44573644D02*
X-17082648Y44668882D01*
X-17082648Y44668882D02*
X-17082648Y44811739D01*
X-17082648Y44811739D02*
X-17035029Y44906978D01*
X-17035029Y44906978D02*
X-16939791Y44954597D01*
X-16939791Y44954597D02*
X-16415981Y44954597D01*
X-16415981Y45430787D02*
X-17082648Y45430787D01*
X-16987410Y45430787D02*
X-17035029Y45478406D01*
X-17035029Y45478406D02*
X-17082648Y45573644D01*
X-17082648Y45573644D02*
X-17082648Y45716501D01*
X-17082648Y45716501D02*
X-17035029Y45811739D01*
X-17035029Y45811739D02*
X-16939791Y45859358D01*
X-16939791Y45859358D02*
X-16415981Y45859358D01*
X-16939791Y45859358D02*
X-17035029Y45906977D01*
X-17035029Y45906977D02*
X-17082648Y46002215D01*
X-17082648Y46002215D02*
X-17082648Y46145072D01*
X-17082648Y46145072D02*
X-17035029Y46240311D01*
X-17035029Y46240311D02*
X-16939791Y46287930D01*
X-16939791Y46287930D02*
X-16415981Y46287930D01*
D10*
X-422000Y124000D02*
X-16307220Y124000D01*
X-422000Y83309000D02*
X-16307220Y83309000D01*
X-15720800Y124000D02*
X-15720800Y83309000D01*
X-15720800Y124000D02*
X-15720800Y83309000D01*
X-15720800Y124000D02*
X-16307221Y1250504D01*
X-15720800Y124000D02*
X-15134379Y1250504D01*
X-15720800Y83309000D02*
X-15134379Y82182496D01*
X-15720800Y83309000D02*
X-16307221Y82182496D01*
D11*
X3015381Y105263980D02*
X2443953Y105263980D01*
X2729667Y105263980D02*
X2729667Y106263980D01*
X2729667Y106263980D02*
X2634429Y106121123D01*
X2634429Y106121123D02*
X2539191Y106025885D01*
X2539191Y106025885D02*
X2443953Y105978266D01*
X3348715Y106263980D02*
X3967762Y106263980D01*
X3967762Y106263980D02*
X3634429Y105883028D01*
X3634429Y105883028D02*
X3777286Y105883028D01*
X3777286Y105883028D02*
X3872524Y105835409D01*
X3872524Y105835409D02*
X3920143Y105787790D01*
X3920143Y105787790D02*
X3967762Y105692552D01*
X3967762Y105692552D02*
X3967762Y105454457D01*
X3967762Y105454457D02*
X3920143Y105359219D01*
X3920143Y105359219D02*
X3872524Y105311599D01*
X3872524Y105311599D02*
X3777286Y105263980D01*
X3777286Y105263980D02*
X3491572Y105263980D01*
X3491572Y105263980D02*
X3396334Y105311599D01*
X3396334Y105311599D02*
X3348715Y105359219D01*
X4396334Y105359219D02*
X4443953Y105311599D01*
X4443953Y105311599D02*
X4396334Y105263980D01*
X4396334Y105263980D02*
X4348715Y105311599D01*
X4348715Y105311599D02*
X4396334Y105359219D01*
X4396334Y105359219D02*
X4396334Y105263980D01*
X4920143Y105263980D02*
X5110619Y105263980D01*
X5110619Y105263980D02*
X5205857Y105311599D01*
X5205857Y105311599D02*
X5253476Y105359219D01*
X5253476Y105359219D02*
X5348714Y105502076D01*
X5348714Y105502076D02*
X5396333Y105692552D01*
X5396333Y105692552D02*
X5396333Y106073504D01*
X5396333Y106073504D02*
X5348714Y106168742D01*
X5348714Y106168742D02*
X5301095Y106216361D01*
X5301095Y106216361D02*
X5205857Y106263980D01*
X5205857Y106263980D02*
X5015381Y106263980D01*
X5015381Y106263980D02*
X4920143Y106216361D01*
X4920143Y106216361D02*
X4872524Y106168742D01*
X4872524Y106168742D02*
X4824905Y106073504D01*
X4824905Y106073504D02*
X4824905Y105835409D01*
X4824905Y105835409D02*
X4872524Y105740171D01*
X4872524Y105740171D02*
X4920143Y105692552D01*
X4920143Y105692552D02*
X5015381Y105644933D01*
X5015381Y105644933D02*
X5205857Y105644933D01*
X5205857Y105644933D02*
X5301095Y105692552D01*
X5301095Y105692552D02*
X5348714Y105740171D01*
X5348714Y105740171D02*
X5396333Y105835409D01*
X5729667Y106263980D02*
X6396333Y106263980D01*
X6396333Y106263980D02*
X5967762Y105263980D01*
X6967762Y106263980D02*
X7063000Y106263980D01*
X7063000Y106263980D02*
X7158238Y106216361D01*
X7158238Y106216361D02*
X7205857Y106168742D01*
X7205857Y106168742D02*
X7253476Y106073504D01*
X7253476Y106073504D02*
X7301095Y105883028D01*
X7301095Y105883028D02*
X7301095Y105644933D01*
X7301095Y105644933D02*
X7253476Y105454457D01*
X7253476Y105454457D02*
X7205857Y105359219D01*
X7205857Y105359219D02*
X7158238Y105311599D01*
X7158238Y105311599D02*
X7063000Y105263980D01*
X7063000Y105263980D02*
X6967762Y105263980D01*
X6967762Y105263980D02*
X6872524Y105311599D01*
X6872524Y105311599D02*
X6824905Y105359219D01*
X6824905Y105359219D02*
X6777286Y105454457D01*
X6777286Y105454457D02*
X6729667Y105644933D01*
X6729667Y105644933D02*
X6729667Y105883028D01*
X6729667Y105883028D02*
X6777286Y106073504D01*
X6777286Y106073504D02*
X6824905Y106168742D01*
X6824905Y106168742D02*
X6872524Y106216361D01*
X6872524Y106216361D02*
X6967762Y106263980D01*
X7920143Y106263980D02*
X8015381Y106263980D01*
X8015381Y106263980D02*
X8110619Y106216361D01*
X8110619Y106216361D02*
X8158238Y106168742D01*
X8158238Y106168742D02*
X8205857Y106073504D01*
X8205857Y106073504D02*
X8253476Y105883028D01*
X8253476Y105883028D02*
X8253476Y105644933D01*
X8253476Y105644933D02*
X8205857Y105454457D01*
X8205857Y105454457D02*
X8158238Y105359219D01*
X8158238Y105359219D02*
X8110619Y105311599D01*
X8110619Y105311599D02*
X8015381Y105263980D01*
X8015381Y105263980D02*
X7920143Y105263980D01*
X7920143Y105263980D02*
X7824905Y105311599D01*
X7824905Y105311599D02*
X7777286Y105359219D01*
X7777286Y105359219D02*
X7729667Y105454457D01*
X7729667Y105454457D02*
X7682048Y105644933D01*
X7682048Y105644933D02*
X7682048Y105883028D01*
X7682048Y105883028D02*
X7729667Y106073504D01*
X7729667Y106073504D02*
X7777286Y106168742D01*
X7777286Y106168742D02*
X7824905Y106216361D01*
X7824905Y106216361D02*
X7920143Y106263980D01*
X9443953Y105263980D02*
X9443953Y105930647D01*
X9443953Y105835409D02*
X9491572Y105883028D01*
X9491572Y105883028D02*
X9586810Y105930647D01*
X9586810Y105930647D02*
X9729667Y105930647D01*
X9729667Y105930647D02*
X9824905Y105883028D01*
X9824905Y105883028D02*
X9872524Y105787790D01*
X9872524Y105787790D02*
X9872524Y105263980D01*
X9872524Y105787790D02*
X9920143Y105883028D01*
X9920143Y105883028D02*
X10015381Y105930647D01*
X10015381Y105930647D02*
X10158238Y105930647D01*
X10158238Y105930647D02*
X10253477Y105883028D01*
X10253477Y105883028D02*
X10301096Y105787790D01*
X10301096Y105787790D02*
X10301096Y105263980D01*
X10777286Y105263980D02*
X10777286Y105930647D01*
X10777286Y105835409D02*
X10824905Y105883028D01*
X10824905Y105883028D02*
X10920143Y105930647D01*
X10920143Y105930647D02*
X11063000Y105930647D01*
X11063000Y105930647D02*
X11158238Y105883028D01*
X11158238Y105883028D02*
X11205857Y105787790D01*
X11205857Y105787790D02*
X11205857Y105263980D01*
X11205857Y105787790D02*
X11253476Y105883028D01*
X11253476Y105883028D02*
X11348714Y105930647D01*
X11348714Y105930647D02*
X11491571Y105930647D01*
X11491571Y105930647D02*
X11586810Y105883028D01*
X11586810Y105883028D02*
X11634429Y105787790D01*
X11634429Y105787790D02*
X11634429Y105263980D01*
D10*
X14048000Y88838200D02*
X14048000Y105155219D01*
X78000Y88838200D02*
X78000Y105155219D01*
X14048000Y104568799D02*
X78000Y104568799D01*
X14048000Y104568799D02*
X78000Y104568799D01*
X14048000Y104568799D02*
X12921496Y103982378D01*
X14048000Y104568799D02*
X12921496Y105155220D01*
X78000Y104568799D02*
X1204504Y105155220D01*
X78000Y104568799D02*
X1204504Y103982378D01*
D11*
X36924429Y114014210D02*
X36829191Y114061829D01*
X36829191Y114061829D02*
X36781572Y114109448D01*
X36781572Y114109448D02*
X36733953Y114204686D01*
X36733953Y114204686D02*
X36733953Y114252305D01*
X36733953Y114252305D02*
X36781572Y114347543D01*
X36781572Y114347543D02*
X36829191Y114395162D01*
X36829191Y114395162D02*
X36924429Y114442781D01*
X36924429Y114442781D02*
X37114905Y114442781D01*
X37114905Y114442781D02*
X37210143Y114395162D01*
X37210143Y114395162D02*
X37257762Y114347543D01*
X37257762Y114347543D02*
X37305381Y114252305D01*
X37305381Y114252305D02*
X37305381Y114204686D01*
X37305381Y114204686D02*
X37257762Y114109448D01*
X37257762Y114109448D02*
X37210143Y114061829D01*
X37210143Y114061829D02*
X37114905Y114014210D01*
X37114905Y114014210D02*
X36924429Y114014210D01*
X36924429Y114014210D02*
X36829191Y113966591D01*
X36829191Y113966591D02*
X36781572Y113918972D01*
X36781572Y113918972D02*
X36733953Y113823734D01*
X36733953Y113823734D02*
X36733953Y113633258D01*
X36733953Y113633258D02*
X36781572Y113538020D01*
X36781572Y113538020D02*
X36829191Y113490400D01*
X36829191Y113490400D02*
X36924429Y113442781D01*
X36924429Y113442781D02*
X37114905Y113442781D01*
X37114905Y113442781D02*
X37210143Y113490400D01*
X37210143Y113490400D02*
X37257762Y113538020D01*
X37257762Y113538020D02*
X37305381Y113633258D01*
X37305381Y113633258D02*
X37305381Y113823734D01*
X37305381Y113823734D02*
X37257762Y113918972D01*
X37257762Y113918972D02*
X37210143Y113966591D01*
X37210143Y113966591D02*
X37114905Y114014210D01*
X37686334Y114347543D02*
X37733953Y114395162D01*
X37733953Y114395162D02*
X37829191Y114442781D01*
X37829191Y114442781D02*
X38067286Y114442781D01*
X38067286Y114442781D02*
X38162524Y114395162D01*
X38162524Y114395162D02*
X38210143Y114347543D01*
X38210143Y114347543D02*
X38257762Y114252305D01*
X38257762Y114252305D02*
X38257762Y114157067D01*
X38257762Y114157067D02*
X38210143Y114014210D01*
X38210143Y114014210D02*
X37638715Y113442781D01*
X37638715Y113442781D02*
X38257762Y113442781D01*
X38686334Y113538020D02*
X38733953Y113490400D01*
X38733953Y113490400D02*
X38686334Y113442781D01*
X38686334Y113442781D02*
X38638715Y113490400D01*
X38638715Y113490400D02*
X38686334Y113538020D01*
X38686334Y113538020D02*
X38686334Y113442781D01*
X39638714Y114442781D02*
X39162524Y114442781D01*
X39162524Y114442781D02*
X39114905Y113966591D01*
X39114905Y113966591D02*
X39162524Y114014210D01*
X39162524Y114014210D02*
X39257762Y114061829D01*
X39257762Y114061829D02*
X39495857Y114061829D01*
X39495857Y114061829D02*
X39591095Y114014210D01*
X39591095Y114014210D02*
X39638714Y113966591D01*
X39638714Y113966591D02*
X39686333Y113871353D01*
X39686333Y113871353D02*
X39686333Y113633258D01*
X39686333Y113633258D02*
X39638714Y113538020D01*
X39638714Y113538020D02*
X39591095Y113490400D01*
X39591095Y113490400D02*
X39495857Y113442781D01*
X39495857Y113442781D02*
X39257762Y113442781D01*
X39257762Y113442781D02*
X39162524Y113490400D01*
X39162524Y113490400D02*
X39114905Y113538020D01*
X40591095Y114442781D02*
X40114905Y114442781D01*
X40114905Y114442781D02*
X40067286Y113966591D01*
X40067286Y113966591D02*
X40114905Y114014210D01*
X40114905Y114014210D02*
X40210143Y114061829D01*
X40210143Y114061829D02*
X40448238Y114061829D01*
X40448238Y114061829D02*
X40543476Y114014210D01*
X40543476Y114014210D02*
X40591095Y113966591D01*
X40591095Y113966591D02*
X40638714Y113871353D01*
X40638714Y113871353D02*
X40638714Y113633258D01*
X40638714Y113633258D02*
X40591095Y113538020D01*
X40591095Y113538020D02*
X40543476Y113490400D01*
X40543476Y113490400D02*
X40448238Y113442781D01*
X40448238Y113442781D02*
X40210143Y113442781D01*
X40210143Y113442781D02*
X40114905Y113490400D01*
X40114905Y113490400D02*
X40067286Y113538020D01*
X41257762Y114442781D02*
X41353000Y114442781D01*
X41353000Y114442781D02*
X41448238Y114395162D01*
X41448238Y114395162D02*
X41495857Y114347543D01*
X41495857Y114347543D02*
X41543476Y114252305D01*
X41543476Y114252305D02*
X41591095Y114061829D01*
X41591095Y114061829D02*
X41591095Y113823734D01*
X41591095Y113823734D02*
X41543476Y113633258D01*
X41543476Y113633258D02*
X41495857Y113538020D01*
X41495857Y113538020D02*
X41448238Y113490400D01*
X41448238Y113490400D02*
X41353000Y113442781D01*
X41353000Y113442781D02*
X41257762Y113442781D01*
X41257762Y113442781D02*
X41162524Y113490400D01*
X41162524Y113490400D02*
X41114905Y113538020D01*
X41114905Y113538020D02*
X41067286Y113633258D01*
X41067286Y113633258D02*
X41019667Y113823734D01*
X41019667Y113823734D02*
X41019667Y114061829D01*
X41019667Y114061829D02*
X41067286Y114252305D01*
X41067286Y114252305D02*
X41114905Y114347543D01*
X41114905Y114347543D02*
X41162524Y114395162D01*
X41162524Y114395162D02*
X41257762Y114442781D01*
X42210143Y114442781D02*
X42305381Y114442781D01*
X42305381Y114442781D02*
X42400619Y114395162D01*
X42400619Y114395162D02*
X42448238Y114347543D01*
X42448238Y114347543D02*
X42495857Y114252305D01*
X42495857Y114252305D02*
X42543476Y114061829D01*
X42543476Y114061829D02*
X42543476Y113823734D01*
X42543476Y113823734D02*
X42495857Y113633258D01*
X42495857Y113633258D02*
X42448238Y113538020D01*
X42448238Y113538020D02*
X42400619Y113490400D01*
X42400619Y113490400D02*
X42305381Y113442781D01*
X42305381Y113442781D02*
X42210143Y113442781D01*
X42210143Y113442781D02*
X42114905Y113490400D01*
X42114905Y113490400D02*
X42067286Y113538020D01*
X42067286Y113538020D02*
X42019667Y113633258D01*
X42019667Y113633258D02*
X41972048Y113823734D01*
X41972048Y113823734D02*
X41972048Y114061829D01*
X41972048Y114061829D02*
X42019667Y114252305D01*
X42019667Y114252305D02*
X42067286Y114347543D01*
X42067286Y114347543D02*
X42114905Y114395162D01*
X42114905Y114395162D02*
X42210143Y114442781D01*
X43733953Y113442781D02*
X43733953Y114109448D01*
X43733953Y114014210D02*
X43781572Y114061829D01*
X43781572Y114061829D02*
X43876810Y114109448D01*
X43876810Y114109448D02*
X44019667Y114109448D01*
X44019667Y114109448D02*
X44114905Y114061829D01*
X44114905Y114061829D02*
X44162524Y113966591D01*
X44162524Y113966591D02*
X44162524Y113442781D01*
X44162524Y113966591D02*
X44210143Y114061829D01*
X44210143Y114061829D02*
X44305381Y114109448D01*
X44305381Y114109448D02*
X44448238Y114109448D01*
X44448238Y114109448D02*
X44543477Y114061829D01*
X44543477Y114061829D02*
X44591096Y113966591D01*
X44591096Y113966591D02*
X44591096Y113442781D01*
X45067286Y113442781D02*
X45067286Y114109448D01*
X45067286Y114014210D02*
X45114905Y114061829D01*
X45114905Y114061829D02*
X45210143Y114109448D01*
X45210143Y114109448D02*
X45353000Y114109448D01*
X45353000Y114109448D02*
X45448238Y114061829D01*
X45448238Y114061829D02*
X45495857Y113966591D01*
X45495857Y113966591D02*
X45495857Y113442781D01*
X45495857Y113966591D02*
X45543476Y114061829D01*
X45543476Y114061829D02*
X45638714Y114109448D01*
X45638714Y114109448D02*
X45781571Y114109448D01*
X45781571Y114109448D02*
X45876810Y114061829D01*
X45876810Y114061829D02*
X45924429Y113966591D01*
X45924429Y113966591D02*
X45924429Y113442781D01*
D10*
X82628000Y91429000D02*
X82628000Y113334020D01*
X78000Y91429000D02*
X78000Y113334020D01*
X82628000Y112747600D02*
X78000Y112747600D01*
X82628000Y112747600D02*
X78000Y112747600D01*
X82628000Y112747600D02*
X81501496Y112161179D01*
X82628000Y112747600D02*
X81501496Y113334021D01*
X78000Y112747600D02*
X1204504Y113334021D01*
X78000Y112747600D02*
X1204504Y112161179D01*
D11*
X309875381Y108623980D02*
X309303953Y108623980D01*
X309589667Y108623980D02*
X309589667Y109623980D01*
X309589667Y109623980D02*
X309494429Y109481123D01*
X309494429Y109481123D02*
X309399191Y109385885D01*
X309399191Y109385885D02*
X309303953Y109338266D01*
X310208715Y109623980D02*
X310827762Y109623980D01*
X310827762Y109623980D02*
X310494429Y109243028D01*
X310494429Y109243028D02*
X310637286Y109243028D01*
X310637286Y109243028D02*
X310732524Y109195409D01*
X310732524Y109195409D02*
X310780143Y109147790D01*
X310780143Y109147790D02*
X310827762Y109052552D01*
X310827762Y109052552D02*
X310827762Y108814457D01*
X310827762Y108814457D02*
X310780143Y108719219D01*
X310780143Y108719219D02*
X310732524Y108671599D01*
X310732524Y108671599D02*
X310637286Y108623980D01*
X310637286Y108623980D02*
X310351572Y108623980D01*
X310351572Y108623980D02*
X310256334Y108671599D01*
X310256334Y108671599D02*
X310208715Y108719219D01*
X311256334Y108719219D02*
X311303953Y108671599D01*
X311303953Y108671599D02*
X311256334Y108623980D01*
X311256334Y108623980D02*
X311208715Y108671599D01*
X311208715Y108671599D02*
X311256334Y108719219D01*
X311256334Y108719219D02*
X311256334Y108623980D01*
X311780143Y108623980D02*
X311970619Y108623980D01*
X311970619Y108623980D02*
X312065857Y108671599D01*
X312065857Y108671599D02*
X312113476Y108719219D01*
X312113476Y108719219D02*
X312208714Y108862076D01*
X312208714Y108862076D02*
X312256333Y109052552D01*
X312256333Y109052552D02*
X312256333Y109433504D01*
X312256333Y109433504D02*
X312208714Y109528742D01*
X312208714Y109528742D02*
X312161095Y109576361D01*
X312161095Y109576361D02*
X312065857Y109623980D01*
X312065857Y109623980D02*
X311875381Y109623980D01*
X311875381Y109623980D02*
X311780143Y109576361D01*
X311780143Y109576361D02*
X311732524Y109528742D01*
X311732524Y109528742D02*
X311684905Y109433504D01*
X311684905Y109433504D02*
X311684905Y109195409D01*
X311684905Y109195409D02*
X311732524Y109100171D01*
X311732524Y109100171D02*
X311780143Y109052552D01*
X311780143Y109052552D02*
X311875381Y109004933D01*
X311875381Y109004933D02*
X312065857Y109004933D01*
X312065857Y109004933D02*
X312161095Y109052552D01*
X312161095Y109052552D02*
X312208714Y109100171D01*
X312208714Y109100171D02*
X312256333Y109195409D01*
X312589667Y109623980D02*
X313256333Y109623980D01*
X313256333Y109623980D02*
X312827762Y108623980D01*
X313827762Y109623980D02*
X313923000Y109623980D01*
X313923000Y109623980D02*
X314018238Y109576361D01*
X314018238Y109576361D02*
X314065857Y109528742D01*
X314065857Y109528742D02*
X314113476Y109433504D01*
X314113476Y109433504D02*
X314161095Y109243028D01*
X314161095Y109243028D02*
X314161095Y109004933D01*
X314161095Y109004933D02*
X314113476Y108814457D01*
X314113476Y108814457D02*
X314065857Y108719219D01*
X314065857Y108719219D02*
X314018238Y108671599D01*
X314018238Y108671599D02*
X313923000Y108623980D01*
X313923000Y108623980D02*
X313827762Y108623980D01*
X313827762Y108623980D02*
X313732524Y108671599D01*
X313732524Y108671599D02*
X313684905Y108719219D01*
X313684905Y108719219D02*
X313637286Y108814457D01*
X313637286Y108814457D02*
X313589667Y109004933D01*
X313589667Y109004933D02*
X313589667Y109243028D01*
X313589667Y109243028D02*
X313637286Y109433504D01*
X313637286Y109433504D02*
X313684905Y109528742D01*
X313684905Y109528742D02*
X313732524Y109576361D01*
X313732524Y109576361D02*
X313827762Y109623980D01*
X314780143Y109623980D02*
X314875381Y109623980D01*
X314875381Y109623980D02*
X314970619Y109576361D01*
X314970619Y109576361D02*
X315018238Y109528742D01*
X315018238Y109528742D02*
X315065857Y109433504D01*
X315065857Y109433504D02*
X315113476Y109243028D01*
X315113476Y109243028D02*
X315113476Y109004933D01*
X315113476Y109004933D02*
X315065857Y108814457D01*
X315065857Y108814457D02*
X315018238Y108719219D01*
X315018238Y108719219D02*
X314970619Y108671599D01*
X314970619Y108671599D02*
X314875381Y108623980D01*
X314875381Y108623980D02*
X314780143Y108623980D01*
X314780143Y108623980D02*
X314684905Y108671599D01*
X314684905Y108671599D02*
X314637286Y108719219D01*
X314637286Y108719219D02*
X314589667Y108814457D01*
X314589667Y108814457D02*
X314542048Y109004933D01*
X314542048Y109004933D02*
X314542048Y109243028D01*
X314542048Y109243028D02*
X314589667Y109433504D01*
X314589667Y109433504D02*
X314637286Y109528742D01*
X314637286Y109528742D02*
X314684905Y109576361D01*
X314684905Y109576361D02*
X314780143Y109623980D01*
X316303953Y108623980D02*
X316303953Y109290647D01*
X316303953Y109195409D02*
X316351572Y109243028D01*
X316351572Y109243028D02*
X316446810Y109290647D01*
X316446810Y109290647D02*
X316589667Y109290647D01*
X316589667Y109290647D02*
X316684905Y109243028D01*
X316684905Y109243028D02*
X316732524Y109147790D01*
X316732524Y109147790D02*
X316732524Y108623980D01*
X316732524Y109147790D02*
X316780143Y109243028D01*
X316780143Y109243028D02*
X316875381Y109290647D01*
X316875381Y109290647D02*
X317018238Y109290647D01*
X317018238Y109290647D02*
X317113477Y109243028D01*
X317113477Y109243028D02*
X317161096Y109147790D01*
X317161096Y109147790D02*
X317161096Y108623980D01*
X317637286Y108623980D02*
X317637286Y109290647D01*
X317637286Y109195409D02*
X317684905Y109243028D01*
X317684905Y109243028D02*
X317780143Y109290647D01*
X317780143Y109290647D02*
X317923000Y109290647D01*
X317923000Y109290647D02*
X318018238Y109243028D01*
X318018238Y109243028D02*
X318065857Y109147790D01*
X318065857Y109147790D02*
X318065857Y108623980D01*
X318065857Y109147790D02*
X318113476Y109243028D01*
X318113476Y109243028D02*
X318208714Y109290647D01*
X318208714Y109290647D02*
X318351571Y109290647D01*
X318351571Y109290647D02*
X318446810Y109243028D01*
X318446810Y109243028D02*
X318494429Y109147790D01*
X318494429Y109147790D02*
X318494429Y108623980D01*
D10*
X320908000Y92198200D02*
X320908000Y108515219D01*
X306938000Y92198200D02*
X306938000Y108515219D01*
X320908000Y107928799D02*
X306938000Y107928799D01*
X320908000Y107928799D02*
X306938000Y107928799D01*
X320908000Y107928799D02*
X319781496Y107342378D01*
X320908000Y107928799D02*
X319781496Y108515220D01*
X306938000Y107928799D02*
X308064504Y108515220D01*
X306938000Y107928799D02*
X308064504Y107342378D01*
D11*
X287434190Y43187930D02*
X287386571Y43092692D01*
X287386571Y43092692D02*
X287338952Y43045073D01*
X287338952Y43045073D02*
X287243714Y42997454D01*
X287243714Y42997454D02*
X287196095Y42997454D01*
X287196095Y42997454D02*
X287100857Y43045073D01*
X287100857Y43045073D02*
X287053238Y43092692D01*
X287053238Y43092692D02*
X287005619Y43187930D01*
X287005619Y43187930D02*
X287005619Y43378406D01*
X287005619Y43378406D02*
X287053238Y43473644D01*
X287053238Y43473644D02*
X287100857Y43521263D01*
X287100857Y43521263D02*
X287196095Y43568882D01*
X287196095Y43568882D02*
X287243714Y43568882D01*
X287243714Y43568882D02*
X287338952Y43521263D01*
X287338952Y43521263D02*
X287386571Y43473644D01*
X287386571Y43473644D02*
X287434190Y43378406D01*
X287434190Y43378406D02*
X287434190Y43187930D01*
X287434190Y43187930D02*
X287481809Y43092692D01*
X287481809Y43092692D02*
X287529428Y43045073D01*
X287529428Y43045073D02*
X287624666Y42997454D01*
X287624666Y42997454D02*
X287815142Y42997454D01*
X287815142Y42997454D02*
X287910380Y43045073D01*
X287910380Y43045073D02*
X287958000Y43092692D01*
X287958000Y43092692D02*
X288005619Y43187930D01*
X288005619Y43187930D02*
X288005619Y43378406D01*
X288005619Y43378406D02*
X287958000Y43473644D01*
X287958000Y43473644D02*
X287910380Y43521263D01*
X287910380Y43521263D02*
X287815142Y43568882D01*
X287815142Y43568882D02*
X287624666Y43568882D01*
X287624666Y43568882D02*
X287529428Y43521263D01*
X287529428Y43521263D02*
X287481809Y43473644D01*
X287481809Y43473644D02*
X287434190Y43378406D01*
X287434190Y44140311D02*
X287386571Y44045073D01*
X287386571Y44045073D02*
X287338952Y43997454D01*
X287338952Y43997454D02*
X287243714Y43949835D01*
X287243714Y43949835D02*
X287196095Y43949835D01*
X287196095Y43949835D02*
X287100857Y43997454D01*
X287100857Y43997454D02*
X287053238Y44045073D01*
X287053238Y44045073D02*
X287005619Y44140311D01*
X287005619Y44140311D02*
X287005619Y44330787D01*
X287005619Y44330787D02*
X287053238Y44426025D01*
X287053238Y44426025D02*
X287100857Y44473644D01*
X287100857Y44473644D02*
X287196095Y44521263D01*
X287196095Y44521263D02*
X287243714Y44521263D01*
X287243714Y44521263D02*
X287338952Y44473644D01*
X287338952Y44473644D02*
X287386571Y44426025D01*
X287386571Y44426025D02*
X287434190Y44330787D01*
X287434190Y44330787D02*
X287434190Y44140311D01*
X287434190Y44140311D02*
X287481809Y44045073D01*
X287481809Y44045073D02*
X287529428Y43997454D01*
X287529428Y43997454D02*
X287624666Y43949835D01*
X287624666Y43949835D02*
X287815142Y43949835D01*
X287815142Y43949835D02*
X287910380Y43997454D01*
X287910380Y43997454D02*
X287958000Y44045073D01*
X287958000Y44045073D02*
X288005619Y44140311D01*
X288005619Y44140311D02*
X288005619Y44330787D01*
X288005619Y44330787D02*
X287958000Y44426025D01*
X287958000Y44426025D02*
X287910380Y44473644D01*
X287910380Y44473644D02*
X287815142Y44521263D01*
X287815142Y44521263D02*
X287624666Y44521263D01*
X287624666Y44521263D02*
X287529428Y44473644D01*
X287529428Y44473644D02*
X287481809Y44426025D01*
X287481809Y44426025D02*
X287434190Y44330787D01*
X287910380Y44949835D02*
X287958000Y44997454D01*
X287958000Y44997454D02*
X288005619Y44949835D01*
X288005619Y44949835D02*
X287958000Y44902216D01*
X287958000Y44902216D02*
X287910380Y44949835D01*
X287910380Y44949835D02*
X288005619Y44949835D01*
X287100857Y45378406D02*
X287053238Y45426025D01*
X287053238Y45426025D02*
X287005619Y45521263D01*
X287005619Y45521263D02*
X287005619Y45759358D01*
X287005619Y45759358D02*
X287053238Y45854596D01*
X287053238Y45854596D02*
X287100857Y45902215D01*
X287100857Y45902215D02*
X287196095Y45949834D01*
X287196095Y45949834D02*
X287291333Y45949834D01*
X287291333Y45949834D02*
X287434190Y45902215D01*
X287434190Y45902215D02*
X288005619Y45330787D01*
X288005619Y45330787D02*
X288005619Y45949834D01*
X287005619Y46806977D02*
X287005619Y46616501D01*
X287005619Y46616501D02*
X287053238Y46521263D01*
X287053238Y46521263D02*
X287100857Y46473644D01*
X287100857Y46473644D02*
X287243714Y46378406D01*
X287243714Y46378406D02*
X287434190Y46330787D01*
X287434190Y46330787D02*
X287815142Y46330787D01*
X287815142Y46330787D02*
X287910380Y46378406D01*
X287910380Y46378406D02*
X287958000Y46426025D01*
X287958000Y46426025D02*
X288005619Y46521263D01*
X288005619Y46521263D02*
X288005619Y46711739D01*
X288005619Y46711739D02*
X287958000Y46806977D01*
X287958000Y46806977D02*
X287910380Y46854596D01*
X287910380Y46854596D02*
X287815142Y46902215D01*
X287815142Y46902215D02*
X287577047Y46902215D01*
X287577047Y46902215D02*
X287481809Y46854596D01*
X287481809Y46854596D02*
X287434190Y46806977D01*
X287434190Y46806977D02*
X287386571Y46711739D01*
X287386571Y46711739D02*
X287386571Y46521263D01*
X287386571Y46521263D02*
X287434190Y46426025D01*
X287434190Y46426025D02*
X287481809Y46378406D01*
X287481809Y46378406D02*
X287577047Y46330787D01*
X287005619Y47806977D02*
X287005619Y47330787D01*
X287005619Y47330787D02*
X287481809Y47283168D01*
X287481809Y47283168D02*
X287434190Y47330787D01*
X287434190Y47330787D02*
X287386571Y47426025D01*
X287386571Y47426025D02*
X287386571Y47664120D01*
X287386571Y47664120D02*
X287434190Y47759358D01*
X287434190Y47759358D02*
X287481809Y47806977D01*
X287481809Y47806977D02*
X287577047Y47854596D01*
X287577047Y47854596D02*
X287815142Y47854596D01*
X287815142Y47854596D02*
X287910380Y47806977D01*
X287910380Y47806977D02*
X287958000Y47759358D01*
X287958000Y47759358D02*
X288005619Y47664120D01*
X288005619Y47664120D02*
X288005619Y47426025D01*
X288005619Y47426025D02*
X287958000Y47330787D01*
X287958000Y47330787D02*
X287910380Y47283168D01*
X287005619Y48473644D02*
X287005619Y48568882D01*
X287005619Y48568882D02*
X287053238Y48664120D01*
X287053238Y48664120D02*
X287100857Y48711739D01*
X287100857Y48711739D02*
X287196095Y48759358D01*
X287196095Y48759358D02*
X287386571Y48806977D01*
X287386571Y48806977D02*
X287624666Y48806977D01*
X287624666Y48806977D02*
X287815142Y48759358D01*
X287815142Y48759358D02*
X287910380Y48711739D01*
X287910380Y48711739D02*
X287958000Y48664120D01*
X287958000Y48664120D02*
X288005619Y48568882D01*
X288005619Y48568882D02*
X288005619Y48473644D01*
X288005619Y48473644D02*
X287958000Y48378406D01*
X287958000Y48378406D02*
X287910380Y48330787D01*
X287910380Y48330787D02*
X287815142Y48283168D01*
X287815142Y48283168D02*
X287624666Y48235549D01*
X287624666Y48235549D02*
X287386571Y48235549D01*
X287386571Y48235549D02*
X287196095Y48283168D01*
X287196095Y48283168D02*
X287100857Y48330787D01*
X287100857Y48330787D02*
X287053238Y48378406D01*
X287053238Y48378406D02*
X287005619Y48473644D01*
X288005619Y49997454D02*
X287338952Y49997454D01*
X287434190Y49997454D02*
X287386571Y50045073D01*
X287386571Y50045073D02*
X287338952Y50140311D01*
X287338952Y50140311D02*
X287338952Y50283168D01*
X287338952Y50283168D02*
X287386571Y50378406D01*
X287386571Y50378406D02*
X287481809Y50426025D01*
X287481809Y50426025D02*
X288005619Y50426025D01*
X287481809Y50426025D02*
X287386571Y50473644D01*
X287386571Y50473644D02*
X287338952Y50568882D01*
X287338952Y50568882D02*
X287338952Y50711739D01*
X287338952Y50711739D02*
X287386571Y50806978D01*
X287386571Y50806978D02*
X287481809Y50854597D01*
X287481809Y50854597D02*
X288005619Y50854597D01*
X288005619Y51330787D02*
X287338952Y51330787D01*
X287434190Y51330787D02*
X287386571Y51378406D01*
X287386571Y51378406D02*
X287338952Y51473644D01*
X287338952Y51473644D02*
X287338952Y51616501D01*
X287338952Y51616501D02*
X287386571Y51711739D01*
X287386571Y51711739D02*
X287481809Y51759358D01*
X287481809Y51759358D02*
X288005619Y51759358D01*
X287481809Y51759358D02*
X287386571Y51806977D01*
X287386571Y51806977D02*
X287338952Y51902215D01*
X287338952Y51902215D02*
X287338952Y52045072D01*
X287338952Y52045072D02*
X287386571Y52140311D01*
X287386571Y52140311D02*
X287481809Y52187930D01*
X287481809Y52187930D02*
X288005619Y52187930D01*
D10*
X306438000Y3484000D02*
X288114380Y3484000D01*
X306438000Y91749000D02*
X288114380Y91749000D01*
X288700800Y3484000D02*
X288700800Y91749000D01*
X288700800Y3484000D02*
X288700800Y91749000D01*
X288700800Y3484000D02*
X288114379Y4610504D01*
X288700800Y3484000D02*
X289287221Y4610504D01*
X288700800Y91749000D02*
X289287221Y90622496D01*
X288700800Y91749000D02*
X288114379Y90622496D01*
D11*
X115564819Y-959047D02*
X115564819Y-1435237D01*
X115564819Y-1435237D02*
X116041009Y-1482856D01*
X116041009Y-1482856D02*
X115993390Y-1435237D01*
X115993390Y-1435237D02*
X115945771Y-1339999D01*
X115945771Y-1339999D02*
X115945771Y-1101904D01*
X115945771Y-1101904D02*
X115993390Y-1006666D01*
X115993390Y-1006666D02*
X116041009Y-959047D01*
X116041009Y-959047D02*
X116136247Y-911428D01*
X116136247Y-911428D02*
X116374342Y-911428D01*
X116374342Y-911428D02*
X116469580Y-959047D01*
X116469580Y-959047D02*
X116517200Y-1006666D01*
X116517200Y-1006666D02*
X116564819Y-1101904D01*
X116564819Y-1101904D02*
X116564819Y-1339999D01*
X116564819Y-1339999D02*
X116517200Y-1435237D01*
X116517200Y-1435237D02*
X116469580Y-1482856D01*
X116517200Y-435237D02*
X116564819Y-435237D01*
X116564819Y-435237D02*
X116660057Y-482856D01*
X116660057Y-482856D02*
X116707676Y-530475D01*
X115564819Y183810D02*
X115564819Y279048D01*
X115564819Y279048D02*
X115612438Y374286D01*
X115612438Y374286D02*
X115660057Y421905D01*
X115660057Y421905D02*
X115755295Y469524D01*
X115755295Y469524D02*
X115945771Y517143D01*
X115945771Y517143D02*
X116183866Y517143D01*
X116183866Y517143D02*
X116374342Y469524D01*
X116374342Y469524D02*
X116469580Y421905D01*
X116469580Y421905D02*
X116517200Y374286D01*
X116517200Y374286D02*
X116564819Y279048D01*
X116564819Y279048D02*
X116564819Y183810D01*
X116564819Y183810D02*
X116517200Y88572D01*
X116517200Y88572D02*
X116469580Y40953D01*
X116469580Y40953D02*
X116374342Y-6666D01*
X116374342Y-6666D02*
X116183866Y-54285D01*
X116183866Y-54285D02*
X115945771Y-54285D01*
X115945771Y-54285D02*
X115755295Y-6666D01*
X115755295Y-6666D02*
X115660057Y40953D01*
X115660057Y40953D02*
X115612438Y88572D01*
X115612438Y88572D02*
X115564819Y183810D01*
X115993390Y1088572D02*
X115945771Y993334D01*
X115945771Y993334D02*
X115898152Y945715D01*
X115898152Y945715D02*
X115802914Y898096D01*
X115802914Y898096D02*
X115755295Y898096D01*
X115755295Y898096D02*
X115660057Y945715D01*
X115660057Y945715D02*
X115612438Y993334D01*
X115612438Y993334D02*
X115564819Y1088572D01*
X115564819Y1088572D02*
X115564819Y1279048D01*
X115564819Y1279048D02*
X115612438Y1374286D01*
X115612438Y1374286D02*
X115660057Y1421905D01*
X115660057Y1421905D02*
X115755295Y1469524D01*
X115755295Y1469524D02*
X115802914Y1469524D01*
X115802914Y1469524D02*
X115898152Y1421905D01*
X115898152Y1421905D02*
X115945771Y1374286D01*
X115945771Y1374286D02*
X115993390Y1279048D01*
X115993390Y1279048D02*
X115993390Y1088572D01*
X115993390Y1088572D02*
X116041009Y993334D01*
X116041009Y993334D02*
X116088628Y945715D01*
X116088628Y945715D02*
X116183866Y898096D01*
X116183866Y898096D02*
X116374342Y898096D01*
X116374342Y898096D02*
X116469580Y945715D01*
X116469580Y945715D02*
X116517200Y993334D01*
X116517200Y993334D02*
X116564819Y1088572D01*
X116564819Y1088572D02*
X116564819Y1279048D01*
X116564819Y1279048D02*
X116517200Y1374286D01*
X116517200Y1374286D02*
X116469580Y1421905D01*
X116469580Y1421905D02*
X116374342Y1469524D01*
X116374342Y1469524D02*
X116183866Y1469524D01*
X116183866Y1469524D02*
X116088628Y1421905D01*
X116088628Y1421905D02*
X116041009Y1374286D01*
X116041009Y1374286D02*
X115993390Y1279048D01*
X115564819Y2088572D02*
X115564819Y2183810D01*
X115564819Y2183810D02*
X115612438Y2279048D01*
X115612438Y2279048D02*
X115660057Y2326667D01*
X115660057Y2326667D02*
X115755295Y2374286D01*
X115755295Y2374286D02*
X115945771Y2421905D01*
X115945771Y2421905D02*
X116183866Y2421905D01*
X116183866Y2421905D02*
X116374342Y2374286D01*
X116374342Y2374286D02*
X116469580Y2326667D01*
X116469580Y2326667D02*
X116517200Y2279048D01*
X116517200Y2279048D02*
X116564819Y2183810D01*
X116564819Y2183810D02*
X116564819Y2088572D01*
X116564819Y2088572D02*
X116517200Y1993334D01*
X116517200Y1993334D02*
X116469580Y1945715D01*
X116469580Y1945715D02*
X116374342Y1898096D01*
X116374342Y1898096D02*
X116183866Y1850477D01*
X116183866Y1850477D02*
X115945771Y1850477D01*
X115945771Y1850477D02*
X115755295Y1898096D01*
X115755295Y1898096D02*
X115660057Y1945715D01*
X115660057Y1945715D02*
X115612438Y1993334D01*
X115612438Y1993334D02*
X115564819Y2088572D01*
X115564819Y3040953D02*
X115564819Y3136191D01*
X115564819Y3136191D02*
X115612438Y3231429D01*
X115612438Y3231429D02*
X115660057Y3279048D01*
X115660057Y3279048D02*
X115755295Y3326667D01*
X115755295Y3326667D02*
X115945771Y3374286D01*
X115945771Y3374286D02*
X116183866Y3374286D01*
X116183866Y3374286D02*
X116374342Y3326667D01*
X116374342Y3326667D02*
X116469580Y3279048D01*
X116469580Y3279048D02*
X116517200Y3231429D01*
X116517200Y3231429D02*
X116564819Y3136191D01*
X116564819Y3136191D02*
X116564819Y3040953D01*
X116564819Y3040953D02*
X116517200Y2945715D01*
X116517200Y2945715D02*
X116469580Y2898096D01*
X116469580Y2898096D02*
X116374342Y2850477D01*
X116374342Y2850477D02*
X116183866Y2802858D01*
X116183866Y2802858D02*
X115945771Y2802858D01*
X115945771Y2802858D02*
X115755295Y2850477D01*
X115755295Y2850477D02*
X115660057Y2898096D01*
X115660057Y2898096D02*
X115612438Y2945715D01*
X115612438Y2945715D02*
X115564819Y3040953D01*
X116564819Y4564763D02*
X115898152Y4564763D01*
X115993390Y4564763D02*
X115945771Y4612382D01*
X115945771Y4612382D02*
X115898152Y4707620D01*
X115898152Y4707620D02*
X115898152Y4850477D01*
X115898152Y4850477D02*
X115945771Y4945715D01*
X115945771Y4945715D02*
X116041009Y4993334D01*
X116041009Y4993334D02*
X116564819Y4993334D01*
X116041009Y4993334D02*
X115945771Y5040953D01*
X115945771Y5040953D02*
X115898152Y5136191D01*
X115898152Y5136191D02*
X115898152Y5279048D01*
X115898152Y5279048D02*
X115945771Y5374287D01*
X115945771Y5374287D02*
X116041009Y5421906D01*
X116041009Y5421906D02*
X116564819Y5421906D01*
X116564819Y5898096D02*
X115898152Y5898096D01*
X115993390Y5898096D02*
X115945771Y5945715D01*
X115945771Y5945715D02*
X115898152Y6040953D01*
X115898152Y6040953D02*
X115898152Y6183810D01*
X115898152Y6183810D02*
X115945771Y6279048D01*
X115945771Y6279048D02*
X116041009Y6326667D01*
X116041009Y6326667D02*
X116564819Y6326667D01*
X116041009Y6326667D02*
X115945771Y6374286D01*
X115945771Y6374286D02*
X115898152Y6469524D01*
X115898152Y6469524D02*
X115898152Y6612381D01*
X115898152Y6612381D02*
X115945771Y6707620D01*
X115945771Y6707620D02*
X116041009Y6755239D01*
X116041009Y6755239D02*
X116564819Y6755239D01*
X83670000Y120000D02*
X117846420Y120000D01*
X117846420Y5200000D02*
X85240000Y5200000D01*
X117260000Y120000D02*
X117260000Y5200000D01*
X117260000Y120000D02*
X117260000Y5200000D01*
X117260000Y120000D02*
X116673579Y1246504D01*
X117260000Y120000D02*
X117846421Y1246504D01*
X117260000Y5200000D02*
X117846421Y4073496D01*
X117260000Y5200000D02*
X116673579Y4073496D01*
X390950952Y-21004819D02*
X390474762Y-21004819D01*
X390474762Y-21004819D02*
X390427143Y-21481009D01*
X390427143Y-21481009D02*
X390474762Y-21433390D01*
X390474762Y-21433390D02*
X390570000Y-21385771D01*
X390570000Y-21385771D02*
X390808095Y-21385771D01*
X390808095Y-21385771D02*
X390903333Y-21433390D01*
X390903333Y-21433390D02*
X390950952Y-21481009D01*
X390950952Y-21481009D02*
X390998571Y-21576247D01*
X390998571Y-21576247D02*
X390998571Y-21814342D01*
X390998571Y-21814342D02*
X390950952Y-21909580D01*
X390950952Y-21909580D02*
X390903333Y-21957200D01*
X390903333Y-21957200D02*
X390808095Y-22004819D01*
X390808095Y-22004819D02*
X390570000Y-22004819D01*
X390570000Y-22004819D02*
X390474762Y-21957200D01*
X390474762Y-21957200D02*
X390427143Y-21909580D01*
X391474762Y-21957200D02*
X391474762Y-22004819D01*
X391474762Y-22004819D02*
X391427143Y-22100057D01*
X391427143Y-22100057D02*
X391379524Y-22147676D01*
X392093809Y-21004819D02*
X392189047Y-21004819D01*
X392189047Y-21004819D02*
X392284285Y-21052438D01*
X392284285Y-21052438D02*
X392331904Y-21100057D01*
X392331904Y-21100057D02*
X392379523Y-21195295D01*
X392379523Y-21195295D02*
X392427142Y-21385771D01*
X392427142Y-21385771D02*
X392427142Y-21623866D01*
X392427142Y-21623866D02*
X392379523Y-21814342D01*
X392379523Y-21814342D02*
X392331904Y-21909580D01*
X392331904Y-21909580D02*
X392284285Y-21957200D01*
X392284285Y-21957200D02*
X392189047Y-22004819D01*
X392189047Y-22004819D02*
X392093809Y-22004819D01*
X392093809Y-22004819D02*
X391998571Y-21957200D01*
X391998571Y-21957200D02*
X391950952Y-21909580D01*
X391950952Y-21909580D02*
X391903333Y-21814342D01*
X391903333Y-21814342D02*
X391855714Y-21623866D01*
X391855714Y-21623866D02*
X391855714Y-21385771D01*
X391855714Y-21385771D02*
X391903333Y-21195295D01*
X391903333Y-21195295D02*
X391950952Y-21100057D01*
X391950952Y-21100057D02*
X391998571Y-21052438D01*
X391998571Y-21052438D02*
X392093809Y-21004819D01*
X392998571Y-21433390D02*
X392903333Y-21385771D01*
X392903333Y-21385771D02*
X392855714Y-21338152D01*
X392855714Y-21338152D02*
X392808095Y-21242914D01*
X392808095Y-21242914D02*
X392808095Y-21195295D01*
X392808095Y-21195295D02*
X392855714Y-21100057D01*
X392855714Y-21100057D02*
X392903333Y-21052438D01*
X392903333Y-21052438D02*
X392998571Y-21004819D01*
X392998571Y-21004819D02*
X393189047Y-21004819D01*
X393189047Y-21004819D02*
X393284285Y-21052438D01*
X393284285Y-21052438D02*
X393331904Y-21100057D01*
X393331904Y-21100057D02*
X393379523Y-21195295D01*
X393379523Y-21195295D02*
X393379523Y-21242914D01*
X393379523Y-21242914D02*
X393331904Y-21338152D01*
X393331904Y-21338152D02*
X393284285Y-21385771D01*
X393284285Y-21385771D02*
X393189047Y-21433390D01*
X393189047Y-21433390D02*
X392998571Y-21433390D01*
X392998571Y-21433390D02*
X392903333Y-21481009D01*
X392903333Y-21481009D02*
X392855714Y-21528628D01*
X392855714Y-21528628D02*
X392808095Y-21623866D01*
X392808095Y-21623866D02*
X392808095Y-21814342D01*
X392808095Y-21814342D02*
X392855714Y-21909580D01*
X392855714Y-21909580D02*
X392903333Y-21957200D01*
X392903333Y-21957200D02*
X392998571Y-22004819D01*
X392998571Y-22004819D02*
X393189047Y-22004819D01*
X393189047Y-22004819D02*
X393284285Y-21957200D01*
X393284285Y-21957200D02*
X393331904Y-21909580D01*
X393331904Y-21909580D02*
X393379523Y-21814342D01*
X393379523Y-21814342D02*
X393379523Y-21623866D01*
X393379523Y-21623866D02*
X393331904Y-21528628D01*
X393331904Y-21528628D02*
X393284285Y-21481009D01*
X393284285Y-21481009D02*
X393189047Y-21433390D01*
X393998571Y-21004819D02*
X394093809Y-21004819D01*
X394093809Y-21004819D02*
X394189047Y-21052438D01*
X394189047Y-21052438D02*
X394236666Y-21100057D01*
X394236666Y-21100057D02*
X394284285Y-21195295D01*
X394284285Y-21195295D02*
X394331904Y-21385771D01*
X394331904Y-21385771D02*
X394331904Y-21623866D01*
X394331904Y-21623866D02*
X394284285Y-21814342D01*
X394284285Y-21814342D02*
X394236666Y-21909580D01*
X394236666Y-21909580D02*
X394189047Y-21957200D01*
X394189047Y-21957200D02*
X394093809Y-22004819D01*
X394093809Y-22004819D02*
X393998571Y-22004819D01*
X393998571Y-22004819D02*
X393903333Y-21957200D01*
X393903333Y-21957200D02*
X393855714Y-21909580D01*
X393855714Y-21909580D02*
X393808095Y-21814342D01*
X393808095Y-21814342D02*
X393760476Y-21623866D01*
X393760476Y-21623866D02*
X393760476Y-21385771D01*
X393760476Y-21385771D02*
X393808095Y-21195295D01*
X393808095Y-21195295D02*
X393855714Y-21100057D01*
X393855714Y-21100057D02*
X393903333Y-21052438D01*
X393903333Y-21052438D02*
X393998571Y-21004819D01*
X394950952Y-21004819D02*
X395046190Y-21004819D01*
X395046190Y-21004819D02*
X395141428Y-21052438D01*
X395141428Y-21052438D02*
X395189047Y-21100057D01*
X395189047Y-21100057D02*
X395236666Y-21195295D01*
X395236666Y-21195295D02*
X395284285Y-21385771D01*
X395284285Y-21385771D02*
X395284285Y-21623866D01*
X395284285Y-21623866D02*
X395236666Y-21814342D01*
X395236666Y-21814342D02*
X395189047Y-21909580D01*
X395189047Y-21909580D02*
X395141428Y-21957200D01*
X395141428Y-21957200D02*
X395046190Y-22004819D01*
X395046190Y-22004819D02*
X394950952Y-22004819D01*
X394950952Y-22004819D02*
X394855714Y-21957200D01*
X394855714Y-21957200D02*
X394808095Y-21909580D01*
X394808095Y-21909580D02*
X394760476Y-21814342D01*
X394760476Y-21814342D02*
X394712857Y-21623866D01*
X394712857Y-21623866D02*
X394712857Y-21385771D01*
X394712857Y-21385771D02*
X394760476Y-21195295D01*
X394760476Y-21195295D02*
X394808095Y-21100057D01*
X394808095Y-21100057D02*
X394855714Y-21052438D01*
X394855714Y-21052438D02*
X394950952Y-21004819D01*
X396474762Y-22004819D02*
X396474762Y-21338152D01*
X396474762Y-21433390D02*
X396522381Y-21385771D01*
X396522381Y-21385771D02*
X396617619Y-21338152D01*
X396617619Y-21338152D02*
X396760476Y-21338152D01*
X396760476Y-21338152D02*
X396855714Y-21385771D01*
X396855714Y-21385771D02*
X396903333Y-21481009D01*
X396903333Y-21481009D02*
X396903333Y-22004819D01*
X396903333Y-21481009D02*
X396950952Y-21385771D01*
X396950952Y-21385771D02*
X397046190Y-21338152D01*
X397046190Y-21338152D02*
X397189047Y-21338152D01*
X397189047Y-21338152D02*
X397284286Y-21385771D01*
X397284286Y-21385771D02*
X397331905Y-21481009D01*
X397331905Y-21481009D02*
X397331905Y-22004819D01*
X397808095Y-22004819D02*
X397808095Y-21338152D01*
X397808095Y-21433390D02*
X397855714Y-21385771D01*
X397855714Y-21385771D02*
X397950952Y-21338152D01*
X397950952Y-21338152D02*
X398093809Y-21338152D01*
X398093809Y-21338152D02*
X398189047Y-21385771D01*
X398189047Y-21385771D02*
X398236666Y-21481009D01*
X398236666Y-21481009D02*
X398236666Y-22004819D01*
X398236666Y-21481009D02*
X398284285Y-21385771D01*
X398284285Y-21385771D02*
X398379523Y-21338152D01*
X398379523Y-21338152D02*
X398522380Y-21338152D01*
X398522380Y-21338152D02*
X398617619Y-21385771D01*
X398617619Y-21385771D02*
X398665238Y-21481009D01*
X398665238Y-21481009D02*
X398665238Y-22004819D01*
X397110000Y7610000D02*
X397110000Y-23286420D01*
X392030000Y-23286420D02*
X392030000Y7420000D01*
X397110000Y-22700000D02*
X392030000Y-22700000D01*
X397110000Y-22700000D02*
X392030000Y-22700000D01*
X397110000Y-22700000D02*
X395983496Y-23286421D01*
X397110000Y-22700000D02*
X395983496Y-22113579D01*
X392030000Y-22700000D02*
X393156504Y-22113579D01*
X392030000Y-22700000D02*
X393156504Y-23286421D01*
X422424819Y2400953D02*
X422424819Y1924763D01*
X422424819Y1924763D02*
X422901009Y1877144D01*
X422901009Y1877144D02*
X422853390Y1924763D01*
X422853390Y1924763D02*
X422805771Y2020001D01*
X422805771Y2020001D02*
X422805771Y2258096D01*
X422805771Y2258096D02*
X422853390Y2353334D01*
X422853390Y2353334D02*
X422901009Y2400953D01*
X422901009Y2400953D02*
X422996247Y2448572D01*
X422996247Y2448572D02*
X423234342Y2448572D01*
X423234342Y2448572D02*
X423329580Y2400953D01*
X423329580Y2400953D02*
X423377200Y2353334D01*
X423377200Y2353334D02*
X423424819Y2258096D01*
X423424819Y2258096D02*
X423424819Y2020001D01*
X423424819Y2020001D02*
X423377200Y1924763D01*
X423377200Y1924763D02*
X423329580Y1877144D01*
X423377200Y2924763D02*
X423424819Y2924763D01*
X423424819Y2924763D02*
X423520057Y2877144D01*
X423520057Y2877144D02*
X423567676Y2829525D01*
X422424819Y3543810D02*
X422424819Y3639048D01*
X422424819Y3639048D02*
X422472438Y3734286D01*
X422472438Y3734286D02*
X422520057Y3781905D01*
X422520057Y3781905D02*
X422615295Y3829524D01*
X422615295Y3829524D02*
X422805771Y3877143D01*
X422805771Y3877143D02*
X423043866Y3877143D01*
X423043866Y3877143D02*
X423234342Y3829524D01*
X423234342Y3829524D02*
X423329580Y3781905D01*
X423329580Y3781905D02*
X423377200Y3734286D01*
X423377200Y3734286D02*
X423424819Y3639048D01*
X423424819Y3639048D02*
X423424819Y3543810D01*
X423424819Y3543810D02*
X423377200Y3448572D01*
X423377200Y3448572D02*
X423329580Y3400953D01*
X423329580Y3400953D02*
X423234342Y3353334D01*
X423234342Y3353334D02*
X423043866Y3305715D01*
X423043866Y3305715D02*
X422805771Y3305715D01*
X422805771Y3305715D02*
X422615295Y3353334D01*
X422615295Y3353334D02*
X422520057Y3400953D01*
X422520057Y3400953D02*
X422472438Y3448572D01*
X422472438Y3448572D02*
X422424819Y3543810D01*
X422853390Y4448572D02*
X422805771Y4353334D01*
X422805771Y4353334D02*
X422758152Y4305715D01*
X422758152Y4305715D02*
X422662914Y4258096D01*
X422662914Y4258096D02*
X422615295Y4258096D01*
X422615295Y4258096D02*
X422520057Y4305715D01*
X422520057Y4305715D02*
X422472438Y4353334D01*
X422472438Y4353334D02*
X422424819Y4448572D01*
X422424819Y4448572D02*
X422424819Y4639048D01*
X422424819Y4639048D02*
X422472438Y4734286D01*
X422472438Y4734286D02*
X422520057Y4781905D01*
X422520057Y4781905D02*
X422615295Y4829524D01*
X422615295Y4829524D02*
X422662914Y4829524D01*
X422662914Y4829524D02*
X422758152Y4781905D01*
X422758152Y4781905D02*
X422805771Y4734286D01*
X422805771Y4734286D02*
X422853390Y4639048D01*
X422853390Y4639048D02*
X422853390Y4448572D01*
X422853390Y4448572D02*
X422901009Y4353334D01*
X422901009Y4353334D02*
X422948628Y4305715D01*
X422948628Y4305715D02*
X423043866Y4258096D01*
X423043866Y4258096D02*
X423234342Y4258096D01*
X423234342Y4258096D02*
X423329580Y4305715D01*
X423329580Y4305715D02*
X423377200Y4353334D01*
X423377200Y4353334D02*
X423424819Y4448572D01*
X423424819Y4448572D02*
X423424819Y4639048D01*
X423424819Y4639048D02*
X423377200Y4734286D01*
X423377200Y4734286D02*
X423329580Y4781905D01*
X423329580Y4781905D02*
X423234342Y4829524D01*
X423234342Y4829524D02*
X423043866Y4829524D01*
X423043866Y4829524D02*
X422948628Y4781905D01*
X422948628Y4781905D02*
X422901009Y4734286D01*
X422901009Y4734286D02*
X422853390Y4639048D01*
X422424819Y5448572D02*
X422424819Y5543810D01*
X422424819Y5543810D02*
X422472438Y5639048D01*
X422472438Y5639048D02*
X422520057Y5686667D01*
X422520057Y5686667D02*
X422615295Y5734286D01*
X422615295Y5734286D02*
X422805771Y5781905D01*
X422805771Y5781905D02*
X423043866Y5781905D01*
X423043866Y5781905D02*
X423234342Y5734286D01*
X423234342Y5734286D02*
X423329580Y5686667D01*
X423329580Y5686667D02*
X423377200Y5639048D01*
X423377200Y5639048D02*
X423424819Y5543810D01*
X423424819Y5543810D02*
X423424819Y5448572D01*
X423424819Y5448572D02*
X423377200Y5353334D01*
X423377200Y5353334D02*
X423329580Y5305715D01*
X423329580Y5305715D02*
X423234342Y5258096D01*
X423234342Y5258096D02*
X423043866Y5210477D01*
X423043866Y5210477D02*
X422805771Y5210477D01*
X422805771Y5210477D02*
X422615295Y5258096D01*
X422615295Y5258096D02*
X422520057Y5305715D01*
X422520057Y5305715D02*
X422472438Y5353334D01*
X422472438Y5353334D02*
X422424819Y5448572D01*
X422424819Y6400953D02*
X422424819Y6496191D01*
X422424819Y6496191D02*
X422472438Y6591429D01*
X422472438Y6591429D02*
X422520057Y6639048D01*
X422520057Y6639048D02*
X422615295Y6686667D01*
X422615295Y6686667D02*
X422805771Y6734286D01*
X422805771Y6734286D02*
X423043866Y6734286D01*
X423043866Y6734286D02*
X423234342Y6686667D01*
X423234342Y6686667D02*
X423329580Y6639048D01*
X423329580Y6639048D02*
X423377200Y6591429D01*
X423377200Y6591429D02*
X423424819Y6496191D01*
X423424819Y6496191D02*
X423424819Y6400953D01*
X423424819Y6400953D02*
X423377200Y6305715D01*
X423377200Y6305715D02*
X423329580Y6258096D01*
X423329580Y6258096D02*
X423234342Y6210477D01*
X423234342Y6210477D02*
X423043866Y6162858D01*
X423043866Y6162858D02*
X422805771Y6162858D01*
X422805771Y6162858D02*
X422615295Y6210477D01*
X422615295Y6210477D02*
X422520057Y6258096D01*
X422520057Y6258096D02*
X422472438Y6305715D01*
X422472438Y6305715D02*
X422424819Y6400953D01*
X423424819Y7924763D02*
X422758152Y7924763D01*
X422853390Y7924763D02*
X422805771Y7972382D01*
X422805771Y7972382D02*
X422758152Y8067620D01*
X422758152Y8067620D02*
X422758152Y8210477D01*
X422758152Y8210477D02*
X422805771Y8305715D01*
X422805771Y8305715D02*
X422901009Y8353334D01*
X422901009Y8353334D02*
X423424819Y8353334D01*
X422901009Y8353334D02*
X422805771Y8400953D01*
X422805771Y8400953D02*
X422758152Y8496191D01*
X422758152Y8496191D02*
X422758152Y8639048D01*
X422758152Y8639048D02*
X422805771Y8734287D01*
X422805771Y8734287D02*
X422901009Y8781906D01*
X422901009Y8781906D02*
X423424819Y8781906D01*
X423424819Y9258096D02*
X422758152Y9258096D01*
X422853390Y9258096D02*
X422805771Y9305715D01*
X422805771Y9305715D02*
X422758152Y9400953D01*
X422758152Y9400953D02*
X422758152Y9543810D01*
X422758152Y9543810D02*
X422805771Y9639048D01*
X422805771Y9639048D02*
X422901009Y9686667D01*
X422901009Y9686667D02*
X423424819Y9686667D01*
X422901009Y9686667D02*
X422805771Y9734286D01*
X422805771Y9734286D02*
X422758152Y9829524D01*
X422758152Y9829524D02*
X422758152Y9972381D01*
X422758152Y9972381D02*
X422805771Y10067620D01*
X422805771Y10067620D02*
X422901009Y10115239D01*
X422901009Y10115239D02*
X423424819Y10115239D01*
X390530000Y3480000D02*
X424706420Y3480000D01*
X424706420Y8560000D02*
X392100000Y8560000D01*
X424120000Y3480000D02*
X424120000Y8560000D01*
X424120000Y3480000D02*
X424120000Y8560000D01*
X424120000Y3480000D02*
X423533579Y4606504D01*
X424120000Y3480000D02*
X424706421Y4606504D01*
X424120000Y8560000D02*
X424706421Y7433496D01*
X424120000Y8560000D02*
X423533579Y7433496D01*
X84090952Y-24364819D02*
X83614762Y-24364819D01*
X83614762Y-24364819D02*
X83567143Y-24841009D01*
X83567143Y-24841009D02*
X83614762Y-24793390D01*
X83614762Y-24793390D02*
X83710000Y-24745771D01*
X83710000Y-24745771D02*
X83948095Y-24745771D01*
X83948095Y-24745771D02*
X84043333Y-24793390D01*
X84043333Y-24793390D02*
X84090952Y-24841009D01*
X84090952Y-24841009D02*
X84138571Y-24936247D01*
X84138571Y-24936247D02*
X84138571Y-25174342D01*
X84138571Y-25174342D02*
X84090952Y-25269580D01*
X84090952Y-25269580D02*
X84043333Y-25317200D01*
X84043333Y-25317200D02*
X83948095Y-25364819D01*
X83948095Y-25364819D02*
X83710000Y-25364819D01*
X83710000Y-25364819D02*
X83614762Y-25317200D01*
X83614762Y-25317200D02*
X83567143Y-25269580D01*
X84614762Y-25317200D02*
X84614762Y-25364819D01*
X84614762Y-25364819D02*
X84567143Y-25460057D01*
X84567143Y-25460057D02*
X84519524Y-25507676D01*
X85233809Y-24364819D02*
X85329047Y-24364819D01*
X85329047Y-24364819D02*
X85424285Y-24412438D01*
X85424285Y-24412438D02*
X85471904Y-24460057D01*
X85471904Y-24460057D02*
X85519523Y-24555295D01*
X85519523Y-24555295D02*
X85567142Y-24745771D01*
X85567142Y-24745771D02*
X85567142Y-24983866D01*
X85567142Y-24983866D02*
X85519523Y-25174342D01*
X85519523Y-25174342D02*
X85471904Y-25269580D01*
X85471904Y-25269580D02*
X85424285Y-25317200D01*
X85424285Y-25317200D02*
X85329047Y-25364819D01*
X85329047Y-25364819D02*
X85233809Y-25364819D01*
X85233809Y-25364819D02*
X85138571Y-25317200D01*
X85138571Y-25317200D02*
X85090952Y-25269580D01*
X85090952Y-25269580D02*
X85043333Y-25174342D01*
X85043333Y-25174342D02*
X84995714Y-24983866D01*
X84995714Y-24983866D02*
X84995714Y-24745771D01*
X84995714Y-24745771D02*
X85043333Y-24555295D01*
X85043333Y-24555295D02*
X85090952Y-24460057D01*
X85090952Y-24460057D02*
X85138571Y-24412438D01*
X85138571Y-24412438D02*
X85233809Y-24364819D01*
X86138571Y-24793390D02*
X86043333Y-24745771D01*
X86043333Y-24745771D02*
X85995714Y-24698152D01*
X85995714Y-24698152D02*
X85948095Y-24602914D01*
X85948095Y-24602914D02*
X85948095Y-24555295D01*
X85948095Y-24555295D02*
X85995714Y-24460057D01*
X85995714Y-24460057D02*
X86043333Y-24412438D01*
X86043333Y-24412438D02*
X86138571Y-24364819D01*
X86138571Y-24364819D02*
X86329047Y-24364819D01*
X86329047Y-24364819D02*
X86424285Y-24412438D01*
X86424285Y-24412438D02*
X86471904Y-24460057D01*
X86471904Y-24460057D02*
X86519523Y-24555295D01*
X86519523Y-24555295D02*
X86519523Y-24602914D01*
X86519523Y-24602914D02*
X86471904Y-24698152D01*
X86471904Y-24698152D02*
X86424285Y-24745771D01*
X86424285Y-24745771D02*
X86329047Y-24793390D01*
X86329047Y-24793390D02*
X86138571Y-24793390D01*
X86138571Y-24793390D02*
X86043333Y-24841009D01*
X86043333Y-24841009D02*
X85995714Y-24888628D01*
X85995714Y-24888628D02*
X85948095Y-24983866D01*
X85948095Y-24983866D02*
X85948095Y-25174342D01*
X85948095Y-25174342D02*
X85995714Y-25269580D01*
X85995714Y-25269580D02*
X86043333Y-25317200D01*
X86043333Y-25317200D02*
X86138571Y-25364819D01*
X86138571Y-25364819D02*
X86329047Y-25364819D01*
X86329047Y-25364819D02*
X86424285Y-25317200D01*
X86424285Y-25317200D02*
X86471904Y-25269580D01*
X86471904Y-25269580D02*
X86519523Y-25174342D01*
X86519523Y-25174342D02*
X86519523Y-24983866D01*
X86519523Y-24983866D02*
X86471904Y-24888628D01*
X86471904Y-24888628D02*
X86424285Y-24841009D01*
X86424285Y-24841009D02*
X86329047Y-24793390D01*
X87138571Y-24364819D02*
X87233809Y-24364819D01*
X87233809Y-24364819D02*
X87329047Y-24412438D01*
X87329047Y-24412438D02*
X87376666Y-24460057D01*
X87376666Y-24460057D02*
X87424285Y-24555295D01*
X87424285Y-24555295D02*
X87471904Y-24745771D01*
X87471904Y-24745771D02*
X87471904Y-24983866D01*
X87471904Y-24983866D02*
X87424285Y-25174342D01*
X87424285Y-25174342D02*
X87376666Y-25269580D01*
X87376666Y-25269580D02*
X87329047Y-25317200D01*
X87329047Y-25317200D02*
X87233809Y-25364819D01*
X87233809Y-25364819D02*
X87138571Y-25364819D01*
X87138571Y-25364819D02*
X87043333Y-25317200D01*
X87043333Y-25317200D02*
X86995714Y-25269580D01*
X86995714Y-25269580D02*
X86948095Y-25174342D01*
X86948095Y-25174342D02*
X86900476Y-24983866D01*
X86900476Y-24983866D02*
X86900476Y-24745771D01*
X86900476Y-24745771D02*
X86948095Y-24555295D01*
X86948095Y-24555295D02*
X86995714Y-24460057D01*
X86995714Y-24460057D02*
X87043333Y-24412438D01*
X87043333Y-24412438D02*
X87138571Y-24364819D01*
X88090952Y-24364819D02*
X88186190Y-24364819D01*
X88186190Y-24364819D02*
X88281428Y-24412438D01*
X88281428Y-24412438D02*
X88329047Y-24460057D01*
X88329047Y-24460057D02*
X88376666Y-24555295D01*
X88376666Y-24555295D02*
X88424285Y-24745771D01*
X88424285Y-24745771D02*
X88424285Y-24983866D01*
X88424285Y-24983866D02*
X88376666Y-25174342D01*
X88376666Y-25174342D02*
X88329047Y-25269580D01*
X88329047Y-25269580D02*
X88281428Y-25317200D01*
X88281428Y-25317200D02*
X88186190Y-25364819D01*
X88186190Y-25364819D02*
X88090952Y-25364819D01*
X88090952Y-25364819D02*
X87995714Y-25317200D01*
X87995714Y-25317200D02*
X87948095Y-25269580D01*
X87948095Y-25269580D02*
X87900476Y-25174342D01*
X87900476Y-25174342D02*
X87852857Y-24983866D01*
X87852857Y-24983866D02*
X87852857Y-24745771D01*
X87852857Y-24745771D02*
X87900476Y-24555295D01*
X87900476Y-24555295D02*
X87948095Y-24460057D01*
X87948095Y-24460057D02*
X87995714Y-24412438D01*
X87995714Y-24412438D02*
X88090952Y-24364819D01*
X89614762Y-25364819D02*
X89614762Y-24698152D01*
X89614762Y-24793390D02*
X89662381Y-24745771D01*
X89662381Y-24745771D02*
X89757619Y-24698152D01*
X89757619Y-24698152D02*
X89900476Y-24698152D01*
X89900476Y-24698152D02*
X89995714Y-24745771D01*
X89995714Y-24745771D02*
X90043333Y-24841009D01*
X90043333Y-24841009D02*
X90043333Y-25364819D01*
X90043333Y-24841009D02*
X90090952Y-24745771D01*
X90090952Y-24745771D02*
X90186190Y-24698152D01*
X90186190Y-24698152D02*
X90329047Y-24698152D01*
X90329047Y-24698152D02*
X90424286Y-24745771D01*
X90424286Y-24745771D02*
X90471905Y-24841009D01*
X90471905Y-24841009D02*
X90471905Y-25364819D01*
X90948095Y-25364819D02*
X90948095Y-24698152D01*
X90948095Y-24793390D02*
X90995714Y-24745771D01*
X90995714Y-24745771D02*
X91090952Y-24698152D01*
X91090952Y-24698152D02*
X91233809Y-24698152D01*
X91233809Y-24698152D02*
X91329047Y-24745771D01*
X91329047Y-24745771D02*
X91376666Y-24841009D01*
X91376666Y-24841009D02*
X91376666Y-25364819D01*
X91376666Y-24841009D02*
X91424285Y-24745771D01*
X91424285Y-24745771D02*
X91519523Y-24698152D01*
X91519523Y-24698152D02*
X91662380Y-24698152D01*
X91662380Y-24698152D02*
X91757619Y-24745771D01*
X91757619Y-24745771D02*
X91805238Y-24841009D01*
X91805238Y-24841009D02*
X91805238Y-25364819D01*
X90250000Y4250000D02*
X90250000Y-26646420D01*
X85170000Y-26646420D02*
X85170000Y4060000D01*
X90250000Y-26060000D02*
X85170000Y-26060000D01*
X90250000Y-26060000D02*
X85170000Y-26060000D01*
X90250000Y-26060000D02*
X89123496Y-26646421D01*
X90250000Y-26060000D02*
X89123496Y-25473579D01*
X85170000Y-26060000D02*
X86296504Y-25473579D01*
X85170000Y-26060000D02*
X86296504Y-26646421D01*
%TO.C,H4*%
X85430000Y90930000D02*
G75*
G03*
X85430000Y90930000I-2800000J0D01*
G01*
%TO.C,H1*%
X7980000Y5190000D02*
G75*
G03*
X7980000Y5190000I-2800000J0D01*
G01*
%TO.C,H3*%
X87970000Y5210000D02*
G75*
G03*
X87970000Y5210000I-2800000J0D01*
G01*
%TO.C,H2*%
X11790000Y90930000D02*
G75*
G03*
X11790000Y90930000I-2800000J0D01*
G01*
%TD*%
M02*
