%TF.GenerationSoftware,KiCad,Pcbnew,6.0.9*%
%TF.CreationDate,2023-07-28T14:51:24+03:00*%
%TF.ProjectId,obc-adcs-board,6f62632d-6164-4637-932d-626f6172642e,rev?*%
%TF.SameCoordinates,PX3e2df80PY83e4a60*%
%TF.FileFunction,Legend,Bot*%
%TF.FilePolarity,Positive*%
%FSLAX46Y46*%
G04 Gerber Fmt 4.6, Leading zero omitted, Abs format (unit mm)*
G04 Created by KiCad (PCBNEW 6.0.9) date 2023-07-28 14:51:24*
%MOMM*%
%LPD*%
G01*
G04 APERTURE LIST*
G04 Aperture macros list*
%AMRoundRect*
0 Rectangle with rounded corners*
0 $1 Rounding radius*
0 $2 $3 $4 $5 $6 $7 $8 $9 X,Y pos of 4 corners*
0 Add a 4 corners polygon primitive as box body*
4,1,4,$2,$3,$4,$5,$6,$7,$8,$9,$2,$3,0*
0 Add four circle primitives for the rounded corners*
1,1,$1+$1,$2,$3*
1,1,$1+$1,$4,$5*
1,1,$1+$1,$6,$7*
1,1,$1+$1,$8,$9*
0 Add four rect primitives between the rounded corners*
20,1,$1+$1,$2,$3,$4,$5,0*
20,1,$1+$1,$4,$5,$6,$7,0*
20,1,$1+$1,$6,$7,$8,$9,0*
20,1,$1+$1,$8,$9,$2,$3,0*%
G04 Aperture macros list end*
%ADD10C,0.150000*%
%TA.AperFunction,Profile*%
%ADD11C,0.100000*%
%TD*%
%ADD12C,0.254000*%
%ADD13C,0.200000*%
%ADD14C,0.120000*%
%ADD15C,0.127000*%
%ADD16C,0.250000*%
%ADD17C,0.100000*%
%ADD18C,0.010000*%
%ADD19C,5.600000*%
%ADD20C,0.900000*%
%ADD21R,0.850000X0.850000*%
%ADD22R,1.530000X1.530000*%
%ADD23C,1.530000*%
%ADD24R,0.450000X1.475000*%
%ADD25RoundRect,0.135000X-0.185000X0.135000X-0.185000X-0.135000X0.185000X-0.135000X0.185000X0.135000X0*%
%ADD26R,1.780000X3.430000*%
%ADD27R,1.475000X0.300000*%
%ADD28R,0.300000X1.475000*%
%ADD29RoundRect,0.200000X-0.200000X-0.275000X0.200000X-0.275000X0.200000X0.275000X-0.200000X0.275000X0*%
%ADD30RoundRect,0.140000X0.170000X-0.140000X0.170000X0.140000X-0.170000X0.140000X-0.170000X-0.140000X0*%
%ADD31RoundRect,0.135000X0.185000X-0.135000X0.185000X0.135000X-0.185000X0.135000X-0.185000X-0.135000X0*%
%ADD32R,0.550000X1.000000*%
%ADD33R,1.260000X1.300000*%
%ADD34RoundRect,0.225000X0.225000X0.250000X-0.225000X0.250000X-0.225000X-0.250000X0.225000X-0.250000X0*%
%ADD35RoundRect,0.200000X0.200000X0.275000X-0.200000X0.275000X-0.200000X-0.275000X0.200000X-0.275000X0*%
%ADD36RoundRect,0.140000X-0.170000X0.140000X-0.170000X-0.140000X0.170000X-0.140000X0.170000X0.140000X0*%
%ADD37R,0.650000X1.528000*%
%ADD38R,1.400000X0.450000*%
%ADD39RoundRect,0.100000X-0.100000X0.712500X-0.100000X-0.712500X0.100000X-0.712500X0.100000X0.712500X0*%
%ADD40RoundRect,0.225000X0.250000X-0.225000X0.250000X0.225000X-0.250000X0.225000X-0.250000X-0.225000X0*%
%ADD41RoundRect,0.140000X-0.140000X-0.170000X0.140000X-0.170000X0.140000X0.170000X-0.140000X0.170000X0*%
%ADD42C,1.000000*%
%ADD43RoundRect,0.225000X-0.250000X0.225000X-0.250000X-0.225000X0.250000X-0.225000X0.250000X0.225000X0*%
%ADD44R,1.000000X1.800000*%
%ADD45RoundRect,0.140000X0.140000X0.170000X-0.140000X0.170000X-0.140000X-0.170000X0.140000X-0.170000X0*%
%ADD46R,1.905000X1.020000*%
%ADD47R,0.940000X1.010000*%
%ADD48R,0.940000X1.020000*%
%ADD49R,0.450000X1.400000*%
%ADD50R,1.010000X0.940000*%
%ADD51RoundRect,0.200000X0.275000X-0.200000X0.275000X0.200000X-0.275000X0.200000X-0.275000X-0.200000X0*%
%ADD52RoundRect,0.225000X-0.225000X-0.250000X0.225000X-0.250000X0.225000X0.250000X-0.225000X0.250000X0*%
%ADD53R,0.700000X0.650000*%
%ADD54R,0.650000X0.700000*%
%ADD55R,1.000000X1.500000*%
%ADD56RoundRect,0.135000X-0.135000X-0.185000X0.135000X-0.185000X0.135000X0.185000X-0.135000X0.185000X0*%
%ADD57RoundRect,0.200000X-0.275000X0.200000X-0.275000X-0.200000X0.275000X-0.200000X0.275000X0.200000X0*%
%ADD58RoundRect,0.135000X0.135000X0.185000X-0.135000X0.185000X-0.135000X-0.185000X0.135000X-0.185000X0*%
%ADD59R,1.528000X0.650000*%
%ADD60R,0.800000X0.900000*%
%ADD61R,1.500000X1.000000*%
G04 APERTURE END LIST*
D10*
X55730000Y26640000D02*
X55630000Y26640000D01*
X17900000Y80400000D02*
X14500000Y80400000D01*
X10400000Y51200000D02*
X13100000Y51200000D01*
X17300000Y77700000D02*
X17300000Y73500000D01*
X55630000Y26640000D02*
X55630000Y27440000D01*
X34100000Y80200000D02*
X30500000Y80200000D01*
X52250000Y30200000D02*
X52250000Y30700000D01*
X77000000Y34100000D02*
X77000000Y30600000D01*
X56100000Y30700000D02*
X56100000Y30200000D01*
X58480000Y27440000D02*
X58480000Y26640000D01*
X56100000Y30200000D02*
X52250000Y30200000D01*
X58480000Y26640000D02*
X55730000Y26640000D01*
X5600000Y57200000D02*
X5600000Y60700000D01*
X2440000Y77310000D02*
X2440000Y73510000D01*
X76400000Y27400000D02*
X72100000Y27400000D01*
D11*
X1600000Y43065000D02*
X1600000Y53065000D01*
X66685000Y120000D02*
X89370000Y120000D01*
X850000Y42315000D02*
G75*
G03*
X100000Y41565000I0J-750000D01*
G01*
X65935000Y870000D02*
G75*
G03*
X65185000Y1620000I-750000J0D01*
G01*
X72185000Y94510000D02*
G75*
G03*
X72935000Y95260000I0J750000D01*
G01*
X90270000Y12065000D02*
X90270000Y1020000D01*
X850000Y42315000D02*
G75*
G03*
X1600000Y43065000I0J750000D01*
G01*
X25185000Y1620000D02*
G75*
G03*
X24435000Y870000I0J-750000D01*
G01*
X18185000Y94510000D02*
X72185000Y94510000D01*
X100000Y41565000D02*
X100000Y1010000D01*
X73685000Y96010000D02*
G75*
G03*
X72935000Y95260000I0J-750000D01*
G01*
X1000000Y96010000D02*
G75*
G03*
X100000Y95110000I0J-900000D01*
G01*
X100000Y1010000D02*
G75*
G03*
X1000000Y110000I900000J0D01*
G01*
X88770000Y13565000D02*
X88770000Y82565000D01*
X90270000Y12065000D02*
G75*
G03*
X89520000Y12815000I-750000J0D01*
G01*
X89520000Y83315000D02*
G75*
G03*
X88770000Y82565000I0J-750000D01*
G01*
X88770000Y13565000D02*
G75*
G03*
X89520000Y12815000I750000J0D01*
G01*
X25185000Y1620000D02*
X65185000Y1620000D01*
X73685000Y96010000D02*
X89370000Y96010000D01*
X89520000Y83315000D02*
G75*
G03*
X90270000Y84065000I0J750000D01*
G01*
X89370000Y120000D02*
G75*
G03*
X90270000Y1020000I0J900000D01*
G01*
X1600000Y53065000D02*
G75*
G03*
X850000Y53815000I-750000J0D01*
G01*
X23685000Y120000D02*
G75*
G03*
X24435000Y870000I0J750000D01*
G01*
X90270000Y95110000D02*
G75*
G03*
X89370000Y96010000I-900000J0D01*
G01*
X17435000Y95260000D02*
G75*
G03*
X18185000Y94510000I750000J0D01*
G01*
X100000Y54565000D02*
G75*
G03*
X850000Y53815000I750000J0D01*
G01*
X1000000Y96010000D02*
X16685000Y96010000D01*
X90270000Y95110000D02*
X90270000Y84065000D01*
X100000Y95110000D02*
X100000Y54565000D01*
X17435000Y95260000D02*
G75*
G03*
X16685000Y96010000I-750000J0D01*
G01*
X23685000Y120000D02*
X1000000Y110000D01*
X65935000Y870000D02*
G75*
G03*
X66685000Y120000I750000J0D01*
G01*
D10*
X87421912Y50465000D02*
X87533519Y50524524D01*
X87712090Y50524524D01*
X87898102Y50465000D01*
X88032031Y50345953D01*
X88106436Y50226905D01*
X88195721Y49988810D01*
X88218043Y49810239D01*
X88188281Y49572143D01*
X88143638Y49453096D01*
X88039471Y49334048D01*
X87868340Y49274524D01*
X87749293Y49274524D01*
X87563281Y49334048D01*
X87496316Y49393572D01*
X87444233Y49810239D01*
X87682328Y49810239D01*
X86975483Y49274524D02*
X86819233Y50524524D01*
X86261197Y49274524D01*
X86104947Y50524524D01*
X85665959Y49274524D02*
X85509709Y50524524D01*
X85212090Y50524524D01*
X85040959Y50465000D01*
X84936793Y50345953D01*
X84892150Y50226905D01*
X84862388Y49988810D01*
X84884709Y49810239D01*
X84973995Y49572143D01*
X85048400Y49453096D01*
X85182328Y49334048D01*
X85368340Y49274524D01*
X85665959Y49274524D01*
X18846428Y76983222D02*
X18905952Y77050187D01*
X18965476Y77236198D01*
X18965476Y77355246D01*
X18905952Y77526377D01*
X18786904Y77630544D01*
X18667857Y77675187D01*
X18429761Y77704948D01*
X18251190Y77682627D01*
X18013095Y77593341D01*
X17894047Y77518937D01*
X17775000Y77385008D01*
X17715476Y77198996D01*
X17715476Y77079948D01*
X17775000Y76908817D01*
X17834523Y76856734D01*
X17715476Y76484710D02*
X17715476Y75770425D01*
X18965476Y76283817D02*
X17715476Y76127567D01*
X17715476Y75472806D02*
X18965476Y74795722D01*
X17715476Y74639472D02*
X18965476Y75629056D01*
X17834523Y74237687D02*
X17775000Y74170722D01*
X17715476Y74044234D01*
X17715476Y73746615D01*
X17775000Y73635008D01*
X17834523Y73582925D01*
X17953571Y73538282D01*
X18072619Y73553163D01*
X18251190Y73635008D01*
X18965476Y74438579D01*
X18965476Y73664770D01*
X3880714Y85673639D02*
X3880714Y86090306D01*
X4535476Y86172151D02*
X3285476Y86015901D01*
X3285476Y85420663D01*
X4178333Y85115603D02*
X4178333Y84520365D01*
X4535476Y85279294D02*
X3285476Y84706377D01*
X4535476Y84445960D01*
X3285476Y83873044D02*
X4297380Y83999532D01*
X4416428Y83954889D01*
X4475952Y83902806D01*
X4535476Y83791198D01*
X4535476Y83553103D01*
X4475952Y83426615D01*
X4416428Y83359651D01*
X4297380Y83285246D01*
X3285476Y83158758D01*
X3404523Y82637925D02*
X3345000Y82570960D01*
X3285476Y82444472D01*
X3285476Y82146853D01*
X3345000Y82035246D01*
X3404523Y81983163D01*
X3523571Y81938520D01*
X3642619Y81953401D01*
X3821190Y82035246D01*
X4535476Y82838817D01*
X4535476Y82065008D01*
X26526190Y13467620D02*
X26335714Y13467620D01*
X26240476Y13420000D01*
X26145238Y13324762D01*
X26097619Y13134286D01*
X26097619Y12800953D01*
X26145238Y12610477D01*
X26240476Y12515239D01*
X26335714Y12467620D01*
X26526190Y12467620D01*
X26621428Y12515239D01*
X26716666Y12610477D01*
X26764285Y12800953D01*
X26764285Y13134286D01*
X26716666Y13324762D01*
X26621428Y13420000D01*
X26526190Y13467620D01*
X25335714Y12991429D02*
X25192857Y12943810D01*
X25145238Y12896191D01*
X25097619Y12800953D01*
X25097619Y12658096D01*
X25145238Y12562858D01*
X25192857Y12515239D01*
X25288095Y12467620D01*
X25669047Y12467620D01*
X25669047Y13467620D01*
X25335714Y13467620D01*
X25240476Y13420000D01*
X25192857Y13372381D01*
X25145238Y13277143D01*
X25145238Y13181905D01*
X25192857Y13086667D01*
X25240476Y13039048D01*
X25335714Y12991429D01*
X25669047Y12991429D01*
X24097619Y12562858D02*
X24145238Y12515239D01*
X24288095Y12467620D01*
X24383333Y12467620D01*
X24526190Y12515239D01*
X24621428Y12610477D01*
X24669047Y12705715D01*
X24716666Y12896191D01*
X24716666Y13039048D01*
X24669047Y13229524D01*
X24621428Y13324762D01*
X24526190Y13420000D01*
X24383333Y13467620D01*
X24288095Y13467620D01*
X24145238Y13420000D01*
X24097619Y13372381D01*
X22907142Y12467620D02*
X22907142Y13467620D01*
X22526190Y13467620D01*
X22430952Y13420000D01*
X22383333Y13372381D01*
X22335714Y13277143D01*
X22335714Y13134286D01*
X22383333Y13039048D01*
X22430952Y12991429D01*
X22526190Y12943810D01*
X22907142Y12943810D01*
X21335714Y12562858D02*
X21383333Y12515239D01*
X21526190Y12467620D01*
X21621428Y12467620D01*
X21764285Y12515239D01*
X21859523Y12610477D01*
X21907142Y12705715D01*
X21954761Y12896191D01*
X21954761Y13039048D01*
X21907142Y13229524D01*
X21859523Y13324762D01*
X21764285Y13420000D01*
X21621428Y13467620D01*
X21526190Y13467620D01*
X21383333Y13420000D01*
X21335714Y13372381D01*
X20573809Y12991429D02*
X20430952Y12943810D01*
X20383333Y12896191D01*
X20335714Y12800953D01*
X20335714Y12658096D01*
X20383333Y12562858D01*
X20430952Y12515239D01*
X20526190Y12467620D01*
X20907142Y12467620D01*
X20907142Y13467620D01*
X20573809Y13467620D01*
X20478571Y13420000D01*
X20430952Y13372381D01*
X20383333Y13277143D01*
X20383333Y13181905D01*
X20430952Y13086667D01*
X20478571Y13039048D01*
X20573809Y12991429D01*
X20907142Y12991429D01*
X87588102Y58984524D02*
X87431852Y60234524D01*
X87134233Y60234524D01*
X86963102Y60175000D01*
X86858936Y60055953D01*
X86814293Y59936905D01*
X86784531Y59698810D01*
X86806852Y59520239D01*
X86896138Y59282143D01*
X86970543Y59163096D01*
X87104471Y59044048D01*
X87290483Y58984524D01*
X87588102Y58984524D01*
X86338102Y58984524D02*
X86181852Y60234524D01*
X85348519Y60234524D02*
X85110424Y60234524D01*
X84998816Y60175000D01*
X84894650Y60055953D01*
X84864888Y59817858D01*
X84916971Y59401191D01*
X85006257Y59163096D01*
X85140186Y59044048D01*
X85266674Y58984524D01*
X85504769Y58984524D01*
X85616376Y59044048D01*
X85720543Y59163096D01*
X85750305Y59401191D01*
X85698221Y59817858D01*
X85608936Y60055953D01*
X85475007Y60175000D01*
X85348519Y60234524D01*
X3726428Y77032032D02*
X3785952Y77098996D01*
X3845476Y77285008D01*
X3845476Y77404056D01*
X3785952Y77575187D01*
X3666904Y77679353D01*
X3547857Y77723996D01*
X3309761Y77753758D01*
X3131190Y77731437D01*
X2893095Y77642151D01*
X2774047Y77567746D01*
X2655000Y77433817D01*
X2595476Y77247806D01*
X2595476Y77128758D01*
X2655000Y76957627D01*
X2714523Y76905544D01*
X3845476Y75796913D02*
X3250238Y76139175D01*
X3845476Y76511198D02*
X2595476Y76354948D01*
X2595476Y75878758D01*
X2655000Y75767151D01*
X2714523Y75715067D01*
X2833571Y75670425D01*
X3012142Y75692746D01*
X3131190Y75767151D01*
X3190714Y75834115D01*
X3250238Y75960603D01*
X3250238Y76436794D01*
X2595476Y75223996D02*
X3845476Y74546913D01*
X2595476Y74390663D02*
X3845476Y75380246D01*
X2714523Y73988877D02*
X2655000Y73921913D01*
X2595476Y73795425D01*
X2595476Y73497806D01*
X2655000Y73386198D01*
X2714523Y73334115D01*
X2833571Y73289472D01*
X2952619Y73304353D01*
X3131190Y73386198D01*
X3845476Y74189770D01*
X3845476Y73415960D01*
X33568638Y79389286D02*
X33985305Y79389286D01*
X34067150Y78734524D02*
X33910900Y79984524D01*
X33315662Y79984524D01*
X32266555Y78853572D02*
X32333519Y78794048D01*
X32519531Y78734524D01*
X32638578Y78734524D01*
X32809709Y78794048D01*
X32913876Y78913096D01*
X32958519Y79032143D01*
X32988281Y79270239D01*
X32965959Y79448810D01*
X32876674Y79686905D01*
X32802269Y79805953D01*
X32668340Y79925000D01*
X32482328Y79984524D01*
X32363281Y79984524D01*
X32192150Y79925000D01*
X32140066Y79865477D01*
X31760602Y79091667D02*
X31165364Y79091667D01*
X31924293Y78734524D02*
X31351376Y79984524D01*
X31090959Y78734524D01*
X30674293Y78734524D02*
X30518043Y79984524D01*
X29960007Y78734524D01*
X29803757Y79984524D01*
X28710007Y78734524D02*
X29424293Y78734524D01*
X29067150Y78734524D02*
X28910900Y79984524D01*
X29052269Y79805953D01*
X29186197Y79686905D01*
X29312686Y79627381D01*
X87437507Y51063572D02*
X87504471Y51004048D01*
X87690483Y50944524D01*
X87809531Y50944524D01*
X87980662Y51004048D01*
X88084828Y51123096D01*
X88129471Y51242143D01*
X88159233Y51480239D01*
X88136912Y51658810D01*
X88047626Y51896905D01*
X87973221Y52015953D01*
X87839293Y52135000D01*
X87653281Y52194524D01*
X87534233Y52194524D01*
X87363102Y52135000D01*
X87311019Y52075477D01*
X86321436Y50944524D02*
X86916674Y50944524D01*
X86760424Y52194524D01*
X85904769Y50944524D02*
X85748519Y52194524D01*
X85190483Y50944524D02*
X85636912Y51658810D01*
X85034233Y52194524D02*
X85837805Y51480239D01*
X13033333Y50947620D02*
X12700000Y49947620D01*
X12366666Y50947620D01*
X12033333Y49947620D02*
X12033333Y50947620D01*
X11795238Y50947620D01*
X11652380Y50900000D01*
X11557142Y50804762D01*
X11509523Y50709524D01*
X11461904Y50519048D01*
X11461904Y50376191D01*
X11509523Y50185715D01*
X11557142Y50090477D01*
X11652380Y49995239D01*
X11795238Y49947620D01*
X12033333Y49947620D01*
X11033333Y49947620D02*
X11033333Y50947620D01*
X10795238Y50947620D01*
X10652380Y50900000D01*
X10557142Y50804762D01*
X10509523Y50709524D01*
X10461904Y50519048D01*
X10461904Y50376191D01*
X10509523Y50185715D01*
X10557142Y50090477D01*
X10652380Y49995239D01*
X10795238Y49947620D01*
X11033333Y49947620D01*
X80055781Y55489286D02*
X79639114Y55489286D01*
X79542388Y54834524D02*
X80137626Y54834524D01*
X79981376Y56084524D01*
X79386138Y56084524D01*
X78292388Y54834524D02*
X78634650Y55429762D01*
X79006674Y54834524D02*
X78850424Y56084524D01*
X78374233Y56084524D01*
X78262626Y56025000D01*
X78210543Y55965477D01*
X78165900Y55846429D01*
X78188221Y55667858D01*
X78262626Y55548810D01*
X78329590Y55489286D01*
X78456078Y55429762D01*
X78932269Y55429762D01*
X77771555Y55191667D02*
X77176316Y55191667D01*
X77935245Y54834524D02*
X77362328Y56084524D01*
X77101912Y54834524D01*
X76737328Y54894048D02*
X76566197Y54834524D01*
X76268578Y54834524D01*
X76142090Y54894048D01*
X76075126Y54953572D01*
X76000721Y55072620D01*
X75985840Y55191667D01*
X76030483Y55310715D01*
X76082566Y55370239D01*
X76194174Y55429762D01*
X76424828Y55489286D01*
X76536436Y55548810D01*
X76588519Y55608334D01*
X76633162Y55727381D01*
X76618281Y55846429D01*
X76543876Y55965477D01*
X76476912Y56025000D01*
X76350424Y56084524D01*
X76052805Y56084524D01*
X75881674Y56025000D01*
X75412924Y55489286D02*
X74996257Y55489286D01*
X74899531Y54834524D02*
X75494769Y54834524D01*
X75338519Y56084524D01*
X74743281Y56084524D01*
X86847328Y61994048D02*
X86676197Y61934524D01*
X86378578Y61934524D01*
X86252090Y61994048D01*
X86185126Y62053572D01*
X86110721Y62172620D01*
X86095840Y62291667D01*
X86140483Y62410715D01*
X86192566Y62470239D01*
X86304174Y62529762D01*
X86534828Y62589286D01*
X86646436Y62648810D01*
X86698519Y62708334D01*
X86743162Y62827381D01*
X86728281Y62946429D01*
X86653876Y63065477D01*
X86586912Y63125000D01*
X86460424Y63184524D01*
X86162805Y63184524D01*
X85991674Y63125000D01*
X85567566Y63184524D02*
X85426197Y61934524D01*
X85076495Y62827381D01*
X84950007Y61934524D01*
X84496138Y63184524D01*
X84176197Y61934524D02*
X84019947Y63184524D01*
X83722328Y63184524D01*
X83551197Y63125000D01*
X83447031Y63005953D01*
X83402388Y62886905D01*
X83372626Y62648810D01*
X83394947Y62470239D01*
X83484233Y62232143D01*
X83558638Y62113096D01*
X83692566Y61994048D01*
X83878578Y61934524D01*
X84176197Y61934524D01*
X18066852Y78794048D02*
X17895721Y78734524D01*
X17598102Y78734524D01*
X17471614Y78794048D01*
X17404650Y78853572D01*
X17330245Y78972620D01*
X17315364Y79091667D01*
X17360007Y79210715D01*
X17412090Y79270239D01*
X17523697Y79329762D01*
X17754352Y79389286D01*
X17865959Y79448810D01*
X17918043Y79508334D01*
X17962686Y79627381D01*
X17947805Y79746429D01*
X17873400Y79865477D01*
X17806436Y79925000D01*
X17679947Y79984524D01*
X17382328Y79984524D01*
X17211197Y79925000D01*
X16824293Y78734524D02*
X16668043Y79984524D01*
X15633816Y78734524D02*
X16229055Y78734524D01*
X16072805Y79984524D01*
X15135305Y79865477D02*
X15068340Y79925000D01*
X14941852Y79984524D01*
X14644233Y79984524D01*
X14532626Y79925000D01*
X14480543Y79865477D01*
X14435900Y79746429D01*
X14450781Y79627381D01*
X14532626Y79448810D01*
X15336197Y78734524D01*
X14562388Y78734524D01*
X5247619Y57104762D02*
X5247619Y57771429D01*
X4247619Y57104762D01*
X4247619Y57771429D01*
X5200000Y58676191D02*
X5247619Y58580953D01*
X5247619Y58438096D01*
X5200000Y58295239D01*
X5104761Y58200000D01*
X5009523Y58152381D01*
X4819047Y58104762D01*
X4676190Y58104762D01*
X4485714Y58152381D01*
X4390476Y58200000D01*
X4295238Y58295239D01*
X4247619Y58438096D01*
X4247619Y58533334D01*
X4295238Y58676191D01*
X4342857Y58723810D01*
X4676190Y58723810D01*
X4676190Y58533334D01*
X4723809Y59342858D02*
X4247619Y59342858D01*
X5247619Y59009524D02*
X4723809Y59342858D01*
X5247619Y59676191D01*
X4247619Y60580953D02*
X4723809Y60247620D01*
X4247619Y60009524D02*
X5247619Y60009524D01*
X5247619Y60390477D01*
X5200000Y60485715D01*
X5152380Y60533334D01*
X5057142Y60580953D01*
X4914285Y60580953D01*
X4819047Y60533334D01*
X4771428Y60485715D01*
X4723809Y60390477D01*
X4723809Y60009524D01*
X5247619Y61200000D02*
X5247619Y61390477D01*
X5200000Y61485715D01*
X5104761Y61580953D01*
X4914285Y61628572D01*
X4580952Y61628572D01*
X4390476Y61580953D01*
X4295238Y61485715D01*
X4247619Y61390477D01*
X4247619Y61200000D01*
X4295238Y61104762D01*
X4390476Y61009524D01*
X4580952Y60961905D01*
X4914285Y60961905D01*
X5104761Y61009524D01*
X5200000Y61104762D01*
X5247619Y61200000D01*
X4152380Y61819048D02*
X4152380Y62580953D01*
X4771428Y63152381D02*
X4771428Y62819048D01*
X4247619Y62819048D02*
X5247619Y62819048D01*
X5247619Y63295239D01*
X78565476Y34531437D02*
X77315476Y34375187D01*
X77315476Y33898996D01*
X77375000Y33787389D01*
X77434523Y33735306D01*
X77553571Y33690663D01*
X77732142Y33712984D01*
X77851190Y33787389D01*
X77910714Y33854353D01*
X77970238Y33980841D01*
X77970238Y34457032D01*
X78565476Y32626675D02*
X78565476Y33340960D01*
X78565476Y32983817D02*
X77315476Y32827567D01*
X77494047Y32968937D01*
X77613095Y33102865D01*
X77672619Y33229353D01*
X77315476Y31696615D02*
X77315476Y31577567D01*
X77375000Y31465960D01*
X77434523Y31413877D01*
X77553571Y31369234D01*
X77791666Y31339472D01*
X78089285Y31376675D01*
X78327380Y31465960D01*
X78446428Y31540365D01*
X78505952Y31607329D01*
X78565476Y31733817D01*
X78565476Y31852865D01*
X78505952Y31964472D01*
X78446428Y32016556D01*
X78327380Y32061198D01*
X78089285Y32090960D01*
X77791666Y32053758D01*
X77553571Y31964472D01*
X77434523Y31890067D01*
X77375000Y31823103D01*
X77315476Y31696615D01*
X77851190Y30632627D02*
X77791666Y30744234D01*
X77732142Y30796317D01*
X77613095Y30840960D01*
X77553571Y30833520D01*
X77434523Y30759115D01*
X77375000Y30692151D01*
X77315476Y30565663D01*
X77315476Y30327567D01*
X77375000Y30215960D01*
X77434523Y30163877D01*
X77553571Y30119234D01*
X77613095Y30126675D01*
X77732142Y30201079D01*
X77791666Y30268044D01*
X77851190Y30394532D01*
X77851190Y30632627D01*
X77910714Y30759115D01*
X77970238Y30826079D01*
X78089285Y30900484D01*
X78327380Y30930246D01*
X78446428Y30885603D01*
X78505952Y30833520D01*
X78565476Y30721913D01*
X78565476Y30483817D01*
X78505952Y30357329D01*
X78446428Y30290365D01*
X78327380Y30215960D01*
X78089285Y30186198D01*
X77970238Y30230841D01*
X77910714Y30282925D01*
X77851190Y30394532D01*
X76431436Y25834524D02*
X76275186Y27084524D01*
X75798995Y27084524D01*
X75687388Y27025000D01*
X75635305Y26965477D01*
X75590662Y26846429D01*
X75612983Y26667858D01*
X75687388Y26548810D01*
X75754352Y26489286D01*
X75880840Y26429762D01*
X76357031Y26429762D01*
X74526674Y25834524D02*
X75240959Y25834524D01*
X74883816Y25834524D02*
X74727566Y27084524D01*
X74868936Y26905953D01*
X75002864Y26786905D01*
X75129352Y26727381D01*
X73336197Y25834524D02*
X74050483Y25834524D01*
X73693340Y25834524D02*
X73537090Y27084524D01*
X73678459Y26905953D01*
X73812388Y26786905D01*
X73938876Y26727381D01*
X72763281Y27084524D02*
X71929947Y27084524D01*
X72621912Y25834524D01*
D12*
%TO.C,Q2*%
X64695476Y77069048D02*
X64635000Y77188096D01*
X64514047Y77307143D01*
X64332619Y77485715D01*
X64272142Y77604762D01*
X64272142Y77723810D01*
X64574523Y77664286D02*
X64514047Y77783334D01*
X64393095Y77902381D01*
X64151190Y77961905D01*
X63727857Y77961905D01*
X63485952Y77902381D01*
X63365000Y77783334D01*
X63304523Y77664286D01*
X63304523Y77426191D01*
X63365000Y77307143D01*
X63485952Y77188096D01*
X63727857Y77128572D01*
X64151190Y77128572D01*
X64393095Y77188096D01*
X64514047Y77307143D01*
X64574523Y77426191D01*
X64574523Y77664286D01*
X63425476Y76652381D02*
X63365000Y76592858D01*
X63304523Y76473810D01*
X63304523Y76176191D01*
X63365000Y76057143D01*
X63425476Y75997620D01*
X63546428Y75938096D01*
X63667380Y75938096D01*
X63848809Y75997620D01*
X64574523Y76711905D01*
X64574523Y75938096D01*
D10*
%TO.C,R9*%
X70082380Y28426667D02*
X69606190Y28760000D01*
X70082380Y28998096D02*
X69082380Y28998096D01*
X69082380Y28617143D01*
X69130000Y28521905D01*
X69177619Y28474286D01*
X69272857Y28426667D01*
X69415714Y28426667D01*
X69510952Y28474286D01*
X69558571Y28521905D01*
X69606190Y28617143D01*
X69606190Y28998096D01*
X70082380Y27950477D02*
X70082380Y27760000D01*
X70034761Y27664762D01*
X69987142Y27617143D01*
X69844285Y27521905D01*
X69653809Y27474286D01*
X69272857Y27474286D01*
X69177619Y27521905D01*
X69130000Y27569524D01*
X69082380Y27664762D01*
X69082380Y27855239D01*
X69130000Y27950477D01*
X69177619Y27998096D01*
X69272857Y28045715D01*
X69510952Y28045715D01*
X69606190Y27998096D01*
X69653809Y27950477D01*
X69701428Y27855239D01*
X69701428Y27664762D01*
X69653809Y27569524D01*
X69606190Y27521905D01*
X69510952Y27474286D01*
%TO.C,TP53*%
X1262316Y77188301D02*
X1262316Y76616805D01*
X2262434Y76902553D02*
X1262316Y76902553D01*
X2262434Y76283432D02*
X1262316Y76283432D01*
X1262316Y75902435D01*
X1309941Y75807185D01*
X1357565Y75759561D01*
X1452815Y75711936D01*
X1595689Y75711936D01*
X1690938Y75759561D01*
X1738563Y75807185D01*
X1786187Y75902435D01*
X1786187Y76283432D01*
X1262316Y74807067D02*
X1262316Y75283314D01*
X1738563Y75330939D01*
X1690938Y75283314D01*
X1643313Y75188065D01*
X1643313Y74949941D01*
X1690938Y74854692D01*
X1738563Y74807067D01*
X1833812Y74759443D01*
X2071935Y74759443D01*
X2167185Y74807067D01*
X2214809Y74854692D01*
X2262434Y74949941D01*
X2262434Y75188065D01*
X2214809Y75283314D01*
X2167185Y75330939D01*
X1262316Y74426070D02*
X1262316Y73806949D01*
X1643313Y74140322D01*
X1643313Y73997448D01*
X1690938Y73902199D01*
X1738563Y73854574D01*
X1833812Y73806949D01*
X2071935Y73806949D01*
X2167185Y73854574D01*
X2214809Y73902199D01*
X2262434Y73997448D01*
X2262434Y74283196D01*
X2214809Y74378445D01*
X2167185Y74426070D01*
D12*
%TO.C,U14*%
X60472380Y43795477D02*
X60472380Y42767381D01*
X60411904Y42646429D01*
X60351428Y42585953D01*
X60230476Y42525477D01*
X59988571Y42525477D01*
X59867619Y42585953D01*
X59807142Y42646429D01*
X59746666Y42767381D01*
X59746666Y43795477D01*
X58476666Y42525477D02*
X59202380Y42525477D01*
X58839523Y42525477D02*
X58839523Y43795477D01*
X58960476Y43614048D01*
X59081428Y43493096D01*
X59202380Y43432620D01*
X57388095Y43372143D02*
X57388095Y42525477D01*
X57690476Y43855953D02*
X57992857Y42948810D01*
X57206666Y42948810D01*
D10*
%TO.C,R32*%
X76642857Y75247620D02*
X76976190Y75723810D01*
X77214285Y75247620D02*
X77214285Y76247620D01*
X76833333Y76247620D01*
X76738095Y76200000D01*
X76690476Y76152381D01*
X76642857Y76057143D01*
X76642857Y75914286D01*
X76690476Y75819048D01*
X76738095Y75771429D01*
X76833333Y75723810D01*
X77214285Y75723810D01*
X76309523Y76247620D02*
X75690476Y76247620D01*
X76023809Y75866667D01*
X75880952Y75866667D01*
X75785714Y75819048D01*
X75738095Y75771429D01*
X75690476Y75676191D01*
X75690476Y75438096D01*
X75738095Y75342858D01*
X75785714Y75295239D01*
X75880952Y75247620D01*
X76166666Y75247620D01*
X76261904Y75295239D01*
X76309523Y75342858D01*
X75309523Y76152381D02*
X75261904Y76200000D01*
X75166666Y76247620D01*
X74928571Y76247620D01*
X74833333Y76200000D01*
X74785714Y76152381D01*
X74738095Y76057143D01*
X74738095Y75961905D01*
X74785714Y75819048D01*
X75357142Y75247620D01*
X74738095Y75247620D01*
%TO.C,C35*%
X57707142Y57942858D02*
X57754761Y57990477D01*
X57802380Y58133334D01*
X57802380Y58228572D01*
X57754761Y58371429D01*
X57659523Y58466667D01*
X57564285Y58514286D01*
X57373809Y58561905D01*
X57230952Y58561905D01*
X57040476Y58514286D01*
X56945238Y58466667D01*
X56850000Y58371429D01*
X56802380Y58228572D01*
X56802380Y58133334D01*
X56850000Y57990477D01*
X56897619Y57942858D01*
X56802380Y57609524D02*
X56802380Y56990477D01*
X57183333Y57323810D01*
X57183333Y57180953D01*
X57230952Y57085715D01*
X57278571Y57038096D01*
X57373809Y56990477D01*
X57611904Y56990477D01*
X57707142Y57038096D01*
X57754761Y57085715D01*
X57802380Y57180953D01*
X57802380Y57466667D01*
X57754761Y57561905D01*
X57707142Y57609524D01*
X56802380Y56085715D02*
X56802380Y56561905D01*
X57278571Y56609524D01*
X57230952Y56561905D01*
X57183333Y56466667D01*
X57183333Y56228572D01*
X57230952Y56133334D01*
X57278571Y56085715D01*
X57373809Y56038096D01*
X57611904Y56038096D01*
X57707142Y56085715D01*
X57754761Y56133334D01*
X57802380Y56228572D01*
X57802380Y56466667D01*
X57754761Y56561905D01*
X57707142Y56609524D01*
%TO.C,R23*%
X77872380Y50392858D02*
X77396190Y50726191D01*
X77872380Y50964286D02*
X76872380Y50964286D01*
X76872380Y50583334D01*
X76920000Y50488096D01*
X76967619Y50440477D01*
X77062857Y50392858D01*
X77205714Y50392858D01*
X77300952Y50440477D01*
X77348571Y50488096D01*
X77396190Y50583334D01*
X77396190Y50964286D01*
X76967619Y50011905D02*
X76920000Y49964286D01*
X76872380Y49869048D01*
X76872380Y49630953D01*
X76920000Y49535715D01*
X76967619Y49488096D01*
X77062857Y49440477D01*
X77158095Y49440477D01*
X77300952Y49488096D01*
X77872380Y50059524D01*
X77872380Y49440477D01*
X76872380Y49107143D02*
X76872380Y48488096D01*
X77253333Y48821429D01*
X77253333Y48678572D01*
X77300952Y48583334D01*
X77348571Y48535715D01*
X77443809Y48488096D01*
X77681904Y48488096D01*
X77777142Y48535715D01*
X77824761Y48583334D01*
X77872380Y48678572D01*
X77872380Y48964286D01*
X77824761Y49059524D01*
X77777142Y49107143D01*
D12*
%TO.C,J20*%
X55998095Y10645477D02*
X55998095Y9738334D01*
X56058571Y9556905D01*
X56179523Y9435953D01*
X56360952Y9375477D01*
X56481904Y9375477D01*
X55453809Y10524524D02*
X55393333Y10585000D01*
X55272380Y10645477D01*
X54970000Y10645477D01*
X54849047Y10585000D01*
X54788571Y10524524D01*
X54728095Y10403572D01*
X54728095Y10282620D01*
X54788571Y10101191D01*
X55514285Y9375477D01*
X54728095Y9375477D01*
X53941904Y10645477D02*
X53820952Y10645477D01*
X53700000Y10585000D01*
X53639523Y10524524D01*
X53579047Y10403572D01*
X53518571Y10161667D01*
X53518571Y9859286D01*
X53579047Y9617381D01*
X53639523Y9496429D01*
X53700000Y9435953D01*
X53820952Y9375477D01*
X53941904Y9375477D01*
X54062857Y9435953D01*
X54123333Y9496429D01*
X54183809Y9617381D01*
X54244285Y9859286D01*
X54244285Y10161667D01*
X54183809Y10403572D01*
X54123333Y10524524D01*
X54062857Y10585000D01*
X53941904Y10645477D01*
D10*
%TO.C,C21*%
X43392857Y52892858D02*
X43440476Y52845239D01*
X43583333Y52797620D01*
X43678571Y52797620D01*
X43821428Y52845239D01*
X43916666Y52940477D01*
X43964285Y53035715D01*
X44011904Y53226191D01*
X44011904Y53369048D01*
X43964285Y53559524D01*
X43916666Y53654762D01*
X43821428Y53750000D01*
X43678571Y53797620D01*
X43583333Y53797620D01*
X43440476Y53750000D01*
X43392857Y53702381D01*
X43011904Y53702381D02*
X42964285Y53750000D01*
X42869047Y53797620D01*
X42630952Y53797620D01*
X42535714Y53750000D01*
X42488095Y53702381D01*
X42440476Y53607143D01*
X42440476Y53511905D01*
X42488095Y53369048D01*
X43059523Y52797620D01*
X42440476Y52797620D01*
X41488095Y52797620D02*
X42059523Y52797620D01*
X41773809Y52797620D02*
X41773809Y53797620D01*
X41869047Y53654762D01*
X41964285Y53559524D01*
X42059523Y53511905D01*
%TO.C,R30*%
X76642857Y76547620D02*
X76976190Y77023810D01*
X77214285Y76547620D02*
X77214285Y77547620D01*
X76833333Y77547620D01*
X76738095Y77500000D01*
X76690476Y77452381D01*
X76642857Y77357143D01*
X76642857Y77214286D01*
X76690476Y77119048D01*
X76738095Y77071429D01*
X76833333Y77023810D01*
X77214285Y77023810D01*
X76309523Y77547620D02*
X75690476Y77547620D01*
X76023809Y77166667D01*
X75880952Y77166667D01*
X75785714Y77119048D01*
X75738095Y77071429D01*
X75690476Y76976191D01*
X75690476Y76738096D01*
X75738095Y76642858D01*
X75785714Y76595239D01*
X75880952Y76547620D01*
X76166666Y76547620D01*
X76261904Y76595239D01*
X76309523Y76642858D01*
X75071428Y77547620D02*
X74976190Y77547620D01*
X74880952Y77500000D01*
X74833333Y77452381D01*
X74785714Y77357143D01*
X74738095Y77166667D01*
X74738095Y76928572D01*
X74785714Y76738096D01*
X74833333Y76642858D01*
X74880952Y76595239D01*
X74976190Y76547620D01*
X75071428Y76547620D01*
X75166666Y76595239D01*
X75214285Y76642858D01*
X75261904Y76738096D01*
X75309523Y76928572D01*
X75309523Y77166667D01*
X75261904Y77357143D01*
X75214285Y77452381D01*
X75166666Y77500000D01*
X75071428Y77547620D01*
%TO.C,R123*%
X5472380Y80519048D02*
X4996190Y80852381D01*
X5472380Y81090477D02*
X4472380Y81090477D01*
X4472380Y80709524D01*
X4520000Y80614286D01*
X4567619Y80566667D01*
X4662857Y80519048D01*
X4805714Y80519048D01*
X4900952Y80566667D01*
X4948571Y80614286D01*
X4996190Y80709524D01*
X4996190Y81090477D01*
X5472380Y79566667D02*
X5472380Y80138096D01*
X5472380Y79852381D02*
X4472380Y79852381D01*
X4615238Y79947620D01*
X4710476Y80042858D01*
X4758095Y80138096D01*
X4567619Y79185715D02*
X4520000Y79138096D01*
X4472380Y79042858D01*
X4472380Y78804762D01*
X4520000Y78709524D01*
X4567619Y78661905D01*
X4662857Y78614286D01*
X4758095Y78614286D01*
X4900952Y78661905D01*
X5472380Y79233334D01*
X5472380Y78614286D01*
X4472380Y78280953D02*
X4472380Y77661905D01*
X4853333Y77995239D01*
X4853333Y77852381D01*
X4900952Y77757143D01*
X4948571Y77709524D01*
X5043809Y77661905D01*
X5281904Y77661905D01*
X5377142Y77709524D01*
X5424761Y77757143D01*
X5472380Y77852381D01*
X5472380Y78138096D01*
X5424761Y78233334D01*
X5377142Y78280953D01*
%TO.C,C19*%
X75207142Y67542858D02*
X75254761Y67590477D01*
X75302380Y67733334D01*
X75302380Y67828572D01*
X75254761Y67971429D01*
X75159523Y68066667D01*
X75064285Y68114286D01*
X74873809Y68161905D01*
X74730952Y68161905D01*
X74540476Y68114286D01*
X74445238Y68066667D01*
X74350000Y67971429D01*
X74302380Y67828572D01*
X74302380Y67733334D01*
X74350000Y67590477D01*
X74397619Y67542858D01*
X75302380Y66590477D02*
X75302380Y67161905D01*
X75302380Y66876191D02*
X74302380Y66876191D01*
X74445238Y66971429D01*
X74540476Y67066667D01*
X74588095Y67161905D01*
X75302380Y66114286D02*
X75302380Y65923810D01*
X75254761Y65828572D01*
X75207142Y65780953D01*
X75064285Y65685715D01*
X74873809Y65638096D01*
X74492857Y65638096D01*
X74397619Y65685715D01*
X74350000Y65733334D01*
X74302380Y65828572D01*
X74302380Y66019048D01*
X74350000Y66114286D01*
X74397619Y66161905D01*
X74492857Y66209524D01*
X74730952Y66209524D01*
X74826190Y66161905D01*
X74873809Y66114286D01*
X74921428Y66019048D01*
X74921428Y65828572D01*
X74873809Y65733334D01*
X74826190Y65685715D01*
X74730952Y65638096D01*
%TO.C,R31*%
X76642857Y72747620D02*
X76976190Y73223810D01*
X77214285Y72747620D02*
X77214285Y73747620D01*
X76833333Y73747620D01*
X76738095Y73700000D01*
X76690476Y73652381D01*
X76642857Y73557143D01*
X76642857Y73414286D01*
X76690476Y73319048D01*
X76738095Y73271429D01*
X76833333Y73223810D01*
X77214285Y73223810D01*
X76309523Y73747620D02*
X75690476Y73747620D01*
X76023809Y73366667D01*
X75880952Y73366667D01*
X75785714Y73319048D01*
X75738095Y73271429D01*
X75690476Y73176191D01*
X75690476Y72938096D01*
X75738095Y72842858D01*
X75785714Y72795239D01*
X75880952Y72747620D01*
X76166666Y72747620D01*
X76261904Y72795239D01*
X76309523Y72842858D01*
X74738095Y72747620D02*
X75309523Y72747620D01*
X75023809Y72747620D02*
X75023809Y73747620D01*
X75119047Y73604762D01*
X75214285Y73509524D01*
X75309523Y73461905D01*
%TO.C,C38*%
X46242857Y31892858D02*
X46290476Y31845239D01*
X46433333Y31797620D01*
X46528571Y31797620D01*
X46671428Y31845239D01*
X46766666Y31940477D01*
X46814285Y32035715D01*
X46861904Y32226191D01*
X46861904Y32369048D01*
X46814285Y32559524D01*
X46766666Y32654762D01*
X46671428Y32750000D01*
X46528571Y32797620D01*
X46433333Y32797620D01*
X46290476Y32750000D01*
X46242857Y32702381D01*
X45909523Y32797620D02*
X45290476Y32797620D01*
X45623809Y32416667D01*
X45480952Y32416667D01*
X45385714Y32369048D01*
X45338095Y32321429D01*
X45290476Y32226191D01*
X45290476Y31988096D01*
X45338095Y31892858D01*
X45385714Y31845239D01*
X45480952Y31797620D01*
X45766666Y31797620D01*
X45861904Y31845239D01*
X45909523Y31892858D01*
X44719047Y32369048D02*
X44814285Y32416667D01*
X44861904Y32464286D01*
X44909523Y32559524D01*
X44909523Y32607143D01*
X44861904Y32702381D01*
X44814285Y32750000D01*
X44719047Y32797620D01*
X44528571Y32797620D01*
X44433333Y32750000D01*
X44385714Y32702381D01*
X44338095Y32607143D01*
X44338095Y32559524D01*
X44385714Y32464286D01*
X44433333Y32416667D01*
X44528571Y32369048D01*
X44719047Y32369048D01*
X44814285Y32321429D01*
X44861904Y32273810D01*
X44909523Y32178572D01*
X44909523Y31988096D01*
X44861904Y31892858D01*
X44814285Y31845239D01*
X44719047Y31797620D01*
X44528571Y31797620D01*
X44433333Y31845239D01*
X44385714Y31892858D01*
X44338095Y31988096D01*
X44338095Y32178572D01*
X44385714Y32273810D01*
X44433333Y32321429D01*
X44528571Y32369048D01*
%TO.C,R10*%
X74162380Y38232858D02*
X73686190Y38566191D01*
X74162380Y38804286D02*
X73162380Y38804286D01*
X73162380Y38423334D01*
X73210000Y38328096D01*
X73257619Y38280477D01*
X73352857Y38232858D01*
X73495714Y38232858D01*
X73590952Y38280477D01*
X73638571Y38328096D01*
X73686190Y38423334D01*
X73686190Y38804286D01*
X74162380Y37280477D02*
X74162380Y37851905D01*
X74162380Y37566191D02*
X73162380Y37566191D01*
X73305238Y37661429D01*
X73400476Y37756667D01*
X73448095Y37851905D01*
X73162380Y36661429D02*
X73162380Y36566191D01*
X73210000Y36470953D01*
X73257619Y36423334D01*
X73352857Y36375715D01*
X73543333Y36328096D01*
X73781428Y36328096D01*
X73971904Y36375715D01*
X74067142Y36423334D01*
X74114761Y36470953D01*
X74162380Y36566191D01*
X74162380Y36661429D01*
X74114761Y36756667D01*
X74067142Y36804286D01*
X73971904Y36851905D01*
X73781428Y36899524D01*
X73543333Y36899524D01*
X73352857Y36851905D01*
X73257619Y36804286D01*
X73210000Y36756667D01*
X73162380Y36661429D01*
D12*
%TO.C,U11*%
X11272380Y78955477D02*
X11272380Y77927381D01*
X11211904Y77806429D01*
X11151428Y77745953D01*
X11030476Y77685477D01*
X10788571Y77685477D01*
X10667619Y77745953D01*
X10607142Y77806429D01*
X10546666Y77927381D01*
X10546666Y78955477D01*
X9276666Y77685477D02*
X10002380Y77685477D01*
X9639523Y77685477D02*
X9639523Y78955477D01*
X9760476Y78774048D01*
X9881428Y78653096D01*
X10002380Y78592620D01*
X8067142Y77685477D02*
X8792857Y77685477D01*
X8430000Y77685477D02*
X8430000Y78955477D01*
X8550952Y78774048D01*
X8671904Y78653096D01*
X8792857Y78592620D01*
%TO.C,U13*%
X66422380Y61245477D02*
X66422380Y60217381D01*
X66361904Y60096429D01*
X66301428Y60035953D01*
X66180476Y59975477D01*
X65938571Y59975477D01*
X65817619Y60035953D01*
X65757142Y60096429D01*
X65696666Y60217381D01*
X65696666Y61245477D01*
X64426666Y59975477D02*
X65152380Y59975477D01*
X64789523Y59975477D02*
X64789523Y61245477D01*
X64910476Y61064048D01*
X65031428Y60943096D01*
X65152380Y60882620D01*
X64003333Y61245477D02*
X63217142Y61245477D01*
X63640476Y60761667D01*
X63459047Y60761667D01*
X63338095Y60701191D01*
X63277619Y60640715D01*
X63217142Y60519762D01*
X63217142Y60217381D01*
X63277619Y60096429D01*
X63338095Y60035953D01*
X63459047Y59975477D01*
X63821904Y59975477D01*
X63942857Y60035953D01*
X64003333Y60096429D01*
D10*
%TO.C,U15*%
X69038095Y71547620D02*
X69038095Y70738096D01*
X68990476Y70642858D01*
X68942857Y70595239D01*
X68847619Y70547620D01*
X68657142Y70547620D01*
X68561904Y70595239D01*
X68514285Y70642858D01*
X68466666Y70738096D01*
X68466666Y71547620D01*
X67466666Y70547620D02*
X68038095Y70547620D01*
X67752380Y70547620D02*
X67752380Y71547620D01*
X67847619Y71404762D01*
X67942857Y71309524D01*
X68038095Y71261905D01*
X66561904Y71547620D02*
X67038095Y71547620D01*
X67085714Y71071429D01*
X67038095Y71119048D01*
X66942857Y71166667D01*
X66704761Y71166667D01*
X66609523Y71119048D01*
X66561904Y71071429D01*
X66514285Y70976191D01*
X66514285Y70738096D01*
X66561904Y70642858D01*
X66609523Y70595239D01*
X66704761Y70547620D01*
X66942857Y70547620D01*
X67038095Y70595239D01*
X67085714Y70642858D01*
%TO.C,C33*%
X60757142Y27892858D02*
X60804761Y27940477D01*
X60852380Y28083334D01*
X60852380Y28178572D01*
X60804761Y28321429D01*
X60709523Y28416667D01*
X60614285Y28464286D01*
X60423809Y28511905D01*
X60280952Y28511905D01*
X60090476Y28464286D01*
X59995238Y28416667D01*
X59900000Y28321429D01*
X59852380Y28178572D01*
X59852380Y28083334D01*
X59900000Y27940477D01*
X59947619Y27892858D01*
X59852380Y27559524D02*
X59852380Y26940477D01*
X60233333Y27273810D01*
X60233333Y27130953D01*
X60280952Y27035715D01*
X60328571Y26988096D01*
X60423809Y26940477D01*
X60661904Y26940477D01*
X60757142Y26988096D01*
X60804761Y27035715D01*
X60852380Y27130953D01*
X60852380Y27416667D01*
X60804761Y27511905D01*
X60757142Y27559524D01*
X59852380Y26607143D02*
X59852380Y25988096D01*
X60233333Y26321429D01*
X60233333Y26178572D01*
X60280952Y26083334D01*
X60328571Y26035715D01*
X60423809Y25988096D01*
X60661904Y25988096D01*
X60757142Y26035715D01*
X60804761Y26083334D01*
X60852380Y26178572D01*
X60852380Y26464286D01*
X60804761Y26559524D01*
X60757142Y26607143D01*
%TO.C,C24*%
X50157142Y56892858D02*
X50204761Y56940477D01*
X50252380Y57083334D01*
X50252380Y57178572D01*
X50204761Y57321429D01*
X50109523Y57416667D01*
X50014285Y57464286D01*
X49823809Y57511905D01*
X49680952Y57511905D01*
X49490476Y57464286D01*
X49395238Y57416667D01*
X49300000Y57321429D01*
X49252380Y57178572D01*
X49252380Y57083334D01*
X49300000Y56940477D01*
X49347619Y56892858D01*
X49347619Y56511905D02*
X49300000Y56464286D01*
X49252380Y56369048D01*
X49252380Y56130953D01*
X49300000Y56035715D01*
X49347619Y55988096D01*
X49442857Y55940477D01*
X49538095Y55940477D01*
X49680952Y55988096D01*
X50252380Y56559524D01*
X50252380Y55940477D01*
X49585714Y55083334D02*
X50252380Y55083334D01*
X49204761Y55321429D02*
X49919047Y55559524D01*
X49919047Y54940477D01*
%TO.C,C40*%
X72757142Y41142858D02*
X72804761Y41190477D01*
X72852380Y41333334D01*
X72852380Y41428572D01*
X72804761Y41571429D01*
X72709523Y41666667D01*
X72614285Y41714286D01*
X72423809Y41761905D01*
X72280952Y41761905D01*
X72090476Y41714286D01*
X71995238Y41666667D01*
X71900000Y41571429D01*
X71852380Y41428572D01*
X71852380Y41333334D01*
X71900000Y41190477D01*
X71947619Y41142858D01*
X72185714Y40285715D02*
X72852380Y40285715D01*
X71804761Y40523810D02*
X72519047Y40761905D01*
X72519047Y40142858D01*
X71852380Y39571429D02*
X71852380Y39476191D01*
X71900000Y39380953D01*
X71947619Y39333334D01*
X72042857Y39285715D01*
X72233333Y39238096D01*
X72471428Y39238096D01*
X72661904Y39285715D01*
X72757142Y39333334D01*
X72804761Y39380953D01*
X72852380Y39476191D01*
X72852380Y39571429D01*
X72804761Y39666667D01*
X72757142Y39714286D01*
X72661904Y39761905D01*
X72471428Y39809524D01*
X72233333Y39809524D01*
X72042857Y39761905D01*
X71947619Y39714286D01*
X71900000Y39666667D01*
X71852380Y39571429D01*
%TO.C,C20*%
X64592857Y66042858D02*
X64640476Y65995239D01*
X64783333Y65947620D01*
X64878571Y65947620D01*
X65021428Y65995239D01*
X65116666Y66090477D01*
X65164285Y66185715D01*
X65211904Y66376191D01*
X65211904Y66519048D01*
X65164285Y66709524D01*
X65116666Y66804762D01*
X65021428Y66900000D01*
X64878571Y66947620D01*
X64783333Y66947620D01*
X64640476Y66900000D01*
X64592857Y66852381D01*
X64211904Y66852381D02*
X64164285Y66900000D01*
X64069047Y66947620D01*
X63830952Y66947620D01*
X63735714Y66900000D01*
X63688095Y66852381D01*
X63640476Y66757143D01*
X63640476Y66661905D01*
X63688095Y66519048D01*
X64259523Y65947620D01*
X63640476Y65947620D01*
X63021428Y66947620D02*
X62926190Y66947620D01*
X62830952Y66900000D01*
X62783333Y66852381D01*
X62735714Y66757143D01*
X62688095Y66566667D01*
X62688095Y66328572D01*
X62735714Y66138096D01*
X62783333Y66042858D01*
X62830952Y65995239D01*
X62926190Y65947620D01*
X63021428Y65947620D01*
X63116666Y65995239D01*
X63164285Y66042858D01*
X63211904Y66138096D01*
X63259523Y66328572D01*
X63259523Y66566667D01*
X63211904Y66757143D01*
X63164285Y66852381D01*
X63116666Y66900000D01*
X63021428Y66947620D01*
%TO.C,C26*%
X46757142Y41642858D02*
X46804761Y41690477D01*
X46852380Y41833334D01*
X46852380Y41928572D01*
X46804761Y42071429D01*
X46709523Y42166667D01*
X46614285Y42214286D01*
X46423809Y42261905D01*
X46280952Y42261905D01*
X46090476Y42214286D01*
X45995238Y42166667D01*
X45900000Y42071429D01*
X45852380Y41928572D01*
X45852380Y41833334D01*
X45900000Y41690477D01*
X45947619Y41642858D01*
X45947619Y41261905D02*
X45900000Y41214286D01*
X45852380Y41119048D01*
X45852380Y40880953D01*
X45900000Y40785715D01*
X45947619Y40738096D01*
X46042857Y40690477D01*
X46138095Y40690477D01*
X46280952Y40738096D01*
X46852380Y41309524D01*
X46852380Y40690477D01*
X45852380Y39833334D02*
X45852380Y40023810D01*
X45900000Y40119048D01*
X45947619Y40166667D01*
X46090476Y40261905D01*
X46280952Y40309524D01*
X46661904Y40309524D01*
X46757142Y40261905D01*
X46804761Y40214286D01*
X46852380Y40119048D01*
X46852380Y39928572D01*
X46804761Y39833334D01*
X46757142Y39785715D01*
X46661904Y39738096D01*
X46423809Y39738096D01*
X46328571Y39785715D01*
X46280952Y39833334D01*
X46233333Y39928572D01*
X46233333Y40119048D01*
X46280952Y40214286D01*
X46328571Y40261905D01*
X46423809Y40309524D01*
%TO.C,TP52*%
X34038095Y81447620D02*
X33466666Y81447620D01*
X33752380Y80447620D02*
X33752380Y81447620D01*
X33133333Y80447620D02*
X33133333Y81447620D01*
X32752380Y81447620D01*
X32657142Y81400000D01*
X32609523Y81352381D01*
X32561904Y81257143D01*
X32561904Y81114286D01*
X32609523Y81019048D01*
X32657142Y80971429D01*
X32752380Y80923810D01*
X33133333Y80923810D01*
X31657142Y81447620D02*
X32133333Y81447620D01*
X32180952Y80971429D01*
X32133333Y81019048D01*
X32038095Y81066667D01*
X31800000Y81066667D01*
X31704761Y81019048D01*
X31657142Y80971429D01*
X31609523Y80876191D01*
X31609523Y80638096D01*
X31657142Y80542858D01*
X31704761Y80495239D01*
X31800000Y80447620D01*
X32038095Y80447620D01*
X32133333Y80495239D01*
X32180952Y80542858D01*
X31228571Y81352381D02*
X31180952Y81400000D01*
X31085714Y81447620D01*
X30847619Y81447620D01*
X30752380Y81400000D01*
X30704761Y81352381D01*
X30657142Y81257143D01*
X30657142Y81161905D01*
X30704761Y81019048D01*
X31276190Y80447620D01*
X30657142Y80447620D01*
%TO.C,C30*%
X42507142Y37892858D02*
X42554761Y37940477D01*
X42602380Y38083334D01*
X42602380Y38178572D01*
X42554761Y38321429D01*
X42459523Y38416667D01*
X42364285Y38464286D01*
X42173809Y38511905D01*
X42030952Y38511905D01*
X41840476Y38464286D01*
X41745238Y38416667D01*
X41650000Y38321429D01*
X41602380Y38178572D01*
X41602380Y38083334D01*
X41650000Y37940477D01*
X41697619Y37892858D01*
X41602380Y37559524D02*
X41602380Y36940477D01*
X41983333Y37273810D01*
X41983333Y37130953D01*
X42030952Y37035715D01*
X42078571Y36988096D01*
X42173809Y36940477D01*
X42411904Y36940477D01*
X42507142Y36988096D01*
X42554761Y37035715D01*
X42602380Y37130953D01*
X42602380Y37416667D01*
X42554761Y37511905D01*
X42507142Y37559524D01*
X41602380Y36321429D02*
X41602380Y36226191D01*
X41650000Y36130953D01*
X41697619Y36083334D01*
X41792857Y36035715D01*
X41983333Y35988096D01*
X42221428Y35988096D01*
X42411904Y36035715D01*
X42507142Y36083334D01*
X42554761Y36130953D01*
X42602380Y36226191D01*
X42602380Y36321429D01*
X42554761Y36416667D01*
X42507142Y36464286D01*
X42411904Y36511905D01*
X42221428Y36559524D01*
X41983333Y36559524D01*
X41792857Y36511905D01*
X41697619Y36464286D01*
X41650000Y36416667D01*
X41602380Y36321429D01*
%TO.C,C18*%
X12472857Y73612858D02*
X12520476Y73565239D01*
X12663333Y73517620D01*
X12758571Y73517620D01*
X12901428Y73565239D01*
X12996666Y73660477D01*
X13044285Y73755715D01*
X13091904Y73946191D01*
X13091904Y74089048D01*
X13044285Y74279524D01*
X12996666Y74374762D01*
X12901428Y74470000D01*
X12758571Y74517620D01*
X12663333Y74517620D01*
X12520476Y74470000D01*
X12472857Y74422381D01*
X11520476Y73517620D02*
X12091904Y73517620D01*
X11806190Y73517620D02*
X11806190Y74517620D01*
X11901428Y74374762D01*
X11996666Y74279524D01*
X12091904Y74231905D01*
X10949047Y74089048D02*
X11044285Y74136667D01*
X11091904Y74184286D01*
X11139523Y74279524D01*
X11139523Y74327143D01*
X11091904Y74422381D01*
X11044285Y74470000D01*
X10949047Y74517620D01*
X10758571Y74517620D01*
X10663333Y74470000D01*
X10615714Y74422381D01*
X10568095Y74327143D01*
X10568095Y74279524D01*
X10615714Y74184286D01*
X10663333Y74136667D01*
X10758571Y74089048D01*
X10949047Y74089048D01*
X11044285Y74041429D01*
X11091904Y73993810D01*
X11139523Y73898572D01*
X11139523Y73708096D01*
X11091904Y73612858D01*
X11044285Y73565239D01*
X10949047Y73517620D01*
X10758571Y73517620D01*
X10663333Y73565239D01*
X10615714Y73612858D01*
X10568095Y73708096D01*
X10568095Y73898572D01*
X10615714Y73993810D01*
X10663333Y74041429D01*
X10758571Y74089048D01*
%TO.C,R20*%
X75602380Y42292858D02*
X75126190Y42626191D01*
X75602380Y42864286D02*
X74602380Y42864286D01*
X74602380Y42483334D01*
X74650000Y42388096D01*
X74697619Y42340477D01*
X74792857Y42292858D01*
X74935714Y42292858D01*
X75030952Y42340477D01*
X75078571Y42388096D01*
X75126190Y42483334D01*
X75126190Y42864286D01*
X74697619Y41911905D02*
X74650000Y41864286D01*
X74602380Y41769048D01*
X74602380Y41530953D01*
X74650000Y41435715D01*
X74697619Y41388096D01*
X74792857Y41340477D01*
X74888095Y41340477D01*
X75030952Y41388096D01*
X75602380Y41959524D01*
X75602380Y41340477D01*
X74602380Y40721429D02*
X74602380Y40626191D01*
X74650000Y40530953D01*
X74697619Y40483334D01*
X74792857Y40435715D01*
X74983333Y40388096D01*
X75221428Y40388096D01*
X75411904Y40435715D01*
X75507142Y40483334D01*
X75554761Y40530953D01*
X75602380Y40626191D01*
X75602380Y40721429D01*
X75554761Y40816667D01*
X75507142Y40864286D01*
X75411904Y40911905D01*
X75221428Y40959524D01*
X74983333Y40959524D01*
X74792857Y40911905D01*
X74697619Y40864286D01*
X74650000Y40816667D01*
X74602380Y40721429D01*
%TO.C,C101*%
X88157142Y11519048D02*
X88204761Y11566667D01*
X88252380Y11709524D01*
X88252380Y11804762D01*
X88204761Y11947620D01*
X88109523Y12042858D01*
X88014285Y12090477D01*
X87823809Y12138096D01*
X87680952Y12138096D01*
X87490476Y12090477D01*
X87395238Y12042858D01*
X87300000Y11947620D01*
X87252380Y11804762D01*
X87252380Y11709524D01*
X87300000Y11566667D01*
X87347619Y11519048D01*
X88252380Y10566667D02*
X88252380Y11138096D01*
X88252380Y10852381D02*
X87252380Y10852381D01*
X87395238Y10947620D01*
X87490476Y11042858D01*
X87538095Y11138096D01*
X87252380Y9947620D02*
X87252380Y9852381D01*
X87300000Y9757143D01*
X87347619Y9709524D01*
X87442857Y9661905D01*
X87633333Y9614286D01*
X87871428Y9614286D01*
X88061904Y9661905D01*
X88157142Y9709524D01*
X88204761Y9757143D01*
X88252380Y9852381D01*
X88252380Y9947620D01*
X88204761Y10042858D01*
X88157142Y10090477D01*
X88061904Y10138096D01*
X87871428Y10185715D01*
X87633333Y10185715D01*
X87442857Y10138096D01*
X87347619Y10090477D01*
X87300000Y10042858D01*
X87252380Y9947620D01*
X88252380Y8661905D02*
X88252380Y9233334D01*
X88252380Y8947620D02*
X87252380Y8947620D01*
X87395238Y9042858D01*
X87490476Y9138096D01*
X87538095Y9233334D01*
%TO.C,FID2*%
X6171428Y1371429D02*
X6504761Y1371429D01*
X6504761Y847620D02*
X6504761Y1847620D01*
X6028571Y1847620D01*
X5647619Y847620D02*
X5647619Y1847620D01*
X5171428Y847620D02*
X5171428Y1847620D01*
X4933333Y1847620D01*
X4790476Y1800000D01*
X4695238Y1704762D01*
X4647619Y1609524D01*
X4600000Y1419048D01*
X4600000Y1276191D01*
X4647619Y1085715D01*
X4695238Y990477D01*
X4790476Y895239D01*
X4933333Y847620D01*
X5171428Y847620D01*
X4219047Y1752381D02*
X4171428Y1800000D01*
X4076190Y1847620D01*
X3838095Y1847620D01*
X3742857Y1800000D01*
X3695238Y1752381D01*
X3647619Y1657143D01*
X3647619Y1561905D01*
X3695238Y1419048D01*
X4266666Y847620D01*
X3647619Y847620D01*
%TO.C,C41*%
X72462857Y35322858D02*
X72510476Y35275239D01*
X72653333Y35227620D01*
X72748571Y35227620D01*
X72891428Y35275239D01*
X72986666Y35370477D01*
X73034285Y35465715D01*
X73081904Y35656191D01*
X73081904Y35799048D01*
X73034285Y35989524D01*
X72986666Y36084762D01*
X72891428Y36180000D01*
X72748571Y36227620D01*
X72653333Y36227620D01*
X72510476Y36180000D01*
X72462857Y36132381D01*
X71605714Y35894286D02*
X71605714Y35227620D01*
X71843809Y36275239D02*
X72081904Y35560953D01*
X71462857Y35560953D01*
X70558095Y35227620D02*
X71129523Y35227620D01*
X70843809Y35227620D02*
X70843809Y36227620D01*
X70939047Y36084762D01*
X71034285Y35989524D01*
X71129523Y35941905D01*
D12*
%TO.C,Y1*%
X41904761Y56830239D02*
X41904761Y56225477D01*
X42328095Y57495477D02*
X41904761Y56830239D01*
X41481428Y57495477D01*
X40392857Y56225477D02*
X41118571Y56225477D01*
X40755714Y56225477D02*
X40755714Y57495477D01*
X40876666Y57314048D01*
X40997619Y57193096D01*
X41118571Y57132620D01*
D10*
%TO.C,C92*%
X34317142Y73542858D02*
X34364761Y73590477D01*
X34412380Y73733334D01*
X34412380Y73828572D01*
X34364761Y73971429D01*
X34269523Y74066667D01*
X34174285Y74114286D01*
X33983809Y74161905D01*
X33840952Y74161905D01*
X33650476Y74114286D01*
X33555238Y74066667D01*
X33460000Y73971429D01*
X33412380Y73828572D01*
X33412380Y73733334D01*
X33460000Y73590477D01*
X33507619Y73542858D01*
X34412380Y73066667D02*
X34412380Y72876191D01*
X34364761Y72780953D01*
X34317142Y72733334D01*
X34174285Y72638096D01*
X33983809Y72590477D01*
X33602857Y72590477D01*
X33507619Y72638096D01*
X33460000Y72685715D01*
X33412380Y72780953D01*
X33412380Y72971429D01*
X33460000Y73066667D01*
X33507619Y73114286D01*
X33602857Y73161905D01*
X33840952Y73161905D01*
X33936190Y73114286D01*
X33983809Y73066667D01*
X34031428Y72971429D01*
X34031428Y72780953D01*
X33983809Y72685715D01*
X33936190Y72638096D01*
X33840952Y72590477D01*
X33507619Y72209524D02*
X33460000Y72161905D01*
X33412380Y72066667D01*
X33412380Y71828572D01*
X33460000Y71733334D01*
X33507619Y71685715D01*
X33602857Y71638096D01*
X33698095Y71638096D01*
X33840952Y71685715D01*
X34412380Y72257143D01*
X34412380Y71638096D01*
%TO.C,TP30*%
X75652380Y34038096D02*
X75652380Y33466667D01*
X76652380Y33752381D02*
X75652380Y33752381D01*
X76652380Y33133334D02*
X75652380Y33133334D01*
X75652380Y32752381D01*
X75700000Y32657143D01*
X75747619Y32609524D01*
X75842857Y32561905D01*
X75985714Y32561905D01*
X76080952Y32609524D01*
X76128571Y32657143D01*
X76176190Y32752381D01*
X76176190Y33133334D01*
X75652380Y32228572D02*
X75652380Y31609524D01*
X76033333Y31942858D01*
X76033333Y31800000D01*
X76080952Y31704762D01*
X76128571Y31657143D01*
X76223809Y31609524D01*
X76461904Y31609524D01*
X76557142Y31657143D01*
X76604761Y31704762D01*
X76652380Y31800000D01*
X76652380Y32085715D01*
X76604761Y32180953D01*
X76557142Y32228572D01*
X75652380Y30990477D02*
X75652380Y30895239D01*
X75700000Y30800000D01*
X75747619Y30752381D01*
X75842857Y30704762D01*
X76033333Y30657143D01*
X76271428Y30657143D01*
X76461904Y30704762D01*
X76557142Y30752381D01*
X76604761Y30800000D01*
X76652380Y30895239D01*
X76652380Y30990477D01*
X76604761Y31085715D01*
X76557142Y31133334D01*
X76461904Y31180953D01*
X76271428Y31228572D01*
X76033333Y31228572D01*
X75842857Y31180953D01*
X75747619Y31133334D01*
X75700000Y31085715D01*
X75652380Y30990477D01*
%TO.C,C91*%
X47707142Y26042858D02*
X47754761Y26090477D01*
X47802380Y26233334D01*
X47802380Y26328572D01*
X47754761Y26471429D01*
X47659523Y26566667D01*
X47564285Y26614286D01*
X47373809Y26661905D01*
X47230952Y26661905D01*
X47040476Y26614286D01*
X46945238Y26566667D01*
X46850000Y26471429D01*
X46802380Y26328572D01*
X46802380Y26233334D01*
X46850000Y26090477D01*
X46897619Y26042858D01*
X47802380Y25566667D02*
X47802380Y25376191D01*
X47754761Y25280953D01*
X47707142Y25233334D01*
X47564285Y25138096D01*
X47373809Y25090477D01*
X46992857Y25090477D01*
X46897619Y25138096D01*
X46850000Y25185715D01*
X46802380Y25280953D01*
X46802380Y25471429D01*
X46850000Y25566667D01*
X46897619Y25614286D01*
X46992857Y25661905D01*
X47230952Y25661905D01*
X47326190Y25614286D01*
X47373809Y25566667D01*
X47421428Y25471429D01*
X47421428Y25280953D01*
X47373809Y25185715D01*
X47326190Y25138096D01*
X47230952Y25090477D01*
X47802380Y24138096D02*
X47802380Y24709524D01*
X47802380Y24423810D02*
X46802380Y24423810D01*
X46945238Y24519048D01*
X47040476Y24614286D01*
X47088095Y24709524D01*
%TO.C,C28*%
X43792857Y48392858D02*
X43840476Y48345239D01*
X43983333Y48297620D01*
X44078571Y48297620D01*
X44221428Y48345239D01*
X44316666Y48440477D01*
X44364285Y48535715D01*
X44411904Y48726191D01*
X44411904Y48869048D01*
X44364285Y49059524D01*
X44316666Y49154762D01*
X44221428Y49250000D01*
X44078571Y49297620D01*
X43983333Y49297620D01*
X43840476Y49250000D01*
X43792857Y49202381D01*
X43411904Y49202381D02*
X43364285Y49250000D01*
X43269047Y49297620D01*
X43030952Y49297620D01*
X42935714Y49250000D01*
X42888095Y49202381D01*
X42840476Y49107143D01*
X42840476Y49011905D01*
X42888095Y48869048D01*
X43459523Y48297620D01*
X42840476Y48297620D01*
X42269047Y48869048D02*
X42364285Y48916667D01*
X42411904Y48964286D01*
X42459523Y49059524D01*
X42459523Y49107143D01*
X42411904Y49202381D01*
X42364285Y49250000D01*
X42269047Y49297620D01*
X42078571Y49297620D01*
X41983333Y49250000D01*
X41935714Y49202381D01*
X41888095Y49107143D01*
X41888095Y49059524D01*
X41935714Y48964286D01*
X41983333Y48916667D01*
X42078571Y48869048D01*
X42269047Y48869048D01*
X42364285Y48821429D01*
X42411904Y48773810D01*
X42459523Y48678572D01*
X42459523Y48488096D01*
X42411904Y48392858D01*
X42364285Y48345239D01*
X42269047Y48297620D01*
X42078571Y48297620D01*
X41983333Y48345239D01*
X41935714Y48392858D01*
X41888095Y48488096D01*
X41888095Y48678572D01*
X41935714Y48773810D01*
X41983333Y48821429D01*
X42078571Y48869048D01*
D12*
%TO.C,J18*%
X82404523Y55328096D02*
X83311666Y55328096D01*
X83493095Y55388572D01*
X83614047Y55509524D01*
X83674523Y55690953D01*
X83674523Y55811905D01*
X83674523Y54058096D02*
X83674523Y54783810D01*
X83674523Y54420953D02*
X82404523Y54420953D01*
X82585952Y54541905D01*
X82706904Y54662858D01*
X82767380Y54783810D01*
X82948809Y53332381D02*
X82888333Y53453334D01*
X82827857Y53513810D01*
X82706904Y53574286D01*
X82646428Y53574286D01*
X82525476Y53513810D01*
X82465000Y53453334D01*
X82404523Y53332381D01*
X82404523Y53090477D01*
X82465000Y52969524D01*
X82525476Y52909048D01*
X82646428Y52848572D01*
X82706904Y52848572D01*
X82827857Y52909048D01*
X82888333Y52969524D01*
X82948809Y53090477D01*
X82948809Y53332381D01*
X83009285Y53453334D01*
X83069761Y53513810D01*
X83190714Y53574286D01*
X83432619Y53574286D01*
X83553571Y53513810D01*
X83614047Y53453334D01*
X83674523Y53332381D01*
X83674523Y53090477D01*
X83614047Y52969524D01*
X83553571Y52909048D01*
X83432619Y52848572D01*
X83190714Y52848572D01*
X83069761Y52909048D01*
X83009285Y52969524D01*
X82948809Y53090477D01*
D10*
%TO.C,F8*%
X77133333Y65871429D02*
X77466666Y65871429D01*
X77466666Y65347620D02*
X77466666Y66347620D01*
X76990476Y66347620D01*
X76466666Y65919048D02*
X76561904Y65966667D01*
X76609523Y66014286D01*
X76657142Y66109524D01*
X76657142Y66157143D01*
X76609523Y66252381D01*
X76561904Y66300000D01*
X76466666Y66347620D01*
X76276190Y66347620D01*
X76180952Y66300000D01*
X76133333Y66252381D01*
X76085714Y66157143D01*
X76085714Y66109524D01*
X76133333Y66014286D01*
X76180952Y65966667D01*
X76276190Y65919048D01*
X76466666Y65919048D01*
X76561904Y65871429D01*
X76609523Y65823810D01*
X76657142Y65728572D01*
X76657142Y65538096D01*
X76609523Y65442858D01*
X76561904Y65395239D01*
X76466666Y65347620D01*
X76276190Y65347620D01*
X76180952Y65395239D01*
X76133333Y65442858D01*
X76085714Y65538096D01*
X76085714Y65728572D01*
X76133333Y65823810D01*
X76180952Y65871429D01*
X76276190Y65919048D01*
%TO.C,F7*%
X8633333Y69671429D02*
X8966666Y69671429D01*
X8966666Y69147620D02*
X8966666Y70147620D01*
X8490476Y70147620D01*
X8204761Y70147620D02*
X7538095Y70147620D01*
X7966666Y69147620D01*
%TO.C,C23*%
X56757142Y28852858D02*
X56804761Y28900477D01*
X56852380Y29043334D01*
X56852380Y29138572D01*
X56804761Y29281429D01*
X56709523Y29376667D01*
X56614285Y29424286D01*
X56423809Y29471905D01*
X56280952Y29471905D01*
X56090476Y29424286D01*
X55995238Y29376667D01*
X55900000Y29281429D01*
X55852380Y29138572D01*
X55852380Y29043334D01*
X55900000Y28900477D01*
X55947619Y28852858D01*
X55947619Y28471905D02*
X55900000Y28424286D01*
X55852380Y28329048D01*
X55852380Y28090953D01*
X55900000Y27995715D01*
X55947619Y27948096D01*
X56042857Y27900477D01*
X56138095Y27900477D01*
X56280952Y27948096D01*
X56852380Y28519524D01*
X56852380Y27900477D01*
X55852380Y27567143D02*
X55852380Y26948096D01*
X56233333Y27281429D01*
X56233333Y27138572D01*
X56280952Y27043334D01*
X56328571Y26995715D01*
X56423809Y26948096D01*
X56661904Y26948096D01*
X56757142Y26995715D01*
X56804761Y27043334D01*
X56852380Y27138572D01*
X56852380Y27424286D01*
X56804761Y27519524D01*
X56757142Y27567143D01*
D12*
%TO.C,U12*%
X69254523Y63172381D02*
X70282619Y63172381D01*
X70403571Y63111905D01*
X70464047Y63051429D01*
X70524523Y62930477D01*
X70524523Y62688572D01*
X70464047Y62567620D01*
X70403571Y62507143D01*
X70282619Y62446667D01*
X69254523Y62446667D01*
X70524523Y61176667D02*
X70524523Y61902381D01*
X70524523Y61539524D02*
X69254523Y61539524D01*
X69435952Y61660477D01*
X69556904Y61781429D01*
X69617380Y61902381D01*
X69375476Y60692858D02*
X69315000Y60632381D01*
X69254523Y60511429D01*
X69254523Y60209048D01*
X69315000Y60088096D01*
X69375476Y60027620D01*
X69496428Y59967143D01*
X69617380Y59967143D01*
X69798809Y60027620D01*
X70524523Y60753334D01*
X70524523Y59967143D01*
D10*
%TO.C,C31*%
X53292857Y56892858D02*
X53340476Y56845239D01*
X53483333Y56797620D01*
X53578571Y56797620D01*
X53721428Y56845239D01*
X53816666Y56940477D01*
X53864285Y57035715D01*
X53911904Y57226191D01*
X53911904Y57369048D01*
X53864285Y57559524D01*
X53816666Y57654762D01*
X53721428Y57750000D01*
X53578571Y57797620D01*
X53483333Y57797620D01*
X53340476Y57750000D01*
X53292857Y57702381D01*
X52959523Y57797620D02*
X52340476Y57797620D01*
X52673809Y57416667D01*
X52530952Y57416667D01*
X52435714Y57369048D01*
X52388095Y57321429D01*
X52340476Y57226191D01*
X52340476Y56988096D01*
X52388095Y56892858D01*
X52435714Y56845239D01*
X52530952Y56797620D01*
X52816666Y56797620D01*
X52911904Y56845239D01*
X52959523Y56892858D01*
X51388095Y56797620D02*
X51959523Y56797620D01*
X51673809Y56797620D02*
X51673809Y57797620D01*
X51769047Y57654762D01*
X51864285Y57559524D01*
X51959523Y57511905D01*
%TO.C,R24*%
X73822380Y52542858D02*
X73346190Y52876191D01*
X73822380Y53114286D02*
X72822380Y53114286D01*
X72822380Y52733334D01*
X72870000Y52638096D01*
X72917619Y52590477D01*
X73012857Y52542858D01*
X73155714Y52542858D01*
X73250952Y52590477D01*
X73298571Y52638096D01*
X73346190Y52733334D01*
X73346190Y53114286D01*
X72917619Y52161905D02*
X72870000Y52114286D01*
X72822380Y52019048D01*
X72822380Y51780953D01*
X72870000Y51685715D01*
X72917619Y51638096D01*
X73012857Y51590477D01*
X73108095Y51590477D01*
X73250952Y51638096D01*
X73822380Y52209524D01*
X73822380Y51590477D01*
X73155714Y50733334D02*
X73822380Y50733334D01*
X72774761Y50971429D02*
X73489047Y51209524D01*
X73489047Y50590477D01*
%TO.C,C99*%
X84157142Y12542858D02*
X84204761Y12590477D01*
X84252380Y12733334D01*
X84252380Y12828572D01*
X84204761Y12971429D01*
X84109523Y13066667D01*
X84014285Y13114286D01*
X83823809Y13161905D01*
X83680952Y13161905D01*
X83490476Y13114286D01*
X83395238Y13066667D01*
X83300000Y12971429D01*
X83252380Y12828572D01*
X83252380Y12733334D01*
X83300000Y12590477D01*
X83347619Y12542858D01*
X84252380Y12066667D02*
X84252380Y11876191D01*
X84204761Y11780953D01*
X84157142Y11733334D01*
X84014285Y11638096D01*
X83823809Y11590477D01*
X83442857Y11590477D01*
X83347619Y11638096D01*
X83300000Y11685715D01*
X83252380Y11780953D01*
X83252380Y11971429D01*
X83300000Y12066667D01*
X83347619Y12114286D01*
X83442857Y12161905D01*
X83680952Y12161905D01*
X83776190Y12114286D01*
X83823809Y12066667D01*
X83871428Y11971429D01*
X83871428Y11780953D01*
X83823809Y11685715D01*
X83776190Y11638096D01*
X83680952Y11590477D01*
X84252380Y11114286D02*
X84252380Y10923810D01*
X84204761Y10828572D01*
X84157142Y10780953D01*
X84014285Y10685715D01*
X83823809Y10638096D01*
X83442857Y10638096D01*
X83347619Y10685715D01*
X83300000Y10733334D01*
X83252380Y10828572D01*
X83252380Y11019048D01*
X83300000Y11114286D01*
X83347619Y11161905D01*
X83442857Y11209524D01*
X83680952Y11209524D01*
X83776190Y11161905D01*
X83823809Y11114286D01*
X83871428Y11019048D01*
X83871428Y10828572D01*
X83823809Y10733334D01*
X83776190Y10685715D01*
X83680952Y10638096D01*
%TO.C,F9*%
X60428571Y65783334D02*
X60428571Y66116667D01*
X60952380Y66116667D02*
X59952380Y66116667D01*
X59952380Y65640477D01*
X60952380Y65211905D02*
X60952380Y65021429D01*
X60904761Y64926191D01*
X60857142Y64878572D01*
X60714285Y64783334D01*
X60523809Y64735715D01*
X60142857Y64735715D01*
X60047619Y64783334D01*
X60000000Y64830953D01*
X59952380Y64926191D01*
X59952380Y65116667D01*
X60000000Y65211905D01*
X60047619Y65259524D01*
X60142857Y65307143D01*
X60380952Y65307143D01*
X60476190Y65259524D01*
X60523809Y65211905D01*
X60571428Y65116667D01*
X60571428Y64926191D01*
X60523809Y64830953D01*
X60476190Y64783334D01*
X60380952Y64735715D01*
%TO.C,R29*%
X79052380Y73442858D02*
X78576190Y73776191D01*
X79052380Y74014286D02*
X78052380Y74014286D01*
X78052380Y73633334D01*
X78100000Y73538096D01*
X78147619Y73490477D01*
X78242857Y73442858D01*
X78385714Y73442858D01*
X78480952Y73490477D01*
X78528571Y73538096D01*
X78576190Y73633334D01*
X78576190Y74014286D01*
X78147619Y73061905D02*
X78100000Y73014286D01*
X78052380Y72919048D01*
X78052380Y72680953D01*
X78100000Y72585715D01*
X78147619Y72538096D01*
X78242857Y72490477D01*
X78338095Y72490477D01*
X78480952Y72538096D01*
X79052380Y73109524D01*
X79052380Y72490477D01*
X79052380Y72014286D02*
X79052380Y71823810D01*
X79004761Y71728572D01*
X78957142Y71680953D01*
X78814285Y71585715D01*
X78623809Y71538096D01*
X78242857Y71538096D01*
X78147619Y71585715D01*
X78100000Y71633334D01*
X78052380Y71728572D01*
X78052380Y71919048D01*
X78100000Y72014286D01*
X78147619Y72061905D01*
X78242857Y72109524D01*
X78480952Y72109524D01*
X78576190Y72061905D01*
X78623809Y72014286D01*
X78671428Y71919048D01*
X78671428Y71728572D01*
X78623809Y71633334D01*
X78576190Y71585715D01*
X78480952Y71538096D01*
%TO.C,TP13*%
X76038095Y28747620D02*
X75466666Y28747620D01*
X75752380Y27747620D02*
X75752380Y28747620D01*
X75133333Y27747620D02*
X75133333Y28747620D01*
X74752380Y28747620D01*
X74657142Y28700000D01*
X74609523Y28652381D01*
X74561904Y28557143D01*
X74561904Y28414286D01*
X74609523Y28319048D01*
X74657142Y28271429D01*
X74752380Y28223810D01*
X75133333Y28223810D01*
X73609523Y27747620D02*
X74180952Y27747620D01*
X73895238Y27747620D02*
X73895238Y28747620D01*
X73990476Y28604762D01*
X74085714Y28509524D01*
X74180952Y28461905D01*
X73276190Y28747620D02*
X72657142Y28747620D01*
X72990476Y28366667D01*
X72847619Y28366667D01*
X72752380Y28319048D01*
X72704761Y28271429D01*
X72657142Y28176191D01*
X72657142Y27938096D01*
X72704761Y27842858D01*
X72752380Y27795239D01*
X72847619Y27747620D01*
X73133333Y27747620D01*
X73228571Y27795239D01*
X73276190Y27842858D01*
%TO.C,C37*%
X74092857Y45992858D02*
X74140476Y45945239D01*
X74283333Y45897620D01*
X74378571Y45897620D01*
X74521428Y45945239D01*
X74616666Y46040477D01*
X74664285Y46135715D01*
X74711904Y46326191D01*
X74711904Y46469048D01*
X74664285Y46659524D01*
X74616666Y46754762D01*
X74521428Y46850000D01*
X74378571Y46897620D01*
X74283333Y46897620D01*
X74140476Y46850000D01*
X74092857Y46802381D01*
X73759523Y46897620D02*
X73140476Y46897620D01*
X73473809Y46516667D01*
X73330952Y46516667D01*
X73235714Y46469048D01*
X73188095Y46421429D01*
X73140476Y46326191D01*
X73140476Y46088096D01*
X73188095Y45992858D01*
X73235714Y45945239D01*
X73330952Y45897620D01*
X73616666Y45897620D01*
X73711904Y45945239D01*
X73759523Y45992858D01*
X72807142Y46897620D02*
X72140476Y46897620D01*
X72569047Y45897620D01*
%TO.C,C94*%
X7272857Y72312858D02*
X7320476Y72265239D01*
X7463333Y72217620D01*
X7558571Y72217620D01*
X7701428Y72265239D01*
X7796666Y72360477D01*
X7844285Y72455715D01*
X7891904Y72646191D01*
X7891904Y72789048D01*
X7844285Y72979524D01*
X7796666Y73074762D01*
X7701428Y73170000D01*
X7558571Y73217620D01*
X7463333Y73217620D01*
X7320476Y73170000D01*
X7272857Y73122381D01*
X6796666Y72217620D02*
X6606190Y72217620D01*
X6510952Y72265239D01*
X6463333Y72312858D01*
X6368095Y72455715D01*
X6320476Y72646191D01*
X6320476Y73027143D01*
X6368095Y73122381D01*
X6415714Y73170000D01*
X6510952Y73217620D01*
X6701428Y73217620D01*
X6796666Y73170000D01*
X6844285Y73122381D01*
X6891904Y73027143D01*
X6891904Y72789048D01*
X6844285Y72693810D01*
X6796666Y72646191D01*
X6701428Y72598572D01*
X6510952Y72598572D01*
X6415714Y72646191D01*
X6368095Y72693810D01*
X6320476Y72789048D01*
X5463333Y72884286D02*
X5463333Y72217620D01*
X5701428Y73265239D02*
X5939523Y72550953D01*
X5320476Y72550953D01*
%TO.C,FL3*%
X61828571Y27038096D02*
X61828571Y27371429D01*
X62352380Y27371429D02*
X61352380Y27371429D01*
X61352380Y26895239D01*
X62352380Y26038096D02*
X62352380Y26514286D01*
X61352380Y26514286D01*
X61352380Y25800000D02*
X61352380Y25180953D01*
X61733333Y25514286D01*
X61733333Y25371429D01*
X61780952Y25276191D01*
X61828571Y25228572D01*
X61923809Y25180953D01*
X62161904Y25180953D01*
X62257142Y25228572D01*
X62304761Y25276191D01*
X62352380Y25371429D01*
X62352380Y25657143D01*
X62304761Y25752381D01*
X62257142Y25800000D01*
%TO.C,FL1*%
X45138095Y41521429D02*
X45471428Y41521429D01*
X45471428Y40997620D02*
X45471428Y41997620D01*
X44995238Y41997620D01*
X44138095Y40997620D02*
X44614285Y40997620D01*
X44614285Y41997620D01*
X43280952Y40997620D02*
X43852380Y40997620D01*
X43566666Y40997620D02*
X43566666Y41997620D01*
X43661904Y41854762D01*
X43757142Y41759524D01*
X43852380Y41711905D01*
%TO.C,F6*%
X39183333Y75071429D02*
X39516666Y75071429D01*
X39516666Y74547620D02*
X39516666Y75547620D01*
X39040476Y75547620D01*
X38230952Y75547620D02*
X38421428Y75547620D01*
X38516666Y75500000D01*
X38564285Y75452381D01*
X38659523Y75309524D01*
X38707142Y75119048D01*
X38707142Y74738096D01*
X38659523Y74642858D01*
X38611904Y74595239D01*
X38516666Y74547620D01*
X38326190Y74547620D01*
X38230952Y74595239D01*
X38183333Y74642858D01*
X38135714Y74738096D01*
X38135714Y74976191D01*
X38183333Y75071429D01*
X38230952Y75119048D01*
X38326190Y75166667D01*
X38516666Y75166667D01*
X38611904Y75119048D01*
X38659523Y75071429D01*
X38707142Y74976191D01*
%TO.C,C22*%
X58157142Y28892858D02*
X58204761Y28940477D01*
X58252380Y29083334D01*
X58252380Y29178572D01*
X58204761Y29321429D01*
X58109523Y29416667D01*
X58014285Y29464286D01*
X57823809Y29511905D01*
X57680952Y29511905D01*
X57490476Y29464286D01*
X57395238Y29416667D01*
X57300000Y29321429D01*
X57252380Y29178572D01*
X57252380Y29083334D01*
X57300000Y28940477D01*
X57347619Y28892858D01*
X57347619Y28511905D02*
X57300000Y28464286D01*
X57252380Y28369048D01*
X57252380Y28130953D01*
X57300000Y28035715D01*
X57347619Y27988096D01*
X57442857Y27940477D01*
X57538095Y27940477D01*
X57680952Y27988096D01*
X58252380Y28559524D01*
X58252380Y27940477D01*
X57347619Y27559524D02*
X57300000Y27511905D01*
X57252380Y27416667D01*
X57252380Y27178572D01*
X57300000Y27083334D01*
X57347619Y27035715D01*
X57442857Y26988096D01*
X57538095Y26988096D01*
X57680952Y27035715D01*
X58252380Y27607143D01*
X58252380Y26988096D01*
D12*
%TO.C,F10*%
X76828095Y80290715D02*
X77251428Y80290715D01*
X77251428Y79625477D02*
X77251428Y80895477D01*
X76646666Y80895477D01*
X75497619Y79625477D02*
X76223333Y79625477D01*
X75860476Y79625477D02*
X75860476Y80895477D01*
X75981428Y80714048D01*
X76102380Y80593096D01*
X76223333Y80532620D01*
X74711428Y80895477D02*
X74590476Y80895477D01*
X74469523Y80835000D01*
X74409047Y80774524D01*
X74348571Y80653572D01*
X74288095Y80411667D01*
X74288095Y80109286D01*
X74348571Y79867381D01*
X74409047Y79746429D01*
X74469523Y79685953D01*
X74590476Y79625477D01*
X74711428Y79625477D01*
X74832380Y79685953D01*
X74892857Y79746429D01*
X74953333Y79867381D01*
X75013809Y80109286D01*
X75013809Y80411667D01*
X74953333Y80653572D01*
X74892857Y80774524D01*
X74832380Y80835000D01*
X74711428Y80895477D01*
D10*
%TO.C,TP54*%
X15952316Y77338301D02*
X15952316Y76766805D01*
X16952434Y77052553D02*
X15952316Y77052553D01*
X16952434Y76433432D02*
X15952316Y76433432D01*
X15952316Y76052435D01*
X15999941Y75957185D01*
X16047565Y75909561D01*
X16142815Y75861936D01*
X16285689Y75861936D01*
X16380938Y75909561D01*
X16428563Y75957185D01*
X16476187Y76052435D01*
X16476187Y76433432D01*
X15952316Y74957067D02*
X15952316Y75433314D01*
X16428563Y75480939D01*
X16380938Y75433314D01*
X16333313Y75338065D01*
X16333313Y75099941D01*
X16380938Y75004692D01*
X16428563Y74957067D01*
X16523812Y74909443D01*
X16761935Y74909443D01*
X16857185Y74957067D01*
X16904809Y75004692D01*
X16952434Y75099941D01*
X16952434Y75338065D01*
X16904809Y75433314D01*
X16857185Y75480939D01*
X16285689Y74052199D02*
X16952434Y74052199D01*
X15904691Y74290322D02*
X16619061Y74528445D01*
X16619061Y73909325D01*
%TO.C,R122*%
X26619047Y70877620D02*
X26952380Y71353810D01*
X27190476Y70877620D02*
X27190476Y71877620D01*
X26809523Y71877620D01*
X26714285Y71830000D01*
X26666666Y71782381D01*
X26619047Y71687143D01*
X26619047Y71544286D01*
X26666666Y71449048D01*
X26714285Y71401429D01*
X26809523Y71353810D01*
X27190476Y71353810D01*
X25666666Y70877620D02*
X26238095Y70877620D01*
X25952380Y70877620D02*
X25952380Y71877620D01*
X26047619Y71734762D01*
X26142857Y71639524D01*
X26238095Y71591905D01*
X25285714Y71782381D02*
X25238095Y71830000D01*
X25142857Y71877620D01*
X24904761Y71877620D01*
X24809523Y71830000D01*
X24761904Y71782381D01*
X24714285Y71687143D01*
X24714285Y71591905D01*
X24761904Y71449048D01*
X25333333Y70877620D01*
X24714285Y70877620D01*
X24333333Y71782381D02*
X24285714Y71830000D01*
X24190476Y71877620D01*
X23952380Y71877620D01*
X23857142Y71830000D01*
X23809523Y71782381D01*
X23761904Y71687143D01*
X23761904Y71591905D01*
X23809523Y71449048D01*
X24380952Y70877620D01*
X23761904Y70877620D01*
%TO.C,R14*%
X55252380Y58842858D02*
X54776190Y59176191D01*
X55252380Y59414286D02*
X54252380Y59414286D01*
X54252380Y59033334D01*
X54300000Y58938096D01*
X54347619Y58890477D01*
X54442857Y58842858D01*
X54585714Y58842858D01*
X54680952Y58890477D01*
X54728571Y58938096D01*
X54776190Y59033334D01*
X54776190Y59414286D01*
X55252380Y57890477D02*
X55252380Y58461905D01*
X55252380Y58176191D02*
X54252380Y58176191D01*
X54395238Y58271429D01*
X54490476Y58366667D01*
X54538095Y58461905D01*
X54585714Y57033334D02*
X55252380Y57033334D01*
X54204761Y57271429D02*
X54919047Y57509524D01*
X54919047Y56890477D01*
%TO.C,R15*%
X70772380Y58742858D02*
X70296190Y59076191D01*
X70772380Y59314286D02*
X69772380Y59314286D01*
X69772380Y58933334D01*
X69820000Y58838096D01*
X69867619Y58790477D01*
X69962857Y58742858D01*
X70105714Y58742858D01*
X70200952Y58790477D01*
X70248571Y58838096D01*
X70296190Y58933334D01*
X70296190Y59314286D01*
X70772380Y57790477D02*
X70772380Y58361905D01*
X70772380Y58076191D02*
X69772380Y58076191D01*
X69915238Y58171429D01*
X70010476Y58266667D01*
X70058095Y58361905D01*
X69772380Y56885715D02*
X69772380Y57361905D01*
X70248571Y57409524D01*
X70200952Y57361905D01*
X70153333Y57266667D01*
X70153333Y57028572D01*
X70200952Y56933334D01*
X70248571Y56885715D01*
X70343809Y56838096D01*
X70581904Y56838096D01*
X70677142Y56885715D01*
X70724761Y56933334D01*
X70772380Y57028572D01*
X70772380Y57266667D01*
X70724761Y57361905D01*
X70677142Y57409524D01*
%TO.C,R33*%
X76642857Y74047620D02*
X76976190Y74523810D01*
X77214285Y74047620D02*
X77214285Y75047620D01*
X76833333Y75047620D01*
X76738095Y75000000D01*
X76690476Y74952381D01*
X76642857Y74857143D01*
X76642857Y74714286D01*
X76690476Y74619048D01*
X76738095Y74571429D01*
X76833333Y74523810D01*
X77214285Y74523810D01*
X76309523Y75047620D02*
X75690476Y75047620D01*
X76023809Y74666667D01*
X75880952Y74666667D01*
X75785714Y74619048D01*
X75738095Y74571429D01*
X75690476Y74476191D01*
X75690476Y74238096D01*
X75738095Y74142858D01*
X75785714Y74095239D01*
X75880952Y74047620D01*
X76166666Y74047620D01*
X76261904Y74095239D01*
X76309523Y74142858D01*
X75357142Y75047620D02*
X74738095Y75047620D01*
X75071428Y74666667D01*
X74928571Y74666667D01*
X74833333Y74619048D01*
X74785714Y74571429D01*
X74738095Y74476191D01*
X74738095Y74238096D01*
X74785714Y74142858D01*
X74833333Y74095239D01*
X74928571Y74047620D01*
X75214285Y74047620D01*
X75309523Y74095239D01*
X75357142Y74142858D01*
%TO.C,R28*%
X78752380Y77342858D02*
X78276190Y77676191D01*
X78752380Y77914286D02*
X77752380Y77914286D01*
X77752380Y77533334D01*
X77800000Y77438096D01*
X77847619Y77390477D01*
X77942857Y77342858D01*
X78085714Y77342858D01*
X78180952Y77390477D01*
X78228571Y77438096D01*
X78276190Y77533334D01*
X78276190Y77914286D01*
X77847619Y76961905D02*
X77800000Y76914286D01*
X77752380Y76819048D01*
X77752380Y76580953D01*
X77800000Y76485715D01*
X77847619Y76438096D01*
X77942857Y76390477D01*
X78038095Y76390477D01*
X78180952Y76438096D01*
X78752380Y77009524D01*
X78752380Y76390477D01*
X78180952Y75819048D02*
X78133333Y75914286D01*
X78085714Y75961905D01*
X77990476Y76009524D01*
X77942857Y76009524D01*
X77847619Y75961905D01*
X77800000Y75914286D01*
X77752380Y75819048D01*
X77752380Y75628572D01*
X77800000Y75533334D01*
X77847619Y75485715D01*
X77942857Y75438096D01*
X77990476Y75438096D01*
X78085714Y75485715D01*
X78133333Y75533334D01*
X78180952Y75628572D01*
X78180952Y75819048D01*
X78228571Y75914286D01*
X78276190Y75961905D01*
X78371428Y76009524D01*
X78561904Y76009524D01*
X78657142Y75961905D01*
X78704761Y75914286D01*
X78752380Y75819048D01*
X78752380Y75628572D01*
X78704761Y75533334D01*
X78657142Y75485715D01*
X78561904Y75438096D01*
X78371428Y75438096D01*
X78276190Y75485715D01*
X78228571Y75533334D01*
X78180952Y75628572D01*
%TO.C,C32*%
X44692857Y51192858D02*
X44740476Y51145239D01*
X44883333Y51097620D01*
X44978571Y51097620D01*
X45121428Y51145239D01*
X45216666Y51240477D01*
X45264285Y51335715D01*
X45311904Y51526191D01*
X45311904Y51669048D01*
X45264285Y51859524D01*
X45216666Y51954762D01*
X45121428Y52050000D01*
X44978571Y52097620D01*
X44883333Y52097620D01*
X44740476Y52050000D01*
X44692857Y52002381D01*
X44359523Y52097620D02*
X43740476Y52097620D01*
X44073809Y51716667D01*
X43930952Y51716667D01*
X43835714Y51669048D01*
X43788095Y51621429D01*
X43740476Y51526191D01*
X43740476Y51288096D01*
X43788095Y51192858D01*
X43835714Y51145239D01*
X43930952Y51097620D01*
X44216666Y51097620D01*
X44311904Y51145239D01*
X44359523Y51192858D01*
X43359523Y52002381D02*
X43311904Y52050000D01*
X43216666Y52097620D01*
X42978571Y52097620D01*
X42883333Y52050000D01*
X42835714Y52002381D01*
X42788095Y51907143D01*
X42788095Y51811905D01*
X42835714Y51669048D01*
X43407142Y51097620D01*
X42788095Y51097620D01*
%TO.C,R26*%
X76442857Y43747620D02*
X76776190Y44223810D01*
X77014285Y43747620D02*
X77014285Y44747620D01*
X76633333Y44747620D01*
X76538095Y44700000D01*
X76490476Y44652381D01*
X76442857Y44557143D01*
X76442857Y44414286D01*
X76490476Y44319048D01*
X76538095Y44271429D01*
X76633333Y44223810D01*
X77014285Y44223810D01*
X76061904Y44652381D02*
X76014285Y44700000D01*
X75919047Y44747620D01*
X75680952Y44747620D01*
X75585714Y44700000D01*
X75538095Y44652381D01*
X75490476Y44557143D01*
X75490476Y44461905D01*
X75538095Y44319048D01*
X76109523Y43747620D01*
X75490476Y43747620D01*
X74633333Y44747620D02*
X74823809Y44747620D01*
X74919047Y44700000D01*
X74966666Y44652381D01*
X75061904Y44509524D01*
X75109523Y44319048D01*
X75109523Y43938096D01*
X75061904Y43842858D01*
X75014285Y43795239D01*
X74919047Y43747620D01*
X74728571Y43747620D01*
X74633333Y43795239D01*
X74585714Y43842858D01*
X74538095Y43938096D01*
X74538095Y44176191D01*
X74585714Y44271429D01*
X74633333Y44319048D01*
X74728571Y44366667D01*
X74919047Y44366667D01*
X75014285Y44319048D01*
X75061904Y44271429D01*
X75109523Y44176191D01*
%TO.C,J31*%
X59509523Y73317620D02*
X59509523Y72603334D01*
X59557142Y72460477D01*
X59652380Y72365239D01*
X59795238Y72317620D01*
X59890476Y72317620D01*
X59128571Y73317620D02*
X58509523Y73317620D01*
X58842857Y72936667D01*
X58700000Y72936667D01*
X58604761Y72889048D01*
X58557142Y72841429D01*
X58509523Y72746191D01*
X58509523Y72508096D01*
X58557142Y72412858D01*
X58604761Y72365239D01*
X58700000Y72317620D01*
X58985714Y72317620D01*
X59080952Y72365239D01*
X59128571Y72412858D01*
X57557142Y72317620D02*
X58128571Y72317620D01*
X57842857Y72317620D02*
X57842857Y73317620D01*
X57938095Y73174762D01*
X58033333Y73079524D01*
X58128571Y73031905D01*
%TO.C,C39*%
X43807142Y37542858D02*
X43854761Y37590477D01*
X43902380Y37733334D01*
X43902380Y37828572D01*
X43854761Y37971429D01*
X43759523Y38066667D01*
X43664285Y38114286D01*
X43473809Y38161905D01*
X43330952Y38161905D01*
X43140476Y38114286D01*
X43045238Y38066667D01*
X42950000Y37971429D01*
X42902380Y37828572D01*
X42902380Y37733334D01*
X42950000Y37590477D01*
X42997619Y37542858D01*
X42902380Y37209524D02*
X42902380Y36590477D01*
X43283333Y36923810D01*
X43283333Y36780953D01*
X43330952Y36685715D01*
X43378571Y36638096D01*
X43473809Y36590477D01*
X43711904Y36590477D01*
X43807142Y36638096D01*
X43854761Y36685715D01*
X43902380Y36780953D01*
X43902380Y37066667D01*
X43854761Y37161905D01*
X43807142Y37209524D01*
X43902380Y36114286D02*
X43902380Y35923810D01*
X43854761Y35828572D01*
X43807142Y35780953D01*
X43664285Y35685715D01*
X43473809Y35638096D01*
X43092857Y35638096D01*
X42997619Y35685715D01*
X42950000Y35733334D01*
X42902380Y35828572D01*
X42902380Y36019048D01*
X42950000Y36114286D01*
X42997619Y36161905D01*
X43092857Y36209524D01*
X43330952Y36209524D01*
X43426190Y36161905D01*
X43473809Y36114286D01*
X43521428Y36019048D01*
X43521428Y35828572D01*
X43473809Y35733334D01*
X43426190Y35685715D01*
X43330952Y35638096D01*
%TO.C,FID3*%
X87428571Y92071429D02*
X87428571Y92404762D01*
X87952380Y92404762D02*
X86952380Y92404762D01*
X86952380Y91928572D01*
X87952380Y91547620D02*
X86952380Y91547620D01*
X87952380Y91071429D02*
X86952380Y91071429D01*
X86952380Y90833334D01*
X87000000Y90690477D01*
X87095238Y90595239D01*
X87190476Y90547620D01*
X87380952Y90500000D01*
X87523809Y90500000D01*
X87714285Y90547620D01*
X87809523Y90595239D01*
X87904761Y90690477D01*
X87952380Y90833334D01*
X87952380Y91071429D01*
X86952380Y90166667D02*
X86952380Y89547620D01*
X87333333Y89880953D01*
X87333333Y89738096D01*
X87380952Y89642858D01*
X87428571Y89595239D01*
X87523809Y89547620D01*
X87761904Y89547620D01*
X87857142Y89595239D01*
X87904761Y89642858D01*
X87952380Y89738096D01*
X87952380Y90023810D01*
X87904761Y90119048D01*
X87857142Y90166667D01*
%TO.C,C42*%
X44042857Y34342858D02*
X44090476Y34295239D01*
X44233333Y34247620D01*
X44328571Y34247620D01*
X44471428Y34295239D01*
X44566666Y34390477D01*
X44614285Y34485715D01*
X44661904Y34676191D01*
X44661904Y34819048D01*
X44614285Y35009524D01*
X44566666Y35104762D01*
X44471428Y35200000D01*
X44328571Y35247620D01*
X44233333Y35247620D01*
X44090476Y35200000D01*
X44042857Y35152381D01*
X43185714Y34914286D02*
X43185714Y34247620D01*
X43423809Y35295239D02*
X43661904Y34580953D01*
X43042857Y34580953D01*
X42709523Y35152381D02*
X42661904Y35200000D01*
X42566666Y35247620D01*
X42328571Y35247620D01*
X42233333Y35200000D01*
X42185714Y35152381D01*
X42138095Y35057143D01*
X42138095Y34961905D01*
X42185714Y34819048D01*
X42757142Y34247620D01*
X42138095Y34247620D01*
%TO.C,R11*%
X4832380Y68282858D02*
X4356190Y68616191D01*
X4832380Y68854286D02*
X3832380Y68854286D01*
X3832380Y68473334D01*
X3880000Y68378096D01*
X3927619Y68330477D01*
X4022857Y68282858D01*
X4165714Y68282858D01*
X4260952Y68330477D01*
X4308571Y68378096D01*
X4356190Y68473334D01*
X4356190Y68854286D01*
X4832380Y67330477D02*
X4832380Y67901905D01*
X4832380Y67616191D02*
X3832380Y67616191D01*
X3975238Y67711429D01*
X4070476Y67806667D01*
X4118095Y67901905D01*
X4832380Y66378096D02*
X4832380Y66949524D01*
X4832380Y66663810D02*
X3832380Y66663810D01*
X3975238Y66759048D01*
X4070476Y66854286D01*
X4118095Y66949524D01*
D12*
%TO.C,U10*%
X27604523Y77372381D02*
X28632619Y77372381D01*
X28753571Y77311905D01*
X28814047Y77251429D01*
X28874523Y77130477D01*
X28874523Y76888572D01*
X28814047Y76767620D01*
X28753571Y76707143D01*
X28632619Y76646667D01*
X27604523Y76646667D01*
X28874523Y75376667D02*
X28874523Y76102381D01*
X28874523Y75739524D02*
X27604523Y75739524D01*
X27785952Y75860477D01*
X27906904Y75981429D01*
X27967380Y76102381D01*
X27604523Y74590477D02*
X27604523Y74469524D01*
X27665000Y74348572D01*
X27725476Y74288096D01*
X27846428Y74227620D01*
X28088333Y74167143D01*
X28390714Y74167143D01*
X28632619Y74227620D01*
X28753571Y74288096D01*
X28814047Y74348572D01*
X28874523Y74469524D01*
X28874523Y74590477D01*
X28814047Y74711429D01*
X28753571Y74771905D01*
X28632619Y74832381D01*
X28390714Y74892858D01*
X28088333Y74892858D01*
X27846428Y74832381D01*
X27725476Y74771905D01*
X27665000Y74711429D01*
X27604523Y74590477D01*
%TO.C,Y2*%
X51504761Y26230239D02*
X51504761Y25625477D01*
X51928095Y26895477D02*
X51504761Y26230239D01*
X51081428Y26895477D01*
X50718571Y26774524D02*
X50658095Y26835000D01*
X50537142Y26895477D01*
X50234761Y26895477D01*
X50113809Y26835000D01*
X50053333Y26774524D01*
X49992857Y26653572D01*
X49992857Y26532620D01*
X50053333Y26351191D01*
X50779047Y25625477D01*
X49992857Y25625477D01*
D10*
%TO.C,C34*%
X67392857Y54992858D02*
X67440476Y54945239D01*
X67583333Y54897620D01*
X67678571Y54897620D01*
X67821428Y54945239D01*
X67916666Y55040477D01*
X67964285Y55135715D01*
X68011904Y55326191D01*
X68011904Y55469048D01*
X67964285Y55659524D01*
X67916666Y55754762D01*
X67821428Y55850000D01*
X67678571Y55897620D01*
X67583333Y55897620D01*
X67440476Y55850000D01*
X67392857Y55802381D01*
X67059523Y55897620D02*
X66440476Y55897620D01*
X66773809Y55516667D01*
X66630952Y55516667D01*
X66535714Y55469048D01*
X66488095Y55421429D01*
X66440476Y55326191D01*
X66440476Y55088096D01*
X66488095Y54992858D01*
X66535714Y54945239D01*
X66630952Y54897620D01*
X66916666Y54897620D01*
X67011904Y54945239D01*
X67059523Y54992858D01*
X65583333Y55564286D02*
X65583333Y54897620D01*
X65821428Y55945239D02*
X66059523Y55230953D01*
X65440476Y55230953D01*
%TO.C,C36*%
X73457142Y49042858D02*
X73504761Y49090477D01*
X73552380Y49233334D01*
X73552380Y49328572D01*
X73504761Y49471429D01*
X73409523Y49566667D01*
X73314285Y49614286D01*
X73123809Y49661905D01*
X72980952Y49661905D01*
X72790476Y49614286D01*
X72695238Y49566667D01*
X72600000Y49471429D01*
X72552380Y49328572D01*
X72552380Y49233334D01*
X72600000Y49090477D01*
X72647619Y49042858D01*
X72552380Y48709524D02*
X72552380Y48090477D01*
X72933333Y48423810D01*
X72933333Y48280953D01*
X72980952Y48185715D01*
X73028571Y48138096D01*
X73123809Y48090477D01*
X73361904Y48090477D01*
X73457142Y48138096D01*
X73504761Y48185715D01*
X73552380Y48280953D01*
X73552380Y48566667D01*
X73504761Y48661905D01*
X73457142Y48709524D01*
X72552380Y47233334D02*
X72552380Y47423810D01*
X72600000Y47519048D01*
X72647619Y47566667D01*
X72790476Y47661905D01*
X72980952Y47709524D01*
X73361904Y47709524D01*
X73457142Y47661905D01*
X73504761Y47614286D01*
X73552380Y47519048D01*
X73552380Y47328572D01*
X73504761Y47233334D01*
X73457142Y47185715D01*
X73361904Y47138096D01*
X73123809Y47138096D01*
X73028571Y47185715D01*
X72980952Y47233334D01*
X72933333Y47328572D01*
X72933333Y47519048D01*
X72980952Y47614286D01*
X73028571Y47661905D01*
X73123809Y47709524D01*
%TO.C,R34*%
X68292857Y78417620D02*
X68626190Y78893810D01*
X68864285Y78417620D02*
X68864285Y79417620D01*
X68483333Y79417620D01*
X68388095Y79370000D01*
X68340476Y79322381D01*
X68292857Y79227143D01*
X68292857Y79084286D01*
X68340476Y78989048D01*
X68388095Y78941429D01*
X68483333Y78893810D01*
X68864285Y78893810D01*
X67959523Y79417620D02*
X67340476Y79417620D01*
X67673809Y79036667D01*
X67530952Y79036667D01*
X67435714Y78989048D01*
X67388095Y78941429D01*
X67340476Y78846191D01*
X67340476Y78608096D01*
X67388095Y78512858D01*
X67435714Y78465239D01*
X67530952Y78417620D01*
X67816666Y78417620D01*
X67911904Y78465239D01*
X67959523Y78512858D01*
X66483333Y79084286D02*
X66483333Y78417620D01*
X66721428Y79465239D02*
X66959523Y78750953D01*
X66340476Y78750953D01*
%TO.C,C29*%
X44442857Y46742858D02*
X44490476Y46695239D01*
X44633333Y46647620D01*
X44728571Y46647620D01*
X44871428Y46695239D01*
X44966666Y46790477D01*
X45014285Y46885715D01*
X45061904Y47076191D01*
X45061904Y47219048D01*
X45014285Y47409524D01*
X44966666Y47504762D01*
X44871428Y47600000D01*
X44728571Y47647620D01*
X44633333Y47647620D01*
X44490476Y47600000D01*
X44442857Y47552381D01*
X44061904Y47552381D02*
X44014285Y47600000D01*
X43919047Y47647620D01*
X43680952Y47647620D01*
X43585714Y47600000D01*
X43538095Y47552381D01*
X43490476Y47457143D01*
X43490476Y47361905D01*
X43538095Y47219048D01*
X44109523Y46647620D01*
X43490476Y46647620D01*
X43014285Y46647620D02*
X42823809Y46647620D01*
X42728571Y46695239D01*
X42680952Y46742858D01*
X42585714Y46885715D01*
X42538095Y47076191D01*
X42538095Y47457143D01*
X42585714Y47552381D01*
X42633333Y47600000D01*
X42728571Y47647620D01*
X42919047Y47647620D01*
X43014285Y47600000D01*
X43061904Y47552381D01*
X43109523Y47457143D01*
X43109523Y47219048D01*
X43061904Y47123810D01*
X43014285Y47076191D01*
X42919047Y47028572D01*
X42728571Y47028572D01*
X42633333Y47076191D01*
X42585714Y47123810D01*
X42538095Y47219048D01*
D12*
%TO.C,J19*%
X12524523Y52778096D02*
X13431666Y52778096D01*
X13613095Y52838572D01*
X13734047Y52959524D01*
X13794523Y53140953D01*
X13794523Y53261905D01*
X13794523Y51508096D02*
X13794523Y52233810D01*
X13794523Y51870953D02*
X12524523Y51870953D01*
X12705952Y51991905D01*
X12826904Y52112858D01*
X12887380Y52233810D01*
X13794523Y50903334D02*
X13794523Y50661429D01*
X13734047Y50540477D01*
X13673571Y50480000D01*
X13492142Y50359048D01*
X13250238Y50298572D01*
X12766428Y50298572D01*
X12645476Y50359048D01*
X12585000Y50419524D01*
X12524523Y50540477D01*
X12524523Y50782381D01*
X12585000Y50903334D01*
X12645476Y50963810D01*
X12766428Y51024286D01*
X13068809Y51024286D01*
X13189761Y50963810D01*
X13250238Y50903334D01*
X13310714Y50782381D01*
X13310714Y50540477D01*
X13250238Y50419524D01*
X13189761Y50359048D01*
X13068809Y50298572D01*
D10*
%TO.C,FL2*%
X53928571Y25838096D02*
X53928571Y26171429D01*
X54452380Y26171429D02*
X53452380Y26171429D01*
X53452380Y25695239D01*
X54452380Y24838096D02*
X54452380Y25314286D01*
X53452380Y25314286D01*
X53547619Y24552381D02*
X53500000Y24504762D01*
X53452380Y24409524D01*
X53452380Y24171429D01*
X53500000Y24076191D01*
X53547619Y24028572D01*
X53642857Y23980953D01*
X53738095Y23980953D01*
X53880952Y24028572D01*
X54452380Y24600000D01*
X54452380Y23980953D01*
%TO.C,TP56*%
X5182380Y85378096D02*
X5182380Y84806667D01*
X6182380Y85092381D02*
X5182380Y85092381D01*
X6182380Y84473334D02*
X5182380Y84473334D01*
X5182380Y84092381D01*
X5230000Y83997143D01*
X5277619Y83949524D01*
X5372857Y83901905D01*
X5515714Y83901905D01*
X5610952Y83949524D01*
X5658571Y83997143D01*
X5706190Y84092381D01*
X5706190Y84473334D01*
X5182380Y82997143D02*
X5182380Y83473334D01*
X5658571Y83520953D01*
X5610952Y83473334D01*
X5563333Y83378096D01*
X5563333Y83140000D01*
X5610952Y83044762D01*
X5658571Y82997143D01*
X5753809Y82949524D01*
X5991904Y82949524D01*
X6087142Y82997143D01*
X6134761Y83044762D01*
X6182380Y83140000D01*
X6182380Y83378096D01*
X6134761Y83473334D01*
X6087142Y83520953D01*
X5182380Y82092381D02*
X5182380Y82282858D01*
X5230000Y82378096D01*
X5277619Y82425715D01*
X5420476Y82520953D01*
X5610952Y82568572D01*
X5991904Y82568572D01*
X6087142Y82520953D01*
X6134761Y82473334D01*
X6182380Y82378096D01*
X6182380Y82187620D01*
X6134761Y82092381D01*
X6087142Y82044762D01*
X5991904Y81997143D01*
X5753809Y81997143D01*
X5658571Y82044762D01*
X5610952Y82092381D01*
X5563333Y82187620D01*
X5563333Y82378096D01*
X5610952Y82473334D01*
X5658571Y82520953D01*
X5753809Y82568572D01*
%TO.C,TP55*%
X18318095Y81417620D02*
X17746666Y81417620D01*
X18032380Y80417620D02*
X18032380Y81417620D01*
X17413333Y80417620D02*
X17413333Y81417620D01*
X17032380Y81417620D01*
X16937142Y81370000D01*
X16889523Y81322381D01*
X16841904Y81227143D01*
X16841904Y81084286D01*
X16889523Y80989048D01*
X16937142Y80941429D01*
X17032380Y80893810D01*
X17413333Y80893810D01*
X15937142Y81417620D02*
X16413333Y81417620D01*
X16460952Y80941429D01*
X16413333Y80989048D01*
X16318095Y81036667D01*
X16080000Y81036667D01*
X15984761Y80989048D01*
X15937142Y80941429D01*
X15889523Y80846191D01*
X15889523Y80608096D01*
X15937142Y80512858D01*
X15984761Y80465239D01*
X16080000Y80417620D01*
X16318095Y80417620D01*
X16413333Y80465239D01*
X16460952Y80512858D01*
X14984761Y81417620D02*
X15460952Y81417620D01*
X15508571Y80941429D01*
X15460952Y80989048D01*
X15365714Y81036667D01*
X15127619Y81036667D01*
X15032380Y80989048D01*
X14984761Y80941429D01*
X14937142Y80846191D01*
X14937142Y80608096D01*
X14984761Y80512858D01*
X15032380Y80465239D01*
X15127619Y80417620D01*
X15365714Y80417620D01*
X15460952Y80465239D01*
X15508571Y80512858D01*
%TO.C,FID1*%
X86571428Y1471429D02*
X86904761Y1471429D01*
X86904761Y947620D02*
X86904761Y1947620D01*
X86428571Y1947620D01*
X86047619Y947620D02*
X86047619Y1947620D01*
X85571428Y947620D02*
X85571428Y1947620D01*
X85333333Y1947620D01*
X85190476Y1900000D01*
X85095238Y1804762D01*
X85047619Y1709524D01*
X85000000Y1519048D01*
X85000000Y1376191D01*
X85047619Y1185715D01*
X85095238Y1090477D01*
X85190476Y995239D01*
X85333333Y947620D01*
X85571428Y947620D01*
X84047619Y947620D02*
X84619047Y947620D01*
X84333333Y947620D02*
X84333333Y1947620D01*
X84428571Y1804762D01*
X84523809Y1709524D01*
X84619047Y1661905D01*
%TO.C,C17*%
X32957142Y73642858D02*
X33004761Y73690477D01*
X33052380Y73833334D01*
X33052380Y73928572D01*
X33004761Y74071429D01*
X32909523Y74166667D01*
X32814285Y74214286D01*
X32623809Y74261905D01*
X32480952Y74261905D01*
X32290476Y74214286D01*
X32195238Y74166667D01*
X32100000Y74071429D01*
X32052380Y73928572D01*
X32052380Y73833334D01*
X32100000Y73690477D01*
X32147619Y73642858D01*
X33052380Y72690477D02*
X33052380Y73261905D01*
X33052380Y72976191D02*
X32052380Y72976191D01*
X32195238Y73071429D01*
X32290476Y73166667D01*
X32338095Y73261905D01*
X32052380Y72357143D02*
X32052380Y71690477D01*
X33052380Y72119048D01*
D13*
%TO.C,Q2*%
X65500000Y78800000D02*
X62500000Y78800000D01*
X62500000Y75100000D02*
X65500000Y75100000D01*
X62500000Y78800000D02*
X62500000Y75100000D01*
X62450000Y80625000D02*
X62450000Y79150000D01*
X65500000Y75100000D02*
X65500000Y78800000D01*
D14*
%TO.C,R9*%
X70420000Y28413641D02*
X70420000Y28106359D01*
X71180000Y28413641D02*
X71180000Y28106359D01*
D15*
%TO.C,TP53*%
X4420000Y77500000D02*
X4420000Y73500000D01*
X6820000Y73500000D02*
X6820000Y77500000D01*
X4420000Y73500000D02*
X6820000Y73500000D01*
X6820000Y77500000D02*
X4420000Y77500000D01*
D13*
%TO.C,U14*%
X49250000Y33450000D02*
X68550000Y33450000D01*
X49250000Y52750000D02*
X49250000Y33450000D01*
X68550000Y52750000D02*
X49250000Y52750000D01*
X68550000Y33450000D02*
X68550000Y52750000D01*
D16*
X47800000Y33600000D02*
G75*
G03*
X47800000Y33600000I-125000J0D01*
G01*
D14*
%TO.C,R32*%
X70912742Y76322500D02*
X71387258Y76322500D01*
X70912742Y75277500D02*
X71387258Y75277500D01*
%TO.C,C35*%
X56660000Y55692164D02*
X56660000Y55907836D01*
X55940000Y55692164D02*
X55940000Y55907836D01*
%TO.C,R23*%
X76630000Y49596359D02*
X76630000Y49903641D01*
X75870000Y49596359D02*
X75870000Y49903641D01*
D17*
%TO.C,J20*%
X50070000Y7225000D02*
X59870000Y7225000D01*
X58470000Y12075000D02*
X59870000Y12075000D01*
D13*
X58270000Y12675000D02*
X58270000Y12675000D01*
D17*
X50070000Y12075000D02*
X50070000Y10075000D01*
X59870000Y12075000D02*
X59870000Y10075000D01*
X59870000Y7225000D02*
X59870000Y8075000D01*
X51470000Y12075000D02*
X50070000Y12075000D01*
D13*
X58270000Y12475000D02*
X58270000Y12475000D01*
D17*
X50070000Y8075000D02*
X50070000Y7225000D01*
D13*
X58270000Y12475000D02*
G75*
G03*
X58270000Y12675000I0J100000D01*
G01*
X58270000Y12675000D02*
G75*
G03*
X58270000Y12475000I0J-100000D01*
G01*
D14*
%TO.C,C21*%
X45790580Y52928000D02*
X45509420Y52928000D01*
X45790580Y53948000D02*
X45509420Y53948000D01*
%TO.C,R30*%
X71787258Y76827500D02*
X71312742Y76827500D01*
X71787258Y77872500D02*
X71312742Y77872500D01*
%TO.C,R123*%
X5820000Y78946359D02*
X5820000Y79253641D01*
X6580000Y78946359D02*
X6580000Y79253641D01*
%TO.C,C19*%
X74390000Y64707836D02*
X74390000Y64492164D01*
X75110000Y64707836D02*
X75110000Y64492164D01*
%TO.C,R31*%
X71387258Y72177500D02*
X70912742Y72177500D01*
X71387258Y73222500D02*
X70912742Y73222500D01*
%TO.C,C38*%
X45740580Y33240000D02*
X45459420Y33240000D01*
X45740580Y34260000D02*
X45459420Y34260000D01*
%TO.C,R10*%
X73330000Y35493641D02*
X73330000Y35186359D01*
X74090000Y35493641D02*
X74090000Y35186359D01*
D13*
%TO.C,U11*%
X12280000Y74785000D02*
X12280000Y76312000D01*
X12152000Y76662000D02*
X12152000Y79858000D01*
X7248000Y76662000D02*
X12152000Y76662000D01*
X7248000Y79858000D02*
X7248000Y76662000D01*
X12152000Y79858000D02*
X7248000Y79858000D01*
%TO.C,U13*%
X65950000Y64600000D02*
X63650000Y64600000D01*
X67700000Y64650000D02*
X66300000Y64650000D01*
X63650000Y64600000D02*
X63650000Y61600000D01*
X65950000Y61600000D02*
X65950000Y64600000D01*
X63650000Y61600000D02*
X65950000Y61600000D01*
D14*
%TO.C,U15*%
X69410000Y75100000D02*
X69410000Y76600000D01*
X66190000Y75100000D02*
X66190000Y73600000D01*
X69410000Y75100000D02*
X69410000Y73600000D01*
X66190000Y75100000D02*
X66190000Y78025000D01*
%TO.C,C33*%
X60265000Y30507836D02*
X60265000Y30292164D01*
X60985000Y30507836D02*
X60985000Y30292164D01*
%TO.C,C24*%
X48810000Y56209420D02*
X48810000Y56490580D01*
X47790000Y56209420D02*
X47790000Y56490580D01*
%TO.C,C40*%
X71510000Y40392164D02*
X71510000Y40607836D01*
X70790000Y40392164D02*
X70790000Y40607836D01*
%TO.C,C20*%
X63492164Y65040000D02*
X63707836Y65040000D01*
X63492164Y65760000D02*
X63707836Y65760000D01*
%TO.C,C26*%
X46760000Y38807836D02*
X46760000Y38592164D01*
X46040000Y38807836D02*
X46040000Y38592164D01*
%TO.C,TP52*%
X35900000Y78600000D02*
G75*
G03*
X35900000Y78600000I-700000J0D01*
G01*
%TO.C,C30*%
X44240000Y37140580D02*
X44240000Y36859420D01*
X45260000Y37140580D02*
X45260000Y36859420D01*
%TO.C,C18*%
X9522164Y73660000D02*
X9737836Y73660000D01*
X9522164Y74380000D02*
X9737836Y74380000D01*
%TO.C,G\u002A\u002A\u002A*%
G36*
X20532210Y16395086D02*
G01*
X20532640Y16394471D01*
X20534763Y16391195D01*
X20536664Y16387244D01*
X20538354Y16381775D01*
X20539846Y16373941D01*
X20541151Y16362900D01*
X20542283Y16347806D01*
X20543253Y16327814D01*
X20544075Y16302082D01*
X20544760Y16269763D01*
X20545321Y16230014D01*
X20545771Y16181990D01*
X20546121Y16124847D01*
X20546384Y16057740D01*
X20546573Y15979825D01*
X20546700Y15890257D01*
X20546777Y15788192D01*
X20546816Y15672785D01*
X20546831Y15543193D01*
X20546833Y15398569D01*
X20546833Y14422966D01*
X20512197Y14384000D01*
X20188272Y14384000D01*
X20150415Y14384003D01*
X20080649Y14384051D01*
X20023116Y14384204D01*
X19976543Y14384525D01*
X19939657Y14385074D01*
X19911184Y14385913D01*
X19889852Y14387103D01*
X19874389Y14388704D01*
X19863520Y14390779D01*
X19855974Y14393387D01*
X19850477Y14396591D01*
X19845757Y14400452D01*
X19839664Y14406270D01*
X19831637Y14418343D01*
X19828013Y14435344D01*
X19827167Y14462721D01*
X19827058Y14478840D01*
X19827383Y14494431D01*
X19829379Y14507063D01*
X19834290Y14517059D01*
X19843359Y14524744D01*
X19857831Y14530441D01*
X19878948Y14534475D01*
X19907956Y14537169D01*
X19946097Y14538849D01*
X19994616Y14539837D01*
X20054756Y14540458D01*
X20127761Y14541036D01*
X20398667Y14543290D01*
X20398667Y15335876D01*
X20168730Y15338173D01*
X19938794Y15340469D01*
X19925314Y15359208D01*
X19915977Y15379572D01*
X19911833Y15415875D01*
X19914458Y15445795D01*
X19925314Y15472543D01*
X19938794Y15491282D01*
X20168730Y15493578D01*
X20398667Y15495875D01*
X20398667Y16265188D01*
X20130555Y16265188D01*
X20109588Y16265190D01*
X20044726Y16265242D01*
X19992186Y16265426D01*
X19950574Y16265821D01*
X19918498Y16266505D01*
X19894567Y16267557D01*
X19877387Y16269054D01*
X19865566Y16271074D01*
X19857712Y16273697D01*
X19852431Y16277001D01*
X19848333Y16281063D01*
X19841524Y16290973D01*
X19835848Y16310534D01*
X19834222Y16340594D01*
X19834949Y16362479D01*
X19839208Y16384829D01*
X19848333Y16400125D01*
X19849951Y16401876D01*
X19853988Y16405294D01*
X19859657Y16408111D01*
X19868206Y16410385D01*
X19880882Y16412175D01*
X19898934Y16413538D01*
X19923609Y16414532D01*
X19956156Y16415215D01*
X19997822Y16415646D01*
X20049855Y16415881D01*
X20113504Y16415980D01*
X20190016Y16416000D01*
X20517587Y16416000D01*
X20532210Y16395086D01*
G37*
D18*
X20532210Y16395086D02*
X20532640Y16394471D01*
X20534763Y16391195D01*
X20536664Y16387244D01*
X20538354Y16381775D01*
X20539846Y16373941D01*
X20541151Y16362900D01*
X20542283Y16347806D01*
X20543253Y16327814D01*
X20544075Y16302082D01*
X20544760Y16269763D01*
X20545321Y16230014D01*
X20545771Y16181990D01*
X20546121Y16124847D01*
X20546384Y16057740D01*
X20546573Y15979825D01*
X20546700Y15890257D01*
X20546777Y15788192D01*
X20546816Y15672785D01*
X20546831Y15543193D01*
X20546833Y15398569D01*
X20546833Y14422966D01*
X20512197Y14384000D01*
X20188272Y14384000D01*
X20150415Y14384003D01*
X20080649Y14384051D01*
X20023116Y14384204D01*
X19976543Y14384525D01*
X19939657Y14385074D01*
X19911184Y14385913D01*
X19889852Y14387103D01*
X19874389Y14388704D01*
X19863520Y14390779D01*
X19855974Y14393387D01*
X19850477Y14396591D01*
X19845757Y14400452D01*
X19839664Y14406270D01*
X19831637Y14418343D01*
X19828013Y14435344D01*
X19827167Y14462721D01*
X19827058Y14478840D01*
X19827383Y14494431D01*
X19829379Y14507063D01*
X19834290Y14517059D01*
X19843359Y14524744D01*
X19857831Y14530441D01*
X19878948Y14534475D01*
X19907956Y14537169D01*
X19946097Y14538849D01*
X19994616Y14539837D01*
X20054756Y14540458D01*
X20127761Y14541036D01*
X20398667Y14543290D01*
X20398667Y15335876D01*
X20168730Y15338173D01*
X19938794Y15340469D01*
X19925314Y15359208D01*
X19915977Y15379572D01*
X19911833Y15415875D01*
X19914458Y15445795D01*
X19925314Y15472543D01*
X19938794Y15491282D01*
X20168730Y15493578D01*
X20398667Y15495875D01*
X20398667Y16265188D01*
X20130555Y16265188D01*
X20109588Y16265190D01*
X20044726Y16265242D01*
X19992186Y16265426D01*
X19950574Y16265821D01*
X19918498Y16266505D01*
X19894567Y16267557D01*
X19877387Y16269054D01*
X19865566Y16271074D01*
X19857712Y16273697D01*
X19852431Y16277001D01*
X19848333Y16281063D01*
X19841524Y16290973D01*
X19835848Y16310534D01*
X19834222Y16340594D01*
X19834949Y16362479D01*
X19839208Y16384829D01*
X19848333Y16400125D01*
X19849951Y16401876D01*
X19853988Y16405294D01*
X19859657Y16408111D01*
X19868206Y16410385D01*
X19880882Y16412175D01*
X19898934Y16413538D01*
X19923609Y16414532D01*
X19956156Y16415215D01*
X19997822Y16415646D01*
X20049855Y16415881D01*
X20113504Y16415980D01*
X20190016Y16416000D01*
X20517587Y16416000D01*
X20532210Y16395086D01*
G36*
X26569089Y16434920D02*
G01*
X26635420Y16420189D01*
X26698153Y16396839D01*
X26754017Y16366097D01*
X26799740Y16329192D01*
X26820253Y16304285D01*
X26845107Y16263826D01*
X26867738Y16216819D01*
X26885783Y16168277D01*
X26896877Y16123214D01*
X26899412Y16100439D01*
X26901590Y16062963D01*
X26903038Y16016185D01*
X26903773Y15963252D01*
X26903815Y15907308D01*
X26903183Y15851499D01*
X26901895Y15798970D01*
X26899971Y15752866D01*
X26897430Y15716334D01*
X26894290Y15692518D01*
X26882536Y15650512D01*
X26854456Y15592847D01*
X26814042Y15542871D01*
X26805780Y15534833D01*
X26794098Y15524169D01*
X26780951Y15513260D01*
X26764978Y15501182D01*
X26744816Y15487008D01*
X26719102Y15469813D01*
X26686473Y15448672D01*
X26645567Y15422660D01*
X26595021Y15390849D01*
X26533472Y15352316D01*
X26506862Y15335618D01*
X26444422Y15295701D01*
X26392987Y15261359D01*
X26351373Y15231512D01*
X26318391Y15205079D01*
X26292858Y15180980D01*
X26273587Y15158135D01*
X26259392Y15135462D01*
X26249087Y15111883D01*
X26241487Y15086316D01*
X26240668Y15082565D01*
X26237362Y15056007D01*
X26235055Y15017709D01*
X26233719Y14971053D01*
X26233326Y14919426D01*
X26233850Y14866210D01*
X26235262Y14814790D01*
X26237537Y14768551D01*
X26240645Y14730877D01*
X26244561Y14705153D01*
X26248969Y14687661D01*
X26269262Y14632262D01*
X26297098Y14588481D01*
X26333369Y14555662D01*
X26378969Y14533150D01*
X26434789Y14520290D01*
X26501722Y14516428D01*
X26521991Y14516874D01*
X26575633Y14522495D01*
X26619606Y14535280D01*
X26656494Y14556193D01*
X26688880Y14586198D01*
X26694545Y14592687D01*
X26711084Y14613835D01*
X26724158Y14635673D01*
X26734222Y14660369D01*
X26741732Y14690093D01*
X26747143Y14727014D01*
X26750911Y14773300D01*
X26753492Y14831120D01*
X26755340Y14902643D01*
X26755803Y14924922D01*
X26757010Y14979471D01*
X26758181Y15020881D01*
X26759522Y15051179D01*
X26761236Y15072396D01*
X26763527Y15086561D01*
X26766600Y15095702D01*
X26770658Y15101850D01*
X26775907Y15107034D01*
X26785167Y15113452D01*
X26810581Y15121557D01*
X26839822Y15122768D01*
X26867334Y15117191D01*
X26887559Y15104929D01*
X26889405Y15102959D01*
X26894146Y15097097D01*
X26897718Y15089809D01*
X26900284Y15079030D01*
X26902009Y15062697D01*
X26903056Y15038746D01*
X26903589Y15005111D01*
X26903771Y14959731D01*
X26903766Y14900539D01*
X26903701Y14872603D01*
X26902926Y14802562D01*
X26901067Y14745129D01*
X26897856Y14697901D01*
X26893025Y14658473D01*
X26886307Y14624442D01*
X26877434Y14593403D01*
X26866137Y14562953D01*
X26857780Y14544198D01*
X26823304Y14489563D01*
X26777736Y14444426D01*
X26721368Y14408985D01*
X26654494Y14383437D01*
X26577406Y14367979D01*
X26561613Y14366343D01*
X26508945Y14364418D01*
X26450894Y14366431D01*
X26393542Y14372046D01*
X26342972Y14380929D01*
X26294518Y14395730D01*
X26235255Y14426460D01*
X26185535Y14468849D01*
X26145504Y14522733D01*
X26115307Y14587944D01*
X26095090Y14664317D01*
X26094736Y14666258D01*
X26091321Y14689725D01*
X26088842Y14718013D01*
X26087231Y14753330D01*
X26086416Y14797884D01*
X26086329Y14853882D01*
X26086899Y14923535D01*
X26087709Y14982805D01*
X26089122Y15041239D01*
X26091415Y15088020D01*
X26095010Y15125452D01*
X26100329Y15155836D01*
X26107795Y15181476D01*
X26117829Y15204674D01*
X26130853Y15227733D01*
X26147291Y15252955D01*
X26155632Y15264844D01*
X26172660Y15286296D01*
X26192554Y15307375D01*
X26216704Y15329153D01*
X26246504Y15352702D01*
X26283343Y15379092D01*
X26328616Y15409396D01*
X26383713Y15444686D01*
X26450026Y15486032D01*
X26494019Y15513185D01*
X26555374Y15551226D01*
X26606133Y15583581D01*
X26647313Y15611610D01*
X26679930Y15636674D01*
X26704999Y15660131D01*
X26723536Y15683342D01*
X26736557Y15707667D01*
X26745078Y15734466D01*
X26750116Y15765099D01*
X26752685Y15800926D01*
X26753802Y15843306D01*
X26754482Y15893600D01*
X26754945Y15948450D01*
X26754147Y16007807D01*
X26751447Y16055853D01*
X26746498Y16095132D01*
X26738954Y16128189D01*
X26728468Y16157568D01*
X26714694Y16185813D01*
X26697548Y16211090D01*
X26661654Y16243938D01*
X26615902Y16268423D01*
X26561995Y16283718D01*
X26501639Y16289000D01*
X26492950Y16289162D01*
X26464491Y16293838D01*
X26446617Y16306676D01*
X26437345Y16329951D01*
X26434694Y16365941D01*
X26434760Y16371913D01*
X26438934Y16404395D01*
X26450874Y16425305D01*
X26472344Y16436494D01*
X26505107Y16439813D01*
X26569089Y16434920D01*
G37*
X26569089Y16434920D02*
X26635420Y16420189D01*
X26698153Y16396839D01*
X26754017Y16366097D01*
X26799740Y16329192D01*
X26820253Y16304285D01*
X26845107Y16263826D01*
X26867738Y16216819D01*
X26885783Y16168277D01*
X26896877Y16123214D01*
X26899412Y16100439D01*
X26901590Y16062963D01*
X26903038Y16016185D01*
X26903773Y15963252D01*
X26903815Y15907308D01*
X26903183Y15851499D01*
X26901895Y15798970D01*
X26899971Y15752866D01*
X26897430Y15716334D01*
X26894290Y15692518D01*
X26882536Y15650512D01*
X26854456Y15592847D01*
X26814042Y15542871D01*
X26805780Y15534833D01*
X26794098Y15524169D01*
X26780951Y15513260D01*
X26764978Y15501182D01*
X26744816Y15487008D01*
X26719102Y15469813D01*
X26686473Y15448672D01*
X26645567Y15422660D01*
X26595021Y15390849D01*
X26533472Y15352316D01*
X26506862Y15335618D01*
X26444422Y15295701D01*
X26392987Y15261359D01*
X26351373Y15231512D01*
X26318391Y15205079D01*
X26292858Y15180980D01*
X26273587Y15158135D01*
X26259392Y15135462D01*
X26249087Y15111883D01*
X26241487Y15086316D01*
X26240668Y15082565D01*
X26237362Y15056007D01*
X26235055Y15017709D01*
X26233719Y14971053D01*
X26233326Y14919426D01*
X26233850Y14866210D01*
X26235262Y14814790D01*
X26237537Y14768551D01*
X26240645Y14730877D01*
X26244561Y14705153D01*
X26248969Y14687661D01*
X26269262Y14632262D01*
X26297098Y14588481D01*
X26333369Y14555662D01*
X26378969Y14533150D01*
X26434789Y14520290D01*
X26501722Y14516428D01*
X26521991Y14516874D01*
X26575633Y14522495D01*
X26619606Y14535280D01*
X26656494Y14556193D01*
X26688880Y14586198D01*
X26694545Y14592687D01*
X26711084Y14613835D01*
X26724158Y14635673D01*
X26734222Y14660369D01*
X26741732Y14690093D01*
X26747143Y14727014D01*
X26750911Y14773300D01*
X26753492Y14831120D01*
X26755340Y14902643D01*
X26755803Y14924922D01*
X26757010Y14979471D01*
X26758181Y15020881D01*
X26759522Y15051179D01*
X26761236Y15072396D01*
X26763527Y15086561D01*
X26766600Y15095702D01*
X26770658Y15101850D01*
X26775907Y15107034D01*
X26785167Y15113452D01*
X26810581Y15121557D01*
X26839822Y15122768D01*
X26867334Y15117191D01*
X26887559Y15104929D01*
X26889405Y15102959D01*
X26894146Y15097097D01*
X26897718Y15089809D01*
X26900284Y15079030D01*
X26902009Y15062697D01*
X26903056Y15038746D01*
X26903589Y15005111D01*
X26903771Y14959731D01*
X26903766Y14900539D01*
X26903701Y14872603D01*
X26902926Y14802562D01*
X26901067Y14745129D01*
X26897856Y14697901D01*
X26893025Y14658473D01*
X26886307Y14624442D01*
X26877434Y14593403D01*
X26866137Y14562953D01*
X26857780Y14544198D01*
X26823304Y14489563D01*
X26777736Y14444426D01*
X26721368Y14408985D01*
X26654494Y14383437D01*
X26577406Y14367979D01*
X26561613Y14366343D01*
X26508945Y14364418D01*
X26450894Y14366431D01*
X26393542Y14372046D01*
X26342972Y14380929D01*
X26294518Y14395730D01*
X26235255Y14426460D01*
X26185535Y14468849D01*
X26145504Y14522733D01*
X26115307Y14587944D01*
X26095090Y14664317D01*
X26094736Y14666258D01*
X26091321Y14689725D01*
X26088842Y14718013D01*
X26087231Y14753330D01*
X26086416Y14797884D01*
X26086329Y14853882D01*
X26086899Y14923535D01*
X26087709Y14982805D01*
X26089122Y15041239D01*
X26091415Y15088020D01*
X26095010Y15125452D01*
X26100329Y15155836D01*
X26107795Y15181476D01*
X26117829Y15204674D01*
X26130853Y15227733D01*
X26147291Y15252955D01*
X26155632Y15264844D01*
X26172660Y15286296D01*
X26192554Y15307375D01*
X26216704Y15329153D01*
X26246504Y15352702D01*
X26283343Y15379092D01*
X26328616Y15409396D01*
X26383713Y15444686D01*
X26450026Y15486032D01*
X26494019Y15513185D01*
X26555374Y15551226D01*
X26606133Y15583581D01*
X26647313Y15611610D01*
X26679930Y15636674D01*
X26704999Y15660131D01*
X26723536Y15683342D01*
X26736557Y15707667D01*
X26745078Y15734466D01*
X26750116Y15765099D01*
X26752685Y15800926D01*
X26753802Y15843306D01*
X26754482Y15893600D01*
X26754945Y15948450D01*
X26754147Y16007807D01*
X26751447Y16055853D01*
X26746498Y16095132D01*
X26738954Y16128189D01*
X26728468Y16157568D01*
X26714694Y16185813D01*
X26697548Y16211090D01*
X26661654Y16243938D01*
X26615902Y16268423D01*
X26561995Y16283718D01*
X26501639Y16289000D01*
X26492950Y16289162D01*
X26464491Y16293838D01*
X26446617Y16306676D01*
X26437345Y16329951D01*
X26434694Y16365941D01*
X26434760Y16371913D01*
X26438934Y16404395D01*
X26450874Y16425305D01*
X26472344Y16436494D01*
X26505107Y16439813D01*
X26569089Y16434920D01*
G36*
X21814983Y16435116D02*
G01*
X21852962Y16430916D01*
X21887027Y16425684D01*
X21912083Y16420120D01*
X21943682Y16409446D01*
X22007187Y16377312D01*
X22060940Y16334015D01*
X22104502Y16280051D01*
X22137434Y16215913D01*
X22159296Y16142095D01*
X22160888Y16133160D01*
X22162556Y16119954D01*
X22163995Y16102961D01*
X22165217Y16081174D01*
X22166233Y16053587D01*
X22167056Y16019191D01*
X22167695Y15976979D01*
X22168164Y15925945D01*
X22168473Y15865080D01*
X22168634Y15793377D01*
X22168659Y15709829D01*
X22168558Y15613428D01*
X22168345Y15503167D01*
X22168029Y15378039D01*
X22166083Y14665782D01*
X22150334Y14613693D01*
X22125284Y14550400D01*
X22088241Y14492518D01*
X22040830Y14445333D01*
X21983135Y14408910D01*
X21915239Y14383313D01*
X21837226Y14368608D01*
X21825888Y14367471D01*
X21765849Y14364864D01*
X21703558Y14367067D01*
X21644333Y14373735D01*
X21593496Y14384520D01*
X21573007Y14390841D01*
X21509880Y14418486D01*
X21457371Y14456041D01*
X21414553Y14504489D01*
X21380497Y14564814D01*
X21354274Y14638000D01*
X21352491Y14644745D01*
X21349096Y14661443D01*
X21346364Y14682202D01*
X21344186Y14708989D01*
X21342453Y14743775D01*
X21341055Y14788528D01*
X21339882Y14845217D01*
X21338826Y14915813D01*
X21338573Y14935008D01*
X21337786Y14998221D01*
X21337337Y15047897D01*
X21337312Y15085884D01*
X21337800Y15114029D01*
X21338889Y15134180D01*
X21340667Y15148185D01*
X21343222Y15157891D01*
X21346642Y15165146D01*
X21351015Y15171797D01*
X21359531Y15182533D01*
X21370206Y15189778D01*
X21385991Y15192934D01*
X21411376Y15193625D01*
X21412917Y15193627D01*
X21432620Y15193555D01*
X21448297Y15192206D01*
X21460429Y15187955D01*
X21469501Y15179184D01*
X21475995Y15164269D01*
X21480395Y15141591D01*
X21483183Y15109526D01*
X21484842Y15066455D01*
X21485857Y15010756D01*
X21486709Y14940807D01*
X21487164Y14904067D01*
X21488006Y14846356D01*
X21488965Y14801229D01*
X21490194Y14766543D01*
X21491847Y14740153D01*
X21494079Y14719914D01*
X21497041Y14703682D01*
X21500889Y14689314D01*
X21505775Y14674665D01*
X21523059Y14633969D01*
X21551549Y14590779D01*
X21587719Y14558400D01*
X21632699Y14536123D01*
X21687621Y14523237D01*
X21753615Y14519032D01*
X21755958Y14519033D01*
X21821442Y14523203D01*
X21875842Y14535771D01*
X21920314Y14557290D01*
X21956014Y14588314D01*
X21984098Y14629395D01*
X21987070Y14634975D01*
X21993786Y14647925D01*
X21999658Y14660548D01*
X22004742Y14673927D01*
X22009095Y14689140D01*
X22012775Y14707268D01*
X22015837Y14729391D01*
X22018338Y14756589D01*
X22020335Y14789941D01*
X22021885Y14830529D01*
X22023044Y14879431D01*
X22023870Y14937728D01*
X22024418Y15006500D01*
X22024745Y15086827D01*
X22024909Y15179789D01*
X22024966Y15286466D01*
X22024972Y15407938D01*
X22024972Y16054844D01*
X22009248Y16111081D01*
X22007575Y16116900D01*
X21986536Y16170552D01*
X21957873Y16212792D01*
X21920327Y16244720D01*
X21872640Y16267434D01*
X21813552Y16282035D01*
X21802583Y16283695D01*
X21743583Y16286893D01*
X21686502Y16280957D01*
X21634099Y16266597D01*
X21589131Y16244520D01*
X21554358Y16215437D01*
X21539961Y16197792D01*
X21523127Y16171155D01*
X21509940Y16140605D01*
X21500014Y16104160D01*
X21492965Y16059839D01*
X21488406Y16005659D01*
X21485954Y15939639D01*
X21485222Y15859797D01*
X21485178Y15814218D01*
X21484643Y15762753D01*
X21482950Y15724048D01*
X21479434Y15696284D01*
X21473426Y15677644D01*
X21464260Y15666310D01*
X21451268Y15660464D01*
X21433783Y15658290D01*
X21411139Y15657969D01*
X21408059Y15657969D01*
X21386767Y15658313D01*
X21370222Y15660516D01*
X21357830Y15666330D01*
X21348993Y15677506D01*
X21343117Y15695796D01*
X21339605Y15722953D01*
X21337863Y15760729D01*
X21337293Y15810876D01*
X21337302Y15875145D01*
X21337331Y15888159D01*
X21338164Y15965437D01*
X21340300Y16029526D01*
X21344017Y16082722D01*
X21349590Y16127323D01*
X21357295Y16165628D01*
X21367408Y16199933D01*
X21380205Y16232537D01*
X21399705Y16270621D01*
X21440269Y16324944D01*
X21491104Y16368920D01*
X21551782Y16402335D01*
X21621877Y16424976D01*
X21700962Y16436628D01*
X21788611Y16437078D01*
X21814983Y16435116D01*
G37*
X21814983Y16435116D02*
X21852962Y16430916D01*
X21887027Y16425684D01*
X21912083Y16420120D01*
X21943682Y16409446D01*
X22007187Y16377312D01*
X22060940Y16334015D01*
X22104502Y16280051D01*
X22137434Y16215913D01*
X22159296Y16142095D01*
X22160888Y16133160D01*
X22162556Y16119954D01*
X22163995Y16102961D01*
X22165217Y16081174D01*
X22166233Y16053587D01*
X22167056Y16019191D01*
X22167695Y15976979D01*
X22168164Y15925945D01*
X22168473Y15865080D01*
X22168634Y15793377D01*
X22168659Y15709829D01*
X22168558Y15613428D01*
X22168345Y15503167D01*
X22168029Y15378039D01*
X22166083Y14665782D01*
X22150334Y14613693D01*
X22125284Y14550400D01*
X22088241Y14492518D01*
X22040830Y14445333D01*
X21983135Y14408910D01*
X21915239Y14383313D01*
X21837226Y14368608D01*
X21825888Y14367471D01*
X21765849Y14364864D01*
X21703558Y14367067D01*
X21644333Y14373735D01*
X21593496Y14384520D01*
X21573007Y14390841D01*
X21509880Y14418486D01*
X21457371Y14456041D01*
X21414553Y14504489D01*
X21380497Y14564814D01*
X21354274Y14638000D01*
X21352491Y14644745D01*
X21349096Y14661443D01*
X21346364Y14682202D01*
X21344186Y14708989D01*
X21342453Y14743775D01*
X21341055Y14788528D01*
X21339882Y14845217D01*
X21338826Y14915813D01*
X21338573Y14935008D01*
X21337786Y14998221D01*
X21337337Y15047897D01*
X21337312Y15085884D01*
X21337800Y15114029D01*
X21338889Y15134180D01*
X21340667Y15148185D01*
X21343222Y15157891D01*
X21346642Y15165146D01*
X21351015Y15171797D01*
X21359531Y15182533D01*
X21370206Y15189778D01*
X21385991Y15192934D01*
X21411376Y15193625D01*
X21412917Y15193627D01*
X21432620Y15193555D01*
X21448297Y15192206D01*
X21460429Y15187955D01*
X21469501Y15179184D01*
X21475995Y15164269D01*
X21480395Y15141591D01*
X21483183Y15109526D01*
X21484842Y15066455D01*
X21485857Y15010756D01*
X21486709Y14940807D01*
X21487164Y14904067D01*
X21488006Y14846356D01*
X21488965Y14801229D01*
X21490194Y14766543D01*
X21491847Y14740153D01*
X21494079Y14719914D01*
X21497041Y14703682D01*
X21500889Y14689314D01*
X21505775Y14674665D01*
X21523059Y14633969D01*
X21551549Y14590779D01*
X21587719Y14558400D01*
X21632699Y14536123D01*
X21687621Y14523237D01*
X21753615Y14519032D01*
X21755958Y14519033D01*
X21821442Y14523203D01*
X21875842Y14535771D01*
X21920314Y14557290D01*
X21956014Y14588314D01*
X21984098Y14629395D01*
X21987070Y14634975D01*
X21993786Y14647925D01*
X21999658Y14660548D01*
X22004742Y14673927D01*
X22009095Y14689140D01*
X22012775Y14707268D01*
X22015837Y14729391D01*
X22018338Y14756589D01*
X22020335Y14789941D01*
X22021885Y14830529D01*
X22023044Y14879431D01*
X22023870Y14937728D01*
X22024418Y15006500D01*
X22024745Y15086827D01*
X22024909Y15179789D01*
X22024966Y15286466D01*
X22024972Y15407938D01*
X22024972Y16054844D01*
X22009248Y16111081D01*
X22007575Y16116900D01*
X21986536Y16170552D01*
X21957873Y16212792D01*
X21920327Y16244720D01*
X21872640Y16267434D01*
X21813552Y16282035D01*
X21802583Y16283695D01*
X21743583Y16286893D01*
X21686502Y16280957D01*
X21634099Y16266597D01*
X21589131Y16244520D01*
X21554358Y16215437D01*
X21539961Y16197792D01*
X21523127Y16171155D01*
X21509940Y16140605D01*
X21500014Y16104160D01*
X21492965Y16059839D01*
X21488406Y16005659D01*
X21485954Y15939639D01*
X21485222Y15859797D01*
X21485178Y15814218D01*
X21484643Y15762753D01*
X21482950Y15724048D01*
X21479434Y15696284D01*
X21473426Y15677644D01*
X21464260Y15666310D01*
X21451268Y15660464D01*
X21433783Y15658290D01*
X21411139Y15657969D01*
X21408059Y15657969D01*
X21386767Y15658313D01*
X21370222Y15660516D01*
X21357830Y15666330D01*
X21348993Y15677506D01*
X21343117Y15695796D01*
X21339605Y15722953D01*
X21337863Y15760729D01*
X21337293Y15810876D01*
X21337302Y15875145D01*
X21337331Y15888159D01*
X21338164Y15965437D01*
X21340300Y16029526D01*
X21344017Y16082722D01*
X21349590Y16127323D01*
X21357295Y16165628D01*
X21367408Y16199933D01*
X21380205Y16232537D01*
X21399705Y16270621D01*
X21440269Y16324944D01*
X21491104Y16368920D01*
X21551782Y16402335D01*
X21621877Y16424976D01*
X21700962Y16436628D01*
X21788611Y16437078D01*
X21814983Y16435116D01*
G36*
X19047109Y14402652D02*
G01*
X19029052Y14382337D01*
X18784290Y14385977D01*
X18780455Y14386034D01*
X18714550Y14387095D01*
X18660934Y14388182D01*
X18617876Y14389414D01*
X18583645Y14390909D01*
X18556511Y14392787D01*
X18534743Y14395164D01*
X18516609Y14398160D01*
X18500379Y14401892D01*
X18484321Y14406479D01*
X18464797Y14412918D01*
X18399308Y14443034D01*
X18344898Y14482938D01*
X18301514Y14532680D01*
X18269100Y14592307D01*
X18263124Y14606597D01*
X18256989Y14621738D01*
X18251639Y14636424D01*
X18247020Y14651746D01*
X18243079Y14668790D01*
X18239761Y14688646D01*
X18237013Y14712402D01*
X18234782Y14741147D01*
X18233014Y14775969D01*
X18231654Y14817957D01*
X18230650Y14868200D01*
X18229948Y14927787D01*
X18229493Y14997805D01*
X18229233Y15079344D01*
X18229114Y15173492D01*
X18229082Y15281337D01*
X18229083Y15403969D01*
X18229086Y15455795D01*
X18229123Y15569620D01*
X18229166Y15615624D01*
X18374638Y15615624D01*
X18374770Y15499655D01*
X18375134Y15368250D01*
X18375209Y15346524D01*
X18375597Y15235988D01*
X18375968Y15140002D01*
X18376352Y15057448D01*
X18376778Y14987204D01*
X18377277Y14928150D01*
X18377878Y14879166D01*
X18378611Y14839133D01*
X18379507Y14806928D01*
X18380596Y14781434D01*
X18381907Y14761528D01*
X18383471Y14746090D01*
X18385317Y14734002D01*
X18387476Y14724141D01*
X18389977Y14715389D01*
X18392850Y14706624D01*
X18395131Y14700003D01*
X18419561Y14646034D01*
X18450880Y14604972D01*
X18490795Y14575063D01*
X18541013Y14554555D01*
X18551498Y14551919D01*
X18573433Y14548351D01*
X18602397Y14545750D01*
X18640159Y14544017D01*
X18688487Y14543050D01*
X18749149Y14542750D01*
X18917000Y14542750D01*
X18917000Y16265188D01*
X18770597Y16265128D01*
X18765599Y16265121D01*
X18718133Y16264608D01*
X18672645Y16263377D01*
X18632167Y16261561D01*
X18599733Y16259293D01*
X18578376Y16256705D01*
X18545234Y16249059D01*
X18492887Y16227904D01*
X18451090Y16196808D01*
X18419032Y16154861D01*
X18395907Y16101157D01*
X18380906Y16034785D01*
X18380532Y16032045D01*
X18378933Y16011849D01*
X18377592Y15979286D01*
X18376507Y15933918D01*
X18375672Y15875305D01*
X18375085Y15803011D01*
X18374742Y15716597D01*
X18374638Y15615624D01*
X18229166Y15615624D01*
X18229217Y15669073D01*
X18229385Y15755217D01*
X18229645Y15829114D01*
X18230016Y15891826D01*
X18230515Y15944415D01*
X18231159Y15987943D01*
X18231968Y16023472D01*
X18232958Y16052064D01*
X18234147Y16074781D01*
X18235554Y16092686D01*
X18237196Y16106840D01*
X18239091Y16118306D01*
X18241257Y16128144D01*
X18249103Y16156860D01*
X18276261Y16226231D01*
X18312666Y16284212D01*
X18359012Y16331573D01*
X18415991Y16369082D01*
X18484297Y16397507D01*
X18488166Y16398709D01*
X18502174Y16402173D01*
X18519538Y16405024D01*
X18541796Y16407347D01*
X18570482Y16409227D01*
X18607134Y16410751D01*
X18653288Y16412005D01*
X18710481Y16413074D01*
X18780248Y16414044D01*
X19035080Y16417203D01*
X19050123Y16395687D01*
X19065167Y16374172D01*
X19065167Y14422966D01*
X19047109Y14402652D01*
G37*
X19047109Y14402652D02*
X19029052Y14382337D01*
X18784290Y14385977D01*
X18780455Y14386034D01*
X18714550Y14387095D01*
X18660934Y14388182D01*
X18617876Y14389414D01*
X18583645Y14390909D01*
X18556511Y14392787D01*
X18534743Y14395164D01*
X18516609Y14398160D01*
X18500379Y14401892D01*
X18484321Y14406479D01*
X18464797Y14412918D01*
X18399308Y14443034D01*
X18344898Y14482938D01*
X18301514Y14532680D01*
X18269100Y14592307D01*
X18263124Y14606597D01*
X18256989Y14621738D01*
X18251639Y14636424D01*
X18247020Y14651746D01*
X18243079Y14668790D01*
X18239761Y14688646D01*
X18237013Y14712402D01*
X18234782Y14741147D01*
X18233014Y14775969D01*
X18231654Y14817957D01*
X18230650Y14868200D01*
X18229948Y14927787D01*
X18229493Y14997805D01*
X18229233Y15079344D01*
X18229114Y15173492D01*
X18229082Y15281337D01*
X18229083Y15403969D01*
X18229086Y15455795D01*
X18229123Y15569620D01*
X18229166Y15615624D01*
X18374638Y15615624D01*
X18374770Y15499655D01*
X18375134Y15368250D01*
X18375209Y15346524D01*
X18375597Y15235988D01*
X18375968Y15140002D01*
X18376352Y15057448D01*
X18376778Y14987204D01*
X18377277Y14928150D01*
X18377878Y14879166D01*
X18378611Y14839133D01*
X18379507Y14806928D01*
X18380596Y14781434D01*
X18381907Y14761528D01*
X18383471Y14746090D01*
X18385317Y14734002D01*
X18387476Y14724141D01*
X18389977Y14715389D01*
X18392850Y14706624D01*
X18395131Y14700003D01*
X18419561Y14646034D01*
X18450880Y14604972D01*
X18490795Y14575063D01*
X18541013Y14554555D01*
X18551498Y14551919D01*
X18573433Y14548351D01*
X18602397Y14545750D01*
X18640159Y14544017D01*
X18688487Y14543050D01*
X18749149Y14542750D01*
X18917000Y14542750D01*
X18917000Y16265188D01*
X18770597Y16265128D01*
X18765599Y16265121D01*
X18718133Y16264608D01*
X18672645Y16263377D01*
X18632167Y16261561D01*
X18599733Y16259293D01*
X18578376Y16256705D01*
X18545234Y16249059D01*
X18492887Y16227904D01*
X18451090Y16196808D01*
X18419032Y16154861D01*
X18395907Y16101157D01*
X18380906Y16034785D01*
X18380532Y16032045D01*
X18378933Y16011849D01*
X18377592Y15979286D01*
X18376507Y15933918D01*
X18375672Y15875305D01*
X18375085Y15803011D01*
X18374742Y15716597D01*
X18374638Y15615624D01*
X18229166Y15615624D01*
X18229217Y15669073D01*
X18229385Y15755217D01*
X18229645Y15829114D01*
X18230016Y15891826D01*
X18230515Y15944415D01*
X18231159Y15987943D01*
X18231968Y16023472D01*
X18232958Y16052064D01*
X18234147Y16074781D01*
X18235554Y16092686D01*
X18237196Y16106840D01*
X18239091Y16118306D01*
X18241257Y16128144D01*
X18249103Y16156860D01*
X18276261Y16226231D01*
X18312666Y16284212D01*
X18359012Y16331573D01*
X18415991Y16369082D01*
X18484297Y16397507D01*
X18488166Y16398709D01*
X18502174Y16402173D01*
X18519538Y16405024D01*
X18541796Y16407347D01*
X18570482Y16409227D01*
X18607134Y16410751D01*
X18653288Y16412005D01*
X18710481Y16413074D01*
X18780248Y16414044D01*
X19035080Y16417203D01*
X19050123Y16395687D01*
X19065167Y16374172D01*
X19065167Y14422966D01*
X19047109Y14402652D01*
G36*
X28551843Y16317204D02*
G01*
X28590727Y16304818D01*
X28625312Y16280859D01*
X28653010Y16245232D01*
X28659964Y16231659D01*
X28671753Y16202469D01*
X28678488Y16177027D01*
X28680220Y16146846D01*
X28672894Y16100020D01*
X28654944Y16056481D01*
X28628126Y16020029D01*
X28594194Y15994462D01*
X28578079Y15987623D01*
X28536711Y15979875D01*
X28494082Y15983380D01*
X28454433Y15997474D01*
X28422007Y16021489D01*
X28400284Y16051099D01*
X28382604Y16094939D01*
X28375492Y16143053D01*
X28379455Y16191401D01*
X28395003Y16235943D01*
X28405123Y16252874D01*
X28435301Y16285851D01*
X28471539Y16307627D01*
X28511250Y16318109D01*
X28551843Y16317204D01*
G37*
X28551843Y16317204D02*
X28590727Y16304818D01*
X28625312Y16280859D01*
X28653010Y16245232D01*
X28659964Y16231659D01*
X28671753Y16202469D01*
X28678488Y16177027D01*
X28680220Y16146846D01*
X28672894Y16100020D01*
X28654944Y16056481D01*
X28628126Y16020029D01*
X28594194Y15994462D01*
X28578079Y15987623D01*
X28536711Y15979875D01*
X28494082Y15983380D01*
X28454433Y15997474D01*
X28422007Y16021489D01*
X28400284Y16051099D01*
X28382604Y16094939D01*
X28375492Y16143053D01*
X28379455Y16191401D01*
X28395003Y16235943D01*
X28405123Y16252874D01*
X28435301Y16285851D01*
X28471539Y16307627D01*
X28511250Y16318109D01*
X28551843Y16317204D01*
G36*
X29276397Y15710031D02*
G01*
X29330842Y15684198D01*
X29380115Y15646164D01*
X29422409Y15596671D01*
X29455917Y15536464D01*
X29458358Y15530814D01*
X29466233Y15510651D01*
X29471278Y15491779D01*
X29474114Y15469906D01*
X29475361Y15440743D01*
X29475639Y15400000D01*
X29475627Y15388672D01*
X29475168Y15351176D01*
X29473588Y15324204D01*
X29470266Y15303467D01*
X29464582Y15284675D01*
X29455917Y15263537D01*
X29443645Y15238384D01*
X29407934Y15184742D01*
X29364129Y15139330D01*
X29314956Y15104698D01*
X29263141Y15083392D01*
X29236659Y15077856D01*
X29175513Y15075678D01*
X29116038Y15087458D01*
X29060260Y15112147D01*
X29010204Y15148695D01*
X28967893Y15196056D01*
X28935353Y15253179D01*
X28919905Y15295550D01*
X28906829Y15362785D01*
X28906428Y15430031D01*
X28918062Y15495224D01*
X28941090Y15556298D01*
X28974870Y15611186D01*
X29018763Y15657824D01*
X29072128Y15694146D01*
X29100095Y15706904D01*
X29159216Y15722127D01*
X29218585Y15722921D01*
X29276397Y15710031D01*
G37*
X29276397Y15710031D02*
X29330842Y15684198D01*
X29380115Y15646164D01*
X29422409Y15596671D01*
X29455917Y15536464D01*
X29458358Y15530814D01*
X29466233Y15510651D01*
X29471278Y15491779D01*
X29474114Y15469906D01*
X29475361Y15440743D01*
X29475639Y15400000D01*
X29475627Y15388672D01*
X29475168Y15351176D01*
X29473588Y15324204D01*
X29470266Y15303467D01*
X29464582Y15284675D01*
X29455917Y15263537D01*
X29443645Y15238384D01*
X29407934Y15184742D01*
X29364129Y15139330D01*
X29314956Y15104698D01*
X29263141Y15083392D01*
X29236659Y15077856D01*
X29175513Y15075678D01*
X29116038Y15087458D01*
X29060260Y15112147D01*
X29010204Y15148695D01*
X28967893Y15196056D01*
X28935353Y15253179D01*
X28919905Y15295550D01*
X28906829Y15362785D01*
X28906428Y15430031D01*
X28918062Y15495224D01*
X28941090Y15556298D01*
X28974870Y15611186D01*
X29018763Y15657824D01*
X29072128Y15694146D01*
X29100095Y15706904D01*
X29159216Y15722127D01*
X29218585Y15722921D01*
X29276397Y15710031D01*
G36*
X25221083Y16415405D02*
G01*
X25243840Y16414624D01*
X25260015Y16413275D01*
X25271040Y16411289D01*
X25278351Y16408595D01*
X25283382Y16405122D01*
X25287567Y16400800D01*
X25289934Y16398018D01*
X25293513Y16392526D01*
X25296324Y16384915D01*
X25298460Y16373466D01*
X25300013Y16356458D01*
X25301075Y16332173D01*
X25301740Y16298892D01*
X25302101Y16254893D01*
X25302249Y16198459D01*
X25302278Y16127869D01*
X25302203Y16072488D01*
X25301818Y16006148D01*
X25301075Y15953791D01*
X25299938Y15914306D01*
X25298372Y15886580D01*
X25296341Y15869502D01*
X25293811Y15861963D01*
X25283621Y15857212D01*
X25261497Y15853703D01*
X25230711Y15852438D01*
X25218146Y15852408D01*
X25198459Y15852864D01*
X25183281Y15855441D01*
X25172027Y15861857D01*
X25164112Y15873832D01*
X25158950Y15893084D01*
X25155954Y15921334D01*
X25154540Y15960300D01*
X25154121Y16011701D01*
X25154111Y16077257D01*
X25154111Y16266794D01*
X24979486Y16263226D01*
X24948579Y16262546D01*
X24896720Y16261059D01*
X24856047Y16259258D01*
X24824611Y16256983D01*
X24800465Y16254074D01*
X24781661Y16250373D01*
X24766254Y16245718D01*
X24745764Y16237470D01*
X24700522Y16210630D01*
X24665598Y16174586D01*
X24639609Y16127649D01*
X24621176Y16068127D01*
X24620751Y16066234D01*
X24617334Y16048012D01*
X24614774Y16026909D01*
X24612999Y16000760D01*
X24611935Y15967401D01*
X24611512Y15924667D01*
X24611656Y15870393D01*
X24612296Y15802417D01*
X24612579Y15778172D01*
X24613388Y15718313D01*
X24614306Y15671426D01*
X24615486Y15635358D01*
X24617079Y15607954D01*
X24619235Y15587062D01*
X24622107Y15570527D01*
X24625846Y15556197D01*
X24630603Y15541917D01*
X24640629Y15517539D01*
X24670823Y15469970D01*
X24711327Y15433232D01*
X24762147Y15407320D01*
X24823289Y15392228D01*
X24826581Y15391797D01*
X24849815Y15389868D01*
X24884338Y15388124D01*
X24927826Y15386634D01*
X24977956Y15385466D01*
X25032404Y15384688D01*
X25088847Y15384371D01*
X25302278Y15384125D01*
X25302278Y14422966D01*
X25284960Y14403483D01*
X25280218Y14398805D01*
X25256743Y14386333D01*
X25228873Y14382924D01*
X25200913Y14387969D01*
X25177168Y14400854D01*
X25161945Y14420968D01*
X25161113Y14424052D01*
X25159206Y14440933D01*
X25157615Y14471078D01*
X25156332Y14514921D01*
X25155348Y14572899D01*
X25154655Y14645444D01*
X25154246Y14732992D01*
X25154111Y14835978D01*
X25154111Y15231646D01*
X24961847Y15235497D01*
X24930149Y15236181D01*
X24869307Y15237956D01*
X24819624Y15240350D01*
X24779069Y15243681D01*
X24745610Y15248267D01*
X24717213Y15254426D01*
X24691847Y15262476D01*
X24667480Y15272734D01*
X24642079Y15285519D01*
X24613826Y15303193D01*
X24570183Y15340902D01*
X24532617Y15386071D01*
X24505125Y15434356D01*
X24494559Y15460006D01*
X24485342Y15486836D01*
X24478067Y15515053D01*
X24472513Y15546726D01*
X24468458Y15583924D01*
X24465679Y15628715D01*
X24463956Y15683169D01*
X24463067Y15749355D01*
X24462789Y15829340D01*
X24462930Y15894086D01*
X24463751Y15963783D01*
X24465517Y16021302D01*
X24468468Y16068705D01*
X24472850Y16108054D01*
X24478905Y16141414D01*
X24486876Y16170845D01*
X24497005Y16198413D01*
X24509536Y16226178D01*
X24533715Y16265695D01*
X24566819Y16305353D01*
X24604048Y16339891D01*
X24640801Y16364462D01*
X24650902Y16369608D01*
X24672718Y16380154D01*
X24693286Y16388745D01*
X24714312Y16395606D01*
X24737504Y16400960D01*
X24764568Y16405033D01*
X24797210Y16408049D01*
X24837137Y16410232D01*
X24886055Y16411806D01*
X24945671Y16412997D01*
X25017692Y16414028D01*
X25035544Y16414259D01*
X25098973Y16415046D01*
X25150084Y16415545D01*
X25190309Y16415689D01*
X25221083Y16415405D01*
G37*
X25221083Y16415405D02*
X25243840Y16414624D01*
X25260015Y16413275D01*
X25271040Y16411289D01*
X25278351Y16408595D01*
X25283382Y16405122D01*
X25287567Y16400800D01*
X25289934Y16398018D01*
X25293513Y16392526D01*
X25296324Y16384915D01*
X25298460Y16373466D01*
X25300013Y16356458D01*
X25301075Y16332173D01*
X25301740Y16298892D01*
X25302101Y16254893D01*
X25302249Y16198459D01*
X25302278Y16127869D01*
X25302203Y16072488D01*
X25301818Y16006148D01*
X25301075Y15953791D01*
X25299938Y15914306D01*
X25298372Y15886580D01*
X25296341Y15869502D01*
X25293811Y15861963D01*
X25283621Y15857212D01*
X25261497Y15853703D01*
X25230711Y15852438D01*
X25218146Y15852408D01*
X25198459Y15852864D01*
X25183281Y15855441D01*
X25172027Y15861857D01*
X25164112Y15873832D01*
X25158950Y15893084D01*
X25155954Y15921334D01*
X25154540Y15960300D01*
X25154121Y16011701D01*
X25154111Y16077257D01*
X25154111Y16266794D01*
X24979486Y16263226D01*
X24948579Y16262546D01*
X24896720Y16261059D01*
X24856047Y16259258D01*
X24824611Y16256983D01*
X24800465Y16254074D01*
X24781661Y16250373D01*
X24766254Y16245718D01*
X24745764Y16237470D01*
X24700522Y16210630D01*
X24665598Y16174586D01*
X24639609Y16127649D01*
X24621176Y16068127D01*
X24620751Y16066234D01*
X24617334Y16048012D01*
X24614774Y16026909D01*
X24612999Y16000760D01*
X24611935Y15967401D01*
X24611512Y15924667D01*
X24611656Y15870393D01*
X24612296Y15802417D01*
X24612579Y15778172D01*
X24613388Y15718313D01*
X24614306Y15671426D01*
X24615486Y15635358D01*
X24617079Y15607954D01*
X24619235Y15587062D01*
X24622107Y15570527D01*
X24625846Y15556197D01*
X24630603Y15541917D01*
X24640629Y15517539D01*
X24670823Y15469970D01*
X24711327Y15433232D01*
X24762147Y15407320D01*
X24823289Y15392228D01*
X24826581Y15391797D01*
X24849815Y15389868D01*
X24884338Y15388124D01*
X24927826Y15386634D01*
X24977956Y15385466D01*
X25032404Y15384688D01*
X25088847Y15384371D01*
X25302278Y15384125D01*
X25302278Y14422966D01*
X25284960Y14403483D01*
X25280218Y14398805D01*
X25256743Y14386333D01*
X25228873Y14382924D01*
X25200913Y14387969D01*
X25177168Y14400854D01*
X25161945Y14420968D01*
X25161113Y14424052D01*
X25159206Y14440933D01*
X25157615Y14471078D01*
X25156332Y14514921D01*
X25155348Y14572899D01*
X25154655Y14645444D01*
X25154246Y14732992D01*
X25154111Y14835978D01*
X25154111Y15231646D01*
X24961847Y15235497D01*
X24930149Y15236181D01*
X24869307Y15237956D01*
X24819624Y15240350D01*
X24779069Y15243681D01*
X24745610Y15248267D01*
X24717213Y15254426D01*
X24691847Y15262476D01*
X24667480Y15272734D01*
X24642079Y15285519D01*
X24613826Y15303193D01*
X24570183Y15340902D01*
X24532617Y15386071D01*
X24505125Y15434356D01*
X24494559Y15460006D01*
X24485342Y15486836D01*
X24478067Y15515053D01*
X24472513Y15546726D01*
X24468458Y15583924D01*
X24465679Y15628715D01*
X24463956Y15683169D01*
X24463067Y15749355D01*
X24462789Y15829340D01*
X24462930Y15894086D01*
X24463751Y15963783D01*
X24465517Y16021302D01*
X24468468Y16068705D01*
X24472850Y16108054D01*
X24478905Y16141414D01*
X24486876Y16170845D01*
X24497005Y16198413D01*
X24509536Y16226178D01*
X24533715Y16265695D01*
X24566819Y16305353D01*
X24604048Y16339891D01*
X24640801Y16364462D01*
X24650902Y16369608D01*
X24672718Y16380154D01*
X24693286Y16388745D01*
X24714312Y16395606D01*
X24737504Y16400960D01*
X24764568Y16405033D01*
X24797210Y16408049D01*
X24837137Y16410232D01*
X24886055Y16411806D01*
X24945671Y16412997D01*
X25017692Y16414028D01*
X25035544Y16414259D01*
X25098973Y16415046D01*
X25150084Y16415545D01*
X25190309Y16415689D01*
X25221083Y16415405D01*
G36*
X15382417Y16423995D02*
G01*
X15469135Y16423938D01*
X15492870Y16423943D01*
X15576371Y16424007D01*
X15647091Y16424005D01*
X15706085Y16423752D01*
X15754408Y16423065D01*
X15793118Y16421760D01*
X15823269Y16419652D01*
X15845919Y16416559D01*
X15862122Y16412295D01*
X15872935Y16406678D01*
X15879415Y16399523D01*
X15882616Y16390646D01*
X15883595Y16379863D01*
X15883408Y16366992D01*
X15883111Y16351846D01*
X15882938Y16336677D01*
X15880922Y16315109D01*
X15875325Y16301224D01*
X15864521Y16289577D01*
X15861171Y16286742D01*
X15853899Y16281968D01*
X15844466Y16278460D01*
X15830882Y16276024D01*
X15811153Y16274465D01*
X15783289Y16273592D01*
X15745298Y16273210D01*
X15695187Y16273125D01*
X15544444Y16273125D01*
X15544444Y15351854D01*
X15544433Y15277483D01*
X15544331Y15125790D01*
X15544119Y14989572D01*
X15543795Y14868555D01*
X15543358Y14762465D01*
X15542805Y14671029D01*
X15542134Y14593972D01*
X15541342Y14531020D01*
X15540428Y14481899D01*
X15539389Y14446335D01*
X15538223Y14424054D01*
X15536928Y14414781D01*
X15529680Y14404219D01*
X15513997Y14391561D01*
X15506017Y14389101D01*
X15485047Y14386632D01*
X15460369Y14386818D01*
X15451745Y14386984D01*
X15443020Y14386550D01*
X15435252Y14386259D01*
X15428386Y14386937D01*
X15422367Y14389415D01*
X15417140Y14394518D01*
X15412650Y14403076D01*
X15408841Y14415916D01*
X15405659Y14433867D01*
X15403049Y14457756D01*
X15400955Y14488411D01*
X15399322Y14526661D01*
X15398095Y14573334D01*
X15397219Y14629257D01*
X15396638Y14695258D01*
X15396298Y14772167D01*
X15396144Y14860809D01*
X15396120Y14962015D01*
X15396171Y15076610D01*
X15396242Y15205425D01*
X15396278Y15349286D01*
X15396278Y16273125D01*
X15245535Y16273125D01*
X15219543Y16273142D01*
X15175571Y16273346D01*
X15142750Y16273943D01*
X15119088Y16275125D01*
X15102595Y16277086D01*
X15091277Y16280019D01*
X15083143Y16284118D01*
X15076201Y16289577D01*
X15071041Y16294434D01*
X15062441Y16306625D01*
X15058534Y16323438D01*
X15057611Y16350467D01*
X15057578Y16354912D01*
X15057170Y16369742D01*
X15057115Y16382294D01*
X15058470Y16392756D01*
X15062293Y16401317D01*
X15069644Y16408166D01*
X15081579Y16413491D01*
X15099159Y16417483D01*
X15123440Y16420329D01*
X15155482Y16422219D01*
X15196342Y16423342D01*
X15247079Y16423886D01*
X15308751Y16424041D01*
X15382417Y16423995D01*
G37*
X15382417Y16423995D02*
X15469135Y16423938D01*
X15492870Y16423943D01*
X15576371Y16424007D01*
X15647091Y16424005D01*
X15706085Y16423752D01*
X15754408Y16423065D01*
X15793118Y16421760D01*
X15823269Y16419652D01*
X15845919Y16416559D01*
X15862122Y16412295D01*
X15872935Y16406678D01*
X15879415Y16399523D01*
X15882616Y16390646D01*
X15883595Y16379863D01*
X15883408Y16366992D01*
X15883111Y16351846D01*
X15882938Y16336677D01*
X15880922Y16315109D01*
X15875325Y16301224D01*
X15864521Y16289577D01*
X15861171Y16286742D01*
X15853899Y16281968D01*
X15844466Y16278460D01*
X15830882Y16276024D01*
X15811153Y16274465D01*
X15783289Y16273592D01*
X15745298Y16273210D01*
X15695187Y16273125D01*
X15544444Y16273125D01*
X15544444Y15351854D01*
X15544433Y15277483D01*
X15544331Y15125790D01*
X15544119Y14989572D01*
X15543795Y14868555D01*
X15543358Y14762465D01*
X15542805Y14671029D01*
X15542134Y14593972D01*
X15541342Y14531020D01*
X15540428Y14481899D01*
X15539389Y14446335D01*
X15538223Y14424054D01*
X15536928Y14414781D01*
X15529680Y14404219D01*
X15513997Y14391561D01*
X15506017Y14389101D01*
X15485047Y14386632D01*
X15460369Y14386818D01*
X15451745Y14386984D01*
X15443020Y14386550D01*
X15435252Y14386259D01*
X15428386Y14386937D01*
X15422367Y14389415D01*
X15417140Y14394518D01*
X15412650Y14403076D01*
X15408841Y14415916D01*
X15405659Y14433867D01*
X15403049Y14457756D01*
X15400955Y14488411D01*
X15399322Y14526661D01*
X15398095Y14573334D01*
X15397219Y14629257D01*
X15396638Y14695258D01*
X15396298Y14772167D01*
X15396144Y14860809D01*
X15396120Y14962015D01*
X15396171Y15076610D01*
X15396242Y15205425D01*
X15396278Y15349286D01*
X15396278Y16273125D01*
X15245535Y16273125D01*
X15219543Y16273142D01*
X15175571Y16273346D01*
X15142750Y16273943D01*
X15119088Y16275125D01*
X15102595Y16277086D01*
X15091277Y16280019D01*
X15083143Y16284118D01*
X15076201Y16289577D01*
X15071041Y16294434D01*
X15062441Y16306625D01*
X15058534Y16323438D01*
X15057611Y16350467D01*
X15057578Y16354912D01*
X15057170Y16369742D01*
X15057115Y16382294D01*
X15058470Y16392756D01*
X15062293Y16401317D01*
X15069644Y16408166D01*
X15081579Y16413491D01*
X15099159Y16417483D01*
X15123440Y16420329D01*
X15155482Y16422219D01*
X15196342Y16423342D01*
X15247079Y16423886D01*
X15308751Y16424041D01*
X15382417Y16423995D01*
G36*
X17384427Y15443657D02*
G01*
X17384721Y15356435D01*
X17385048Y15239642D01*
X17385213Y15136946D01*
X17385184Y15047287D01*
X17384924Y14969603D01*
X17384400Y14902833D01*
X17383576Y14845915D01*
X17382419Y14797789D01*
X17380893Y14757392D01*
X17378964Y14723665D01*
X17376598Y14695544D01*
X17373759Y14671969D01*
X17370414Y14651879D01*
X17366527Y14634212D01*
X17362064Y14617907D01*
X17356990Y14601903D01*
X17336818Y14553099D01*
X17299976Y14495546D01*
X17252526Y14447989D01*
X17194895Y14410753D01*
X17127512Y14384165D01*
X17050805Y14368551D01*
X17024798Y14366133D01*
X16969965Y14364582D01*
X16911333Y14366580D01*
X16854804Y14371850D01*
X16806278Y14380111D01*
X16769032Y14390631D01*
X16706086Y14419780D01*
X16652246Y14460989D01*
X16607805Y14513948D01*
X16573054Y14578347D01*
X16548286Y14653875D01*
X16546412Y14662208D01*
X16544446Y14673193D01*
X16542736Y14686392D01*
X16541264Y14702857D01*
X16540013Y14723637D01*
X16538965Y14749784D01*
X16538102Y14782349D01*
X16537406Y14822382D01*
X16536861Y14870935D01*
X16536448Y14929058D01*
X16536150Y14997801D01*
X16535948Y15078216D01*
X16535826Y15171354D01*
X16535766Y15278265D01*
X16535750Y15400000D01*
X16535761Y15503295D01*
X16535813Y15612511D01*
X16535814Y15613541D01*
X16681217Y15613541D01*
X16681409Y15496594D01*
X16681832Y15364282D01*
X16682089Y15295923D01*
X16682508Y15186191D01*
X16682939Y15090603D01*
X16683456Y15008051D01*
X16684133Y14937426D01*
X16685044Y14877621D01*
X16686263Y14827528D01*
X16687863Y14786039D01*
X16689919Y14752046D01*
X16692503Y14724442D01*
X16695691Y14702118D01*
X16699555Y14683967D01*
X16704169Y14668880D01*
X16709608Y14655750D01*
X16715945Y14643470D01*
X16723253Y14630930D01*
X16731607Y14617023D01*
X16732383Y14615728D01*
X16750183Y14590802D01*
X16772059Y14570692D01*
X16802792Y14550957D01*
X16804349Y14550067D01*
X16824308Y14539031D01*
X16840936Y14531466D01*
X16857722Y14526637D01*
X16878153Y14523810D01*
X16905717Y14522249D01*
X16943903Y14521219D01*
X16976724Y14521081D01*
X17036149Y14525140D01*
X17084991Y14535634D01*
X17125059Y14553246D01*
X17158164Y14578659D01*
X17186115Y14612554D01*
X17192443Y14621818D01*
X17199997Y14633102D01*
X17206577Y14644110D01*
X17212255Y14655919D01*
X17217101Y14669606D01*
X17221187Y14686247D01*
X17224584Y14706919D01*
X17227363Y14732699D01*
X17229596Y14764663D01*
X17231352Y14803888D01*
X17232704Y14851452D01*
X17233723Y14908429D01*
X17234479Y14975898D01*
X17235044Y15054935D01*
X17235489Y15146616D01*
X17235886Y15252019D01*
X17236304Y15372219D01*
X17236694Y15502323D01*
X17236882Y15617421D01*
X17236863Y15717876D01*
X17236632Y15804304D01*
X17236182Y15877321D01*
X17235510Y15937541D01*
X17234610Y15985582D01*
X17233476Y16022058D01*
X17232104Y16047586D01*
X17230488Y16062782D01*
X17218141Y16117375D01*
X17196514Y16171758D01*
X17166588Y16214377D01*
X17127334Y16246291D01*
X17077720Y16268557D01*
X17016713Y16282235D01*
X17003931Y16283841D01*
X16951882Y16286015D01*
X16899390Y16282152D01*
X16851121Y16272792D01*
X16811740Y16258478D01*
X16798687Y16251402D01*
X16757055Y16218585D01*
X16724816Y16174531D01*
X16701694Y16118781D01*
X16687415Y16050875D01*
X16686712Y16044551D01*
X16685166Y16020957D01*
X16683880Y15985549D01*
X16682851Y15937819D01*
X16682074Y15877261D01*
X16681546Y15803367D01*
X16681262Y15715629D01*
X16681217Y15613541D01*
X16535814Y15613541D01*
X16535924Y15707786D01*
X16536112Y15790171D01*
X16536394Y15860715D01*
X16536788Y15920470D01*
X16537311Y15970487D01*
X16537981Y16011815D01*
X16538817Y16045507D01*
X16539834Y16072613D01*
X16541052Y16094183D01*
X16542488Y16111269D01*
X16544159Y16124921D01*
X16546083Y16136189D01*
X16548278Y16146125D01*
X16564291Y16201193D01*
X16592541Y16265668D01*
X16629139Y16318694D01*
X16675218Y16361506D01*
X16731906Y16395337D01*
X16800333Y16421421D01*
X16808658Y16423668D01*
X16844567Y16429862D01*
X16889590Y16433891D01*
X16939974Y16435754D01*
X16991965Y16435450D01*
X17041808Y16432977D01*
X17085749Y16428335D01*
X17120033Y16421523D01*
X17148015Y16412784D01*
X17211390Y16384313D01*
X17264158Y16346083D01*
X17307359Y16297009D01*
X17342032Y16236009D01*
X17369217Y16162000D01*
X17370967Y16155611D01*
X17373035Y16146131D01*
X17374844Y16134512D01*
X17376416Y16119698D01*
X17377772Y16100632D01*
X17378936Y16076257D01*
X17379929Y16045517D01*
X17380775Y16007356D01*
X17381494Y15960716D01*
X17382111Y15904541D01*
X17382646Y15837774D01*
X17383123Y15759359D01*
X17383564Y15668239D01*
X17383771Y15617421D01*
X17383991Y15563357D01*
X17384427Y15443657D01*
G37*
X17384427Y15443657D02*
X17384721Y15356435D01*
X17385048Y15239642D01*
X17385213Y15136946D01*
X17385184Y15047287D01*
X17384924Y14969603D01*
X17384400Y14902833D01*
X17383576Y14845915D01*
X17382419Y14797789D01*
X17380893Y14757392D01*
X17378964Y14723665D01*
X17376598Y14695544D01*
X17373759Y14671969D01*
X17370414Y14651879D01*
X17366527Y14634212D01*
X17362064Y14617907D01*
X17356990Y14601903D01*
X17336818Y14553099D01*
X17299976Y14495546D01*
X17252526Y14447989D01*
X17194895Y14410753D01*
X17127512Y14384165D01*
X17050805Y14368551D01*
X17024798Y14366133D01*
X16969965Y14364582D01*
X16911333Y14366580D01*
X16854804Y14371850D01*
X16806278Y14380111D01*
X16769032Y14390631D01*
X16706086Y14419780D01*
X16652246Y14460989D01*
X16607805Y14513948D01*
X16573054Y14578347D01*
X16548286Y14653875D01*
X16546412Y14662208D01*
X16544446Y14673193D01*
X16542736Y14686392D01*
X16541264Y14702857D01*
X16540013Y14723637D01*
X16538965Y14749784D01*
X16538102Y14782349D01*
X16537406Y14822382D01*
X16536861Y14870935D01*
X16536448Y14929058D01*
X16536150Y14997801D01*
X16535948Y15078216D01*
X16535826Y15171354D01*
X16535766Y15278265D01*
X16535750Y15400000D01*
X16535761Y15503295D01*
X16535813Y15612511D01*
X16535814Y15613541D01*
X16681217Y15613541D01*
X16681409Y15496594D01*
X16681832Y15364282D01*
X16682089Y15295923D01*
X16682508Y15186191D01*
X16682939Y15090603D01*
X16683456Y15008051D01*
X16684133Y14937426D01*
X16685044Y14877621D01*
X16686263Y14827528D01*
X16687863Y14786039D01*
X16689919Y14752046D01*
X16692503Y14724442D01*
X16695691Y14702118D01*
X16699555Y14683967D01*
X16704169Y14668880D01*
X16709608Y14655750D01*
X16715945Y14643470D01*
X16723253Y14630930D01*
X16731607Y14617023D01*
X16732383Y14615728D01*
X16750183Y14590802D01*
X16772059Y14570692D01*
X16802792Y14550957D01*
X16804349Y14550067D01*
X16824308Y14539031D01*
X16840936Y14531466D01*
X16857722Y14526637D01*
X16878153Y14523810D01*
X16905717Y14522249D01*
X16943903Y14521219D01*
X16976724Y14521081D01*
X17036149Y14525140D01*
X17084991Y14535634D01*
X17125059Y14553246D01*
X17158164Y14578659D01*
X17186115Y14612554D01*
X17192443Y14621818D01*
X17199997Y14633102D01*
X17206577Y14644110D01*
X17212255Y14655919D01*
X17217101Y14669606D01*
X17221187Y14686247D01*
X17224584Y14706919D01*
X17227363Y14732699D01*
X17229596Y14764663D01*
X17231352Y14803888D01*
X17232704Y14851452D01*
X17233723Y14908429D01*
X17234479Y14975898D01*
X17235044Y15054935D01*
X17235489Y15146616D01*
X17235886Y15252019D01*
X17236304Y15372219D01*
X17236694Y15502323D01*
X17236882Y15617421D01*
X17236863Y15717876D01*
X17236632Y15804304D01*
X17236182Y15877321D01*
X17235510Y15937541D01*
X17234610Y15985582D01*
X17233476Y16022058D01*
X17232104Y16047586D01*
X17230488Y16062782D01*
X17218141Y16117375D01*
X17196514Y16171758D01*
X17166588Y16214377D01*
X17127334Y16246291D01*
X17077720Y16268557D01*
X17016713Y16282235D01*
X17003931Y16283841D01*
X16951882Y16286015D01*
X16899390Y16282152D01*
X16851121Y16272792D01*
X16811740Y16258478D01*
X16798687Y16251402D01*
X16757055Y16218585D01*
X16724816Y16174531D01*
X16701694Y16118781D01*
X16687415Y16050875D01*
X16686712Y16044551D01*
X16685166Y16020957D01*
X16683880Y15985549D01*
X16682851Y15937819D01*
X16682074Y15877261D01*
X16681546Y15803367D01*
X16681262Y15715629D01*
X16681217Y15613541D01*
X16535814Y15613541D01*
X16535924Y15707786D01*
X16536112Y15790171D01*
X16536394Y15860715D01*
X16536788Y15920470D01*
X16537311Y15970487D01*
X16537981Y16011815D01*
X16538817Y16045507D01*
X16539834Y16072613D01*
X16541052Y16094183D01*
X16542488Y16111269D01*
X16544159Y16124921D01*
X16546083Y16136189D01*
X16548278Y16146125D01*
X16564291Y16201193D01*
X16592541Y16265668D01*
X16629139Y16318694D01*
X16675218Y16361506D01*
X16731906Y16395337D01*
X16800333Y16421421D01*
X16808658Y16423668D01*
X16844567Y16429862D01*
X16889590Y16433891D01*
X16939974Y16435754D01*
X16991965Y16435450D01*
X17041808Y16432977D01*
X17085749Y16428335D01*
X17120033Y16421523D01*
X17148015Y16412784D01*
X17211390Y16384313D01*
X17264158Y16346083D01*
X17307359Y16297009D01*
X17342032Y16236009D01*
X17369217Y16162000D01*
X17370967Y16155611D01*
X17373035Y16146131D01*
X17374844Y16134512D01*
X17376416Y16119698D01*
X17377772Y16100632D01*
X17378936Y16076257D01*
X17379929Y16045517D01*
X17380775Y16007356D01*
X17381494Y15960716D01*
X17382111Y15904541D01*
X17382646Y15837774D01*
X17383123Y15759359D01*
X17383564Y15668239D01*
X17383771Y15617421D01*
X17383991Y15563357D01*
X17384427Y15443657D01*
G36*
X29251675Y16460301D02*
G01*
X29291171Y16456547D01*
X29333145Y16450699D01*
X29374935Y16442926D01*
X29406078Y16435628D01*
X29511550Y16400710D01*
X29612951Y16351483D01*
X29709005Y16288977D01*
X29798433Y16214226D01*
X29879959Y16128259D01*
X29952305Y16032107D01*
X30014194Y15926804D01*
X30042584Y15866035D01*
X30080284Y15763706D01*
X30109490Y15654810D01*
X30128806Y15544014D01*
X30131993Y15507749D01*
X30133881Y15454922D01*
X30133892Y15395339D01*
X30132161Y15333516D01*
X30128825Y15273967D01*
X30124018Y15221207D01*
X30117876Y15179749D01*
X30104672Y15120180D01*
X30067179Y14996341D01*
X30018209Y14881022D01*
X29958391Y14774856D01*
X29888353Y14678479D01*
X29808722Y14592526D01*
X29720128Y14517632D01*
X29623197Y14454431D01*
X29518558Y14403559D01*
X29406838Y14365651D01*
X29288667Y14341341D01*
X29268455Y14339428D01*
X29229364Y14338492D01*
X29182881Y14339609D01*
X29132919Y14342528D01*
X29083388Y14347002D01*
X29038201Y14352782D01*
X29001268Y14359619D01*
X28916689Y14383771D01*
X28810645Y14427927D01*
X28711016Y14485422D01*
X28618684Y14555380D01*
X28534528Y14636921D01*
X28459429Y14729170D01*
X28394268Y14831249D01*
X28339923Y14942280D01*
X28297275Y15061386D01*
X28275666Y15144861D01*
X28257607Y15251585D01*
X28251500Y15353136D01*
X28251548Y15368403D01*
X28252295Y15397434D01*
X28254408Y15415349D01*
X28258480Y15425551D01*
X28265100Y15431443D01*
X28273521Y15435542D01*
X28291365Y15435460D01*
X28304361Y15420822D01*
X28312307Y15391962D01*
X28315000Y15349210D01*
X28315010Y15346813D01*
X28317530Y15303381D01*
X28323888Y15250691D01*
X28333211Y15194081D01*
X28344630Y15138885D01*
X28357271Y15090438D01*
X28381285Y15019332D01*
X28430245Y14909105D01*
X28490369Y14807388D01*
X28560743Y14715080D01*
X28640452Y14633076D01*
X28728583Y14562275D01*
X28824221Y14503572D01*
X28926452Y14457865D01*
X29034362Y14426051D01*
X29066091Y14420388D01*
X29121921Y14414768D01*
X29183470Y14412564D01*
X29245905Y14413771D01*
X29304394Y14418383D01*
X29354106Y14426395D01*
X29361871Y14428163D01*
X29467365Y14460627D01*
X29568954Y14507492D01*
X29664881Y14567668D01*
X29753389Y14640062D01*
X29832722Y14723586D01*
X29900356Y14814710D01*
X29959353Y14917140D01*
X30006135Y15025523D01*
X30040534Y15138563D01*
X30062382Y15254966D01*
X30071512Y15373435D01*
X30067757Y15492677D01*
X30050948Y15611397D01*
X30020918Y15728299D01*
X29977499Y15842088D01*
X29968557Y15861514D01*
X29910161Y15968916D01*
X29841807Y16065472D01*
X29764236Y16150619D01*
X29678185Y16223794D01*
X29584395Y16284434D01*
X29483603Y16331976D01*
X29376549Y16365859D01*
X29263972Y16385518D01*
X29230777Y16389603D01*
X29201786Y16394164D01*
X29180655Y16398585D01*
X29170486Y16402308D01*
X29169582Y16403159D01*
X29162527Y16419216D01*
X29163548Y16439426D01*
X29172364Y16455794D01*
X29174672Y16457312D01*
X29190764Y16460853D01*
X29217319Y16461793D01*
X29251675Y16460301D01*
G37*
X29251675Y16460301D02*
X29291171Y16456547D01*
X29333145Y16450699D01*
X29374935Y16442926D01*
X29406078Y16435628D01*
X29511550Y16400710D01*
X29612951Y16351483D01*
X29709005Y16288977D01*
X29798433Y16214226D01*
X29879959Y16128259D01*
X29952305Y16032107D01*
X30014194Y15926804D01*
X30042584Y15866035D01*
X30080284Y15763706D01*
X30109490Y15654810D01*
X30128806Y15544014D01*
X30131993Y15507749D01*
X30133881Y15454922D01*
X30133892Y15395339D01*
X30132161Y15333516D01*
X30128825Y15273967D01*
X30124018Y15221207D01*
X30117876Y15179749D01*
X30104672Y15120180D01*
X30067179Y14996341D01*
X30018209Y14881022D01*
X29958391Y14774856D01*
X29888353Y14678479D01*
X29808722Y14592526D01*
X29720128Y14517632D01*
X29623197Y14454431D01*
X29518558Y14403559D01*
X29406838Y14365651D01*
X29288667Y14341341D01*
X29268455Y14339428D01*
X29229364Y14338492D01*
X29182881Y14339609D01*
X29132919Y14342528D01*
X29083388Y14347002D01*
X29038201Y14352782D01*
X29001268Y14359619D01*
X28916689Y14383771D01*
X28810645Y14427927D01*
X28711016Y14485422D01*
X28618684Y14555380D01*
X28534528Y14636921D01*
X28459429Y14729170D01*
X28394268Y14831249D01*
X28339923Y14942280D01*
X28297275Y15061386D01*
X28275666Y15144861D01*
X28257607Y15251585D01*
X28251500Y15353136D01*
X28251548Y15368403D01*
X28252295Y15397434D01*
X28254408Y15415349D01*
X28258480Y15425551D01*
X28265100Y15431443D01*
X28273521Y15435542D01*
X28291365Y15435460D01*
X28304361Y15420822D01*
X28312307Y15391962D01*
X28315000Y15349210D01*
X28315010Y15346813D01*
X28317530Y15303381D01*
X28323888Y15250691D01*
X28333211Y15194081D01*
X28344630Y15138885D01*
X28357271Y15090438D01*
X28381285Y15019332D01*
X28430245Y14909105D01*
X28490369Y14807388D01*
X28560743Y14715080D01*
X28640452Y14633076D01*
X28728583Y14562275D01*
X28824221Y14503572D01*
X28926452Y14457865D01*
X29034362Y14426051D01*
X29066091Y14420388D01*
X29121921Y14414768D01*
X29183470Y14412564D01*
X29245905Y14413771D01*
X29304394Y14418383D01*
X29354106Y14426395D01*
X29361871Y14428163D01*
X29467365Y14460627D01*
X29568954Y14507492D01*
X29664881Y14567668D01*
X29753389Y14640062D01*
X29832722Y14723586D01*
X29900356Y14814710D01*
X29959353Y14917140D01*
X30006135Y15025523D01*
X30040534Y15138563D01*
X30062382Y15254966D01*
X30071512Y15373435D01*
X30067757Y15492677D01*
X30050948Y15611397D01*
X30020918Y15728299D01*
X29977499Y15842088D01*
X29968557Y15861514D01*
X29910161Y15968916D01*
X29841807Y16065472D01*
X29764236Y16150619D01*
X29678185Y16223794D01*
X29584395Y16284434D01*
X29483603Y16331976D01*
X29376549Y16365859D01*
X29263972Y16385518D01*
X29230777Y16389603D01*
X29201786Y16394164D01*
X29180655Y16398585D01*
X29170486Y16402308D01*
X29169582Y16403159D01*
X29162527Y16419216D01*
X29163548Y16439426D01*
X29172364Y16455794D01*
X29174672Y16457312D01*
X29190764Y16460853D01*
X29217319Y16461793D01*
X29251675Y16460301D01*
G36*
X23406590Y16415319D02*
G01*
X23432871Y16411791D01*
X23449957Y16404011D01*
X23460537Y16390612D01*
X23467301Y16370225D01*
X23468039Y16367039D01*
X23473104Y16343808D01*
X23480752Y16307288D01*
X23490757Y16258631D01*
X23502892Y16198987D01*
X23516929Y16129507D01*
X23532642Y16051343D01*
X23549802Y15965646D01*
X23568183Y15873567D01*
X23587558Y15776256D01*
X23607700Y15674866D01*
X23628380Y15570546D01*
X23649373Y15464449D01*
X23670451Y15357725D01*
X23691387Y15251525D01*
X23711953Y15147000D01*
X23731923Y15045302D01*
X23751069Y14947581D01*
X23769164Y14854989D01*
X23785982Y14768677D01*
X23801293Y14689795D01*
X23814873Y14619495D01*
X23826493Y14558928D01*
X23835926Y14509245D01*
X23842945Y14471598D01*
X23847323Y14447136D01*
X23848833Y14437012D01*
X23845405Y14412951D01*
X23833152Y14396357D01*
X23829433Y14393889D01*
X23808177Y14386683D01*
X23779915Y14384000D01*
X23758222Y14385122D01*
X23740314Y14390478D01*
X23726804Y14401860D01*
X23726558Y14402155D01*
X23723675Y14407223D01*
X23720214Y14416372D01*
X23716005Y14430419D01*
X23710880Y14450181D01*
X23704669Y14476476D01*
X23697204Y14510121D01*
X23688316Y14551935D01*
X23677836Y14602734D01*
X23665595Y14663336D01*
X23651425Y14734560D01*
X23635156Y14817221D01*
X23616619Y14912138D01*
X23595647Y15020128D01*
X23572069Y15142010D01*
X23545717Y15278599D01*
X23540639Y15304945D01*
X23518823Y15418001D01*
X23497876Y15526368D01*
X23477991Y15629060D01*
X23459359Y15725094D01*
X23442172Y15813485D01*
X23426623Y15893250D01*
X23412904Y15963403D01*
X23401207Y16022962D01*
X23391723Y16070940D01*
X23384646Y16106356D01*
X23380166Y16128223D01*
X23378477Y16135557D01*
X23378209Y16134491D01*
X23375571Y16121561D01*
X23370375Y16095170D01*
X23362914Y16056843D01*
X23353478Y16008099D01*
X23342359Y15950461D01*
X23329847Y15885452D01*
X23316233Y15814592D01*
X23301810Y15739404D01*
X23286867Y15661410D01*
X23271697Y15582132D01*
X23256590Y15503091D01*
X23241836Y15425809D01*
X23227729Y15351809D01*
X23214558Y15282612D01*
X23202614Y15219740D01*
X23192189Y15164716D01*
X23183574Y15119060D01*
X23177060Y15084295D01*
X23172939Y15061943D01*
X23171500Y15053525D01*
X23172334Y15053165D01*
X23183281Y15052215D01*
X23204936Y15051449D01*
X23234777Y15050937D01*
X23270278Y15050750D01*
X23283072Y15050700D01*
X23316922Y15050041D01*
X23344253Y15048736D01*
X23362535Y15046937D01*
X23369237Y15044797D01*
X23369447Y15042916D01*
X23371904Y15028543D01*
X23376521Y15004079D01*
X23382548Y14973535D01*
X23395679Y14908227D01*
X23268189Y14906067D01*
X23140698Y14903907D01*
X23093533Y14658371D01*
X23085631Y14617221D01*
X23073097Y14552626D01*
X23062619Y14501209D01*
X23053546Y14461467D01*
X23045227Y14431900D01*
X23037013Y14411004D01*
X23028252Y14397276D01*
X23018294Y14389214D01*
X23006489Y14385316D01*
X22992185Y14384079D01*
X22974733Y14384000D01*
X22948224Y14385768D01*
X22922592Y14394239D01*
X22908009Y14410412D01*
X22903389Y14435064D01*
X22904709Y14444670D01*
X22908988Y14469069D01*
X22916046Y14507092D01*
X22925694Y14557776D01*
X22937743Y14620157D01*
X22952004Y14693274D01*
X22968287Y14776163D01*
X22986403Y14867862D01*
X23006164Y14967409D01*
X23027380Y15073841D01*
X23049861Y15186194D01*
X23073420Y15303507D01*
X23097866Y15424817D01*
X23114081Y15505108D01*
X23141951Y15642882D01*
X23166987Y15766303D01*
X23189349Y15876113D01*
X23209195Y15973054D01*
X23226683Y16057867D01*
X23241973Y16131294D01*
X23255222Y16194075D01*
X23266590Y16246954D01*
X23276234Y16290671D01*
X23284313Y16325968D01*
X23290986Y16353587D01*
X23296411Y16374269D01*
X23300747Y16388756D01*
X23304153Y16397789D01*
X23306786Y16402110D01*
X23310970Y16405589D01*
X23324655Y16411813D01*
X23345666Y16415064D01*
X23377357Y16416000D01*
X23406590Y16415319D01*
G37*
X23406590Y16415319D02*
X23432871Y16411791D01*
X23449957Y16404011D01*
X23460537Y16390612D01*
X23467301Y16370225D01*
X23468039Y16367039D01*
X23473104Y16343808D01*
X23480752Y16307288D01*
X23490757Y16258631D01*
X23502892Y16198987D01*
X23516929Y16129507D01*
X23532642Y16051343D01*
X23549802Y15965646D01*
X23568183Y15873567D01*
X23587558Y15776256D01*
X23607700Y15674866D01*
X23628380Y15570546D01*
X23649373Y15464449D01*
X23670451Y15357725D01*
X23691387Y15251525D01*
X23711953Y15147000D01*
X23731923Y15045302D01*
X23751069Y14947581D01*
X23769164Y14854989D01*
X23785982Y14768677D01*
X23801293Y14689795D01*
X23814873Y14619495D01*
X23826493Y14558928D01*
X23835926Y14509245D01*
X23842945Y14471598D01*
X23847323Y14447136D01*
X23848833Y14437012D01*
X23845405Y14412951D01*
X23833152Y14396357D01*
X23829433Y14393889D01*
X23808177Y14386683D01*
X23779915Y14384000D01*
X23758222Y14385122D01*
X23740314Y14390478D01*
X23726804Y14401860D01*
X23726558Y14402155D01*
X23723675Y14407223D01*
X23720214Y14416372D01*
X23716005Y14430419D01*
X23710880Y14450181D01*
X23704669Y14476476D01*
X23697204Y14510121D01*
X23688316Y14551935D01*
X23677836Y14602734D01*
X23665595Y14663336D01*
X23651425Y14734560D01*
X23635156Y14817221D01*
X23616619Y14912138D01*
X23595647Y15020128D01*
X23572069Y15142010D01*
X23545717Y15278599D01*
X23540639Y15304945D01*
X23518823Y15418001D01*
X23497876Y15526368D01*
X23477991Y15629060D01*
X23459359Y15725094D01*
X23442172Y15813485D01*
X23426623Y15893250D01*
X23412904Y15963403D01*
X23401207Y16022962D01*
X23391723Y16070940D01*
X23384646Y16106356D01*
X23380166Y16128223D01*
X23378477Y16135557D01*
X23378209Y16134491D01*
X23375571Y16121561D01*
X23370375Y16095170D01*
X23362914Y16056843D01*
X23353478Y16008099D01*
X23342359Y15950461D01*
X23329847Y15885452D01*
X23316233Y15814592D01*
X23301810Y15739404D01*
X23286867Y15661410D01*
X23271697Y15582132D01*
X23256590Y15503091D01*
X23241836Y15425809D01*
X23227729Y15351809D01*
X23214558Y15282612D01*
X23202614Y15219740D01*
X23192189Y15164716D01*
X23183574Y15119060D01*
X23177060Y15084295D01*
X23172939Y15061943D01*
X23171500Y15053525D01*
X23172334Y15053165D01*
X23183281Y15052215D01*
X23204936Y15051449D01*
X23234777Y15050937D01*
X23270278Y15050750D01*
X23283072Y15050700D01*
X23316922Y15050041D01*
X23344253Y15048736D01*
X23362535Y15046937D01*
X23369237Y15044797D01*
X23369447Y15042916D01*
X23371904Y15028543D01*
X23376521Y15004079D01*
X23382548Y14973535D01*
X23395679Y14908227D01*
X23268189Y14906067D01*
X23140698Y14903907D01*
X23093533Y14658371D01*
X23085631Y14617221D01*
X23073097Y14552626D01*
X23062619Y14501209D01*
X23053546Y14461467D01*
X23045227Y14431900D01*
X23037013Y14411004D01*
X23028252Y14397276D01*
X23018294Y14389214D01*
X23006489Y14385316D01*
X22992185Y14384079D01*
X22974733Y14384000D01*
X22948224Y14385768D01*
X22922592Y14394239D01*
X22908009Y14410412D01*
X22903389Y14435064D01*
X22904709Y14444670D01*
X22908988Y14469069D01*
X22916046Y14507092D01*
X22925694Y14557776D01*
X22937743Y14620157D01*
X22952004Y14693274D01*
X22968287Y14776163D01*
X22986403Y14867862D01*
X23006164Y14967409D01*
X23027380Y15073841D01*
X23049861Y15186194D01*
X23073420Y15303507D01*
X23097866Y15424817D01*
X23114081Y15505108D01*
X23141951Y15642882D01*
X23166987Y15766303D01*
X23189349Y15876113D01*
X23209195Y15973054D01*
X23226683Y16057867D01*
X23241973Y16131294D01*
X23255222Y16194075D01*
X23266590Y16246954D01*
X23276234Y16290671D01*
X23284313Y16325968D01*
X23290986Y16353587D01*
X23296411Y16374269D01*
X23300747Y16388756D01*
X23304153Y16397789D01*
X23306786Y16402110D01*
X23310970Y16405589D01*
X23324655Y16411813D01*
X23345666Y16415064D01*
X23377357Y16416000D01*
X23406590Y16415319D01*
D14*
%TO.C,R20*%
X73020000Y41496359D02*
X73020000Y41803641D01*
X73780000Y41496359D02*
X73780000Y41803641D01*
%TO.C,C101*%
X87110000Y11759420D02*
X87110000Y12040580D01*
X86090000Y11759420D02*
X86090000Y12040580D01*
%TO.C,C41*%
X71542164Y34290000D02*
X71757836Y34290000D01*
X71542164Y35010000D02*
X71757836Y35010000D01*
D17*
%TO.C,Y1*%
X44200000Y57550000D02*
X45000000Y57550000D01*
X42400000Y56900000D02*
X42400000Y56900000D01*
X42400000Y56800000D02*
X42400000Y56800000D01*
X44200000Y56050000D02*
X45000000Y56050000D01*
X42400000Y56800000D02*
G75*
G03*
X42400000Y56900000I0J50000D01*
G01*
X42400000Y56900000D02*
G75*
G03*
X42400000Y56800000I0J-50000D01*
G01*
D14*
%TO.C,C92*%
X34410000Y75559420D02*
X34410000Y75840580D01*
X33390000Y75559420D02*
X33390000Y75840580D01*
%TO.C,TP30*%
X75100000Y32200000D02*
G75*
G03*
X75100000Y32200000I-700000J0D01*
G01*
%TO.C,C91*%
X46990000Y27957836D02*
X46990000Y27742164D01*
X47710000Y27957836D02*
X47710000Y27742164D01*
%TO.C,C28*%
X45567836Y49170000D02*
X45352164Y49170000D01*
X45567836Y48450000D02*
X45352164Y48450000D01*
D13*
%TO.C,J18*%
X86200000Y58000000D02*
X86200000Y58000000D01*
D17*
X84370000Y56850000D02*
X84370000Y54300000D01*
X81830000Y57300000D02*
X81830000Y59380000D01*
X84370000Y49220000D02*
X84370000Y51300000D01*
X81830000Y59380000D02*
X84370000Y59380000D01*
X81830000Y54300000D02*
X81830000Y51750000D01*
D13*
X86200000Y58200000D02*
X86200000Y58200000D01*
D17*
X81830000Y49220000D02*
X84370000Y49220000D01*
D13*
X86200000Y58000000D02*
G75*
G03*
X86200000Y58200000I0J100000D01*
G01*
X86200000Y58200000D02*
G75*
G03*
X86200000Y58000000I0J-100000D01*
G01*
%TO.C,F8*%
X76800000Y64712000D02*
X76800000Y64188000D01*
%TO.C,F7*%
X8050000Y70900000D02*
X8050000Y71500000D01*
D14*
%TO.C,C23*%
X53042164Y31185000D02*
X53257836Y31185000D01*
X53042164Y30465000D02*
X53257836Y30465000D01*
D13*
%TO.C,U12*%
X70950000Y61500000D02*
X73950000Y61500000D01*
X74000000Y59750000D02*
X74000000Y61150000D01*
X73950000Y63800000D02*
X70950000Y63800000D01*
X73950000Y61500000D02*
X73950000Y63800000D01*
X70950000Y63800000D02*
X70950000Y61500000D01*
D14*
%TO.C,C31*%
X53242164Y55710000D02*
X53457836Y55710000D01*
X53242164Y54990000D02*
X53457836Y54990000D01*
%TO.C,R24*%
X71820000Y51746359D02*
X71820000Y52053641D01*
X72580000Y51746359D02*
X72580000Y52053641D01*
%TO.C,C99*%
X84590000Y11759420D02*
X84590000Y12040580D01*
X85610000Y11759420D02*
X85610000Y12040580D01*
D13*
%TO.C,F9*%
X61588000Y66450000D02*
X62112000Y66450000D01*
D14*
%TO.C,R29*%
X73972500Y72362742D02*
X73972500Y72837258D01*
X72927500Y72362742D02*
X72927500Y72837258D01*
%TO.C,TP13*%
X75100000Y29900000D02*
G75*
G03*
X75100000Y29900000I-700000J0D01*
G01*
%TO.C,C37*%
X71510000Y46507836D02*
X71510000Y46292164D01*
X70790000Y46507836D02*
X70790000Y46292164D01*
%TO.C,C94*%
X9389420Y73280000D02*
X9670580Y73280000D01*
X9389420Y72260000D02*
X9670580Y72260000D01*
D13*
%TO.C,FL3*%
X62200000Y29000000D02*
X61600000Y29000000D01*
%TO.C,FL1*%
X44400000Y39700000D02*
X44400000Y40300000D01*
%TO.C,F6*%
X36200000Y75300000D02*
X36200000Y74700000D01*
D14*
%TO.C,C22*%
X55207836Y30440000D02*
X54992164Y30440000D01*
X55207836Y31160000D02*
X54992164Y31160000D01*
D17*
%TO.C,F10*%
X72200000Y80925000D02*
X72200000Y79575000D01*
D15*
%TO.C,TP54*%
X13200000Y75900000D02*
X13200000Y71900000D01*
X15600000Y75900000D02*
X13200000Y75900000D01*
X15600000Y71900000D02*
X15600000Y75900000D01*
X13200000Y71900000D02*
X15600000Y71900000D01*
D14*
%TO.C,R122*%
X25346359Y72120000D02*
X25653641Y72120000D01*
X25346359Y72880000D02*
X25653641Y72880000D01*
%TO.C,R14*%
X54420000Y56053641D02*
X54420000Y55746359D01*
X55180000Y56053641D02*
X55180000Y55746359D01*
%TO.C,R15*%
X69530000Y57946359D02*
X69530000Y58253641D01*
X68770000Y57946359D02*
X68770000Y58253641D01*
%TO.C,R33*%
X70912742Y73727500D02*
X71387258Y73727500D01*
X70912742Y74772500D02*
X71387258Y74772500D01*
%TO.C,R28*%
X74322500Y77137258D02*
X74322500Y76662742D01*
X73277500Y77137258D02*
X73277500Y76662742D01*
%TO.C,C32*%
X46307836Y50910000D02*
X46092164Y50910000D01*
X46307836Y50190000D02*
X46092164Y50190000D01*
%TO.C,R26*%
X73103641Y44580000D02*
X72796359Y44580000D01*
X73103641Y43820000D02*
X72796359Y43820000D01*
%TO.C,J31*%
X59435000Y71805000D02*
X58740000Y71805000D01*
X58045000Y70435000D02*
X58045000Y70560000D01*
X59435000Y70435000D02*
X59348276Y70435000D01*
X59435000Y70435000D02*
X59435000Y70560000D01*
X58131724Y70435000D02*
X58045000Y70435000D01*
X59435000Y70435000D02*
X58045000Y70435000D01*
X59435000Y71120000D02*
X59435000Y71805000D01*
%TO.C,C39*%
X46810000Y36537836D02*
X46810000Y36322164D01*
X46090000Y36537836D02*
X46090000Y36322164D01*
%TO.C,C42*%
X46307836Y35360000D02*
X46092164Y35360000D01*
X46307836Y34640000D02*
X46092164Y34640000D01*
%TO.C,R11*%
X5170000Y67793641D02*
X5170000Y67486359D01*
X5930000Y67793641D02*
X5930000Y67486359D01*
D13*
%TO.C,U10*%
X26702000Y73348000D02*
X29898000Y73348000D01*
X29898000Y73348000D02*
X29898000Y78252000D01*
X29898000Y78252000D02*
X26702000Y78252000D01*
X31775000Y78380000D02*
X30248000Y78380000D01*
X26702000Y78252000D02*
X26702000Y73348000D01*
D17*
%TO.C,Y2*%
X49250000Y27100000D02*
X49250000Y27100000D01*
D13*
X51050000Y28700000D02*
X51050000Y29100000D01*
D17*
X49350000Y27100000D02*
X49350000Y27100000D01*
D13*
X49050000Y28700000D02*
X49050000Y29100000D01*
D17*
X49250000Y27100000D02*
G75*
G03*
X49350000Y27100000I50000J0D01*
G01*
X49350000Y27100000D02*
G75*
G03*
X49250000Y27100000I-50000J0D01*
G01*
D14*
%TO.C,C34*%
X68992164Y55710000D02*
X69207836Y55710000D01*
X68992164Y54990000D02*
X69207836Y54990000D01*
%TO.C,C36*%
X71390000Y48292164D02*
X71390000Y48507836D01*
X72110000Y48292164D02*
X72110000Y48507836D01*
%TO.C,R34*%
X67412742Y79777500D02*
X67887258Y79777500D01*
X67412742Y80822500D02*
X67887258Y80822500D01*
%TO.C,C29*%
X46307836Y48160000D02*
X46092164Y48160000D01*
X46307836Y47440000D02*
X46092164Y47440000D01*
D17*
%TO.C,J19*%
X14970000Y63250000D02*
X13970000Y63250000D01*
X13970000Y63250000D02*
X14470000Y62250000D01*
X5420000Y39700000D02*
X10620000Y39700000D01*
X10620000Y63800000D02*
X5420000Y63800000D01*
X14470000Y62250000D02*
X14970000Y63250000D01*
D13*
%TO.C,FL2*%
X54750000Y27900000D02*
X54150000Y27900000D01*
D14*
%TO.C,TP56*%
X9530000Y83540000D02*
G75*
G03*
X9530000Y83540000I-700000J0D01*
G01*
%TO.C,TP55*%
X14490000Y80130000D02*
G75*
G03*
X14490000Y80130000I-700000J0D01*
G01*
%TO.C,C17*%
X32960000Y75542164D02*
X32960000Y75757836D01*
X32240000Y75542164D02*
X32240000Y75757836D01*
%TD*%
%LPC*%
D19*
%TO.C,H4*%
X82630000Y90930000D03*
%TD*%
%TO.C,H1*%
X5180000Y5190000D03*
%TD*%
D20*
%TO.C,J12*%
X80350000Y80050000D03*
X85100000Y65550000D03*
X85100000Y80050000D03*
X80350000Y65550000D03*
%TD*%
D19*
%TO.C,H3*%
X85170000Y5210000D03*
%TD*%
%TO.C,H2*%
X8990000Y90930000D03*
%TD*%
D21*
%TO.C,J32*%
X2910000Y9450000D03*
%TD*%
D20*
%TO.C,J7*%
X80650000Y61150000D03*
X80650000Y48650000D03*
X85400000Y48650000D03*
X85400000Y61150000D03*
%TD*%
D22*
%TO.C,J1*%
X14048000Y83309000D03*
D23*
X14048000Y85849000D03*
X16588000Y83309000D03*
X16588000Y85849000D03*
X19128000Y83309000D03*
X19128000Y85849000D03*
X21668000Y83309000D03*
X21668000Y85849000D03*
X24208000Y83309000D03*
X24208000Y85849000D03*
X26748000Y83309000D03*
X26748000Y85849000D03*
X29288000Y83309000D03*
X29288000Y85849000D03*
X31828000Y83309000D03*
X31828000Y85849000D03*
X34368000Y83309000D03*
X34368000Y85849000D03*
X36908000Y83309000D03*
X36908000Y85849000D03*
X39448000Y83309000D03*
X39448000Y85849000D03*
X41988000Y83309000D03*
X41988000Y85849000D03*
X44528000Y83309000D03*
X44528000Y85849000D03*
X47068000Y83309000D03*
X47068000Y85849000D03*
X49608000Y83309000D03*
X49608000Y85849000D03*
X52148000Y83309000D03*
X52148000Y85849000D03*
X54688000Y83309000D03*
X54688000Y85849000D03*
X57228000Y83309000D03*
X57228000Y85849000D03*
X59768000Y83309000D03*
X59768000Y85849000D03*
X62308000Y83309000D03*
X62308000Y85849000D03*
X64848000Y83309000D03*
X64848000Y85849000D03*
X67388000Y83309000D03*
X67388000Y85849000D03*
X69928000Y83309000D03*
X69928000Y85849000D03*
X72468000Y83309000D03*
X72468000Y85849000D03*
X75008000Y83309000D03*
X75008000Y85849000D03*
X77548000Y83309000D03*
X77548000Y85849000D03*
%TD*%
D22*
%TO.C,J5*%
X14048000Y88389000D03*
D23*
X14048000Y90929000D03*
X16588000Y88389000D03*
X16588000Y90929000D03*
X19128000Y88389000D03*
X19128000Y90929000D03*
X21668000Y88389000D03*
X21668000Y90929000D03*
X24208000Y88389000D03*
X24208000Y90929000D03*
X26748000Y88389000D03*
X26748000Y90929000D03*
X29288000Y88389000D03*
X29288000Y90929000D03*
X31828000Y88389000D03*
X31828000Y90929000D03*
X34368000Y88389000D03*
X34368000Y90929000D03*
X36908000Y88389000D03*
X36908000Y90929000D03*
X39448000Y88389000D03*
X39448000Y90929000D03*
X41988000Y88389000D03*
X41988000Y90929000D03*
X44528000Y88389000D03*
X44528000Y90929000D03*
X47068000Y88389000D03*
X47068000Y90929000D03*
X49608000Y88389000D03*
X49608000Y90929000D03*
X52148000Y88389000D03*
X52148000Y90929000D03*
X54688000Y88389000D03*
X54688000Y90929000D03*
X57228000Y88389000D03*
X57228000Y90929000D03*
X59768000Y88389000D03*
X59768000Y90929000D03*
X62308000Y88389000D03*
X62308000Y90929000D03*
X64848000Y88389000D03*
X64848000Y90929000D03*
X67388000Y88389000D03*
X67388000Y90929000D03*
X69928000Y88389000D03*
X69928000Y90929000D03*
X72468000Y88389000D03*
X72468000Y90929000D03*
X75008000Y88389000D03*
X75008000Y90929000D03*
X77548000Y88389000D03*
X77548000Y90929000D03*
%TD*%
D24*
%TO.C,Q2*%
X63025000Y79888000D03*
X63675000Y79888000D03*
X64325000Y79888000D03*
X64975000Y79888000D03*
X64975000Y74012000D03*
X64325000Y74012000D03*
X63675000Y74012000D03*
X63025000Y74012000D03*
%TD*%
D25*
%TO.C,R9*%
X70800000Y28770000D03*
X70800000Y27750000D03*
%TD*%
D26*
%TO.C,TP53*%
X5620000Y75500000D03*
%TD*%
D27*
%TO.C,U14*%
X48162000Y34350000D03*
X48162000Y34850000D03*
X48162000Y35350000D03*
X48162000Y35850000D03*
X48162000Y36350000D03*
X48162000Y36850000D03*
X48162000Y37350000D03*
X48162000Y37850000D03*
X48162000Y38350000D03*
X48162000Y38850000D03*
X48162000Y39350000D03*
X48162000Y39850000D03*
X48162000Y40350000D03*
X48162000Y40850000D03*
X48162000Y41350000D03*
X48162000Y41850000D03*
X48162000Y42350000D03*
X48162000Y42850000D03*
X48162000Y43350000D03*
X48162000Y43850000D03*
X48162000Y44350000D03*
X48162000Y44850000D03*
X48162000Y45350000D03*
X48162000Y45850000D03*
X48162000Y46350000D03*
X48162000Y46850000D03*
X48162000Y47350000D03*
X48162000Y47850000D03*
X48162000Y48350000D03*
X48162000Y48850000D03*
X48162000Y49350000D03*
X48162000Y49850000D03*
X48162000Y50350000D03*
X48162000Y50850000D03*
X48162000Y51350000D03*
X48162000Y51850000D03*
D28*
X50150000Y53838000D03*
X50650000Y53838000D03*
X51150000Y53838000D03*
X51650000Y53838000D03*
X52150000Y53838000D03*
X52650000Y53838000D03*
X53150000Y53838000D03*
X53650000Y53838000D03*
X54150000Y53838000D03*
X54650000Y53838000D03*
X55150000Y53838000D03*
X55650000Y53838000D03*
X56150000Y53838000D03*
X56650000Y53838000D03*
X57150000Y53838000D03*
X57650000Y53838000D03*
X58150000Y53838000D03*
X58650000Y53838000D03*
X59150000Y53838000D03*
X59650000Y53838000D03*
X60150000Y53838000D03*
X60650000Y53838000D03*
X61150000Y53838000D03*
X61650000Y53838000D03*
X62150000Y53838000D03*
X62650000Y53838000D03*
X63150000Y53838000D03*
X63650000Y53838000D03*
X64150000Y53838000D03*
X64650000Y53838000D03*
X65150000Y53838000D03*
X65650000Y53838000D03*
X66150000Y53838000D03*
X66650000Y53838000D03*
X67150000Y53838000D03*
X67650000Y53838000D03*
D27*
X69638000Y51850000D03*
X69638000Y51350000D03*
X69638000Y50850000D03*
X69638000Y50350000D03*
X69638000Y49850000D03*
X69638000Y49350000D03*
X69638000Y48850000D03*
X69638000Y48350000D03*
X69638000Y47850000D03*
X69638000Y47350000D03*
X69638000Y46850000D03*
X69638000Y46350000D03*
X69638000Y45850000D03*
X69638000Y45350000D03*
X69638000Y44850000D03*
X69638000Y44350000D03*
X69638000Y43850000D03*
X69638000Y43350000D03*
X69638000Y42850000D03*
X69638000Y42350000D03*
X69638000Y41850000D03*
X69638000Y41350000D03*
X69638000Y40850000D03*
X69638000Y40350000D03*
X69638000Y39850000D03*
X69638000Y39350000D03*
X69638000Y38850000D03*
X69638000Y38350000D03*
X69638000Y37850000D03*
X69638000Y37350000D03*
X69638000Y36850000D03*
X69638000Y36350000D03*
X69638000Y35850000D03*
X69638000Y35350000D03*
X69638000Y34850000D03*
X69638000Y34350000D03*
D28*
X67650000Y32362000D03*
X67150000Y32362000D03*
X66650000Y32362000D03*
X66150000Y32362000D03*
X65650000Y32362000D03*
X65150000Y32362000D03*
X64650000Y32362000D03*
X64150000Y32362000D03*
X63650000Y32362000D03*
X63150000Y32362000D03*
X62650000Y32362000D03*
X62150000Y32362000D03*
X61650000Y32362000D03*
X61150000Y32362000D03*
X60650000Y32362000D03*
X60150000Y32362000D03*
X59650000Y32362000D03*
X59150000Y32362000D03*
X58650000Y32362000D03*
X58150000Y32362000D03*
X57650000Y32362000D03*
X57150000Y32362000D03*
X56650000Y32362000D03*
X56150000Y32362000D03*
X55650000Y32362000D03*
X55150000Y32362000D03*
X54650000Y32362000D03*
X54150000Y32362000D03*
X53650000Y32362000D03*
X53150000Y32362000D03*
X52650000Y32362000D03*
X52150000Y32362000D03*
X51650000Y32362000D03*
X51150000Y32362000D03*
X50650000Y32362000D03*
X50150000Y32362000D03*
%TD*%
D29*
%TO.C,R32*%
X70325000Y75800000D03*
X71975000Y75800000D03*
%TD*%
D30*
%TO.C,C35*%
X56300000Y55320000D03*
X56300000Y56280000D03*
%TD*%
D31*
%TO.C,R23*%
X76250000Y49240000D03*
X76250000Y50260000D03*
%TD*%
D32*
%TO.C,J20*%
X57470000Y12065000D03*
X56470000Y12065000D03*
X55470000Y12065000D03*
X54470000Y12065000D03*
X53470000Y12065000D03*
X52470000Y12065000D03*
D33*
X59845000Y9075000D03*
X50095000Y9075000D03*
%TD*%
D34*
%TO.C,C21*%
X46425000Y53438000D03*
X44875000Y53438000D03*
%TD*%
D35*
%TO.C,R30*%
X72375000Y77350000D03*
X70725000Y77350000D03*
%TD*%
D31*
%TO.C,R123*%
X6200000Y78590000D03*
X6200000Y79610000D03*
%TD*%
D36*
%TO.C,C19*%
X74750000Y65080000D03*
X74750000Y64120000D03*
%TD*%
D35*
%TO.C,R31*%
X71975000Y72700000D03*
X70325000Y72700000D03*
%TD*%
D34*
%TO.C,C38*%
X46375000Y33750000D03*
X44825000Y33750000D03*
%TD*%
D25*
%TO.C,R10*%
X73710000Y35850000D03*
X73710000Y34830000D03*
%TD*%
D37*
%TO.C,U11*%
X11605000Y75549000D03*
X10335000Y75549000D03*
X9065000Y75549000D03*
X7795000Y75549000D03*
X7795000Y80971000D03*
X9065000Y80971000D03*
X10335000Y80971000D03*
X11605000Y80971000D03*
%TD*%
D38*
%TO.C,U13*%
X67000000Y64075000D03*
X67000000Y63425000D03*
X67000000Y62775000D03*
X67000000Y62125000D03*
X62600000Y62125000D03*
X62600000Y62775000D03*
X62600000Y63425000D03*
X62600000Y64075000D03*
%TD*%
D39*
%TO.C,U15*%
X66825000Y77212500D03*
X67475000Y77212500D03*
X68125000Y77212500D03*
X68775000Y77212500D03*
X68775000Y72987500D03*
X68125000Y72987500D03*
X67475000Y72987500D03*
X66825000Y72987500D03*
%TD*%
D36*
%TO.C,C33*%
X60625000Y30880000D03*
X60625000Y29920000D03*
%TD*%
D40*
%TO.C,C24*%
X48300000Y55575000D03*
X48300000Y57125000D03*
%TD*%
D30*
%TO.C,C40*%
X71150000Y40020000D03*
X71150000Y40980000D03*
%TD*%
D41*
%TO.C,C20*%
X63120000Y65400000D03*
X64080000Y65400000D03*
%TD*%
D36*
%TO.C,C26*%
X46400000Y39180000D03*
X46400000Y38220000D03*
%TD*%
D42*
%TO.C,TP52*%
X35200000Y78600000D03*
%TD*%
D43*
%TO.C,C30*%
X44750000Y37775000D03*
X44750000Y36225000D03*
%TD*%
D41*
%TO.C,C18*%
X9150000Y74020000D03*
X10110000Y74020000D03*
%TD*%
D31*
%TO.C,R20*%
X73400000Y41140000D03*
X73400000Y42160000D03*
%TD*%
D40*
%TO.C,C101*%
X86600000Y11125000D03*
X86600000Y12675000D03*
%TD*%
D42*
%TO.C,FID2*%
X2300000Y2300000D03*
%TD*%
D41*
%TO.C,C41*%
X71170000Y34650000D03*
X72130000Y34650000D03*
%TD*%
D44*
%TO.C,Y1*%
X43350000Y56800000D03*
X45850000Y56800000D03*
%TD*%
D40*
%TO.C,C92*%
X33900000Y74925000D03*
X33900000Y76475000D03*
%TD*%
D42*
%TO.C,TP30*%
X74400000Y32200000D03*
%TD*%
D36*
%TO.C,C91*%
X47350000Y28330000D03*
X47350000Y27370000D03*
%TD*%
D45*
%TO.C,C28*%
X45940000Y48810000D03*
X44980000Y48810000D03*
%TD*%
D46*
%TO.C,J18*%
X84878000Y58110000D03*
X81322000Y55570000D03*
X84878000Y53030000D03*
X81322000Y50490000D03*
%TD*%
D47*
%TO.C,F8*%
X77590000Y64450000D03*
X76010000Y64450000D03*
%TD*%
D48*
%TO.C,F7*%
X7260000Y71200000D03*
X8840000Y71200000D03*
%TD*%
D41*
%TO.C,C23*%
X52670000Y30825000D03*
X53630000Y30825000D03*
%TD*%
D49*
%TO.C,U12*%
X73425000Y60450000D03*
X72775000Y60450000D03*
X72125000Y60450000D03*
X71475000Y60450000D03*
X71475000Y64850000D03*
X72125000Y64850000D03*
X72775000Y64850000D03*
X73425000Y64850000D03*
%TD*%
D41*
%TO.C,C31*%
X52870000Y55350000D03*
X53830000Y55350000D03*
%TD*%
D31*
%TO.C,R24*%
X72200000Y51390000D03*
X72200000Y52410000D03*
%TD*%
D40*
%TO.C,C99*%
X85100000Y11125000D03*
X85100000Y12675000D03*
%TD*%
D50*
%TO.C,F9*%
X61850000Y67240000D03*
X61850000Y65660000D03*
%TD*%
D51*
%TO.C,R29*%
X73450000Y71775000D03*
X73450000Y73425000D03*
%TD*%
D42*
%TO.C,TP13*%
X74400000Y29900000D03*
%TD*%
D36*
%TO.C,C37*%
X71150000Y46880000D03*
X71150000Y45920000D03*
%TD*%
D52*
%TO.C,C94*%
X8755000Y72770000D03*
X10305000Y72770000D03*
%TD*%
D53*
%TO.C,FL3*%
X61900000Y28325000D03*
X61900000Y29675000D03*
%TD*%
D54*
%TO.C,FL1*%
X43725000Y40000000D03*
X45075000Y40000000D03*
%TD*%
D48*
%TO.C,F6*%
X36990000Y75000000D03*
X35410000Y75000000D03*
%TD*%
D45*
%TO.C,C22*%
X55580000Y30800000D03*
X54620000Y30800000D03*
%TD*%
D55*
%TO.C,F10*%
X73300000Y80250000D03*
X71100000Y80250000D03*
%TD*%
D26*
%TO.C,TP54*%
X14400000Y73900000D03*
%TD*%
D56*
%TO.C,R122*%
X24990000Y72500000D03*
X26010000Y72500000D03*
%TD*%
D25*
%TO.C,R14*%
X54800000Y56410000D03*
X54800000Y55390000D03*
%TD*%
D31*
%TO.C,R15*%
X69150000Y57590000D03*
X69150000Y58610000D03*
%TD*%
D29*
%TO.C,R33*%
X70325000Y74250000D03*
X71975000Y74250000D03*
%TD*%
D57*
%TO.C,R28*%
X73800000Y77725000D03*
X73800000Y76075000D03*
%TD*%
D45*
%TO.C,C32*%
X46680000Y50550000D03*
X45720000Y50550000D03*
%TD*%
D58*
%TO.C,R26*%
X73460000Y44200000D03*
X72440000Y44200000D03*
%TD*%
D21*
%TO.C,J31*%
X58740000Y71120000D03*
%TD*%
D36*
%TO.C,C39*%
X46450000Y36910000D03*
X46450000Y35950000D03*
%TD*%
D42*
%TO.C,FID3*%
X87800000Y93800000D03*
%TD*%
D45*
%TO.C,C42*%
X46680000Y35000000D03*
X45720000Y35000000D03*
%TD*%
D25*
%TO.C,R11*%
X5550000Y68150000D03*
X5550000Y67130000D03*
%TD*%
D59*
%TO.C,U10*%
X31011000Y77705000D03*
X31011000Y76435000D03*
X31011000Y75165000D03*
X31011000Y73895000D03*
X25589000Y73895000D03*
X25589000Y75165000D03*
X25589000Y76435000D03*
X25589000Y77705000D03*
%TD*%
D60*
%TO.C,Y2*%
X49325000Y27975000D03*
X49325000Y29825000D03*
X50775000Y29825000D03*
X50775000Y27975000D03*
%TD*%
D41*
%TO.C,C34*%
X68620000Y55350000D03*
X69580000Y55350000D03*
%TD*%
D30*
%TO.C,C36*%
X71750000Y47920000D03*
X71750000Y48880000D03*
%TD*%
D29*
%TO.C,R34*%
X66825000Y80300000D03*
X68475000Y80300000D03*
%TD*%
D45*
%TO.C,C29*%
X46680000Y47800000D03*
X45720000Y47800000D03*
%TD*%
D61*
%TO.C,J19*%
X14470000Y60750000D03*
X14470000Y58750000D03*
X14470000Y56750000D03*
X14470000Y54750000D03*
X14470000Y52750000D03*
X14470000Y50750000D03*
X14470000Y48750000D03*
X14470000Y46750000D03*
X14470000Y44750000D03*
X14470000Y42750000D03*
X11970000Y60750000D03*
X11970000Y58750000D03*
X11970000Y56750000D03*
X11970000Y54750000D03*
X11970000Y52750000D03*
X11970000Y50750000D03*
X11970000Y48750000D03*
X11970000Y46750000D03*
X11970000Y44750000D03*
X11970000Y42750000D03*
%TD*%
D53*
%TO.C,FL2*%
X54450000Y27225000D03*
X54450000Y28575000D03*
%TD*%
D42*
%TO.C,TP56*%
X8830000Y83540000D03*
%TD*%
%TO.C,TP55*%
X13790000Y80130000D03*
%TD*%
%TO.C,FID1*%
X87800000Y2300000D03*
%TD*%
D30*
%TO.C,C17*%
X32600000Y75170000D03*
X32600000Y76130000D03*
%TD*%
M02*
