M48
; DRILL file {KiCad 6.0.9} date Fri 28 Jul 2023 02:51:30 PM EEST
; FORMAT={-:-/ absolute / metric / decimal}
; #@! TF.CreationDate,2023-07-28T14:51:30+03:00
; #@! TF.GenerationSoftware,Kicad,Pcbnew,6.0.9
; #@! TF.FileFunction,Plated,1,8,PTH
FMAT,2
METRIC
; #@! TA.AperFunction,Plated,PTH,ViaDrill
T1C0.400
; #@! TA.AperFunction,Plated,PTH,ComponentDrill
T2C0.500
; #@! TA.AperFunction,Plated,PTH,ComponentDrill
T3C1.020
; #@! TA.AperFunction,Plated,PTH,ComponentDrill
T4C3.200
%
G90
G05
T1
X1.8Y82.7
X1.85Y79.9
X2.95Y79.9
X3.2Y87.4
X3.8Y58.7
X4.0Y66.8
X4.1Y69.9
X4.25Y63.94
X4.26Y62.37
X4.4Y36.32
X4.4Y28.63
X4.405Y55.815
X4.6Y87.4
X5.05Y61.75
X5.2Y81.7
X5.31Y53.16
X5.44Y26.28
X5.44Y20.1
X5.48Y36.72
X5.59Y27.32
X5.86Y40.14
X6.0Y87.4
X6.33Y29.36
X6.525Y23.32
X6.65Y34.6
X6.89Y54.87
X6.94Y67.86
X7.045Y73.955
X7.2Y72.7
X7.24Y70.07
X7.3Y82.6
X7.3Y77.9
X7.38Y48.81
X7.73Y64.34
X7.75Y23.23
X7.75Y21.08
X7.96Y65.84
X7.96Y13.83
X8.11Y17.36
X8.22Y50.87
X8.34Y53.99
X9.0Y77.4
X9.15Y36.86
X9.29Y45.47
X9.34Y47.23
X9.7Y79.6
X10.961Y83.689
X11.02Y41.39
X11.3Y77.175
X11.35Y63.95
X11.37Y79.06
X11.37Y61.93
X11.45Y72.65
X11.739Y82.911
X12.77Y19.94
X12.91Y74.525
X12.93Y21.9
X13.1Y18.3
X13.205Y41.245
X13.45Y71.305
X13.62Y36.75
X14.1Y3.4
X14.2Y11.3
X14.48Y34.65
X14.55Y71.305
X15.2Y18.73
X15.3Y6.8
X16.0Y69.3
X16.07Y50.4
X16.5Y53.65
X16.6Y67.4
X17.25Y12.5
X17.4Y72.4
X17.6Y58.9
X17.6Y57.0
X17.601Y44.511
X17.87Y61.14
X17.9Y78.9
X17.9Y13.95
X18.4Y39.5
X18.675Y69.8
X18.7Y35.5
X19.0Y54.0
X19.0Y21.32
X19.3Y33.75
X19.4Y67.8
X19.45Y51.5
X19.5Y50.4
X19.7Y38.2
X19.7Y30.7
X20.0Y22.7
X20.1Y40.85
X20.15Y32.7
X20.2Y59.6
X20.4Y66.0
X20.55Y35.43
X20.7Y27.6
X20.7Y26.4
X20.7Y20.3
X20.88Y43.1
X20.88Y19.17
X21.2Y39.35
X21.35Y32.7
X21.538Y61.938
X22.3Y64.225
X22.3Y41.3
X22.4Y79.2
X22.4Y74.9
X22.55Y15.05
X23.43Y7.82
X23.8Y73.7
X23.86Y40.64
X24.2Y39.276
X24.4Y15.0
X24.6Y22.6
X24.7Y32.224
X24.97Y38.375
X25.08Y34.93
X25.188Y44.688
X25.2Y29.4
X25.359Y31.149
X25.63Y60.24
X25.75Y10.4
X25.8Y62.8
X25.8Y32.8
X26.0Y21.5
X26.45Y37.4
X26.53Y58.15
X26.77Y30.32
X26.9Y28.7
X26.995Y9.135
X27.2Y17.2
X27.28Y35.91
X27.5Y20.0
X27.7Y79.751
X27.7Y78.65
X27.7Y22.5
X28.04Y59.38
X28.68Y9.13
X28.8Y68.0
X28.8Y62.0
X28.9Y11.4
X29.16Y32.87
X29.255Y75.745
X29.8Y27.65
X29.9Y25.2
X30.25Y37.5
X30.35Y23.55
X30.5Y21.6
X30.9Y59.6
X31.375Y33.55
X31.4Y46.4
X31.4Y8.8
X31.6Y14.7
X31.7Y7.4
X31.9Y22.7
X32.2Y20.7
X32.5Y71.8
X32.55Y37.55
X32.63Y29.61
X32.7Y35.8
X32.8Y13.7
X32.97Y60.77
X33.01Y33.94
X33.55Y77.7
X33.55Y69.4
X33.6Y22.8
X34.1Y32.5
X34.1Y28.8
X34.25Y48.8
X34.9Y21.7
X35.4Y20.0
X35.45Y17.05
X35.65Y91.6
X35.8Y38.6
X35.85Y45.75
X35.9Y28.8
X36.0Y42.0
X36.2Y65.67
X36.4Y76.7
X36.53Y63.9
X36.6Y34.8
X36.68Y67.99
X37.2Y15.9
X37.3Y59.5
X37.5Y50.75
X37.55Y48.7
X37.6Y72.3
X37.7Y28.9
X37.95Y41.724
X38.14Y89.18
X38.4Y16.15
X38.674Y42.6
X38.7Y36.7
X38.9Y24.15
X39.1Y76.6
X39.15Y15.45
X39.2Y26.05
X39.25Y14.05
X39.42Y32.38
X39.45Y38.75
X39.8Y42.449
X39.888Y27.669
X39.97Y4.9
X40.02Y56.6
X40.75Y24.5
X41.16Y76.21
X41.3Y62.95
X41.4Y26.15
X42.2Y44.8
X42.3Y35.7
X42.45Y8.46
X42.55Y24.6
X42.71Y68.215
X43.0Y76.5
X43.25Y59.925
X43.3Y31.3
X43.366Y34.899
X43.374Y36.404
X43.412Y49.939
X43.7Y65.9
X43.8Y71.4
X44.2Y54.1
X44.23Y48.0
X44.6Y41.2
X44.71Y51.56
X44.71Y49.8
X44.8Y44.125
X44.9Y60.9
X45.0Y76.0
X45.0Y47.2
X45.1Y64.2
X45.45Y38.925
X45.803Y51.672
X46.28Y46.755
X46.35Y28.325
X46.6Y26.8
X46.8Y49.599
X47.004Y60.956
X47.1Y24.8
X47.2Y63.5
X47.299Y57.825
X47.6Y16.6
X47.6Y15.4
X47.69Y8.84
X47.9Y74.4
X48.3Y64.2
X48.7Y19.827
X49.2Y22.5
X49.25Y24.174
X49.4Y57.8
X49.425Y55.27
X49.6Y34.5
X49.7Y48.6
X49.7Y35.8
X50.09Y50.24
X50.2Y42.35
X50.255Y38.855
X50.29Y6.1
X50.3Y24.85
X50.5Y19.9
X51.25Y13.7
X51.39Y49.2
X51.4Y46.2
X51.45Y55.35
X51.5Y37.4
X51.6Y35.6
X51.61Y7.28
X51.65Y74.1
X52.0Y56.55
X52.6Y66.3
X52.72Y28.47
X53.0Y42.2
X53.04Y13.98
X53.1Y35.7
X53.4Y56.35
X53.65Y26.976
X53.74Y6.47
X53.8Y58.3
X53.9Y40.276
X53.9Y29.9
X54.4Y61.5
X54.62Y8.87
X54.83Y6.49
X55.0Y29.9
X55.15Y25.85
X55.6Y28.6
X55.62Y51.82
X56.25Y57.15
X56.3Y30.2
X56.6Y42.45
X56.67Y52.501
X56.74Y24.46
X56.8Y40.0
X57.1Y26.25
X57.7Y55.3
X57.7Y34.1
X57.75Y57.25
X58.0Y65.8
X58.6Y46.4
X58.6Y30.0
X58.7Y56.35
X59.05Y55.3
X59.36Y7.64
X60.087Y34.087
X60.1Y52.4
X60.41Y7.51
X60.598Y29.002
X60.7Y42.8
X60.8Y77.6
X61.0Y61.7
X61.1Y10.0
X61.55Y50.77
X61.6Y71.3
X61.8Y79.15
X61.8Y68.7
X61.9Y40.5
X62.05Y76.15
X62.388Y55.712
X62.8Y9.4
X62.9Y28.3
X62.95Y33.8
X63.05Y47.675
X63.1Y42.1
X63.3Y70.0
X63.3Y39.3
X63.3Y37.5
X63.35Y35.65
X63.45Y4.9
X63.5Y17.5
X63.6Y14.4
X63.8Y26.0
X64.1Y66.4
X64.1Y64.2
X64.1Y22.5
X64.6Y31.1
X64.9Y61.0
X65.25Y6.3
X65.4Y43.8
X65.5Y44.95
X65.5Y16.6
X65.832Y22.356
X66.1Y10.1
X66.5Y71.5
X66.75Y49.35
X66.79Y69.69
X67.1Y56.0
X67.15Y50.45
X67.2Y46.05
X67.2Y15.85
X67.3Y60.9
X67.3Y10.0
X67.4Y59.5
X67.5Y22.3
X67.55Y47.9
X67.6Y28.9
X67.6Y26.0
X67.688Y33.788
X67.8Y36.5
X67.9Y40.6
X68.0Y37.7
X68.2Y68.94
X68.2Y43.6
X68.3Y14.4
X68.497Y64.136
X68.8Y19.9
X69.15Y56.3
X69.2Y16.6
X69.21Y9.92
X69.42Y7.84
X69.6Y77.2
X69.6Y54.649
X70.25Y63.9
X70.36Y7.58
X70.701Y14.789
X70.8Y21.0
X70.95Y56.2
X71.1Y17.7
X71.2Y33.5
X71.2Y26.0
X71.37Y11.54
X71.82Y70.22
X72.17Y27.32
X72.3Y43.0
X72.3Y22.5
X72.47Y66.62
X72.5Y46.5
X72.5Y33.438
X72.55Y57.65
X72.6Y30.9
X72.8Y48.6
X73.05Y40.2
X73.1Y18.6
X73.2Y75.0
X73.3Y52.3
X73.304Y37.0
X73.47Y66.62
X73.6Y54.1
X73.875Y68.798
X74.1Y47.1
X74.223Y59.3
X74.35Y41.1
X74.5Y60.95
X74.55Y62.25
X74.6Y49.4
X74.653Y68.02
X74.847Y39.273
X74.85Y46.35
X74.9Y42.95
X74.95Y75.8
X75.0Y73.8
X75.13Y54.83
X75.18Y58.67
X75.3Y55.85
X75.35Y57.65
X75.55Y63.25
X75.6Y34.78
X75.775Y44.9
X75.775Y43.7
X76.01Y48.32
X76.44Y28.73
X76.475Y3.8
X76.775Y5.3
X77.34Y27.87
X77.4Y63.0
X77.538Y47.115
X77.76Y48.09
X77.76Y45.74
X78.07Y49.66
X78.275Y42.5
X78.45Y66.55
X78.82Y29.41
X79.69Y28.82
X80.07Y16.89
X80.124Y75.8
X80.3Y69.35
X80.326Y72.7
X80.326Y71.6
X80.55Y57.0
X80.8Y54.1
X80.849Y63.9
X80.849Y62.8
X81.24Y52.92
X81.275Y5.2
X81.275Y3.9
X81.35Y58.03
X81.549Y38.951
X81.6Y44.5
X81.6Y35.1
X81.65Y21.1
X82.15Y23.66
X82.17Y22.62
X82.627Y42.589
X82.7Y19.74
X83.3Y29.8
X83.337Y32.45
X83.337Y31.35
X83.405Y41.811
X85.1Y13.6
X85.2Y9.1
X86.5Y9.1
X86.6Y13.6
T2
X2.91Y9.45
X58.74Y71.12
T3
X14.048Y90.929
X14.048Y88.389
X14.048Y85.849
X14.048Y83.309
X16.588Y90.929
X16.588Y88.389
X16.588Y85.849
X16.588Y83.309
X19.128Y90.929
X19.128Y88.389
X19.128Y85.849
X19.128Y83.309
X21.668Y90.929
X21.668Y88.389
X21.668Y85.849
X21.668Y83.309
X24.208Y90.929
X24.208Y88.389
X24.208Y85.849
X24.208Y83.309
X26.748Y90.929
X26.748Y88.389
X26.748Y85.849
X26.748Y83.309
X29.288Y90.929
X29.288Y88.389
X29.288Y85.849
X29.288Y83.309
X31.828Y90.929
X31.828Y88.389
X31.828Y85.849
X31.828Y83.309
X34.368Y90.929
X34.368Y88.389
X34.368Y85.849
X34.368Y83.309
X36.908Y90.929
X36.908Y88.389
X36.908Y85.849
X36.908Y83.309
X39.448Y90.929
X39.448Y88.389
X39.448Y85.849
X39.448Y83.309
X41.988Y90.929
X41.988Y88.389
X41.988Y85.849
X41.988Y83.309
X44.528Y90.929
X44.528Y88.389
X44.528Y85.849
X44.528Y83.309
X47.068Y90.929
X47.068Y88.389
X47.068Y85.849
X47.068Y83.309
X49.608Y90.929
X49.608Y88.389
X49.608Y85.849
X49.608Y83.309
X52.148Y90.929
X52.148Y88.389
X52.148Y85.849
X52.148Y83.309
X54.688Y90.929
X54.688Y88.389
X54.688Y85.849
X54.688Y83.309
X57.228Y90.929
X57.228Y88.389
X57.228Y85.849
X57.228Y83.309
X59.768Y90.929
X59.768Y88.389
X59.768Y85.849
X59.768Y83.309
X62.308Y90.929
X62.308Y88.389
X62.308Y85.849
X62.308Y83.309
X64.848Y90.929
X64.848Y88.389
X64.848Y85.849
X64.848Y83.309
X67.388Y90.929
X67.388Y88.389
X67.388Y85.849
X67.388Y83.309
X69.928Y90.929
X69.928Y88.389
X69.928Y85.849
X69.928Y83.309
X72.468Y90.929
X72.468Y88.389
X72.468Y85.849
X72.468Y83.309
X75.008Y90.929
X75.008Y88.389
X75.008Y85.849
X75.008Y83.309
X77.548Y90.929
X77.548Y88.389
X77.548Y85.849
X77.548Y83.309
T4
X5.18Y5.19
X8.99Y90.93
X82.63Y90.93
X85.17Y5.21
T0
M30
