%TF.GenerationSoftware,KiCad,Pcbnew,6.0.9*%
%TF.CreationDate,2023-07-28T14:51:24+03:00*%
%TF.ProjectId,obc-adcs-board,6f62632d-6164-4637-932d-626f6172642e,rev?*%
%TF.SameCoordinates,PX3e2df80PY83e4a60*%
%TF.FileFunction,Copper,L6,Inr*%
%TF.FilePolarity,Positive*%
%FSLAX46Y46*%
G04 Gerber Fmt 4.6, Leading zero omitted, Abs format (unit mm)*
G04 Created by KiCad (PCBNEW 6.0.9) date 2023-07-28 14:51:24*
%MOMM*%
%LPD*%
G01*
G04 APERTURE LIST*
%TA.AperFunction,Profile*%
%ADD10C,0.100000*%
%TD*%
%TA.AperFunction,ComponentPad*%
%ADD11C,5.600000*%
%TD*%
%TA.AperFunction,ComponentPad*%
%ADD12R,0.850000X0.850000*%
%TD*%
%TA.AperFunction,ComponentPad*%
%ADD13R,1.530000X1.530000*%
%TD*%
%TA.AperFunction,ComponentPad*%
%ADD14C,1.530000*%
%TD*%
%TA.AperFunction,ViaPad*%
%ADD15C,0.800000*%
%TD*%
%TA.AperFunction,Conductor*%
%ADD16C,0.250000*%
%TD*%
%TA.AperFunction,Conductor*%
%ADD17C,0.150000*%
%TD*%
G04 APERTURE END LIST*
D10*
X1600000Y43065000D02*
X1600000Y53065000D01*
X66685000Y120000D02*
X89370000Y120000D01*
X850000Y42315000D02*
G75*
G03*
X100000Y41565000I0J-750000D01*
G01*
X65935000Y870000D02*
G75*
G03*
X65185000Y1620000I-750000J0D01*
G01*
X72185000Y94510000D02*
G75*
G03*
X72935000Y95260000I0J750000D01*
G01*
X90270000Y12065000D02*
X90270000Y1020000D01*
X850000Y42315000D02*
G75*
G03*
X1600000Y43065000I0J750000D01*
G01*
X25185000Y1620000D02*
G75*
G03*
X24435000Y870000I0J-750000D01*
G01*
X18185000Y94510000D02*
X72185000Y94510000D01*
X100000Y41565000D02*
X100000Y1010000D01*
X73685000Y96010000D02*
G75*
G03*
X72935000Y95260000I0J-750000D01*
G01*
X1000000Y96010000D02*
G75*
G03*
X100000Y95110000I0J-900000D01*
G01*
X100000Y1010000D02*
G75*
G03*
X1000000Y110000I900000J0D01*
G01*
X88770000Y13565000D02*
X88770000Y82565000D01*
X90270000Y12065000D02*
G75*
G03*
X89520000Y12815000I-750000J0D01*
G01*
X89520000Y83315000D02*
G75*
G03*
X88770000Y82565000I0J-750000D01*
G01*
X88770000Y13565000D02*
G75*
G03*
X89520000Y12815000I750000J0D01*
G01*
X25185000Y1620000D02*
X65185000Y1620000D01*
X73685000Y96010000D02*
X89370000Y96010000D01*
X89520000Y83315000D02*
G75*
G03*
X90270000Y84065000I0J750000D01*
G01*
X89370000Y120000D02*
G75*
G03*
X90270000Y1020000I0J900000D01*
G01*
X1600000Y53065000D02*
G75*
G03*
X850000Y53815000I-750000J0D01*
G01*
X23685000Y120000D02*
G75*
G03*
X24435000Y870000I0J750000D01*
G01*
X90270000Y95110000D02*
G75*
G03*
X89370000Y96010000I-900000J0D01*
G01*
X17435000Y95260000D02*
G75*
G03*
X18185000Y94510000I750000J0D01*
G01*
X100000Y54565000D02*
G75*
G03*
X850000Y53815000I750000J0D01*
G01*
X1000000Y96010000D02*
X16685000Y96010000D01*
X90270000Y95110000D02*
X90270000Y84065000D01*
X100000Y95110000D02*
X100000Y54565000D01*
X17435000Y95260000D02*
G75*
G03*
X16685000Y96010000I-750000J0D01*
G01*
X23685000Y120000D02*
X1000000Y110000D01*
X65935000Y870000D02*
G75*
G03*
X66685000Y120000I750000J0D01*
G01*
D11*
%TO.N,unconnected-(H4-Pad1)*%
%TO.C,H4*%
X82630000Y90930000D03*
%TD*%
%TO.N,unconnected-(H1-Pad1)*%
%TO.C,H1*%
X5180000Y5190000D03*
%TD*%
%TO.N,AC_GND_2*%
%TO.C,H3*%
X85170000Y5210000D03*
%TD*%
%TO.N,AC_GND_1*%
%TO.C,H2*%
X8990000Y90930000D03*
%TD*%
D12*
%TO.N,/OBC module/3V3_PROT*%
%TO.C,J32*%
X2910000Y9450000D03*
%TD*%
D13*
%TO.N,CAN1-*%
%TO.C,J1*%
X14048000Y83309000D03*
D14*
%TO.N,unconnected-(J1-Pad02)*%
X14048000Y85849000D03*
%TO.N,CAN1+*%
X16588000Y83309000D03*
%TO.N,unconnected-(J1-Pad04)*%
X16588000Y85849000D03*
%TO.N,unconnected-(J1-Pad05)*%
X19128000Y83309000D03*
%TO.N,unconnected-(J1-Pad06)*%
X19128000Y85849000D03*
%TO.N,unconnected-(J1-Pad07)*%
X21668000Y83309000D03*
%TO.N,unconnected-(J1-Pad08)*%
X21668000Y85849000D03*
%TO.N,unconnected-(J1-Pad09)*%
X24208000Y83309000D03*
%TO.N,unconnected-(J1-Pad10)*%
X24208000Y85849000D03*
%TO.N,unconnected-(J1-Pad11)*%
X26748000Y83309000D03*
%TO.N,unconnected-(J1-Pad12)*%
X26748000Y85849000D03*
%TO.N,unconnected-(J1-Pad13)*%
X29288000Y83309000D03*
%TO.N,unconnected-(J1-Pad14)*%
X29288000Y85849000D03*
%TO.N,unconnected-(J1-Pad15)*%
X31828000Y83309000D03*
%TO.N,unconnected-(J1-Pad16)*%
X31828000Y85849000D03*
%TO.N,/ADCS_COTS_TX*%
X34368000Y83309000D03*
%TO.N,/ADCS_COTS_RX*%
X34368000Y85849000D03*
%TO.N,unconnected-(J1-Pad19)*%
X36908000Y83309000D03*
%TO.N,unconnected-(J1-Pad20)*%
X36908000Y85849000D03*
%TO.N,unconnected-(J1-Pad21)*%
X39448000Y83309000D03*
%TO.N,unconnected-(J1-Pad22)*%
X39448000Y85849000D03*
%TO.N,unconnected-(J1-Pad23)*%
X41988000Y83309000D03*
%TO.N,unconnected-(J1-Pad24)*%
X41988000Y85849000D03*
%TO.N,unconnected-(J1-Pad25)*%
X44528000Y83309000D03*
%TO.N,unconnected-(J1-Pad26)*%
X44528000Y85849000D03*
%TO.N,unconnected-(J1-Pad27)*%
X47068000Y83309000D03*
%TO.N,unconnected-(J1-Pad28)*%
X47068000Y85849000D03*
%TO.N,unconnected-(J1-Pad29)*%
X49608000Y83309000D03*
%TO.N,unconnected-(J1-Pad30)*%
X49608000Y85849000D03*
%TO.N,unconnected-(J1-Pad31)*%
X52148000Y83309000D03*
%TO.N,unconnected-(J1-Pad32)*%
X52148000Y85849000D03*
%TO.N,unconnected-(J1-Pad33)*%
X54688000Y83309000D03*
%TO.N,unconnected-(J1-Pad34)*%
X54688000Y85849000D03*
%TO.N,unconnected-(J1-Pad35)*%
X57228000Y83309000D03*
%TO.N,unconnected-(J1-Pad36)*%
X57228000Y85849000D03*
%TO.N,unconnected-(J1-Pad37)*%
X59768000Y83309000D03*
%TO.N,unconnected-(J1-Pad38)*%
X59768000Y85849000D03*
%TO.N,unconnected-(J1-Pad39)*%
X62308000Y83309000D03*
%TO.N,unconnected-(J1-Pad40)*%
X62308000Y85849000D03*
%TO.N,/I2C_MTQ_SDA*%
X64848000Y83309000D03*
%TO.N,unconnected-(J1-Pad42)*%
X64848000Y85849000D03*
%TO.N,/I2C_MTQ_SCK*%
X67388000Y83309000D03*
%TO.N,unconnected-(J1-Pad44)*%
X67388000Y85849000D03*
%TO.N,/EPS_GPIO_1*%
X69928000Y83309000D03*
%TO.N,unconnected-(J1-Pad46)*%
X69928000Y85849000D03*
%TO.N,/EPS_5V_PANELS*%
X72468000Y83309000D03*
%TO.N,/EPS_3V3_OBC*%
X72468000Y85849000D03*
%TO.N,/EPS_5V_ADM*%
X75008000Y83309000D03*
%TO.N,/EPS_3V3_ADCS*%
X75008000Y85849000D03*
%TO.N,/EPS_5V_SU*%
X77548000Y83309000D03*
%TO.N,unconnected-(J1-Pad52)*%
X77548000Y85849000D03*
%TD*%
D13*
%TO.N,CAN2-*%
%TO.C,J5*%
X14048000Y88389000D03*
D14*
%TO.N,unconnected-(J5-Pad02)*%
X14048000Y90929000D03*
%TO.N,CAN2+*%
X16588000Y88389000D03*
%TO.N,unconnected-(J5-Pad04)*%
X16588000Y90929000D03*
%TO.N,unconnected-(J5-Pad05)*%
X19128000Y88389000D03*
%TO.N,unconnected-(J5-Pad06)*%
X19128000Y90929000D03*
%TO.N,unconnected-(J5-Pad07)*%
X21668000Y88389000D03*
%TO.N,unconnected-(J5-Pad08)*%
X21668000Y90929000D03*
%TO.N,unconnected-(J5-Pad09)*%
X24208000Y88389000D03*
%TO.N,unconnected-(J5-Pad10)*%
X24208000Y90929000D03*
%TO.N,unconnected-(J5-Pad11)*%
X26748000Y88389000D03*
%TO.N,unconnected-(J5-Pad12)*%
X26748000Y90929000D03*
%TO.N,unconnected-(J5-Pad13)*%
X29288000Y88389000D03*
%TO.N,unconnected-(J5-Pad14)*%
X29288000Y90929000D03*
%TO.N,unconnected-(J5-Pad15)*%
X31828000Y88389000D03*
%TO.N,unconnected-(J5-Pad16)*%
X31828000Y90929000D03*
%TO.N,/OBC_UART_TX*%
X34368000Y88389000D03*
%TO.N,/OBC_UART_RX*%
X34368000Y90929000D03*
%TO.N,/ADCS_UART_TX*%
X36908000Y88389000D03*
%TO.N,/ADCS_UART_RX*%
X36908000Y90929000D03*
%TO.N,/EPS_TX*%
X39448000Y88389000D03*
%TO.N,/EPS_RX*%
X39448000Y90929000D03*
%TO.N,unconnected-(J5-Pad23)*%
X41988000Y88389000D03*
%TO.N,unconnected-(J5-Pad24)*%
X41988000Y90929000D03*
%TO.N,unconnected-(J5-Pad25)*%
X44528000Y88389000D03*
%TO.N,unconnected-(J5-Pad26)*%
X44528000Y90929000D03*
%TO.N,unconnected-(J5-Pad27)*%
X47068000Y88389000D03*
%TO.N,unconnected-(J5-Pad28)*%
X47068000Y90929000D03*
%TO.N,GND*%
X49608000Y88389000D03*
X49608000Y90929000D03*
%TO.N,unconnected-(J5-Pad31)*%
X52148000Y88389000D03*
%TO.N,GND*%
X52148000Y90929000D03*
%TO.N,unconnected-(J5-Pad33)*%
X54688000Y88389000D03*
%TO.N,unconnected-(J5-Pad34)*%
X54688000Y90929000D03*
%TO.N,unconnected-(J5-Pad35)*%
X57228000Y88389000D03*
%TO.N,unconnected-(J5-Pad36)*%
X57228000Y90929000D03*
%TO.N,unconnected-(J5-Pad37)*%
X59768000Y88389000D03*
%TO.N,unconnected-(J5-Pad38)*%
X59768000Y90929000D03*
%TO.N,unconnected-(J5-Pad39)*%
X62308000Y88389000D03*
%TO.N,unconnected-(J5-Pad40)*%
X62308000Y90929000D03*
%TO.N,unconnected-(J5-Pad41)*%
X64848000Y88389000D03*
%TO.N,unconnected-(J5-Pad42)*%
X64848000Y90929000D03*
%TO.N,unconnected-(J5-Pad43)*%
X67388000Y88389000D03*
%TO.N,unconnected-(J5-Pad44)*%
X67388000Y90929000D03*
%TO.N,unconnected-(J5-Pad45)*%
X69928000Y88389000D03*
%TO.N,unconnected-(J5-Pad46)*%
X69928000Y90929000D03*
%TO.N,unconnected-(J5-Pad47)*%
X72468000Y88389000D03*
%TO.N,unconnected-(J5-Pad48)*%
X72468000Y90929000D03*
%TO.N,unconnected-(J5-Pad49)*%
X75008000Y88389000D03*
%TO.N,/EPS_GPIO_3*%
X75008000Y90929000D03*
%TO.N,/EPS_GPIO_2*%
X77548000Y88389000D03*
%TO.N,/EPS_GPIO_4*%
X77548000Y90929000D03*
%TD*%
D12*
%TO.N,/ADCS_VDD*%
%TO.C,J31*%
X58740000Y71120000D03*
%TD*%
D15*
%TO.N,/OBC module/3V3_LCLPROT_NAND*%
X19450000Y51500000D03*
X47298620Y57825500D03*
%TO.N,GND*%
X47600000Y16600000D03*
X33550000Y69400000D03*
X43411765Y49939356D03*
X48300000Y64200000D03*
X72600000Y30900000D03*
X75000000Y73800000D03*
X74950000Y75800000D03*
X11450000Y72650000D03*
X74100000Y47100000D03*
X55000000Y29900000D03*
X22300000Y41300000D03*
X33550000Y77700000D03*
X67800000Y36500000D03*
X64100000Y66400000D03*
X44800000Y44125500D03*
X67300000Y60900000D03*
X28800000Y68000000D03*
X81600000Y44500000D03*
X9290000Y45470000D03*
X76775000Y5300000D03*
X78070000Y49660000D03*
X69420000Y7840000D03*
X8340000Y53990000D03*
X49400000Y57800000D03*
X5200000Y81700000D03*
X43366241Y34898540D03*
X4260000Y62370000D03*
X75130000Y54830000D03*
X79690000Y28820000D03*
X50254992Y38855008D03*
X75775500Y43700000D03*
X83300000Y29800000D03*
X68000000Y37700000D03*
X82150000Y23660000D03*
X59360000Y7640000D03*
X38674500Y42600000D03*
X58700000Y56350000D03*
X58600000Y46400000D03*
X61000000Y61700000D03*
X67550000Y47900000D03*
X67687701Y33787701D03*
X75180000Y58670000D03*
X7200000Y72700000D03*
X76475000Y3800000D03*
X59050000Y55300000D03*
X47900000Y74400000D03*
X51390000Y49199989D03*
X54620000Y8870000D03*
X53900000Y29900000D03*
X17600000Y57000000D03*
X24200000Y39275500D03*
X47690000Y8840000D03*
X56250000Y57150000D03*
X42450000Y8460000D03*
X48700000Y19826944D03*
X44710000Y51560000D03*
X35650000Y91600000D03*
X44200000Y54100000D03*
X17250000Y12500000D03*
X47100000Y24800000D03*
X66100000Y10100000D03*
X69600000Y54649500D03*
X45449500Y38925500D03*
X41300000Y62950000D03*
X80070000Y16890000D03*
X53400000Y56350000D03*
X5480000Y36720000D03*
X7750000Y23230000D03*
X7960000Y65840000D03*
X73200000Y75000000D03*
X6330000Y29360000D03*
X20880000Y19170000D03*
X62387701Y55712299D03*
X73600000Y54100000D03*
X53100000Y35700000D03*
X80124500Y75800000D03*
X25800000Y62800000D03*
X54830000Y6490000D03*
X66500000Y71500000D03*
X39100000Y76600000D03*
X5590000Y27320000D03*
X49250000Y24174500D03*
X35850000Y45750000D03*
X9340000Y47230000D03*
X19500000Y50400000D03*
X64600000Y31100000D03*
X30250000Y37500000D03*
X64100000Y64200000D03*
X6890000Y54870000D03*
X67100000Y56000000D03*
X72500000Y33438030D03*
X49700000Y35800000D03*
X37600008Y72300000D03*
X80550000Y57000000D03*
X69600000Y77200000D03*
X5860000Y40140000D03*
X44230000Y48000000D03*
X38400000Y16150000D03*
X24600000Y22600000D03*
X74222701Y59300000D03*
X31700000Y7400000D03*
X65500000Y44950000D03*
X18675500Y69800000D03*
X7960000Y13830000D03*
X51500000Y37400000D03*
X15300000Y6800000D03*
X37300000Y59500000D03*
X86600000Y13600000D03*
X63800000Y26000000D03*
X7730000Y64340000D03*
X77537956Y47115473D03*
X20700000Y27600000D03*
X60700000Y42800000D03*
X71820000Y70220000D03*
X27500000Y20000000D03*
X20150000Y32700000D03*
X19300000Y33750000D03*
X1800000Y82700000D03*
X45000000Y47200000D03*
X67400000Y59500000D03*
X31600000Y14700000D03*
X70360000Y7580000D03*
X85100000Y13600000D03*
X43373809Y36404080D03*
X75550000Y63250000D03*
X74600000Y49400000D03*
X81240000Y52920000D03*
X38140000Y89180000D03*
X39150000Y15450000D03*
X24700000Y32224500D03*
X56670000Y52500998D03*
X51450000Y55350000D03*
X52600000Y66300000D03*
X46350000Y28324500D03*
X66750000Y49350000D03*
X74550000Y62250000D03*
X72470497Y66620000D03*
X13100000Y18300000D03*
X73050000Y40200000D03*
X63050000Y47675500D03*
X76440000Y28730000D03*
X73303571Y37000000D03*
X74850000Y46350000D03*
X68200000Y43600000D03*
X64900000Y61000000D03*
X60598056Y29001944D03*
%TO.N,/ADCS_VDD*%
X7300000Y77900000D03*
X44710000Y49800000D03*
X66790000Y69690000D03*
X52000000Y56550000D03*
X69150000Y56300000D03*
X75600000Y34780000D03*
X68200000Y68940000D03*
X6940000Y67860000D03*
X4250000Y63940000D03*
X75775500Y44900000D03*
X44600000Y41200000D03*
X70950000Y56200000D03*
X73300000Y52300000D03*
X76010000Y48320000D03*
X74350000Y41100000D03*
X74847299Y39272701D03*
X23800000Y73700000D03*
X7240000Y70070000D03*
X77400000Y63000000D03*
X53800000Y58300000D03*
X72170000Y27320000D03*
X46600000Y26800000D03*
X61800000Y68699500D03*
X61600000Y71300000D03*
X56300000Y30200000D03*
X63300000Y70000000D03*
X36400000Y76700000D03*
X72800000Y48600000D03*
%TO.N,/OBC module/3V3_LCLPROT_MRAM*%
X67600000Y26000000D03*
X67600000Y28900000D03*
X62950000Y33800000D03*
%TO.N,/ADCS module/Microcontroller/MCU_VDDCORE*%
X62900000Y28300000D03*
X71200000Y33500000D03*
X45803305Y51672096D03*
X46280000Y46754500D03*
X53650000Y26975500D03*
X57700000Y55300000D03*
X72500000Y46500000D03*
X43300000Y31300000D03*
%TO.N,/OBC module/3V3_PROT*%
X57750000Y57250000D03*
X47600000Y15400000D03*
X72300000Y43000000D03*
X20700000Y26400000D03*
X17600000Y58900000D03*
X67300000Y10000000D03*
X49600000Y34500000D03*
X63100000Y42100000D03*
X61100000Y10000000D03*
X15200000Y18730000D03*
X23860000Y40640000D03*
X11350000Y63950000D03*
X19700000Y30700000D03*
X68496928Y64136036D03*
X20199500Y59600000D03*
X63300000Y39300000D03*
X51400000Y46200000D03*
X28800000Y62000000D03*
X56600000Y42450000D03*
X36680000Y67990000D03*
X60800000Y77600000D03*
X6650000Y34600000D03*
X24400000Y15000000D03*
X46800000Y49599500D03*
X17870000Y61140000D03*
X13620000Y36750000D03*
X14200000Y11300000D03*
X67200000Y46050000D03*
X54400000Y61500000D03*
X20000000Y22700000D03*
X18700000Y35500000D03*
X21537701Y61937701D03*
X20550000Y35430000D03*
X51650000Y74100000D03*
X45000000Y76000000D03*
X12770000Y19940000D03*
X22300000Y64225000D03*
X45100000Y64200000D03*
X7750000Y21080000D03*
X49200000Y22500000D03*
X39800000Y42449000D03*
X43000000Y76500000D03*
X32500000Y71800000D03*
X60100000Y52400000D03*
X67150000Y50450000D03*
X62050000Y76150000D03*
X63350000Y35650000D03*
X30900000Y59600000D03*
X50300000Y24850000D03*
X61800000Y79150000D03*
X37200000Y15900000D03*
%TO.N,/OBC module/MCU_VDDCORE*%
X36000000Y42000000D03*
X51600000Y35600000D03*
X39250000Y14050000D03*
X32800000Y13700000D03*
X20700000Y20300000D03*
X50500000Y19900000D03*
X21350000Y32700000D03*
%TO.N,/EPS_3V3_OBC*%
X4000000Y66800000D03*
%TO.N,/EPS_3V3_ADCS*%
X4100000Y69900000D03*
%TO.N,/OBC module/MEM_NAND_ENABLE_1*%
X25187701Y44687701D03*
X19000000Y54000000D03*
%TO.N,/OBC module/MEM_NAND_ENABLE_2*%
X16500000Y53650000D03*
X20880000Y43100000D03*
%TO.N,/OBC module/MEM_NAND_WR_PROTECT*%
X17601153Y44511153D03*
X26450000Y37400000D03*
%TO.N,/OBC module/MEM_D0*%
X38900000Y24150000D03*
X37700000Y28900000D03*
X63500000Y17500000D03*
%TO.N,/OBC module/MEM_D1*%
X65500000Y16600000D03*
X35900000Y28800000D03*
%TO.N,/OBC module/MEM_D2*%
X34100000Y28800000D03*
X67200000Y15850000D03*
%TO.N,/OBC module/MEM_D3*%
X32630000Y29610000D03*
X68300000Y14400000D03*
%TO.N,/OBC module/MEM_D4*%
X58600000Y30000000D03*
X38700000Y36700000D03*
%TO.N,/OBC module/MEM_D5*%
X37550000Y48700000D03*
X31375500Y33550000D03*
X31400000Y46400000D03*
X67500000Y22300000D03*
%TO.N,/OBC module/MEM_D6*%
X34250000Y48800000D03*
X37500000Y50750000D03*
X65831600Y22356199D03*
X32700000Y35800000D03*
%TO.N,/OBC module/MEM_D7*%
X64100000Y22500000D03*
X33009668Y33940332D03*
%TO.N,/OBC module/LCL_MRAM_SET*%
X61900000Y40500000D03*
X57100000Y26250000D03*
%TO.N,/OBC module/LCL_MRAM_RST*%
X63300000Y37500000D03*
X56740000Y24460000D03*
%TO.N,/OBC module/LCL_CAN_1_SET*%
X47004429Y60955706D03*
X43800000Y71400000D03*
%TO.N,/OBC module/LCL_CAN_1_RST*%
X43250000Y59925000D03*
X43700000Y65900000D03*
%TO.N,/OBC module/LCL_CAN1_OP-AMP_OUT*%
X58000000Y65800000D03*
X72550000Y57650000D03*
%TO.N,/I2C_MTQ_SDA*%
X78274500Y42500000D03*
X65400000Y43800000D03*
X37950000Y41724500D03*
X36530000Y63900000D03*
%TO.N,/I2C_MTQ_SCK*%
X53900000Y40275500D03*
X24970104Y38375431D03*
X32970000Y60770000D03*
X80800000Y54100000D03*
%TO.N,/OBC module/Connectors/SU_SWCLK*%
X80300000Y69350000D03*
X81549312Y38950688D03*
%TO.N,/OBC module/Connectors/SU_SWDIO*%
X81600000Y35100000D03*
X78450000Y66550000D03*
%TO.N,/ADCS_SWDIO*%
X7380000Y48810000D03*
X77760000Y48090000D03*
X14100000Y3400000D03*
%TO.N,/OBC_UART_TX*%
X3800000Y58700000D03*
X27280000Y35910000D03*
%TO.N,/OBC_UART_RX*%
X18400000Y39500000D03*
X4405000Y55815000D03*
%TO.N,/ADCS_UART_TX*%
X16600000Y67400000D03*
%TO.N,/ADCS_UART_RX*%
X16000000Y69300000D03*
%TO.N,/ADCS_SWCLK*%
X8220000Y50870000D03*
X74900000Y42950000D03*
X39970000Y4900000D03*
%TO.N,/ADCS_RESET*%
X5050000Y61750000D03*
X56800000Y40000000D03*
%TO.N,/EPS_5V_PANELS*%
X60410000Y7510000D03*
X6525000Y23320000D03*
X82170000Y22620000D03*
X53740000Y6470000D03*
%TO.N,/OBC module/MCU_SWCLK*%
X26770000Y30320000D03*
X11020000Y41390000D03*
%TO.N,/OBC module/MCU_SWDIO*%
X25080000Y34930000D03*
X13205000Y41245000D03*
%TO.N,/ADM_ENABLE_1*%
X61550000Y50770000D03*
X42200000Y44800000D03*
X75350000Y57650000D03*
%TO.N,/ADM_ENABLE_2*%
X75300000Y55850000D03*
X35800000Y38600000D03*
%TO.N,/OBC module/MCU_TRACECLK*%
X27200000Y17200000D03*
X23430000Y7820000D03*
%TO.N,/OBC module/MCU_TRACED_3*%
X26000000Y21500000D03*
X25750000Y10400000D03*
%TO.N,/OBC module/MCU_TRACED_2*%
X27700000Y22500000D03*
X26995000Y9135000D03*
%TO.N,/OBC module/MCU_TRACED_1*%
X28680000Y9130000D03*
X30500000Y21600000D03*
%TO.N,/OBC module/MCU_TRACED_0*%
X32200000Y20700000D03*
X31400000Y8800000D03*
%TO.N,/OBC module/MEM_MRAM_ENABLE*%
X62800000Y9400000D03*
X31900000Y22700000D03*
%TO.N,/OBC module/MEM_MRAM_WR_ENABLE*%
X33600000Y22800000D03*
X69210000Y9920000D03*
%TO.N,/ADCS module/I2C_SDA_SENS*%
X70250000Y63900000D03*
X74500000Y60950000D03*
X55620000Y51820000D03*
%TO.N,VDD_ENABLE*%
X73470000Y66620000D03*
X39450000Y38750000D03*
%TO.N,/OBC module/I2C_SDA_SENS*%
X19000000Y21320000D03*
X22550000Y15050000D03*
X17900000Y13950000D03*
%TO.N,/OBC module/LCL_PWM_CAN1*%
X44900000Y60900000D03*
X47200000Y63500000D03*
%TO.N,/OBC module/LCL_PWM_MRAM*%
X55150000Y25850000D03*
X60087299Y34087299D03*
%TO.N,/OBC module/LCL_PWM_NAND*%
X57700000Y34100000D03*
X55600000Y28600000D03*
%TO.N,/OBC module/MEM_A20*%
X32550000Y37550000D03*
X28900000Y11400000D03*
%TO.N,/OBC module/MEM_A5*%
X35450000Y17050000D03*
X69200000Y16600000D03*
%TO.N,/OBC module/MEM_A6*%
X35400000Y20000000D03*
X70700960Y14789040D03*
%TO.N,/OBC module/MEM_A7*%
X34900000Y21700000D03*
X71370000Y11540000D03*
%TO.N,/OBC module/MEM_A8*%
X40750000Y24500000D03*
X71100000Y17700000D03*
%TO.N,/OBC module/MEM_A9*%
X73100000Y18600000D03*
X42550000Y24600000D03*
%TO.N,/OBC module/MEM_A10*%
X71200000Y26000000D03*
X34100000Y32500000D03*
%TO.N,/OBC module/MEM_A11*%
X72300000Y22500000D03*
X39887877Y27669050D03*
%TO.N,/OBC module/MEM_A12*%
X39200000Y26050000D03*
X70800000Y21000000D03*
%TO.N,/OBC module/MEM_A13*%
X68800000Y19900000D03*
X41400000Y26150000D03*
%TO.N,/OBC module/MEM_MRAM_OUT_ENABLE*%
X63600000Y14400000D03*
X29800000Y27650000D03*
%TO.N,/OBC module/MEM_A17*%
X53040000Y13980000D03*
X30350000Y23550000D03*
%TO.N,/OBC module/MEM_A18*%
X29900000Y25200000D03*
X51250000Y13700000D03*
%TO.N,/OBC module/MEM_A19*%
X52720273Y28469773D03*
X36600000Y34800000D03*
%TO.N,/ADCS module/CAN_TX_1*%
X49700000Y48600000D03*
X29255000Y75745000D03*
%TO.N,/ADCS module/CAN_RX_1*%
X50090000Y50240500D03*
X42710000Y68215313D03*
%TO.N,/ADCS module/CAN_TX_2*%
X67900000Y40600000D03*
X11300000Y77175500D03*
%TO.N,/ADCS module/CAN_RX_2*%
X7045000Y73955000D03*
X50200000Y42350000D03*
%TO.N,/ADCS module/CAN_FAULT_2*%
X40020000Y56600000D03*
X49425500Y55270000D03*
%TO.N,/ADCS module/CAN_SILENT_2*%
X53000000Y42200000D03*
X11370000Y79060000D03*
%TO.N,/OBC module/CAN_RX_2*%
X29160000Y32870000D03*
X12910498Y74524500D03*
%TO.N,/OBC module/CAN_FAULT_2*%
X20100000Y40850000D03*
X9700000Y79600000D03*
%TO.N,/OBC module/CAN_TX_1*%
X17400000Y72400000D03*
X39420000Y32380000D03*
%TO.N,/OBC module/CAN_RX_1*%
X42300000Y35700000D03*
X22400000Y74900000D03*
%TO.N,/OBC module/CAN_SILENT_1*%
X17900000Y78900000D03*
X19400000Y67800000D03*
%TO.N,/OBC module/CAN_FAULT_1*%
X22400000Y79200000D03*
X20400000Y66000000D03*
%TO.N,/OBC module/MCU_ERASE*%
X9150000Y36860000D03*
X25359040Y31149040D03*
%TO.N,/OBC module/CAN_TX_2*%
X9000000Y77400000D03*
X26900000Y28700000D03*
%TO.N,/OBC module/CAN_SILENT_2*%
X7300000Y82600000D03*
X21200000Y39350000D03*
%TO.N,CAN1-*%
X73875055Y68797621D03*
X83405280Y41811091D03*
X13450000Y71304998D03*
X80849000Y63900000D03*
X27700000Y79750500D03*
%TO.N,CAN1+*%
X27700000Y78650500D03*
X80849000Y62800000D03*
X74652873Y68019803D03*
X14550000Y71304998D03*
X82627462Y42588909D03*
%TO.N,CAN2-*%
X2950000Y79900000D03*
X10961091Y83688909D03*
X80325998Y71600000D03*
X83337163Y32450000D03*
%TO.N,CAN2+*%
X1850000Y79900000D03*
X83337163Y31350000D03*
X11738909Y82911091D03*
X80325998Y72700000D03*
%TO.N,/OBC module/NRST_OBC*%
X25800000Y32800000D03*
X16070000Y50400000D03*
X11370000Y61930000D03*
X14480000Y34650000D03*
%TO.N,AC_GND_1*%
X4600000Y87400000D03*
X3200000Y87400000D03*
X6000000Y87400000D03*
%TO.N,AC_GND_2*%
X85200000Y9100000D03*
X81275000Y5200000D03*
X86500000Y9100000D03*
X81275000Y3900000D03*
%TO.N,I2C_SDA_PANELS*%
X65250000Y6300000D03*
X5440000Y20100000D03*
X78820000Y29410000D03*
X5440000Y26280000D03*
X81650000Y21100000D03*
X51610000Y7280000D03*
X25200000Y29400000D03*
%TO.N,I2C_SCK_PANELS*%
X4400000Y36320000D03*
X4400000Y28630000D03*
X82700000Y19740000D03*
X50290000Y6100000D03*
X77340000Y27870000D03*
X63450000Y4900000D03*
X19700000Y38200000D03*
%TO.N,/EPS_GPIO_1*%
X28040000Y59380000D03*
X41160000Y76210000D03*
%TO.N,/EPS_TX*%
X5310000Y53160000D03*
%TO.N,/EPS_GPIO_3*%
X25630000Y60240000D03*
%TO.N,/EPS_GPIO_2*%
X36200000Y65670000D03*
%TO.N,/EPS_GPIO_4*%
X26530000Y58150000D03*
%TO.N,/OBC module/PAY_SWITCH*%
X12930000Y21900000D03*
X8110000Y17360000D03*
%TO.N,/ADCS module/MCU_ERASE*%
X81350000Y58030000D03*
X77760000Y45740000D03*
%TD*%
D16*
%TO.N,/I2C_MTQ_SDA*%
X78274500Y42500000D02*
X78274500Y42824500D01*
X53410000Y82660000D02*
X53410000Y83572493D01*
X70420000Y84570000D02*
X66109000Y84570000D01*
X63627000Y84530000D02*
X64848000Y83309000D01*
X40040000Y67410000D02*
X40040000Y69290000D01*
X53410000Y83572493D02*
X54367507Y84530000D01*
X71140000Y83850000D02*
X70420000Y84570000D01*
X78274500Y42824500D02*
X83460000Y48010000D01*
X66109000Y84570000D02*
X64848000Y83309000D01*
X79476018Y82020000D02*
X71730000Y82020000D01*
X71140000Y82610000D02*
X71140000Y83850000D01*
X40040000Y69290000D02*
X53410000Y82660000D01*
X71730000Y82020000D02*
X71140000Y82610000D01*
X36530000Y63900000D02*
X40040000Y67410000D01*
X83460000Y48010000D02*
X83460000Y78036018D01*
X54367507Y84530000D02*
X63627000Y84530000D01*
X83460000Y78036018D02*
X79476018Y82020000D01*
%TO.N,/I2C_MTQ_SCK*%
X53875500Y40300000D02*
X50430000Y40300000D01*
X34174569Y38375431D02*
X24970104Y38375431D01*
X57000000Y81850000D02*
X65929000Y81850000D01*
X79250000Y77045000D02*
X78528230Y77045000D01*
X78140000Y81570000D02*
X79250000Y80460000D01*
X79250000Y55650000D02*
X80800000Y54100000D01*
X79971770Y77945000D02*
X79250000Y77945000D01*
X50430000Y40300000D02*
X47730000Y37600000D01*
X41030000Y65350000D02*
X41030000Y68390000D01*
X79250000Y74345000D02*
X78528230Y74345000D01*
X79298385Y75245000D02*
X79250000Y75245000D01*
X79250000Y76145000D02*
X78528230Y76145000D01*
X79250000Y75245000D02*
X78528230Y75245000D01*
X79025000Y78395000D02*
X79971770Y78395000D01*
X78528230Y74795000D02*
X79250000Y74795000D01*
X79496770Y76471615D02*
X79496770Y76268385D01*
X78528230Y75695000D02*
X79250000Y75695000D01*
X79250000Y74795000D02*
X79971770Y74795000D01*
X78528230Y76595000D02*
X79250000Y76595000D01*
X79250000Y77945000D02*
X78528230Y77945000D01*
X78528230Y77495000D02*
X79250000Y77495000D01*
X79250000Y76595000D02*
X79373385Y76595000D01*
X79250000Y73670000D02*
X79250000Y70403665D01*
X79373385Y76145000D02*
X79250000Y76145000D01*
X78528230Y78395000D02*
X79025000Y78395000D01*
X47730000Y37600000D02*
X34950000Y37600000D01*
X34950000Y37600000D02*
X34174569Y38375431D01*
X53900000Y40275500D02*
X53875500Y40300000D01*
X65929000Y81850000D02*
X67388000Y83309000D01*
X79025000Y78845000D02*
X78528230Y78845000D01*
X79346770Y75646615D02*
X79346770Y75293385D01*
X79971770Y77045000D02*
X79250000Y77045000D01*
X67388000Y83309000D02*
X69127000Y81570000D01*
X79250000Y70403665D02*
X79250000Y55650000D01*
X44390000Y69240000D02*
X57000000Y81850000D01*
X32970000Y60770000D02*
X36450000Y60770000D01*
X41880000Y69240000D02*
X44390000Y69240000D01*
X78528230Y73895000D02*
X79025000Y73895000D01*
X79971770Y74345000D02*
X79250000Y74345000D01*
X41030000Y68390000D02*
X41880000Y69240000D01*
X79250000Y75695000D02*
X79298385Y75695000D01*
X79250000Y77495000D02*
X79971770Y77495000D01*
X79250000Y80460000D02*
X79250000Y79070000D01*
X36450000Y60770000D02*
X41030000Y65350000D01*
X69127000Y81570000D02*
X78140000Y81570000D01*
X78303200Y77720000D02*
G75*
G02*
X78528230Y77945000I225000J0D01*
G01*
X78528230Y74795030D02*
G75*
G02*
X78303230Y75020000I-30J224970D01*
G01*
X80196800Y78170000D02*
G75*
G03*
X79971770Y78395000I-225000J0D01*
G01*
X79971770Y77945030D02*
G75*
G03*
X80196770Y78170000I30J224970D01*
G01*
X79250000Y73670000D02*
G75*
G03*
X79025000Y73895000I-225000J0D01*
G01*
X78528230Y77495030D02*
G75*
G02*
X78303230Y77720000I-30J224970D01*
G01*
X79346800Y75646615D02*
G75*
G03*
X79298385Y75695000I-48400J-15D01*
G01*
X79025000Y78845000D02*
G75*
G03*
X79250000Y79070000I0J225000D01*
G01*
X78528230Y76595030D02*
G75*
G02*
X78303230Y76820000I-30J224970D01*
G01*
X78303200Y76820000D02*
G75*
G02*
X78528230Y77045000I225000J0D01*
G01*
X78303200Y75020000D02*
G75*
G02*
X78528230Y75245000I225000J0D01*
G01*
X79971770Y77045030D02*
G75*
G03*
X80196770Y77270000I30J224970D01*
G01*
X79496800Y76471615D02*
G75*
G03*
X79373385Y76595000I-123400J-15D01*
G01*
X80196800Y77270000D02*
G75*
G03*
X79971770Y77495000I-225000J0D01*
G01*
X78528230Y73895030D02*
G75*
G02*
X78303230Y74120000I-30J224970D01*
G01*
X78303200Y78620000D02*
G75*
G02*
X78528230Y78845000I225000J0D01*
G01*
X78303200Y75920000D02*
G75*
G02*
X78528230Y76145000I225000J0D01*
G01*
X79373385Y76145030D02*
G75*
G03*
X79496770Y76268385I15J123370D01*
G01*
X78528230Y78395030D02*
G75*
G02*
X78303230Y78620000I-30J224970D01*
G01*
X79971770Y74345030D02*
G75*
G03*
X80196770Y74570000I30J224970D01*
G01*
X78303200Y74120000D02*
G75*
G02*
X78528230Y74345000I225000J0D01*
G01*
X80196800Y74570000D02*
G75*
G03*
X79971770Y74795000I-225000J0D01*
G01*
X79298385Y75245030D02*
G75*
G03*
X79346770Y75293385I15J48370D01*
G01*
X78528230Y75695030D02*
G75*
G02*
X78303230Y75920000I-30J224970D01*
G01*
%TO.N,/ADCS_RESET*%
X56800000Y40000000D02*
X55600000Y41200000D01*
X19410000Y49090000D02*
X9480000Y59020000D01*
X49910000Y41200000D02*
X48410000Y39700000D01*
X48410000Y39700000D02*
X33620000Y39700000D01*
X55600000Y41200000D02*
X49910000Y41200000D01*
X9480000Y59020000D02*
X6610000Y59020000D01*
X6610000Y59020000D02*
X5050000Y60580000D01*
X24230000Y49090000D02*
X19410000Y49090000D01*
X33620000Y39700000D02*
X24230000Y49090000D01*
X5050000Y60580000D02*
X5050000Y61750000D01*
%TO.N,/ADM_ENABLE_1*%
X75350000Y57650000D02*
X69810000Y52110000D01*
X66840000Y52110000D02*
X62890000Y52110000D01*
X69810000Y52110000D02*
X67650000Y52110000D01*
X62890000Y52110000D02*
X61550000Y50770000D01*
X67650000Y52110000D02*
X66840000Y52110000D01*
%TO.N,/ADCS module/I2C_SDA_SENS*%
X70000000Y60860000D02*
X70000000Y63650000D01*
X55620000Y51820000D02*
X56540000Y50900000D01*
X70250000Y63900000D02*
X71800000Y63900000D01*
X56540000Y50900000D02*
X60040000Y50900000D01*
X71800000Y63900000D02*
X74500000Y61200000D01*
X60040000Y50900000D02*
X70000000Y60860000D01*
X74500000Y61200000D02*
X74500000Y60950000D01*
X70000000Y63650000D02*
X70250000Y63900000D01*
%TO.N,/ADCS module/CAN_TX_1*%
X48800000Y51000000D02*
X48800000Y49500000D01*
X29255000Y75745000D02*
X29730000Y75270000D01*
X44900000Y54900000D02*
X48800000Y51000000D01*
X29730000Y75270000D02*
X29730000Y58250000D01*
X29730000Y58250000D02*
X33080000Y54900000D01*
X33080000Y54900000D02*
X44900000Y54900000D01*
X48800000Y49500000D02*
X49700000Y48600000D01*
%TO.N,/ADCS module/CAN_RX_1*%
X50650000Y50800500D02*
X50090000Y50240500D01*
X48900000Y62100000D02*
X50650000Y60350000D01*
X42710000Y64590000D02*
X45200000Y62100000D01*
X42710000Y68215313D02*
X42710000Y64590000D01*
X50650000Y60350000D02*
X50650000Y50800500D01*
X45200000Y62100000D02*
X48900000Y62100000D01*
%TO.N,/ADCS module/CAN_TX_2*%
X46900000Y50800000D02*
X47700000Y50000000D01*
X23300000Y68400000D02*
X23300000Y58900000D01*
X47700000Y48150000D02*
X48625000Y47225000D01*
X23300000Y58900000D02*
X28660000Y53540000D01*
X40100000Y51400000D02*
X42600000Y51400000D01*
X52675000Y47225000D02*
X54230000Y45670000D01*
X54230000Y45670000D02*
X60840000Y45670000D01*
X47700000Y50000000D02*
X47700000Y48150000D01*
X65910000Y40600000D02*
X67900000Y40600000D01*
X42600000Y51400000D02*
X43200000Y50800000D01*
X14524500Y77175500D02*
X23300000Y68400000D01*
X48625000Y47225000D02*
X52675000Y47225000D01*
X11300000Y77175500D02*
X14524500Y77175500D01*
X37960000Y53540000D02*
X40100000Y51400000D01*
X43200000Y50800000D02*
X46900000Y50800000D01*
X28660000Y53540000D02*
X37960000Y53540000D01*
X60840000Y45670000D02*
X65910000Y40600000D01*
%TO.N,/ADCS module/CAN_RX_2*%
X46600000Y44350000D02*
X49350000Y44350000D01*
X49350000Y44350000D02*
X50200000Y43500000D01*
X9900000Y62160000D02*
X14335000Y57725000D01*
X27950000Y52450000D02*
X37050000Y52450000D01*
X9900000Y71100000D02*
X9900000Y62160000D01*
X7045000Y73955000D02*
X9900000Y71100000D01*
X39400000Y50100000D02*
X40850000Y50100000D01*
X50200000Y43500000D02*
X50200000Y42350000D01*
X14335000Y57725000D02*
X22675000Y57725000D01*
X40850000Y50100000D02*
X46600000Y44350000D01*
X37050000Y52450000D02*
X39400000Y50100000D01*
X22675000Y57725000D02*
X27950000Y52450000D01*
%TO.N,/ADCS module/CAN_FAULT_2*%
X41980000Y57700000D02*
X44650000Y57700000D01*
X47080000Y55270000D02*
X49425500Y55270000D01*
X40880000Y56600000D02*
X41980000Y57700000D01*
X40020000Y56600000D02*
X40880000Y56600000D01*
X44650000Y57700000D02*
X47080000Y55270000D01*
%TO.N,/ADCS module/CAN_SILENT_2*%
X39700000Y50750000D02*
X41390000Y50750000D01*
X49900000Y46300000D02*
X53000000Y43200000D01*
X53000000Y43200000D02*
X53000000Y42200000D01*
X43340000Y48800000D02*
X45894283Y48800000D01*
X37470000Y52980000D02*
X39700000Y50750000D01*
X22650480Y58549520D02*
X28220000Y52980000D01*
X45894283Y48800000D02*
X48394283Y46300000D01*
X10300000Y71900000D02*
X22650480Y59549520D01*
X11370000Y79060000D02*
X11370000Y78770000D01*
X22650480Y59549520D02*
X22650480Y58549520D01*
X28220000Y52980000D02*
X37470000Y52980000D01*
X10300000Y77700000D02*
X10300000Y71900000D01*
X41390000Y50750000D02*
X43340000Y48800000D01*
X11370000Y78770000D02*
X10300000Y77700000D01*
X48394283Y46300000D02*
X49900000Y46300000D01*
D17*
%TO.N,CAN2-*%
X13285333Y88389000D02*
X12115000Y87218667D01*
X12115000Y84985000D02*
X12115000Y84935000D01*
X11420710Y83688909D02*
X10961091Y83688909D01*
X12115000Y84383199D02*
X11420710Y83688909D01*
X11594201Y85860000D02*
X11940000Y85860000D01*
X11940000Y85510000D02*
X11594201Y85510000D01*
X14048000Y88389000D02*
X13285333Y88389000D01*
X12115000Y84935000D02*
X12115000Y84383199D01*
X12115000Y87218667D02*
X12115000Y86385000D01*
X11594201Y85160000D02*
X11940000Y85160000D01*
X11940000Y86210000D02*
X11594201Y86210000D01*
X11419200Y86035000D02*
G75*
G02*
X11594201Y86210000I175000J0D01*
G01*
X12115000Y85685000D02*
G75*
G03*
X11940000Y85860000I-175000J0D01*
G01*
X11940000Y85510000D02*
G75*
G03*
X12115000Y85685000I0J175000D01*
G01*
X12115000Y84985000D02*
G75*
G03*
X11940000Y85160000I-175000J0D01*
G01*
X11594201Y85160001D02*
G75*
G02*
X11419201Y85335000I-1J174999D01*
G01*
X11419200Y85335000D02*
G75*
G02*
X11594201Y85510000I175000J0D01*
G01*
X11940000Y86210000D02*
G75*
G03*
X12115000Y86385000I0J175000D01*
G01*
X11594201Y85860001D02*
G75*
G02*
X11419201Y86035000I-1J174999D01*
G01*
%TO.N,CAN2+*%
X11738909Y83370710D02*
X11738909Y82911091D01*
X12565000Y86915000D02*
X12565000Y84196801D01*
X12930000Y87280000D02*
X12565000Y86915000D01*
X15479000Y87280000D02*
X12930000Y87280000D01*
X12565000Y84196801D02*
X11738909Y83370710D01*
X16588000Y88389000D02*
X15479000Y87280000D01*
D16*
%TO.N,/EPS_GPIO_1*%
X28660000Y76740000D02*
X28040000Y76120000D01*
X34480305Y75875000D02*
X33615305Y76740000D01*
X33615305Y76740000D02*
X28660000Y76740000D01*
X28040000Y76120000D02*
X28040000Y59380000D01*
X41160000Y76210000D02*
X40825000Y75875000D01*
X40825000Y75875000D02*
X34480305Y75875000D01*
%TO.N,/EPS_TX*%
X3075000Y55385000D02*
X4710000Y53750000D01*
X16900000Y81360000D02*
X17850000Y82310000D01*
X38189000Y87130000D02*
X39448000Y88389000D01*
X8850000Y81360000D02*
X16900000Y81360000D01*
X3075000Y75435000D02*
X3075000Y55385000D01*
X5300000Y53160000D02*
X5310000Y53160000D01*
X3370000Y75880000D02*
X8850000Y81360000D01*
X3370000Y75730000D02*
X3370000Y75880000D01*
X18400000Y87130000D02*
X38189000Y87130000D01*
X4710000Y53750000D02*
X5300000Y53160000D01*
X17850000Y86580000D02*
X18400000Y87130000D01*
X17850000Y82310000D02*
X17850000Y86580000D01*
X3370000Y75730000D02*
X3075000Y75435000D01*
%TO.N,/EPS_GPIO_3*%
X40740000Y91810000D02*
X41310000Y92380000D01*
X73557000Y92380000D02*
X75008000Y90929000D01*
X27440000Y81080000D02*
X40250000Y81080000D01*
X24730000Y78370000D02*
X27440000Y81080000D01*
X40250000Y81080000D02*
X40740000Y81570000D01*
X25630000Y60240000D02*
X24730000Y61140000D01*
X40740000Y81570000D02*
X40740000Y91810000D01*
X41310000Y92380000D02*
X73557000Y92380000D01*
X24730000Y61140000D02*
X24730000Y78370000D01*
%TO.N,/EPS_GPIO_2*%
X76189000Y87030000D02*
X46420000Y87030000D01*
X38680000Y70250000D02*
X38680000Y68150000D01*
X44060000Y80170000D02*
X44060000Y75630000D01*
X38680000Y68150000D02*
X36200000Y65670000D01*
X77548000Y88389000D02*
X76189000Y87030000D01*
X45840000Y86450000D02*
X45840000Y81950000D01*
X45840000Y81950000D02*
X44060000Y80170000D01*
X44060000Y75630000D02*
X38680000Y70250000D01*
X46420000Y87030000D02*
X45840000Y86450000D01*
%TO.N,/EPS_GPIO_4*%
X76199000Y89580000D02*
X77548000Y90929000D01*
X30190000Y79830000D02*
X40640000Y79830000D01*
X43210000Y82400000D02*
X43210000Y88972493D01*
X40640000Y79830000D02*
X43210000Y82400000D01*
X43210000Y88972493D02*
X43817507Y89580000D01*
X43817507Y89580000D02*
X76199000Y89580000D01*
X26530000Y58150000D02*
X26870000Y58490000D01*
X26870000Y76510000D02*
X30190000Y79830000D01*
X26870000Y58490000D02*
X26870000Y76510000D01*
%TO.N,/ADCS module/MCU_ERASE*%
X79800000Y45740000D02*
X82340000Y48280000D01*
X82340000Y48280000D02*
X82340000Y57040000D01*
X82340000Y57040000D02*
X81350000Y58030000D01*
X77760000Y45740000D02*
X79800000Y45740000D01*
%TD*%
%TA.AperFunction,Conductor*%
%TO.N,/EPS_5V_PANELS*%
G36*
X88892449Y86368384D02*
G01*
X88929009Y86319324D01*
X88934211Y86289643D01*
X88979340Y84108726D01*
X88986511Y83762202D01*
X88968811Y83703633D01*
X88939259Y83675743D01*
X88782702Y83579804D01*
X88633029Y83451971D01*
X88505196Y83302298D01*
X88478526Y83258776D01*
X88429044Y83178029D01*
X88402351Y83134471D01*
X88400866Y83130886D01*
X88400863Y83130880D01*
X88376391Y83071798D01*
X88327026Y82952621D01*
X88326120Y82948847D01*
X88326119Y82948844D01*
X88292639Y82809391D01*
X88281076Y82761226D01*
X88280772Y82757361D01*
X88280771Y82757356D01*
X88268180Y82597369D01*
X88267307Y82589909D01*
X88264391Y82571177D01*
X88265306Y82564181D01*
X88268664Y82538500D01*
X88269500Y82525664D01*
X88269500Y13611649D01*
X88268321Y13596419D01*
X88264391Y13571177D01*
X88265305Y13564186D01*
X88265305Y13564184D01*
X88265959Y13559185D01*
X88266489Y13554118D01*
X88280285Y13378829D01*
X88281076Y13368774D01*
X88281982Y13365001D01*
X88281982Y13365000D01*
X88323190Y13193359D01*
X88327026Y13177379D01*
X88328513Y13173789D01*
X88400863Y12999120D01*
X88400866Y12999114D01*
X88402351Y12995529D01*
X88404380Y12992218D01*
X88404382Y12992214D01*
X88434912Y12942394D01*
X88505196Y12827702D01*
X88633029Y12678029D01*
X88782702Y12550196D01*
X88859374Y12503211D01*
X88947214Y12449382D01*
X88947218Y12449380D01*
X88950529Y12447351D01*
X88954114Y12445866D01*
X88954120Y12445863D01*
X89128789Y12373513D01*
X89132379Y12372026D01*
X89136153Y12371120D01*
X89136156Y12371119D01*
X89237189Y12346863D01*
X89323774Y12326076D01*
X89416836Y12318752D01*
X89479829Y12313794D01*
X89488484Y12312727D01*
X89503872Y12310138D01*
X89503884Y12310137D01*
X89507646Y12309504D01*
X89513562Y12309432D01*
X89513823Y12309391D01*
X89514085Y12309425D01*
X89520000Y12309353D01*
X89523780Y12309894D01*
X89527597Y12310143D01*
X89527630Y12309641D01*
X89551809Y12309462D01*
X89552258Y12309391D01*
X89581612Y12304742D01*
X89611072Y12295170D01*
X89652680Y12273969D01*
X89677738Y12255764D01*
X89710764Y12222738D01*
X89728969Y12197680D01*
X89748142Y12160053D01*
X89750170Y12156072D01*
X89759742Y12126612D01*
X89764301Y12097825D01*
X89765513Y12081130D01*
X89765477Y12078149D01*
X89764391Y12071177D01*
X89765306Y12064180D01*
X89765306Y12064179D01*
X89768664Y12038500D01*
X89769500Y12025664D01*
X89769500Y5648565D01*
X89750593Y5590374D01*
X89701093Y5554410D01*
X89670614Y5549565D01*
X89053248Y5548857D01*
X88341180Y5548040D01*
X88282967Y5566881D01*
X88246947Y5616339D01*
X88243452Y5630530D01*
X88242034Y5638917D01*
X88207368Y5843870D01*
X88198674Y5895274D01*
X88198674Y5895276D01*
X88198214Y5897993D01*
X88138171Y6107389D01*
X88103415Y6228598D01*
X88103414Y6228602D01*
X88102652Y6231258D01*
X87970537Y6551793D01*
X87803516Y6855603D01*
X87787561Y6878221D01*
X87605259Y7136651D01*
X87605255Y7136655D01*
X87603670Y7138903D01*
X87373490Y7398161D01*
X87371441Y7400006D01*
X87371437Y7400010D01*
X87187949Y7565222D01*
X87115846Y7630144D01*
X87039509Y7684796D01*
X86836203Y7830349D01*
X86836198Y7830352D01*
X86833948Y7831963D01*
X86739392Y7884809D01*
X86533733Y7999749D01*
X86533724Y7999753D01*
X86531311Y8001102D01*
X86211706Y8135451D01*
X85879117Y8233337D01*
X85613844Y8280112D01*
X85548750Y8291590D01*
X85494726Y8320315D01*
X85467904Y8375308D01*
X85478529Y8435564D01*
X85521459Y8477530D01*
X85585162Y8509569D01*
X85585165Y8509571D01*
X85590498Y8512253D01*
X85595035Y8516128D01*
X85595038Y8516130D01*
X85714888Y8618492D01*
X85714891Y8618495D01*
X85719423Y8622366D01*
X85762154Y8681833D01*
X85769382Y8691891D01*
X85818693Y8728113D01*
X85879877Y8728433D01*
X85931949Y8689337D01*
X85936992Y8681833D01*
X85965830Y8638917D01*
X86091233Y8524809D01*
X86240235Y8443908D01*
X86289880Y8430884D01*
X86398464Y8402397D01*
X86398468Y8402396D01*
X86404233Y8400884D01*
X86410194Y8400790D01*
X86410197Y8400790D01*
X86488996Y8399553D01*
X86573760Y8398221D01*
X86579575Y8399553D01*
X86579577Y8399553D01*
X86733206Y8434738D01*
X86733209Y8434739D01*
X86739029Y8436072D01*
X86750846Y8442015D01*
X86829130Y8481388D01*
X86890498Y8512253D01*
X86895035Y8516128D01*
X86895038Y8516130D01*
X87014888Y8618492D01*
X87014891Y8618495D01*
X87019423Y8622366D01*
X87022904Y8627210D01*
X87114877Y8755204D01*
X87114878Y8755206D01*
X87118361Y8760053D01*
X87123591Y8773061D01*
X87179377Y8911833D01*
X87179378Y8911835D01*
X87181601Y8917366D01*
X87182442Y8923273D01*
X87205034Y9082015D01*
X87205034Y9082021D01*
X87205490Y9085222D01*
X87205645Y9100000D01*
X87191327Y9218315D01*
X87185993Y9262398D01*
X87185992Y9262401D01*
X87185276Y9268320D01*
X87125345Y9426923D01*
X87114732Y9442366D01*
X87032692Y9561733D01*
X87029312Y9566651D01*
X86902721Y9679440D01*
X86883729Y9689496D01*
X86846061Y9709440D01*
X86752881Y9758776D01*
X86633448Y9788776D01*
X86594231Y9798627D01*
X86594228Y9798627D01*
X86588441Y9800081D01*
X86502841Y9800529D01*
X86424861Y9800938D01*
X86424859Y9800938D01*
X86418895Y9800969D01*
X86413099Y9799577D01*
X86413095Y9799577D01*
X86330072Y9779644D01*
X86254032Y9761388D01*
X86204983Y9736072D01*
X86108675Y9686364D01*
X86108673Y9686362D01*
X86103369Y9683625D01*
X86098572Y9679440D01*
X85983615Y9579157D01*
X85975604Y9572169D01*
X85931610Y9509571D01*
X85931070Y9508803D01*
X85882141Y9472066D01*
X85820963Y9471104D01*
X85768485Y9509654D01*
X85764032Y9516134D01*
X85729312Y9566651D01*
X85602721Y9679440D01*
X85583729Y9689496D01*
X85546061Y9709440D01*
X85452881Y9758776D01*
X85333448Y9788776D01*
X85294231Y9798627D01*
X85294228Y9798627D01*
X85288441Y9800081D01*
X85202841Y9800529D01*
X85124861Y9800938D01*
X85124859Y9800938D01*
X85118895Y9800969D01*
X85113099Y9799577D01*
X85113095Y9799577D01*
X85030072Y9779644D01*
X84954032Y9761388D01*
X84904983Y9736072D01*
X84808675Y9686364D01*
X84808673Y9686362D01*
X84803369Y9683625D01*
X84798572Y9679440D01*
X84683615Y9579157D01*
X84675604Y9572169D01*
X84672173Y9567287D01*
X84672172Y9567286D01*
X84581654Y9438492D01*
X84578113Y9433453D01*
X84563810Y9396769D01*
X84530222Y9310619D01*
X84516524Y9275487D01*
X84515745Y9269572D01*
X84515745Y9269571D01*
X84511703Y9238865D01*
X84494394Y9107389D01*
X84495049Y9101456D01*
X84495049Y9101452D01*
X84508956Y8975487D01*
X84512999Y8938865D01*
X84571266Y8779644D01*
X84574591Y8774695D01*
X84574592Y8774694D01*
X84587689Y8755204D01*
X84665830Y8638917D01*
X84791233Y8524809D01*
X84870063Y8482008D01*
X84912179Y8437627D01*
X84920165Y8376965D01*
X84890970Y8323194D01*
X84838651Y8297280D01*
X84503164Y8242943D01*
X84169241Y8149710D01*
X84084447Y8115451D01*
X83850352Y8020871D01*
X83850348Y8020869D01*
X83847791Y8019836D01*
X83845367Y8018525D01*
X83845362Y8018523D01*
X83545251Y7856254D01*
X83545242Y7856249D01*
X83542822Y7854940D01*
X83540560Y7853368D01*
X83540557Y7853366D01*
X83389416Y7748320D01*
X83258134Y7657077D01*
X82997276Y7428713D01*
X82995415Y7426675D01*
X82995414Y7426674D01*
X82963600Y7391833D01*
X82763499Y7172694D01*
X82559717Y6892213D01*
X82388470Y6590763D01*
X82387381Y6588221D01*
X82387377Y6588214D01*
X82350989Y6503314D01*
X82251893Y6272104D01*
X82251097Y6269469D01*
X82251096Y6269465D01*
X82240333Y6233817D01*
X82151687Y5940207D01*
X82151190Y5937499D01*
X82151189Y5937495D01*
X82093265Y5621892D01*
X82064163Y5568070D01*
X82008984Y5541633D01*
X81996005Y5540763D01*
X81960565Y5540722D01*
X81943074Y5540702D01*
X81884862Y5559542D01*
X81861376Y5583623D01*
X81804312Y5666651D01*
X81677721Y5779440D01*
X81653250Y5792397D01*
X81603964Y5818492D01*
X81527881Y5858776D01*
X81434504Y5882231D01*
X81369231Y5898627D01*
X81369228Y5898627D01*
X81363441Y5900081D01*
X81277841Y5900529D01*
X81199861Y5900938D01*
X81199859Y5900938D01*
X81193895Y5900969D01*
X81188099Y5899577D01*
X81188095Y5899577D01*
X81115847Y5882231D01*
X81029032Y5861388D01*
X80972857Y5832394D01*
X80883675Y5786364D01*
X80883673Y5786362D01*
X80878369Y5783625D01*
X80750604Y5672169D01*
X80686700Y5581242D01*
X80637771Y5544506D01*
X80605819Y5539168D01*
X79613760Y5538031D01*
X77503386Y5535611D01*
X77445173Y5554452D01*
X77410663Y5599617D01*
X77410152Y5600969D01*
X77400345Y5626923D01*
X77395066Y5634605D01*
X77307692Y5761733D01*
X77304312Y5766651D01*
X77177721Y5879440D01*
X77027881Y5958776D01*
X76922509Y5985244D01*
X76869231Y5998627D01*
X76869228Y5998627D01*
X76863441Y6000081D01*
X76777841Y6000529D01*
X76699861Y6000938D01*
X76699859Y6000938D01*
X76693895Y6000969D01*
X76688099Y5999577D01*
X76688095Y5999577D01*
X76605072Y5979644D01*
X76529032Y5961388D01*
X76517051Y5955204D01*
X76383675Y5886364D01*
X76383673Y5886362D01*
X76378369Y5883625D01*
X76310865Y5824738D01*
X76272058Y5790884D01*
X76250604Y5772169D01*
X76247173Y5767287D01*
X76247172Y5767286D01*
X76172992Y5661738D01*
X76153113Y5633453D01*
X76138892Y5596978D01*
X76100139Y5549630D01*
X76046769Y5533940D01*
X65679609Y5522050D01*
X65621396Y5540891D01*
X65585376Y5590349D01*
X65585305Y5651535D01*
X65621212Y5701076D01*
X65635015Y5709495D01*
X65635163Y5709569D01*
X65635168Y5709572D01*
X65640498Y5712253D01*
X65645035Y5716128D01*
X65645038Y5716130D01*
X65764888Y5818492D01*
X65764891Y5818495D01*
X65769423Y5822366D01*
X65798464Y5862781D01*
X65864877Y5955204D01*
X65864878Y5955206D01*
X65868361Y5960053D01*
X65884453Y6000081D01*
X65929377Y6111833D01*
X65929378Y6111835D01*
X65931601Y6117366D01*
X65933863Y6133261D01*
X65955034Y6282015D01*
X65955034Y6282021D01*
X65955490Y6285222D01*
X65955645Y6300000D01*
X65940286Y6426923D01*
X65935993Y6462398D01*
X65935992Y6462401D01*
X65935276Y6468320D01*
X65875345Y6626923D01*
X65867138Y6638865D01*
X65782692Y6761733D01*
X65779312Y6766651D01*
X65652721Y6879440D01*
X65502881Y6958776D01*
X65402828Y6983908D01*
X65344231Y6998627D01*
X65344228Y6998627D01*
X65338441Y7000081D01*
X65252841Y7000529D01*
X65174861Y7000938D01*
X65174859Y7000938D01*
X65168895Y7000969D01*
X65163099Y6999577D01*
X65163095Y6999577D01*
X65097832Y6983908D01*
X65004032Y6961388D01*
X64936936Y6926757D01*
X64858675Y6886364D01*
X64858673Y6886362D01*
X64853369Y6883625D01*
X64725604Y6772169D01*
X64722173Y6767287D01*
X64722172Y6767286D01*
X64631544Y6638335D01*
X64628113Y6633453D01*
X64620816Y6614738D01*
X64572749Y6491452D01*
X64566524Y6475487D01*
X64544394Y6307389D01*
X64545049Y6301456D01*
X64545049Y6301452D01*
X64554897Y6212253D01*
X64562999Y6138865D01*
X64621266Y5979644D01*
X64624591Y5974695D01*
X64624592Y5974694D01*
X64635374Y5958649D01*
X64715830Y5838917D01*
X64841233Y5724809D01*
X64873899Y5707073D01*
X64916013Y5662694D01*
X64924000Y5602032D01*
X64894806Y5548261D01*
X64839581Y5521919D01*
X64826772Y5521072D01*
X63801020Y5519895D01*
X63754582Y5531402D01*
X63734597Y5541983D01*
X63708155Y5555984D01*
X63708152Y5555985D01*
X63702881Y5558776D01*
X63613087Y5581331D01*
X63544231Y5598627D01*
X63544228Y5598627D01*
X63538441Y5600081D01*
X63452841Y5600529D01*
X63374861Y5600938D01*
X63374859Y5600938D01*
X63368895Y5600969D01*
X63363099Y5599577D01*
X63363095Y5599577D01*
X63278256Y5579208D01*
X63204032Y5561388D01*
X63143441Y5530114D01*
X63098153Y5519089D01*
X55684334Y5510586D01*
X50918334Y5505120D01*
X50860121Y5523961D01*
X50824101Y5573419D01*
X50824030Y5634605D01*
X50837823Y5661888D01*
X50908361Y5760053D01*
X50911014Y5766651D01*
X50969377Y5911833D01*
X50969378Y5911835D01*
X50971601Y5917366D01*
X50974852Y5940207D01*
X50995034Y6082015D01*
X50995034Y6082021D01*
X50995490Y6085222D01*
X50995645Y6100000D01*
X50982061Y6212253D01*
X50975993Y6262398D01*
X50975992Y6262401D01*
X50975276Y6268320D01*
X50915345Y6426923D01*
X50892576Y6460053D01*
X50866915Y6497389D01*
X54124394Y6497389D01*
X54125049Y6491456D01*
X54125049Y6491452D01*
X54141889Y6338917D01*
X54142999Y6328865D01*
X54201266Y6169644D01*
X54204591Y6164695D01*
X54204592Y6164694D01*
X54217689Y6145204D01*
X54295830Y6028917D01*
X54421233Y5914809D01*
X54570235Y5833908D01*
X54605189Y5824738D01*
X54728464Y5792397D01*
X54728468Y5792396D01*
X54734233Y5790884D01*
X54740194Y5790790D01*
X54740197Y5790790D01*
X54818965Y5789553D01*
X54903760Y5788221D01*
X54909575Y5789553D01*
X54909577Y5789553D01*
X55063206Y5824738D01*
X55063209Y5824739D01*
X55069029Y5826072D01*
X55084610Y5833908D01*
X55175658Y5879701D01*
X55220498Y5902253D01*
X55225035Y5906128D01*
X55225038Y5906130D01*
X55344888Y6008492D01*
X55344891Y6008495D01*
X55349423Y6012366D01*
X55399471Y6082015D01*
X55444877Y6145204D01*
X55444878Y6145206D01*
X55448361Y6150053D01*
X55472966Y6211258D01*
X55509377Y6301833D01*
X55509378Y6301835D01*
X55511601Y6307366D01*
X55515505Y6334796D01*
X55535034Y6472015D01*
X55535034Y6472021D01*
X55535490Y6475222D01*
X55535645Y6490000D01*
X55519624Y6622394D01*
X55515993Y6652398D01*
X55515992Y6652401D01*
X55515276Y6658320D01*
X55455345Y6816923D01*
X55450571Y6823870D01*
X55362692Y6951733D01*
X55359312Y6956651D01*
X55232721Y7069440D01*
X55082881Y7148776D01*
X55000661Y7169429D01*
X54924231Y7188627D01*
X54924228Y7188627D01*
X54918441Y7190081D01*
X54832841Y7190529D01*
X54754861Y7190938D01*
X54754859Y7190938D01*
X54748895Y7190969D01*
X54743099Y7189577D01*
X54743095Y7189577D01*
X54636180Y7163908D01*
X54584032Y7151388D01*
X54521020Y7118865D01*
X54438675Y7076364D01*
X54438673Y7076362D01*
X54433369Y7073625D01*
X54305604Y6962169D01*
X54302173Y6957287D01*
X54302172Y6957286D01*
X54244672Y6875472D01*
X54208113Y6823453D01*
X54199347Y6800969D01*
X54159287Y6698221D01*
X54146524Y6665487D01*
X54145745Y6659572D01*
X54145745Y6659571D01*
X54139843Y6614738D01*
X54124394Y6497389D01*
X50866915Y6497389D01*
X50822692Y6561733D01*
X50819312Y6566651D01*
X50692721Y6679440D01*
X50668522Y6692253D01*
X50637215Y6708829D01*
X50542881Y6758776D01*
X50460661Y6779429D01*
X50384231Y6798627D01*
X50384228Y6798627D01*
X50378441Y6800081D01*
X50292841Y6800529D01*
X50214861Y6800938D01*
X50214859Y6800938D01*
X50208895Y6800969D01*
X50203099Y6799577D01*
X50203095Y6799577D01*
X50105277Y6776092D01*
X50044032Y6761388D01*
X49994983Y6736072D01*
X49898675Y6686364D01*
X49898673Y6686362D01*
X49893369Y6683625D01*
X49765604Y6572169D01*
X49762173Y6567287D01*
X49762172Y6567286D01*
X49708875Y6491452D01*
X49668113Y6433453D01*
X49665945Y6427892D01*
X49610320Y6285222D01*
X49606524Y6275487D01*
X49584394Y6107389D01*
X49585049Y6101456D01*
X49585049Y6101452D01*
X49600512Y5961388D01*
X49602999Y5938865D01*
X49661266Y5779644D01*
X49673302Y5761733D01*
X49695210Y5729129D01*
X49711971Y5670284D01*
X49690944Y5612825D01*
X49640159Y5578700D01*
X49577974Y5581331D01*
X45073685Y7287389D01*
X50904394Y7287389D01*
X50905049Y7281456D01*
X50905049Y7281452D01*
X50920862Y7138221D01*
X50922999Y7118865D01*
X50981266Y6959644D01*
X50984591Y6954695D01*
X50984592Y6954694D01*
X51008743Y6918754D01*
X51075830Y6818917D01*
X51201233Y6704809D01*
X51350235Y6623908D01*
X51385189Y6614738D01*
X51508464Y6582397D01*
X51508468Y6582396D01*
X51514233Y6580884D01*
X51520194Y6580790D01*
X51520197Y6580790D01*
X51598996Y6579553D01*
X51683760Y6578221D01*
X51689575Y6579553D01*
X51689577Y6579553D01*
X51843206Y6614738D01*
X51843209Y6614739D01*
X51849029Y6616072D01*
X51859506Y6621341D01*
X51947280Y6665487D01*
X52000498Y6692253D01*
X52005035Y6696128D01*
X52005038Y6696130D01*
X52124888Y6798492D01*
X52124891Y6798495D01*
X52129423Y6802366D01*
X52132904Y6807210D01*
X52224877Y6935204D01*
X52224878Y6935206D01*
X52228361Y6940053D01*
X52233057Y6951733D01*
X52289377Y7091833D01*
X52289378Y7091835D01*
X52291601Y7097366D01*
X52297192Y7136651D01*
X52315034Y7262015D01*
X52315034Y7262021D01*
X52315490Y7265222D01*
X52315645Y7280000D01*
X52301346Y7398161D01*
X52295993Y7442398D01*
X52295992Y7442401D01*
X52295276Y7448320D01*
X52235345Y7606923D01*
X52224973Y7622015D01*
X52207534Y7647389D01*
X58654394Y7647389D01*
X58655049Y7641456D01*
X58655049Y7641452D01*
X58670657Y7500081D01*
X58672999Y7478865D01*
X58731266Y7319644D01*
X58734591Y7314695D01*
X58734592Y7314694D01*
X58752940Y7287389D01*
X58825830Y7178917D01*
X58951233Y7064809D01*
X58956482Y7061959D01*
X58967218Y7056130D01*
X59100235Y6983908D01*
X59132334Y6975487D01*
X59258464Y6942397D01*
X59258468Y6942396D01*
X59264233Y6940884D01*
X59270194Y6940790D01*
X59270197Y6940790D01*
X59348996Y6939553D01*
X59433760Y6938221D01*
X59439575Y6939553D01*
X59439577Y6939553D01*
X59593206Y6974738D01*
X59593209Y6974739D01*
X59599029Y6976072D01*
X59614610Y6983908D01*
X59745165Y7049571D01*
X59750498Y7052253D01*
X59755035Y7056128D01*
X59755038Y7056130D01*
X59874888Y7158492D01*
X59874891Y7158495D01*
X59879423Y7162366D01*
X59885240Y7170461D01*
X59974877Y7295204D01*
X59974878Y7295206D01*
X59978361Y7300053D01*
X60002025Y7358917D01*
X60039377Y7451833D01*
X60039378Y7451835D01*
X60041601Y7457366D01*
X60049760Y7514694D01*
X60065034Y7622015D01*
X60065034Y7622021D01*
X60065490Y7625222D01*
X60065645Y7640000D01*
X60053334Y7741733D01*
X60045993Y7802398D01*
X60045992Y7802401D01*
X60045276Y7808320D01*
X60030513Y7847389D01*
X68714394Y7847389D01*
X68715049Y7841456D01*
X68715049Y7841452D01*
X68727693Y7726923D01*
X68732999Y7678865D01*
X68791266Y7519644D01*
X68885830Y7378917D01*
X69011233Y7264809D01*
X69160235Y7183908D01*
X69211492Y7170461D01*
X69318464Y7142397D01*
X69318468Y7142396D01*
X69324233Y7140884D01*
X69330194Y7140790D01*
X69330197Y7140790D01*
X69408965Y7139553D01*
X69493760Y7138221D01*
X69499575Y7139553D01*
X69499577Y7139553D01*
X69599184Y7162366D01*
X69659029Y7176072D01*
X69677019Y7185120D01*
X69737500Y7194375D01*
X69791870Y7166312D01*
X69803667Y7151899D01*
X69825830Y7118917D01*
X69830244Y7114901D01*
X69830247Y7114897D01*
X69902040Y7049571D01*
X69951233Y7004809D01*
X69956482Y7001959D01*
X69959884Y7000112D01*
X70100235Y6923908D01*
X70135189Y6914738D01*
X70258464Y6882397D01*
X70258468Y6882396D01*
X70264233Y6880884D01*
X70270194Y6880790D01*
X70270197Y6880790D01*
X70348996Y6879553D01*
X70433760Y6878221D01*
X70439575Y6879553D01*
X70439577Y6879553D01*
X70593206Y6914738D01*
X70593209Y6914739D01*
X70599029Y6916072D01*
X70611544Y6922366D01*
X70691899Y6962781D01*
X70750498Y6992253D01*
X70755035Y6996128D01*
X70755038Y6996130D01*
X70874888Y7098492D01*
X70874891Y7098495D01*
X70879423Y7102366D01*
X70887252Y7113261D01*
X70974877Y7235204D01*
X70974878Y7235206D01*
X70978361Y7240053D01*
X70987168Y7261959D01*
X71039377Y7391833D01*
X71039378Y7391835D01*
X71041601Y7397366D01*
X71042442Y7403273D01*
X71065034Y7562015D01*
X71065034Y7562021D01*
X71065490Y7565222D01*
X71065645Y7580000D01*
X71052963Y7684796D01*
X71045993Y7742398D01*
X71045992Y7742401D01*
X71045276Y7748320D01*
X70985345Y7906923D01*
X70965373Y7935983D01*
X70892692Y8041733D01*
X70889312Y8046651D01*
X70762721Y8159440D01*
X70738250Y8172397D01*
X70694198Y8195721D01*
X70612881Y8238776D01*
X70509241Y8264809D01*
X70454231Y8278627D01*
X70454228Y8278627D01*
X70448441Y8280081D01*
X70362841Y8280529D01*
X70284861Y8280938D01*
X70284859Y8280938D01*
X70278895Y8280969D01*
X70273099Y8279577D01*
X70273095Y8279577D01*
X70199714Y8261959D01*
X70114032Y8241388D01*
X70103112Y8235752D01*
X70042732Y8225863D01*
X69988070Y8253354D01*
X69976121Y8267643D01*
X69949312Y8306651D01*
X69944859Y8310618D01*
X69944856Y8310622D01*
X69847671Y8397210D01*
X69822721Y8419440D01*
X69672881Y8498776D01*
X69569241Y8524809D01*
X69514231Y8538627D01*
X69514228Y8538627D01*
X69508441Y8540081D01*
X69422841Y8540529D01*
X69344861Y8540938D01*
X69344859Y8540938D01*
X69338895Y8540969D01*
X69333099Y8539577D01*
X69333095Y8539577D01*
X69251892Y8520081D01*
X69174032Y8501388D01*
X69115296Y8471072D01*
X69028675Y8426364D01*
X69028673Y8426362D01*
X69023369Y8423625D01*
X68895604Y8312169D01*
X68892173Y8307287D01*
X68892172Y8307286D01*
X68801544Y8178335D01*
X68798113Y8173453D01*
X68781058Y8129710D01*
X68750222Y8050619D01*
X68736524Y8015487D01*
X68735745Y8009572D01*
X68735745Y8009571D01*
X68733891Y7995487D01*
X68714394Y7847389D01*
X60030513Y7847389D01*
X59985345Y7966923D01*
X59976743Y7979440D01*
X59892692Y8101733D01*
X59889312Y8106651D01*
X59762721Y8219440D01*
X59612881Y8298776D01*
X59527132Y8320315D01*
X59454231Y8338627D01*
X59454228Y8338627D01*
X59448441Y8340081D01*
X59362841Y8340529D01*
X59284861Y8340938D01*
X59284859Y8340938D01*
X59278895Y8340969D01*
X59273099Y8339577D01*
X59273095Y8339577D01*
X59175277Y8316092D01*
X59114032Y8301388D01*
X59060078Y8273540D01*
X58968675Y8226364D01*
X58968673Y8226362D01*
X58963369Y8223625D01*
X58835604Y8112169D01*
X58832173Y8107287D01*
X58832172Y8107286D01*
X58742793Y7980112D01*
X58738113Y7973453D01*
X58735945Y7967892D01*
X58682319Y7830349D01*
X58676524Y7815487D01*
X58675745Y7809572D01*
X58675745Y7809571D01*
X58674801Y7802398D01*
X58654394Y7647389D01*
X52207534Y7647389D01*
X52142692Y7741733D01*
X52139312Y7746651D01*
X52012721Y7859440D01*
X51988522Y7872253D01*
X51964807Y7884809D01*
X51862881Y7938776D01*
X51746967Y7967892D01*
X51704231Y7978627D01*
X51704228Y7978627D01*
X51698441Y7980081D01*
X51612841Y7980529D01*
X51534861Y7980938D01*
X51534859Y7980938D01*
X51528895Y7980969D01*
X51523099Y7979577D01*
X51523095Y7979577D01*
X51447140Y7961341D01*
X51364032Y7941388D01*
X51306790Y7911843D01*
X51218675Y7866364D01*
X51218673Y7866362D01*
X51213369Y7863625D01*
X51085604Y7752169D01*
X51082173Y7747287D01*
X51082172Y7747286D01*
X50998538Y7628286D01*
X50988113Y7613453D01*
X50926524Y7455487D01*
X50904394Y7287389D01*
X45073685Y7287389D01*
X43874138Y7741733D01*
X43137319Y8020813D01*
X43089598Y8059107D01*
X43073499Y8118136D01*
X43080529Y8150321D01*
X43129377Y8271833D01*
X43129378Y8271835D01*
X43131601Y8277366D01*
X43132442Y8283273D01*
X43155034Y8442015D01*
X43155034Y8442021D01*
X43155490Y8445222D01*
X43155645Y8460000D01*
X43141029Y8580778D01*
X43135993Y8622398D01*
X43135992Y8622401D01*
X43135276Y8628320D01*
X43075345Y8786923D01*
X43069758Y8795053D01*
X43033788Y8847389D01*
X46984394Y8847389D01*
X46985049Y8841456D01*
X46985049Y8841452D01*
X47000862Y8698221D01*
X47002999Y8678865D01*
X47061266Y8519644D01*
X47064591Y8514695D01*
X47064592Y8514694D01*
X47086973Y8481388D01*
X47155830Y8378917D01*
X47281233Y8264809D01*
X47430235Y8183908D01*
X47479880Y8170884D01*
X47588464Y8142397D01*
X47588468Y8142396D01*
X47594233Y8140884D01*
X47600194Y8140790D01*
X47600197Y8140790D01*
X47678965Y8139553D01*
X47763760Y8138221D01*
X47769575Y8139553D01*
X47769577Y8139553D01*
X47923206Y8174738D01*
X47923209Y8174739D01*
X47929029Y8176072D01*
X47944610Y8183908D01*
X48020806Y8222231D01*
X48080498Y8252253D01*
X48085035Y8256128D01*
X48085038Y8256130D01*
X48204888Y8358492D01*
X48204891Y8358495D01*
X48209423Y8362366D01*
X48218723Y8375308D01*
X48304877Y8495204D01*
X48304878Y8495206D01*
X48308361Y8500053D01*
X48312187Y8509569D01*
X48369377Y8651833D01*
X48369378Y8651835D01*
X48371601Y8657366D01*
X48376515Y8691891D01*
X48395034Y8822015D01*
X48395034Y8822021D01*
X48395490Y8825222D01*
X48395645Y8840000D01*
X48391120Y8877389D01*
X53914394Y8877389D01*
X53915049Y8871456D01*
X53915049Y8871452D01*
X53930942Y8727494D01*
X53932999Y8708865D01*
X53991266Y8549644D01*
X53994591Y8544695D01*
X53994592Y8544694D01*
X54025448Y8498776D01*
X54085830Y8408917D01*
X54160504Y8340969D01*
X54206776Y8298865D01*
X54211233Y8294809D01*
X54360235Y8213908D01*
X54395189Y8204738D01*
X54518464Y8172397D01*
X54518468Y8172396D01*
X54524233Y8170884D01*
X54530194Y8170790D01*
X54530197Y8170790D01*
X54608996Y8169553D01*
X54693760Y8168221D01*
X54699575Y8169553D01*
X54699577Y8169553D01*
X54853206Y8204738D01*
X54853209Y8204739D01*
X54859029Y8206072D01*
X54874610Y8213908D01*
X55002783Y8278373D01*
X55010498Y8282253D01*
X55015035Y8286128D01*
X55015038Y8286130D01*
X55134888Y8388492D01*
X55134891Y8388495D01*
X55139423Y8392366D01*
X55144506Y8399440D01*
X55234877Y8525204D01*
X55234878Y8525206D01*
X55238361Y8530053D01*
X55242393Y8540081D01*
X55299377Y8681833D01*
X55299378Y8681835D01*
X55301601Y8687366D01*
X55303146Y8698221D01*
X55325034Y8852015D01*
X55325034Y8852021D01*
X55325490Y8855222D01*
X55325645Y8870000D01*
X55309623Y9002398D01*
X55305993Y9032398D01*
X55305992Y9032401D01*
X55305276Y9038320D01*
X55245345Y9196923D01*
X55230708Y9218221D01*
X55152692Y9331733D01*
X55149312Y9336651D01*
X55022721Y9449440D01*
X54872881Y9528776D01*
X54788386Y9550000D01*
X54714231Y9568627D01*
X54714228Y9568627D01*
X54708441Y9570081D01*
X54622841Y9570529D01*
X54544861Y9570938D01*
X54544859Y9570938D01*
X54538895Y9570969D01*
X54533099Y9569577D01*
X54533095Y9569577D01*
X54426022Y9543870D01*
X54374032Y9531388D01*
X54310601Y9498649D01*
X54228675Y9456364D01*
X54228673Y9456362D01*
X54223369Y9453625D01*
X54095604Y9342169D01*
X54092173Y9337287D01*
X54092172Y9337286D01*
X54001544Y9208335D01*
X53998113Y9203453D01*
X53995945Y9197892D01*
X53940313Y9055204D01*
X53936524Y9045487D01*
X53935745Y9039572D01*
X53935745Y9039571D01*
X53932366Y9013901D01*
X53914394Y8877389D01*
X48391120Y8877389D01*
X48379249Y8975487D01*
X48375993Y9002398D01*
X48375992Y9002401D01*
X48375276Y9008320D01*
X48315345Y9166923D01*
X48294727Y9196923D01*
X48222692Y9301733D01*
X48219312Y9306651D01*
X48092721Y9419440D01*
X47942881Y9498776D01*
X47850587Y9521959D01*
X47784231Y9538627D01*
X47784228Y9538627D01*
X47778441Y9540081D01*
X47692841Y9540529D01*
X47614861Y9540938D01*
X47614859Y9540938D01*
X47608895Y9540969D01*
X47603099Y9539577D01*
X47603095Y9539577D01*
X47505452Y9516134D01*
X47444032Y9501388D01*
X47387222Y9472066D01*
X47298675Y9426364D01*
X47298673Y9426362D01*
X47293369Y9423625D01*
X47165604Y9312169D01*
X47162173Y9307287D01*
X47162172Y9307286D01*
X47099642Y9218315D01*
X47068113Y9173453D01*
X47047362Y9120230D01*
X47018563Y9046364D01*
X47006524Y9015487D01*
X46984394Y8847389D01*
X43033788Y8847389D01*
X42982692Y8921733D01*
X42979312Y8926651D01*
X42852721Y9039440D01*
X42702881Y9118776D01*
X42608875Y9142389D01*
X42544231Y9158627D01*
X42544228Y9158627D01*
X42538441Y9160081D01*
X42452841Y9160529D01*
X42374861Y9160938D01*
X42374859Y9160938D01*
X42368895Y9160969D01*
X42363099Y9159577D01*
X42363095Y9159577D01*
X42291505Y9142389D01*
X42204032Y9121388D01*
X42168815Y9103211D01*
X42058675Y9046364D01*
X42058673Y9046362D01*
X42053369Y9043625D01*
X41925604Y8932169D01*
X41922173Y8927287D01*
X41922172Y8927286D01*
X41843006Y8814644D01*
X41828113Y8793453D01*
X41820045Y8772759D01*
X41769707Y8643652D01*
X41730953Y8596304D01*
X41671771Y8580778D01*
X41642404Y8587032D01*
X39504556Y9396769D01*
X39100000Y9550000D01*
X29288267Y10007389D01*
X60394394Y10007389D01*
X60395049Y10001456D01*
X60395049Y10001452D01*
X60404398Y9916769D01*
X60412999Y9838865D01*
X60471266Y9679644D01*
X60474591Y9674695D01*
X60474592Y9674694D01*
X60509574Y9622635D01*
X60565830Y9538917D01*
X60691233Y9424809D01*
X60696482Y9421959D01*
X60707218Y9416130D01*
X60840235Y9343908D01*
X60899680Y9328313D01*
X60998464Y9302397D01*
X60998468Y9302396D01*
X61004233Y9300884D01*
X61010194Y9300790D01*
X61010197Y9300790D01*
X61088996Y9299553D01*
X61173760Y9298221D01*
X61179575Y9299553D01*
X61179577Y9299553D01*
X61333206Y9334738D01*
X61333209Y9334739D01*
X61339029Y9336072D01*
X61354610Y9343908D01*
X61430376Y9382015D01*
X61480827Y9407389D01*
X62094394Y9407389D01*
X62095049Y9401456D01*
X62095049Y9401452D01*
X62112344Y9244796D01*
X62112999Y9238865D01*
X62171266Y9079644D01*
X62174591Y9074695D01*
X62174592Y9074694D01*
X62196406Y9042231D01*
X62265830Y8938917D01*
X62391233Y8824809D01*
X62540235Y8743908D01*
X62575189Y8734738D01*
X62698464Y8702397D01*
X62698468Y8702396D01*
X62704233Y8700884D01*
X62710194Y8700790D01*
X62710197Y8700790D01*
X62788996Y8699553D01*
X62873760Y8698221D01*
X62879575Y8699553D01*
X62879577Y8699553D01*
X63033206Y8734738D01*
X63033209Y8734739D01*
X63039029Y8736072D01*
X63054610Y8743908D01*
X63136753Y8785222D01*
X63190498Y8812253D01*
X63195035Y8816128D01*
X63195038Y8816130D01*
X63314888Y8918492D01*
X63314891Y8918495D01*
X63319423Y8922366D01*
X63322904Y8927210D01*
X63414877Y9055204D01*
X63414878Y9055206D01*
X63418361Y9060053D01*
X63435004Y9101452D01*
X63479377Y9211833D01*
X63479378Y9211835D01*
X63481601Y9217366D01*
X63487110Y9256072D01*
X63505034Y9382015D01*
X63505034Y9382021D01*
X63505490Y9385222D01*
X63505645Y9400000D01*
X63492478Y9508803D01*
X63485993Y9562398D01*
X63485992Y9562401D01*
X63485276Y9568320D01*
X63425345Y9726923D01*
X63413672Y9743908D01*
X63332692Y9861733D01*
X63329312Y9866651D01*
X63202721Y9979440D01*
X63052881Y10058776D01*
X62958839Y10082398D01*
X62894231Y10098627D01*
X62894228Y10098627D01*
X62888441Y10100081D01*
X62802841Y10100529D01*
X62724861Y10100938D01*
X62724859Y10100938D01*
X62718895Y10100969D01*
X62713099Y10099577D01*
X62713095Y10099577D01*
X62630072Y10079644D01*
X62554032Y10061388D01*
X62478701Y10022507D01*
X62408675Y9986364D01*
X62408673Y9986362D01*
X62403369Y9983625D01*
X62275604Y9872169D01*
X62272173Y9867287D01*
X62272172Y9867286D01*
X62181544Y9738335D01*
X62178113Y9733453D01*
X62160975Y9689496D01*
X62124013Y9594694D01*
X62116524Y9575487D01*
X62094394Y9407389D01*
X61480827Y9407389D01*
X61490498Y9412253D01*
X61495035Y9416128D01*
X61495038Y9416130D01*
X61614888Y9518492D01*
X61614891Y9518495D01*
X61619423Y9522366D01*
X61631316Y9538917D01*
X61714877Y9655204D01*
X61714878Y9655206D01*
X61718361Y9660053D01*
X61724560Y9675472D01*
X61779377Y9811833D01*
X61779378Y9811835D01*
X61781601Y9817366D01*
X61782442Y9823273D01*
X61805034Y9982015D01*
X61805034Y9982021D01*
X61805490Y9985222D01*
X61805645Y10000000D01*
X61793368Y10101452D01*
X61792650Y10107389D01*
X65394394Y10107389D01*
X65395049Y10101456D01*
X65395049Y10101452D01*
X65412344Y9944796D01*
X65412999Y9938865D01*
X65471266Y9779644D01*
X65474591Y9774695D01*
X65474592Y9774694D01*
X65495279Y9743908D01*
X65565830Y9638917D01*
X65641446Y9570112D01*
X65675729Y9538917D01*
X65691233Y9524809D01*
X65696482Y9521959D01*
X65707210Y9516134D01*
X65840235Y9443908D01*
X65886224Y9431843D01*
X65998464Y9402397D01*
X65998468Y9402396D01*
X66004233Y9400884D01*
X66010194Y9400790D01*
X66010197Y9400790D01*
X66088996Y9399553D01*
X66173760Y9398221D01*
X66179575Y9399553D01*
X66179577Y9399553D01*
X66333206Y9434738D01*
X66333209Y9434739D01*
X66339029Y9436072D01*
X66351544Y9442366D01*
X66414764Y9474163D01*
X66490498Y9512253D01*
X66521378Y9538627D01*
X66592324Y9599220D01*
X66648851Y9622635D01*
X66708346Y9608351D01*
X66738790Y9579157D01*
X66765830Y9538917D01*
X66891233Y9424809D01*
X66896482Y9421959D01*
X66907218Y9416130D01*
X67040235Y9343908D01*
X67099680Y9328313D01*
X67198464Y9302397D01*
X67198468Y9302396D01*
X67204233Y9300884D01*
X67210194Y9300790D01*
X67210197Y9300790D01*
X67288996Y9299553D01*
X67373760Y9298221D01*
X67379575Y9299553D01*
X67379577Y9299553D01*
X67533206Y9334738D01*
X67533209Y9334739D01*
X67539029Y9336072D01*
X67554610Y9343908D01*
X67630376Y9382015D01*
X67690498Y9412253D01*
X67695035Y9416128D01*
X67695038Y9416130D01*
X67814888Y9518492D01*
X67814891Y9518495D01*
X67819423Y9522366D01*
X67831316Y9538917D01*
X67914877Y9655204D01*
X67914878Y9655206D01*
X67918361Y9660053D01*
X67924560Y9675472D01*
X67979377Y9811833D01*
X67979378Y9811835D01*
X67981601Y9817366D01*
X67982442Y9823273D01*
X67997260Y9927389D01*
X68504394Y9927389D01*
X68505049Y9921456D01*
X68505049Y9921452D01*
X68518504Y9799577D01*
X68522999Y9758865D01*
X68581266Y9599644D01*
X68584591Y9594695D01*
X68584592Y9594694D01*
X68603436Y9566651D01*
X68675830Y9458917D01*
X68801233Y9344809D01*
X68950235Y9263908D01*
X68985189Y9254738D01*
X69108464Y9222397D01*
X69108468Y9222396D01*
X69114233Y9220884D01*
X69120194Y9220790D01*
X69120197Y9220790D01*
X69198965Y9219553D01*
X69283760Y9218221D01*
X69289575Y9219553D01*
X69289577Y9219553D01*
X69443206Y9254738D01*
X69443209Y9254739D01*
X69449029Y9256072D01*
X69464610Y9263908D01*
X69557221Y9310487D01*
X69600498Y9332253D01*
X69605035Y9336128D01*
X69605038Y9336130D01*
X69724888Y9438492D01*
X69724891Y9438495D01*
X69729423Y9442366D01*
X69736512Y9452231D01*
X69824877Y9575204D01*
X69824878Y9575206D01*
X69828361Y9580053D01*
X69835034Y9596651D01*
X69889377Y9731833D01*
X69889378Y9731835D01*
X69891601Y9737366D01*
X69895505Y9764796D01*
X69915034Y9902015D01*
X69915034Y9902021D01*
X69915490Y9905222D01*
X69915645Y9920000D01*
X69898697Y10060053D01*
X69895993Y10082398D01*
X69895992Y10082401D01*
X69895276Y10088320D01*
X69835345Y10246923D01*
X69819780Y10269571D01*
X69742692Y10381733D01*
X69739312Y10386651D01*
X69612721Y10499440D01*
X69462881Y10578776D01*
X69380661Y10599429D01*
X69304231Y10618627D01*
X69304228Y10618627D01*
X69298441Y10620081D01*
X69212841Y10620529D01*
X69134861Y10620938D01*
X69134859Y10620938D01*
X69128895Y10620969D01*
X69123099Y10619577D01*
X69123095Y10619577D01*
X69034145Y10598221D01*
X68964032Y10581388D01*
X68888700Y10542506D01*
X68818675Y10506364D01*
X68818673Y10506362D01*
X68813369Y10503625D01*
X68685604Y10392169D01*
X68682173Y10387287D01*
X68682172Y10387286D01*
X68678269Y10381733D01*
X68588113Y10253453D01*
X68526524Y10095487D01*
X68504394Y9927389D01*
X67997260Y9927389D01*
X68005034Y9982015D01*
X68005034Y9982021D01*
X68005490Y9985222D01*
X68005645Y10000000D01*
X67993368Y10101452D01*
X67985993Y10162398D01*
X67985992Y10162401D01*
X67985276Y10168320D01*
X67925345Y10326923D01*
X67883859Y10387286D01*
X67832692Y10461733D01*
X67829312Y10466651D01*
X67702721Y10579440D01*
X67552881Y10658776D01*
X67458652Y10682445D01*
X67394231Y10698627D01*
X67394228Y10698627D01*
X67388441Y10700081D01*
X67302841Y10700529D01*
X67224861Y10700938D01*
X67224859Y10700938D01*
X67218895Y10700969D01*
X67213099Y10699577D01*
X67213095Y10699577D01*
X67140847Y10682231D01*
X67054032Y10661388D01*
X67004983Y10636072D01*
X66908675Y10586364D01*
X66908673Y10586362D01*
X66903369Y10583625D01*
X66885825Y10568320D01*
X66808474Y10500843D01*
X66752194Y10476838D01*
X66692553Y10490498D01*
X66661806Y10519372D01*
X66632692Y10561733D01*
X66629312Y10566651D01*
X66502721Y10679440D01*
X66352881Y10758776D01*
X66270661Y10779428D01*
X66194231Y10798627D01*
X66194228Y10798627D01*
X66188441Y10800081D01*
X66102841Y10800529D01*
X66024861Y10800938D01*
X66024859Y10800938D01*
X66018895Y10800969D01*
X66013099Y10799577D01*
X66013095Y10799577D01*
X65905703Y10773793D01*
X65854032Y10761388D01*
X65809368Y10738335D01*
X65708675Y10686364D01*
X65708673Y10686362D01*
X65703369Y10683625D01*
X65575604Y10572169D01*
X65572173Y10567287D01*
X65572172Y10567286D01*
X65518205Y10490498D01*
X65478113Y10433453D01*
X65459308Y10385222D01*
X65438497Y10331843D01*
X65416524Y10275487D01*
X65394394Y10107389D01*
X61792650Y10107389D01*
X61785993Y10162398D01*
X61785992Y10162401D01*
X61785276Y10168320D01*
X61725345Y10326923D01*
X61683859Y10387286D01*
X61632692Y10461733D01*
X61629312Y10466651D01*
X61502721Y10579440D01*
X61352881Y10658776D01*
X61258652Y10682445D01*
X61194231Y10698627D01*
X61194228Y10698627D01*
X61188441Y10700081D01*
X61102841Y10700529D01*
X61024861Y10700938D01*
X61024859Y10700938D01*
X61018895Y10700969D01*
X61013099Y10699577D01*
X61013095Y10699577D01*
X60940847Y10682231D01*
X60854032Y10661388D01*
X60804983Y10636072D01*
X60708675Y10586364D01*
X60708673Y10586362D01*
X60703369Y10583625D01*
X60575604Y10472169D01*
X60572173Y10467287D01*
X60572172Y10467286D01*
X60525903Y10401452D01*
X60478113Y10333453D01*
X60416524Y10175487D01*
X60394394Y10007389D01*
X29288267Y10007389D01*
X26529482Y10135994D01*
X26472235Y10157591D01*
X26438615Y10208712D01*
X26436080Y10248836D01*
X26455034Y10382015D01*
X26455034Y10382021D01*
X26455490Y10385222D01*
X26455645Y10400000D01*
X26442774Y10506364D01*
X26435993Y10562398D01*
X26435992Y10562401D01*
X26435276Y10568320D01*
X26375345Y10726923D01*
X26363672Y10743908D01*
X26282692Y10861733D01*
X26279312Y10866651D01*
X26152721Y10979440D01*
X26002881Y11058776D01*
X25897509Y11085244D01*
X25844231Y11098627D01*
X25844228Y11098627D01*
X25838441Y11100081D01*
X25752841Y11100529D01*
X25674861Y11100938D01*
X25674859Y11100938D01*
X25668895Y11100969D01*
X25663099Y11099577D01*
X25663095Y11099577D01*
X25560312Y11074900D01*
X25504032Y11061388D01*
X25492051Y11055204D01*
X25358675Y10986364D01*
X25358673Y10986362D01*
X25353369Y10983625D01*
X25225604Y10872169D01*
X25222173Y10867287D01*
X25222172Y10867286D01*
X25131544Y10738335D01*
X25128113Y10733453D01*
X25109754Y10686364D01*
X25093201Y10643908D01*
X25066524Y10575487D01*
X25044394Y10407389D01*
X25045049Y10401456D01*
X25045049Y10401452D01*
X25045566Y10396769D01*
X25053278Y10326923D01*
X25054116Y10319330D01*
X25041709Y10259416D01*
X24996454Y10218237D01*
X24951104Y10209573D01*
X14807240Y10682445D01*
X14749993Y10704042D01*
X14716373Y10755163D01*
X14719222Y10816282D01*
X14731454Y10839109D01*
X14732730Y10840884D01*
X14759942Y10878754D01*
X14814877Y10955204D01*
X14814878Y10955206D01*
X14818361Y10960053D01*
X14824560Y10975472D01*
X14879377Y11111833D01*
X14879378Y11111835D01*
X14881601Y11117366D01*
X14893369Y11200053D01*
X14905034Y11282015D01*
X14905034Y11282021D01*
X14905490Y11285222D01*
X14905645Y11300000D01*
X14893155Y11403211D01*
X14892649Y11407389D01*
X28194394Y11407389D01*
X28195049Y11401456D01*
X28195049Y11401452D01*
X28206606Y11296769D01*
X28212999Y11238865D01*
X28271266Y11079644D01*
X28274591Y11074695D01*
X28274592Y11074694D01*
X28285374Y11058649D01*
X28365830Y10938917D01*
X28444551Y10867286D01*
X28475729Y10838917D01*
X28491233Y10824809D01*
X28640235Y10743908D01*
X28686224Y10731843D01*
X28798464Y10702397D01*
X28798468Y10702396D01*
X28804233Y10700884D01*
X28810194Y10700790D01*
X28810197Y10700790D01*
X28888965Y10699553D01*
X28973760Y10698221D01*
X28979575Y10699553D01*
X28979577Y10699553D01*
X29133206Y10734738D01*
X29133209Y10734739D01*
X29139029Y10736072D01*
X29154610Y10743908D01*
X29214764Y10774163D01*
X29290498Y10812253D01*
X29295035Y10816128D01*
X29295038Y10816130D01*
X29414888Y10918492D01*
X29414891Y10918495D01*
X29419423Y10922366D01*
X29440899Y10952253D01*
X29514877Y11055204D01*
X29514878Y11055206D01*
X29518361Y11060053D01*
X29525945Y11078917D01*
X29579377Y11211833D01*
X29579378Y11211835D01*
X29581601Y11217366D01*
X29582442Y11223273D01*
X29605034Y11382015D01*
X29605034Y11382021D01*
X29605490Y11385222D01*
X29605645Y11400000D01*
X29590880Y11522015D01*
X29587809Y11547389D01*
X70664394Y11547389D01*
X70665049Y11541456D01*
X70665049Y11541452D01*
X70681022Y11396769D01*
X70682999Y11378865D01*
X70741266Y11219644D01*
X70744591Y11214695D01*
X70744592Y11214694D01*
X70757689Y11195204D01*
X70835830Y11078917D01*
X70936472Y10987340D01*
X70949515Y10975472D01*
X70961233Y10964809D01*
X70966482Y10961959D01*
X70977218Y10956130D01*
X71110235Y10883908D01*
X71160890Y10870619D01*
X71268464Y10842397D01*
X71268468Y10842396D01*
X71274233Y10840884D01*
X71280194Y10840790D01*
X71280197Y10840790D01*
X71358996Y10839553D01*
X71443760Y10838221D01*
X71449575Y10839553D01*
X71449577Y10839553D01*
X71603206Y10874738D01*
X71603209Y10874739D01*
X71609029Y10876072D01*
X71624610Y10883908D01*
X71701074Y10922366D01*
X71760498Y10952253D01*
X71765035Y10956128D01*
X71765038Y10956130D01*
X71884888Y11058492D01*
X71884891Y11058495D01*
X71889423Y11062366D01*
X71901316Y11078917D01*
X71984877Y11195204D01*
X71984878Y11195206D01*
X71988361Y11200053D01*
X71997696Y11223273D01*
X72049377Y11351833D01*
X72049378Y11351835D01*
X72051601Y11357366D01*
X72055505Y11384796D01*
X72075034Y11522015D01*
X72075034Y11522021D01*
X72075490Y11525222D01*
X72075645Y11540000D01*
X72055276Y11708320D01*
X71995345Y11866923D01*
X71989470Y11875472D01*
X71902692Y12001733D01*
X71899312Y12006651D01*
X71772721Y12119440D01*
X71759176Y12126612D01*
X71696016Y12160053D01*
X71622881Y12198776D01*
X71540661Y12219428D01*
X71464231Y12238627D01*
X71464228Y12238627D01*
X71458441Y12240081D01*
X71372841Y12240529D01*
X71294861Y12240938D01*
X71294859Y12240938D01*
X71288895Y12240969D01*
X71283099Y12239577D01*
X71283095Y12239577D01*
X71175703Y12213793D01*
X71124032Y12201388D01*
X71054679Y12165592D01*
X70978675Y12126364D01*
X70978673Y12126362D01*
X70973369Y12123625D01*
X70845604Y12012169D01*
X70842173Y12007287D01*
X70842172Y12007286D01*
X70778107Y11916130D01*
X70748113Y11873453D01*
X70720409Y11802397D01*
X70691361Y11727892D01*
X70686524Y11715487D01*
X70664394Y11547389D01*
X29587809Y11547389D01*
X29585993Y11562398D01*
X29585992Y11562401D01*
X29585276Y11568320D01*
X29525345Y11726923D01*
X29495314Y11770619D01*
X29432692Y11861733D01*
X29429312Y11866651D01*
X29302721Y11979440D01*
X29152881Y12058776D01*
X29051152Y12084329D01*
X28994231Y12098627D01*
X28994228Y12098627D01*
X28988441Y12100081D01*
X28902841Y12100529D01*
X28824861Y12100938D01*
X28824859Y12100938D01*
X28818895Y12100969D01*
X28813099Y12099577D01*
X28813095Y12099577D01*
X28736261Y12081130D01*
X28654032Y12061388D01*
X28597301Y12032107D01*
X28508675Y11986364D01*
X28508673Y11986362D01*
X28503369Y11983625D01*
X28375604Y11872169D01*
X28372173Y11867287D01*
X28372172Y11867286D01*
X28308080Y11776092D01*
X28278113Y11733453D01*
X28271108Y11715487D01*
X28238497Y11631843D01*
X28216524Y11575487D01*
X28194394Y11407389D01*
X14892649Y11407389D01*
X14885993Y11462398D01*
X14885992Y11462401D01*
X14885276Y11468320D01*
X14825345Y11626923D01*
X14756617Y11726923D01*
X14732692Y11761733D01*
X14729312Y11766651D01*
X14602721Y11879440D01*
X14452881Y11958776D01*
X14359504Y11982231D01*
X14294231Y11998627D01*
X14294228Y11998627D01*
X14288441Y12000081D01*
X14202841Y12000529D01*
X14124861Y12000938D01*
X14124859Y12000938D01*
X14118895Y12000969D01*
X14113099Y11999577D01*
X14113095Y11999577D01*
X14040847Y11982231D01*
X13954032Y11961388D01*
X13890950Y11928829D01*
X13808675Y11886364D01*
X13808673Y11886362D01*
X13803369Y11883625D01*
X13675604Y11772169D01*
X13672173Y11767287D01*
X13672172Y11767286D01*
X13635767Y11715487D01*
X13578113Y11633453D01*
X13516524Y11475487D01*
X13494394Y11307389D01*
X13495049Y11301456D01*
X13495049Y11301452D01*
X13504943Y11211833D01*
X13512999Y11138865D01*
X13571266Y10979644D01*
X13581235Y10964809D01*
X13627753Y10895582D01*
X13644514Y10836738D01*
X13623487Y10779279D01*
X13572702Y10745153D01*
X13540974Y10741473D01*
X5911521Y11097132D01*
X5854274Y11118729D01*
X5825383Y11156455D01*
X5236313Y12507389D01*
X16544394Y12507389D01*
X16545049Y12501456D01*
X16545049Y12501452D01*
X16545566Y12496769D01*
X16562999Y12338865D01*
X16621266Y12179644D01*
X16624591Y12174695D01*
X16624592Y12174694D01*
X16667138Y12111378D01*
X16715830Y12038917D01*
X16841233Y11924809D01*
X16990235Y11843908D01*
X17025189Y11834738D01*
X17148464Y11802397D01*
X17148468Y11802396D01*
X17154233Y11800884D01*
X17160194Y11800790D01*
X17160197Y11800790D01*
X17238996Y11799553D01*
X17323760Y11798221D01*
X17329575Y11799553D01*
X17329577Y11799553D01*
X17483206Y11834738D01*
X17483209Y11834739D01*
X17489029Y11836072D01*
X17504610Y11843908D01*
X17580806Y11882231D01*
X17640498Y11912253D01*
X17645035Y11916128D01*
X17645038Y11916130D01*
X17764888Y12018492D01*
X17764891Y12018495D01*
X17769423Y12022366D01*
X17778430Y12034900D01*
X17864877Y12155204D01*
X17864878Y12155206D01*
X17868361Y12160053D01*
X17884513Y12200230D01*
X17929377Y12311833D01*
X17929378Y12311835D01*
X17931601Y12317366D01*
X17932442Y12323273D01*
X17955034Y12482015D01*
X17955034Y12482021D01*
X17955490Y12485222D01*
X17955645Y12500000D01*
X17935276Y12668320D01*
X17875345Y12826923D01*
X17826279Y12898315D01*
X17782692Y12961733D01*
X17779312Y12966651D01*
X17652721Y13079440D01*
X17647450Y13082231D01*
X17647447Y13082233D01*
X17618296Y13097668D01*
X17575717Y13141607D01*
X17567096Y13202182D01*
X17595727Y13256255D01*
X17650674Y13283172D01*
X17689744Y13280919D01*
X17798457Y13252398D01*
X17798467Y13252397D01*
X17804233Y13250884D01*
X17810194Y13250790D01*
X17810197Y13250790D01*
X17888965Y13249553D01*
X17973760Y13248221D01*
X17979575Y13249553D01*
X17979577Y13249553D01*
X18133206Y13284738D01*
X18133209Y13284739D01*
X18139029Y13286072D01*
X18154610Y13293908D01*
X18270840Y13352366D01*
X18290498Y13362253D01*
X18295035Y13366128D01*
X18295038Y13366130D01*
X18414888Y13468492D01*
X18414891Y13468495D01*
X18419423Y13472366D01*
X18428648Y13485204D01*
X18514877Y13605204D01*
X18514878Y13605206D01*
X18518361Y13610053D01*
X18535736Y13653273D01*
X18579377Y13761833D01*
X18579378Y13761835D01*
X18581601Y13767366D01*
X18582757Y13775487D01*
X18605034Y13932015D01*
X18605034Y13932021D01*
X18605490Y13935222D01*
X18605645Y13950000D01*
X18592914Y14055204D01*
X18585993Y14112398D01*
X18585992Y14112401D01*
X18585276Y14118320D01*
X18525345Y14276923D01*
X18518857Y14286364D01*
X18432692Y14411733D01*
X18429312Y14416651D01*
X18302721Y14529440D01*
X18295505Y14533261D01*
X18240474Y14562398D01*
X18152881Y14608776D01*
X18059504Y14632231D01*
X17994231Y14648627D01*
X17994228Y14648627D01*
X17988441Y14650081D01*
X17902841Y14650529D01*
X17824861Y14650938D01*
X17824859Y14650938D01*
X17818895Y14650969D01*
X17813099Y14649577D01*
X17813095Y14649577D01*
X17712695Y14625472D01*
X17654032Y14611388D01*
X17587813Y14577210D01*
X17508675Y14536364D01*
X17508673Y14536362D01*
X17503369Y14533625D01*
X17375604Y14422169D01*
X17372173Y14417287D01*
X17372172Y14417286D01*
X17290186Y14300631D01*
X17278113Y14283453D01*
X17250975Y14213849D01*
X17218843Y14131434D01*
X17216524Y14125487D01*
X17194394Y13957389D01*
X17195049Y13951456D01*
X17195049Y13951452D01*
X17210417Y13812253D01*
X17212999Y13788865D01*
X17271266Y13629644D01*
X17274591Y13624695D01*
X17274592Y13624694D01*
X17303271Y13582015D01*
X17365830Y13488917D01*
X17491233Y13374809D01*
X17514359Y13362253D01*
X17532922Y13352174D01*
X17575040Y13307792D01*
X17583026Y13247130D01*
X17553831Y13193359D01*
X17498607Y13167018D01*
X17461566Y13169154D01*
X17344231Y13198627D01*
X17344228Y13198627D01*
X17338441Y13200081D01*
X17252841Y13200529D01*
X17174861Y13200938D01*
X17174859Y13200938D01*
X17168895Y13200969D01*
X17163099Y13199577D01*
X17163095Y13199577D01*
X17070638Y13177379D01*
X17004032Y13161388D01*
X16942353Y13129553D01*
X16858675Y13086364D01*
X16858673Y13086362D01*
X16853369Y13083625D01*
X16725604Y12972169D01*
X16722173Y12967287D01*
X16722172Y12967286D01*
X16631544Y12838335D01*
X16628113Y12833453D01*
X16566524Y12675487D01*
X16544394Y12507389D01*
X5236313Y12507389D01*
X4656371Y13837389D01*
X7254394Y13837389D01*
X7255049Y13831456D01*
X7255049Y13831452D01*
X7269758Y13698221D01*
X7272999Y13668865D01*
X7331266Y13509644D01*
X7334591Y13504695D01*
X7334592Y13504694D01*
X7356589Y13471959D01*
X7425830Y13368917D01*
X7551233Y13254809D01*
X7556482Y13251959D01*
X7563367Y13248221D01*
X7700235Y13173908D01*
X7757915Y13158776D01*
X7858464Y13132397D01*
X7858468Y13132396D01*
X7864233Y13130884D01*
X7870194Y13130790D01*
X7870197Y13130790D01*
X7948996Y13129553D01*
X8033760Y13128221D01*
X8039575Y13129553D01*
X8039577Y13129553D01*
X8193206Y13164738D01*
X8193209Y13164739D01*
X8199029Y13166072D01*
X8214610Y13173908D01*
X8274764Y13204163D01*
X8350498Y13242253D01*
X8355035Y13246128D01*
X8355038Y13246130D01*
X8474888Y13348492D01*
X8474891Y13348495D01*
X8479423Y13352366D01*
X8484494Y13359423D01*
X8574877Y13485204D01*
X8574878Y13485206D01*
X8578361Y13490053D01*
X8581754Y13498492D01*
X8639377Y13641833D01*
X8639378Y13641835D01*
X8641601Y13647366D01*
X8642644Y13654694D01*
X8665034Y13812015D01*
X8665034Y13812021D01*
X8665490Y13815222D01*
X8665645Y13830000D01*
X8652535Y13938335D01*
X8645993Y13992398D01*
X8645992Y13992401D01*
X8645276Y13998320D01*
X8585345Y14156923D01*
X8578660Y14166651D01*
X8492692Y14291733D01*
X8489312Y14296651D01*
X8362721Y14409440D01*
X8347903Y14417286D01*
X8301730Y14441733D01*
X8212881Y14488776D01*
X8121487Y14511733D01*
X8054231Y14528627D01*
X8054228Y14528627D01*
X8048441Y14530081D01*
X7962841Y14530529D01*
X7884861Y14530938D01*
X7884859Y14530938D01*
X7878895Y14530969D01*
X7873099Y14529577D01*
X7873095Y14529577D01*
X7765703Y14503793D01*
X7714032Y14491388D01*
X7657584Y14462253D01*
X7568675Y14416364D01*
X7568673Y14416362D01*
X7563369Y14413625D01*
X7435604Y14302169D01*
X7432173Y14297287D01*
X7432172Y14297286D01*
X7373532Y14213849D01*
X7338113Y14163453D01*
X7325629Y14131434D01*
X7287428Y14033453D01*
X7276524Y14005487D01*
X7254394Y13837389D01*
X4656371Y13837389D01*
X4124394Y15057389D01*
X21844394Y15057389D01*
X21845049Y15051456D01*
X21845049Y15051452D01*
X21859300Y14922366D01*
X21862999Y14888865D01*
X21921266Y14729644D01*
X21924591Y14724695D01*
X21924592Y14724694D01*
X21937378Y14705667D01*
X22015830Y14588917D01*
X22141233Y14474809D01*
X22290235Y14393908D01*
X22336224Y14381843D01*
X22448464Y14352397D01*
X22448468Y14352396D01*
X22454233Y14350884D01*
X22460194Y14350790D01*
X22460197Y14350790D01*
X22538965Y14349553D01*
X22623760Y14348221D01*
X22629575Y14349553D01*
X22629577Y14349553D01*
X22783206Y14384738D01*
X22783209Y14384739D01*
X22789029Y14386072D01*
X22804610Y14393908D01*
X22874042Y14428829D01*
X22940498Y14462253D01*
X22945035Y14466128D01*
X22945038Y14466130D01*
X23064888Y14568492D01*
X23064891Y14568495D01*
X23069423Y14572366D01*
X23084875Y14593870D01*
X23164877Y14705204D01*
X23164878Y14705206D01*
X23168361Y14710053D01*
X23175533Y14727892D01*
X23229377Y14861833D01*
X23229378Y14861835D01*
X23231601Y14867366D01*
X23232531Y14873901D01*
X23251529Y15007389D01*
X23694394Y15007389D01*
X23695049Y15001456D01*
X23695049Y15001452D01*
X23712116Y14846862D01*
X23712999Y14838865D01*
X23771266Y14679644D01*
X23774591Y14674695D01*
X23774592Y14674694D01*
X23798096Y14639716D01*
X23865830Y14538917D01*
X23991233Y14424809D01*
X24140235Y14343908D01*
X24175189Y14334738D01*
X24298464Y14302397D01*
X24298468Y14302396D01*
X24304233Y14300884D01*
X24310194Y14300790D01*
X24310197Y14300790D01*
X24388996Y14299553D01*
X24473760Y14298221D01*
X24479575Y14299553D01*
X24479577Y14299553D01*
X24633206Y14334738D01*
X24633209Y14334739D01*
X24639029Y14336072D01*
X24654610Y14343908D01*
X24730376Y14382015D01*
X24790498Y14412253D01*
X24795035Y14416128D01*
X24795038Y14416130D01*
X24914888Y14518492D01*
X24914891Y14518495D01*
X24919423Y14522366D01*
X24927252Y14533261D01*
X25014877Y14655204D01*
X25014878Y14655206D01*
X25018361Y14660053D01*
X25026413Y14680081D01*
X25037391Y14707389D01*
X30894394Y14707389D01*
X30895049Y14701456D01*
X30895049Y14701452D01*
X30912344Y14544796D01*
X30912999Y14538865D01*
X30971266Y14379644D01*
X30974591Y14374695D01*
X30974592Y14374694D01*
X30985374Y14358649D01*
X31065830Y14238917D01*
X31191233Y14124809D01*
X31340235Y14043908D01*
X31386224Y14031843D01*
X31498464Y14002397D01*
X31498468Y14002396D01*
X31504233Y14000884D01*
X31510194Y14000790D01*
X31510197Y14000790D01*
X31588996Y13999553D01*
X31673760Y13998221D01*
X31679575Y13999553D01*
X31679577Y13999553D01*
X31833206Y14034738D01*
X31833209Y14034739D01*
X31839029Y14036072D01*
X31854610Y14043908D01*
X31925662Y14079644D01*
X31990498Y14112253D01*
X31995035Y14116128D01*
X31995038Y14116130D01*
X32018135Y14135857D01*
X32074663Y14159271D01*
X32134158Y14144987D01*
X32173894Y14098461D01*
X32178694Y14037464D01*
X32174668Y14024617D01*
X32157272Y13980000D01*
X32134802Y13922366D01*
X32116524Y13875487D01*
X32115745Y13869572D01*
X32115745Y13869571D01*
X32111508Y13837389D01*
X32094394Y13707389D01*
X32095049Y13701456D01*
X32095049Y13701452D01*
X32112344Y13544796D01*
X32112999Y13538865D01*
X32171266Y13379644D01*
X32174591Y13374695D01*
X32174592Y13374694D01*
X32184754Y13359571D01*
X32265830Y13238917D01*
X32333459Y13177379D01*
X32375729Y13138917D01*
X32391233Y13124809D01*
X32396482Y13121959D01*
X32407218Y13116130D01*
X32540235Y13043908D01*
X32575189Y13034738D01*
X32698464Y13002397D01*
X32698468Y13002396D01*
X32704233Y13000884D01*
X32710194Y13000790D01*
X32710197Y13000790D01*
X32788965Y12999553D01*
X32873760Y12998221D01*
X32879575Y12999553D01*
X32879577Y12999553D01*
X33033206Y13034738D01*
X33033209Y13034739D01*
X33039029Y13036072D01*
X33054610Y13043908D01*
X33130810Y13082233D01*
X33190498Y13112253D01*
X33195035Y13116128D01*
X33195038Y13116130D01*
X33314888Y13218492D01*
X33314891Y13218495D01*
X33319423Y13222366D01*
X33342736Y13254809D01*
X33414877Y13355204D01*
X33414878Y13355206D01*
X33418361Y13360053D01*
X33421925Y13368917D01*
X33479377Y13511833D01*
X33479378Y13511835D01*
X33481601Y13517366D01*
X33486622Y13552646D01*
X33505034Y13682015D01*
X33505034Y13682021D01*
X33505490Y13685222D01*
X33505645Y13700000D01*
X33493862Y13797366D01*
X33485993Y13862398D01*
X33485992Y13862401D01*
X33485276Y13868320D01*
X33425345Y14026923D01*
X33421846Y14032015D01*
X33332692Y14161733D01*
X33329312Y14166651D01*
X33202721Y14279440D01*
X33052881Y14358776D01*
X32954639Y14383453D01*
X32894231Y14398627D01*
X32894228Y14398627D01*
X32888441Y14400081D01*
X32802841Y14400529D01*
X32724861Y14400938D01*
X32724859Y14400938D01*
X32718895Y14400969D01*
X32713099Y14399577D01*
X32713095Y14399577D01*
X32609454Y14374694D01*
X32554032Y14361388D01*
X32504983Y14336072D01*
X32408675Y14286364D01*
X32408673Y14286362D01*
X32403369Y14283625D01*
X32398867Y14279698D01*
X32398866Y14279697D01*
X32381866Y14264868D01*
X32325587Y14240863D01*
X32265946Y14254523D01*
X32225724Y14300631D01*
X32220286Y14361574D01*
X32224931Y14376397D01*
X32225143Y14376923D01*
X32281601Y14517366D01*
X32283204Y14528627D01*
X32305034Y14682015D01*
X32305034Y14682021D01*
X32305490Y14685222D01*
X32305645Y14700000D01*
X32293259Y14802350D01*
X32285993Y14862398D01*
X32285992Y14862401D01*
X32285276Y14868320D01*
X32225345Y15026923D01*
X32221846Y15032015D01*
X32132692Y15161733D01*
X32129312Y15166651D01*
X32002721Y15279440D01*
X31995505Y15283261D01*
X31933425Y15316130D01*
X31852881Y15358776D01*
X31754639Y15383453D01*
X31694231Y15398627D01*
X31694228Y15398627D01*
X31688441Y15400081D01*
X31602841Y15400529D01*
X31524861Y15400938D01*
X31524859Y15400938D01*
X31518895Y15400969D01*
X31513099Y15399577D01*
X31513095Y15399577D01*
X31405703Y15373793D01*
X31354032Y15361388D01*
X31309368Y15338335D01*
X31208675Y15286364D01*
X31208673Y15286362D01*
X31203369Y15283625D01*
X31075604Y15172169D01*
X31072173Y15167287D01*
X31072172Y15167286D01*
X30981628Y15038455D01*
X30978113Y15033453D01*
X30967951Y15007389D01*
X30934802Y14922366D01*
X30916524Y14875487D01*
X30915745Y14869572D01*
X30915745Y14869571D01*
X30911703Y14838865D01*
X30894394Y14707389D01*
X25037391Y14707389D01*
X25079377Y14811833D01*
X25079378Y14811835D01*
X25081601Y14817366D01*
X25082442Y14823273D01*
X25105034Y14982015D01*
X25105034Y14982021D01*
X25105490Y14985222D01*
X25105645Y15000000D01*
X25092327Y15110053D01*
X25085993Y15162398D01*
X25085992Y15162401D01*
X25085276Y15168320D01*
X25025345Y15326923D01*
X25005373Y15355983D01*
X24932692Y15461733D01*
X24929312Y15466651D01*
X24802721Y15579440D01*
X24652881Y15658776D01*
X24570661Y15679429D01*
X24494231Y15698627D01*
X24494228Y15698627D01*
X24488441Y15700081D01*
X24402841Y15700529D01*
X24324861Y15700938D01*
X24324859Y15700938D01*
X24318895Y15700969D01*
X24313099Y15699577D01*
X24313095Y15699577D01*
X24205703Y15673793D01*
X24154032Y15661388D01*
X24092640Y15629701D01*
X24008675Y15586364D01*
X24008673Y15586362D01*
X24003369Y15583625D01*
X23875604Y15472169D01*
X23872173Y15467287D01*
X23872172Y15467286D01*
X23798725Y15362781D01*
X23778113Y15333453D01*
X23750353Y15262253D01*
X23721697Y15188754D01*
X23716524Y15175487D01*
X23694394Y15007389D01*
X23251529Y15007389D01*
X23255034Y15032015D01*
X23255034Y15032021D01*
X23255490Y15035222D01*
X23255645Y15050000D01*
X23241175Y15169571D01*
X23235993Y15212398D01*
X23235992Y15212401D01*
X23235276Y15218320D01*
X23175345Y15376923D01*
X23171846Y15382015D01*
X23082692Y15511733D01*
X23079312Y15516651D01*
X22952721Y15629440D01*
X22802881Y15708776D01*
X22711049Y15731843D01*
X22644231Y15748627D01*
X22644228Y15748627D01*
X22638441Y15750081D01*
X22552841Y15750529D01*
X22474861Y15750938D01*
X22474859Y15750938D01*
X22468895Y15750969D01*
X22463099Y15749577D01*
X22463095Y15749577D01*
X22368738Y15726923D01*
X22304032Y15711388D01*
X22271886Y15694796D01*
X22158675Y15636364D01*
X22158673Y15636362D01*
X22153369Y15633625D01*
X22025604Y15522169D01*
X22022173Y15517287D01*
X22022172Y15517286D01*
X21935434Y15393870D01*
X21928113Y15383453D01*
X21906073Y15326923D01*
X21871697Y15238754D01*
X21866524Y15225487D01*
X21844394Y15057389D01*
X4124394Y15057389D01*
X2107630Y19682502D01*
X2099423Y19719079D01*
X2087677Y20107389D01*
X4734394Y20107389D01*
X4735049Y20101456D01*
X4735049Y20101452D01*
X4747881Y19985222D01*
X4752999Y19938865D01*
X4811266Y19779644D01*
X4814591Y19774695D01*
X4814592Y19774694D01*
X4831562Y19749440D01*
X4905830Y19638917D01*
X4927011Y19619644D01*
X5015729Y19538917D01*
X5031233Y19524809D01*
X5180235Y19443908D01*
X5239680Y19428313D01*
X5338464Y19402397D01*
X5338468Y19402396D01*
X5344233Y19400884D01*
X5350194Y19400790D01*
X5350197Y19400790D01*
X5428996Y19399553D01*
X5513760Y19398221D01*
X5519575Y19399553D01*
X5519577Y19399553D01*
X5673206Y19434738D01*
X5673209Y19434739D01*
X5679029Y19436072D01*
X5694610Y19443908D01*
X5780282Y19486997D01*
X5830498Y19512253D01*
X5835035Y19516128D01*
X5835038Y19516130D01*
X5954888Y19618492D01*
X5954891Y19618495D01*
X5959423Y19622366D01*
X5974875Y19643870D01*
X6054877Y19755204D01*
X6054878Y19755206D01*
X6058361Y19760053D01*
X6065924Y19778865D01*
X6119377Y19911833D01*
X6119378Y19911835D01*
X6121601Y19917366D01*
X6124661Y19938865D01*
X6145034Y20082015D01*
X6145034Y20082021D01*
X6145490Y20085222D01*
X6145645Y20100000D01*
X6130286Y20226923D01*
X6125993Y20262398D01*
X6125992Y20262401D01*
X6125276Y20268320D01*
X6065345Y20426923D01*
X6056649Y20439577D01*
X5972692Y20561733D01*
X5969312Y20566651D01*
X5842721Y20679440D01*
X5692881Y20758776D01*
X5587509Y20785244D01*
X5534231Y20798627D01*
X5534228Y20798627D01*
X5528441Y20800081D01*
X5442841Y20800529D01*
X5364861Y20800938D01*
X5364859Y20800938D01*
X5358895Y20800969D01*
X5353099Y20799577D01*
X5353095Y20799577D01*
X5270072Y20779644D01*
X5194032Y20761388D01*
X5137584Y20732253D01*
X5048675Y20686364D01*
X5048673Y20686362D01*
X5043369Y20683625D01*
X4915604Y20572169D01*
X4912173Y20567287D01*
X4912172Y20567286D01*
X4821749Y20438627D01*
X4818113Y20433453D01*
X4803504Y20395983D01*
X4760320Y20285222D01*
X4756524Y20275487D01*
X4755745Y20269572D01*
X4755745Y20269571D01*
X4754801Y20262398D01*
X4734394Y20107389D01*
X2087677Y20107389D01*
X2014446Y22528315D01*
X1933085Y25218008D01*
X1950225Y25276743D01*
X1998615Y25314187D01*
X2032040Y25320000D01*
X5430000Y25320000D01*
X6323636Y25347584D01*
X7512537Y25384281D01*
X7571283Y25367178D01*
X7608757Y25318811D01*
X7611986Y25307889D01*
X7889598Y24121733D01*
X7905966Y24051795D01*
X7900817Y23990826D01*
X7860815Y23944528D01*
X7809053Y23930235D01*
X7674861Y23930938D01*
X7674859Y23930938D01*
X7668895Y23930969D01*
X7663099Y23929577D01*
X7663095Y23929577D01*
X7555703Y23903793D01*
X7504032Y23891388D01*
X7476007Y23876923D01*
X7358675Y23816364D01*
X7358673Y23816362D01*
X7353369Y23813625D01*
X7225604Y23702169D01*
X7222173Y23697287D01*
X7222172Y23697286D01*
X7204658Y23672366D01*
X7128113Y23563453D01*
X7066524Y23405487D01*
X7044394Y23237389D01*
X7045049Y23231456D01*
X7045049Y23231452D01*
X7062197Y23076130D01*
X7062999Y23068865D01*
X7121266Y22909644D01*
X7124591Y22904695D01*
X7124592Y22904694D01*
X7138750Y22883625D01*
X7215830Y22768917D01*
X7341233Y22654809D01*
X7490235Y22573908D01*
X7547915Y22558776D01*
X7648464Y22532397D01*
X7648468Y22532396D01*
X7654233Y22530884D01*
X7660194Y22530790D01*
X7660197Y22530790D01*
X7738996Y22529553D01*
X7823760Y22528221D01*
X7829575Y22529553D01*
X7829577Y22529553D01*
X7983206Y22564738D01*
X7983209Y22564739D01*
X7989029Y22566072D01*
X8001599Y22572394D01*
X8108123Y22625969D01*
X8168604Y22635224D01*
X8222974Y22607161D01*
X8250466Y22552499D01*
X8251430Y22531645D01*
X8251232Y22528315D01*
X8207211Y21789050D01*
X8184878Y21732086D01*
X8133328Y21699128D01*
X8072251Y21702765D01*
X8062061Y21707442D01*
X8052680Y21712409D01*
X8002881Y21738776D01*
X7912860Y21761388D01*
X7844231Y21778627D01*
X7844228Y21778627D01*
X7838441Y21780081D01*
X7752841Y21780529D01*
X7674861Y21780938D01*
X7674859Y21780938D01*
X7668895Y21780969D01*
X7663099Y21779577D01*
X7663095Y21779577D01*
X7564823Y21755983D01*
X7504032Y21741388D01*
X7447584Y21712253D01*
X7358675Y21666364D01*
X7358673Y21666362D01*
X7353369Y21663625D01*
X7225604Y21552169D01*
X7128113Y21413453D01*
X7107293Y21360053D01*
X7069219Y21262398D01*
X7066524Y21255487D01*
X7065745Y21249572D01*
X7065745Y21249571D01*
X7063968Y21236072D01*
X7044394Y21087389D01*
X7045049Y21081456D01*
X7045049Y21081452D01*
X7062343Y20924809D01*
X7062999Y20918865D01*
X7121266Y20759644D01*
X7124591Y20754695D01*
X7124592Y20754694D01*
X7139672Y20732253D01*
X7215830Y20618917D01*
X7341233Y20504809D01*
X7490235Y20423908D01*
X7541080Y20410569D01*
X7648464Y20382397D01*
X7648468Y20382396D01*
X7654233Y20380884D01*
X7660194Y20380790D01*
X7660197Y20380790D01*
X7738996Y20379553D01*
X7823760Y20378221D01*
X7829575Y20379553D01*
X7829577Y20379553D01*
X7983206Y20414738D01*
X7983209Y20414739D01*
X7989029Y20416072D01*
X7999506Y20421341D01*
X8089594Y20466651D01*
X8140498Y20492253D01*
X8145035Y20496128D01*
X8145038Y20496130D01*
X8264888Y20598492D01*
X8264891Y20598495D01*
X8269423Y20602366D01*
X8292274Y20634166D01*
X8341583Y20670388D01*
X8402767Y20670709D01*
X8452455Y20635005D01*
X8467230Y20605709D01*
X8497355Y20508532D01*
X8501075Y20491131D01*
X8810340Y17939701D01*
X8815263Y17899083D01*
X8803495Y17839040D01*
X8758682Y17797381D01*
X8697941Y17790018D01*
X8642721Y17821700D01*
X8642693Y17821732D01*
X8639312Y17826651D01*
X8512721Y17939440D01*
X8504283Y17943908D01*
X8461328Y17966651D01*
X8362881Y18018776D01*
X8280661Y18039429D01*
X8204231Y18058627D01*
X8204228Y18058627D01*
X8198441Y18060081D01*
X8112841Y18060529D01*
X8034861Y18060938D01*
X8034859Y18060938D01*
X8028895Y18060969D01*
X8023099Y18059577D01*
X8023095Y18059577D01*
X7915703Y18033793D01*
X7864032Y18021388D01*
X7788700Y17982506D01*
X7718675Y17946364D01*
X7718673Y17946362D01*
X7713369Y17943625D01*
X7585604Y17832169D01*
X7582173Y17827287D01*
X7582172Y17827286D01*
X7528536Y17750969D01*
X7488113Y17693453D01*
X7485945Y17687892D01*
X7432724Y17551388D01*
X7426524Y17535487D01*
X7425745Y17529572D01*
X7425745Y17529571D01*
X7424771Y17522169D01*
X7404394Y17367389D01*
X7405049Y17361456D01*
X7405049Y17361452D01*
X7422058Y17207389D01*
X7422999Y17198865D01*
X7481266Y17039644D01*
X7484591Y17034695D01*
X7484592Y17034694D01*
X7496236Y17017366D01*
X7575830Y16898917D01*
X7701233Y16784809D01*
X7850235Y16703908D01*
X7885189Y16694738D01*
X8008464Y16662397D01*
X8008468Y16662396D01*
X8014233Y16660884D01*
X8020194Y16660790D01*
X8020197Y16660790D01*
X8098965Y16659553D01*
X8183760Y16658221D01*
X8189575Y16659553D01*
X8189577Y16659553D01*
X8343206Y16694738D01*
X8343209Y16694739D01*
X8349029Y16696072D01*
X8360484Y16701833D01*
X8495165Y16769571D01*
X8500498Y16772253D01*
X8505035Y16776128D01*
X8505038Y16776130D01*
X8624888Y16878492D01*
X8624891Y16878495D01*
X8629423Y16882366D01*
X8641316Y16898917D01*
X8724877Y17015204D01*
X8724878Y17015206D01*
X8728361Y17020053D01*
X8735924Y17038865D01*
X8778485Y17144739D01*
X8817733Y17191678D01*
X8877075Y17206584D01*
X8899911Y17199616D01*
X8900000Y17200000D01*
X10194123Y16901356D01*
X10194125Y16901356D01*
X10200000Y16900000D01*
X22296490Y17099942D01*
X22303495Y17099810D01*
X26530205Y16870098D01*
X26587283Y16848061D01*
X26607003Y16826461D01*
X26665830Y16738917D01*
X26791233Y16624809D01*
X26940235Y16543908D01*
X26975189Y16534738D01*
X27098464Y16502397D01*
X27098468Y16502396D01*
X27104233Y16500884D01*
X27110194Y16500790D01*
X27110197Y16500790D01*
X27188996Y16499553D01*
X27273760Y16498221D01*
X27279575Y16499553D01*
X27279577Y16499553D01*
X27433206Y16534738D01*
X27433209Y16534739D01*
X27439029Y16536072D01*
X27454610Y16543908D01*
X27516914Y16575244D01*
X27590498Y16612253D01*
X27595035Y16616128D01*
X27595038Y16616130D01*
X27714886Y16718491D01*
X27719423Y16722366D01*
X27759349Y16777929D01*
X27808657Y16814150D01*
X27842983Y16819104D01*
X34881171Y16588502D01*
X34938710Y16567699D01*
X34944549Y16562785D01*
X34973906Y16536072D01*
X35036144Y16479440D01*
X35041233Y16474809D01*
X35190235Y16393908D01*
X35220234Y16386038D01*
X35348464Y16352397D01*
X35348468Y16352396D01*
X35354233Y16350884D01*
X35360194Y16350790D01*
X35360197Y16350790D01*
X35438965Y16349553D01*
X35523760Y16348221D01*
X35529575Y16349553D01*
X35529577Y16349553D01*
X35683206Y16384738D01*
X35683209Y16384739D01*
X35689029Y16386072D01*
X35704610Y16393908D01*
X35777750Y16430694D01*
X35840498Y16462253D01*
X35845035Y16466128D01*
X35845038Y16466130D01*
X35918230Y16528643D01*
X35974758Y16552058D01*
X35985768Y16552310D01*
X36601535Y16532135D01*
X36659075Y16511332D01*
X36693399Y16460681D01*
X36691395Y16399528D01*
X36675177Y16372469D01*
X36675604Y16372169D01*
X36578113Y16233453D01*
X36556073Y16176923D01*
X36534802Y16122366D01*
X36516524Y16075487D01*
X36494394Y15907389D01*
X36495049Y15901456D01*
X36495049Y15901452D01*
X36511666Y15750938D01*
X36512999Y15738865D01*
X36571266Y15579644D01*
X36574591Y15574695D01*
X36574592Y15574694D01*
X36587687Y15555207D01*
X36665830Y15438917D01*
X36791233Y15324809D01*
X36940235Y15243908D01*
X36999680Y15228313D01*
X37098464Y15202397D01*
X37098468Y15202396D01*
X37104233Y15200884D01*
X37110194Y15200790D01*
X37110197Y15200790D01*
X37188965Y15199553D01*
X37273760Y15198221D01*
X37279575Y15199553D01*
X37279577Y15199553D01*
X37433206Y15234738D01*
X37433209Y15234739D01*
X37439029Y15236072D01*
X37444583Y15238865D01*
X37532854Y15283261D01*
X37590498Y15312253D01*
X37595035Y15316128D01*
X37595038Y15316130D01*
X37714888Y15418492D01*
X37714891Y15418495D01*
X37719423Y15422366D01*
X37726357Y15432015D01*
X37814879Y15555207D01*
X37814880Y15555208D01*
X37818361Y15560053D01*
X37820462Y15565279D01*
X37864971Y15607074D01*
X37925675Y15614741D01*
X37973747Y15590720D01*
X37991233Y15574809D01*
X38140235Y15493908D01*
X38199680Y15478313D01*
X38298464Y15452397D01*
X38298468Y15452396D01*
X38304233Y15450884D01*
X38310194Y15450790D01*
X38310197Y15450790D01*
X38354600Y15450093D01*
X38358087Y15450038D01*
X38415974Y15430219D01*
X38451156Y15380160D01*
X38454934Y15361914D01*
X38459989Y15316130D01*
X38462999Y15288865D01*
X38521266Y15129644D01*
X38524591Y15124695D01*
X38524592Y15124694D01*
X38541131Y15100081D01*
X38615830Y14988917D01*
X38741233Y14874809D01*
X38857222Y14811833D01*
X38859288Y14810711D01*
X38901406Y14766329D01*
X38909392Y14705667D01*
X38880197Y14651896D01*
X38863430Y14639979D01*
X38863608Y14639716D01*
X38858675Y14636364D01*
X38853369Y14633625D01*
X38725604Y14522169D01*
X38722173Y14517287D01*
X38722172Y14517286D01*
X38631628Y14388455D01*
X38628113Y14383453D01*
X38613806Y14346757D01*
X38586013Y14275472D01*
X38566524Y14225487D01*
X38544394Y14057389D01*
X38545049Y14051456D01*
X38545049Y14051452D01*
X38559728Y13918492D01*
X38562999Y13888865D01*
X38621266Y13729644D01*
X38624591Y13724695D01*
X38624592Y13724694D01*
X38664541Y13665244D01*
X38715830Y13588917D01*
X38796796Y13515244D01*
X38825729Y13488917D01*
X38841233Y13474809D01*
X38846482Y13471959D01*
X38857218Y13466130D01*
X38990235Y13393908D01*
X39025189Y13384738D01*
X39148464Y13352397D01*
X39148468Y13352396D01*
X39154233Y13350884D01*
X39160194Y13350790D01*
X39160197Y13350790D01*
X39238996Y13349553D01*
X39323760Y13348221D01*
X39329575Y13349553D01*
X39329577Y13349553D01*
X39483206Y13384738D01*
X39483209Y13384739D01*
X39489029Y13386072D01*
X39504610Y13393908D01*
X39593996Y13438865D01*
X39640498Y13462253D01*
X39645035Y13466128D01*
X39645038Y13466130D01*
X39764888Y13568492D01*
X39764891Y13568495D01*
X39769423Y13572366D01*
X39773579Y13578150D01*
X39864877Y13705204D01*
X39864878Y13705206D01*
X39866447Y13707389D01*
X50544394Y13707389D01*
X50545049Y13701456D01*
X50545049Y13701452D01*
X50562344Y13544796D01*
X50562999Y13538865D01*
X50621266Y13379644D01*
X50624591Y13374695D01*
X50624592Y13374694D01*
X50634754Y13359571D01*
X50715830Y13238917D01*
X50783459Y13177379D01*
X50825729Y13138917D01*
X50841233Y13124809D01*
X50846482Y13121959D01*
X50857218Y13116130D01*
X50990235Y13043908D01*
X51025189Y13034738D01*
X51148464Y13002397D01*
X51148468Y13002396D01*
X51154233Y13000884D01*
X51160194Y13000790D01*
X51160197Y13000790D01*
X51238965Y12999553D01*
X51323760Y12998221D01*
X51329575Y12999553D01*
X51329577Y12999553D01*
X51483206Y13034738D01*
X51483209Y13034739D01*
X51489029Y13036072D01*
X51504610Y13043908D01*
X51580810Y13082233D01*
X51640498Y13112253D01*
X51645035Y13116128D01*
X51645038Y13116130D01*
X51764888Y13218492D01*
X51764891Y13218495D01*
X51769423Y13222366D01*
X51792736Y13254809D01*
X51864877Y13355204D01*
X51864878Y13355206D01*
X51868361Y13360053D01*
X51871925Y13368917D01*
X51929377Y13511833D01*
X51929378Y13511835D01*
X51931601Y13517366D01*
X51936622Y13552646D01*
X51955034Y13682015D01*
X51955034Y13682021D01*
X51955490Y13685222D01*
X51955645Y13700000D01*
X51943862Y13797366D01*
X51935993Y13862398D01*
X51935992Y13862401D01*
X51935276Y13868320D01*
X51890284Y13987389D01*
X52334394Y13987389D01*
X52335049Y13981456D01*
X52335049Y13981452D01*
X52351899Y13828829D01*
X52352999Y13818865D01*
X52411266Y13659644D01*
X52414591Y13654695D01*
X52414592Y13654694D01*
X52446380Y13607389D01*
X52505830Y13518917D01*
X52631233Y13404809D01*
X52780235Y13323908D01*
X52815189Y13314738D01*
X52938464Y13282397D01*
X52938468Y13282396D01*
X52944233Y13280884D01*
X52950194Y13280790D01*
X52950197Y13280790D01*
X53028996Y13279553D01*
X53113760Y13278221D01*
X53119575Y13279553D01*
X53119577Y13279553D01*
X53273206Y13314738D01*
X53273209Y13314739D01*
X53279029Y13316072D01*
X53287826Y13320496D01*
X53376311Y13365000D01*
X53430498Y13392253D01*
X53435035Y13396128D01*
X53435038Y13396130D01*
X53554888Y13498492D01*
X53554891Y13498495D01*
X53559423Y13502366D01*
X53574875Y13523870D01*
X53634890Y13607389D01*
X84394394Y13607389D01*
X84395049Y13601456D01*
X84395049Y13601452D01*
X84409031Y13474809D01*
X84412999Y13438865D01*
X84471266Y13279644D01*
X84474591Y13274695D01*
X84474592Y13274694D01*
X84506500Y13227210D01*
X84565830Y13138917D01*
X84691233Y13024809D01*
X84840235Y12943908D01*
X84875189Y12934738D01*
X84998464Y12902397D01*
X84998468Y12902396D01*
X85004233Y12900884D01*
X85010194Y12900790D01*
X85010197Y12900790D01*
X85088965Y12899553D01*
X85173760Y12898221D01*
X85179575Y12899553D01*
X85179577Y12899553D01*
X85333206Y12934738D01*
X85333209Y12934739D01*
X85339029Y12936072D01*
X85354610Y12943908D01*
X85467893Y13000884D01*
X85490498Y13012253D01*
X85495035Y13016128D01*
X85495038Y13016130D01*
X85614888Y13118492D01*
X85614891Y13118495D01*
X85619423Y13122366D01*
X85624067Y13128829D01*
X85714877Y13255204D01*
X85714878Y13255206D01*
X85718361Y13260053D01*
X85720588Y13265592D01*
X85720590Y13265596D01*
X85758309Y13359423D01*
X85797556Y13406361D01*
X85856898Y13421267D01*
X85913668Y13398445D01*
X85943134Y13356518D01*
X85969215Y13285247D01*
X85969217Y13285244D01*
X85971266Y13279644D01*
X85974591Y13274695D01*
X85974592Y13274694D01*
X86006500Y13227210D01*
X86065830Y13138917D01*
X86191233Y13024809D01*
X86340235Y12943908D01*
X86375189Y12934738D01*
X86498464Y12902397D01*
X86498468Y12902396D01*
X86504233Y12900884D01*
X86510194Y12900790D01*
X86510197Y12900790D01*
X86588965Y12899553D01*
X86673760Y12898221D01*
X86679575Y12899553D01*
X86679577Y12899553D01*
X86833206Y12934738D01*
X86833209Y12934739D01*
X86839029Y12936072D01*
X86854610Y12943908D01*
X86967893Y13000884D01*
X86990498Y13012253D01*
X86995035Y13016128D01*
X86995038Y13016130D01*
X87114888Y13118492D01*
X87114891Y13118495D01*
X87119423Y13122366D01*
X87124067Y13128829D01*
X87214877Y13255204D01*
X87214878Y13255206D01*
X87218361Y13260053D01*
X87220590Y13265596D01*
X87279377Y13411833D01*
X87279378Y13411835D01*
X87281601Y13417366D01*
X87287608Y13459571D01*
X87305034Y13582015D01*
X87305034Y13582021D01*
X87305490Y13585222D01*
X87305645Y13600000D01*
X87292914Y13705204D01*
X87285993Y13762398D01*
X87285992Y13762401D01*
X87285276Y13768320D01*
X87225345Y13926923D01*
X87221846Y13932015D01*
X87132692Y14061733D01*
X87129312Y14066651D01*
X87002721Y14179440D01*
X86852881Y14258776D01*
X86754639Y14283453D01*
X86694231Y14298627D01*
X86694228Y14298627D01*
X86688441Y14300081D01*
X86602841Y14300529D01*
X86524861Y14300938D01*
X86524859Y14300938D01*
X86518895Y14300969D01*
X86513099Y14299577D01*
X86513095Y14299577D01*
X86418738Y14276923D01*
X86354032Y14261388D01*
X86284475Y14225487D01*
X86208675Y14186364D01*
X86208673Y14186362D01*
X86203369Y14183625D01*
X86075604Y14072169D01*
X86072173Y14067287D01*
X86072172Y14067286D01*
X85985434Y13943870D01*
X85978113Y13933453D01*
X85942180Y13841290D01*
X85903429Y13793947D01*
X85844246Y13778420D01*
X85787241Y13800646D01*
X85757336Y13842262D01*
X85727454Y13921341D01*
X85725345Y13926923D01*
X85721846Y13932015D01*
X85632692Y14061733D01*
X85629312Y14066651D01*
X85502721Y14179440D01*
X85352881Y14258776D01*
X85254639Y14283453D01*
X85194231Y14298627D01*
X85194228Y14298627D01*
X85188441Y14300081D01*
X85102841Y14300529D01*
X85024861Y14300938D01*
X85024859Y14300938D01*
X85018895Y14300969D01*
X85013099Y14299577D01*
X85013095Y14299577D01*
X84918738Y14276923D01*
X84854032Y14261388D01*
X84784475Y14225487D01*
X84708675Y14186364D01*
X84708673Y14186362D01*
X84703369Y14183625D01*
X84575604Y14072169D01*
X84572173Y14067287D01*
X84572172Y14067286D01*
X84485434Y13943870D01*
X84478113Y13933453D01*
X84450410Y13862398D01*
X84433437Y13818865D01*
X84416524Y13775487D01*
X84394394Y13607389D01*
X53634890Y13607389D01*
X53654877Y13635204D01*
X53654878Y13635206D01*
X53658361Y13640053D01*
X53663676Y13653273D01*
X53719377Y13791833D01*
X53719378Y13791835D01*
X53721601Y13797366D01*
X53723863Y13813261D01*
X53745034Y13962015D01*
X53745034Y13962021D01*
X53745490Y13965222D01*
X53745645Y13980000D01*
X53729623Y14112398D01*
X53725993Y14142398D01*
X53725992Y14142401D01*
X53725276Y14148320D01*
X53665345Y14306923D01*
X53653650Y14323940D01*
X53596296Y14407389D01*
X62894394Y14407389D01*
X62895049Y14401456D01*
X62895049Y14401452D01*
X62910512Y14261388D01*
X62912999Y14238865D01*
X62971266Y14079644D01*
X62974591Y14074695D01*
X62974592Y14074694D01*
X63000545Y14036072D01*
X63065830Y13938917D01*
X63191233Y13824809D01*
X63196482Y13821959D01*
X63202936Y13818455D01*
X63340235Y13743908D01*
X63375189Y13734738D01*
X63498464Y13702397D01*
X63498468Y13702396D01*
X63504233Y13700884D01*
X63510194Y13700790D01*
X63510197Y13700790D01*
X63588996Y13699553D01*
X63673760Y13698221D01*
X63679575Y13699553D01*
X63679577Y13699553D01*
X63833206Y13734738D01*
X63833209Y13734739D01*
X63839029Y13736072D01*
X63854610Y13743908D01*
X63949897Y13791833D01*
X63990498Y13812253D01*
X63995035Y13816128D01*
X63995038Y13816130D01*
X64114888Y13918492D01*
X64114891Y13918495D01*
X64119423Y13922366D01*
X64126233Y13931843D01*
X64214877Y14055204D01*
X64214878Y14055206D01*
X64218361Y14060053D01*
X64221014Y14066651D01*
X64279377Y14211833D01*
X64279378Y14211835D01*
X64281601Y14217366D01*
X64282757Y14225487D01*
X64305034Y14382015D01*
X64305034Y14382021D01*
X64305490Y14385222D01*
X64305645Y14400000D01*
X64304751Y14407389D01*
X67594394Y14407389D01*
X67595049Y14401456D01*
X67595049Y14401452D01*
X67610512Y14261388D01*
X67612999Y14238865D01*
X67671266Y14079644D01*
X67674591Y14074695D01*
X67674592Y14074694D01*
X67700545Y14036072D01*
X67765830Y13938917D01*
X67891233Y13824809D01*
X67896482Y13821959D01*
X67902936Y13818455D01*
X68040235Y13743908D01*
X68075189Y13734738D01*
X68198464Y13702397D01*
X68198468Y13702396D01*
X68204233Y13700884D01*
X68210194Y13700790D01*
X68210197Y13700790D01*
X68288996Y13699553D01*
X68373760Y13698221D01*
X68379575Y13699553D01*
X68379577Y13699553D01*
X68533206Y13734738D01*
X68533209Y13734739D01*
X68539029Y13736072D01*
X68554610Y13743908D01*
X68649897Y13791833D01*
X68690498Y13812253D01*
X68695035Y13816128D01*
X68695038Y13816130D01*
X68814888Y13918492D01*
X68814891Y13918495D01*
X68819423Y13922366D01*
X68826233Y13931843D01*
X68914877Y14055204D01*
X68914878Y14055206D01*
X68918361Y14060053D01*
X68921014Y14066651D01*
X68979377Y14211833D01*
X68979378Y14211835D01*
X68981601Y14217366D01*
X68982757Y14225487D01*
X69005034Y14382015D01*
X69005034Y14382021D01*
X69005490Y14385222D01*
X69005645Y14400000D01*
X68991306Y14518492D01*
X68985993Y14562398D01*
X68985992Y14562401D01*
X68985276Y14568320D01*
X68925345Y14726923D01*
X68921710Y14732213D01*
X68877575Y14796429D01*
X69995354Y14796429D01*
X69996009Y14790496D01*
X69996009Y14790492D01*
X70012470Y14641388D01*
X70013959Y14627905D01*
X70072226Y14468684D01*
X70075551Y14463735D01*
X70075552Y14463734D01*
X70110146Y14412253D01*
X70166790Y14327957D01*
X70292193Y14213849D01*
X70441195Y14132948D01*
X70476149Y14123778D01*
X70599424Y14091437D01*
X70599428Y14091436D01*
X70605193Y14089924D01*
X70611154Y14089830D01*
X70611157Y14089830D01*
X70689925Y14088593D01*
X70774720Y14087261D01*
X70780535Y14088593D01*
X70780537Y14088593D01*
X70934166Y14123778D01*
X70934169Y14123779D01*
X70939989Y14125112D01*
X70947380Y14128829D01*
X71025928Y14168335D01*
X71091458Y14201293D01*
X71095995Y14205168D01*
X71095998Y14205170D01*
X71215848Y14307532D01*
X71215851Y14307535D01*
X71220383Y14311406D01*
X71237149Y14334738D01*
X71315837Y14444244D01*
X71315838Y14444246D01*
X71319321Y14449093D01*
X71324612Y14462253D01*
X71380337Y14600873D01*
X71380338Y14600875D01*
X71382561Y14606406D01*
X71383402Y14612313D01*
X71405994Y14771055D01*
X71405994Y14771061D01*
X71406450Y14774262D01*
X71406605Y14789040D01*
X71388468Y14938917D01*
X71386953Y14951438D01*
X71386952Y14951441D01*
X71386236Y14957360D01*
X71326305Y15115963D01*
X71320305Y15124694D01*
X71233652Y15250773D01*
X71230272Y15255691D01*
X71103681Y15368480D01*
X71098278Y15371341D01*
X71065082Y15388917D01*
X70953841Y15447816D01*
X70856889Y15472169D01*
X70795191Y15487667D01*
X70795188Y15487667D01*
X70789401Y15489121D01*
X70703801Y15489569D01*
X70625821Y15489978D01*
X70625819Y15489978D01*
X70619855Y15490009D01*
X70614059Y15488617D01*
X70614055Y15488617D01*
X70525209Y15467286D01*
X70454992Y15450428D01*
X70415838Y15430219D01*
X70309635Y15375404D01*
X70309633Y15375402D01*
X70304329Y15372665D01*
X70176564Y15261209D01*
X70173133Y15256327D01*
X70173132Y15256326D01*
X70084099Y15129644D01*
X70079073Y15122493D01*
X70074351Y15110381D01*
X70024387Y14982231D01*
X70017484Y14964527D01*
X70016705Y14958612D01*
X70016705Y14958611D01*
X70014112Y14938917D01*
X69995354Y14796429D01*
X68877575Y14796429D01*
X68832692Y14861733D01*
X68829312Y14866651D01*
X68702721Y14979440D01*
X68552881Y15058776D01*
X68447509Y15085244D01*
X68394231Y15098627D01*
X68394228Y15098627D01*
X68388441Y15100081D01*
X68302841Y15100529D01*
X68224861Y15100938D01*
X68224859Y15100938D01*
X68218895Y15100969D01*
X68213099Y15099577D01*
X68213095Y15099577D01*
X68130072Y15079644D01*
X68054032Y15061388D01*
X67999909Y15033453D01*
X67908675Y14986364D01*
X67908673Y14986362D01*
X67903369Y14983625D01*
X67775604Y14872169D01*
X67772173Y14867287D01*
X67772172Y14867286D01*
X67681544Y14738335D01*
X67678113Y14733453D01*
X67663810Y14696769D01*
X67636013Y14625472D01*
X67616524Y14575487D01*
X67615745Y14569572D01*
X67615745Y14569571D01*
X67612362Y14543870D01*
X67594394Y14407389D01*
X64304751Y14407389D01*
X64291306Y14518492D01*
X64285993Y14562398D01*
X64285992Y14562401D01*
X64285276Y14568320D01*
X64225345Y14726923D01*
X64221710Y14732213D01*
X64132692Y14861733D01*
X64129312Y14866651D01*
X64002721Y14979440D01*
X63852881Y15058776D01*
X63747509Y15085244D01*
X63694231Y15098627D01*
X63694228Y15098627D01*
X63688441Y15100081D01*
X63602841Y15100529D01*
X63524861Y15100938D01*
X63524859Y15100938D01*
X63518895Y15100969D01*
X63513099Y15099577D01*
X63513095Y15099577D01*
X63430072Y15079644D01*
X63354032Y15061388D01*
X63299909Y15033453D01*
X63208675Y14986364D01*
X63208673Y14986362D01*
X63203369Y14983625D01*
X63075604Y14872169D01*
X63072173Y14867287D01*
X63072172Y14867286D01*
X62981544Y14738335D01*
X62978113Y14733453D01*
X62963810Y14696769D01*
X62936013Y14625472D01*
X62916524Y14575487D01*
X62915745Y14569572D01*
X62915745Y14569571D01*
X62912362Y14543870D01*
X62894394Y14407389D01*
X53596296Y14407389D01*
X53572692Y14441733D01*
X53569312Y14446651D01*
X53442721Y14559440D01*
X53437135Y14562398D01*
X53346795Y14610230D01*
X53292881Y14638776D01*
X53208175Y14660053D01*
X53134231Y14678627D01*
X53134228Y14678627D01*
X53128441Y14680081D01*
X53042841Y14680529D01*
X52964861Y14680938D01*
X52964859Y14680938D01*
X52958895Y14680969D01*
X52953099Y14679577D01*
X52953095Y14679577D01*
X52851578Y14655204D01*
X52794032Y14641388D01*
X52730601Y14608649D01*
X52648675Y14566364D01*
X52648673Y14566362D01*
X52643369Y14563625D01*
X52515604Y14452169D01*
X52512173Y14447287D01*
X52512172Y14447286D01*
X52425483Y14323940D01*
X52418113Y14313453D01*
X52390983Y14243870D01*
X52368563Y14186364D01*
X52356524Y14155487D01*
X52355745Y14149572D01*
X52355745Y14149571D01*
X52352110Y14121959D01*
X52334394Y13987389D01*
X51890284Y13987389D01*
X51875345Y14026923D01*
X51871846Y14032015D01*
X51782692Y14161733D01*
X51779312Y14166651D01*
X51652721Y14279440D01*
X51502881Y14358776D01*
X51404639Y14383453D01*
X51344231Y14398627D01*
X51344228Y14398627D01*
X51338441Y14400081D01*
X51252841Y14400529D01*
X51174861Y14400938D01*
X51174859Y14400938D01*
X51168895Y14400969D01*
X51163099Y14399577D01*
X51163095Y14399577D01*
X51059454Y14374694D01*
X51004032Y14361388D01*
X50954983Y14336072D01*
X50858675Y14286364D01*
X50858673Y14286362D01*
X50853369Y14283625D01*
X50725604Y14172169D01*
X50722173Y14167287D01*
X50722172Y14167286D01*
X50631628Y14038455D01*
X50628113Y14033453D01*
X50607272Y13980000D01*
X50584802Y13922366D01*
X50566524Y13875487D01*
X50565745Y13869572D01*
X50565745Y13869571D01*
X50561508Y13837389D01*
X50544394Y13707389D01*
X39866447Y13707389D01*
X39868361Y13710053D01*
X39878285Y13734738D01*
X39929377Y13861833D01*
X39929378Y13861835D01*
X39931601Y13867366D01*
X39932757Y13875487D01*
X39955034Y14032015D01*
X39955034Y14032021D01*
X39955490Y14035222D01*
X39955645Y14050000D01*
X39942124Y14161733D01*
X39935993Y14212398D01*
X39935992Y14212401D01*
X39935276Y14218320D01*
X39875345Y14376923D01*
X39871846Y14382015D01*
X39782692Y14511733D01*
X39779312Y14516651D01*
X39652721Y14629440D01*
X39644817Y14633625D01*
X39541603Y14688274D01*
X39499023Y14732213D01*
X39490402Y14792788D01*
X39519033Y14846862D01*
X39533141Y14858226D01*
X39535166Y14859571D01*
X39540498Y14862253D01*
X39545035Y14866128D01*
X39545038Y14866130D01*
X39664888Y14968492D01*
X39664891Y14968495D01*
X39669423Y14972366D01*
X39674694Y14979701D01*
X39764877Y15105204D01*
X39764878Y15105206D01*
X39768361Y15110053D01*
X39771127Y15116932D01*
X39829377Y15261833D01*
X39829378Y15261835D01*
X39831601Y15267366D01*
X39832442Y15273273D01*
X39855034Y15432015D01*
X39855034Y15432021D01*
X39855490Y15435222D01*
X39855645Y15450000D01*
X39840651Y15573901D01*
X39835993Y15612398D01*
X39835992Y15612401D01*
X39835276Y15618320D01*
X39775345Y15776923D01*
X39722914Y15853211D01*
X39682692Y15911733D01*
X39679312Y15916651D01*
X39552721Y16029440D01*
X39402881Y16108776D01*
X39320661Y16129429D01*
X39244231Y16148627D01*
X39244228Y16148627D01*
X39238441Y16150081D01*
X39204968Y16150256D01*
X39192829Y16150320D01*
X39134738Y16169532D01*
X39099034Y16219220D01*
X39095065Y16237426D01*
X39085993Y16312397D01*
X39085993Y16312399D01*
X39085276Y16318320D01*
X39083167Y16323901D01*
X39082893Y16325017D01*
X39087374Y16386038D01*
X39126866Y16432771D01*
X39182276Y16447579D01*
X42890161Y16326092D01*
X43263065Y16313874D01*
X43263069Y16313874D01*
X43263585Y16313857D01*
X44637587Y16297101D01*
X46926746Y16269184D01*
X46984702Y16249568D01*
X47007710Y16225408D01*
X47032636Y16188315D01*
X47065830Y16138917D01*
X47138096Y16073160D01*
X47168411Y16020013D01*
X47161697Y15959197D01*
X47136548Y15925334D01*
X47110255Y15902397D01*
X47075604Y15872169D01*
X47072173Y15867287D01*
X47072172Y15867286D01*
X46981544Y15738335D01*
X46978113Y15733453D01*
X46950559Y15662781D01*
X46936013Y15625472D01*
X46916524Y15575487D01*
X46915745Y15569572D01*
X46915745Y15569571D01*
X46914801Y15562398D01*
X46894394Y15407389D01*
X46895049Y15401456D01*
X46895049Y15401452D01*
X46909031Y15274809D01*
X46912999Y15238865D01*
X46971266Y15079644D01*
X46974591Y15074695D01*
X46974592Y15074694D01*
X46987165Y15055983D01*
X47065830Y14938917D01*
X47191233Y14824809D01*
X47340235Y14743908D01*
X47384814Y14732213D01*
X47498464Y14702397D01*
X47498468Y14702396D01*
X47504233Y14700884D01*
X47510194Y14700790D01*
X47510197Y14700790D01*
X47588965Y14699553D01*
X47673760Y14698221D01*
X47679575Y14699553D01*
X47679577Y14699553D01*
X47833206Y14734738D01*
X47833209Y14734739D01*
X47839029Y14736072D01*
X47854610Y14743908D01*
X47985165Y14809571D01*
X47990498Y14812253D01*
X47995035Y14816128D01*
X47995038Y14816130D01*
X48114888Y14918492D01*
X48114891Y14918495D01*
X48119423Y14922366D01*
X48134875Y14943870D01*
X48214877Y15055204D01*
X48214878Y15055206D01*
X48218361Y15060053D01*
X48234453Y15100081D01*
X48279377Y15211833D01*
X48279378Y15211835D01*
X48281601Y15217366D01*
X48282757Y15225487D01*
X48305034Y15382015D01*
X48305034Y15382021D01*
X48305490Y15385222D01*
X48305645Y15400000D01*
X48291452Y15517286D01*
X48285993Y15562398D01*
X48285992Y15562401D01*
X48285276Y15568320D01*
X48225345Y15726923D01*
X48217138Y15738865D01*
X48132692Y15861733D01*
X48129312Y15866651D01*
X48062668Y15926029D01*
X48031798Y15978856D01*
X48037876Y16039739D01*
X48064230Y16075226D01*
X48114887Y16118492D01*
X48119423Y16122366D01*
X48183573Y16211641D01*
X48232882Y16247862D01*
X48265175Y16252862D01*
X51463585Y16213857D01*
X61350866Y16437557D01*
X64715476Y16513681D01*
X64774079Y16496094D01*
X64811154Y16447421D01*
X64812604Y16442445D01*
X64812999Y16438865D01*
X64871266Y16279644D01*
X64874591Y16274695D01*
X64874592Y16274694D01*
X64891476Y16249568D01*
X64965830Y16138917D01*
X65091233Y16024809D01*
X65240235Y15943908D01*
X65275189Y15934738D01*
X65398464Y15902397D01*
X65398468Y15902396D01*
X65404233Y15900884D01*
X65410194Y15900790D01*
X65410197Y15900790D01*
X65488996Y15899553D01*
X65573760Y15898221D01*
X65579575Y15899553D01*
X65579577Y15899553D01*
X65733206Y15934738D01*
X65733209Y15934739D01*
X65739029Y15936072D01*
X65754610Y15943908D01*
X65825257Y15979440D01*
X65890498Y16012253D01*
X65895035Y16016128D01*
X65895038Y16016130D01*
X66014888Y16118492D01*
X66014891Y16118495D01*
X66019423Y16122366D01*
X66034875Y16143870D01*
X66114877Y16255204D01*
X66114878Y16255206D01*
X66118361Y16260053D01*
X66133255Y16297101D01*
X66179377Y16411833D01*
X66179378Y16411835D01*
X66181601Y16417366D01*
X66182674Y16424900D01*
X66185901Y16447579D01*
X66188258Y16464144D01*
X66215175Y16519090D01*
X66269248Y16547721D01*
X66284028Y16549170D01*
X66679791Y16558124D01*
X66738393Y16540537D01*
X66775468Y16491864D01*
X66776851Y16430694D01*
X66747110Y16384547D01*
X66675604Y16322169D01*
X66672173Y16317287D01*
X66672172Y16317286D01*
X66582400Y16189553D01*
X66578113Y16183453D01*
X66565373Y16150777D01*
X66538187Y16081048D01*
X66516524Y16025487D01*
X66494394Y15857389D01*
X66495049Y15851456D01*
X66495049Y15851452D01*
X66511666Y15700938D01*
X66512999Y15688865D01*
X66571266Y15529644D01*
X66574591Y15524695D01*
X66574592Y15524694D01*
X66587689Y15505204D01*
X66665830Y15388917D01*
X66791233Y15274809D01*
X66940235Y15193908D01*
X66999680Y15178313D01*
X67098464Y15152397D01*
X67098468Y15152396D01*
X67104233Y15150884D01*
X67110194Y15150790D01*
X67110197Y15150790D01*
X67188965Y15149553D01*
X67273760Y15148221D01*
X67279575Y15149553D01*
X67279577Y15149553D01*
X67433206Y15184738D01*
X67433209Y15184739D01*
X67439029Y15186072D01*
X67454610Y15193908D01*
X67532854Y15233261D01*
X67590498Y15262253D01*
X67595035Y15266128D01*
X67595038Y15266130D01*
X67714888Y15368492D01*
X67714891Y15368495D01*
X67719423Y15372366D01*
X67726233Y15381843D01*
X67814877Y15505204D01*
X67814878Y15505206D01*
X67818361Y15510053D01*
X67821014Y15516651D01*
X67879377Y15661833D01*
X67879378Y15661835D01*
X67881601Y15667366D01*
X67886050Y15698627D01*
X67905034Y15832015D01*
X67905034Y15832021D01*
X67905490Y15835222D01*
X67905645Y15850000D01*
X67887563Y15999421D01*
X67885993Y16012398D01*
X67885992Y16012401D01*
X67885276Y16018320D01*
X67825345Y16176923D01*
X67817516Y16188315D01*
X67732692Y16311733D01*
X67729312Y16316651D01*
X67626678Y16408095D01*
X67595808Y16460922D01*
X67601885Y16521805D01*
X67642588Y16567488D01*
X67690295Y16580986D01*
X67970313Y16587322D01*
X67976592Y16587264D01*
X68321904Y16573073D01*
X68413984Y16569289D01*
X68471349Y16548008D01*
X68505250Y16497073D01*
X68508321Y16481236D01*
X68510591Y16460681D01*
X68512999Y16438865D01*
X68515048Y16433265D01*
X68515049Y16433262D01*
X68532331Y16386038D01*
X68571266Y16279644D01*
X68574591Y16274695D01*
X68574592Y16274694D01*
X68591476Y16249568D01*
X68665830Y16138917D01*
X68791233Y16024809D01*
X68940235Y15943908D01*
X68975189Y15934738D01*
X69098464Y15902397D01*
X69098468Y15902396D01*
X69104233Y15900884D01*
X69110194Y15900790D01*
X69110197Y15900790D01*
X69188996Y15899553D01*
X69273760Y15898221D01*
X69279575Y15899553D01*
X69279577Y15899553D01*
X69433206Y15934738D01*
X69433209Y15934739D01*
X69439029Y15936072D01*
X69454610Y15943908D01*
X69525257Y15979440D01*
X69590498Y16012253D01*
X69595035Y16016128D01*
X69595038Y16016130D01*
X69714888Y16118492D01*
X69714891Y16118495D01*
X69719423Y16122366D01*
X69734875Y16143870D01*
X69814877Y16255204D01*
X69814878Y16255206D01*
X69818361Y16260053D01*
X69833255Y16297101D01*
X69879377Y16411833D01*
X69879378Y16411835D01*
X69881601Y16417366D01*
X69882442Y16423273D01*
X69883986Y16429037D01*
X69886186Y16428448D01*
X69908857Y16474738D01*
X69962928Y16503374D01*
X69984023Y16504767D01*
X78923456Y16137393D01*
X78922709Y16897389D01*
X79364394Y16897389D01*
X79365049Y16891456D01*
X79365049Y16891452D01*
X79377781Y16776130D01*
X79382999Y16728865D01*
X79441266Y16569644D01*
X79444591Y16564695D01*
X79444592Y16564694D01*
X79456645Y16546757D01*
X79535830Y16428917D01*
X79661233Y16314809D01*
X79810235Y16233908D01*
X79845189Y16224738D01*
X79968464Y16192397D01*
X79968468Y16192396D01*
X79974233Y16190884D01*
X79980194Y16190790D01*
X79980197Y16190790D01*
X80058965Y16189553D01*
X80143760Y16188221D01*
X80149575Y16189553D01*
X80149577Y16189553D01*
X80303206Y16224738D01*
X80303209Y16224739D01*
X80309029Y16226072D01*
X80323705Y16233453D01*
X80455165Y16299571D01*
X80460498Y16302253D01*
X80465035Y16306128D01*
X80465038Y16306130D01*
X80584888Y16408492D01*
X80584891Y16408495D01*
X80589423Y16412366D01*
X80593016Y16417366D01*
X80684877Y16545204D01*
X80684878Y16545206D01*
X80688361Y16550053D01*
X80693477Y16562778D01*
X80749377Y16701833D01*
X80749378Y16701835D01*
X80751601Y16707366D01*
X80752442Y16713273D01*
X80775034Y16872015D01*
X80775034Y16872021D01*
X80775490Y16875222D01*
X80775645Y16890000D01*
X80758071Y17035222D01*
X80755993Y17052398D01*
X80755992Y17052401D01*
X80755276Y17058320D01*
X80695345Y17216923D01*
X80691605Y17222366D01*
X80602692Y17351733D01*
X80599312Y17356651D01*
X80472721Y17469440D01*
X80322881Y17548776D01*
X80240661Y17569428D01*
X80164231Y17588627D01*
X80164228Y17588627D01*
X80158441Y17590081D01*
X80072841Y17590529D01*
X79994861Y17590938D01*
X79994859Y17590938D01*
X79988895Y17590969D01*
X79983099Y17589577D01*
X79983095Y17589577D01*
X79875703Y17563793D01*
X79824032Y17551388D01*
X79779339Y17528320D01*
X79678675Y17476364D01*
X79678673Y17476362D01*
X79673369Y17473625D01*
X79545604Y17362169D01*
X79448113Y17223453D01*
X79436342Y17193261D01*
X79399958Y17099942D01*
X79386524Y17065487D01*
X79385745Y17059572D01*
X79385745Y17059571D01*
X79382540Y17035222D01*
X79364394Y16897389D01*
X78922709Y16897389D01*
X78919908Y19747389D01*
X81994394Y19747389D01*
X81995049Y19741456D01*
X81995049Y19741452D01*
X82008497Y19619644D01*
X82012999Y19578865D01*
X82071266Y19419644D01*
X82074591Y19414695D01*
X82074592Y19414694D01*
X82087689Y19395204D01*
X82165830Y19278917D01*
X82291233Y19164809D01*
X82440235Y19083908D01*
X82499680Y19068313D01*
X82598464Y19042397D01*
X82598468Y19042396D01*
X82604233Y19040884D01*
X82610194Y19040790D01*
X82610197Y19040790D01*
X82688996Y19039553D01*
X82773760Y19038221D01*
X82779575Y19039553D01*
X82779577Y19039553D01*
X82933206Y19074738D01*
X82933209Y19074739D01*
X82939029Y19076072D01*
X82954610Y19083908D01*
X83014764Y19114163D01*
X83090498Y19152253D01*
X83095035Y19156128D01*
X83095038Y19156130D01*
X83214888Y19258492D01*
X83214891Y19258495D01*
X83219423Y19262366D01*
X83234875Y19283870D01*
X83314877Y19395204D01*
X83314878Y19395206D01*
X83318361Y19400053D01*
X83323266Y19412253D01*
X83379377Y19551833D01*
X83379378Y19551835D01*
X83381601Y19557366D01*
X83387676Y19600053D01*
X83405034Y19722015D01*
X83405034Y19722021D01*
X83405490Y19725222D01*
X83405645Y19740000D01*
X83385276Y19908320D01*
X83325345Y20066923D01*
X83319460Y20075487D01*
X83232692Y20201733D01*
X83229312Y20206651D01*
X83102721Y20319440D01*
X82952881Y20398776D01*
X82849241Y20424809D01*
X82794231Y20438627D01*
X82794228Y20438627D01*
X82788441Y20440081D01*
X82702841Y20440529D01*
X82624861Y20440938D01*
X82624859Y20440938D01*
X82618895Y20440969D01*
X82613099Y20439577D01*
X82613095Y20439577D01*
X82547832Y20423908D01*
X82454032Y20401388D01*
X82409329Y20378315D01*
X82308675Y20326364D01*
X82308673Y20326362D01*
X82303369Y20323625D01*
X82175604Y20212169D01*
X82172173Y20207287D01*
X82172172Y20207286D01*
X82086384Y20085222D01*
X82078113Y20073453D01*
X82075945Y20067892D01*
X82020320Y19925222D01*
X82016524Y19915487D01*
X81994394Y19747389D01*
X78919908Y19747389D01*
X78918571Y21107389D01*
X80944394Y21107389D01*
X80945049Y21101456D01*
X80945049Y21101452D01*
X80956289Y20999644D01*
X80962999Y20938865D01*
X81021266Y20779644D01*
X81024591Y20774695D01*
X81024592Y20774694D01*
X81044674Y20744809D01*
X81115830Y20638917D01*
X81194551Y20567286D01*
X81225729Y20538917D01*
X81241233Y20524809D01*
X81246482Y20521959D01*
X81254941Y20517366D01*
X81390235Y20443908D01*
X81436224Y20431843D01*
X81548464Y20402397D01*
X81548468Y20402396D01*
X81554233Y20400884D01*
X81560194Y20400790D01*
X81560197Y20400790D01*
X81638996Y20399553D01*
X81723760Y20398221D01*
X81729575Y20399553D01*
X81729577Y20399553D01*
X81883206Y20434738D01*
X81883209Y20434739D01*
X81889029Y20436072D01*
X81904610Y20443908D01*
X81975257Y20479440D01*
X82040498Y20512253D01*
X82045035Y20516128D01*
X82045038Y20516130D01*
X82164888Y20618492D01*
X82164891Y20618495D01*
X82169423Y20622366D01*
X82177390Y20633453D01*
X82264877Y20755204D01*
X82264878Y20755206D01*
X82268361Y20760053D01*
X82271014Y20766651D01*
X82329377Y20911833D01*
X82329378Y20911835D01*
X82331601Y20917366D01*
X82332442Y20923273D01*
X82355034Y21082015D01*
X82355034Y21082021D01*
X82355490Y21085222D01*
X82355645Y21100000D01*
X82340837Y21222366D01*
X82335993Y21262398D01*
X82335992Y21262401D01*
X82335276Y21268320D01*
X82275345Y21426923D01*
X82267138Y21438865D01*
X82182692Y21561733D01*
X82179312Y21566651D01*
X82052721Y21679440D01*
X82028488Y21692271D01*
X81981091Y21717366D01*
X81902881Y21758776D01*
X81814373Y21781008D01*
X81744231Y21798627D01*
X81744228Y21798627D01*
X81738441Y21800081D01*
X81652841Y21800529D01*
X81574861Y21800938D01*
X81574859Y21800938D01*
X81568895Y21800969D01*
X81563099Y21799577D01*
X81563095Y21799577D01*
X81475836Y21778627D01*
X81404032Y21761388D01*
X81333162Y21724809D01*
X81258675Y21686364D01*
X81258673Y21686362D01*
X81253369Y21683625D01*
X81125604Y21572169D01*
X81122173Y21567287D01*
X81122172Y21567286D01*
X81031544Y21438335D01*
X81028113Y21433453D01*
X80966524Y21275487D01*
X80944394Y21107389D01*
X78918571Y21107389D01*
X78916055Y23667389D01*
X81444394Y23667389D01*
X81445049Y23661456D01*
X81445049Y23661452D01*
X81462344Y23504796D01*
X81462999Y23498865D01*
X81521266Y23339644D01*
X81524591Y23334695D01*
X81524592Y23334694D01*
X81537689Y23315204D01*
X81615830Y23198917D01*
X81741233Y23084809D01*
X81746482Y23081959D01*
X81757218Y23076130D01*
X81890235Y23003908D01*
X81925189Y22994738D01*
X82048464Y22962397D01*
X82048468Y22962396D01*
X82054233Y22960884D01*
X82060194Y22960790D01*
X82060197Y22960790D01*
X82138965Y22959553D01*
X82223760Y22958221D01*
X82229575Y22959553D01*
X82229577Y22959553D01*
X82383206Y22994738D01*
X82383209Y22994739D01*
X82389029Y22996072D01*
X82404610Y23003908D01*
X82522619Y23063261D01*
X82540498Y23072253D01*
X82545035Y23076128D01*
X82545038Y23076130D01*
X82664888Y23178492D01*
X82664891Y23178495D01*
X82669423Y23182366D01*
X82689318Y23210053D01*
X82764877Y23315204D01*
X82764878Y23315206D01*
X82768361Y23320053D01*
X82799825Y23398320D01*
X82829377Y23471833D01*
X82829378Y23471835D01*
X82831601Y23477366D01*
X82833863Y23493261D01*
X82855034Y23642015D01*
X82855034Y23642021D01*
X82855490Y23645222D01*
X82855645Y23660000D01*
X82843437Y23760884D01*
X82835993Y23822398D01*
X82835992Y23822401D01*
X82835276Y23828320D01*
X82775345Y23986923D01*
X82754914Y24016651D01*
X82682692Y24121733D01*
X82679312Y24126651D01*
X82552721Y24239440D01*
X82530947Y24250969D01*
X82481091Y24277366D01*
X82402881Y24318776D01*
X82320661Y24339429D01*
X82244231Y24358627D01*
X82244228Y24358627D01*
X82238441Y24360081D01*
X82152841Y24360529D01*
X82074861Y24360938D01*
X82074859Y24360938D01*
X82068895Y24360969D01*
X82063099Y24359577D01*
X82063095Y24359577D01*
X81976827Y24338865D01*
X81904032Y24321388D01*
X81860395Y24298865D01*
X81758675Y24246364D01*
X81758673Y24246362D01*
X81753369Y24243625D01*
X81682599Y24181889D01*
X81647058Y24150884D01*
X81625604Y24132169D01*
X81622173Y24127287D01*
X81622172Y24127286D01*
X81550150Y24024809D01*
X81528113Y23993453D01*
X81466524Y23835487D01*
X81465745Y23829572D01*
X81465745Y23829571D01*
X81461618Y23798221D01*
X81444394Y23667389D01*
X78916055Y23667389D01*
X78911405Y28397739D01*
X78930254Y28455946D01*
X78979719Y28491958D01*
X79040904Y28492019D01*
X79092575Y28453051D01*
X79155830Y28358917D01*
X79281233Y28244809D01*
X79430235Y28163908D01*
X79489680Y28148313D01*
X79588464Y28122397D01*
X79588468Y28122396D01*
X79594233Y28120884D01*
X79600194Y28120790D01*
X79600197Y28120790D01*
X79678996Y28119553D01*
X79763760Y28118221D01*
X79769575Y28119553D01*
X79769577Y28119553D01*
X79923206Y28154738D01*
X79923209Y28154739D01*
X79929029Y28156072D01*
X79944610Y28163908D01*
X80075165Y28229571D01*
X80080498Y28232253D01*
X80085035Y28236128D01*
X80085038Y28236130D01*
X80204888Y28338492D01*
X80204891Y28338495D01*
X80209423Y28342366D01*
X80221316Y28358917D01*
X80304877Y28475204D01*
X80304878Y28475206D01*
X80308361Y28480053D01*
X80313172Y28492019D01*
X80369377Y28631833D01*
X80369378Y28631835D01*
X80371601Y28637366D01*
X80372442Y28643273D01*
X80395034Y28802015D01*
X80395034Y28802021D01*
X80395490Y28805222D01*
X80395645Y28820000D01*
X80381556Y28936424D01*
X80375993Y28982398D01*
X80375992Y28982401D01*
X80375276Y28988320D01*
X80315345Y29146923D01*
X80301787Y29166651D01*
X80222692Y29281733D01*
X80219312Y29286651D01*
X80092721Y29399440D01*
X80068522Y29412253D01*
X80033173Y29430969D01*
X79942881Y29478776D01*
X79858063Y29500081D01*
X79784231Y29518627D01*
X79784228Y29518627D01*
X79778441Y29520081D01*
X79695272Y29520517D01*
X79614864Y29520938D01*
X79614862Y29520938D01*
X79608895Y29520969D01*
X79606143Y29520308D01*
X79547361Y29532160D01*
X79505945Y29577198D01*
X79503350Y29583417D01*
X79493305Y29610000D01*
X79445345Y29736923D01*
X79439926Y29744809D01*
X79396915Y29807389D01*
X82594394Y29807389D01*
X82595049Y29801456D01*
X82595049Y29801452D01*
X82607693Y29686923D01*
X82612999Y29638865D01*
X82671266Y29479644D01*
X82674591Y29474695D01*
X82674592Y29474694D01*
X82687689Y29455204D01*
X82765830Y29338917D01*
X82891233Y29224809D01*
X83040235Y29143908D01*
X83084231Y29132366D01*
X83198464Y29102397D01*
X83198468Y29102396D01*
X83204233Y29100884D01*
X83210194Y29100790D01*
X83210197Y29100790D01*
X83288996Y29099553D01*
X83373760Y29098221D01*
X83379575Y29099553D01*
X83379577Y29099553D01*
X83533206Y29134738D01*
X83533209Y29134739D01*
X83539029Y29136072D01*
X83549506Y29141341D01*
X83625257Y29179440D01*
X83690498Y29212253D01*
X83695035Y29216128D01*
X83695038Y29216130D01*
X83814888Y29318492D01*
X83814891Y29318495D01*
X83819423Y29322366D01*
X83822904Y29327210D01*
X83914877Y29455204D01*
X83914878Y29455206D01*
X83918361Y29460053D01*
X83934453Y29500081D01*
X83979377Y29611833D01*
X83979378Y29611835D01*
X83981601Y29617366D01*
X83982442Y29623273D01*
X84005034Y29782015D01*
X84005034Y29782021D01*
X84005490Y29785222D01*
X84005645Y29800000D01*
X83994792Y29889686D01*
X83985993Y29962398D01*
X83985992Y29962401D01*
X83985276Y29968320D01*
X83925345Y30126923D01*
X83896894Y30168320D01*
X83832692Y30261733D01*
X83829312Y30266651D01*
X83702721Y30379440D01*
X83552881Y30458776D01*
X83490614Y30474417D01*
X83438784Y30506929D01*
X83415962Y30563699D01*
X83430868Y30623041D01*
X83477807Y30662289D01*
X83492631Y30666934D01*
X83529774Y30675441D01*
X83576192Y30686072D01*
X83591773Y30693908D01*
X83722328Y30759571D01*
X83727661Y30762253D01*
X83732198Y30766128D01*
X83732201Y30766130D01*
X83852051Y30868492D01*
X83852054Y30868495D01*
X83856586Y30872366D01*
X83876501Y30900081D01*
X83952040Y31005204D01*
X83952041Y31005206D01*
X83955524Y31010053D01*
X83959556Y31020081D01*
X84016540Y31161833D01*
X84016541Y31161835D01*
X84018764Y31167366D01*
X84027240Y31226923D01*
X84042197Y31332015D01*
X84042197Y31332021D01*
X84042653Y31335222D01*
X84042808Y31350000D01*
X84028490Y31468320D01*
X84023156Y31512398D01*
X84023155Y31512401D01*
X84022439Y31518320D01*
X83962508Y31676923D01*
X83935602Y31716072D01*
X83869855Y31811733D01*
X83866475Y31816651D01*
X83856887Y31825193D01*
X83826017Y31878018D01*
X83832092Y31938901D01*
X83849870Y31966121D01*
X83852051Y31968492D01*
X83856586Y31972366D01*
X83877078Y32000884D01*
X83952040Y32105204D01*
X83952041Y32105206D01*
X83955524Y32110053D01*
X84007328Y32238917D01*
X84016540Y32261833D01*
X84016541Y32261835D01*
X84018764Y32267366D01*
X84026592Y32322366D01*
X84042197Y32432015D01*
X84042197Y32432021D01*
X84042653Y32435222D01*
X84042808Y32450000D01*
X84022439Y32618320D01*
X83962508Y32776923D01*
X83959062Y32781938D01*
X83869855Y32911733D01*
X83866475Y32916651D01*
X83739884Y33029440D01*
X83590044Y33108776D01*
X83491802Y33133453D01*
X83431394Y33148627D01*
X83431391Y33148627D01*
X83425604Y33150081D01*
X83340004Y33150529D01*
X83262024Y33150938D01*
X83262022Y33150938D01*
X83256058Y33150969D01*
X83250262Y33149577D01*
X83250258Y33149577D01*
X83155901Y33126923D01*
X83091195Y33111388D01*
X83047015Y33088585D01*
X82945838Y33036364D01*
X82945836Y33036362D01*
X82940532Y33033625D01*
X82812767Y32922169D01*
X82809336Y32917287D01*
X82809335Y32917286D01*
X82745827Y32826923D01*
X82715276Y32783453D01*
X82653687Y32625487D01*
X82631557Y32457389D01*
X82632212Y32451456D01*
X82632212Y32451452D01*
X82646463Y32322366D01*
X82650162Y32288865D01*
X82708429Y32129644D01*
X82711754Y32124695D01*
X82711755Y32124694D01*
X82724852Y32105204D01*
X82802993Y31988917D01*
X82819151Y31974215D01*
X82849466Y31921069D01*
X82842753Y31860253D01*
X82820912Y31830842D01*
X82821259Y31830529D01*
X82817953Y31826857D01*
X82817607Y31826391D01*
X82812767Y31822169D01*
X82809336Y31817287D01*
X82809335Y31817286D01*
X82768214Y31758776D01*
X82715276Y31683453D01*
X82713108Y31677892D01*
X82683117Y31600969D01*
X82653687Y31525487D01*
X82631557Y31357389D01*
X82632212Y31351456D01*
X82632212Y31351452D01*
X82640599Y31275487D01*
X82650162Y31188865D01*
X82708429Y31029644D01*
X82711754Y31024695D01*
X82711755Y31024694D01*
X82724852Y31005204D01*
X82802993Y30888917D01*
X82928396Y30774809D01*
X83077398Y30693908D01*
X83083170Y30692394D01*
X83083172Y30692393D01*
X83100082Y30687957D01*
X83147792Y30675441D01*
X83199280Y30642386D01*
X83221506Y30585381D01*
X83205980Y30526198D01*
X83158633Y30487444D01*
X83145782Y30483417D01*
X83059842Y30462784D01*
X83059834Y30462781D01*
X83054032Y30461388D01*
X83004983Y30436072D01*
X82908675Y30386364D01*
X82908673Y30386362D01*
X82903369Y30383625D01*
X82775604Y30272169D01*
X82772173Y30267287D01*
X82772172Y30267286D01*
X82707655Y30175487D01*
X82678113Y30133453D01*
X82669347Y30110969D01*
X82620320Y29985222D01*
X82616524Y29975487D01*
X82594394Y29807389D01*
X79396915Y29807389D01*
X79352692Y29871733D01*
X79349312Y29876651D01*
X79222721Y29989440D01*
X79072881Y30068776D01*
X78984528Y30090969D01*
X78932696Y30123483D01*
X78909875Y30180253D01*
X78909646Y30186889D01*
X78904810Y35107389D01*
X80894394Y35107389D01*
X80895049Y35101456D01*
X80895049Y35101452D01*
X80904897Y35012253D01*
X80912999Y34938865D01*
X80971266Y34779644D01*
X80974591Y34774695D01*
X80974592Y34774694D01*
X80987689Y34755204D01*
X81065830Y34638917D01*
X81191233Y34524809D01*
X81340235Y34443908D01*
X81399680Y34428313D01*
X81498464Y34402397D01*
X81498468Y34402396D01*
X81504233Y34400884D01*
X81510194Y34400790D01*
X81510197Y34400790D01*
X81588965Y34399553D01*
X81673760Y34398221D01*
X81679575Y34399553D01*
X81679577Y34399553D01*
X81833206Y34434738D01*
X81833209Y34434739D01*
X81839029Y34436072D01*
X81844583Y34438865D01*
X81943996Y34488865D01*
X81990498Y34512253D01*
X81995035Y34516128D01*
X81995038Y34516130D01*
X82114888Y34618492D01*
X82114891Y34618495D01*
X82119423Y34622366D01*
X82151308Y34666739D01*
X82214877Y34755204D01*
X82214878Y34755206D01*
X82218361Y34760053D01*
X82221685Y34768320D01*
X82279377Y34911833D01*
X82279378Y34911835D01*
X82281601Y34917366D01*
X82282442Y34923273D01*
X82305034Y35082015D01*
X82305034Y35082021D01*
X82305490Y35085222D01*
X82305645Y35100000D01*
X82290837Y35222366D01*
X82285993Y35262398D01*
X82285992Y35262401D01*
X82285276Y35268320D01*
X82225345Y35426923D01*
X82221605Y35432366D01*
X82132692Y35561733D01*
X82129312Y35566651D01*
X82002721Y35679440D01*
X81852881Y35758776D01*
X81770661Y35779428D01*
X81694231Y35798627D01*
X81694228Y35798627D01*
X81688441Y35800081D01*
X81602841Y35800529D01*
X81524861Y35800938D01*
X81524859Y35800938D01*
X81518895Y35800969D01*
X81513099Y35799577D01*
X81513095Y35799577D01*
X81412757Y35775487D01*
X81354032Y35761388D01*
X81328070Y35747988D01*
X81208675Y35686364D01*
X81208673Y35686362D01*
X81203369Y35683625D01*
X81075604Y35572169D01*
X81072173Y35567287D01*
X81072172Y35567286D01*
X80981854Y35438776D01*
X80978113Y35433453D01*
X80950888Y35363625D01*
X80934802Y35322366D01*
X80916524Y35275487D01*
X80915745Y35269572D01*
X80915745Y35269571D01*
X80911710Y35238917D01*
X80894394Y35107389D01*
X78904810Y35107389D01*
X78901025Y38958077D01*
X80843706Y38958077D01*
X80844361Y38952144D01*
X80844361Y38952140D01*
X80856310Y38843908D01*
X80862311Y38789553D01*
X80920578Y38630332D01*
X80923903Y38625383D01*
X80923904Y38625382D01*
X80948442Y38588865D01*
X81015142Y38489605D01*
X81140545Y38375497D01*
X81289547Y38294596D01*
X81324501Y38285426D01*
X81447776Y38253085D01*
X81447780Y38253084D01*
X81453545Y38251572D01*
X81459506Y38251478D01*
X81459509Y38251478D01*
X81538308Y38250241D01*
X81623072Y38248909D01*
X81628887Y38250241D01*
X81628889Y38250241D01*
X81782518Y38285426D01*
X81782521Y38285427D01*
X81788341Y38286760D01*
X81803922Y38294596D01*
X81914694Y38350309D01*
X81939810Y38362941D01*
X81944347Y38366816D01*
X81944350Y38366818D01*
X82064200Y38469180D01*
X82064203Y38469183D01*
X82068735Y38473054D01*
X82136505Y38567366D01*
X82164189Y38605892D01*
X82164190Y38605894D01*
X82167673Y38610741D01*
X82201107Y38693908D01*
X82228689Y38762521D01*
X82228690Y38762523D01*
X82230913Y38768054D01*
X82231754Y38773961D01*
X82254346Y38932703D01*
X82254346Y38932709D01*
X82254802Y38935910D01*
X82254957Y38950688D01*
X82234588Y39119008D01*
X82174657Y39277611D01*
X82169595Y39284977D01*
X82094033Y39394919D01*
X82078624Y39417339D01*
X81952033Y39530128D01*
X81935434Y39538917D01*
X81904890Y39555089D01*
X81802193Y39609464D01*
X81706690Y39633453D01*
X81643543Y39649315D01*
X81643540Y39649315D01*
X81637753Y39650769D01*
X81552153Y39651217D01*
X81474173Y39651626D01*
X81474171Y39651626D01*
X81468207Y39651657D01*
X81462411Y39650265D01*
X81462407Y39650265D01*
X81365185Y39626923D01*
X81303344Y39612076D01*
X81284642Y39602423D01*
X81157987Y39537052D01*
X81157985Y39537050D01*
X81152681Y39534313D01*
X81024916Y39422857D01*
X81021485Y39417975D01*
X81021484Y39417974D01*
X80931740Y39290281D01*
X80927425Y39284141D01*
X80865836Y39126175D01*
X80843706Y38958077D01*
X78901025Y38958077D01*
X78900045Y39954601D01*
X78918895Y40012810D01*
X78934375Y40029657D01*
X81779226Y42484038D01*
X81835636Y42507734D01*
X81895202Y42493747D01*
X81935170Y42447420D01*
X81939900Y42432859D01*
X81940461Y42427774D01*
X81998728Y42268553D01*
X82002053Y42263604D01*
X82002054Y42263603D01*
X82036560Y42212253D01*
X82093292Y42127826D01*
X82218695Y42013718D01*
X82367697Y41932817D01*
X82398222Y41924809D01*
X82525926Y41891306D01*
X82525930Y41891305D01*
X82531695Y41889793D01*
X82537656Y41889699D01*
X82537659Y41889699D01*
X82604811Y41888644D01*
X82662697Y41868824D01*
X82697879Y41818765D01*
X82701657Y41800520D01*
X82718279Y41649956D01*
X82776546Y41490735D01*
X82779871Y41485786D01*
X82779872Y41485785D01*
X82791608Y41468320D01*
X82871110Y41350008D01*
X82960884Y41268320D01*
X82984462Y41246866D01*
X82996513Y41235900D01*
X83145515Y41154999D01*
X83180469Y41145829D01*
X83303744Y41113488D01*
X83303748Y41113487D01*
X83309513Y41111975D01*
X83315474Y41111881D01*
X83315477Y41111881D01*
X83394276Y41110644D01*
X83479040Y41109312D01*
X83484855Y41110644D01*
X83484857Y41110644D01*
X83638486Y41145829D01*
X83638489Y41145830D01*
X83644309Y41147163D01*
X83659890Y41154999D01*
X83720043Y41185253D01*
X83795778Y41223344D01*
X83800315Y41227219D01*
X83800318Y41227221D01*
X83920168Y41329583D01*
X83920171Y41329586D01*
X83924703Y41333457D01*
X83981324Y41412253D01*
X84020157Y41466295D01*
X84020158Y41466297D01*
X84023641Y41471144D01*
X84044233Y41522366D01*
X84084657Y41622924D01*
X84084658Y41622926D01*
X84086881Y41628457D01*
X84094166Y41679644D01*
X84110314Y41793106D01*
X84110314Y41793112D01*
X84110770Y41796313D01*
X84110925Y41811091D01*
X84095463Y41938865D01*
X84091273Y41973489D01*
X84091272Y41973492D01*
X84090556Y41979411D01*
X84030625Y42138014D01*
X84026575Y42143908D01*
X83950001Y42255322D01*
X83934592Y42277742D01*
X83808001Y42390531D01*
X83797969Y42395843D01*
X83766975Y42412253D01*
X83658161Y42469867D01*
X83555998Y42495529D01*
X83499511Y42509718D01*
X83499508Y42509718D01*
X83493721Y42511172D01*
X83429697Y42511507D01*
X83371607Y42530719D01*
X83335903Y42580406D01*
X83331933Y42598612D01*
X83313455Y42751307D01*
X83313454Y42751310D01*
X83312738Y42757229D01*
X83252807Y42915832D01*
X83240697Y42933453D01*
X83160154Y43050642D01*
X83156774Y43055560D01*
X83030183Y43168349D01*
X82947263Y43212253D01*
X82885617Y43244893D01*
X82885614Y43244894D01*
X82880343Y43247685D01*
X82880750Y43248454D01*
X82837176Y43283741D01*
X82821341Y43342841D01*
X82843268Y43399963D01*
X82855535Y43412618D01*
X83988129Y44389758D01*
X83988129Y44389759D01*
X84000000Y44400000D01*
X84000000Y48609138D01*
X84645497Y48609138D01*
X84675134Y48436660D01*
X84743654Y48275627D01*
X84847383Y48134676D01*
X84851765Y48130953D01*
X84851767Y48130951D01*
X84976369Y48025094D01*
X84980755Y48021368D01*
X85033972Y47994194D01*
X85131492Y47944397D01*
X85131495Y47944396D01*
X85136616Y47941781D01*
X85142201Y47940414D01*
X85142202Y47940414D01*
X85302326Y47901232D01*
X85302329Y47901232D01*
X85306606Y47900185D01*
X85311004Y47899912D01*
X85311005Y47899912D01*
X85316132Y47899594D01*
X85316133Y47899594D01*
X85317648Y47899500D01*
X85443822Y47899500D01*
X85448806Y47900081D01*
X85458678Y47901232D01*
X85573828Y47914657D01*
X85579234Y47916619D01*
X85579237Y47916620D01*
X85732923Y47972406D01*
X85738331Y47974369D01*
X85743140Y47977522D01*
X85743144Y47977524D01*
X85879877Y48067171D01*
X85884685Y48070323D01*
X85888634Y48074492D01*
X85888638Y48074495D01*
X86001084Y48193196D01*
X86005040Y48197372D01*
X86013890Y48212607D01*
X86090050Y48343728D01*
X86090050Y48343729D01*
X86092939Y48348702D01*
X86121296Y48442331D01*
X86142000Y48510688D01*
X86142000Y48510690D01*
X86143667Y48516193D01*
X86154503Y48690862D01*
X86124866Y48863340D01*
X86056346Y49024373D01*
X85973518Y49136923D01*
X85956026Y49160692D01*
X85956025Y49160693D01*
X85952617Y49165324D01*
X85948235Y49169047D01*
X85948233Y49169049D01*
X85823631Y49274906D01*
X85823630Y49274907D01*
X85819245Y49278632D01*
X85733382Y49322476D01*
X85668508Y49355603D01*
X85668505Y49355604D01*
X85663384Y49358219D01*
X85657799Y49359586D01*
X85657798Y49359586D01*
X85497674Y49398768D01*
X85497671Y49398768D01*
X85493394Y49399815D01*
X85488996Y49400088D01*
X85488995Y49400088D01*
X85483868Y49400406D01*
X85483867Y49400406D01*
X85482352Y49400500D01*
X85356178Y49400500D01*
X85353331Y49400168D01*
X85353330Y49400168D01*
X85342662Y49398924D01*
X85226172Y49385343D01*
X85220766Y49383381D01*
X85220763Y49383380D01*
X85088092Y49335222D01*
X85061669Y49325631D01*
X85056860Y49322478D01*
X85056856Y49322476D01*
X84980126Y49272169D01*
X84915315Y49229677D01*
X84911366Y49225508D01*
X84911362Y49225505D01*
X84833634Y49143453D01*
X84794960Y49102628D01*
X84792073Y49097658D01*
X84792071Y49097655D01*
X84721111Y48975487D01*
X84707061Y48951298D01*
X84692622Y48903625D01*
X84658866Y48792169D01*
X84656333Y48783807D01*
X84649498Y48673625D01*
X84646469Y48624798D01*
X84645497Y48609138D01*
X84000000Y48609138D01*
X84000000Y61109138D01*
X84645497Y61109138D01*
X84675134Y60936660D01*
X84743654Y60775627D01*
X84847383Y60634676D01*
X84851765Y60630953D01*
X84851767Y60630951D01*
X84976369Y60525094D01*
X84980755Y60521368D01*
X85033132Y60494623D01*
X85131492Y60444397D01*
X85131495Y60444396D01*
X85136616Y60441781D01*
X85142201Y60440414D01*
X85142202Y60440414D01*
X85302326Y60401232D01*
X85302329Y60401232D01*
X85306606Y60400185D01*
X85311004Y60399912D01*
X85311005Y60399912D01*
X85316132Y60399594D01*
X85316133Y60399594D01*
X85317648Y60399500D01*
X85443822Y60399500D01*
X85449698Y60400185D01*
X85458678Y60401232D01*
X85573828Y60414657D01*
X85579234Y60416619D01*
X85579237Y60416620D01*
X85732923Y60472406D01*
X85738331Y60474369D01*
X85743140Y60477522D01*
X85743144Y60477524D01*
X85857124Y60552253D01*
X85884685Y60570323D01*
X85888634Y60574492D01*
X85888638Y60574495D01*
X86001084Y60693196D01*
X86005040Y60697372D01*
X86016654Y60717366D01*
X86090050Y60843728D01*
X86090050Y60843729D01*
X86092939Y60848702D01*
X86120615Y60940081D01*
X86142000Y61010688D01*
X86142000Y61010690D01*
X86143667Y61016193D01*
X86154503Y61190862D01*
X86124866Y61363340D01*
X86115868Y61384486D01*
X86058597Y61519083D01*
X86058597Y61519084D01*
X86056346Y61524373D01*
X85988111Y61617094D01*
X85956026Y61660692D01*
X85956025Y61660693D01*
X85952617Y61665324D01*
X85948235Y61669047D01*
X85948233Y61669049D01*
X85823631Y61774906D01*
X85823630Y61774907D01*
X85819245Y61778632D01*
X85733382Y61822476D01*
X85668508Y61855603D01*
X85668505Y61855604D01*
X85663384Y61858219D01*
X85657799Y61859586D01*
X85657798Y61859586D01*
X85497674Y61898768D01*
X85497671Y61898768D01*
X85493394Y61899815D01*
X85488996Y61900088D01*
X85488995Y61900088D01*
X85483868Y61900406D01*
X85483867Y61900406D01*
X85482352Y61900500D01*
X85356178Y61900500D01*
X85353331Y61900168D01*
X85353330Y61900168D01*
X85342662Y61898924D01*
X85226172Y61885343D01*
X85220766Y61883381D01*
X85220763Y61883380D01*
X85144240Y61855603D01*
X85061669Y61825631D01*
X85056860Y61822478D01*
X85056856Y61822476D01*
X84980426Y61772366D01*
X84915315Y61729677D01*
X84911366Y61725508D01*
X84911362Y61725505D01*
X84846159Y61656675D01*
X84794960Y61602628D01*
X84792073Y61597658D01*
X84792071Y61597655D01*
X84719184Y61472169D01*
X84707061Y61451298D01*
X84694569Y61410053D01*
X84660699Y61298221D01*
X84656333Y61283807D01*
X84645497Y61109138D01*
X84000000Y61109138D01*
X84000000Y64600000D01*
X83983857Y65509138D01*
X84345497Y65509138D01*
X84375134Y65336660D01*
X84377387Y65331365D01*
X84436532Y65192366D01*
X84443654Y65175627D01*
X84547383Y65034676D01*
X84551765Y65030953D01*
X84551767Y65030951D01*
X84626841Y64967171D01*
X84680755Y64921368D01*
X84720704Y64900969D01*
X84831492Y64844397D01*
X84831495Y64844396D01*
X84836616Y64841781D01*
X84842201Y64840414D01*
X84842202Y64840414D01*
X85002326Y64801232D01*
X85002329Y64801232D01*
X85006606Y64800185D01*
X85011004Y64799912D01*
X85011005Y64799912D01*
X85016132Y64799594D01*
X85016133Y64799594D01*
X85017648Y64799500D01*
X85143822Y64799500D01*
X85149698Y64800185D01*
X85158678Y64801232D01*
X85273828Y64814657D01*
X85279234Y64816619D01*
X85279237Y64816620D01*
X85432923Y64872406D01*
X85438331Y64874369D01*
X85443140Y64877522D01*
X85443144Y64877524D01*
X85579877Y64967171D01*
X85584685Y64970323D01*
X85588634Y64974492D01*
X85588638Y64974495D01*
X85701084Y65093196D01*
X85705040Y65097372D01*
X85738176Y65154419D01*
X85790050Y65243728D01*
X85790050Y65243729D01*
X85792939Y65248702D01*
X85823511Y65349644D01*
X85842000Y65410688D01*
X85842000Y65410690D01*
X85843667Y65416193D01*
X85854503Y65590862D01*
X85824866Y65763340D01*
X85756346Y65924373D01*
X85676955Y66032253D01*
X85656026Y66060692D01*
X85656025Y66060693D01*
X85652617Y66065324D01*
X85648235Y66069047D01*
X85648233Y66069049D01*
X85523631Y66174906D01*
X85523630Y66174907D01*
X85519245Y66178632D01*
X85428813Y66224809D01*
X85368508Y66255603D01*
X85368505Y66255604D01*
X85363384Y66258219D01*
X85357799Y66259586D01*
X85357798Y66259586D01*
X85197674Y66298768D01*
X85197671Y66298768D01*
X85193394Y66299815D01*
X85188996Y66300088D01*
X85188995Y66300088D01*
X85183868Y66300406D01*
X85183867Y66300406D01*
X85182352Y66300500D01*
X85056178Y66300500D01*
X85053331Y66300168D01*
X85053330Y66300168D01*
X85048836Y66299644D01*
X84926172Y66285343D01*
X84920766Y66283381D01*
X84920763Y66283380D01*
X84798128Y66238865D01*
X84761669Y66225631D01*
X84756860Y66222478D01*
X84756856Y66222476D01*
X84665054Y66162288D01*
X84615315Y66129677D01*
X84611366Y66125508D01*
X84611362Y66125505D01*
X84523024Y66032253D01*
X84494960Y66002628D01*
X84492073Y65997658D01*
X84492071Y65997655D01*
X84425500Y65883043D01*
X84407061Y65851298D01*
X84393762Y65807389D01*
X84360699Y65698221D01*
X84356333Y65683807D01*
X84345497Y65509138D01*
X83983857Y65509138D01*
X83885516Y71047561D01*
X83885500Y71049318D01*
X83885500Y78103411D01*
X83883094Y78110816D01*
X83883093Y78110822D01*
X83877430Y78128251D01*
X83873804Y78143353D01*
X83870938Y78161448D01*
X83869719Y78169144D01*
X83857860Y78192420D01*
X83851918Y78206765D01*
X83850268Y78211843D01*
X83843849Y78231599D01*
X83828494Y78252733D01*
X83820388Y78265962D01*
X83808528Y78289238D01*
X83784269Y78313497D01*
X83756492Y78368014D01*
X83755289Y78381743D01*
X83738196Y79344397D01*
X83726393Y80009138D01*
X84345497Y80009138D01*
X84375134Y79836660D01*
X84377387Y79831365D01*
X84424183Y79721388D01*
X84443654Y79675627D01*
X84547383Y79534676D01*
X84551765Y79530953D01*
X84551767Y79530951D01*
X84663916Y79435674D01*
X84680755Y79421368D01*
X84713789Y79404500D01*
X84831492Y79344397D01*
X84831495Y79344396D01*
X84836616Y79341781D01*
X84842201Y79340414D01*
X84842202Y79340414D01*
X85002326Y79301232D01*
X85002329Y79301232D01*
X85006606Y79300185D01*
X85011004Y79299912D01*
X85011005Y79299912D01*
X85016132Y79299594D01*
X85016133Y79299594D01*
X85017648Y79299500D01*
X85143822Y79299500D01*
X85149698Y79300185D01*
X85158678Y79301232D01*
X85273828Y79314657D01*
X85279234Y79316619D01*
X85279237Y79316620D01*
X85432923Y79372406D01*
X85438331Y79374369D01*
X85443140Y79377522D01*
X85443144Y79377524D01*
X85536783Y79438917D01*
X85584685Y79470323D01*
X85588634Y79474492D01*
X85588638Y79474495D01*
X85701084Y79593196D01*
X85705040Y79597372D01*
X85710859Y79607389D01*
X85790050Y79743728D01*
X85790050Y79743729D01*
X85792939Y79748702D01*
X85843667Y79916193D01*
X85854503Y80090862D01*
X85824866Y80263340D01*
X85756346Y80424373D01*
X85657436Y80558776D01*
X85656026Y80560692D01*
X85656025Y80560693D01*
X85652617Y80565324D01*
X85648235Y80569047D01*
X85648233Y80569049D01*
X85523631Y80674906D01*
X85523630Y80674907D01*
X85519245Y80678632D01*
X85433382Y80722476D01*
X85368508Y80755603D01*
X85368505Y80755604D01*
X85363384Y80758219D01*
X85357799Y80759586D01*
X85357798Y80759586D01*
X85197674Y80798768D01*
X85197671Y80798768D01*
X85193394Y80799815D01*
X85188996Y80800088D01*
X85188995Y80800088D01*
X85183868Y80800406D01*
X85183867Y80800406D01*
X85182352Y80800500D01*
X85056178Y80800500D01*
X85053331Y80800168D01*
X85053330Y80800168D01*
X85042662Y80798924D01*
X84926172Y80785343D01*
X84920766Y80783381D01*
X84920763Y80783380D01*
X84844240Y80755603D01*
X84761669Y80725631D01*
X84756860Y80722478D01*
X84756856Y80722476D01*
X84677246Y80670281D01*
X84615315Y80629677D01*
X84611366Y80625508D01*
X84611362Y80625505D01*
X84518420Y80527393D01*
X84494960Y80502628D01*
X84492073Y80497658D01*
X84492071Y80497655D01*
X84464729Y80450581D01*
X84407061Y80351298D01*
X84392471Y80303126D01*
X84369392Y80226923D01*
X84356333Y80183807D01*
X84345497Y80009138D01*
X83726393Y80009138D01*
X83706573Y81125351D01*
X81175177Y81782405D01*
X80040032Y82077045D01*
X79994900Y82102866D01*
X79729238Y82368528D01*
X79705962Y82380388D01*
X79692733Y82388494D01*
X79671599Y82403849D01*
X79646762Y82411919D01*
X79632420Y82417860D01*
X79609144Y82429719D01*
X79601448Y82430938D01*
X79583353Y82433804D01*
X79568251Y82437430D01*
X79550822Y82443093D01*
X79550816Y82443094D01*
X79543411Y82445500D01*
X78426480Y82445500D01*
X78368289Y82464407D01*
X78332325Y82513907D01*
X78332325Y82575093D01*
X78351537Y82609188D01*
X78419716Y82688174D01*
X78419718Y82688176D01*
X78422880Y82691840D01*
X78441844Y82725222D01*
X78523703Y82869319D01*
X78523704Y82869322D01*
X78526092Y82873525D01*
X78539845Y82914866D01*
X78590522Y83067207D01*
X78590522Y83067209D01*
X78592049Y83071798D01*
X78597599Y83115726D01*
X78613047Y83238014D01*
X78618238Y83279106D01*
X78618301Y83283625D01*
X78618617Y83306240D01*
X78618617Y83306249D01*
X78618655Y83309000D01*
X78604637Y83451971D01*
X78598738Y83512139D01*
X78598737Y83512144D01*
X78598265Y83516958D01*
X78542751Y83700829D01*
X78539269Y83712363D01*
X78539267Y83712368D01*
X78537870Y83716995D01*
X78532998Y83726159D01*
X78442044Y83897217D01*
X78442042Y83897220D01*
X78439771Y83901491D01*
X78420763Y83924798D01*
X78310766Y84059667D01*
X78310765Y84059668D01*
X78307705Y84063420D01*
X78225593Y84131349D01*
X78150430Y84193530D01*
X78150428Y84193531D01*
X78146703Y84196613D01*
X77962896Y84295997D01*
X77865194Y84326241D01*
X77767906Y84356357D01*
X77767902Y84356358D01*
X77763285Y84357787D01*
X77758477Y84358292D01*
X77758474Y84358293D01*
X77560291Y84379123D01*
X77560289Y84379123D01*
X77555475Y84379629D01*
X77499116Y84374500D01*
X77352199Y84361130D01*
X77352195Y84361129D01*
X77347379Y84360691D01*
X77342737Y84359325D01*
X77342733Y84359324D01*
X77151573Y84303062D01*
X77151570Y84303061D01*
X77146926Y84301694D01*
X76961749Y84204886D01*
X76957980Y84201856D01*
X76957979Y84201855D01*
X76802675Y84076988D01*
X76802673Y84076986D01*
X76798902Y84073954D01*
X76795788Y84070243D01*
X76795787Y84070242D01*
X76680188Y83932476D01*
X76664588Y83913885D01*
X76662252Y83909637D01*
X76662252Y83909636D01*
X76661327Y83907954D01*
X76563923Y83730776D01*
X76562460Y83726163D01*
X76562458Y83726159D01*
X76516032Y83579804D01*
X76500741Y83531602D01*
X76500201Y83526790D01*
X76500201Y83526789D01*
X76482901Y83372552D01*
X76477449Y83323949D01*
X76478936Y83306240D01*
X76493082Y83137786D01*
X76494934Y83115726D01*
X76496267Y83111078D01*
X76496267Y83111077D01*
X76549073Y82926923D01*
X76552530Y82914866D01*
X76648043Y82729017D01*
X76651051Y82725222D01*
X76745550Y82605994D01*
X76766877Y82548646D01*
X76750423Y82489714D01*
X76702473Y82451709D01*
X76667964Y82445500D01*
X75886480Y82445500D01*
X75828289Y82464407D01*
X75792325Y82513907D01*
X75792325Y82575093D01*
X75811537Y82609188D01*
X75879716Y82688174D01*
X75879718Y82688176D01*
X75882880Y82691840D01*
X75901844Y82725222D01*
X75983703Y82869319D01*
X75983704Y82869322D01*
X75986092Y82873525D01*
X75999845Y82914866D01*
X76050522Y83067207D01*
X76050522Y83067209D01*
X76052049Y83071798D01*
X76057599Y83115726D01*
X76073047Y83238014D01*
X76078238Y83279106D01*
X76078301Y83283625D01*
X76078617Y83306240D01*
X76078617Y83306249D01*
X76078655Y83309000D01*
X76064637Y83451971D01*
X76058738Y83512139D01*
X76058737Y83512144D01*
X76058265Y83516958D01*
X76002751Y83700829D01*
X75999269Y83712363D01*
X75999267Y83712368D01*
X75997870Y83716995D01*
X75992998Y83726159D01*
X75902044Y83897217D01*
X75902042Y83897220D01*
X75899771Y83901491D01*
X75880763Y83924798D01*
X75770766Y84059667D01*
X75770765Y84059668D01*
X75767705Y84063420D01*
X75685593Y84131349D01*
X75610430Y84193530D01*
X75610428Y84193531D01*
X75606703Y84196613D01*
X75422896Y84295997D01*
X75325194Y84326241D01*
X75227906Y84356357D01*
X75227902Y84356358D01*
X75223285Y84357787D01*
X75218477Y84358292D01*
X75218474Y84358293D01*
X75020291Y84379123D01*
X75020289Y84379123D01*
X75015475Y84379629D01*
X74959116Y84374500D01*
X74812199Y84361130D01*
X74812195Y84361129D01*
X74807379Y84360691D01*
X74802737Y84359325D01*
X74802733Y84359324D01*
X74611573Y84303062D01*
X74611570Y84303061D01*
X74606926Y84301694D01*
X74421749Y84204886D01*
X74417980Y84201856D01*
X74417979Y84201855D01*
X74262675Y84076988D01*
X74262673Y84076986D01*
X74258902Y84073954D01*
X74255788Y84070243D01*
X74255787Y84070242D01*
X74140188Y83932476D01*
X74124588Y83913885D01*
X74122252Y83909637D01*
X74122252Y83909636D01*
X74121327Y83907954D01*
X74023923Y83730776D01*
X74022460Y83726163D01*
X74022458Y83726159D01*
X73976032Y83579804D01*
X73960741Y83531602D01*
X73960201Y83526790D01*
X73960201Y83526789D01*
X73942901Y83372552D01*
X73937449Y83323949D01*
X73938936Y83306240D01*
X73953082Y83137786D01*
X73954934Y83115726D01*
X73956267Y83111078D01*
X73956267Y83111077D01*
X74009073Y82926923D01*
X74012530Y82914866D01*
X74108043Y82729017D01*
X74111051Y82725222D01*
X74205550Y82605994D01*
X74226877Y82548646D01*
X74210423Y82489714D01*
X74162473Y82451709D01*
X74127964Y82445500D01*
X71947256Y82445500D01*
X71889065Y82464407D01*
X71877252Y82474496D01*
X71594496Y82757252D01*
X71566719Y82811769D01*
X71565500Y82827256D01*
X71565500Y83917393D01*
X71557428Y83942236D01*
X71553804Y83957335D01*
X71550938Y83975430D01*
X71549719Y83983126D01*
X71546183Y83990066D01*
X71546182Y83990069D01*
X71537865Y84006392D01*
X71531922Y84020741D01*
X71526260Y84038167D01*
X71526257Y84038173D01*
X71523850Y84045581D01*
X71508500Y84066708D01*
X71500382Y84079955D01*
X71492064Y84096281D01*
X71492062Y84096283D01*
X71488528Y84103220D01*
X70673220Y84918528D01*
X70670389Y84919970D01*
X70635796Y84967579D01*
X70635793Y85028765D01*
X70661677Y85069869D01*
X70662533Y85070684D01*
X70666345Y85073662D01*
X70669508Y85077326D01*
X70799716Y85228174D01*
X70799718Y85228176D01*
X70802880Y85231840D01*
X70846593Y85308788D01*
X70903703Y85409319D01*
X70903704Y85409322D01*
X70906092Y85413525D01*
X70919845Y85454866D01*
X70970522Y85607207D01*
X70970522Y85607209D01*
X70972049Y85611798D01*
X70977599Y85655726D01*
X70983102Y85699288D01*
X70998238Y85819106D01*
X70998277Y85821880D01*
X70998617Y85846240D01*
X70998617Y85846249D01*
X70998655Y85849000D01*
X70980418Y86035000D01*
X70978737Y86052149D01*
X70978736Y86052154D01*
X70978265Y86056958D01*
X70978957Y86057026D01*
X70985758Y86114042D01*
X71027331Y86158934D01*
X71074427Y86171506D01*
X71131532Y86172198D01*
X71320359Y86174485D01*
X71378773Y86156284D01*
X71415334Y86107223D01*
X71419940Y86064459D01*
X71397449Y85863949D01*
X71405004Y85773985D01*
X71412862Y85680404D01*
X71414934Y85655726D01*
X71472530Y85454866D01*
X71568043Y85269017D01*
X71697835Y85105261D01*
X71701515Y85102129D01*
X71701517Y85102127D01*
X71739420Y85069869D01*
X71856963Y84969832D01*
X71861185Y84967472D01*
X71861190Y84967469D01*
X71957133Y84913849D01*
X72039364Y84867892D01*
X72043962Y84866398D01*
X72233488Y84804817D01*
X72233490Y84804816D01*
X72238093Y84803321D01*
X72445578Y84778580D01*
X72450400Y84778951D01*
X72450403Y84778951D01*
X72649089Y84794239D01*
X72649094Y84794240D01*
X72653917Y84794611D01*
X72855175Y84850803D01*
X72859488Y84852982D01*
X72859494Y84852984D01*
X73037365Y84942833D01*
X73037367Y84942835D01*
X73041686Y84945016D01*
X73098747Y84989597D01*
X73202534Y85070684D01*
X73202537Y85070687D01*
X73206345Y85073662D01*
X73209508Y85077326D01*
X73339716Y85228174D01*
X73339718Y85228176D01*
X73342880Y85231840D01*
X73386593Y85308788D01*
X73443703Y85409319D01*
X73443704Y85409322D01*
X73446092Y85413525D01*
X73459845Y85454866D01*
X73510522Y85607207D01*
X73510522Y85607209D01*
X73512049Y85611798D01*
X73517599Y85655726D01*
X73523102Y85699288D01*
X73538238Y85819106D01*
X73538277Y85821880D01*
X73538617Y85846240D01*
X73538617Y85846249D01*
X73538655Y85849000D01*
X73520418Y86035000D01*
X73518738Y86052139D01*
X73518737Y86052144D01*
X73518265Y86056958D01*
X73516866Y86061591D01*
X73516865Y86061597D01*
X73512950Y86074562D01*
X73514230Y86135734D01*
X73551222Y86184470D01*
X73606525Y86202171D01*
X73866696Y86205322D01*
X73925112Y86187121D01*
X73961672Y86138060D01*
X73962216Y86081167D01*
X73963212Y86080955D01*
X73962261Y86076481D01*
X73962262Y86076397D01*
X73960741Y86071602D01*
X73960201Y86066790D01*
X73960201Y86066789D01*
X73958746Y86053812D01*
X73937449Y85863949D01*
X73945004Y85773985D01*
X73952862Y85680404D01*
X73954934Y85655726D01*
X74012530Y85454866D01*
X74108043Y85269017D01*
X74237835Y85105261D01*
X74241515Y85102129D01*
X74241517Y85102127D01*
X74279420Y85069869D01*
X74396963Y84969832D01*
X74401185Y84967472D01*
X74401190Y84967469D01*
X74497133Y84913849D01*
X74579364Y84867892D01*
X74583962Y84866398D01*
X74773488Y84804817D01*
X74773490Y84804816D01*
X74778093Y84803321D01*
X74985578Y84778580D01*
X74990400Y84778951D01*
X74990403Y84778951D01*
X75189089Y84794239D01*
X75189094Y84794240D01*
X75193917Y84794611D01*
X75395175Y84850803D01*
X75399488Y84852982D01*
X75399494Y84852984D01*
X75577365Y84942833D01*
X75577367Y84942835D01*
X75581686Y84945016D01*
X75638747Y84989597D01*
X75742534Y85070684D01*
X75742537Y85070687D01*
X75746345Y85073662D01*
X75749508Y85077326D01*
X75879716Y85228174D01*
X75879718Y85228176D01*
X75882880Y85231840D01*
X75926593Y85308788D01*
X75983703Y85409319D01*
X75983704Y85409322D01*
X75986092Y85413525D01*
X75999845Y85454866D01*
X76050522Y85607207D01*
X76050522Y85607209D01*
X76052049Y85611798D01*
X76057599Y85655726D01*
X76063102Y85699288D01*
X76078238Y85819106D01*
X76078277Y85821880D01*
X76078617Y85846240D01*
X76078617Y85846249D01*
X76078655Y85849000D01*
X76060418Y86035000D01*
X76058738Y86052139D01*
X76058737Y86052144D01*
X76058265Y86056958D01*
X76043696Y86105213D01*
X76044978Y86166385D01*
X76081970Y86215121D01*
X76137272Y86232820D01*
X76405177Y86236065D01*
X76416492Y86236202D01*
X76474907Y86218001D01*
X76511468Y86168940D01*
X76512057Y86107274D01*
X76500741Y86071602D01*
X76500201Y86066790D01*
X76500201Y86066789D01*
X76498746Y86053812D01*
X76477449Y85863949D01*
X76485004Y85773985D01*
X76492862Y85680404D01*
X76494934Y85655726D01*
X76552530Y85454866D01*
X76648043Y85269017D01*
X76777835Y85105261D01*
X76781515Y85102129D01*
X76781517Y85102127D01*
X76819420Y85069869D01*
X76936963Y84969832D01*
X76941185Y84967472D01*
X76941190Y84967469D01*
X77037133Y84913849D01*
X77119364Y84867892D01*
X77123962Y84866398D01*
X77313488Y84804817D01*
X77313490Y84804816D01*
X77318093Y84803321D01*
X77525578Y84778580D01*
X77530400Y84778951D01*
X77530403Y84778951D01*
X77729089Y84794239D01*
X77729094Y84794240D01*
X77733917Y84794611D01*
X77935175Y84850803D01*
X77939488Y84852982D01*
X77939494Y84852984D01*
X78117365Y84942833D01*
X78117367Y84942835D01*
X78121686Y84945016D01*
X78178747Y84989597D01*
X78282534Y85070684D01*
X78282537Y85070687D01*
X78286345Y85073662D01*
X78289508Y85077326D01*
X78419716Y85228174D01*
X78419718Y85228176D01*
X78422880Y85231840D01*
X78466593Y85308788D01*
X78523703Y85409319D01*
X78523704Y85409322D01*
X78526092Y85413525D01*
X78539845Y85454866D01*
X78590522Y85607207D01*
X78590522Y85607209D01*
X78592049Y85611798D01*
X78597599Y85655726D01*
X78603102Y85699288D01*
X78618238Y85819106D01*
X78618277Y85821880D01*
X78618617Y85846240D01*
X78618617Y85846249D01*
X78618655Y85849000D01*
X78600418Y86035000D01*
X78598738Y86052139D01*
X78598737Y86052144D01*
X78598265Y86056958D01*
X78574442Y86135863D01*
X78575724Y86197035D01*
X78612716Y86245771D01*
X78668016Y86263469D01*
X84884899Y86338760D01*
X88834033Y86386586D01*
X88892449Y86368384D01*
G37*
%TD.AperFunction*%
%TD*%
M02*
